<?xml version="1.0" encoding="utf-8"?>
<!-- Generator: Adobe Illustrator 18.0.0, SVG Export Plug-In . SVG Version: 6.00 Build 0)  -->
<!DOCTYPE svg PUBLIC "-//W3C//DTD SVG 1.1//EN" "http://www.w3.org/Graphics/SVG/1.1/DTD/svg11.dtd">
<svg version="1.1" id="Layer_1" xmlns="http://www.w3.org/2000/svg" xmlns:xlink="http://www.w3.org/1999/xlink" x="0px" y="0px"
	 viewBox="0 0 404.3 843.2" enable-background="new 0 0 404.3 843.2" xml:space="preserve">
<g>
	<path fill="#FFE05E" d="M202.2,662.6L146,663c-36.9,117.2-79,179.7-79,179.7h42.4c7.8-40.2,45.4-74.4,90.9-74.4
		c0.4,0,0.7,0.1,1.1,0.1c0.2,0,0.4-0.1,0.6-0.1c0,0,0,0,0,0c0.1,0,0.1,0,0.1,0c0.2,0,0.4,0.1,0.6,0.1c0.4,0,0.7-0.1,1.1-0.1
		c45.5,0,83.2,34.3,90.9,74.4h42.4c0,0-42.1-62.5-79-179.7L202.2,662.6z"/>
	<polygon fill="#E4B04C" points="195.2,91 202.2,0 202.2,25.5 202.2,0 209.1,91 	"/>
	<path fill="#FFC748" d="M183.1,123.8c-4.7,0-8.5-3.8-8.5-8.5V96.5c0-4.7,3.8-8.5,8.5-8.5h38.1c4.7,0,8.5,3.8,8.5,8.5v18.9
		c0,4.7-3.8,8.5-8.5,8.5H183.1z"/>
	<path fill="#FBF27F" d="M196.2,121.9h-14.8c2.2,132.8-10.8,246.9-30.7,342.8h102.8c-19.9-95.9-32.9-210-30.7-342.8h-14.8H196.2z"/>
	<path fill="#FFE05E" d="M150.7,464.6c-7,33.7-14.8,65.2-23.1,94.4l46.1,0.2c8.7-41.8,18.6-61.8,28.4-60c9.8-1.8,19.7,18.2,28.4,60
		l46.1-0.2c-8.3-29.2-16.1-60.7-23.1-94.4H150.7z"/>
	<path fill="#FFC748" d="M0,842.7h67.5c0,0,42.4-61.6,79.4-179.7l-54.4,0.3C46.6,781.3,0,842.7,0,842.7z"/>
	<path fill="#FFC748" d="M404.3,842.7h-67.5c0,0-42.4-61.6-79.4-179.7l54.4,0.3C357.7,781.3,404.3,842.7,404.3,842.7z"/>
	<path fill="#FFE05E" d="M92.6,663.3L147,663c9.6-30.5,18.6-65.4,26.6-103.7l-46.1-0.2C116.4,597.8,104.5,632.6,92.6,663.3z"/>
	<path fill="#FFE05E" d="M311.7,663.3l-54.4-0.3c-9.6-30.5-18.6-65.4-26.6-103.7l46.1-0.2C287.9,597.8,299.8,632.6,311.7,663.3z"/>
	<path fill="#B78D54" d="M185.7,485.8c-3.8,25.7-8,50.4-12.9,73.4h58.7c-4.8-22.9-9.1-47.7-12.9-73.4H185.7z"/>
	<path fill="#B78D54" d="M167.6,661.1c4.4-33.9,8.2-68.1,13.1-101.9l-7.9,0c-8.1,38.4-17.2,73.3-26.8,103.8l20.9-0.1
		C167.2,662.3,167.4,661.7,167.6,661.1z"/>
	<path fill="#B78D54" d="M236.7,661.1c-4.4-33.9-8.2-68.1-13.1-101.9l7.9,0c8.1,38.4,17.2,73.3,26.8,103.8l-20.9-0.1
		C237.1,662.3,236.9,661.7,236.7,661.1z"/>
	<polygon fill="#FBF27F" points="147.8,476.4 137.9,518.6 266.4,518.6 256.6,476.4 	"/>
	<polygon fill="#FFD355" points="140.7,504.3 146,486.2 258.3,486.2 263.6,504.3 	"/>
	<path fill="#B78D54" d="M147.5,476.4l-1.7,11.5c0,0-15.8-7.7-3-23.2h118.8c12.9,15.5-3,23.2-3,23.2l-1.7-11.5H147.5z"/>
	<path fill="#FAF28A" d="M142.8,458.1c-5.2,6.2-5.6,11.2-4.4,14.9c0.6-2.5,1.8-5.2,4.4-8.3h118.8c2.6,3.1,3.8,5.8,4.4,8.3
		c1.2-3.7,0.8-8.6-4.4-14.9H142.8z"/>
	<path fill="#C69752" d="M13.1,842.7c0,0,43.3-68.8,65.1-116.7l34.7-0.1c0,0-44.7,101.2-57,116.8H13.1z"/>
	<path fill="#C69752" d="M391.2,842.7c0,0-43.3-68.8-65.1-116.7l-34.7-0.1c0,0,44.7,101.2,57,116.8H391.2z"/>
	<path fill="#FFC748" d="M119.5,727.4c-0.8-1.4-2.6-1.9-4-1.1l-26.3,14.5c8.9-18.7,17.9-37.5,25.8-56.3c0.6-1.5-0.1-3.2-1.6-3.8
		c-1.4-0.7-3.2,0.1-3.8,1.6c-7.9,18.7-16.8,37.4-25.6,56l-6.8-11c-0.9-1.4-2.7-1.8-4-0.9c-1.4,0.9-1.8,2.7-0.9,4l8.9,14.2
		c-0.2,0.3-0.3,0.7-0.4,1L53,760.9c-0.7,0.4-1.2,1.1-1.4,1.9c-0.2,0.8,0,1.7,0.4,2.3l10.6,15.2l-28.9,12.1c-0.8,0.3-1.4,1-1.7,1.9
		c-0.3,0.8-0.1,1.7,0.4,2.5l12.3,18.3c-0.2,0.4-0.4,0.8-0.6,1.2L7.4,832.8c-1.5,0.7-2.1,2.4-1.5,3.9c0.5,1.1,1.5,6,2.7,6
		c0.4,0,0.8,0.2,1.2,0l29.7-18c-2.5,4.5-4.7,13.5-7.3,18c-0.8,1.4-0.3-0.8,1.1,0c0.5,0.3,1,0,1.5,0c1,0,2,0.9,2.5,0
		c3.9-6.8,7.2-15.2,11-22l0.1-0.1l12.1,22.1c0.6,0.8,1.5,0,2.4,0c0.6,0,1.1,0.3,1.6,0c1.3-0.9,1.7-5.9,0.8-7.3l-11.6-17.2l28.9-13.1
		c0.8-0.4,1.4-1,1.6-1.9c0.2-0.9,0.1-1.7-0.4-2.5l-12.4-17.9l28.8-12.1c0.8-0.3,1.4-1,1.7-1.8c0.3-0.8,0.1-1.7-0.3-2.4l-12.1-19.3
		l28.7-15.9C119.7,730.6,120.2,728.9,119.5,727.4z M76.5,754.5c-3.4,6.9-7,13.7-10.5,20.5l-7.4-10.6L76.5,754.5z M39.2,796.4
		l19.9-8.3c-3.7,7.1-7.5,14.1-11.3,21.1L39.2,796.4z M52.8,812.3c4.7-8.7,9.4-17.3,13.9-26l10.4,15L52.8,812.3z M72,776.4
		c4.4-8.6,8.6-17.2,12.8-25.8l10.1,16.2L72,776.4z"/>
	<path fill="#FFC748" d="M284.8,727.4c0.8-1.4,2.6-1.9,4-1.1l26.3,14.5c-8.9-18.7-17.9-37.5-25.8-56.3c-0.6-1.5,0.1-3.2,1.6-3.8
		c1.4-0.7,3.2,0.1,3.8,1.6c7.9,18.7,16.8,37.4,25.6,56l6.8-11c0.9-1.4,2.7-1.8,4-0.9c1.4,0.9,1.8,2.7,0.9,4l-8.9,14.2
		c0.2,0.3,0.3,0.7,0.4,1l27.6,15.3c0.7,0.4,1.2,1.1,1.4,1.9c0.2,0.8,0,1.7-0.4,2.3l-10.6,15.2l28.9,12.1c0.8,0.3,1.4,1,1.7,1.9
		c0.3,0.8,0.1,1.7-0.4,2.5l-12.3,18.3c0.2,0.4,0.4,0.8,0.6,1.2l36.7,16.6c1.5,0.7,2.1,2.4,1.5,3.9c-0.5,1.1-1.5,6-2.7,6
		c-0.4,0-0.8,0.2-1.2,0l-29.7-18c2.5,4.5,4.7,13.5,7.3,18c0.8,1.4,0.3-0.8-1.1,0c-0.5,0.3-1,0-1.5,0c-1,0-2,0.9-2.5,0
		c-3.9-6.8-7.2-15.2-11-22l-0.1-0.1l-12.1,22.1c-0.6,0.8-1.5,0-2.4,0c-0.6,0-1.1,0.3-1.6,0c-1.3-0.9-1.7-5.9-0.8-7.3l11.6-17.2
		l-28.9-13.1c-0.8-0.4-1.4-1-1.6-1.9c-0.2-0.9-0.1-1.7,0.4-2.5l12.4-17.9l-28.8-12.1c-0.8-0.3-1.4-1-1.7-1.8
		c-0.3-0.8-0.1-1.7,0.3-2.4l12.1-19.3L286,731.4C284.6,730.6,284.1,728.9,284.8,727.4z M327.8,754.5c3.4,6.9,7,13.7,10.5,20.5
		l7.4-10.6L327.8,754.5z M365.1,796.4l-19.9-8.3c3.7,7.1,7.5,14.1,11.3,21.1L365.1,796.4z M351.5,812.3c-4.7-8.7-9.4-17.3-13.9-26
		l-10.4,15L351.5,812.3z M332.3,776.4c-4.4-8.6-8.6-17.2-12.8-25.8l-10.1,16.2L332.3,776.4z"/>
	<path opacity="0.5" fill="#8F6B5A" d="M86.2,721.9h-0.5c-2.3,0-4.1-1.8-4.1-4.1v-12.1c0-2.3,1.8-4.1,4.1-4.1h0.5
		c2.3,0,4.1,1.8,4.1,4.1v12.1C90.4,720,88.5,721.9,86.2,721.9z"/>
	<path opacity="0.5" fill="#8F6B5A" d="M318.1,721.9h0.5c2.3,0,4.1-1.8,4.1-4.1v-12.1c0-2.3-1.8-4.1-4.1-4.1h-0.5
		c-2.3,0-4.1,1.8-4.1,4.1v12.1C314,720,315.8,721.9,318.1,721.9z"/>
	<path opacity="0.5" fill="#8F6B5A" d="M105.5,721.9h-0.5c-2.3,0-4.1-1.8-4.1-4.1v-12.1c0-2.3,1.8-4.1,4.1-4.1h0.5
		c2.3,0,4.1,1.8,4.1,4.1v12.1C109.6,720,107.7,721.9,105.5,721.9z"/>
	<path opacity="0.5" fill="#8F6B5A" d="M298.9,721.9h0.6c2.3,0,4.1-1.8,4.1-4.1v-12.1c0-2.3-1.8-4.1-4.1-4.1h-0.6
		c-2.3,0-4.1,1.8-4.1,4.1v12.1C294.7,720,296.6,721.9,298.9,721.9z"/>
	<path opacity="0.5" fill="#8F6B5A" d="M124.7,721.9h-0.6c-2.3,0-4.1-1.8-4.1-4.1v-12.1c0-2.3,1.8-4.1,4.1-4.1h0.6
		c2.3,0,4.1,1.8,4.1,4.1v12.1C128.8,720,126.9,721.9,124.7,721.9z"/>
	<path opacity="0.5" fill="#8F6B5A" d="M279.6,721.9h0.6c2.3,0,4.1-1.8,4.1-4.1v-12.1c0-2.3-1.8-4.1-4.1-4.1h-0.6
		c-2.3,0-4.1,1.8-4.1,4.1v12.1C275.5,720,277.4,721.9,279.6,721.9z"/>
	<path opacity="0.5" fill="#8F6B5A" d="M143.9,721.9h-0.6c-2.3,0-4.1-1.8-4.1-4.1v-12.1c0-2.3,1.8-4.1,4.1-4.1h0.6
		c2.3,0,4.1,1.8,4.1,4.1v12.1C148,720,146.1,721.9,143.9,721.9z"/>
	<path opacity="0.5" fill="#8F6B5A" d="M260.4,721.9h0.5c2.3,0,4.1-1.8,4.1-4.1v-12.1c0-2.3-1.8-4.1-4.1-4.1h-0.5
		c-2.3,0-4.1,1.8-4.1,4.1v12.1C256.3,720,258.2,721.9,260.4,721.9z"/>
	<path opacity="0.5" fill="#8F6B5A" d="M163.1,721.9h-0.6c-2.3,0-4.1-1.8-4.1-4.1v-12.1c0-2.3,1.8-4.1,4.1-4.1h0.6
		c2.3,0,4.1,1.8,4.1,4.1v12.1C167.2,720,165.4,721.9,163.1,721.9z"/>
	<path opacity="0.5" fill="#8F6B5A" d="M241.2,721.9h0.5c2.3,0,4.1-1.8,4.1-4.1v-12.1c0-2.3-1.8-4.1-4.1-4.1h-0.5
		c-2.3,0-4.1,1.8-4.1,4.1v12.1C237.1,720,238.9,721.9,241.2,721.9z"/>
	<path opacity="0.5" fill="#8F6B5A" d="M182.3,721.9h-0.5c-2.3,0-4.1-1.8-4.1-4.1v-12.1c0-2.3,1.8-4.1,4.1-4.1h0.5
		c2.3,0,4.1,1.8,4.1,4.1v12.1C186.4,720,184.6,721.9,182.3,721.9z"/>
	<path opacity="0.5" fill="#8F6B5A" d="M222,721.9h0.6c2.3,0,4.1-1.8,4.1-4.1v-12.1c0-2.3-1.8-4.1-4.1-4.1H222
		c-2.3,0-4.1,1.8-4.1,4.1v12.1C217.9,720,219.7,721.9,222,721.9z"/>
	<path opacity="0.5" fill="#8F6B5A" d="M202.2,721.8c-0.2,0-0.4,0-0.6,0H201c-2.3,0-4.1-1.8-4.1-4.1v-12.1c0-2.3,1.8-4.1,4.1-4.1
		h0.5c0.2,0,0.4,0,0.6,0c0.2,0,0.4,0,0.6,0h0.6c2.3,0,4.1,1.8,4.1,4.1v12.1c0,2.3-1.8,4.1-4.1,4.1h-0.6
		C202.6,721.9,202.4,721.8,202.2,721.8z"/>
	<path fill="#C69752" d="M109.3,640.1c0,0,25.2-68,35.8-116.6l27.5-0.2c0,0-21.8,99.7-29.4,115.8L109.3,640.1z"/>
	<path fill="#C69752" d="M295,640.1c0,0-25.2-68-35.8-116.6l-27.5-0.2c0,0,21.8,99.7,29.4,115.8L295,640.1z"/>
	<path fill="#FFE05E" d="M178.4,524.7c-0.9-1.2-2.6-1.4-3.8-0.5l-18.2,14.3c1.3-5.5,2.7-10.8,4-16.4c0.3-1.5-0.6-2.9-2.1-3.2
		c-1.5-0.3-2.9,0.6-3.2,2.1c-1.1,4.9-2.4,9.6-3.5,14.4l-6.5-10.4c-0.8-1.3-2.5-1.7-3.7-0.9c-1.3,0.8-1.7,2.5-0.9,3.7l9.3,14.9
		c-0.1,0.4-0.2,0.8-0.3,1.2l-19.6,15.4c-1.1,0.9-1.4,2.5-0.6,3.7l10.9,16.1L119,591.4c-0.7,0.4-1.1,1-1.3,1.7
		c-0.2,0.7,0,1.5,0.4,2.1l12.7,19.5c-0.1,0.4-0.2,0.8-0.3,1.1l-26.9,16.9c-1.3,0.8-1.7,2.5-0.9,3.8c0.5,0.8,1.4,1.3,2.3,1.3
		c0.5,0,1-0.1,1.5-0.4l21.7-13.6c-1.5,5-2.8,10.2-4.3,15.1c-0.5,1.4,0.4,3,1.8,3.4c0.3,0.1,0.5,0.1,0.8,0.1c1.2,0,2.2-0.8,2.6-1.9
		c2-6.4,3.7-13.2,5.6-19.7l11.6,17.7c0.5,0.8,1.4,1.2,2.3,1.2c0.5,0,1-0.2,1.5-0.5c1.3-0.8,1.6-2.5,0.8-3.8L138.8,617l21.2-13.3
		c0.6-0.4,1.1-1,1.2-1.7c0.2-0.7,0-1.5-0.4-2.1l-12.8-19l21.1-12.2c0.7-0.4,1.1-1,1.3-1.7c0.2-0.7,0-1.5-0.3-2.1l-12.7-20.3
		l20.5-16.1C179.1,527.5,179.3,525.8,178.4,524.7z M147.4,552.4c-1.7,6.8-3.2,13.6-4.9,20.3l-7.3-10.7L147.4,552.4z M124.2,594.6
		l14.8-8.6c-2,7.4-4.2,14.5-6.2,21.7L124.2,594.6z M137.4,611.5c2.5-8.6,5-17,7.4-25.7l10,14.8L137.4,611.5z M147.5,574.9
		c2.2-8.5,4.2-17.1,6.3-25.7l10.2,16.2L147.5,574.9z"/>
	<path fill="#FFE05E" d="M225.9,524.7c0.9-1.2,2.6-1.4,3.8-0.5l18.2,14.3c-1.3-5.5-2.7-10.8-4-16.4c-0.3-1.5,0.6-2.9,2.1-3.2
		c1.5-0.3,2.9,0.6,3.2,2.1c1.1,4.9,2.4,9.6,3.5,14.4l6.5-10.4c0.8-1.3,2.5-1.7,3.7-0.9c1.3,0.8,1.7,2.5,0.9,3.7l-9.3,14.9
		c0.1,0.4,0.2,0.8,0.3,1.2l19.6,15.4c1.1,0.9,1.4,2.5,0.6,3.7l-10.9,16.1l21.2,12.3c0.7,0.4,1.1,1,1.3,1.7c0.2,0.7,0,1.5-0.4,2.1
		l-12.7,19.5c0.1,0.4,0.2,0.8,0.3,1.1l26.9,16.9c1.3,0.8,1.7,2.5,0.9,3.8c-0.5,0.8-1.4,1.3-2.3,1.3c-0.5,0-1-0.1-1.5-0.4l-21.7-13.6
		c1.5,5,2.8,10.2,4.3,15.1c0.5,1.4-0.4,3-1.8,3.4c-0.3,0.1-0.5,0.1-0.8,0.1c-1.2,0-2.2-0.8-2.6-1.9c-2-6.4-3.7-13.2-5.6-19.7
		L258,638.4c-0.5,0.8-1.4,1.2-2.3,1.2c-0.5,0-1-0.2-1.5-0.5c-1.3-0.8-1.6-2.5-0.8-3.8l12-18.4l-21.2-13.3c-0.6-0.4-1.1-1-1.2-1.7
		c-0.2-0.7,0-1.5,0.4-2.1l12.8-19l-21.1-12.2c-0.7-0.4-1.1-1-1.3-1.7c-0.2-0.7-0.1-1.5,0.3-2.1l12.7-20.3l-20.5-16.1
		C225.2,527.5,225,525.8,225.9,524.7z M256.9,552.4c1.7,6.8,3.2,13.6,4.9,20.3l7.3-10.7L256.9,552.4z M280.1,594.6l-14.8-8.6
		c2,7.4,4.2,14.5,6.2,21.7L280.1,594.6z M266.9,611.5c-2.5-8.6-5-17-7.4-25.7l-10,14.8L266.9,611.5z M256.8,574.9
		c-2.2-8.5-4.2-17.1-6.3-25.7l-10.2,16.2L256.8,574.9z"/>
	<g>
		<g>
			<rect x="81.6" y="647.2" fill="#C29351" width="241.2" height="33.3"/>
			<path fill="#8F6B5A" d="M95.3,673.9h-0.2c-2.2,0-3.9-1.8-3.9-3.9v-12.4c0-2.2,1.8-3.9,3.9-3.9h0.2c2.2,0,3.9,1.8,3.9,3.9V670
				C99.2,672.2,97.5,673.9,95.3,673.9z"/>
			<path fill="#8F6B5A" d="M309,673.9h0.2c2.2,0,3.9-1.8,3.9-3.9v-12.4c0-2.2-1.8-3.9-3.9-3.9H309c-2.2,0-3.9,1.8-3.9,3.9V670
				C305.1,672.2,306.9,673.9,309,673.9z"/>
			<path fill="#8F6B5A" d="M113,673.9h-0.2c-2.2,0-3.9-1.8-3.9-3.9v-12.4c0-2.2,1.8-3.9,3.9-3.9h0.2c2.2,0,3.9,1.8,3.9,3.9V670
				C116.9,672.2,115.1,673.9,113,673.9z"/>
			<path fill="#8F6B5A" d="M291.3,673.9h0.2c2.2,0,3.9-1.8,3.9-3.9v-12.4c0-2.2-1.8-3.9-3.9-3.9h-0.2c-2.2,0-3.9,1.8-3.9,3.9V670
				C287.4,672.2,289.2,673.9,291.3,673.9z"/>
			<path fill="#8F6B5A" d="M130.7,673.9h-0.2c-2.2,0-3.9-1.8-3.9-3.9v-12.4c0-2.2,1.8-3.9,3.9-3.9h0.2c2.2,0,3.9,1.8,3.9,3.9V670
				C134.6,672.2,132.8,673.9,130.7,673.9z"/>
			<path fill="#8F6B5A" d="M273.6,673.9h0.2c2.2,0,3.9-1.8,3.9-3.9v-12.4c0-2.2-1.8-3.9-3.9-3.9h-0.2c-2.2,0-3.9,1.8-3.9,3.9V670
				C269.7,672.2,271.5,673.9,273.6,673.9z"/>
			<path fill="#8F6B5A" d="M148.4,673.9h-0.2c-2.2,0-3.9-1.8-3.9-3.9v-12.4c0-2.2,1.8-3.9,3.9-3.9h0.2c2.2,0,3.9,1.8,3.9,3.9V670
				C152.3,672.2,150.5,673.9,148.4,673.9z"/>
			<path fill="#8F6B5A" d="M255.9,673.9h0.2c2.2,0,3.9-1.8,3.9-3.9v-12.4c0-2.2-1.8-3.9-3.9-3.9h-0.2c-2.2,0-3.9,1.8-3.9,3.9V670
				C252,672.2,253.8,673.9,255.9,673.9z"/>
			<path fill="#8F6B5A" d="M166.1,673.9h-0.2c-2.2,0-3.9-1.8-3.9-3.9v-12.4c0-2.2,1.8-3.9,3.9-3.9h0.2c2.2,0,3.9,1.8,3.9,3.9V670
				C170,672.2,168.2,673.9,166.1,673.9z"/>
			<path fill="#8F6B5A" d="M238.3,673.9h0.2c2.2,0,3.9-1.8,3.9-3.9v-12.4c0-2.2-1.8-3.9-3.9-3.9h-0.2c-2.2,0-3.9,1.8-3.9,3.9V670
				C234.3,672.2,236.1,673.9,238.3,673.9z"/>
			<path fill="#8F6B5A" d="M183.8,673.9h-0.2c-2.2,0-3.9-1.8-3.9-3.9v-12.4c0-2.2,1.8-3.9,3.9-3.9h0.2c2.2,0,3.9,1.8,3.9,3.9V670
				C187.7,672.2,185.9,673.9,183.8,673.9z"/>
			<path fill="#8F6B5A" d="M220.6,673.9h0.2c2.2,0,3.9-1.8,3.9-3.9v-12.4c0-2.2-1.8-3.9-3.9-3.9h-0.2c-2.2,0-3.9,1.8-3.9,3.9V670
				C216.6,672.2,218.4,673.9,220.6,673.9z"/>
			<path fill="#8F6B5A" d="M202.2,673.9c-0.2,0-0.5,0.1-0.7,0.1h-0.2c-2.2,0-3.9-1.8-3.9-3.9v-12.4c0-2.2,1.8-3.9,3.9-3.9h0.2
				c0.2,0,0.5,0,0.7,0.1c0.2,0,0.5-0.1,0.7-0.1h0.2c2.2,0,3.9,1.8,3.9,3.9V670c0,2.2-1.8,3.9-3.9,3.9h-0.2
				C202.6,673.9,202.4,673.9,202.2,673.9z"/>
		</g>
		<path fill="#9E7558" d="M82.4,697.6c-2.3,0-4.2-1.9-4.2-4.2l0,0c0-2.3,1.9-4.2,4.2-4.2h239.6c2.3,0,4.2,1.9,4.2,4.2l0,0
			c0,2.3-1.9,4.2-4.2,4.2H82.4z"/>
		<path fill="#FEEA6C" d="M79.2,689.2c-2.3,0-4.2-1.9-4.2-4.2l0,0c0-2.3,1.9-4.2,4.2-4.2h245.9c2.3,0,4.2,1.9,4.2,4.2l0,0
			c0,2.3-1.9,4.2-4.2,4.2H79.2z"/>
		<path fill="#FBF27F" d="M83.3,647.2c-2.3,0-4.1-1.8-4.1-4.1v-0.1c0-2.3,1.8-4.1,4.1-4.1H321c2.3,0,4.1,1.8,4.1,4.1v0.1
			c0,2.3-1.8,4.1-4.1,4.1H83.3z"/>
		<polygon opacity="0.3" fill="#FAF28A" points="77.4,697.6 65.9,725.9 338.4,725.9 326.9,697.6 		"/>
	</g>
	<g>
		<polygon fill="#D6A54F" points="185.3,435.1 162.7,435.1 157.4,458.3 183.2,458.3 		"/>
		<polygon fill="#D6A54F" points="219,435.1 241.6,435.1 246.9,458.3 221.1,458.3 		"/>
		<polygon fill="#D6A54F" points="189.6,435.1 188.1,458.3 216.2,458.3 214.7,435.1 		"/>
	</g>
	<g>
		<polygon fill="#D6A54F" points="187.1,411.3 167.3,411.3 162.7,431.2 185.2,431.2 		"/>
		<polygon fill="#D6A54F" points="217.2,411.3 237,411.3 241.6,431.2 219.1,431.2 		"/>
		<polygon fill="#D6A54F" points="190.9,411.3 189.6,431.2 214.7,431.2 213.4,411.3 		"/>
	</g>
	<polygon fill="#D6A54F" points="188.4,390.6 170.1,390.7 168.1,407.3 187.3,407.1 	"/>
	<polygon fill="#D6A54F" points="215.9,390.6 234.2,390.7 236.2,407.3 217,407.1 	"/>
	<polygon fill="#D6A54F" points="192.5,390.6 191.4,407.3 212.9,407.3 211.8,390.6 	"/>
	<path fill="#E4B04C" d="M192.5,385c0,0,8.5-80.7,8.5-94.2l1.1,13.1l1.1-13.1c0,13.5,8.5,94.2,8.5,94.2H192.5z"/>
	<polygon fill="#D6A54F" points="190.5,369.4 172.2,369.5 170.1,386.1 189.3,385.9 	"/>
	<polygon fill="#D6A54F" points="213.8,369.4 232.1,369.5 234.2,386.1 215,385.9 	"/>
	<polygon fill="#D6A54F" points="192.5,348 174.2,348.1 172.2,364.7 191.4,364.5 	"/>
	<polygon fill="#D6A54F" points="211.8,348 230.1,348.1 232.1,364.7 212.9,364.5 	"/>
	<polygon fill="#D6A54F" points="195.5,326.9 177.1,327 175.1,343.6 194.3,343.4 	"/>
	<polygon fill="#D6A54F" points="208.9,326.9 227.2,327 229.2,343.6 210,343.4 	"/>
	<polygon fill="#D6A54F" points="196.1,305.8 179.3,305.9 177.4,322.4 195,322.2 	"/>
	<polygon fill="#D6A54F" points="208.2,305.8 225,305.9 226.9,322.4 209.3,322.2 	"/>
	<polygon fill="#D6A54F" points="197.9,285.5 181.2,285.5 179.3,302.1 196.9,301.9 	"/>
	<polygon fill="#D6A54F" points="206.4,285.5 223.1,285.5 225,302.1 207.4,301.9 	"/>
	<polygon fill="#D6A54F" points="198.1,265.1 182.8,265.2 181.1,281.8 197.1,281.6 	"/>
	<polygon fill="#D6A54F" points="206.2,265.1 221.5,265.2 223.2,281.8 207.2,281.6 	"/>
	<polygon fill="#D6A54F" points="197.6,244.7 183.6,244.8 182.8,261.5 197.5,261.3 	"/>
	<polygon fill="#D6A54F" points="206.7,244.7 220.7,244.8 221.5,261.5 206.8,261.3 	"/>
	<polygon fill="#D6A54F" points="197.9,224.4 183.9,224.5 183.1,241.3 197.8,241.1 	"/>
	<polygon fill="#D6A54F" points="206.4,224.4 220.4,224.5 221.2,241.3 206.5,241.1 	"/>
	<polygon fill="#D6A54F" points="198.2,203.9 184.2,203.9 183.5,220.7 198.2,220.5 	"/>
	<polygon fill="#D6A54F" points="206.1,203.9 220.1,203.9 220.8,220.7 206.1,220.5 	"/>
	<polygon fill="#D6A54F" points="198.6,183.3 184.6,183.4 183.8,200.1 198.5,199.9 	"/>
	<polygon fill="#D6A54F" points="205.7,183.3 219.7,183.4 220.5,200.1 205.8,199.9 	"/>
	<polygon fill="#D6A54F" points="198.9,162.7 184.9,162.8 184.2,179.5 198.8,179.3 	"/>
	<polygon fill="#D6A54F" points="205.4,162.7 219.4,162.8 220.2,179.5 205.5,179.3 	"/>
	<polygon fill="#D6A54F" points="199.3,142.1 185.2,142.2 184.5,158.9 199.2,158.7 	"/>
	<polygon fill="#D6A54F" points="205,142.1 219.1,142.2 219.8,158.9 205.1,158.7 	"/>
	<polygon fill="#D6A54F" points="199.6,121.5 185.6,121.6 184.8,138.3 199.5,138.1 	"/>
	<polygon fill="#D6A54F" points="204.7,121.5 218.7,121.6 219.5,138.3 204.8,138.1 	"/>
	<g>
		<path fill="#FBF27F" d="M183.2,460.2c-0.5,0-1.1-0.2-1.4-0.7l-20.5-23.2c-0.7-0.8-0.6-2,0.2-2.7c0.8-0.7,2-0.6,2.7,0.2l20.5,23.2
			c0.7,0.8,0.6,2-0.2,2.7C184.1,460.1,183.6,460.2,183.2,460.2z"/>
		<path fill="#FBF27F" d="M221.1,460.2c0.5,0,1.1-0.2,1.4-0.7l20.5-23.2c0.7-0.8,0.6-2-0.2-2.7c-0.8-0.7-2-0.6-2.7,0.2L219.7,457
			c-0.7,0.8-0.6,2,0.2,2.7C220.2,460.1,220.7,460.2,221.1,460.2z"/>
		<path fill="#FBF27F" d="M157.4,460.2c-0.6,0-1.1-0.2-1.5-0.7c-0.7-0.8-0.6-2,0.3-2.7l27.9-23.2c0.8-0.7,2-0.6,2.7,0.3
			c0.7,0.8,0.6,2-0.3,2.7l-27.9,23.2C158.3,460.1,157.9,460.2,157.4,460.2z"/>
		<path fill="#FBF27F" d="M246.9,460.2c0.6,0,1.1-0.2,1.5-0.7c0.7-0.8,0.6-2-0.3-2.7l-27.9-23.2c-0.8-0.7-2-0.6-2.7,0.3
			c-0.7,0.8-0.6,2,0.3,2.7l27.9,23.2C246,460.1,246.4,460.2,246.9,460.2z"/>
		<path fill="#FBF27F" d="M202.2,449.8l-13.8-13.3c-0.8-0.7-0.8-2-0.1-2.7c0.7-0.8,1.9-0.8,2.7,0l11.2,10.7l11.2-10.7
			c0.8-0.7,2-0.7,2.7,0c0.7,0.8,0.7,2,0,2.7L202.2,449.8z"/>
		<path fill="#FBF27F" d="M202.2,448.2l-12.8,11.6c-0.4,0.3-0.8,0.5-1.3,0.5c-0.5,0-1-0.2-1.4-0.6c-0.7-0.8-0.7-2,0.1-2.7l15.3-13.9
			l15.3,13.9c0.8,0.7,0.9,1.9,0.1,2.7c-0.4,0.4-0.9,0.6-1.4,0.6c-0.5,0-0.9-0.2-1.3-0.5L202.2,448.2z"/>
		<path fill="#FBF27F" d="M185.2,432.9c-0.5,0-0.9-0.2-1.2-0.6l-17.9-19.9c-0.6-0.7-0.6-1.7,0.1-2.4c0.7-0.6,1.7-0.6,2.4,0.1
			l17.9,19.9c0.6,0.7,0.6,1.7-0.1,2.4C186,432.7,185.6,432.9,185.2,432.9z"/>
		<path fill="#FBF27F" d="M219.1,432.9c0.5,0,0.9-0.2,1.2-0.6l17.9-19.9c0.6-0.7,0.6-1.7-0.1-2.4c-0.7-0.6-1.7-0.6-2.4,0.1
			l-17.9,19.9c-0.6,0.7-0.6,1.7,0.1,2.4C218.3,432.7,218.7,432.9,219.1,432.9z"/>
		<path fill="#FBF27F" d="M162.7,432.9c-0.5,0-1-0.2-1.3-0.6c-0.6-0.7-0.5-1.8,0.2-2.3l24.4-19.9c0.7-0.6,1.8-0.5,2.3,0.2
			c0.6,0.7,0.5,1.8-0.2,2.3l-24.4,19.9C163.4,432.7,163.1,432.9,162.7,432.9z"/>
		<path fill="#FBF27F" d="M241.6,432.9c0.5,0,1-0.2,1.3-0.6c0.6-0.7,0.5-1.8-0.2-2.3L218.2,410c-0.7-0.6-1.8-0.5-2.3,0.2
			c-0.6,0.7-0.5,1.8,0.2,2.3l24.4,19.9C240.9,432.7,241.2,432.9,241.6,432.9z"/>
		<path fill="#FBF27F" d="M202.2,424.1l-12.4-11.6c-0.7-0.6-0.7-1.7-0.1-2.4c0.6-0.7,1.7-0.7,2.4-0.1l10.1,9.5l10.1-9.5
			c0.7-0.6,1.7-0.6,2.4,0.1c0.6,0.7,0.6,1.7-0.1,2.4L202.2,424.1z"/>
		<path fill="#FBF27F" d="M202.2,422.2l-11.5,10.2c-0.3,0.3-0.7,0.4-1.1,0.4c-0.5,0-0.9-0.2-1.3-0.6c-0.6-0.7-0.5-1.7,0.2-2.4
			l13.7-12.2l13.7,12.2c0.7,0.6,0.8,1.7,0.2,2.4c-0.3,0.4-0.8,0.6-1.3,0.6c-0.4,0-0.8-0.2-1.1-0.4L202.2,422.2z"/>
		<path fill="#FBF27F" d="M187.3,408.5c-0.4,0-0.7-0.1-1-0.4l-17.1-16.4c-0.6-0.5-0.6-1.4,0-2c0.5-0.6,1.4-0.6,2-0.1l17.1,16.4
			c0.6,0.5,0.6,1.4,0,2C188,408.4,187.6,408.5,187.3,408.5z"/>
		<path fill="#FBF27F" d="M217,408.5c0.4,0,0.7-0.1,1-0.4l17.1-16.4c0.6-0.5,0.6-1.4,0-2c-0.5-0.6-1.4-0.6-2-0.1l-17.1,16.4
			c-0.6,0.5-0.6,1.4-0.1,2C216.3,408.4,216.7,408.5,217,408.5z"/>
		<path fill="#FBF27F" d="M168.1,408.7c-0.4,0-0.8-0.2-1.1-0.5c-0.5-0.6-0.4-1.5,0.2-2l20.4-16.7c0.6-0.5,1.5-0.4,2,0.2
			c0.5,0.6,0.4,1.5-0.2,2L169,408.4C168.7,408.6,168.4,408.7,168.1,408.7z"/>
		<path fill="#FBF27F" d="M236.2,408.7c0.4,0,0.8-0.2,1.1-0.5c0.5-0.6,0.4-1.5-0.2-2l-20.4-16.7c-0.6-0.5-1.5-0.4-2,0.2
			c-0.5,0.6-0.4,1.5,0.2,2l20.4,16.7C235.6,408.6,235.9,408.7,236.2,408.7z"/>
		<path fill="#FBF27F" d="M202.2,401.3l-10.6-9.6c-0.6-0.5-0.6-1.4-0.1-2c0.5-0.6,1.4-0.7,2-0.1l8.6,7.9l8.6-7.9
			c0.6-0.6,1.5-0.5,2,0.1c0.5,0.6,0.5,1.5-0.1,2L202.2,401.3z"/>
		<path fill="#FBF27F" d="M202.2,399.8l-9.9,8.5c-0.3,0.2-0.6,0.4-0.9,0.4c-0.4,0-0.8-0.2-1.1-0.5c-0.5-0.6-0.5-1.5,0.2-2l11.7-10.1
			l11.7,10.1c0.6,0.5,0.7,1.4,0.2,2c-0.3,0.3-0.7,0.5-1.1,0.5c-0.3,0-0.7-0.1-0.9-0.4L202.2,399.8z"/>
		<path fill="#FBF27F" d="M189.3,387.3c-0.4,0-0.7-0.1-1-0.4l-17.1-16.4c-0.6-0.5-0.6-1.4-0.1-2c0.5-0.6,1.4-0.6,2,0l17.1,16.4
			c0.6,0.5,0.6,1.4,0.1,2C190.1,387.2,189.7,387.3,189.3,387.3z"/>
		<path fill="#FBF27F" d="M215,387.3c0.4,0,0.7-0.1,1-0.4l17.1-16.4c0.6-0.5,0.6-1.4,0.1-2c-0.5-0.6-1.4-0.6-2,0L214,384.9
			c-0.6,0.5-0.6,1.4,0,2C214.2,387.2,214.6,387.3,215,387.3z"/>
		<path fill="#FBF27F" d="M170.1,387.5c-0.4,0-0.8-0.2-1.1-0.5c-0.5-0.6-0.4-1.5,0.2-2l20.4-16.7c0.6-0.5,1.5-0.4,2,0.2
			c0.5,0.6,0.4,1.5-0.2,2L171,387.2C170.8,387.4,170.4,387.5,170.1,387.5z"/>
		<path fill="#FBF27F" d="M234.2,387.5c0.4,0,0.8-0.2,1.1-0.5c0.5-0.6,0.4-1.5-0.2-2l-20.4-16.7c-0.6-0.5-1.5-0.4-2,0.2
			c-0.5,0.6-0.4,1.5,0.2,2l20.4,16.7C233.5,387.4,233.9,387.5,234.2,387.5z"/>
		<path fill="#FBF27F" d="M191.4,365.9c-0.4,0-0.7-0.1-1-0.4l-17.1-16.4c-0.6-0.5-0.6-1.4,0-2c0.5-0.6,1.4-0.6,2-0.1l17.1,16.4
			c0.6,0.5,0.6,1.4,0,2C192.1,365.7,191.8,365.9,191.4,365.9z"/>
		<path fill="#FBF27F" d="M212.9,365.9c0.4,0,0.7-0.1,1-0.4l17.1-16.4c0.6-0.5,0.6-1.4,0-2c-0.5-0.6-1.4-0.6-2-0.1L212,363.5
			c-0.6,0.5-0.6,1.4-0.1,2C212.2,365.7,212.6,365.9,212.9,365.9z"/>
		<path fill="#FBF27F" d="M172.2,366.1c-0.4,0-0.8-0.2-1.1-0.5c-0.5-0.6-0.4-1.5,0.2-2l20.4-16.7c0.6-0.5,1.5-0.4,2,0.2
			c0.5,0.6,0.4,1.5-0.2,2l-20.4,16.7C172.8,366,172.5,366.1,172.2,366.1z"/>
		<path fill="#FBF27F" d="M232.1,366.1c0.4,0,0.8-0.2,1.1-0.5c0.5-0.6,0.4-1.5-0.2-2l-20.4-16.7c-0.6-0.5-1.5-0.4-2,0.2
			c-0.5,0.6-0.4,1.5,0.2,2l20.4,16.7C231.5,366,231.8,366.1,232.1,366.1z"/>
		<path fill="#FBF27F" d="M194.3,344.8c-0.4,0-0.7-0.1-1-0.4L176.2,328c-0.6-0.5-0.6-1.4-0.1-2c0.5-0.6,1.4-0.6,2-0.1l17.1,16.4
			c0.6,0.5,0.6,1.4,0.1,2C195,344.7,194.7,344.8,194.3,344.8z"/>
		<path fill="#FBF27F" d="M210,344.8c0.4,0,0.7-0.1,1-0.4l17.1-16.4c0.6-0.5,0.6-1.4,0.1-2c-0.5-0.6-1.4-0.6-2-0.1L209,342.4
			c-0.6,0.5-0.6,1.4-0.1,2C209.3,344.7,209.7,344.8,210,344.8z"/>
		<path fill="#FBF27F" d="M175.1,345c-0.4,0-0.8-0.2-1.1-0.5c-0.5-0.6-0.4-1.5,0.2-2l20.4-16.7c0.6-0.5,1.5-0.4,2,0.2
			c0.5,0.6,0.4,1.5-0.2,2L176,344.7C175.7,344.9,175.4,345,175.1,345z"/>
		<path fill="#FBF27F" d="M229.2,345c0.4,0,0.8-0.2,1.1-0.5c0.5-0.6,0.4-1.5-0.2-2l-20.4-16.7c-0.6-0.5-1.5-0.4-2,0.2
			c-0.5,0.6-0.4,1.5,0.2,2l20.4,16.7C228.6,344.9,228.9,345,229.2,345z"/>
		<path fill="#FBF27F" d="M195,323.6c-0.4,0-0.7-0.1-1-0.4l-15.7-16.4c-0.5-0.5-0.5-1.4,0-1.9c0.5-0.5,1.4-0.5,1.9,0l15.7,16.4
			c0.5,0.5,0.5,1.4,0,1.9C195.7,323.5,195.3,323.6,195,323.6z"/>
		<path fill="#FBF27F" d="M209.3,323.6c0.4,0,0.7-0.1,1-0.4l15.7-16.4c0.5-0.5,0.5-1.4,0-1.9c-0.5-0.5-1.4-0.5-1.9,0l-15.7,16.4
			c-0.5,0.5-0.5,1.4,0,1.9C208.6,323.5,209,323.6,209.3,323.6z"/>
		<path fill="#FBF27F" d="M177.4,323.8c-0.4,0-0.7-0.2-1-0.5c-0.5-0.6-0.5-1.4,0.1-1.9l18.6-16.7c0.6-0.5,1.4-0.5,1.9,0.1
			c0.5,0.6,0.5,1.4-0.1,1.9l-18.6,16.7C178.1,323.7,177.7,323.8,177.4,323.8z"/>
		<path fill="#FBF27F" d="M226.9,323.8c0.4,0,0.7-0.2,1-0.5c0.5-0.6,0.5-1.4-0.1-1.9l-18.6-16.7c-0.6-0.5-1.4-0.5-1.9,0.1
			c-0.5,0.6-0.5,1.4,0.1,1.9l18.6,16.7C226.2,323.7,226.6,323.8,226.9,323.8z"/>
		<path fill="#FBF27F" d="M196.9,303.3c-0.4,0-0.7-0.1-1-0.4l-15.7-16.4c-0.5-0.5-0.5-1.4,0-1.9c0.6-0.5,1.4-0.5,1.9,0l15.7,16.4
			c0.5,0.5,0.5,1.4,0,1.9C197.5,303.1,197.2,303.3,196.9,303.3z"/>
		<path fill="#FBF27F" d="M207.4,303.3c0.4,0,0.7-0.1,1-0.4l15.7-16.4c0.5-0.5,0.5-1.4,0-1.9c-0.6-0.5-1.4-0.5-1.9,0L206.5,301
			c-0.5,0.5-0.5,1.4,0,1.9C206.8,303.1,207.1,303.3,207.4,303.3z"/>
		<path fill="#FBF27F" d="M179.3,303.5c-0.4,0-0.7-0.2-1-0.5c-0.5-0.6-0.5-1.4,0.1-1.9l18.6-16.7c0.6-0.5,1.4-0.5,1.9,0.1
			c0.5,0.6,0.5,1.4-0.1,1.9l-18.6,16.7C179.9,303.4,179.6,303.5,179.3,303.5z"/>
		<path fill="#FBF27F" d="M225,303.5c0.4,0,0.7-0.2,1-0.5c0.5-0.6,0.5-1.4-0.1-1.9l-18.6-16.7c-0.6-0.5-1.4-0.5-1.9,0.1
			c-0.5,0.6-0.5,1.4,0.1,1.9l18.6,16.7C224.4,303.4,224.7,303.5,225,303.5z"/>
		<path fill="#FBF27F" d="M197.1,282.9c-0.4,0-0.7-0.2-1-0.4l-14.3-16.4c-0.5-0.5-0.4-1.4,0.1-1.8c0.6-0.5,1.4-0.4,1.8,0.1
			l14.3,16.4c0.5,0.5,0.4,1.4-0.1,1.8C197.7,282.8,197.4,282.9,197.1,282.9z"/>
		<path fill="#FBF27F" d="M207.2,282.9c0.4,0,0.7-0.2,1-0.4l14.3-16.4c0.5-0.5,0.4-1.4-0.1-1.8c-0.6-0.5-1.4-0.4-1.8,0.1l-14.3,16.4
			c-0.5,0.5-0.4,1.4,0.1,1.8C206.6,282.8,206.9,282.9,207.2,282.9z"/>
		<path fill="#FBF27F" d="M181.1,283.1c-0.3,0-0.7-0.1-0.9-0.4c-0.5-0.5-0.5-1.3,0-1.8l17-16.7c0.5-0.5,1.3-0.5,1.8,0
			c0.5,0.5,0.5,1.3,0,1.8l-17,16.7C181.7,283,181.4,283.1,181.1,283.1z"/>
		<path fill="#FBF27F" d="M223.2,283.1c0.3,0,0.7-0.1,0.9-0.4c0.5-0.5,0.5-1.3,0-1.8l-17-16.7c-0.5-0.5-1.3-0.5-1.8,0
			c-0.5,0.5-0.5,1.3,0,1.8l17,16.7C222.6,283,222.9,283.1,223.2,283.1z"/>
		<path fill="#FBF27F" d="M197.5,262.5c-0.4,0-0.7-0.2-1-0.4l-13.9-16.5c-0.4-0.5-0.4-1.3,0.2-1.8c0.6-0.4,1.3-0.4,1.8,0.2
			l13.9,16.5c0.4,0.5,0.4,1.3-0.1,1.8C198.1,262.4,197.8,262.5,197.5,262.5z"/>
		<path fill="#FBF27F" d="M206.8,262.5c0.4,0,0.7-0.2,1-0.4l13.9-16.5c0.4-0.5,0.4-1.3-0.2-1.8c-0.6-0.4-1.3-0.4-1.8,0.2l-13.9,16.5
			c-0.4,0.5-0.4,1.3,0.2,1.8C206.2,262.4,206.5,262.5,206.8,262.5z"/>
		<path fill="#FBF27F" d="M182.8,262.7c-0.3,0-0.6-0.1-0.8-0.3c-0.5-0.5-0.6-1.2-0.1-1.8l14.8-16.8c0.5-0.5,1.2-0.6,1.8-0.1
			c0.5,0.5,0.6,1.2,0.1,1.8l-14.8,16.8C183.5,262.6,183.2,262.7,182.8,262.7z"/>
		<path fill="#FBF27F" d="M221.5,262.7c0.3,0,0.6-0.1,0.8-0.3c0.5-0.5,0.6-1.2,0.1-1.8l-14.8-16.8c-0.5-0.5-1.2-0.6-1.8-0.1
			c-0.5,0.5-0.6,1.2-0.1,1.8l14.8,16.8C220.8,262.6,221.2,262.7,221.5,262.7z"/>
		<path fill="#FBF27F" d="M197.8,242.3c-0.4,0-0.7-0.2-1-0.4L183,225.3c-0.4-0.5-0.4-1.3,0.2-1.8c0.5-0.4,1.3-0.3,1.8,0.2l13.9,16.5
			c0.4,0.5,0.4,1.3-0.1,1.8C198.4,242.2,198.1,242.3,197.8,242.3z"/>
		<path fill="#FBF27F" d="M206.5,242.3c0.4,0,0.7-0.2,1-0.4l13.9-16.5c0.4-0.5,0.4-1.3-0.2-1.8c-0.5-0.4-1.3-0.3-1.8,0.2l-13.9,16.5
			c-0.4,0.5-0.4,1.3,0.2,1.8C205.9,242.2,206.2,242.3,206.5,242.3z"/>
		<path fill="#FBF27F" d="M183.1,242.5c-0.3,0-0.6-0.1-0.8-0.3c-0.5-0.5-0.6-1.2-0.1-1.8l14.8-16.8c0.5-0.5,1.2-0.6,1.8-0.1
			c0.5,0.5,0.6,1.2,0.1,1.8l-14.8,16.8C183.8,242.4,183.5,242.5,183.1,242.5z"/>
		<path fill="#FBF27F" d="M221.2,242.5c0.3,0,0.6-0.1,0.8-0.3c0.5-0.5,0.6-1.2,0.1-1.8l-14.8-16.8c-0.5-0.5-1.2-0.6-1.8-0.1
			c-0.5,0.5-0.6,1.2-0.1,1.8l14.8,16.8C220.5,242.4,220.8,242.5,221.2,242.5z"/>
		<path fill="#FBF27F" d="M198.2,221.7c-0.4,0-0.7-0.1-1-0.4l-13.9-16.5c-0.4-0.5-0.4-1.3,0.1-1.8c0.5-0.4,1.3-0.3,1.8,0.2
			l13.9,16.5c0.4,0.5,0.4,1.3-0.1,1.8C198.7,221.6,198.4,221.7,198.2,221.7z"/>
		<path fill="#FBF27F" d="M206.1,221.7c0.4,0,0.7-0.1,1-0.4l13.9-16.5c0.4-0.5,0.4-1.3-0.2-1.8c-0.5-0.4-1.3-0.3-1.8,0.2l-13.9,16.5
			c-0.4,0.5-0.4,1.3,0.2,1.8C205.6,221.6,205.9,221.7,206.1,221.7z"/>
		<path fill="#FBF27F" d="M183.8,221.9c-0.3,0-0.6-0.1-0.8-0.3c-0.5-0.5-0.6-1.2-0.1-1.8l14.8-16.8c0.5-0.5,1.2-0.6,1.8-0.1
			c0.5,0.5,0.6,1.2,0.1,1.8l-14.8,16.8C184.5,221.8,184.2,221.9,183.8,221.9z"/>
		<path fill="#FBF27F" d="M220.5,221.9c0.3,0,0.6-0.1,0.8-0.3c0.5-0.5,0.6-1.2,0.1-1.8L206.7,203c-0.5-0.5-1.2-0.6-1.8-0.1
			c-0.5,0.5-0.6,1.2-0.1,1.8l14.8,16.8C219.8,221.8,220.1,221.9,220.5,221.9z"/>
		<path fill="#FBF27F" d="M198.8,201.1c-0.4,0-0.7-0.2-1-0.4L184,184.1c-0.4-0.5-0.4-1.3,0.2-1.8c0.5-0.4,1.3-0.4,1.8,0.2l13.9,16.5
			c0.4,0.5,0.4,1.3-0.2,1.8C199.4,201,199.1,201.1,198.8,201.1z"/>
		<path fill="#FBF27F" d="M205.5,201.1c0.4,0,0.7-0.2,1-0.4l13.9-16.5c0.4-0.5,0.4-1.3-0.1-1.8c-0.5-0.4-1.3-0.4-1.8,0.2l-13.9,16.5
			c-0.4,0.5-0.4,1.3,0.2,1.8C204.9,201,205.2,201.1,205.5,201.1z"/>
		<path fill="#FBF27F" d="M184.2,201.3c-0.3,0-0.6-0.1-0.8-0.3c-0.5-0.5-0.6-1.2-0.1-1.8l14.8-16.8c0.5-0.5,1.2-0.6,1.8-0.1
			c0.5,0.5,0.6,1.2,0.1,1.8l-14.8,16.8C184.8,201.2,184.5,201.3,184.2,201.3z"/>
		<path fill="#FBF27F" d="M220.1,201.3c0.3,0,0.6-0.1,0.8-0.3c0.5-0.5,0.6-1.2,0.1-1.8l-14.8-16.8c-0.5-0.5-1.2-0.6-1.8-0.1
			c-0.5,0.5-0.6,1.2-0.1,1.8l14.8,16.8C219.5,201.2,219.8,201.3,220.1,201.3z"/>
		<path fill="#FBF27F" d="M199.2,180.5c-0.4,0-0.7-0.2-1-0.4l-13.9-16.5c-0.4-0.5-0.4-1.3,0.2-1.8c0.6-0.4,1.3-0.3,1.8,0.2
			l13.9,16.5c0.4,0.5,0.4,1.3-0.2,1.8C199.8,180.4,199.5,180.5,199.2,180.5z"/>
		<path fill="#FBF27F" d="M205.1,180.5c0.4,0,0.7-0.2,1-0.4l13.9-16.5c0.4-0.5,0.4-1.3-0.1-1.8c-0.6-0.4-1.3-0.3-1.8,0.2l-13.9,16.5
			c-0.4,0.5-0.4,1.3,0.2,1.8C204.5,180.4,204.8,180.5,205.1,180.5z"/>
		<path fill="#FBF27F" d="M184.5,180.7c-0.3,0-0.6-0.1-0.8-0.3c-0.5-0.5-0.6-1.2-0.1-1.8l14.8-16.8c0.5-0.5,1.2-0.6,1.8-0.1
			c0.5,0.5,0.6,1.2,0.1,1.8l-14.8,16.8C185.2,180.6,184.8,180.7,184.5,180.7z"/>
		<path fill="#FBF27F" d="M219.8,180.7c0.3,0,0.6-0.1,0.8-0.3c0.5-0.5,0.6-1.2,0.1-1.8L206,161.8c-0.5-0.5-1.2-0.6-1.8-0.1
			c-0.5,0.5-0.6,1.2-0.1,1.8l14.8,16.8C219.1,180.6,219.5,180.7,219.8,180.7z"/>
		<path fill="#FBF27F" d="M199.5,159.9c-0.4,0-0.7-0.2-1-0.4L184.6,143c-0.4-0.5-0.4-1.3,0.2-1.8c0.5-0.4,1.3-0.3,1.8,0.2l13.9,16.5
			c0.4,0.5,0.4,1.3-0.2,1.8C200.1,159.8,199.8,159.9,199.5,159.9z"/>
		<path fill="#FBF27F" d="M204.8,159.9c0.4,0,0.7-0.2,1-0.4l13.9-16.5c0.4-0.5,0.4-1.3-0.2-1.8c-0.5-0.4-1.3-0.3-1.8,0.2l-13.9,16.5
			c-0.4,0.5-0.4,1.3,0.2,1.8C204.2,159.8,204.5,159.9,204.8,159.9z"/>
		<path fill="#FBF27F" d="M184.8,160.1c-0.3,0-0.6-0.1-0.8-0.3c-0.5-0.5-0.6-1.2-0.1-1.8l14.8-16.8c0.5-0.5,1.2-0.6,1.8-0.1
			c0.5,0.5,0.6,1.2,0.1,1.8l-14.8,16.8C185.5,160,185.2,160.1,184.8,160.1z"/>
		<path fill="#FBF27F" d="M219.5,160.1c0.3,0,0.6-0.1,0.8-0.3c0.5-0.5,0.6-1.2,0.1-1.8l-14.8-16.8c-0.5-0.5-1.2-0.6-1.8-0.1
			c-0.5,0.5-0.6,1.2-0.1,1.8l14.8,16.8C218.8,160,219.1,160.1,219.5,160.1z"/>
		<path fill="#FBF27F" d="M199.9,139.3c-0.4,0-0.7-0.1-1-0.4L185,122.4c-0.4-0.5-0.4-1.3,0.2-1.8c0.5-0.4,1.3-0.4,1.8,0.2l13.9,16.5
			c0.4,0.5,0.4,1.3-0.2,1.8C200.4,139.2,200.1,139.3,199.9,139.3z"/>
		<path fill="#FBF27F" d="M204.4,139.3c0.4,0,0.7-0.1,1-0.4l13.9-16.5c0.4-0.5,0.4-1.3-0.2-1.8c-0.5-0.4-1.3-0.4-1.8,0.2l-13.9,16.5
			c-0.4,0.5-0.4,1.3,0.2,1.8C203.9,139.2,204.2,139.3,204.4,139.3z"/>
		<path fill="#FBF27F" d="M185.2,139.5c-0.3,0-0.6-0.1-0.8-0.3c-0.5-0.5-0.6-1.2-0.1-1.8l14.8-16.8c0.5-0.5,1.2-0.6,1.8-0.1
			c0.5,0.5,0.6,1.2,0.1,1.8l-14.8,16.8C185.8,139.4,185.5,139.5,185.2,139.5z"/>
		<path fill="#FBF27F" d="M219.1,139.5c0.3,0,0.6-0.1,0.8-0.3c0.5-0.5,0.6-1.2,0.1-1.8l-14.8-16.8c-0.5-0.5-1.2-0.6-1.8-0.1
			c-0.5,0.5-0.6,1.2-0.1,1.8l14.8,16.8C218.5,139.4,218.8,139.5,219.1,139.5z"/>
		<path fill="#FBF27F" d="M202.2,380.3l-10.9-9.9c-0.6-0.5-0.6-1.4-0.1-2c0.5-0.6,1.4-0.7,2-0.1l8.9,8.2l8.9-8.2
			c0.6-0.6,1.5-0.5,2,0.1c0.5,0.6,0.5,1.5-0.1,2L202.2,380.3z"/>
		<path fill="#FBF27F" d="M202.2,378.3l-10.2,8.8c-0.3,0.2-0.6,0.4-0.9,0.4c-0.4,0-0.8-0.2-1.1-0.5c-0.5-0.6-0.5-1.5,0.2-2l12-10.4
			l12,10.4c0.6,0.5,0.7,1.4,0.2,2c-0.3,0.3-0.7,0.5-1.1,0.5c-0.3,0-0.7-0.1-0.9-0.4L202.2,378.3z"/>
		<path fill="#FBF27F" d="M202.2,358.4l-10.6-9.6c-0.6-0.5-0.6-1.4-0.1-2c0.5-0.6,1.4-0.7,2-0.1l8.6,7.9l8.6-7.9
			c0.6-0.6,1.5-0.5,2,0.1c0.5,0.6,0.5,1.5-0.1,2L202.2,358.4z"/>
		<path fill="#FBF27F" d="M202.2,356.8l-8.7,8.7c-0.2,0.2-0.5,0.4-0.8,0.4c-0.3,0-0.7-0.2-0.9-0.5c-0.5-0.6-0.4-1.5,0.1-2l10.3-10.2
			l10.3,10.2c0.5,0.5,0.6,1.4,0.1,2c-0.2,0.3-0.6,0.5-0.9,0.5c-0.3,0-0.6-0.1-0.8-0.4L202.2,356.8z"/>
		<path fill="#FBF27F" d="M202.2,337.7l-7-9.7c-0.4-0.5-0.4-1.4-0.1-2c0.3-0.6,0.9-0.7,1.3-0.1l5.8,8l5.8-8c0.4-0.6,1-0.5,1.3,0.1
			c0.4,0.6,0.3,1.5-0.1,2L202.2,337.7z"/>
		<path fill="#FBF27F" d="M202.2,335.3l-7.2,9.4c-0.2,0.2-0.4,0.4-0.6,0.4c-0.3,0-0.5-0.2-0.7-0.5c-0.3-0.6-0.3-1.5,0.1-2l8.4-11
			l8.4,11c0.4,0.5,0.4,1.4,0.1,2c-0.2,0.3-0.4,0.5-0.7,0.5c-0.2,0-0.4-0.1-0.6-0.4L202.2,335.3z"/>
		<rect x="194.3" y="343.3" fill="#FBF27F" width="15.7" height="4.7"/>
		<rect x="193.4" y="364.7" fill="#FBF27F" width="17.5" height="4.8"/>
	</g>
	<path fill="#B78D54" d="M202.2,125.1l-20.1,0.2l-0.2,11.5c0,0-14.6-7.7-2.7-23.2h45.9c11.9,15.5-2.7,23.2-2.7,23.2l-0.2-11.5
		L202.2,125.1z"/>
	<path fill="#FAF28A" d="M179.2,107c-4.8,6.2-5.2,11.2-4.1,14.9c0.6-2.5,1.7-5.2,4.1-8.3h45.9c2.4,3.1,3.5,5.8,4.1,8.3
		c1.1-3.7,0.7-8.6-4.1-14.9H179.2z"/>
	<polygon fill="#E4B04C" points="148.9,504.3 153.4,486.2 179,486.2 174.9,504.3 	"/>
	<polygon fill="#E4B04C" points="255.4,504.3 251,486.2 225.4,486.2 229.4,504.3 	"/>
	<polygon fill="#E4B04C" points="183.2,504.3 185.7,485.8 218.6,485.8 221.1,504.3 	"/>
	<g>
		<g>
			<path fill="#FBF27F" d="M174.9,506c-0.4,0-0.8-0.1-1.1-0.4l-21.6-18.1c-0.7-0.6-0.8-1.7-0.2-2.4c0.6-0.7,1.7-0.8,2.4-0.2L176,503
				c0.7,0.6,0.8,1.7,0.2,2.4C175.9,505.8,175.4,506,174.9,506z"/>
		</g>
		<g>
			<path fill="#FBF27F" d="M229.4,506c-0.5,0-1-0.2-1.3-0.6c-0.6-0.7-0.5-1.8,0.2-2.4l21.6-18.1c0.7-0.6,1.8-0.5,2.4,0.2
				c0.6,0.7,0.5,1.8-0.2,2.4l-21.6,18.1C230.2,505.9,229.8,506,229.4,506z"/>
		</g>
		<g>
			<path fill="#FBF27F" d="M148.9,506c-0.6,0-1.1-0.3-1.5-0.8c-0.5-0.8-0.2-1.9,0.6-2.3l30-18.1c0.8-0.5,1.9-0.2,2.3,0.6
				c0.5,0.8,0.2,1.9-0.6,2.3l-30,18.1C149.5,505.9,149.2,506,148.9,506z"/>
		</g>
		<g>
			<path fill="#FBF27F" d="M255.4,506c-0.3,0-0.6-0.1-0.9-0.2l-30-18.1c-0.8-0.5-1.1-1.5-0.6-2.3c0.5-0.8,1.6-1.1,2.3-0.6l30,18.1
				c0.8,0.5,1.1,1.5,0.6,2.3C256.5,505.7,256,506,255.4,506z"/>
		</g>
		<g>
			<path fill="#FBF27F" d="M202.2,497c-0.3,0-0.6-0.1-0.9-0.2l-16.5-9.5c-0.8-0.5-1.1-1.5-0.6-2.3c0.5-0.8,1.5-1.1,2.3-0.6l15.6,9
				l15.6-9c0.8-0.5,1.9-0.2,2.3,0.6c0.5,0.8,0.2,1.9-0.6,2.3l-16.5,9.5C202.7,496.9,202.4,497,202.2,497z"/>
		</g>
		<g>
			<path fill="#FBF27F" d="M221.1,506c-0.3,0-0.6-0.1-0.9-0.2l-18.1-10.7L184,505.8c-0.8,0.5-1.9,0.2-2.3-0.6
				c-0.5-0.8-0.2-1.9,0.6-2.3l19-11.2c0.5-0.3,1.2-0.3,1.7,0l19,11.2c0.8,0.5,1.1,1.5,0.6,2.3C222.3,505.7,221.7,506,221.1,506z"/>
		</g>
	</g>
	<path fill="#D6A54F" d="M112.9,766.7l17.7-34.8h47.1C177.6,731.9,141.8,732.5,112.9,766.7z"/>
	<path fill="#D6A54F" d="M291.4,766.7l-17.7-34.8h-47.1C226.7,731.9,262.5,732.5,291.4,766.7z"/>
	<path fill="#B78D54" d="M202.2,736.2c-0.6,0-1.2,0-1.8,0c-59.9,0-108.6,57.4-114.4,106.5h23.4c7.8-40.2,45.4-74.4,90.9-74.4
		c0.6,0,1.2,0,1.8,0c0.6,0,1.2,0,1.8,0c45.5,0,83.2,34.3,90.9,74.4h23.4c-5.8-49.1-54.5-106.5-114.4-106.5
		C203.4,736.2,202.8,736.2,202.2,736.2z"/>
</g>
</svg>
