<svg width="104" height="160" viewBox="0 0 104 160" fill="none" xmlns="http://www.w3.org/2000/svg">
<path d="M84.8078 105.391C85.0676 104.652 85.2643 104.093 85.4926 103.455C85.6264 103.731 85.831 103.935 85.8074 104.109C84.6504 111.79 83.2495 119.448 82.4309 127.169C82.1869 129.468 80.0934 132.513 83.5643 134.481C83.9263 134.686 83.8712 135.426 82.8087 135.575C81.3763 135.788 81.9036 137.724 82.305 137.826C85.4296 138.645 84.1152 140.801 84.068 142.674C84.0523 143.414 83.9263 144.752 85.3194 144.61C87.5547 144.382 87.7514 146.287 87.7042 147.405C87.6334 148.994 85.7916 147.908 84.8551 148.388C86.0514 150.781 85.9333 150.655 84.2884 152.237C83.3439 153.15 83.7374 154.606 84.3041 155.708C84.6189 156.314 84.9652 158.376 86.1301 156.031C86.5945 155.094 87.1533 156.18 87.4287 156.597C87.8695 157.274 88.1135 158.101 87.35 158.715C86.9801 159.014 86.2167 159.352 85.9412 159.179C82.5018 157.007 78.6216 160.359 75.1192 158.219C74.096 157.589 72.5691 157.786 71.2783 157.597C65.7689 156.786 64.4782 155.425 64.1634 149.789C62.723 123.439 64.4782 97.2297 67.3667 71.0444C68.8699 57.4047 71.7821 44.009 73.7418 30.4008C70.0505 31.2114 70.1765 35.5639 67.1306 37.2718C61.7235 40.3019 59.3859 46.5905 54.514 50.3369C55.4664 54.1777 51.358 54.4453 50.0908 56.657C48.4695 59.4825 46.2657 62.1034 44.1249 64.1576C38.2535 69.8166 32.2718 75.751 24.0865 78.1593C20.2378 79.2927 16.5307 77.4195 13.0834 76.1917C8.39256 74.5231 4.48089 71.2569 1.06507 67.5813C-0.886831 65.4799 -0.0682927 61.3951 2.80446 58.9237C4.38645 57.5621 6.08649 56.2398 8.1407 55.6889C20.2771 52.4147 29.6509 44.5835 39.3553 37.2009C46.1949 31.9985 52.4992 26.0798 59.504 21.1765C66.8866 16.0134 72.5927 9.20536 79.1883 3.29457C83.3675 -0.451818 88.3811 -1.33332 92.5918 2.38158C95.4331 4.88442 98.5105 7.22985 100.848 10.4568C104.083 14.9194 103.902 19.382 102.658 24.246C100.195 33.9425 97.204 43.4659 93.6386 52.8083C93.0798 54.2801 92.5367 55.7597 92.6941 57.3653C92.765 58.0737 92.7965 58.7741 92.096 59.0496C91.3719 59.333 91.4742 58.176 91.2302 58.1917C90.2779 58.239 90.3644 59.4746 90.5533 59.6084C93.0247 61.3872 91.0492 62.8039 90.3881 64.4803C89.4436 66.8887 89.0107 69.4388 88.6723 72.0439C87.413 81.7404 85.8625 91.3976 84.4379 101.063C84.2333 102.456 84.2648 103.849 84.8078 105.391ZM73.852 73.4842C73.6553 77.9626 70.4677 81.4335 70.2867 85.8725C70.0269 92.2004 69.8302 92.1926 72.4747 97.3399C72.9154 89.249 74.6469 81.4256 73.852 73.4842Z" fill="#717AAE" fill-opacity="0.4"/>
</svg>
