<svg width="131" height="174" viewBox="0 0 131 174" fill="none" xmlns="http://www.w3.org/2000/svg">
<path d="M80.0733 25.965C78.0766 24.4259 75.9385 24.5507 74.0832 25.9567C70.7553 28.4776 66.3376 29.5841 64.9232 34.5509C63.9582 37.9536 59.7983 39.0602 57.2608 41.373C53.6418 44.6676 50.5136 48.4946 46.595 51.498C40.4884 56.1737 35.3885 62.064 29.0073 66.4401C27.9424 67.1639 26.8442 68.2954 26.0372 66.4734C24.8142 63.703 22.493 63.7529 20.1136 63.7113C18.7325 63.6863 17.3348 63.6946 15.9621 63.5532C11.1533 63.0707 10.2382 61.4899 12.185 56.989C21.4946 35.5077 37.9176 20.9815 58.1427 10.2658C69.2495 4.38384 80.7805 -0.383323 93.6593 0.0243402C106.355 0.423684 115.773 6.66342 117.528 20.1329C117.969 23.519 119.325 26.7387 119.3 30.2496C120.756 30.0999 120.474 28.802 121.081 28.1531C122.204 33.0034 123.718 37.8871 124.234 42.6958C124.816 48.1203 125.682 54.36 120.232 58.7445C117.811 60.6913 115.798 63.0707 115.107 66.3819C114.633 68.6615 112.711 70.159 110.773 71.0991C105.515 73.6283 102.062 77.9712 98.6594 82.4139C98.2351 82.4638 97.8108 82.5137 97.3948 82.5636C97.2784 80.8248 98.9673 80.1093 99.7243 78.4787C97.4864 78.5119 96.8042 80.5586 94.8324 81.5486C96.6877 77.5718 100.565 75.8081 101.879 71.8978C98.8341 74.8097 95.7975 77.7216 92.7525 80.6251C12.185 132.598 20.1136 137.59 92.3282 80.2924C64.9232 96.8236 105.939 61.5731 112.778 52.2468C114.042 50.5246 114.3 48.4614 114.991 46.5478C115.116 46.2067 115.149 45.5578 114.958 45.4164C114.076 44.7674 113.402 46.2983 112.819 45.9072C112.137 45.4413 113.003 44.6926 113.161 44.0603C113.36 43.2616 113.81 42.5128 113.893 41.7141C113.968 40.9321 113.959 39.9254 112.978 39.6342C112.245 39.4096 111.705 40.0252 111.28 40.566C110.174 41.9804 109.092 43.4197 108.086 44.7258C103.917 41.0486 103.543 46.8806 100.623 47.5379C102.345 44.6177 103.901 41.9554 105.473 39.3014C106.888 36.9054 108.061 34.4178 108.768 31.7139C109.359 29.426 108.726 27.8785 106.289 27.4126C103.684 26.9051 101.455 25.6156 99.2501 24.2345L99.092 24.3926C100.872 24.7004 101.563 23.1613 102.719 22.3959C98.7593 20.3326 94.7076 22.0381 90.7474 21.7886L90.8889 21.8551C86.2631 20.7236 83.4761 24.3427 79.9652 26.0815L80.0733 25.965ZM103.102 16.0314C101.829 14.3591 99.4747 15.2327 99.1586 14.0762C98.0687 10.1244 96.2717 12.82 94.7326 13.3691C94.1003 13.5937 93.6011 14.1927 92.9688 14.4257C92.4862 14.6004 91.7208 14.6919 91.388 14.434C90.3398 13.6103 92.0203 13.2775 91.8789 13.0862C90.9305 11.7883 91.2632 10.4156 91.413 9.03452C89.2083 9.94969 87.4529 6.81318 85.3313 8.19424C81.9952 10.374 78.0017 9.03452 74.2246 12.5288C67.7269 18.5356 60.597 24.0681 53.933 30.0333C53.5253 30.3911 52.8597 30.7904 53.3256 32.03C57.7683 30.258 62.2693 28.7188 66.5456 26.6888C69.7819 25.1497 72.1281 21.8551 76.4293 22.4624C77.5525 22.6205 79.1498 21.8801 79.9236 20.1745C80.9469 17.9116 83.4261 17.0713 85.3646 18.1612C88.7341 20.0581 90.814 18.4108 92.3448 16.073C93.418 14.434 94.5412 15.2576 94.8823 15.7734C97.6528 19.9333 100.29 16.9382 103.102 16.0314Z" fill="#FCF296" fill-opacity="0.4"/>
<path d="M110.165 165.602C110.457 165.902 111.314 166.392 111.289 166.833C111.214 168.264 109.908 167.932 109.051 167.915C103.102 167.757 97.1452 167.516 91.1967 167.316C89.8655 167.274 88.4761 166.858 87.12 167.832C90.3813 169.163 94.0004 167.333 97.0786 169.354C83.3346 168.406 69.7985 170.735 56.2125 171.7C45.189 172.482 34.1737 173.381 23.1252 173.972C16.3447 174.338 10.5626 171.085 6.44434 166.758C2.90849 163.04 0.163 157.133 0.00492649 152.099C-0.111549 148.397 1.84357 143.33 5.20471 139.903C7.9086 137.149 11.0202 135.909 15.1217 136.517C14.5477 139.079 12.3347 140.21 10.887 141.933C10.3213 142.607 9.46437 142.64 11.4195 143.788C17.4263 147.299 23.3998 145.086 29.2735 145.077C33.7578 145.069 38.2504 145.044 42.7347 145.169C70.8801 145.984 98.909 148.197 126.771 152.365C128.111 152.565 129.592 152.291 130.848 153.68C123.993 157.715 117.528 162.324 110.165 165.602Z" fill="#FCF296" fill-opacity="0.4"/>
<path d="M54.449 112.215C54.7561 112.179 60.6887 109.303 60.6887 109.303C60.6887 119.988 30.9367 132.383 30.738 132.598C28.2934 135.192 2.39602 152.844 3.29328 148.527C4.19044 144.209 52.0044 114.314 54.449 112.215Z" fill="#FCF296" fill-opacity="0.4"/>
<path d="M99.2409 24.2345C96.2625 24.326 93.1343 23.7104 90.705 26.2562C90.056 26.9384 89.2906 26.7637 88.5003 26.1647C87.3355 25.2745 88.5419 24.9583 88.6916 24.3177C89.1409 22.4208 87.0194 24.6172 86.8696 23.128C88.1093 22.5623 89.8314 23.1114 90.8797 21.8634L90.7383 21.7969C90.4471 23.6355 91.4704 23.544 92.6851 23.1031C95.0894 22.2212 97.1694 22.9117 99.0829 24.4092L99.2409 24.2345Z" fill="#FCF296" fill-opacity="0.4"/>
<path d="M79.9484 26.0734C81.8869 26.4478 83.5758 25.2165 86.7206 24.9087C83.7089 27.9953 80.431 27.937 77.8352 29.6675C77.4359 27.4212 79.6406 27.2548 80.0732 25.9653L79.9484 26.0734Z" fill="#FCF296" fill-opacity="0.4"/>
<path d="M68.8666 173.506C65.0811 173.822 61.2791 172.466 57.5103 173.448C61.2791 172.258 65.0645 172.524 68.8666 173.506Z" fill="#FCF296" fill-opacity="0.4"/>
<path d="M63.6499 26.4807C65.4969 23.6437 67.8347 21.4723 72.3523 20.3574C69.3905 23.5771 66.5618 25.083 63.6499 26.4807Z" fill="#FCF296" fill-opacity="0.4"/>
</svg>
