<svg width="126" height="169" viewBox="0 0 126 169" fill="none" xmlns="http://www.w3.org/2000/svg">
<path d="M83.0124 165.405C73.8472 168.32 64.3283 168.202 54.843 168.724C67.0408 167.587 78.4045 163.796 89.2039 157.748C81.7825 158.313 74.5632 160.419 67.0744 160.612C59.1644 160.814 51.4061 163.106 43.3697 162.92C35.5692 162.743 27.7434 163.645 19.9177 162.567C40.4382 161.404 61.1525 161.952 81.4203 155.179C79.0953 153.73 77.0736 153.309 73.8809 153.814C76.088 152.34 77.9918 153.368 79.963 151.144C74.4453 152.163 69.9049 151.161 64.8842 150.933C67.3272 149.687 69.5342 149.628 71.8171 149.526C76.863 149.316 81.8331 148.17 86.9548 148.406C88.5469 148.482 91.3436 148.928 90.9392 145.39C90.9055 145.07 94.3088 145.07 96.8023 143.099C91.8996 144.674 87.9572 145.163 84.1075 146.064C80.9064 146.814 76.7956 145.306 72.1204 144.885C79.8029 143.15 86.5251 142.054 93.1463 140.066C100.576 137.834 103.971 132.603 106.17 126.184C107.863 121.248 109.362 116.101 107.846 110.684C107.349 108.923 106.608 107.483 105.487 106C104.207 104.307 100.34 103.726 102.404 100.171C102.446 100.104 101.419 99.354 100.837 99.0002C92.0596 93.7352 82.4986 90.9301 72.3815 89.6749C65.4571 88.8157 58.3979 88.4451 51.5745 88.622C43.3697 88.8326 35.1143 91.0228 27.1538 93.6679C23.0177 95.0409 21.1139 93.7352 20.6084 89.4896C20.541 88.9336 20.7938 88.1081 20.5074 87.8554C15.3435 83.2981 17.5253 76.3905 15.0487 70.974C13.9704 68.6069 14.956 67.0569 17.6264 66.383C25.3595 64.4455 33.2611 63.3757 41.0532 61.8172C50.9343 59.8376 60.2511 55.7689 69.6774 52.2056C75.4225 50.0323 80.46 46.3932 86.045 44.144C91.8996 41.7937 95.1764 36.4446 100.568 33.7152C102.539 32.7128 101.124 30.9859 99.7085 30.1435C95.7324 27.7848 91.2425 27.8101 86.7778 27.6332C90.6528 29.5539 95.2101 29.4107 98.8745 31.9715C94.1066 31.2723 89.5577 29.3433 84.6213 29.8234C82.1194 30.0677 79.5839 30.0087 77.0567 29.9582C76.3323 29.9414 74.479 30.5984 76.088 28.4082C77.1999 26.8919 75.1445 27.3637 74.4706 27.3889C69.6437 27.5827 64.8 27.6416 60.0152 28.1892C55.0367 28.762 50.1425 30.1772 45.1556 30.6153C40.5898 31.0196 37.7847 34.7261 33.6486 35.8212C30.6749 36.6046 27.8445 37.9103 24.8793 38.7359C13.8946 41.7853 8.46965 39.1234 3.97131 28.5346C2.93518 26.0832 2.38762 23.3707 1.04823 21.1216C-1.04931 17.5836 0.146878 16.2273 3.33952 13.9781C13.1702 7.07057 24.7277 5.93335 35.8051 3.3725C54.6324 -0.974211 73.6703 -1.10899 92.5988 2.90919C99.0177 4.27385 105.361 6.304 110.904 10.0526C116.329 13.717 119.311 18.6197 119.572 25.4767C119.791 31.2807 118.915 36.9247 118.081 42.5266C117.474 46.5785 113.524 49.3331 111.712 53.1491C109.404 58.0181 105.555 61.6572 100.795 64.4034C98.6471 65.6417 97.0044 67.7476 94.8648 69.7104C102.463 73.3158 109.581 76.5084 114.897 82.3209C122.916 91.0986 125.359 101.788 124.812 113.354C124.694 115.856 123.405 118.88 124.382 120.751C127.777 127.212 125.41 132.03 121.164 136.663C119.715 138.238 120.035 140.336 119.387 142.147C116.64 149.762 112.268 155.608 104.375 158.506C100.711 159.854 104.544 159.98 104.94 160.739C101.612 162.373 98.0237 162.398 94.452 162.55C94.8816 161.033 97.1223 161.471 97.5014 159.694C91.3267 161.463 85.27 163.207 79.2132 164.942C79.2301 165.094 79.2469 165.254 79.2553 165.405C80.5273 165.405 81.7657 165.405 83.0124 165.405Z" fill="#98C177" fill-opacity="0.4"/>
<path d="M20.0189 148.01C27.4488 147.041 33.5308 152.677 40.75 152.188C37.3047 155.187 33.118 154.918 28.6534 154.311C29.3104 156.501 31.0205 155.878 32.2419 156.383C25.6376 158.338 19.1091 158.548 14.1559 157.023C16.6325 156.038 16.6325 156.038 23.0599 156.779C21.2825 155.229 19.2692 154.345 15.8491 154.429C9.68285 154.572 7.07145 149.164 2.86795 146.3C1.49486 145.365 2.86794 144 4.38423 143.975C6.20379 143.941 8.03176 144.093 9.83447 144.303C21.5352 145.651 33.3118 145.769 46.2003 146.241C36.8666 148.692 28.3585 145.693 20.0189 148.01ZM12.707 152.188C17.1885 153.191 21.4173 151.413 25.8145 151.026C21.2741 149.307 17.0621 151.245 12.707 152.188Z" fill="#98C177" fill-opacity="0.4"/>
<path d="M59.4678 162.886C64.3873 161.926 69.3995 161.783 74.5043 162.482C69.5427 162.196 65.6087 165.868 60.4955 166.349C61.102 162.987 63.8482 164.58 65.4992 163.181C63.3175 162.659 61.4474 162.676 59.4678 162.886Z" fill="#98C177" fill-opacity="0.4"/>
<path d="M43.5971 160.123C35.1564 160.123 26.7157 160.123 18.275 160.123C18.275 159.98 18.2666 159.837 18.2666 159.694C26.7073 159.694 35.148 159.694 43.5887 159.694C43.5803 159.837 43.5887 159.98 43.5971 160.123Z" fill="#98C177" fill-opacity="0.4"/>
<path d="M35.8896 165.018C40.3796 164.108 44.9368 163.746 50.4376 163.923C45.08 165.456 40.5059 165.338 35.8896 165.018Z" fill="#98C177" fill-opacity="0.4"/>
<path d="M55.332 145.955C59.8472 145.651 64.3624 145.348 68.8776 145.053C64.4972 146.73 59.9736 146.805 55.332 145.955Z" fill="#98C177" fill-opacity="0.4"/>
<path d="M78.345 147.698C74.0405 147.42 70.8478 149.518 67.3604 147.681C71.488 146.03 72.4905 146.014 78.345 147.698Z" fill="#98C177" fill-opacity="0.4"/>
</svg>
