<svg width="164" height="218" viewBox="0 0 164 218" fill="none" xmlns="http://www.w3.org/2000/svg">
<path d="M93.7266 169.404C92.5766 173.538 93.8977 177.853 92.1489 181.94C92.5481 181.987 92.9473 182.035 93.3464 182.092C94.3349 174.897 95.3138 167.712 96.3877 159.909C98.3931 164.31 94.9811 167.921 96.4638 172.54C97.2051 168.947 97.7943 166.106 98.3741 163.274C99.1629 168.9 96.8819 174.175 96.9675 179.678C96.9865 180.913 96.1026 182.358 97.9274 183.422C100.18 184.734 99.7807 181.236 101.834 181.921C101.121 185.561 100.864 188.84 98.2505 192.442C92.9853 199.674 87.0167 206.774 84.9638 215.917C84.7072 217.076 84.4601 218.122 82.949 217.989C81.6374 217.874 81.5804 216.696 81.4853 215.888C80.9436 211.497 80.3163 207.106 80.1168 202.696C79.2044 182.586 80.2593 162.494 81.0387 142.412C81.3048 135.664 81.4663 135.645 74.7469 136.215C69.7193 136.643 64.378 138.382 59.816 137.679C55.3776 136.985 52.821 140.758 48.9814 139.428C57.7442 142.422 66.4499 138.877 75.992 139.143C67.5238 143.305 59.5879 145.701 51.1198 146.889C46.4153 147.544 41.9389 150.101 37.4529 152.021C30.8666 154.843 23.8621 155.661 16.8671 156.098C13.2556 156.326 10.2808 154.387 8.79814 150.633C7.72418 147.924 6.92584 144.845 2.45892 146.641C0.111415 147.582 -0.202219 145.187 0.092407 143.305C0.900254 138.135 3.58991 133.155 1.57504 127.7C1.26141 126.854 2.03124 126.588 2.60148 126.464C8.20889 125.324 9.43492 120.41 11.1647 116.171C23.8336 85.15 42.1194 57.5502 62.8668 31.4805C70.7362 21.5867 79.2044 12.1872 88.6989 3.7761C89.7634 2.83519 90.9229 1.98931 92.0824 1.17196C94.8196 -0.75737 97.0815 -0.443738 97.4522 3.15831C97.8799 7.32109 100.037 10.4099 102.318 13.6508C105.303 17.8801 104.2 22.6132 102.394 26.776C97.4997 38.0858 91.7783 48.9015 82.8349 57.7688C79.1663 61.4088 76.2011 65.7807 73.0932 69.953C70.166 73.8782 65.2429 75.4844 62.6578 79.9798C58.533 87.1364 53.5338 93.7417 48.3731 100.252C45.1608 104.31 43.2504 109.423 40.9029 114.137C39.7244 116.504 40.6463 117.549 43.336 117.35C56.119 116.399 68.9114 115.497 81.7039 114.66C84.2035 114.499 84.6787 113.149 84.9543 110.982C86.9977 94.9677 89.7444 79.0864 93.0708 63.2811C94.4394 56.7708 97.8514 51.2965 100.484 45.4325C101.739 42.6478 104.039 40.8895 107.317 43.4271C108.021 43.9689 109.066 44.1114 109.988 44.33C118.447 46.3068 122.657 53.549 128.245 59.0708C128.911 59.7266 129.253 60.7435 128.92 61.7225C126.316 69.4018 126.24 77.6133 123.864 85.3306C123.389 86.8703 122.8 88.2483 120.566 89.7405C121.184 81.3769 122.999 73.7546 122.838 65.3245C119.768 69.3352 117.81 73.3459 116.726 77.8889C115.073 84.8174 113.828 91.8124 112.915 98.8739C112.564 101.592 115.443 99.4156 115.938 101.212C114.293 103.597 111.195 105.223 111.005 108.939C110.843 112.227 111.357 113.748 115.187 113.833C129.738 114.128 144.317 114.232 158.782 116.238C164.133 116.979 164.028 116.875 161.053 121.494C159.932 123.233 158.535 124.953 158.849 127.453C159.105 129.534 157.033 127.272 156.463 128.394C155.75 129.772 157.546 130.142 157.518 131.454C153.982 131.463 150.58 129.468 146.56 130.855C150.523 132.556 154.885 131.131 158.155 134.201C154.524 133.668 150.837 132.48 147.292 132.813C144.193 133.108 142.292 130.38 139.033 131.121C135.45 131.939 131.543 131.311 127.352 131.311C129.966 130.076 132.522 131.492 134.851 130.209C121.621 128.394 109.617 129.22 107.279 132.689C117.667 132.689 127.647 132.689 137.616 132.689C127.837 132.889 118.095 133.298 108.306 134.172C110.967 134.324 113.638 134.476 116.299 134.628C116.299 134.809 116.289 134.98 116.289 135.16C112.877 135.455 109.418 136.196 106.053 135.921C102.223 135.607 101.586 137.936 102.176 140.331C102.908 143.277 101.463 144.665 99.6286 146.052C95.5134 149.141 96.9105 154.188 95.2092 158.132C94.601 159.548 94.4394 161.154 94.0782 162.665C94.3919 156.06 94.7055 149.445 95.0191 142.84C94.5059 142.783 93.9927 142.726 93.4795 142.669C87.701 158.36 88.2142 174.916 87.9671 191.396C88.927 183.802 92.0064 176.779 93.7266 169.404ZM33.8129 92.8958C35.5806 90.3202 36.6261 87.7636 36.9397 84.8744C37.1108 83.3347 37.0158 82.3653 35.267 81.586C33.2521 80.6926 32.9575 81.8996 32.0451 83.0496C26.989 89.4363 23.7861 96.897 20.4787 104.168C18.1026 109.395 13.5787 114.423 15.9737 121.047C20.07 120.581 23.2253 118.709 24.727 114.727C26.8844 116.238 23.1018 118.585 25.8675 119.327C28.348 119.992 29.3365 117.835 30.2203 115.953C30.4865 115.382 30.8096 114.831 31.1422 114.299C31.5414 113.662 31.8455 112.769 32.891 113.396C33.6323 113.833 33.3662 114.442 33.1191 115.031C32.7579 115.886 32.3778 116.732 31.9881 117.616C35.4286 119.27 36.7782 117.454 37.4339 114.651C37.7476 113.311 37.3199 111.818 38.3273 110.592C44.4099 103.198 45.8831 93.2285 52.0512 85.8723C52.1463 85.7583 51.9086 85.3496 51.7946 84.9884C49.3616 84.9029 48.8673 87.0318 47.9645 88.524C44.9612 93.5136 42.0719 98.5698 39.1352 103.597C38.6695 104.396 38.2513 105.422 37.0633 104.842C36.1129 104.377 36.8637 103.483 36.7496 102.828C35.9513 98.1136 39.4963 94.9487 41.188 91.1091C38.1943 90.4533 35.8182 90.7099 33.8129 92.8958ZM111.319 123.081C125.955 124.069 140.354 124.611 156.054 126.037C151.787 123.375 147.995 124.544 144.355 122.815C146.778 121.95 148.394 123.642 149.801 122.929C148.546 118.585 144.811 119.222 141.523 118.861C138.557 118.538 135.497 118.538 132.636 117.816C126.649 116.304 120.766 115.611 114.645 117.141C111.927 117.825 111.043 119.289 111.015 121.931C115.814 122.568 120.68 121.285 125.385 123.071C120.699 123.081 116.014 123.081 111.319 123.081ZM110.454 127.367C124.539 128.023 138.624 128.679 152.709 129.334C152.737 128.65 152.766 127.966 152.785 127.282C138.567 128.812 124.643 122.948 110.454 127.367ZM50.7396 135.17C55.102 134.704 59.7305 133.089 63.7507 134.048C69.3676 135.389 74.5093 133.754 79.8506 133.687C81.0862 133.668 82.2837 133.25 82.2267 131.996C82.1601 130.484 80.687 130.722 79.6225 130.808C74.6044 131.216 69.5957 131.587 64.5871 132.11C59.816 132.623 54.9119 132.547 50.7396 135.17ZM89.4498 150.006C86.57 157.41 84.251 185.827 85.6956 192.527C88.0622 178.48 84.4981 163.901 89.4498 150.006ZM81.9225 127.804C74.3478 128.004 66.6875 126.825 58.457 129.325C66.8776 130.123 74.3763 128.669 81.9225 127.804ZM83.9659 120.771C80.2023 117.72 79.6606 117.825 77.161 121.76C79.3944 121.427 81.2953 121.151 83.9659 120.771Z" fill="#F36F66" fill-opacity="0.4"/>
<path d="M140.011 136.596C144.012 132.785 148.061 139.152 152.376 136.643C148.697 138.345 148.697 138.345 140.011 136.596Z" fill="#F36F66" fill-opacity="0.4"/>
</svg>
