<svg width="153" height="206" viewBox="0 0 153 206" fill="none" xmlns="http://www.w3.org/2000/svg">
<path d="M107.754 137.075C113.122 129.873 120.595 124.452 125.413 116.849C131.271 107.596 135.164 97.8195 130.825 86.585C129.778 83.8789 127.805 82.2727 125.509 81.1117C114.187 75.3679 102.508 74.8005 90.4351 78.685C84.6825 80.5356 78.7641 81.845 72.9068 83.3639C71.4926 83.7305 68.9786 82.9972 69.3627 85.3192C69.6595 87.1087 71.7458 85.8342 73.0639 85.7469C73.8757 85.6946 74.6875 85.6596 75.7263 85.5985C71.1696 91.098 64.9282 91.386 59.0098 91.613C50.7694 91.9273 44.2399 95.9253 37.6231 100.011C37.3787 100.159 36.9859 100.272 36.916 100.491C36.2875 102.577 36.3486 102.664 34.3584 103.808C33.5465 104.27 33.2672 104.943 33.4941 105.545C33.7822 106.313 34.8908 106.435 35.336 105.964C39.2729 101.8 45.4969 102.612 49.7568 99.2424C50.5773 98.5964 51.2757 98.2822 51.9216 99.1813C52.3581 99.7836 51.7645 100.299 51.1971 100.438C47.1816 101.407 47.9847 104.742 49.0933 106.688C50.0274 108.33 52.8295 108.845 54.9856 107.125C55.23 106.924 55.7712 107.099 56.9671 107.099C47.8451 113.908 38.2341 118.499 27.8027 119.145C20.8629 119.573 13.6351 116.675 7.31512 113.104C4.63524 111.594 5.89225 108.478 7.43733 106.994C11.6885 102.926 11.3044 97.9243 11.3306 92.8438C11.4179 75.0623 13.3994 57.4554 16.5419 39.9707C17.1006 36.8544 18.2878 33.9301 18.7243 30.7177C19.2393 26.9467 23.6737 26.484 26.6068 25.5587C33.3807 23.4288 40.3292 21.36 47.3388 20.7053C51.3891 20.3299 54.5579 18.4095 58.198 17.458C87.6243 9.75878 117.435 4.12841 147.568 0.121677C148.973 -0.0616369 150.405 -0.0616348 152.142 0.287535C144.975 7.05271 136.272 12.2204 131.829 21.6131C131.873 19.1602 132.641 17.1088 132.475 15.3368C102.822 25.6024 71.6061 29.2076 40.9315 35.1871C41.5163 36.3044 43.0701 35.1173 43.9431 36.1037C43.3407 38.2074 41.1846 36.8107 40.3117 37.544C41.979 41.3238 45.7762 43.3228 47.7403 46.8494C48.0022 47.3208 48.072 47.9231 48.1418 48.473C48.3688 50.2712 47.9236 53.0471 48.8838 53.6495C50.4638 54.6533 52.7247 53.2217 54.6888 52.7329C58.1805 51.86 61.6896 51.0482 65.417 51.0482C60.4239 52.4012 55.457 53.8328 50.4376 55.0636C47.9673 55.6659 46.2127 56.5039 46.0468 59.4719C45.8024 63.7754 43.236 67.2758 41.6036 71.1691C40.6696 70.4009 39.8316 69.7113 38.8452 68.8995C40.4165 67.8083 42.817 67.4242 42.494 64.5523C41.7957 64.7356 41.0712 64.8055 40.4688 65.111C35.659 67.5115 34.9519 67.3631 34.2361 62.4922C33.9306 60.4496 33.2585 58.9743 31.888 57.6387C30.6222 59.856 30.6222 59.856 30.4302 62.9461C28.9724 62.143 30.5349 59.6727 28.0035 59.0267C28.309 61.4272 29.8104 65.1023 27.8812 65.4427C25.0093 65.949 26.179 68.3234 26.2227 68.367C31.2595 72.3999 25.2974 79.2698 30.0897 83.3464C30.8666 84.0098 30.212 85.2319 29.8279 86.7246C38.9238 82.133 47.6792 77.7859 56.2513 73.0284C72.1124 64.2206 88.8725 57.6999 106.96 55.2295C115.671 54.0423 124.47 54.4875 132.859 57.2547C145.22 61.3312 150.519 71.3699 150.501 83.9225C150.492 88.7324 151.592 93.385 151.269 98.2385C150.876 104.279 147.097 108.687 145.325 114.004C144.845 115.453 143.334 114.833 142.488 113.899C141.754 113.087 141.082 112.729 140.524 113.838C140.131 114.623 140.105 115.444 141.484 115.601C145.447 116.029 144.487 118.386 143.099 120.481C138.193 127.866 133.619 135.521 127.849 142.278C123.51 147.358 116.815 149.549 111.953 154.237C113.507 145.115 122.952 141.492 126.845 132.475C121.59 137.241 116.955 140.802 112.712 145.027C108.828 148.903 103.546 151.373 98.8763 154.464C98.1518 154.944 97.4272 155.433 96.6678 155.86C86.5069 161.657 77.5158 169.164 68.8389 176.793C64.4132 180.686 59.874 184.161 55.0118 187.286C49.9663 190.533 44.1002 192.698 39.561 196.495C33.6687 201.41 26.9472 200.589 20.313 201.479C16.0444 202.056 11.8631 203.47 7.7254 204.753C5.22883 205.53 2.74099 206.071 0 205.992C18.3664 193.597 39.3602 185.828 57.36 171.817C57.4385 174.724 54.907 174.113 54.7499 175.815C57.7353 175.955 59.228 173.406 61.3929 172.149C69.415 167.505 77.3499 162.695 85.2761 157.877C86.9259 156.873 88.7329 156.061 88.4186 153.285C88.2877 152.098 89.7717 150.378 90.9588 149.462C96.467 145.219 102.124 141.169 107.728 137.058C106.837 139.921 103.468 140.863 102.08 144.617C106.017 141.413 110.635 141.038 113.445 137.389C111.996 136.708 111.368 136.97 110.469 138.157C109.011 140.095 107.902 139.397 107.754 137.075ZM43.1312 186.692C49.3552 184.213 55.5879 181.76 61.7857 179.237C63.4704 178.548 63.0427 178.53 62.7284 177.029C62.2309 174.681 60.9826 175.405 60.1184 176.261C56.6878 179.648 52.585 181.795 48.0895 183.314C46.1778 183.951 44.3533 184.763 43.1312 186.692ZM66.997 173.886C70.6459 171.905 74.3034 169.958 77.9261 167.924C78.7379 167.47 80.1171 167.269 79.9687 166.056C79.8902 165.41 78.8601 164.345 78.3538 164.398C77.2888 164.511 75.5692 164.712 75.4295 165.847C75.1327 168.256 73.125 168.404 71.7196 169.399C69.965 170.63 67.7827 171.259 66.997 173.886ZM26.6155 74.1632C25.3672 79.4706 26.0481 84.874 24.8871 90.1465C28.8327 85.1097 25.4283 79.392 26.6155 74.1632ZM46.0817 188.351C51.0749 187.6 54.9332 184.903 59.0447 182.624C58.8265 182.249 58.6082 181.874 58.39 181.498C54.2872 183.785 50.1845 186.064 46.0817 188.351ZM86.4807 17.8246C81.7582 17.6151 76.8087 16.1835 71.9465 20.1379C77.315 19.4395 81.7146 17.2921 86.4807 17.8246Z" fill="#7BCDD9" fill-opacity="0.4"/>
</svg>
