<svg width="42" height="42" viewBox="0 0 42 42" fill="none" xmlns="http://www.w3.org/2000/svg">
<path d="M40.0218 35.6472C41.498 33.6551 42.3197 30.8556 41.5887 28.4669C41.7416 28.4096 41.8563 28.2328 41.7607 28.0418C40.5473 25.5623 40.0887 22.8536 39.1953 20.2643C38.3641 17.8423 37.0025 15.831 35.2445 13.987C31.8765 10.4518 27.9209 7.41823 23.6978 4.96748C17.8982 1.60428 7.67002 -3.42143 2.30036 3.36709C-0.298483 6.65386 1.21115 10.705 2.61089 14.1637C4.43104 18.6544 6.79579 22.8918 9.31342 27.0242C11.6638 30.8842 13.9951 35.093 17.5447 37.9976C20.8123 40.6729 24.5243 41.5615 28.6805 41.0025C32.8129 40.4484 37.4182 39.1585 40.0218 35.6472Z" fill="#CFA718" fill-opacity="0.4"/>
</svg>
