<svg width="46" height="39" viewBox="0 0 46 39" fill="none" xmlns="http://www.w3.org/2000/svg">
<path d="M25.2771 38.8793C27.0575 38.8924 28.711 37.3001 29.9008 36.1671C31.5062 34.6361 32.8667 32.8645 34.109 31.0316C36.8167 27.0378 39.2401 22.8296 41.6679 18.6608C42.9103 16.5217 44.192 14.387 45.3468 12.1998C46.1604 10.66 46.038 9.53145 44.5157 8.5997C39.975 5.81758 34.962 3.85348 29.9533 2.09497C28.6716 1.64441 27.3812 1.20697 26.0951 0.769528C25.697 0.633922 25.2858 0.480819 24.8703 0.349587C24.8396 0.32334 24.8046 0.301468 24.7653 0.28397C23.0593 -0.499047 21.2439 0.511441 19.6778 1.21572C17.5519 2.17371 15.4959 3.27606 13.4837 4.45714C11.5458 5.59011 9.65173 6.79744 7.77511 8.03102C5.881 9.27335 3.61507 10.4501 2.09278 12.1517C-0.466246 15.0213 1.71658 18.4071 3.78567 20.7868C6.96585 24.4481 10.4785 27.812 14.153 30.9704C16.034 32.5845 17.9587 34.1462 19.9184 35.6641C20.8414 36.3771 21.7644 37.0901 22.7049 37.7769C23.4748 38.3281 24.2885 38.8705 25.2771 38.8793Z" fill="#DB8086" fill-opacity="0.4"/>
</svg>
