<svg width="36" height="40" viewBox="0 0 36 40" fill="none" xmlns="http://www.w3.org/2000/svg">
<path d="M28.2432 1.05576C24.3433 0.475392 20.8744 3.19433 18.1419 5.6339C15.0253 8.41599 12.2894 11.5814 9.07078 14.2546C6.33476 16.5272 3.30267 18.7727 1.74998 22.0768C0.217575 25.3429 0.581592 29.1351 1.97617 32.3808C2.73768 34.1562 3.78542 35.8984 5.03818 37.3708C5.5227 37.9393 6.07554 38.4202 6.69426 38.7251C6.68298 38.7781 6.69853 38.8356 6.75182 38.873C8.12499 39.8284 9.88833 39.0674 11.2396 38.4428C13.1268 37.5709 14.8333 36.3734 16.5362 35.1936C20.0175 32.7797 23.5019 30.3433 26.6861 27.5373C28.2156 26.1883 29.674 24.7578 31.0121 23.2168C32.3272 21.701 33.6863 20.0585 34.3599 18.1398C34.9829 16.367 35.0941 14.4449 35.208 12.5829C35.3207 10.7725 35.3361 8.92839 34.8929 7.15701C34.0969 3.96064 31.5239 1.54416 28.2432 1.05576Z" fill="#F5A13E" fill-opacity="0.4"/>
</svg>
