<svg width="210" height="197" viewBox="0 0 210 197" fill="none" xmlns="http://www.w3.org/2000/svg">
<path d="M144.997 17.5279C114.626 0.701101 55.532 18.2182 38.5002 31.5C11.6926 47.3516 9.64784 62.8693 4.88327 93.4821C0.118707 124.095 45.1881 148.005 92.1144 151.469C139.041 154.933 195.891 111.955 202.002 92.5311C208.113 73.1072 182.961 38.5614 144.997 17.5279Z" fill="#C2826A" fill-opacity="0.36"/>
<path d="M163.859 54.678C163.859 54.678 169.572 92.9879 160.899 101.898C152.226 110.808 136.113 109.921 136.113 117.493C136.113 125.065 131.641 170.059 136.113 173.18C140.585 176.3 162.188 184.759 165.713 188.323C169.238 191.887 137.903 198.12 119.109 195.451C100.314 192.774 96.7334 190.549 102.104 186.985C107.475 183.421 126.851 177.631 127.456 172.285C128.06 166.939 132.317 122.007 122.689 117.485C122.689 117.485 92.6992 107.688 94.0439 83.1827C95.3886 58.6777 103.441 48.8804 103.441 48.8804C103.441 48.8804 109.258 57.7906 140.593 55.1136C171.927 52.4366 159.833 44.8728 151.327 43.5422C142.821 42.2037 111.939 40.8731 109.703 43.5422C107.467 46.2113 110.149 51.5575 125.371 52.0089C140.585 52.4524 151.327 49.3398 151.327 49.3398" stroke="#222222" stroke-width="1.5" stroke-miterlimit="10" stroke-linecap="round" stroke-linejoin="round"/>
<path d="M102.542 92.9878C102.542 92.9878 117.04 101.383 140.585 98.3339" stroke="#222222" stroke-width="1.5" stroke-miterlimit="10" stroke-linecap="round" stroke-linejoin="round"/>
</svg>
