<svg width="257" height="272" viewBox="0 0 257 272" fill="none" xmlns="http://www.w3.org/2000/svg">
<path d="M209.324 13.7804C182.109 -5.79037 150.1 -2.50082 121.79 11.1016C110.275 11.2959 98.6632 13.8498 87.5639 18.2359C63.162 27.8964 39.1204 44.1637 22.4229 64.5812C11.1435 78.3918 4.49217 94.6036 1.77623 111.579C-0.0667295 120.434 -0.551719 129.526 0.68154 138.381C1.67923 152.206 4.97716 165.975 10.2982 178.855C12.5153 186.267 15.8548 193.165 20.7185 198.953C23.7116 203.673 26.9818 208.17 30.5569 212.403C34.6169 227.171 41.2959 241.204 51.6747 252.53C70.2151 272.753 97.1251 275.626 122.566 268.409C136.783 264.384 149.587 257.805 160.853 249.324C209.518 244.66 245.657 203.95 254.317 155.939C262.991 107.956 251.31 43.9972 209.324 13.7804ZM138.252 21.4283C149.324 24.0932 159.051 29.3676 167.435 36.4187C157.818 29.0484 146.455 24.0655 133.929 22.039C130.229 21.4422 126.488 21.109 122.733 20.9841C122.608 20.9564 122.483 20.9286 122.358 20.9008C122.927 20.6094 123.481 20.3179 124.049 20.0403C124.285 19.9292 124.506 19.8182 124.742 19.7072C129.245 19.7904 133.763 20.3456 138.252 21.4283ZM162.516 236.402C160.95 237.762 159.342 239.08 157.693 240.357C145.208 241.107 132.543 239.4 120.668 235.666C117.467 234.653 114.349 233.487 111.301 232.196C120.903 231.807 130.479 229.739 139.472 226.241C178.451 211.057 197.393 173.178 197.656 133.926C202.437 111.676 201.038 88.3992 191.365 67.149C198.335 80.557 202.88 95.3115 204.945 109.372C211.749 155.342 198.183 205.324 162.516 236.402ZM186.128 77.1842C187.375 80.6681 188.4 84.1936 189.218 87.7469C182.234 69.5641 170.954 52.0337 156.474 39.2363C170.386 47.7864 180.502 61.4721 186.128 77.1842ZM105.841 223.701C101.144 223.563 96.6817 222.896 92.4415 221.814C89.3653 219.704 86.3999 217.428 83.5593 215.026C90.9865 213.805 98.2891 212.001 105.19 209.96C134.76 201.216 164.857 183.685 180.71 157.827C175.222 169.625 167.906 180.59 159.176 190.112C146.275 204.186 127.472 217.219 107.587 223.701C106.991 223.701 106.409 223.715 105.841 223.701ZM183.495 118.519C183.162 138.395 174.516 156.231 160.465 170.069C146.206 184.102 128.012 193.457 109.125 199.717C117.855 194.428 125.809 187.752 132.141 179.854C133.305 179.174 134.442 178.453 135.564 177.675C146.774 169.903 154.354 157.23 156.141 143.878C161.158 133.44 163.596 121.808 162.516 109.955C162.252 107.054 161.781 104.153 161.144 101.308C162.238 90.1481 161.047 78.7943 157.472 68.1067C159.328 69.1199 161.158 70.2581 162.917 71.5628C177.467 82.2643 183.786 100.933 183.495 118.519ZM21.5222 129.873C22.4783 135.647 24.1827 141.254 26.5938 146.543C25.4437 152.844 24.2104 159.132 22.6446 165.322C20.7462 153.621 20.386 141.671 21.5222 129.873ZM67.5131 102.71C70.6447 99.6975 74.1089 97.3241 77.7533 95.5752C82.9219 93.7569 88.7833 93.4654 94.9496 95.2282C95.7394 95.4503 96.5154 95.714 97.2914 95.9916C83.6563 94.9506 69.6609 101.294 64.0766 114.757C64.0627 114.785 64.0488 114.827 64.035 114.854C62.1505 115.687 60.3906 116.812 58.7971 118.2C59.5038 114.896 60.6678 111.801 62.2197 109.011C63.7717 106.749 65.5315 104.625 67.5131 102.71ZM117.481 116.562C113.157 114.452 108.363 113.286 103.278 113.383C103.139 113.355 103.014 113.328 102.876 113.3C105.356 111.273 108.197 109.844 111.218 108.983C113.933 111.079 116.026 113.661 117.481 116.562ZM97.2914 151.109C97.0558 150.457 96.8341 149.832 96.6401 149.207C96.6124 149.096 96.5847 148.999 96.5431 148.888C96.6817 148.819 96.8341 148.749 96.9865 148.666C97.8734 148.833 98.7464 148.888 99.6193 148.874C98.8434 149.638 98.0674 150.387 97.2914 151.109ZM103.901 134.134C103.361 134.883 102.626 135.786 101.767 136.743C99.9796 137.659 98.2059 138.492 96.46 139.242C96.4046 139.269 96.3353 139.297 96.266 139.325C96.1829 136.049 95.5732 132.76 94.4646 129.664C94.5893 128.61 94.7556 127.555 94.9912 126.528C95.4207 126.347 95.8503 126.181 96.3076 126.042C100.077 126.181 103.569 127.666 105.73 130.761C105.245 131.969 104.622 133.134 103.901 134.134ZM86.4831 142.753C86.1505 142.837 85.8179 142.92 85.4854 143.003C84.9865 141.282 84.7232 139.478 84.7648 137.701C85.1528 138.742 85.6378 139.741 86.2059 140.713C86.2752 141.393 86.3722 142.073 86.4831 142.753ZM113.462 127.735C113.629 126.708 113.698 125.681 113.656 124.668C113.781 124.557 113.906 124.432 114.017 124.307C114.682 124.64 115.347 124.987 115.984 125.389C116.497 125.709 117.01 126.042 117.509 126.389C116.414 127.333 115.291 128.235 114.127 129.109C113.92 128.623 113.698 128.165 113.462 127.735ZM84.2937 116.312C81.2452 114.355 77.781 113.286 74.2613 113.05C79.0835 106.735 87.0512 103.07 95.9611 103.57C91.624 107.276 87.7163 111.62 84.2937 116.312ZM79.9704 122.877C79.6516 123.405 79.3468 123.918 79.0419 124.446C79.0281 124.459 79.0281 124.459 79.0281 124.473C76.1736 126.722 73.7348 129.498 72.0581 132.676C71.49 133.745 71.0188 134.911 70.617 136.133C70.1736 134.55 69.841 132.926 69.6331 131.233C69.2036 127.721 69.453 124.432 70.229 121.406C73.5685 120.74 77.1574 121.128 79.9704 122.877ZM61.5546 127.083C61.4853 130.733 61.9703 134.398 62.9264 137.937C62.4137 137.201 61.9426 136.396 61.513 135.494C60.0165 132.26 60.2659 129.387 61.5546 127.083ZM126.169 135.661C126.28 135.841 126.377 136.035 126.488 136.216C125.823 138.02 124.991 139.769 124.007 141.449C124.867 139.561 125.601 137.618 126.169 135.661ZM83.5593 84.9431C71.0465 87.1084 59.4761 94.09 50.6909 103.764C51.2313 100.516 51.9934 97.3241 52.9772 94.2288C61.0558 86.109 73.0835 82.0422 85.8318 84.4434C85.0697 84.5961 84.3214 84.7627 83.5593 84.9431ZM128.261 96.8938C126.044 95.3531 123.536 94.5342 120.903 94.215C118.756 92.4383 116.428 90.856 114.003 89.4958C110.816 86.803 107.365 84.4157 103.721 82.417C95.684 78.0309 86.4831 75.9072 77.4623 76.0877C83.7117 73.1729 90.0858 70.7578 96.0581 68.7035C96.3214 68.7729 96.5847 68.8285 96.8341 68.8979C111.703 73.2145 123.245 84.3602 129.744 98.0597C129.301 97.6711 128.816 97.2685 128.261 96.8938ZM41.5869 88.4409C40.7971 90.1065 40.0488 91.7859 39.356 93.4654C38.5107 95.1449 37.7347 96.8521 37.028 98.601C38.2474 93.5765 39.7994 88.663 41.7116 83.916C42.1828 83.4024 42.6262 82.8611 43.125 82.3614C44.289 81.1955 45.5223 80.1129 46.7832 79.058C44.8433 82.1255 43.0973 85.2624 41.5869 88.4409ZM60.9865 61.9856C59.8918 62.3604 58.7971 62.7768 57.7301 63.2071C60.0304 61.2361 62.4137 59.3762 64.908 57.6412C64.1874 58.5573 63.4669 59.4872 62.7602 60.4311C62.1643 60.9446 61.5685 61.4582 60.9865 61.9856ZM150.834 112.342C150.557 113.355 150.266 114.355 149.947 115.354C149.878 115.257 149.809 115.146 149.74 115.049C149.947 108.65 149.379 102.265 147.966 96.1165C146.691 90.5923 144.737 85.0819 142.16 79.8492C145.444 84.1936 148.132 89.0377 150.141 94.1317C151.153 100.281 151.388 106.388 150.834 112.342ZM140.372 65.5944C139 64.373 137.573 63.2209 136.104 62.1383C136.936 62.1938 137.753 62.2771 138.585 62.3743C139.194 63.4291 139.79 64.4979 140.372 65.5944ZM84.8341 48.6886C85.5269 47.9946 86.2198 47.3006 86.9126 46.6205C88.326 46.8703 89.7256 47.1895 91.1113 47.5782C88.9773 47.8003 86.8849 48.175 84.8341 48.6886ZM132.529 53.3661C128.552 53.2967 124.562 53.5188 120.571 53.9907C119.739 53.7131 118.908 53.4494 118.077 53.2135C117.218 52.7277 116.358 52.2696 115.472 51.8393C110.206 47.023 104.22 43.1644 97.6378 40.6521C98.1644 40.43 98.6909 40.2079 99.2036 39.9997C99.7995 39.7499 100.271 39.4306 100.617 39.0559C105.536 37.9177 110.483 37.3625 115.222 37.6818C121.901 41.6792 127.679 47.1202 132.529 53.3661ZM39.5638 186.559C42.6678 192.666 46.326 198.523 50.5246 203.867C47.3929 203.117 44.3306 202.062 41.3514 200.647C39.5638 199.8 37.8733 198.842 36.2798 197.787C35.5038 193.471 34.9495 189.099 34.5892 184.699C36.2105 185.393 37.8594 186.003 39.5638 186.559ZM60.6124 189.487C60.9588 189.473 61.2913 189.473 61.6378 189.459C62.9264 189.404 64.2151 189.307 65.5038 189.21C74.7602 191.111 84.3907 190.403 93.5501 187.724C100.035 188.363 106.589 188.127 112.936 186.947C110.76 188.641 108.474 190.237 106.063 191.736C96.2521 197.857 84.5431 202.756 72.5985 204.561C68.2475 199.856 64.2567 194.803 60.6124 189.487ZM23.8502 185.254C24.6123 184.879 25.2774 184.268 25.7347 183.436C25.8594 185.101 25.998 186.767 26.1643 188.432C25.3467 187.391 24.5707 186.336 23.8502 185.254ZM161.684 60.6393C158.719 59.0431 155.684 57.7522 152.594 56.7112C147.218 46.5372 139.125 36.6824 128.483 31.9632C125.698 30.7279 122.802 29.9645 119.864 29.5481C120.335 29.5481 120.82 29.5481 121.291 29.562C127.194 30.9777 133.125 33.379 139.014 36.8906C150.71 43.8722 160.492 53.5466 168.238 64.831C166.188 63.2903 164.012 61.8885 161.684 60.6393ZM165.758 195.747C171.536 189.348 176.733 182.339 181.25 174.899C176.178 186.531 168.71 197.024 158.802 205.213C154.146 209.058 149.005 212.389 143.559 215.124C151.86 209.377 159.398 202.784 165.758 195.747ZM17.5453 91.9386C14.7739 98.8925 12.5153 106.027 10.7693 113.217C10.3675 114.424 9.97948 115.646 9.6192 116.867C9.7162 115.951 9.84091 115.049 9.96562 114.147C11.4899 106.471 14.1365 98.9619 17.5453 91.9386ZM62.8572 216.553C66.5846 219.607 70.6031 222.286 74.9403 224.52C77.5731 225.867 80.2752 227.019 83.0189 228.004C68.968 228.171 55.3468 224.007 43.804 213.583C49.9564 215.457 56.3722 216.373 62.8572 216.553ZM103.624 262.843C80.4969 264.994 61.5823 254.418 49.7624 234.722C47.9472 231.696 46.3121 228.573 44.8433 225.381C60.3629 235.846 78.5431 238.178 96.6263 235.069C110.871 243.161 126.848 248.311 144.141 249.518C131.684 256.68 117.869 261.524 103.624 262.843ZM232.271 190.945C221.934 209.447 206.317 225.117 186.737 233.598C182.608 235.388 178.354 236.79 174.017 237.873C196.465 215.387 210.599 184.463 214.409 152.247C219.994 105 205.167 47.8141 162.072 21.7198C155.421 17.6946 148.437 14.8908 141.287 13.1836C157.582 8.28394 175.042 7.52054 191.102 14.1274C209.532 21.692 222.904 37.8067 231.675 55.2538C252.086 95.7973 254.705 150.776 232.271 190.945Z" fill="#FFB077" fill-opacity="0.2"/>
</svg>
