<svg width="45" height="41" viewBox="0 0 45 41" fill="none" xmlns="http://www.w3.org/2000/svg">
<path d="M40.5978 17.3679C41.5815 22.4951 40.0291 27.1322 33.8264 32.0102C28.7868 35.9736 5.85331 36.6695 4.97847 25.5818C4.54536 20.0927 16.2275 3.9242 24.2591 4.33671C32.2908 4.74923 39.3683 10.9589 40.5978 17.3679Z" fill="#AB6D57" fill-opacity="0.4"/>
<path d="M33.7203 9.27759H10.8537C9.57313 9.27759 8.56702 10.2871 8.56702 11.5721V34.5169C8.56702 35.8018 9.57313 36.8113 10.8537 36.8113H21.3724H26.8604H33.7204C35.0009 36.8113 36.007 35.8018 36.007 34.5168V11.5721C36.007 10.2871 35.0009 9.27759 33.7203 9.27759ZM22.287 35.8935V26.7156H18.6283V23.0445H22.287V19.8322C22.287 17.2165 24.2993 15.0138 26.8603 14.7843H30.9763V18.4555H27.3177C26.5402 18.4555 25.9457 19.0521 25.9457 19.8322V23.0445H30.519V26.7156H25.9457V35.8936H22.287V35.8935ZM35.0924 34.5168C35.0924 35.297 34.4978 35.8935 33.7203 35.8935H26.8603V27.6334H31.4337V22.1267H26.8603V19.8322C26.8603 19.5568 27.0433 19.3733 27.3177 19.3733H31.891V13.8665H26.8146C23.7505 14.1419 21.3723 16.7576 21.3723 19.8322V22.1267H17.7137V27.6334H21.3723V35.8935H10.8537C10.0762 35.8935 9.4817 35.297 9.4817 34.5168V11.5721C9.4817 10.7919 10.0762 10.1954 10.8537 10.1954H33.7204C34.4979 10.1954 35.0924 10.7919 35.0924 11.5721V34.5168H35.0924Z" fill="#222222" stroke="#222222" stroke-width="0.5"/>
</svg>
