<svg width="30" height="25" viewBox="0 0 30 25" fill="none" xmlns="http://www.w3.org/2000/svg">
<path d="M3.25946 10.0608C3.79131 6.05448 5.91869 3.04974 11.2372 1.04658C15.5585 -0.580979 31.1815 4.71904 29.1871 13.0655C28.1997 17.1975 16.5557 26.0861 11.2372 23.749C5.91871 21.412 2.59465 15.0687 3.25946 10.0608Z" fill="#B29462" fill-opacity="0.6"/>
<path d="M16.2971 9.37187H16.2964C16.0118 9.37187 15.7795 9.14174 15.7795 8.85114C15.7795 8.56055 16.0118 8.33042 16.2964 8.33042C16.5809 8.33042 16.8132 8.56055 16.8132 8.85114L16.8132 8.85189C16.8133 8.92048 16.7999 8.98837 16.7739 9.05165C16.7478 9.11493 16.7096 9.17228 16.6615 9.22049C16.6135 9.2687 16.5566 9.30681 16.4941 9.33274C16.4316 9.35867 16.3646 9.37195 16.2971 9.37187ZM11.3182 10.1276C9.27339 10.1276 7.61001 11.7997 7.61001 13.8464C7.61001 15.8932 9.27339 17.5653 11.3182 17.5653C13.363 17.5653 15.0263 15.8932 15.0263 13.8464C15.0263 11.7997 13.363 10.1276 11.3182 10.1276ZM21.2403 13.8464C21.2403 13.6897 21.2405 13.5327 21.2407 13.3755L20.5797 9.9859L21.179 9.95698C21.179 9.95616 21.1789 9.95534 21.1789 9.95452C21.1027 8.38302 20.7388 6.88331 19.5007 5.64101C18.2598 4.39583 16.7663 4.0327 15.1993 3.95625C14.0515 3.89166 12.9129 3.89295 11.789 3.89424C11.6325 3.89441 11.4764 3.89459 11.3205 3.89459C11.1643 3.89459 11.0079 3.89441 10.8512 3.89424C9.7258 3.89295 8.58739 3.89166 7.44171 3.95625C5.8744 4.03272 4.37872 4.39831 3.14027 5.64101C1.89973 6.88581 1.53826 8.38338 1.46213 9.95466C1.39777 11.1062 1.39906 12.2486 1.40034 13.3763C1.40052 13.5333 1.40069 13.69 1.40069 13.8464C1.40069 14.0028 1.40052 14.1595 1.40034 14.3166C1.39906 15.4447 1.39777 16.5887 1.46213 17.7382C1.53828 19.3098 1.90219 20.8095 3.14027 22.0519C4.38116 23.297 5.87462 23.6602 7.44164 23.7366C8.58941 23.8012 9.7281 23.7999 10.852 23.7986C11.0085 23.7985 11.1646 23.7983 11.3205 23.7983C11.4767 23.7983 11.6331 23.7985 11.7898 23.7986C12.9152 23.7999 14.0537 23.8012 15.1994 23.7366C16.7666 23.6601 18.2623 23.2946 19.5007 22.0519C20.7411 20.8072 21.1026 19.3099 21.1788 17.7389C21.2442 16.6074 21.2425 15.4825 21.2408 14.3716C21.2406 14.1962 21.2403 14.0211 21.2403 13.8464ZM11.3182 18.0452C9.005 18.0452 7.13585 16.1726 7.13585 13.8464C7.13585 11.5203 9.005 9.64768 11.3182 9.64768C13.6313 9.64768 15.5005 11.5203 15.5005 13.8464C15.5005 16.1726 13.6313 18.0452 11.3182 18.0452Z" stroke="#202020" stroke-width="1.2"/>
</svg>
