<svg width="33" height="29" viewBox="0 0 33 29" fill="none" xmlns="http://www.w3.org/2000/svg">
<path d="M29.3661 12.2646C30.0678 15.9219 28.9604 19.2296 24.536 22.7092C20.9412 25.5363 4.58237 26.0326 3.95832 18.1237C3.64937 14.2083 11.9823 2.67505 17.7114 2.96931C23.4406 3.26358 28.489 7.69302 29.3661 12.2646Z" fill="#AB6D57" fill-opacity="0.7"/>
<path d="M18.9528 6.4939H2.6418C1.72835 6.4939 1.01068 7.21402 1.01068 8.13059V24.4974C1.01068 25.4139 1.72835 26.134 2.6418 26.134H10.1449H14.0595H18.9528C19.8663 26.134 20.5839 25.4139 20.5839 24.4973V8.13059C20.5839 7.21402 19.8663 6.4939 18.9528 6.4939ZM10.7973 25.4793V18.9327H8.18752V16.314H10.7973V14.0226C10.7973 12.1568 12.2327 10.5856 14.0595 10.4219H16.9955V13.0406H14.3857C13.8311 13.0406 13.407 13.4661 13.407 14.0226V16.314H16.6693V18.9327H13.4071V25.4794H10.7973V25.4793ZM19.9315 24.4973C19.9315 25.0538 19.5074 25.4793 18.9528 25.4793H14.0595V19.5873H17.3217V15.6593H14.0595V14.0226C14.0595 13.8262 14.19 13.6953 14.3857 13.6953H17.6479V9.76724H14.0269C11.8412 9.96364 10.1448 11.8295 10.1448 14.0226V15.6593H7.53507V19.5873H10.1448V25.4793H2.6418C2.08721 25.4793 1.66314 25.0538 1.66314 24.4973V8.13059C1.66314 7.5741 2.08721 7.14858 2.6418 7.14858H18.9528C19.5074 7.14858 19.9315 7.5741 19.9315 8.13059V24.4973H19.9315Z" fill="#202020" stroke="#202020" stroke-width="0.5"/>
</svg>
