<svg width="212" height="99" viewBox="0 0 212 99" fill="none" xmlns="http://www.w3.org/2000/svg">
<path d="M183.683 61.6617C183.683 58.0617 183.716 54.4684 183.67 50.8684C183.637 48.3346 184.162 45.8469 184.175 43.3131C184.181 41.6612 186.215 40.9241 188.189 41.6086C189.317 42.0035 189.763 42.7472 189.77 43.8726C189.776 45.2349 189.33 46.7156 189.638 47.9134C190.052 49.5193 189.711 51.0395 189.861 52.5795C190.176 55.7583 190.137 58.9699 189.927 62.1421C189.756 64.7614 190.281 67.3742 189.789 69.9869C189.553 71.2242 188.956 71.8758 187.723 72.2575C186.418 72.6655 185.251 73.0341 184.241 71.7376C184.181 71.6652 183.827 71.5335 183.676 71.856C183.106 73.067 182.745 72.2312 182.529 71.6783C181.381 68.7168 180.345 65.7026 179.151 62.7607C177.78 59.3846 176.285 56.0544 174.835 52.7046C174.671 52.3295 174.461 51.9741 174.179 51.4344C173.963 53.2311 174.284 54.7974 174.356 56.3703C174.573 60.8061 174.153 65.2287 174.081 69.6579C174.061 70.9544 173.379 71.2769 172.067 71.4085C171.188 71.4941 170.605 71.3953 170.133 70.6846C170.041 70.5464 169.936 70.4476 169.759 70.4871C168.565 70.7504 168.185 69.9211 168.204 69.0722C168.421 61.9249 167.83 54.7579 168.84 47.6304C169.05 46.1365 169.103 44.6228 169.168 43.1091C169.234 41.7073 170.815 40.8123 172.238 40.9176C175.478 41.1479 176.449 43.6225 177.675 45.9127C177.76 46.0707 177.813 46.3274 177.747 46.4656C176.934 48.0714 178.029 49.4534 178.423 50.8289C178.941 52.6717 179.807 54.4355 180.928 56.0544C182.109 57.759 182.417 59.8781 183.683 61.6617Z" fill="white"/>
<path d="M151.033 53.8624C151.092 57.0674 149.958 59.4432 148.908 61.8848C148.147 63.6486 147.098 65.1622 145.865 66.5969C145.202 67.3603 144.153 67.7486 143.838 68.8806C143.74 69.2294 142.959 68.999 142.526 69.157C141.011 69.7032 139.385 69.8875 137.929 70.618C137.824 70.6707 137.666 70.7496 137.601 70.7036C136.604 70.1113 135.915 70.6443 135.187 71.2695C135.003 71.4275 134.61 71.671 134.308 71.0195C134.098 70.5719 133.298 70.2166 132.636 70.2034C132.177 70.1902 131.685 70.1113 131.258 70.1771C129.835 70.4008 129.487 69.6374 129.632 68.4989C129.927 66.1363 128.858 63.9382 128.923 61.5887C129.114 54.639 129.081 47.6762 130.366 40.7989C130.747 38.7587 131.619 38.2256 133.757 38.1072C136.145 37.969 138.499 38.0677 140.847 38.4099C143.438 38.7916 145.445 40.1342 147.295 41.9835C149.61 44.3066 149.833 47.2944 150.476 50.177C150.764 51.5393 151.073 52.9147 151.033 53.8624ZM144.31 46.5968C143.838 45.9848 143.3 45.4188 142.9 44.7673C142.166 43.5498 141.051 43.0167 139.713 42.8982C138.283 42.7666 136.84 42.7337 135.404 42.6284C134.807 42.5823 134.813 42.9114 134.833 43.3523C134.938 45.4451 135.056 47.538 135.161 49.6242C135.423 54.8759 135.187 60.1145 134.944 65.3531C134.899 66.2942 136.014 66.3205 135.856 67.13C135.974 67.13 136.086 67.1432 136.204 67.1366C136.899 67.0839 137.194 66.7746 137.26 66.0704C137.266 65.9849 137.411 65.9059 137.496 65.8269C137.909 65.4518 138.217 65.0306 138.958 65.3004C139.601 65.5374 139.995 65.2017 139.818 64.8003C139.503 64.0698 139.936 63.7407 140.401 63.359C141.648 62.3521 142.671 61.2004 143.497 59.7789C144.232 58.5153 143.95 57.1003 144.481 55.8763C145.248 54.1125 144.638 52.1908 145.412 50.3415C145.904 49.1635 145.117 47.459 144.507 45.919C144.409 46.2678 144.356 46.4389 144.31 46.5968Z" fill="white"/>
<path d="M200.185 46.307C200.126 46.0371 200.106 45.9648 200.1 45.8924C200.041 44.9183 200.041 44.9183 201.438 44.4708C201.956 44.3063 202.474 44.1549 203.077 43.9706C202.769 43.635 202.363 43.431 202.14 43.6087C201.307 44.2602 200.165 44.2207 199.372 44.9315C198.46 45.741 198.145 47.123 199.057 47.8075C199.706 48.2879 199.975 49.0513 200.782 49.4462C201.739 49.9135 202.651 50.0846 203.661 50.1767C204.92 50.282 206.042 50.8283 207.164 51.3811C211.02 53.2765 212.181 56.8172 211.978 60.5751C211.847 63.0496 211.25 65.6624 209.335 67.8408C208.193 69.1373 206.678 69.4795 205.458 70.4535C204.855 70.934 203.55 70.6773 202.559 70.8023C200.985 70.9998 199.339 71.0722 197.798 70.7168C194.813 70.0257 192.957 68.0711 192.236 65.0964C191.895 63.7012 191.757 62.2599 191.731 60.8252C191.724 60.4895 191.409 59.555 192.498 59.9499C192.629 59.9959 192.937 59.3707 193.246 59.1996C194.092 58.7258 195.076 58.7258 195.994 58.502C196.761 58.3177 197.247 58.8179 197.417 59.3641C197.758 60.4632 198.434 61.4438 198.512 62.6482C198.558 63.3787 198.972 64.0368 199.339 64.6818C199.89 65.6492 200.736 65.8203 201.733 65.7282C202.756 65.6295 203.53 65.0635 203.93 64.2013C204.875 62.1546 205.006 59.9301 204.914 57.7386C204.829 55.7379 203.156 54.4743 200.802 54.5927C198.657 54.698 196.991 53.7898 195.404 52.5328C194.767 52.0326 193.81 51.7497 193.613 50.9402C193.403 50.078 193.115 49.2619 192.819 48.4393C192.669 48.0247 192.741 47.5772 192.301 47.2218C192.039 47.0046 192.223 46.4715 192.498 46.1819C193.121 45.537 193.488 44.7604 193.725 43.918C193.823 43.5758 194.066 43.4441 194.321 43.2599C197.627 40.8051 201.379 39.9166 205.425 40.1601C207.951 40.3115 211.21 42.299 211.597 44.4116C211.735 45.1684 211.906 45.8989 211.204 46.4254C210.495 46.9519 209.715 46.9914 208.941 46.4649C208.587 46.228 208.167 46.0832 207.846 45.8134C206.685 44.8394 205.439 44.609 203.943 44.9447C202.658 45.2079 201.3 45.2013 200.185 46.307Z" fill="white"/>
<path d="M108.768 64.4255C108.165 63.5173 108.125 62.4445 107.981 61.4178C107.187 55.9553 107.476 50.4862 107.915 45.0171C107.929 44.8592 107.961 44.7012 107.929 44.5499C107.417 42.3254 108.88 41.3316 110.493 40.4497C111.333 39.989 112.703 40.9433 112.887 42.2925C113.215 44.7473 113.543 47.2153 113.366 49.7096C113.346 50.0255 112.94 50.631 113.825 50.5126C114.048 50.4796 114.009 50.8219 113.982 50.993C113.766 52.5857 114.133 54.1718 114.002 55.7645C113.792 58.318 114.337 60.786 114.94 63.2408C115.189 64.2544 115.655 65.3864 116.744 65.4324C117.8 65.4785 118.305 64.3399 118.613 63.4251C119.288 61.431 119.446 59.325 119.859 57.2716C120.784 52.7107 120.554 48.0643 120.961 43.4574C121.053 42.4109 121.656 41.5751 121.912 40.6471C121.656 40.2259 121.322 41.2855 121.138 40.5616C121.046 40.2062 121.289 40.0087 121.623 39.8771C124.26 38.8438 126.936 40.68 127.776 42.3451C128.045 42.8716 128.189 43.4705 128.045 44.0497C127.349 46.8533 127.382 49.7491 126.916 52.5791C126.3 56.3634 125.874 60.2003 124.509 63.8003C123.952 65.2679 122.686 66.2683 121.033 66.6895C119.971 66.9593 118.888 67.3279 117.95 67.8807C117.308 68.2624 116.835 67.8675 116.285 67.9136C114.986 68.0189 113.687 67.8478 112.369 67.9136C110.264 68.0189 109.385 66.1695 108.762 64.386C109.109 64.5769 109.194 65.2087 109.811 64.9849C109.759 64.182 109.444 63.5765 108.696 63.2408C108.453 63.6686 109.149 64.0043 108.768 64.4255Z" fill="white"/>
<path d="M166.512 69.5918C166.919 69.8287 167.207 69.9932 167.581 70.2104C167.194 70.6843 166.735 70.908 166.243 70.8817C162.465 70.6974 158.733 71.4016 154.955 71.3622C151.768 71.3292 151.873 69.6247 152.266 67.3541C152.338 66.9395 152.456 66.5446 152.424 66.1103C152.089 61.5691 151.938 57.0346 152.345 52.4869C152.437 51.48 152.489 50.473 152.62 49.4792C152.666 49.1041 153.171 48.9725 153.093 48.4065C152.876 46.7677 152.896 45.1027 152.673 43.4705C152.463 41.9107 152.574 41.6606 153.945 41.0157C154.982 40.5286 156.024 40.2391 157.153 40.2917C159.77 40.4036 162.347 40.0219 164.938 39.7586C165.902 39.6599 166.25 40.1074 166.466 40.9301C166.899 42.5491 166.25 44.076 166.105 45.6423C166.079 45.9517 165.738 45.8595 165.522 45.8332C163.501 45.5765 161.494 45.8924 159.481 45.8595C158.681 45.8464 158.445 46.1952 158.477 46.8928C158.563 48.6763 158.655 50.4533 158.733 52.2368C158.753 52.7107 158.963 52.8291 159.409 52.7502C160.019 52.6383 160.642 52.5922 161.258 52.4869C163.16 52.1644 164.243 52.8884 164.472 54.7772C164.59 55.771 164.531 56.7845 164.531 57.7849C164.531 58.3114 164.092 58.2456 163.764 58.2851C162.413 58.4496 161.068 58.6207 159.717 58.7392C159.173 58.7852 158.943 58.9366 158.845 59.5487C158.576 61.2203 158.884 62.8591 158.93 64.511C158.943 65.077 159.324 65.1099 159.71 65.156C160.989 65.2942 162.275 65.1955 163.554 65.1165C164.177 65.077 164.8 65.0046 165.417 65.0375C166.446 65.0902 167.266 65.9194 167.515 67.0711C167.725 68.032 167.332 69.1048 166.512 69.5918ZM155.132 53.7966C156.956 53.3688 156.497 51.9472 156.674 50.7429C157.015 51.2694 157.461 51.5853 157.061 52.1118C156.871 52.3684 156.674 52.6712 156.949 52.9344C157.08 53.0661 157.408 53.0924 157.605 53.0397C158.064 52.9147 157.854 52.4803 157.946 52.171C158.235 51.197 157.395 50.4796 157.435 49.5648C157.474 48.729 157.474 47.8142 156.09 48.4723C156.215 47.9853 156.267 47.6365 156.405 47.3272C156.549 46.9915 156.772 46.5769 156.425 46.3926C156.038 46.1886 155.506 46.1228 155.073 46.1952C154.732 46.2544 154.89 46.7151 154.87 47.0178C154.686 49.2489 155.578 51.4273 155.132 53.7966ZM155.519 64.432C155.001 64.6295 155.231 63.5633 154.686 63.9713C154.319 64.2412 154.516 64.6887 154.627 65.0572C154.824 65.7351 155.677 65.8931 156.392 65.3797C156.602 65.2284 156.89 64.998 156.766 64.7216C156.582 64.3004 156.464 64.8335 156.274 64.8203C156.018 64.8006 156.024 64.5966 156.103 64.5044C156.477 64.0437 155.578 63.4843 156.247 63.0302C156.379 62.9446 156.261 62.5366 155.998 62.4839C155.585 62.405 155.605 62.734 155.605 63.0105C155.598 63.4843 155.683 63.9845 155.519 64.432ZM154.588 59.3315C155.113 60.0357 154.923 60.6412 154.627 61.2467C154.503 61.4967 154.45 61.7797 154.759 61.9574C154.903 62.0364 155.067 62.043 155.178 61.8982C155.651 61.2861 155.362 60.549 155.48 59.8712C155.559 59.4434 155.113 59.3973 154.588 59.3315ZM157.054 60.345C157.054 61.1216 157.041 61.8982 157.067 62.6748C157.067 62.7999 156.851 63.175 157.356 63.0039C157.651 62.9052 157.717 62.813 157.612 62.5695C157.297 61.8456 157.218 61.0821 157.054 60.345Z" fill="white"/>
<path d="M94.3518 41.3056C94.6994 41.4964 94.4961 41.9637 94.8765 42.3125C94.9224 41.7597 94.8765 41.2924 95.2372 40.8449C95.8013 42.1875 96.4571 41.1739 96.7392 40.7857C97.3819 39.9235 98.1624 40.0683 98.897 40.3118C99.671 40.5685 100.045 41.3385 99.9333 42.1019C99.343 46.1757 100.038 50.2429 99.8874 54.3233C99.7759 57.3375 99.3955 60.3649 99.73 63.3988C99.9333 65.2284 99.9268 65.2416 101.744 65.2284C102.904 65.2218 104.072 65.4061 105.213 64.9981C106.19 64.6493 106.787 65.8931 107.056 67.2028C107.096 67.3805 107.01 67.5845 106.984 67.7754C106.873 68.5914 107.587 69.6707 106.23 70.0854C105.364 70.3486 104.662 70.8883 103.613 70.8488C101.737 70.7896 99.8087 70.8685 97.9788 71.4214C96.3391 71.915 95.2241 70.829 94.155 70.0656C93.1974 69.3812 93.4139 67.9267 93.5713 66.8869C93.991 64.0833 93.6762 61.306 93.65 58.5155C93.6303 56.4095 93.7811 54.3299 94.0304 52.2436C94.1681 51.105 93.9254 49.9204 93.9517 48.7621C93.991 46.3929 94.096 44.0236 94.1747 41.661C94.1747 41.5227 94.1222 41.3385 94.3518 41.3056Z" fill="white"/>
<path d="M111.031 7.24853C111.057 6.8339 111.077 6.51799 111.096 6.20866C110.762 6.14284 110.775 6.70227 110.467 6.53773C110.171 6.37978 110.309 6.06387 110.375 5.83352C110.591 5.00426 110.434 4.24739 110.073 3.48394C109.279 4.35927 109.575 5.50444 109.306 6.4785C109.135 6.45875 109.01 6.45217 109.01 6.44559C109.037 5.16879 109.024 3.89199 109.037 2.62177C109.043 1.91098 109.981 1.89123 110.506 1.6543C112.218 0.884274 112.579 1.13437 112.742 2.98375C112.815 3.76036 112.906 4.53039 112.959 5.307C112.992 5.78745 113.615 6.62987 112.277 6.30738C111.857 6.20208 111.726 7.13006 111.031 7.24853Z" fill="white"/>
<path d="M140.664 15.0468C140.474 17.3831 140.585 19.6997 140.644 22.0229C140.742 25.7939 140.598 29.5649 140.526 33.3359C140.513 33.948 140.165 34.2112 139.483 34.2968C138.25 34.4547 137.037 34.0599 135.823 34.2573C135.187 34.3626 135.194 33.9611 135.135 33.5926C134.859 31.7959 134.787 29.9795 134.761 28.1631C134.715 25.4582 134.144 22.7665 134.617 20.0353C134.761 19.2127 135.325 18.5809 135.325 17.7451C135.318 16.3499 135.226 14.9678 134.971 13.5923C134.899 13.2172 134.82 12.7829 134.931 12.4406C135.902 9.59097 134.787 6.76764 134.826 3.93114C134.846 2.79259 134.971 2.11473 136.217 1.95678C137.47 1.79883 138.67 1.33157 139.995 1.60798C141.084 1.83174 141.838 2.42405 142.382 3.31251C143.379 4.94465 143.956 6.74789 144.579 8.55114C145.675 11.7299 147.164 14.7572 148.77 17.9096C149.741 15.3364 150.6 12.9671 151.525 10.6242C152.581 7.95225 153.499 5.22764 154.844 2.68071C155.277 1.85806 155.834 1.19994 156.884 1.21969C158.025 1.23943 159.12 0.311483 160.294 1.06174C160.307 1.06832 160.34 1.02225 160.366 1.01567C162.216 0.443107 162.347 0.443107 162.347 2.35165C162.347 3.61524 162.537 4.85251 162.616 6.09636C162.878 10.124 162.839 14.1649 163.062 18.186C163.279 22.0755 163.056 25.9518 163.121 29.8347C163.121 29.8742 163.128 29.9137 163.121 29.9532C162.977 30.9272 163.265 32.1382 162.183 32.6778C160.891 33.3162 159.533 33.1188 158.281 32.3948C158.012 32.2435 157.697 32.1316 157.494 31.921C156.864 31.2826 156.097 30.9404 156.228 29.5978C156.346 28.3671 156.234 26.9785 156.326 25.7149C156.503 23.2799 156.444 20.8251 156.785 18.3966C156.995 16.9027 156.648 15.3693 157.1 13.8885C157.212 13.5331 156.884 13.3423 156.543 13.2304C155.467 15.4811 155.113 17.982 154.122 20.2525C153.034 22.7534 152.115 25.2937 151.65 27.9854C151.584 28.3803 151.414 28.8015 150.928 28.7554C150.39 28.7094 150.758 28.3013 150.738 28.0512C150.056 28.2289 149.885 27.0114 149.262 27.4063C148.495 27.8999 147.629 27.7353 146.842 28.0249C145.93 28.3671 145.327 27.8472 145.425 26.8929C145.53 25.8465 144.815 25.0831 144.409 24.2276C142.992 21.2397 141.779 18.1794 140.664 15.0468Z" fill="white"/>
<path d="M132.491 9.76861C133.009 13.5331 133.101 17.495 133.239 21.457C133.324 23.8065 132.688 25.9783 132.058 28.1633C131.776 29.1439 131.606 30.2101 130.76 30.9735C130.347 31.3421 129.933 31.7567 129.396 31.8159C126.234 32.1911 123.079 32.6583 119.885 32.3885C118.744 32.2898 118.009 31.5395 117.301 30.7629C117.249 30.7103 117.176 30.6116 117.19 30.5655C117.773 29.111 116.298 28.4397 115.97 27.3275C115.878 27.0116 115.57 26.5838 115.957 26.3798C116.455 26.1231 116.442 26.722 116.593 26.9787C116.757 27.2551 116.862 27.6171 117.255 27.3275C117.458 27.1761 117.701 26.7878 117.406 26.643C115.983 25.9586 116.855 24.9385 117.026 24.0829C117.216 23.0957 117.222 22.2402 116.317 21.6083C116.284 21.5886 116.225 21.5689 116.219 21.5491C116.127 20.5553 115.176 20.0025 115.078 18.9166C114.782 15.6457 114.697 12.4209 115.314 9.16971C115.897 6.09625 117.458 3.62827 119.925 1.88423C121.617 0.679851 123.775 0.311299 125.867 0.0480479C127.651 -0.175716 129.192 0.390275 130.524 1.57491C131.055 2.04876 131.18 2.68714 131.344 3.31237C131.881 5.37889 132.721 7.39277 132.491 9.76861ZM127.441 10.0055C127.441 9.18946 127.474 8.37338 127.434 7.5573C127.382 6.4319 127.264 5.31308 126.529 4.37195C125.926 3.58878 124.044 3.06228 123.512 3.62169C122.528 4.64837 121.551 5.68821 121.059 7.10319C120.325 9.20262 120.344 11.3415 120.305 13.5265C120.253 16.6263 120.292 19.7129 120.803 22.7601C121.086 24.4449 121.669 26.0705 123.335 27.005C124.601 27.7158 125.447 27.4657 125.972 26.1494C126.431 24.9977 126.956 23.8328 126.943 22.5758C126.903 18.3704 127.303 14.1912 127.441 10.0055Z" fill="white"/>
<path d="M182.22 9.82126C182.968 13.9148 182.857 18.1202 183.027 22.3125C183.112 24.3 182.443 26.2152 181.86 28.0908C181.558 29.0649 181.433 30.1376 180.587 30.9142C180.174 31.2893 179.774 31.7303 179.249 31.7961C176.016 32.1975 172.782 32.7043 169.509 32.3686C168.447 32.2568 167.719 31.5197 167.05 30.7431C167.004 30.6838 166.938 30.5851 166.958 30.5391C167.515 29.1373 166.125 28.4725 165.771 27.4195C165.653 27.0707 165.344 26.5837 165.784 26.3797C166.243 26.1625 166.223 26.7746 166.374 27.0312C166.525 27.2813 166.65 27.5643 166.971 27.3866C167.26 27.2221 167.456 26.7812 167.142 26.6232C165.817 25.9388 166.637 24.945 166.801 24.1421C167.004 23.1351 166.833 22.4244 166.164 21.6083C165.561 20.8844 165.076 19.9169 164.925 18.9955C164.479 16.2643 164.466 13.5133 164.807 10.7492C165.226 7.29406 166.597 4.3654 169.319 2.11461C169.811 1.70657 170.323 1.37751 170.939 1.23272C172.592 0.844425 174.14 0.0151862 175.891 0.0217675C178.777 0.03493 180.994 1.18665 181.335 4.23377C181.473 5.48421 182.148 6.69516 182.22 8.018C182.26 8.59715 182.338 9.1763 182.22 9.82126ZM177.223 10.0187C177.223 9.20262 177.262 8.38655 177.216 7.57705C177.15 6.41217 177.019 5.25387 176.239 4.293C175.596 3.50325 173.786 3.1347 173.195 3.68095C170.965 5.7343 169.982 8.37996 170.054 11.2955C170.139 14.6519 169.791 18.0083 170.382 21.3714C170.637 22.8456 170.933 24.2474 171.608 25.5702C172.061 26.4587 172.854 26.9918 173.746 27.2616C174.323 27.4327 175.117 27.6236 175.465 26.7943C175.898 25.7611 176.455 24.741 176.547 23.609C176.921 19.0877 176.842 14.5466 177.223 10.0187Z" fill="white"/>
<path d="M113.215 6.62246C113.215 9.12992 113.123 11.6374 113.235 14.1382C113.451 19.0808 112.979 24.0101 113.13 28.946C113.143 29.3672 113.025 29.7885 112.972 30.2097C112.939 30.4597 112.775 30.7954 112.598 30.7296C111.687 30.3873 110.887 31.3021 109.975 30.9007C109.719 30.7888 109.378 30.7362 109.076 30.9138C107.876 31.6115 107.561 30.6506 107.122 29.8806C106.472 28.742 106.859 27.5113 106.859 26.3399C106.853 23.4705 106.413 20.6142 106.702 17.6395C105.259 18.1594 103.855 17.8172 102.563 18.3305C101.888 18.6003 101.501 18.8899 101.435 19.7126C101.212 22.7728 101.586 25.8463 101.258 28.9066C101.252 28.946 101.265 28.9855 101.258 29.025C101.173 29.3936 101.501 30.0122 100.838 30.0451C100.261 30.0714 100.799 29.3541 100.347 29.1435C99.9333 29.0316 100.51 30.8678 99.4414 29.6831C99.3233 29.5515 99.1725 29.874 99.1725 30.0649C99.1528 31.1573 98.3789 30.8744 97.8017 30.7427C97.6246 30.7032 97.4606 30.7032 97.2901 30.6967C96.8638 30.6901 96.4702 31.4009 96.0767 30.9073C95.6766 30.4137 95.3421 29.7885 95.2109 29.1764C95.0142 28.2748 94.9552 27.3205 94.9617 26.3925C94.9814 23.635 94.8109 20.8774 94.8043 18.1265C94.7977 15.0267 95.1126 11.9269 95.2175 8.82718C95.2634 7.43195 95.1716 6.03015 95.0601 4.63492C94.8896 2.5026 95.7094 0.883612 98.1362 0.6072C100.261 0.363694 100.655 0.686175 101.022 2.9238C101.462 5.59579 101.12 8.28752 101.245 10.9595C101.284 11.7756 101.343 12.5917 101.35 13.4077C101.357 14.158 101.658 14.5002 102.419 14.2699C103.777 13.8553 105.141 13.6249 106.564 13.875C107.194 13.9869 107.233 13.467 107.279 13.0458C107.364 12.2297 107.489 11.4268 107.765 10.6502C107.948 10.1434 108.296 9.89992 108.709 10.2553C109.516 10.9463 109.916 10.0974 110.46 9.86043C110.657 9.77488 110.657 9.55112 110.513 9.28128C109.962 8.27435 110.172 7.8005 111.287 7.50435C111.929 7.32665 112.664 7.3464 113.215 6.62246ZM112.211 9.39317C111.824 9.6959 111.418 8.95222 111.221 9.43923C111.044 9.88018 110.959 10.3935 111.411 10.8345C111.916 10.4791 111.49 9.663 112.211 9.39317Z" fill="white"/>
<path d="M108.998 7.41895C109.096 7.62297 109.148 7.68221 109.162 7.7546C109.299 8.36669 109.535 8.99851 108.952 9.51845C108.899 9.56452 108.683 9.53162 108.663 9.48555C108.361 8.79448 108.519 8.16266 108.998 7.41895Z" fill="white"/>
<path d="M101.455 79.2466V84.5308H94.1942V79.2466H95.4666V83.4187H97.1785V79.2466H98.4509V83.4187H100.176V79.2466H101.455Z" fill="#AB6D57"/>
<path d="M108.217 84.4721V84.5313H106.741L104.839 82.2807V84.5313H103.554V79.2471H104.839V81.3463L106.577 79.2471H108.04V79.2931L105.948 81.8069L108.217 84.4721Z" fill="#AB6D57"/>
<path d="M108.945 81.8854C108.945 80.2533 110.113 79.1016 111.765 79.1016C113.418 79.1016 114.599 80.2533 114.599 81.8854C114.599 83.5242 113.418 84.6825 111.765 84.6825C110.119 84.6825 108.945 83.5242 108.945 81.8854ZM113.294 81.8854C113.294 80.9114 112.677 80.2401 111.772 80.2401C110.873 80.2401 110.25 80.918 110.25 81.8854C110.25 82.8595 110.873 83.5308 111.772 83.5308C112.677 83.5373 113.294 82.8595 113.294 81.8854Z" fill="#AB6D57"/>
<path d="M115.556 83.4919C116.455 83.3998 116.711 82.8996 116.809 81.8532L117.032 79.2471H120.856V84.5317H119.57V80.3593H118.167L118.049 81.9322C117.898 83.7552 117.268 84.5054 115.701 84.6107L115.556 83.4919Z" fill="#AB6D57"/>
<path d="M127.238 81.1157V84.5313H126.379L126.142 83.7349C125.755 84.2943 125.126 84.6366 124.267 84.6366C123.296 84.6366 122.614 84.0903 122.614 83.1558C122.614 81.9449 123.676 81.2868 125.283 81.2868C125.552 81.2868 125.755 81.2999 125.946 81.3131V81.0762C125.946 80.5299 125.546 80.2601 124.87 80.2601C124.352 80.2601 123.775 80.4246 123.23 80.6879L122.863 79.7073C123.644 79.3519 124.365 79.1611 125.073 79.1611C126.411 79.1479 127.238 79.8389 127.238 81.1157ZM125.972 82.1489C125.762 82.1226 125.591 82.116 125.355 82.116C124.424 82.116 123.88 82.445 123.88 83.0308C123.88 83.4454 124.162 83.6691 124.634 83.6691C125.395 83.6691 125.946 83.1097 125.972 82.1489Z" fill="#AB6D57"/>
<path d="M137.188 79.2466V84.5312H135.915V82.1159C135.915 81.9119 135.915 81.7145 135.941 81.4973C135.791 81.6882 135.633 81.8527 135.469 82.0172L133.01 84.5378H132.511V79.24H133.784V81.6092C133.784 81.8329 133.784 82.0501 133.757 82.2607C133.934 82.0501 134.111 81.8593 134.289 81.6684L136.689 79.24H137.188V79.2466Z" fill="#AB6D57"/>
<path d="M139.286 79.2471H142.867V80.3592H140.585V84.5313H139.286V79.2471V79.2471Z" fill="#AB6D57"/>
<path d="M150.01 81.8662C150.01 83.5116 148.96 84.6633 147.491 84.6633C146.757 84.6633 146.147 84.3803 145.72 83.9262C145.747 84.2948 145.747 84.7226 145.747 85.1833V87.1379H144.461V79.2469H145.333L145.583 80.0498C146.022 79.4706 146.678 79.1152 147.498 79.1152C148.947 79.1152 150.01 80.2801 150.01 81.8662ZM148.698 81.8992C148.698 80.9185 148.108 80.2538 147.222 80.2538C146.311 80.2538 145.701 80.9054 145.701 81.8794C145.701 82.8732 146.324 83.5379 147.222 83.5379C148.108 83.5379 148.698 82.86 148.698 81.8992Z" fill="#AB6D57"/>
<path d="M156.313 82.7282C156.313 83.8667 155.546 84.5313 154.339 84.5313H151.801V79.2471H153.099V80.9317H154.339C155.546 80.9317 156.313 81.6161 156.313 82.7282ZM155.027 82.7282C155.027 82.1952 154.686 81.9254 154.083 81.9254H153.106V83.5376H154.083C154.686 83.5376 155.027 83.2547 155.027 82.7282ZM158.484 79.2471V84.5313H157.198V79.2471H158.484Z" fill="#AB6D57"/>
<path d="M98.7003 94.2518C98.7003 95.1863 98.0051 95.7194 96.9754 95.7194H94.1879V90.4346H96.772C97.7755 90.4346 98.4577 90.9808 98.4577 91.843C98.4577 92.4221 98.2084 92.7775 97.8215 93.0013C98.3593 93.1856 98.7003 93.6068 98.7003 94.2518ZM95.4406 91.3691V92.5998H96.5162C97.0213 92.5998 97.2377 92.3037 97.2377 91.9614C97.2377 91.639 97.0278 91.3691 96.5162 91.3691H95.4406ZM97.4148 94.1465C97.4148 93.7648 97.1787 93.4949 96.6605 93.4949H95.4472V94.7849H96.6605C97.1787 94.7849 97.4148 94.5216 97.4148 94.1465Z" fill="#AB6D57"/>
<path d="M104.662 91.5468H103.154V90.4346H107.463V91.5468H105.961V95.7194H104.662V91.5468Z" fill="#AB6D57"/>
<path d="M113.602 92.8897C113.602 93.0805 113.576 93.2911 113.556 93.5083H109.778C109.942 94.3639 110.605 94.8114 111.457 94.8114C112.061 94.8114 112.487 94.6337 112.848 94.3112L113.392 95.1405C112.789 95.6275 112.152 95.8775 111.339 95.8775C109.654 95.8775 108.493 94.7258 108.493 93.0674C108.493 91.5142 109.614 90.2967 111.208 90.2967C112.69 90.2901 113.602 91.297 113.602 92.8897ZM109.785 92.6264H112.382C112.349 91.784 111.851 91.3497 111.175 91.3497C110.48 91.3497 109.929 91.8104 109.785 92.6264Z" fill="#AB6D57"/>
<path d="M119.538 92.3039V95.7195H118.678L118.442 94.9232C118.055 95.4826 117.426 95.8248 116.566 95.8248C115.596 95.8248 114.914 95.2786 114.914 94.344C114.914 93.1331 115.976 92.475 117.583 92.475C117.852 92.475 118.055 92.4882 118.245 92.5013V92.2644C118.245 91.7182 117.845 91.4483 117.17 91.4483C116.652 91.4483 116.074 91.6129 115.53 91.8761L115.163 90.8955C115.943 90.5402 116.665 90.3493 117.373 90.3493C118.711 90.3361 119.538 91.0272 119.538 92.3039ZM118.278 93.3371C118.068 93.3108 117.898 93.3042 117.662 93.3042C116.73 93.3042 116.186 93.6333 116.186 94.219C116.186 94.6336 116.468 94.8574 116.94 94.8574C117.695 94.8574 118.252 94.298 118.278 93.3371Z" fill="#AB6D57"/>
<path d="M122.384 91.5468H120.876V90.4346H125.185V91.5468H123.683V95.7194H122.384V91.5468Z" fill="#AB6D57"/>
<path d="M132.275 93.054C132.275 94.6993 131.226 95.8511 129.756 95.8511C129.022 95.8511 128.412 95.5681 127.985 95.114C128.012 95.4825 128.012 95.9103 128.012 96.371V98.3257H126.726V90.4346H127.599L127.848 91.2375C128.287 90.6584 128.943 90.303 129.763 90.303C131.212 90.303 132.275 91.4679 132.275 93.054ZM130.963 93.0869C130.963 92.1063 130.373 91.4416 129.487 91.4416C128.576 91.4416 127.966 92.0931 127.966 93.0672C127.966 94.0609 128.589 94.7257 129.487 94.7257C130.373 94.7257 130.963 94.0478 130.963 93.0869Z" fill="#AB6D57"/>
<path d="M138.853 92.8897C138.853 93.0805 138.827 93.2911 138.808 93.5083H135.03C135.194 94.3639 135.856 94.8114 136.709 94.8114C137.312 94.8114 137.738 94.6337 138.099 94.3112L138.644 95.1405C138.04 95.6275 137.404 95.8775 136.591 95.8775C134.905 95.8775 133.744 94.7258 133.744 93.0674C133.744 91.5142 134.866 90.2967 136.46 90.2967C137.942 90.2901 138.853 91.297 138.853 92.8897ZM135.036 92.6264H137.634C137.601 91.784 137.102 91.3497 136.427 91.3497C135.738 91.3497 135.181 91.8104 135.036 92.6264Z" fill="#AB6D57"/>
<path d="M148.508 90.4348V95.7194H147.235V93.3042C147.235 93.1002 147.235 92.9027 147.262 92.6855C147.111 92.8764 146.953 93.0409 146.789 93.2054L144.33 95.726H143.831V90.4282H145.104V92.7974C145.104 93.0212 145.104 93.2384 145.078 93.449C145.255 93.2384 145.432 93.0475 145.609 92.8566L148.009 90.4282H148.508V90.4348Z" fill="#AB6D57"/>
<path d="M158.366 94.2518C158.366 95.1863 157.671 95.7194 156.641 95.7194H153.853V90.4346H156.437C157.441 90.4346 158.123 90.9808 158.123 91.843C158.123 92.4221 157.874 92.7775 157.487 93.0013C158.025 93.1856 158.366 93.6068 158.366 94.2518ZM155.106 91.3691V92.5998H156.182C156.687 92.5998 156.903 92.3037 156.903 91.9614C156.903 91.639 156.693 91.3691 156.182 91.3691H155.106ZM157.08 94.1465C157.08 93.7648 156.844 93.4949 156.326 93.4949H155.113V94.7849H156.326C156.844 94.7849 157.08 94.5216 157.08 94.1465Z" fill="#AB6D57"/>
<path d="M170.316 95.647V95.7194H168.886L167.148 93.3699V95.7194H165.863V93.3699L164.118 95.7194H162.701V95.647L164.734 92.9947L162.891 90.4938V90.4346H164.321L165.869 92.6525V90.4346H167.155V92.6393L168.689 90.4346H170.132V90.4938L168.276 92.9816L170.316 95.647Z" fill="#AB6D57"/>
<path d="M176.416 90.4348V95.7194H175.143V93.3042C175.143 93.1002 175.143 92.9027 175.17 92.6855C175.019 92.8764 174.861 93.0409 174.697 93.2054L172.238 95.726H171.739V90.4282H173.012V92.7974C173.012 93.0212 173.012 93.2384 172.985 93.449C173.163 93.2384 173.34 93.0475 173.517 92.8566L175.917 90.4282H176.416V90.4348Z" fill="#AB6D57"/>
<path d="M178.01 95.2723L178.456 94.3377C178.974 94.68 179.492 94.7853 179.99 94.7853C180.685 94.7853 180.981 94.4891 180.981 94.1074C180.981 93.752 180.745 93.4887 180.18 93.4887H179.164V92.5278H180.076C180.515 92.5278 180.751 92.3041 180.751 91.9684C180.751 91.6722 180.489 91.4024 179.898 91.4024C179.472 91.4024 179.026 91.5472 178.633 91.7315L178.252 90.8101C178.842 90.5007 179.446 90.3362 180.095 90.3362C181.158 90.3362 182.017 90.8693 182.017 91.8302C182.017 92.3041 181.755 92.7582 181.322 92.9227C181.958 93.1136 182.279 93.6072 182.279 94.2127C182.279 95.1867 181.44 95.8383 180.128 95.8383C179.262 95.8383 178.6 95.6343 178.01 95.2723Z" fill="#AB6D57"/>
<path d="M188.753 90.4346V95.7194H187.454V93.6068H185.329V95.7194H184.044V90.4346H185.329V92.4945H187.454V90.4346H188.753Z" fill="#AB6D57"/>
<path d="M195.535 90.4348V95.7194H194.262V93.3042C194.262 93.1002 194.262 92.9027 194.289 92.6855C194.138 92.8764 193.98 93.0409 193.816 93.2054L191.357 95.726H190.858V90.4282H192.131V92.7974C192.131 93.0212 192.131 93.2384 192.105 93.449C192.282 93.2384 192.459 93.0475 192.636 92.8566L195.036 90.4282H195.535V90.4348Z" fill="#AB6D57"/>
<g opacity="0.7">
<path opacity="0.7" d="M0.934391 27.44C1.40007 32.6853 2.16089 38.1477 5.0271 42.6756C7.67686 46.8744 11.9007 49.8294 16.9576 49.8821C22.08 49.9413 27.3927 47.7103 31.7937 45.2357C35.9913 42.8796 39.8544 39.6022 41.9074 35.1467C44.5637 29.3815 44.7408 22.1027 43.8947 15.9097C43.5536 13.4154 43.2519 10.0261 41.1465 8.32812C40.7399 7.99906 40.2808 7.72265 39.802 7.47914C39.251 7.09085 38.6542 6.74863 38.0311 6.44589C36.1881 5.55084 34.2139 4.87955 32.2397 4.27408C32.22 4.2675 32.2003 4.25434 32.1741 4.24775C32.1478 4.24117 32.1216 4.23459 32.1019 4.22801C31.3608 4.00425 30.6131 3.78049 29.8785 3.56331C24.4609 1.97723 18.4858 0.233198 12.7862 0.996622C7.79492 1.66133 3.69566 4.60314 2.05595 9.45351C0.114538 15.2187 0.403126 21.4709 0.934391 27.44Z" fill="#F29370"/>
</g>
<path opacity="0.7" d="M29.3867 33.4347C28.7308 36.0606 28.6783 38.7984 28.5668 41.4902C28.4488 44.353 28.3307 47.2159 28.2127 50.0788C28.0946 52.9943 27.97 55.9164 27.8519 58.8319C27.7535 61.1748 27.4518 63.6889 28.3045 65.9331C30.036 70.5071 35.1716 72.113 39.6185 72.2709C42.2485 72.363 44.8983 72.1656 47.5087 71.8563C50.1388 71.547 52.8673 71.1784 55.3924 70.3623C60.2525 68.7894 62.4628 64.1233 63.6631 59.49C64.988 54.4093 65.9259 49.1771 66.2604 43.9318C66.4244 41.3191 66.4309 38.6931 66.2342 36.0869C66.1358 34.8102 65.9915 33.5334 65.7947 32.2698C65.6308 31.2365 65.4668 30.1703 64.9814 29.2292C64.8765 29.0186 64.7519 28.8278 64.6141 28.6501C63.0007 24.9843 57.4388 24.0695 53.9364 23.5035C48.9254 22.694 43.3439 22.4768 38.4641 24.0892C33.9975 25.57 30.5542 28.7751 29.3867 33.4347Z" fill="#B29462"/>
<g opacity="0.55">
<path opacity="0.7" d="M85.8252 38.8115C87.2353 37.5216 87.3731 35.0602 87.478 33.2965C87.6223 30.9141 87.4059 28.5251 87.0451 26.1756C86.2646 21.0489 85.1037 15.9616 83.9756 10.9072C83.3984 8.31422 82.8475 5.6949 82.1654 3.12823C81.68 1.32498 80.7683 0.522077 78.8925 0.897206C73.3044 2.02259 67.9393 4.13516 62.725 6.40567C61.387 6.9914 60.0556 7.58371 58.7307 8.1826C58.3175 8.36687 57.8846 8.54457 57.4648 8.742C57.4255 8.742 57.3795 8.74858 57.3336 8.76833C55.425 9.40012 54.7363 11.5193 54.0214 13.2172C53.0507 15.5272 52.2374 17.8965 51.516 20.292C50.8207 22.602 50.2108 24.9318 49.6336 27.2747C49.0498 29.6373 48.125 32.2172 48.171 34.672C48.2497 38.8049 52.4276 39.8777 55.7858 40.2396C60.9476 40.7991 66.1553 40.8912 71.3367 40.6938C73.9865 40.595 76.6363 40.4173 79.2795 40.1804C80.5191 40.0685 81.7653 39.9567 83.0049 39.8119C84.015 39.6934 85.0447 39.5223 85.8252 38.8115Z" fill="#868CB3"/>
</g>
<path d="M21.9556 24.0233C21.9556 20.8709 21.9818 17.7119 21.9425 14.5595C21.9228 13.0261 21.7654 11.4926 21.4375 9.98554C21.221 8.9852 20.5717 8.44554 19.5682 8.26785C18.3089 8.05067 17.0627 8.18229 15.81 8.28759C13.5013 8.47844 11.1991 8.62323 8.88387 8.39289C7.54587 8.26126 6.23411 8.59691 4.90923 8.57716C4.79773 8.57716 4.71246 8.62323 4.69279 8.74169C4.66655 8.87332 4.76493 8.93255 4.85676 8.95229C5.07976 8.99178 5.30932 9.05759 5.52576 9.03127C8.45755 8.64956 11.4025 8.99178 14.3408 8.87332C15.2918 8.83383 16.2429 8.73511 17.1873 8.62981C18.0531 8.53109 18.8992 8.61007 19.7387 8.78776C20.6242 8.97862 20.9783 9.84734 21.162 11.1175C21.7851 15.3953 21.28 19.6863 21.4768 23.9706C21.5818 26.2082 21.5883 28.4524 21.503 30.6966C21.4571 32.0063 21.5686 33.316 21.6145 34.6322C21.6211 34.777 21.608 34.9744 21.7916 35.0007C22.0474 35.0337 22.054 34.8033 22.054 34.6388C22.0409 33.6516 22.0015 32.671 21.995 31.6838C21.9884 29.1369 21.995 26.5834 21.995 24.0364C21.9818 24.0233 21.9687 24.0233 21.9556 24.0233Z" fill="#1C1B1D"/>
<path d="M52.2572 47.0247C52.2572 43.8723 52.2834 40.7134 52.244 37.561C52.2244 36.0275 52.0669 34.4941 51.739 32.987C51.5226 31.9867 50.8732 31.447 49.8697 31.2693C48.6104 31.0521 47.3643 31.1838 46.1115 31.2891C43.8028 31.4799 41.5007 31.6247 39.1854 31.3944C37.8474 31.2627 36.5356 31.5984 35.2107 31.5786C35.0992 31.5786 35.014 31.6247 34.9943 31.7432C34.9681 31.8748 35.0664 31.934 35.1583 31.9538C35.3813 31.9932 35.6108 32.0591 35.8273 32.0327C38.7591 31.651 41.704 31.9932 44.6423 31.8748C45.5934 31.8353 46.5444 31.7366 47.4889 31.6313C48.3546 31.5326 49.2007 31.6115 50.0403 31.7892C50.9257 31.9801 51.2799 32.8488 51.4635 34.119C52.0866 38.3968 51.5816 42.6877 51.7784 46.9721C51.8833 49.2097 51.8899 51.4539 51.8046 53.6981C51.7587 55.0078 51.8702 56.3174 51.9161 57.6337C51.9227 57.7785 51.9095 57.9759 52.0932 58.0022C52.349 58.0351 52.3555 57.8048 52.3555 57.6403C52.3424 56.6531 52.3031 55.6725 52.2965 54.6919C52.29 52.1449 52.2965 49.5914 52.2965 47.0445C52.2834 47.0247 52.2703 47.0247 52.2572 47.0247Z" fill="#1C1B1D"/>
<path d="M8.4706 15.4216C7.68354 15.8691 7.11948 16.5338 6.56198 17.2182C6.43081 17.3828 6.25372 17.5144 6.04384 17.3499C5.82739 17.1853 5.91266 16.9945 6.06351 16.83C6.43081 16.4154 6.73907 15.9218 7.17195 15.6059C9.76268 13.7435 12.4321 13.296 15.2852 15.4348C15.9149 15.902 16.5839 16.4022 16.8856 17.1853C16.9643 17.3828 17.0299 17.6723 16.7478 17.7776C16.4527 17.8895 16.3543 17.6131 16.2887 17.4091C16.1116 16.8365 15.7312 16.5075 15.1671 16.2969C15.1081 16.672 15.0753 17.0011 15.0097 17.3169C14.7802 18.4028 14.2292 19.2781 13.0814 19.4426C11.9533 19.6071 10.7793 19.7453 9.68398 19.1859C8.74607 18.7055 8.30007 17.9224 8.41157 16.9221C8.49683 16.1587 8.94939 15.5862 9.59215 14.9412C9.08057 15.086 8.77886 15.2505 8.4706 15.4216ZM9.13304 16.4154C8.71327 17.3959 9.20518 18.5344 10.3202 18.8108C11.4483 19.0872 12.5043 18.9622 13.5537 18.5607C14.262 18.2909 14.7211 17.2709 14.6031 16.3298C14.5178 15.6322 13.7636 14.9807 12.8322 14.8162C12.5633 14.7701 12.2813 14.7701 12.1567 14.7635C10.5891 14.757 9.57904 15.3756 9.13304 16.4154Z" fill="#1C1B1D"/>
<path d="M18.545 40.8713C17.5874 40.8647 16.9774 40.483 16.7676 39.7656C16.5577 39.0351 16.8659 38.2322 17.6136 37.7518C18.545 37.1595 19.5616 37.2845 20.5126 37.6267C21.3653 37.9295 22.054 38.0874 22.8804 37.4556C24.0741 36.5408 25.399 36.9686 25.9696 38.3178C26.1532 38.7587 26.3303 39.2128 26.4156 39.6801C26.4877 40.0684 26.5336 40.3711 27.0387 40.2855C27.1699 40.2592 27.301 40.3448 27.2879 40.4961C27.2814 40.562 27.1502 40.6738 27.0846 40.6738C26.4549 40.6607 26.4943 41.1148 26.4221 41.5426C26.1926 42.997 25.3793 43.7012 23.9101 43.7341C22.9263 43.7604 21.949 43.7144 20.9718 43.5959C20.2437 43.5038 19.5419 43.3195 18.8861 42.9773C18.7286 42.8917 18.4466 42.7864 18.5844 42.5495C18.6893 42.3586 18.8926 42.5298 19.05 42.5956C20.6832 43.3195 22.4147 43.3919 24.1528 43.2866C25.0907 43.2339 25.74 42.6219 25.9434 41.7071C26.127 40.8976 26.0024 40.7265 25.176 40.687C23.3854 40.5949 21.608 40.812 19.7453 40.8713C19.4042 40.8713 18.9713 40.8713 18.545 40.8713ZM25.5367 40.2855C25.9827 40.3316 26.0089 40.075 25.9565 39.7854C25.8056 38.943 25.5039 38.173 24.7759 37.6662C24.3036 37.3306 23.7724 37.245 23.3198 37.6728C22.3622 38.581 21.3391 38.5481 20.1913 38.0808C19.5354 37.811 18.8008 37.8571 18.1121 38.0479C17.4497 38.2256 17.0561 38.8311 17.1414 39.4826C17.2398 40.2132 17.7317 40.4238 18.3745 40.4303C18.7549 40.4369 19.1287 40.4303 19.5091 40.4303C19.8633 40.4303 20.2109 40.4303 20.5651 40.4303C22.2245 40.4303 23.8773 40.121 25.5367 40.2855Z" fill="#1C1B1D"/>
<path d="M67.9265 29.2292C67.6379 24.4315 67.8543 19.6338 67.9134 14.8361C67.933 13.2369 67.9593 11.6245 68.1757 10.0318C68.3134 9.0249 68.7791 8.31413 69.6646 7.80738C70.5303 7.31379 71.4354 7.10319 72.4061 6.91891C74.9051 6.45165 77.4105 6.64908 79.916 6.64908C80.1783 6.64908 80.5588 6.55695 80.5588 6.98473C80.5522 7.39276 80.2177 7.40592 79.8898 7.38618C77.2793 7.25456 74.6755 7.36644 72.0782 7.63627C71.0353 7.74156 70.1565 8.30755 69.3366 8.88011C68.6545 9.36054 68.6807 10.2753 68.6611 11.0388C68.6414 11.8548 68.7529 12.717 68.6283 13.4738C68.4577 14.5136 68.4315 15.5403 68.4053 16.5736C68.3069 20.4367 68.1954 24.3065 68.3069 28.1696C68.3331 29.0384 68.3725 29.9005 68.3725 30.7692C68.3725 30.9272 68.3856 31.118 68.2085 31.1444C67.9789 31.1838 67.9265 30.9667 67.9265 30.7955C67.9199 30.2756 67.9265 29.7491 67.9265 29.2292Z" fill="#1C1B1D"/>
<path d="M72.373 13.6054C71.9139 14.0463 71.4679 14.2701 71.2121 14.7177C71.1072 14.8954 70.976 15.1784 70.7333 15.0138C70.4513 14.823 70.6874 14.5729 70.8186 14.3952C71.5466 13.4145 72.4976 12.7037 73.6323 12.289C75.9541 11.4531 77.9546 11.9928 79.6468 13.7765C79.7189 13.8555 79.8173 13.9213 79.8698 14.0134C79.9681 14.1911 80.178 14.4017 79.9353 14.5794C79.7386 14.7177 79.5746 14.5268 79.45 14.3754C78.9318 13.7633 78.2891 13.3223 77.5151 12.8024C78.394 14.6782 78.2628 15.8036 77.1216 16.883C76.0788 17.8769 74.6948 18.1072 73.547 17.482C72.3665 16.837 71.986 15.6654 72.373 13.6054ZM75.4425 12.8353C74.0586 12.6708 72.7075 13.737 72.7141 15.1323C72.7206 16.3762 73.5864 17.2911 74.7998 17.3108C76.3411 17.3372 77.6135 16.1656 77.6201 14.7111C77.6332 13.6119 76.7478 12.855 75.4425 12.8353Z" fill="#1C1B1D"/>
<path d="M40.1628 41.3321C39.7037 41.694 39.2577 41.8783 39.0019 42.2468C38.897 42.3916 38.7658 42.6285 38.5231 42.4903C38.2411 42.3324 38.4772 42.1284 38.6084 41.9836C39.3364 41.1741 40.2874 40.5884 41.4221 40.2528C43.7439 39.5617 45.7444 40.0093 47.4366 41.4768C47.5087 41.5427 47.6071 41.5953 47.6596 41.6677C47.7645 41.8125 47.9678 41.9902 47.7251 42.135C47.5284 42.2534 47.3644 42.0889 47.2398 41.9704C46.7216 41.4637 46.0789 41.1017 45.3049 40.6739C46.1838 42.2205 46.0526 43.1419 44.9114 44.0303C43.8685 44.8464 42.4846 45.0372 41.3368 44.5239C40.1562 43.9908 39.7758 43.03 40.1628 41.3321ZM43.2323 40.7003C41.8484 40.5621 40.4973 41.4439 40.5039 42.5891C40.5104 43.6091 41.3762 44.366 42.5896 44.3791C44.1309 44.3989 45.4033 43.438 45.4099 42.2403C45.423 41.3386 44.5375 40.72 43.2323 40.7003Z" fill="#1C1B1D"/>
<path d="M64.0565 34.5602C63.827 34.0534 64.9813 33.9679 65.2437 33.9152C65.7028 33.8231 66.1619 33.7507 66.6276 33.6914C67.4475 33.5861 68.2673 33.5203 69.0937 33.4874C70.7728 33.4282 72.4715 33.5137 74.1243 33.8362C74.0916 33.7178 74.0653 33.5993 74.0325 33.4874C72.7011 35.1 71.081 36.232 68.9757 36.469C67.1392 36.6664 65.106 36.1991 64.0565 34.5602C63.9122 34.3299 63.5515 34.5405 63.6958 34.7709C64.7977 36.5019 66.8965 37.0811 68.851 36.8968C71.1204 36.6796 72.8913 35.5212 74.3211 33.7836C74.4129 33.6717 74.3998 33.4677 74.2293 33.4347C72.1633 33.0332 70.0316 32.974 67.9328 33.1386C66.9096 33.2175 65.8865 33.3558 64.8764 33.5664C64.214 33.7046 63.2826 33.8823 63.6892 34.7774C63.8073 35.0144 64.168 34.8038 64.0565 34.5602Z" fill="#1C1B1D"/>
<path d="M48.7089 64.7552C50.6634 66.4138 52.8279 66.6178 55.0972 65.8675C56.5795 65.3805 57.0583 64.4985 56.7828 63.1625C56.4746 61.6487 55.0775 60.872 53.4837 61.3064C52.8541 61.4776 52.3294 61.754 52.2835 62.5109C52.2769 62.6096 52.2638 62.6952 52.1589 62.7215C52.0474 62.7478 52.0014 62.6623 51.9424 62.5899C50.4601 60.7667 48.3023 61.0958 47.3709 63.2809C47.3053 63.4257 47.266 63.5837 47.1938 63.7285C47.1151 63.8799 47.043 64.1168 46.8134 63.9983C46.6494 63.9128 46.6822 63.7087 46.7544 63.5639C47.3578 62.3134 48.0727 61.2143 49.6206 60.9839C50.4404 60.8655 51.116 61.0761 51.6997 61.6158C51.9686 61.8659 52.0867 61.8461 52.3425 61.5894C53.3001 60.6483 54.4348 60.7338 55.5957 61.1222C56.6845 61.4841 57.0386 62.32 57.1764 63.3797C57.3666 64.8408 56.632 65.7425 55.3989 66.1571C53.2607 66.8745 51.1816 66.756 49.2139 65.5845C48.9319 65.4265 48.6892 65.2225 48.7089 64.7552Z" fill="#1C1B1D"/>
</svg>
