<svg width="272" height="61" viewBox="0 0 272 61" fill="none" xmlns="http://www.w3.org/2000/svg">
<path d="M114.768 21.2776C124.146 22.0876 133.504 23.2476 142.892 23.6476C176.886 25.1076 210.88 26.3276 244.883 27.5876C247.524 27.6876 250.185 27.3076 252.846 27.2976C254.949 27.2876 257.082 27.7276 257.032 30.4276C256.982 32.9676 254.859 32.9376 253.006 33.0376C238.405 33.7876 223.885 35.2476 209.644 38.7776C208.049 39.1776 206.465 39.6476 204.571 40.1776C206.036 42.5276 208.358 42.3076 210.232 42.8176C225.938 47.0876 241.983 49.7676 257.929 52.9076C262.174 53.7476 266.29 55.0376 270.177 56.9476C271.034 57.3676 272.08 57.9876 271.742 59.1776C271.393 60.4176 270.127 60.1276 269.22 60.1176C268.064 60.1076 266.898 59.9276 265.772 59.6976C245.481 55.4276 225.191 51.1476 204.91 46.8576C203.933 46.6476 202.986 46.3376 202 46.1676C199.618 45.7576 197.904 44.5176 197.705 42.0276C197.505 39.6376 198.841 37.9676 200.894 36.8176C205.199 34.4076 210.052 33.9976 214.716 32.9076C216.48 32.4976 218.234 32.0876 220.497 31.5576C218.434 29.4976 216.231 30.1576 214.318 30.0876C185.446 29.0376 156.565 28.1476 127.694 26.9676C120.08 26.6576 112.496 25.5376 104.911 24.6776C102.629 24.4176 100.008 24.1376 100.208 20.7876C100.387 17.6376 102.888 17.2576 105.21 17.0276C115.615 15.9976 126.009 14.9376 136.424 14.1376C156.435 12.5876 176.407 10.5176 196.509 10.3376C210.122 10.2176 223.736 9.9576 237.349 9.6776C241.624 9.5876 245.9 9.2076 250.185 8.4876C237.329 6.39761 224.433 5.07761 211.448 4.59761C160.771 2.73761 110.223 5.10761 59.7258 9.6176C41.528 11.2476 23.2604 11.6876 5.00276 12.2276C2.13257 12.3076 0.448319 11.3276 0.418421 8.4376C0.388523 5.47761 2.39168 5.18761 4.86324 5.27761C32.459 6.28761 59.9351 3.82761 87.4511 2.37761C119.731 0.677607 152.001 -0.482392 184.37 0.197608C198.582 0.497607 212.853 0.177607 227.064 1.02761C238.814 1.73761 250.604 2.30761 262.204 4.62761C265.044 5.19761 268.453 5.48761 268.144 9.2076C267.835 12.8376 264.407 13.6076 261.327 13.6976C247.056 14.0976 232.795 15.0476 218.503 14.6176C183.742 13.5776 149.21 16.7776 114.678 20.0076C114.698 20.4376 114.738 20.8576 114.768 21.2776Z" fill="#A5854F"/>
</svg>
