<svg width="117" height="129" viewBox="0 0 117 129" fill="none" xmlns="http://www.w3.org/2000/svg">
<path d="M62.8546 88.3542C62.8546 76.9569 62.9501 65.5358 62.8069 54.1384C62.7352 48.5945 62.1622 43.0505 60.9685 37.6016C60.1806 33.985 57.8169 32.0339 54.164 31.3914C49.5799 30.6062 45.0436 31.0821 40.4834 31.4628C32.0793 32.1528 23.6991 32.6763 15.2711 31.8435C10.4005 31.3676 5.62542 32.5811 0.802598 32.5097C0.396717 32.5097 0.0863378 32.6763 0.0147117 33.1046C-0.0807896 33.5805 0.27734 33.7946 0.611595 33.866C1.42336 34.0088 2.25899 34.2467 3.04688 34.1515C13.7192 32.7715 24.4392 34.0088 35.1353 33.5805C38.5973 33.4377 42.0592 33.0808 45.4972 32.7001C48.6488 32.3432 51.7287 32.6287 54.7847 33.2711C58.0079 33.9612 59.2972 37.102 59.9657 41.6942C62.2339 57.1603 60.3955 72.6739 61.1117 88.1638C61.4937 96.2538 61.5176 104.368 61.2072 112.481C61.0401 117.216 61.446 121.951 61.6131 126.71C61.637 127.233 61.5892 127.947 62.2577 128.042C63.1889 128.161 63.2127 127.329 63.2127 126.734C63.165 123.165 63.0217 119.619 62.9979 116.05C62.974 106.842 62.9979 97.61 62.9979 88.4018C62.9501 88.3542 62.9024 88.3542 62.8546 88.3542Z" fill="#1C1B1D"/>
<path d="M14.4233 55.9515C11.5722 57.7174 9.52896 60.3404 7.50945 63.0412C7.03427 63.6904 6.39278 64.2098 5.63249 63.5606C4.84845 62.9114 5.15731 62.1582 5.70377 61.509C7.03427 59.8729 8.15094 57.9252 9.71903 56.6787C19.1038 49.3293 28.7737 47.5634 39.1089 56.0035C41.3897 57.8473 43.8131 59.821 44.906 62.9114C45.1912 63.6904 45.4287 64.8331 44.4071 65.2486C43.338 65.6901 42.9816 64.5994 42.744 63.7943C42.1025 61.535 40.7245 60.2365 38.6812 59.4055C38.4674 60.8857 38.3486 62.1842 38.111 63.4307C37.2794 67.7157 35.2837 71.1697 31.1259 71.8189C27.0393 72.4682 22.7865 73.0135 18.8187 70.8061C15.4212 68.9103 13.8056 65.8199 14.2095 61.8726C14.5183 58.8601 16.1577 56.6008 18.4861 54.0557C16.6329 54.6271 15.54 55.2763 14.4233 55.9515ZM16.823 59.8729C15.3024 63.7424 17.0843 68.2351 21.1233 69.3258C25.2099 70.4166 29.0351 69.9231 32.8365 68.339C35.4025 67.2742 37.0656 63.249 36.6379 59.5353C36.3291 56.7825 33.5968 54.2116 30.223 53.5623C29.2489 53.3805 28.2273 53.3805 27.7758 53.3546C22.0974 53.3286 18.4386 55.7697 16.823 59.8729Z" fill="#1C1B1D"/>
<path d="M38.4066 19.2695C41.8248 14.8826 51.8047 6.14557 64.379 6.29222C80.0969 6.47554 84.8465 26.3897 74.0239 34.6251C63.2012 42.8605 52.3338 29.1417 64.147 21.2912C75.9601 13.4407 99.4874 8.73059 101.048 26.5172C102.61 44.3038 88.8983 64.2488 83.187 54.5293C77.6941 45.1814 105.116 40.5212 110.78 51.3466C116.443 62.1721 112.454 70.1183 106.843 76.7544" stroke="#222222" stroke-width="1.4"/>
</svg>
