<svg width="293" height="136" viewBox="0 0 293 136" fill="none" xmlns="http://www.w3.org/2000/svg">
<path d="M253.096 85.1044C253.096 80.1358 253.142 75.1763 253.078 70.2077C253.033 66.7106 253.757 63.2771 253.775 59.7801C253.784 57.5001 256.59 56.4828 259.315 57.4275C260.872 57.9725 261.488 58.9989 261.497 60.5522C261.506 62.4324 260.89 64.4762 261.316 66.1293C261.886 68.3456 261.415 70.4439 261.624 72.5694C262.058 76.9566 262.004 81.3893 261.714 85.7675C261.479 89.3826 262.203 92.9887 261.524 96.5948C261.198 98.3025 260.374 99.2017 258.673 99.7285C256.871 100.292 255.26 100.8 253.866 99.011C253.784 98.911 253.295 98.7294 253.087 99.1745C252.3 100.846 251.802 99.6922 251.503 98.9292C249.919 94.8417 248.489 90.6816 246.841 86.6213C244.949 81.9616 242.885 77.3654 240.885 72.742C240.658 72.2242 240.369 71.7337 239.979 70.9889C239.681 73.4686 240.124 75.6305 240.224 77.8014C240.522 83.9236 239.943 90.0275 239.844 96.1406C239.816 97.93 238.875 98.3751 237.064 98.5568C235.851 98.6749 235.046 98.5386 234.394 97.5576C234.267 97.3669 234.122 97.2306 233.878 97.2851C232.23 97.6485 231.705 96.504 231.733 95.3322C232.031 85.4677 231.217 75.576 232.611 65.7387C232.9 63.6768 232.973 61.5876 233.063 59.4985C233.154 57.5637 235.335 56.3284 237.3 56.4737C241.772 56.7916 243.111 60.207 244.804 63.368C244.922 63.586 244.994 63.9402 244.904 64.131C243.781 66.3473 245.293 68.2548 245.836 70.1532C246.551 72.6966 247.746 75.1309 249.294 77.3654C250.924 79.718 251.349 82.6428 253.096 85.1044Z" fill="#2C292F"/>
<path d="M208.034 74.3407C208.115 78.7643 206.549 82.0434 205.101 85.4133C204.051 87.8476 202.602 89.9368 200.9 91.9169C199.986 92.9706 198.538 93.5065 198.103 95.0689C197.967 95.5503 196.89 95.2324 196.293 95.4504C194.202 96.2043 191.957 96.4586 189.947 97.4669C189.802 97.5395 189.585 97.6485 189.494 97.5849C188.118 96.7674 187.168 97.5032 186.163 98.3661C185.91 98.5841 185.366 98.9202 184.95 98.0209C184.66 97.4033 183.556 96.9128 182.642 96.8946C182.008 96.8764 181.329 96.7674 180.741 96.8583C178.776 97.1671 178.296 96.1134 178.496 94.542C178.903 91.2811 177.427 88.2473 177.518 85.0045C177.781 75.4125 177.735 65.8024 179.51 56.3103C180.035 53.4944 181.239 52.7587 184.19 52.5952C187.485 52.4044 190.734 52.5407 193.975 53.013C197.551 53.5399 200.321 55.3929 202.874 57.9453C206.069 61.1517 206.377 65.2755 207.264 69.254C207.672 71.1343 208.088 73.0327 208.034 74.3407ZM198.755 64.3127C198.103 63.4679 197.361 62.6868 196.809 61.7875C195.795 60.1071 194.256 59.3714 192.409 59.2079C190.436 59.0262 188.444 58.9808 186.462 58.8354C185.638 58.7719 185.647 59.226 185.674 59.8346C185.819 62.7231 185.982 65.6116 186.127 68.491C186.489 75.7395 186.163 82.9699 185.828 90.2002C185.765 91.4991 187.304 91.5354 187.086 92.6527C187.249 92.6527 187.403 92.6709 187.566 92.6618C188.526 92.5891 188.933 92.1622 189.024 91.1903C189.033 91.0722 189.232 90.9632 189.349 90.8542C189.92 90.3364 190.345 89.7551 191.368 90.1275C192.255 90.4545 192.798 89.9913 192.554 89.4372C192.119 88.4289 192.717 87.9748 193.36 87.4479C195.08 86.0582 196.492 84.4686 197.632 82.5066C198.646 80.7626 198.257 78.8097 198.99 77.1202C200.049 74.6859 199.208 72.0335 200.276 69.4811C200.955 67.8552 199.868 65.5026 199.026 63.3771C198.891 63.8585 198.818 64.0947 198.755 64.3127Z" fill="#2C292F"/>
<path d="M275.872 63.9131C275.791 63.5406 275.763 63.4407 275.754 63.3408C275.673 61.9965 275.673 61.9965 277.601 61.3788C278.316 61.1517 279.031 60.9428 279.864 60.6885C279.439 60.2252 278.877 59.9436 278.57 60.1889C277.42 61.0881 275.845 61.0336 274.75 62.0146C273.491 63.1319 273.057 65.0394 274.315 65.9841C275.211 66.6471 275.582 67.7008 276.696 68.2458C278.017 68.8907 279.276 69.1269 280.67 69.2541C282.408 69.3994 283.956 70.1533 285.504 70.9163C290.827 73.5323 292.429 78.4191 292.148 83.6057C291.967 87.0211 291.144 90.6271 288.5 93.6337C286.925 95.4231 284.834 95.8955 283.15 97.2398C282.317 97.9029 280.516 97.5486 279.149 97.7212C276.976 97.9937 274.704 98.0936 272.577 97.6031C268.458 96.6494 265.896 93.9516 264.9 89.846C264.43 87.9203 264.24 85.9311 264.203 83.9509C264.194 83.4876 263.76 82.1978 265.263 82.7428C265.444 82.8064 265.869 81.9435 266.294 81.7073C267.462 81.0533 268.82 81.0533 270.087 80.7445C271.147 80.4901 271.816 81.1805 272.052 81.9344C272.523 83.4513 273.455 84.8047 273.564 86.467C273.627 87.4752 274.197 88.3836 274.704 89.2737C275.465 90.609 276.632 90.8451 278.008 90.718C279.421 90.5817 280.489 89.8006 281.041 88.6106C282.345 85.7857 282.526 82.7156 282.399 79.6908C282.281 76.9295 279.973 75.1855 276.723 75.349C273.763 75.4943 271.463 74.2408 269.273 72.5059C268.395 71.8156 267.073 71.425 266.801 70.3077C266.512 69.1178 266.113 67.9915 265.706 66.8561C265.498 66.2838 265.597 65.6661 264.991 65.1756C264.629 64.8759 264.882 64.1401 265.263 63.7405C266.122 62.8503 266.629 61.7785 266.955 60.6158C267.091 60.1435 267.426 59.9618 267.779 59.7075C272.342 56.3194 277.52 55.0931 283.105 55.4292C286.59 55.6381 291.089 58.3813 291.623 61.2971C291.813 62.3416 292.049 63.3499 291.089 64.0766C290.112 64.8032 289.034 64.8577 287.966 64.1311C287.477 63.8041 286.898 63.6042 286.454 63.2318C284.852 61.8875 283.132 61.5696 281.068 62.0328C279.285 62.3961 277.411 62.3871 275.872 63.9131Z" fill="#2C292F"/>
<path d="M149.7 88.9192C148.867 87.6657 148.813 86.1851 148.614 84.7681C147.518 77.229 147.917 69.6807 148.523 62.1325C148.541 61.9145 148.586 61.6965 148.541 61.4876C147.835 58.4174 149.854 57.0458 152.081 55.8286C153.239 55.1928 155.131 56.5099 155.385 58.372C155.837 61.7601 156.29 65.1663 156.046 68.6089C156.018 69.0449 155.457 69.8806 156.679 69.7171C156.987 69.6716 156.933 70.144 156.897 70.3801C156.598 72.5783 157.105 74.7674 156.924 76.9656C156.634 80.4899 157.385 83.8961 158.218 87.2842C158.562 88.6831 159.205 90.2454 160.708 90.309C162.165 90.3726 162.862 88.8011 163.288 87.5386C164.22 84.7863 164.437 81.8796 165.007 79.0456C166.284 72.7509 165.967 66.3381 166.528 59.9797C166.655 58.5355 167.488 57.3819 167.841 56.1011C167.488 55.5198 167.026 56.9822 166.773 55.9831C166.646 55.4926 166.981 55.2201 167.443 55.0384C171.082 53.6123 174.775 56.1466 175.934 58.4446C176.305 59.1713 176.504 59.9979 176.305 60.7972C175.345 64.6667 175.391 68.6634 174.748 72.5692C173.897 77.7921 173.309 83.0877 171.426 88.0563C170.656 90.0819 168.909 91.4626 166.628 92.0439C165.161 92.4163 163.668 92.925 162.373 93.688C161.486 94.2148 160.834 93.6698 160.074 93.7334C158.282 93.8787 156.489 93.6426 154.67 93.7334C151.764 93.8787 150.551 91.3263 149.691 88.8647C150.171 89.1281 150.288 90.0001 151.139 89.6913C151.067 88.5831 150.632 87.7475 149.6 87.2842C149.274 87.8746 150.225 88.3379 149.7 88.9192Z" fill="#2C292F"/>
<path d="M229.397 96.0496C229.958 96.3766 230.357 96.6037 230.873 96.9034C230.339 97.5574 229.705 97.8662 229.026 97.8299C223.812 97.5756 218.661 98.5475 213.447 98.493C209.047 98.4476 209.192 96.095 209.735 92.9612C209.835 92.389 209.998 91.844 209.953 91.2445C209.491 84.977 209.283 78.7186 209.844 72.442C209.971 71.0523 210.043 69.6625 210.224 68.2909C210.288 67.7732 210.985 67.5915 210.876 66.8103C210.577 64.5486 210.604 62.2505 210.297 59.9978C210.007 57.8451 210.161 57.4999 212.053 56.6098C213.483 55.9376 214.922 55.5379 216.479 55.6106C220.091 55.765 223.649 55.2382 227.225 54.8748C228.555 54.7386 229.035 55.3563 229.334 56.4917C229.931 58.7262 229.035 60.8335 228.836 62.9953C228.8 63.4223 228.329 63.2951 228.03 63.2588C225.242 62.9045 222.472 63.3405 219.693 63.2951C218.589 63.2769 218.263 63.7583 218.308 64.7212C218.426 67.1828 218.552 69.6353 218.661 72.0968C218.688 72.7508 218.978 72.9143 219.593 72.8053C220.435 72.6509 221.295 72.5873 222.146 72.442C224.771 71.9969 226.265 72.9961 226.582 75.603C226.745 76.9746 226.663 78.3734 226.663 79.7541C226.663 80.4808 226.057 80.3899 225.604 80.4444C223.739 80.6715 221.884 80.9077 220.019 81.0712C219.268 81.1348 218.951 81.3437 218.815 82.1884C218.444 84.4956 218.869 86.7573 218.933 89.0372C218.951 89.8184 219.476 89.8638 220.01 89.9274C221.775 90.1182 223.549 89.9819 225.315 89.8729C226.175 89.8184 227.035 89.7185 227.885 89.7639C229.307 89.8366 230.438 90.9811 230.782 92.5707C231.072 93.8968 230.529 95.3774 229.397 96.0496ZM213.691 74.2496C216.208 73.6592 215.574 71.6972 215.819 70.0349C216.289 70.7616 216.905 71.1976 216.353 71.9243C216.09 72.2785 215.819 72.6963 216.199 73.0597C216.38 73.2413 216.832 73.2777 217.104 73.205C217.738 73.0324 217.448 72.4329 217.575 72.006C217.973 70.6617 216.814 69.6716 216.869 68.409C216.923 67.2554 216.923 65.9928 215.013 66.9012C215.185 66.229 215.257 65.7476 215.447 65.3207C215.647 64.8574 215.954 64.2852 215.475 64.0308C214.941 63.7493 214.207 63.6584 213.61 63.7583C213.139 63.8401 213.356 64.4759 213.329 64.8938C213.076 67.973 214.307 70.9796 213.691 74.2496ZM214.225 88.9282C213.51 89.2007 213.827 87.7292 213.076 88.2924C212.569 88.6648 212.84 89.2825 212.994 89.7912C213.266 90.7267 214.443 90.9447 215.429 90.2362C215.719 90.0273 216.117 89.7094 215.945 89.3279C215.692 88.7466 215.529 89.4823 215.266 89.4642C214.913 89.4369 214.922 89.1553 215.031 89.0282C215.547 88.3923 214.307 87.6202 215.23 86.9935C215.411 86.8754 215.248 86.3123 214.886 86.2396C214.316 86.1306 214.343 86.5847 214.343 86.9662C214.334 87.6202 214.452 88.3106 214.225 88.9282ZM212.94 81.8887C213.664 82.8606 213.402 83.6962 212.994 84.5319C212.822 84.8771 212.75 85.2677 213.175 85.5129C213.374 85.6219 213.601 85.631 213.755 85.4312C214.406 84.5864 214.008 83.5691 214.171 82.6335C214.28 82.0431 213.664 81.9795 212.94 81.8887ZM216.344 83.2875C216.344 84.3593 216.326 85.4312 216.362 86.503C216.362 86.6756 216.063 87.1933 216.76 86.9572C217.167 86.8209 217.258 86.6937 217.113 86.3577C216.688 85.3585 216.57 84.3048 216.344 83.2875Z" fill="#2C292F"/>
<path d="M129.803 57.0096C130.282 57.273 130.002 57.9179 130.527 58.3993C130.59 57.6363 130.527 56.9914 131.025 56.3738C131.803 58.2268 132.708 56.8279 133.098 56.292C133.985 55.1021 135.062 55.3019 136.076 55.638C137.144 55.9923 137.66 57.055 137.506 58.1087C136.691 63.7313 137.651 69.3448 137.443 74.9764C137.289 79.1366 136.764 83.3149 137.226 87.5023C137.506 90.0275 137.497 90.0457 140.005 90.0275C141.607 90.0184 143.218 90.2728 144.793 89.7096C146.142 89.2282 146.966 90.9449 147.337 92.7525C147.391 92.9977 147.274 93.2793 147.238 93.5428C147.084 94.6691 148.07 96.1587 146.197 96.731C145.002 97.0943 144.033 97.8392 142.585 97.7847C139.996 97.7029 137.334 97.8119 134.809 98.5749C132.546 99.2562 131.007 97.7574 129.531 96.7037C128.209 95.7591 128.508 93.7517 128.725 92.3165C129.305 88.447 128.87 84.6138 128.834 80.7625C128.807 77.8558 129.015 74.9855 129.359 72.1061C129.549 70.5347 129.214 68.8997 129.25 67.301C129.305 64.031 129.45 60.761 129.558 57.5001C129.558 57.3093 129.495 57.055 129.803 57.0096Z" fill="#2C292F"/>
<path d="M152.823 10.0035C152.859 9.43124 152.886 8.99524 152.914 8.56832C152.452 8.47749 152.47 9.24957 152.045 9.02249C151.637 8.80449 151.827 8.36849 151.918 8.05057C152.217 6.90607 151.999 5.86149 151.501 4.80783C150.406 6.01591 150.813 7.59641 150.442 8.94074C150.207 8.91349 150.035 8.90441 150.035 8.89532C150.071 7.13316 150.053 5.37099 150.071 3.61791C150.08 2.63691 151.375 2.60966 152.099 2.28266C154.462 1.21991 154.959 1.56508 155.186 4.11749C155.285 5.18933 155.412 6.25208 155.484 7.32391C155.53 7.98699 156.39 9.14966 154.543 8.70457C153.964 8.55924 153.783 9.83999 152.823 10.0035Z" fill="#2C292F"/>
<path d="M193.722 20.767C193.459 23.9916 193.613 27.189 193.695 30.3954C193.83 35.6001 193.631 40.8049 193.532 46.0096C193.513 46.8544 193.034 47.2177 192.092 47.3358C190.39 47.5538 188.716 47.0088 187.041 47.2813C186.163 47.4266 186.172 46.8725 186.091 46.3639C185.71 43.8841 185.611 41.3771 185.575 38.8701C185.511 35.1369 184.724 31.4218 185.375 27.6522C185.575 26.5168 186.353 25.6448 186.353 24.4912C186.344 22.5655 186.217 20.658 185.864 18.7596C185.765 18.2419 185.656 17.6424 185.81 17.17C187.15 13.237 185.611 9.34022 185.665 5.42531C185.683 3.85389 185.864 2.91831 187.584 2.70031C189.313 2.48231 190.97 1.83739 192.798 2.21889C194.301 2.52773 195.342 3.34523 196.093 4.57147C197.469 6.82414 198.266 9.31297 199.126 11.8018C200.638 16.1891 202.693 20.3674 204.91 24.7183C206.25 21.1667 207.436 17.8967 208.713 14.6631C210.17 10.9752 211.437 7.21472 213.293 3.69948C213.89 2.56406 214.66 1.65573 216.108 1.68298C217.683 1.71023 219.195 0.429477 220.816 1.46498C220.834 1.47406 220.879 1.41048 220.915 1.40139C223.468 0.611143 223.649 0.611143 223.649 3.24531C223.649 4.98931 223.912 6.69697 224.02 8.41372C224.382 13.9727 224.328 19.5499 224.636 25.0998C224.934 30.468 224.627 35.8181 224.717 41.1773C224.717 41.2318 224.726 41.2863 224.717 41.3408C224.518 42.6851 224.925 44.3565 223.423 45.1013C221.639 45.9824 219.766 45.7099 218.037 44.7107C217.665 44.5018 217.231 44.3474 216.95 44.0567C216.081 43.1756 215.022 42.7033 215.203 40.8503C215.366 39.1517 215.212 37.2351 215.339 35.4911C215.583 32.1303 215.502 28.7422 215.973 25.3905C216.262 23.3285 215.782 21.2121 216.407 19.1684C216.561 18.6779 216.108 18.4145 215.638 18.26C214.153 21.3665 213.664 24.8182 212.297 27.952C210.795 31.4036 209.527 34.9098 208.885 38.6249C208.794 39.1699 208.559 39.7512 207.889 39.6876C207.146 39.624 207.653 39.0609 207.626 38.7157C206.685 38.961 206.449 37.2805 205.589 37.8255C204.53 38.5068 203.335 38.2797 202.249 38.6794C200.991 39.1517 200.158 38.4341 200.294 37.117C200.439 35.6728 199.452 34.6191 198.891 33.4383C196.935 29.3145 195.261 25.0907 193.722 20.767Z" fill="#2C292F"/>
<path d="M182.442 13.4824C183.158 18.6781 183.284 24.1462 183.474 29.6144C183.592 32.8571 182.714 35.8546 181.845 38.8703C181.456 40.2237 181.22 41.6952 180.053 42.7489C179.482 43.2575 178.912 43.8298 178.17 43.9115C173.806 44.4293 169.452 45.0742 165.044 44.7018C163.469 44.5655 162.455 43.53 161.477 42.4582C161.405 42.3855 161.305 42.2493 161.323 42.1857C162.129 40.1783 160.092 39.2518 159.639 37.7167C159.513 37.2807 159.087 36.6903 159.621 36.4087C160.309 36.0545 160.291 36.881 160.499 37.2353C160.726 37.6168 160.871 38.1164 161.414 37.7167C161.694 37.5078 162.029 36.9719 161.622 36.772C159.658 35.8274 160.862 34.4195 161.097 33.2386C161.359 31.8761 161.368 30.6953 160.119 29.8233C160.074 29.7961 159.992 29.7688 159.983 29.7416C159.857 28.37 158.544 27.607 158.408 26.1082C158.001 21.5938 157.883 17.143 158.734 12.6558C159.54 8.41389 161.694 5.00765 165.098 2.60056C167.434 0.938314 170.412 0.429648 173.3 0.0663145C175.762 -0.242519 177.889 0.538648 179.727 2.17365C180.46 2.82765 180.632 3.70873 180.858 4.57165C181.601 7.42381 182.768 10.2033 182.442 13.4824ZM175.481 13.8094C175.481 12.6831 175.526 11.5567 175.472 10.4304C175.4 8.87714 175.237 7.33298 174.223 6.03406C173.39 4.95315 170.792 4.22648 170.059 4.99856C168.701 6.41556 167.352 7.85073 166.673 9.80364C165.659 12.7012 165.686 15.6533 165.632 18.669C165.56 22.9472 165.614 27.2073 166.32 31.4129C166.709 33.7382 167.515 35.9818 169.814 37.2716C171.561 38.2526 172.729 37.9075 173.453 36.0908C174.087 34.5012 174.811 32.8935 174.793 31.1585C174.73 25.3543 175.282 19.5864 175.481 13.8094Z" fill="#2C292F"/>
<path d="M251.078 13.5552C252.11 19.205 251.956 25.0092 252.191 30.7953C252.309 33.5385 251.386 36.1817 250.58 38.7705C250.164 40.1148 249.992 41.5954 248.824 42.6672C248.253 43.185 247.701 43.7936 246.977 43.8844C242.514 44.4385 238.051 45.1379 233.534 44.6747C232.068 44.5202 231.063 43.5029 230.14 42.4311C230.076 42.3493 229.986 42.2131 230.013 42.1495C230.782 40.2147 228.863 39.2973 228.374 37.844C228.211 37.3626 227.786 36.6904 228.392 36.4088C229.026 36.1091 228.999 36.9538 229.207 37.3081C229.415 37.6532 229.587 38.0438 230.031 37.7986C230.429 37.5715 230.701 36.9629 230.266 36.7449C228.438 35.8002 229.569 34.4287 229.796 33.3205C230.076 31.9307 229.841 30.9497 228.917 29.8234C228.085 28.8242 227.415 27.489 227.207 26.2173C226.591 22.4477 226.573 18.6509 227.044 14.8359C227.623 10.0672 229.515 6.02508 233.272 2.91858C233.951 2.35542 234.657 1.90125 235.508 1.70142C237.789 1.1655 239.925 0.0209997 242.342 0.030083C246.325 0.0482497 249.385 1.63783 249.856 5.84342C250.046 7.56925 250.978 9.24058 251.078 11.0663C251.132 11.8657 251.241 12.665 251.078 13.5552ZM244.18 13.8277C244.18 12.7013 244.234 11.575 244.171 10.4577C244.08 8.85 243.899 7.25133 242.822 5.92517C241.935 4.83517 239.436 4.3265 238.622 5.08042C235.544 7.91441 234.186 11.5659 234.286 15.5898C234.403 20.2223 233.923 24.8548 234.738 29.4964C235.091 31.5311 235.499 33.4658 236.431 35.2916C237.056 36.5178 238.151 37.2536 239.382 37.626C240.179 37.8622 241.274 38.1256 241.754 36.9811C242.351 35.555 243.121 34.1471 243.247 32.5847C243.763 26.3445 243.655 20.077 244.18 13.8277Z" fill="#2C292F"/>
<path d="M155.837 9.14041C155.837 12.6012 155.711 16.0619 155.865 19.5136C156.163 26.3352 155.511 33.1386 155.72 39.9511C155.738 40.5324 155.575 41.1137 155.502 41.6951C155.457 42.0402 155.231 42.5035 154.986 42.4126C153.728 41.9403 152.624 43.2029 151.365 42.6488C151.012 42.4944 150.542 42.4217 150.125 42.667C148.469 43.6298 148.034 42.3036 147.428 41.2409C146.531 39.6695 147.066 37.9709 147.066 36.3541C147.057 32.3937 146.45 28.4516 146.848 24.3459C144.857 25.0635 142.92 24.5912 141.136 25.2997C140.204 25.6721 139.67 26.0717 139.579 27.2072C139.271 31.4309 139.787 35.6728 139.335 39.8966C139.326 39.9511 139.344 40.0056 139.335 40.0601C139.217 40.5687 139.67 41.4226 138.755 41.468C137.959 41.5043 138.701 40.5142 138.077 40.2236C137.506 40.0691 138.303 42.6034 136.827 40.9684C136.664 40.7867 136.456 41.2318 136.456 41.4952C136.429 43.0031 135.361 42.6125 134.564 42.4308C134.32 42.3763 134.093 42.3763 133.858 42.3672C133.27 42.3581 132.727 43.3391 132.183 42.6579C131.631 41.9766 131.17 41.1137 130.989 40.269C130.717 39.0246 130.635 37.7075 130.645 36.4267C130.672 32.6208 130.436 28.8149 130.427 25.0181C130.418 20.7398 130.853 16.4616 130.998 12.1833C131.061 10.2577 130.934 8.32291 130.78 6.39724C130.545 3.45425 131.676 1.21975 135.026 0.838246C137.959 0.502163 138.502 0.947246 139.009 4.03558C139.615 7.72341 139.145 11.4385 139.317 15.1263C139.371 16.2527 139.453 17.379 139.462 18.5053C139.471 19.5408 139.887 20.0132 140.937 19.6952C142.811 19.123 144.694 18.8051 146.658 19.1502C147.527 19.3047 147.582 18.5871 147.645 18.0057C147.763 16.8794 147.935 15.7712 148.315 14.6994C148.568 14 149.048 13.6639 149.618 14.1544C150.732 15.1082 151.284 13.9364 152.035 13.6094C152.307 13.4913 152.307 13.1825 152.108 12.8101C151.347 11.4203 151.637 10.7663 153.176 10.3576C154.063 10.1123 155.077 10.1396 155.837 9.14041ZM154.452 12.9645C153.918 13.3823 153.357 12.3559 153.085 13.0281C152.841 13.6367 152.723 14.3452 153.348 14.9537C154.045 14.4632 153.457 13.3369 154.452 12.9645Z" fill="#2C292F"/>
<path d="M150.017 10.2395C150.153 10.5211 150.225 10.6028 150.243 10.7028C150.433 11.5475 150.759 12.4195 149.953 13.1371C149.881 13.2007 149.582 13.1553 149.555 13.0917C149.139 12.1379 149.356 11.2659 150.017 10.2395Z" fill="#2C292F"/>
<g opacity="0.55">
<path opacity="0.55" d="M0.543324 38.6434C1.18605 45.901 2.24518 53.4583 6.20108 59.7349C9.86731 65.5482 15.7061 69.6357 22.7127 69.7084C29.8007 69.7901 37.1513 66.7018 43.2436 63.2774C49.0552 60.0165 54.3961 55.4839 57.2386 49.3163C60.9139 41.3411 61.1583 31.2677 59.9905 22.693C59.5198 19.2414 59.1034 14.5544 56.1885 12.1927C55.6182 11.7385 54.9936 11.357 54.3328 11.021C53.5724 10.476 52.7395 10.0127 51.8796 9.59488C49.3268 8.35955 46.602 7.42396 43.8682 6.5883C43.841 6.57921 43.8139 6.56105 43.7777 6.55196C43.7414 6.54288 43.7052 6.5338 43.6781 6.52471C42.6461 6.2068 41.6232 5.90705 40.6003 5.6073C33.1049 3.40005 24.8309 0.983882 16.9463 2.03755C10.0303 2.96405 4.36344 7.03338 2.10034 13.746C-0.588227 21.7302 -0.189921 30.3775 0.543324 38.6434Z" fill="#CD856B"/>
</g>
<path opacity="0.6" d="M39.9214 46.9455C39.0162 50.5789 38.9437 54.3666 38.7898 58.0908C38.6269 62.0511 38.464 66.0115 38.301 69.9718C38.1381 74.0048 37.9661 78.0469 37.8031 82.0799C37.6673 85.3226 37.2509 88.8015 38.4278 91.908C40.8266 98.2391 47.9328 100.465 54.0884 100.683C57.7275 100.81 61.4028 100.537 65.0147 100.11C68.6537 99.6834 72.4286 99.1747 75.9319 98.0393C82.6578 95.8684 85.7085 89.401 87.3831 82.9973C89.2117 75.9668 90.5153 68.7274 90.977 61.4698C91.2033 57.8546 91.2123 54.2213 90.9407 50.6152C90.805 48.844 90.6058 47.0818 90.3342 45.3287C90.1079 43.8936 89.8816 42.4221 89.2117 41.1141C89.0669 40.8234 88.8949 40.56 88.7048 40.3147C86.4689 35.2371 78.7743 33.9746 73.9222 33.1934C66.9881 32.0761 59.2664 31.7673 52.5133 34.0018C46.3033 36.0546 41.5327 40.4964 39.9214 46.9455Z" fill="#CBB981"/>
<g opacity="0.55">
<path opacity="0.55" d="M118.026 54.3757C119.972 52.5954 120.171 49.18 120.316 46.7457C120.515 43.4485 120.216 40.1421 119.718 36.8903C118.641 29.7962 117.039 22.7566 115.473 15.7625C114.667 12.1746 113.916 8.5503 112.965 4.99872C112.295 2.50081 111.028 1.39264 108.439 1.91039C100.699 3.46364 93.2764 6.38847 86.0616 9.5313C84.2149 10.3397 82.3682 11.1572 80.5306 11.9838C79.9603 12.2381 79.3628 12.4834 78.7744 12.765C78.7201 12.765 78.6567 12.7741 78.5934 12.8013C75.9501 13.6733 74.9905 16.6072 74.0038 18.9598C72.6641 22.1571 71.5325 25.4362 70.5367 28.7516C69.5772 31.949 68.7353 35.1735 67.9297 38.4163C67.124 41.6863 65.8385 45.256 65.9019 48.6532C66.0105 54.3666 71.795 55.8563 76.4389 56.3559C83.5813 57.128 90.787 57.2551 97.9655 56.9826C101.632 56.8464 105.298 56.592 108.955 56.265C110.675 56.1106 112.395 55.9562 114.115 55.7564C115.518 55.602 116.948 55.3658 118.026 54.3757Z" fill="#9EA3C0"/>
</g>
<path d="M29.638 33.9201C29.638 29.551 29.6742 25.1819 29.6199 20.8219C29.5927 18.6964 29.3754 16.5709 28.9228 14.4908C28.6241 13.1102 27.7279 12.3562 26.3338 12.111C24.5958 11.8112 22.8668 11.9929 21.1287 12.1382C17.9332 12.4017 14.7467 12.6015 11.5422 12.2836C9.69549 12.0928 7.87596 12.5652 6.03832 12.5379C5.88443 12.5379 5.76675 12.6015 5.73959 12.765C5.70338 12.9467 5.83917 13.0375 5.9659 13.0557C6.27368 13.1102 6.59052 13.201 6.88925 13.1647C10.9538 12.6287 15.0274 13.1102 19.0919 12.9467C20.4045 12.8922 21.7261 12.7559 23.0387 12.6106C24.2337 12.4743 25.4105 12.5833 26.5692 12.8286C27.8003 13.092 28.2891 14.291 28.5426 16.0532C29.4026 21.9664 28.7056 27.916 28.9771 33.8383C29.122 36.9357 29.131 40.0422 29.0133 43.1487C28.95 44.9563 29.1039 46.7821 29.1672 48.5896C29.1763 48.7986 29.1582 49.062 29.4116 49.0983C29.7647 49.1437 29.7737 48.8258 29.7737 48.5987C29.7556 47.2362 29.7013 45.8737 29.6923 44.5112C29.6832 40.9869 29.6923 37.4535 29.6923 33.9291C29.6742 33.9201 29.6561 33.9201 29.638 33.9201Z" fill="#655E5C"/>
<path d="M71.5687 65.7482C71.5687 61.3791 71.605 57.01 71.5506 52.65C71.5235 50.5245 71.3062 48.399 70.8536 46.319C70.5549 44.9383 69.6587 44.1844 68.2646 43.9391C66.5266 43.6394 64.7975 43.821 63.0595 43.9664C59.864 44.2298 56.6775 44.4296 53.473 44.1117C51.6263 43.921 49.8067 44.3933 47.9691 44.366C47.8152 44.366 47.6975 44.4296 47.6704 44.5931C47.6342 44.7748 47.77 44.8656 47.8967 44.8838C48.2045 44.9383 48.5213 45.0291 48.82 44.9928C52.8846 44.4569 56.9582 44.9383 61.0227 44.7748C62.3353 44.7203 63.6569 44.584 64.9695 44.4387C66.1644 44.3024 67.3413 44.4115 68.5 44.6567C69.7311 44.9201 70.2199 46.1191 70.4734 47.8813C71.3334 53.7945 70.6363 59.7441 70.9079 65.6664C71.0528 68.7639 71.0618 71.8704 70.9441 74.9769C70.8808 76.7844 71.0347 78.6102 71.098 80.4178C71.1071 80.6267 71.089 80.8901 71.3424 80.9264C71.6955 80.9718 71.7045 80.6539 71.7045 80.4269C71.6864 79.0644 71.6321 77.7019 71.6231 76.3394C71.614 72.815 71.6231 69.2816 71.6231 65.7573C71.614 65.7482 71.5868 65.7482 71.5687 65.7482Z" fill="#655E5C"/>
<path d="M10.9809 22.0118C9.89458 22.6295 9.10702 23.5469 8.33757 24.5006C8.15652 24.7277 7.91211 24.9094 7.62243 24.6823C7.3237 24.4552 7.44138 24.1918 7.64959 23.9647C8.15652 23.3925 8.58198 22.7021 9.18849 22.2661C12.7732 19.6865 16.4666 19.0688 20.4225 22.03C21.2916 22.684 22.2149 23.3652 22.6404 24.4552C22.749 24.7277 22.8395 25.1274 22.4503 25.2727C22.0429 25.4271 21.9071 25.0456 21.8166 24.764C21.5722 23.9738 21.0471 23.5105 20.2686 23.2199C20.1872 23.7376 20.1419 24.1918 20.0514 24.6278C19.7345 26.1356 18.9651 27.3346 17.3809 27.5708C15.8149 27.7979 14.1945 27.9977 12.6827 27.2165C11.3792 26.5535 10.7636 25.4725 10.9175 24.0828C11.0352 23.02 11.6689 22.2389 12.5469 21.3487C11.8137 21.5395 11.4063 21.7756 10.9809 22.0118ZM11.8861 23.3834C11.3068 24.7368 11.9857 26.3173 13.5246 26.6988C15.0816 27.0803 16.5481 26.9077 18.0055 26.3536C18.9832 25.9812 19.6169 24.5733 19.463 23.2744C19.3453 22.3115 18.3043 21.4032 17.0098 21.1852C16.6386 21.1216 16.2494 21.1216 16.0774 21.1125C13.9048 21.0944 12.5017 21.9482 11.8861 23.3834Z" fill="#655E5C"/>
<path d="M24.9217 57.2279C23.591 57.2189 22.7582 56.692 22.4595 55.7019C22.1607 54.6937 22.5952 53.5764 23.6272 52.9134C24.9127 52.0959 26.3248 52.2684 27.6374 52.7317C28.8142 53.1495 29.7738 53.3675 30.9144 52.4955C32.5619 51.2329 34.3995 51.8234 35.1871 53.6945C35.4405 54.3031 35.685 54.9299 35.8117 55.5748C35.9113 56.1107 35.9746 56.5376 36.6717 56.4104C36.8527 56.3741 37.0338 56.4922 37.0157 56.7011C37.0066 56.7919 36.8256 56.9464 36.726 56.9464C35.857 56.9282 35.9113 57.5549 35.8117 58.1544C35.4949 60.1709 34.3724 61.1429 32.3356 61.1883C30.9777 61.2246 29.6199 61.161 28.2711 60.9975C27.2663 60.8704 26.2886 60.616 25.3834 60.1437C25.1661 60.0256 24.7769 59.8803 24.967 59.5442C25.1209 59.2808 25.3924 59.5169 25.6097 59.6078C27.8728 60.616 30.2626 60.7069 32.6705 60.5615C33.9741 60.4889 34.8612 59.6441 35.1418 58.3724C35.3953 57.2552 35.2233 57.019 34.0736 56.9554C31.6023 56.8283 29.1401 57.1371 26.5602 57.2098C26.0985 57.2279 25.5101 57.237 24.9217 57.2279ZM34.5896 56.4195C35.2052 56.4831 35.2414 56.1289 35.178 55.7292C34.9698 54.5665 34.5444 53.5038 33.5486 52.7953C32.8968 52.332 32.1545 52.2139 31.5299 52.8044C30.1992 54.0579 28.7871 54.0124 27.1938 53.3675C26.2886 52.9951 25.2747 53.0587 24.3152 53.3221C23.4009 53.5764 22.8578 54.403 22.9754 55.3023C23.1112 56.3105 23.7902 56.6012 24.6863 56.6103C25.2114 56.6194 25.7274 56.6103 26.2524 56.6103C26.7412 56.6103 27.2301 56.6103 27.7098 56.6103C30.0091 56.6194 32.2994 56.1924 34.5896 56.4195Z" fill="#655E5C"/>
<path d="M93.2582 41.1233C92.8599 34.4834 93.1586 27.8435 93.2401 21.2035C93.2672 18.9872 93.3035 16.7618 93.6112 14.5545C93.8013 13.1648 94.4531 12.1747 95.6752 11.4753C96.8701 10.794 98.1284 10.4943 99.4681 10.249C102.926 9.60412 106.393 9.87662 109.86 9.87662C110.222 9.87662 110.756 9.74946 110.747 10.3399C110.738 10.903 110.277 10.9212 109.815 10.903C106.203 10.7214 102.6 10.8758 99.0065 11.2482C97.5671 11.3935 96.3451 12.1747 95.2135 12.974C94.2721 13.6371 94.3083 14.8997 94.2811 15.9625C94.254 17.0888 94.4078 18.2878 94.2359 19.3324C94.0005 20.7675 93.9643 22.1936 93.9281 23.6197C93.7923 28.9698 93.6384 34.3199 93.7923 39.6699C93.8285 40.8689 93.8828 42.0679 93.8828 43.2669C93.8828 43.4849 93.9009 43.7484 93.6565 43.7938C93.3397 43.8483 93.2672 43.5485 93.2672 43.3124C93.2491 42.5675 93.2582 41.8409 93.2582 41.1233Z" fill="#655E5C"/>
<path d="M99.414 19.4958C98.7803 20.1044 98.1648 20.4223 97.8027 21.0309C97.6578 21.2762 97.4768 21.6667 97.1328 21.4397C96.7435 21.1762 97.0694 20.822 97.2505 20.5858C98.2553 19.2233 99.5679 18.2423 101.152 17.6701C104.366 16.5074 107.136 17.2613 109.471 19.732C109.571 19.841 109.707 19.9318 109.779 20.059C109.924 20.3042 110.204 20.604 109.87 20.8402C109.598 21.04 109.372 20.7675 109.2 20.5586C108.484 19.7138 107.588 19.1052 106.52 18.3786C107.733 20.9764 107.552 22.5297 105.977 24.0284C104.529 25.4 102.619 25.7179 101.034 24.855C99.4049 23.9648 98.8799 22.348 99.414 19.4958ZM103.66 18.4331C101.74 18.206 99.8757 19.6775 99.8847 21.6122C99.8938 23.329 101.089 24.6007 102.772 24.6279C104.909 24.6642 106.665 23.0383 106.683 21.0309C106.692 19.514 105.47 18.4603 103.66 18.4331Z" fill="#655E5C"/>
<path d="M54.8309 57.8727C54.1972 58.3723 53.5816 58.6357 53.2195 59.1353C53.0747 59.3352 52.8937 59.6622 52.5497 59.4714C52.1604 59.2534 52.4863 58.9627 52.6673 58.772C53.6722 57.6547 54.9848 56.8463 56.5689 56.374C59.7825 55.4202 62.5526 56.0379 64.8881 58.0726C64.9876 58.1634 65.1234 58.2361 65.1959 58.336C65.3407 58.5358 65.6213 58.7811 65.2864 58.9809C65.0148 59.1444 64.7885 58.9173 64.6165 58.7447C63.9014 58.0453 63.0052 57.5457 61.937 56.9553C63.15 59.099 62.969 60.3707 61.3938 61.606C59.9455 62.7323 58.0354 62.9957 56.4512 62.2872C54.8218 61.5515 54.2968 60.2162 54.8309 57.8727ZM59.0855 57.0007C57.1664 56.81 55.3016 58.0272 55.3106 59.6167C55.3197 61.0337 56.5146 62.0783 58.1984 62.0965C60.3347 62.1237 62.0909 60.7885 62.109 59.1353C62.109 57.8818 60.8869 57.0189 59.0855 57.0007Z" fill="#655E5C"/>
<path d="M66.8071 89.3738C69.5047 91.6628 72.492 91.9444 75.6241 90.9089C77.67 90.2367 78.3308 89.0195 77.9506 87.1756C77.5251 85.0865 75.597 84.0146 73.3973 84.6141C72.5282 84.8503 71.804 85.2318 71.7407 86.2764C71.7316 86.4126 71.7135 86.5307 71.5687 86.567C71.4148 86.6034 71.3514 86.4853 71.2699 86.3854C69.2241 83.8693 66.2459 84.3235 64.9604 87.3391C64.8699 87.539 64.8156 87.757 64.716 87.9568C64.6074 88.1657 64.5078 88.4927 64.191 88.3292C63.9647 88.2111 64.0099 87.9295 64.1095 87.7297C64.9423 86.0039 65.929 84.487 68.0654 84.169C69.1969 84.0055 70.1293 84.2962 70.935 85.041C71.3062 85.3862 71.4691 85.359 71.8221 85.0047C73.1438 83.7058 74.7099 83.8239 76.3121 84.3598C77.8148 84.8594 78.3037 86.013 78.4938 87.4754C78.7563 89.4919 77.7424 90.7363 76.0406 91.3085C73.0895 92.2986 70.2199 92.1351 67.5041 90.5183C67.1149 90.3003 66.78 90.0187 66.8071 89.3738Z" fill="#655E5C"/>
<path d="M87.8993 48.4989C87.5824 47.7904 89.1756 47.6814 89.5377 47.6087C90.1714 47.4816 90.8141 47.3817 91.4478 47.2999C92.5793 47.1546 93.72 47.0637 94.8606 47.0183C97.187 46.9366 99.5316 47.0547 101.822 47.4997C101.777 47.3362 101.74 47.1727 101.695 47.0092C99.8575 49.2437 97.6125 50.8061 94.6976 51.1331C92.172 51.4147 89.3476 50.7697 87.8993 48.4989C87.7001 48.181 87.1932 48.4717 87.4014 48.7896C88.9312 51.1876 91.8371 51.9869 94.5347 51.7326C97.6758 51.4328 100.129 49.8251 102.112 47.418C102.238 47.2636 102.22 46.9729 101.985 46.9275C99.1242 46.3734 96.1732 46.2917 93.2764 46.5187C91.8552 46.6277 90.443 46.8185 89.0489 47.1092C88.1346 47.2999 86.8492 47.5452 87.4014 48.7805C87.5553 49.1257 88.0531 48.835 87.8993 48.4989Z" fill="#655E5C"/>
<path d="M139.606 109.376V116.67H129.585V109.376H131.342V115.135H133.704V109.376H135.46V115.135H137.841V109.376H139.606Z" fill="#2C292F"/>
<path d="M148.939 116.587V116.669H146.903L144.277 113.563V116.669H142.503V109.375H144.277V112.273L146.676 109.375H148.695V109.439L145.807 112.909L148.939 116.587Z" fill="#2C292F"/>
<path d="M149.944 113.017C149.944 110.765 151.556 109.175 153.837 109.175C156.118 109.175 157.747 110.765 157.747 113.017C157.747 115.279 156.118 116.878 153.837 116.878C151.565 116.878 149.944 115.279 149.944 113.017ZM155.946 113.017C155.946 111.673 155.095 110.747 153.846 110.747C152.606 110.747 151.746 111.682 151.746 113.017C151.746 114.362 152.606 115.288 153.846 115.288C155.095 115.297 155.946 114.362 155.946 113.017Z" fill="#2C292F"/>
<path d="M159.069 115.234C160.309 115.107 160.662 114.416 160.798 112.972L161.106 109.375H166.383V116.669H164.609V110.91H162.672L162.509 113.081C162.301 115.597 161.432 116.633 159.268 116.778L159.069 115.234Z" fill="#2C292F"/>
<path d="M175.191 111.955V116.669H174.006L173.68 115.57C173.146 116.342 172.277 116.814 171.091 116.814C169.751 116.814 168.81 116.06 168.81 114.77C168.81 113.099 170.276 112.191 172.494 112.191C172.865 112.191 173.146 112.209 173.408 112.227V111.9C173.408 111.146 172.856 110.774 171.924 110.774C171.208 110.774 170.412 111.001 169.66 111.364L169.154 110.011C170.231 109.52 171.227 109.257 172.204 109.257C174.051 109.239 175.191 110.192 175.191 111.955ZM173.444 113.381C173.155 113.344 172.919 113.335 172.593 113.335C171.308 113.335 170.557 113.789 170.557 114.598C170.557 115.17 170.946 115.479 171.598 115.479C172.648 115.479 173.417 114.707 173.444 113.381Z" fill="#2C292F"/>
<path d="M188.924 109.375V116.669H187.168V113.335C187.168 113.054 187.168 112.781 187.204 112.481C186.996 112.745 186.779 112.972 186.552 113.199L183.158 116.678H182.47V109.366H184.226V112.636C184.226 112.945 184.226 113.244 184.19 113.535C184.434 113.244 184.678 112.981 184.923 112.717L188.236 109.366H188.924V109.375Z" fill="#2C292F"/>
<path d="M191.821 109.375H196.763V110.91H193.613V116.669H191.821V109.375Z" fill="#2C292F"/>
<path d="M206.621 112.99C206.621 115.261 205.173 116.851 203.145 116.851C202.131 116.851 201.289 116.46 200.701 115.833C200.737 116.342 200.737 116.932 200.737 117.568V120.266H198.963V109.375H200.167L200.511 110.483C201.117 109.684 202.023 109.193 203.154 109.193C205.155 109.193 206.621 110.801 206.621 112.99ZM204.811 113.036C204.811 111.682 203.996 110.765 202.774 110.765C201.516 110.765 200.674 111.664 200.674 113.008C200.674 114.38 201.534 115.297 202.774 115.297C203.996 115.297 204.811 114.362 204.811 113.036Z" fill="#2C292F"/>
<path d="M215.321 114.18C215.321 115.752 214.262 116.669 212.596 116.669H209.093V109.375H210.885V111.7H212.596C214.262 111.7 215.321 112.645 215.321 114.18ZM213.546 114.18C213.546 113.444 213.076 113.072 212.243 113.072H210.894V115.297H212.243C213.076 115.297 213.546 114.907 213.546 114.18ZM218.326 109.375V116.669H216.552V109.375H218.326Z" fill="#2C292F"/>
<path d="M135.804 130.085C135.804 131.375 134.845 132.111 133.424 132.111H129.576V124.817H133.143C134.528 124.817 135.469 125.571 135.469 126.76C135.469 127.56 135.125 128.05 134.591 128.359C135.334 128.613 135.804 129.195 135.804 130.085ZM131.305 126.106V127.805H132.79C133.487 127.805 133.786 127.396 133.786 126.924C133.786 126.479 133.496 126.106 132.79 126.106H131.305ZM134.03 129.94C134.03 129.413 133.704 129.04 132.989 129.04H131.314V130.821H132.989C133.704 130.821 134.03 130.457 134.03 129.94Z" fill="#2C292F"/>
<path d="M144.033 126.352H141.951V124.817H147.898V126.352H145.825V132.111H144.033V126.352Z" fill="#2C292F"/>
<path d="M156.372 128.205C156.372 128.468 156.335 128.759 156.308 129.058H151.094C151.32 130.239 152.235 130.857 153.412 130.857C154.244 130.857 154.833 130.612 155.331 130.167L156.082 131.311C155.249 131.983 154.371 132.328 153.249 132.328C150.922 132.328 149.32 130.739 149.32 128.45C149.32 126.306 150.868 124.626 153.068 124.626C155.113 124.617 156.372 126.006 156.372 128.205ZM151.103 127.841H154.688C154.643 126.679 153.955 126.079 153.022 126.079C152.072 126.079 151.302 126.715 151.103 127.841Z" fill="#2C292F"/>
<path d="M164.564 127.396V132.111H163.378L163.052 131.012C162.518 131.784 161.649 132.256 160.463 132.256C159.123 132.256 158.182 131.502 158.182 130.212C158.182 128.541 159.648 127.633 161.866 127.633C162.237 127.633 162.518 127.651 162.781 127.669V127.342C162.781 126.588 162.228 126.216 161.296 126.216C160.581 126.216 159.784 126.443 159.033 126.806L158.526 125.453C159.603 124.962 160.599 124.699 161.577 124.699C163.423 124.68 164.564 125.634 164.564 127.396ZM162.826 128.822C162.536 128.786 162.301 128.777 161.975 128.777C160.689 128.777 159.938 129.231 159.938 130.04C159.938 130.612 160.327 130.921 160.979 130.921C162.02 130.921 162.79 130.149 162.826 128.822Z" fill="#2C292F"/>
<path d="M168.493 126.352H166.411V124.817H172.358V126.352H170.285V132.111H168.493V126.352Z" fill="#2C292F"/>
<path d="M182.153 128.432C182.153 130.703 180.704 132.292 178.677 132.292C177.663 132.292 176.821 131.902 176.232 131.275C176.269 131.784 176.269 132.374 176.269 133.01V135.708H174.494V124.817H175.698L176.042 125.925C176.649 125.126 177.554 124.635 178.686 124.635C180.677 124.635 182.153 126.243 182.153 128.432ZM180.342 128.477C180.342 127.124 179.528 126.206 178.305 126.206C177.047 126.206 176.205 127.106 176.205 128.45C176.205 129.822 177.065 130.739 178.305 130.739C179.528 130.739 180.342 129.803 180.342 128.477Z" fill="#2C292F"/>
<path d="M191.223 128.205C191.223 128.468 191.187 128.759 191.16 129.058H185.946C186.172 130.239 187.086 130.857 188.263 130.857C189.096 130.857 189.684 130.612 190.182 130.167L190.934 131.311C190.101 131.983 189.223 132.328 188.1 132.328C185.774 132.328 184.171 130.739 184.171 128.45C184.171 126.306 185.719 124.626 187.919 124.626C189.965 124.617 191.223 126.006 191.223 128.205ZM185.955 127.841H189.539C189.494 126.679 188.806 126.079 187.874 126.079C186.923 126.079 186.154 126.715 185.955 127.841Z" fill="#2C292F"/>
<path d="M204.548 124.817V132.111H202.792V128.777C202.792 128.495 202.792 128.223 202.828 127.923C202.62 128.187 202.403 128.414 202.177 128.641L198.782 132.12H198.094V124.807H199.85V128.078C199.85 128.386 199.85 128.686 199.814 128.977C200.058 128.686 200.303 128.423 200.547 128.159L203.86 124.807H204.548V124.817Z" fill="#2C292F"/>
<path d="M218.154 130.085C218.154 131.375 217.194 132.111 215.773 132.111H211.926V124.817H215.493C216.878 124.817 217.819 125.571 217.819 126.76C217.819 127.56 217.475 128.05 216.941 128.359C217.683 128.613 218.154 129.195 218.154 130.085ZM213.655 126.106V127.805H215.14C215.837 127.805 216.135 127.396 216.135 126.924C216.135 126.479 215.846 126.106 215.14 126.106H213.655ZM216.38 129.94C216.38 129.413 216.054 129.04 215.339 129.04H213.664V130.821H215.339C216.054 130.821 216.38 130.457 216.38 129.94Z" fill="#2C292F"/>
<path d="M234.648 132.011V132.111H232.674L230.275 128.868V132.111H228.501V128.868L226.093 132.111H224.138V132.011L226.944 128.35L224.4 124.898V124.817H226.374L228.51 127.878V124.817H230.284V127.86L232.403 124.817H234.394V124.898L231.832 128.332L234.648 132.011Z" fill="#2C292F"/>
<path d="M243.066 124.817V132.111H241.31V128.777C241.31 128.495 241.31 128.223 241.346 127.923C241.138 128.187 240.921 128.414 240.695 128.641L237.3 132.12H236.612V124.807H238.368V128.078C238.368 128.386 238.368 128.686 238.332 128.977C238.576 128.686 238.821 128.423 239.065 128.159L242.378 124.807H243.066V124.817Z" fill="#2C292F"/>
<path d="M245.266 131.493L245.882 130.203C246.597 130.675 247.312 130.821 248 130.821C248.96 130.821 249.367 130.412 249.367 129.885C249.367 129.395 249.041 129.031 248.262 129.031H246.859V127.705H248.118C248.724 127.705 249.05 127.396 249.05 126.933C249.05 126.524 248.688 126.152 247.873 126.152C247.285 126.152 246.669 126.352 246.126 126.606L245.601 125.334C246.416 124.908 247.249 124.68 248.145 124.68C249.611 124.68 250.797 125.416 250.797 126.742C250.797 127.396 250.435 128.023 249.838 128.25C250.716 128.514 251.159 129.195 251.159 130.031C251.159 131.375 250.001 132.274 248.19 132.274C246.995 132.274 246.081 131.993 245.266 131.493Z" fill="#2C292F"/>
<path d="M260.103 124.817V132.111H258.311V129.195H255.378V132.111H253.603V124.817H255.378V127.66H258.311V124.817H260.103Z" fill="#2C292F"/>
<path d="M269.454 124.817V132.111H267.698V128.777C267.698 128.495 267.698 128.223 267.734 127.923C267.526 128.187 267.309 128.414 267.082 128.641L263.688 132.12H263V124.807H264.756V128.078C264.756 128.386 264.756 128.686 264.72 128.977C264.964 128.686 265.209 128.423 265.453 128.159L268.766 124.807H269.454V124.817Z" fill="#2C292F"/>
</svg>
