<svg width="30" height="32" viewBox="0 0 30 32" fill="none" xmlns="http://www.w3.org/2000/svg">
<path d="M17.3664 31.7566C15.0046 31.7743 13.8504 30.607 13.6721 28.4803C13.4939 26.358 13.2844 24.2268 13.2755 22.1C13.271 20.5923 12.6739 20.1811 11.2523 20.3182C8.60526 20.579 5.96711 21.0389 3.2844 20.8709C1.33699 20.7471 0.0134581 19.6151 8.91005e-05 18.0101C-0.0132799 16.4891 1.47959 14.9902 3.27549 15.1494C6.03396 15.3926 8.44038 13.8628 11.1454 13.9158C12.3129 13.9379 11.9965 13.0094 11.8316 12.2798C11.2211 9.56946 10.5616 6.86791 10.0447 4.13983C9.61685 1.88928 10.4234 0.487659 12.3441 0.085301C14.3361 -0.334743 15.4725 0.845801 15.9493 2.54366C16.6044 4.86496 17.1391 7.22605 17.5491 9.60483C18.1284 12.9563 18.4226 13.2437 21.8584 12.9563C23.4805 12.8193 25.1071 12.6513 26.7336 12.6159C28.534 12.5761 29.7372 13.4825 29.911 15.2953C30.0937 17.2275 29.0197 18.355 27.1258 18.607C25.5126 18.8237 23.886 18.9652 22.2595 19.0227C20.3878 19.089 19.4074 19.7036 19.6035 21.8215C19.8218 24.1605 19.7505 26.526 19.7505 28.8782C19.7461 30.7795 18.5874 31.5975 17.3664 31.7566Z" fill="#F3C075"/>
</svg>
