<svg width="31" height="30" viewBox="0 0 31 30" fill="none" xmlns="http://www.w3.org/2000/svg">
<path d="M12.5935 23.1363C12.5935 22.2883 12.5857 21.4404 12.5935 20.5925C12.6287 17.5502 12.6131 17.4481 9.55005 17.9585C7.47674 18.3039 5.40343 18.2372 3.33403 18.3903C1.09641 18.5551 0.0362852 17.6287 0.00107802 15.7916C-0.0380411 13.9387 0.98688 12.9495 3.17755 13.0437C5.94327 13.1614 8.59164 12.3763 11.3143 12.2154C12.2062 12.1644 12.6209 11.7404 12.5896 10.865C12.5075 8.3919 12.8204 5.90703 12.4018 3.44178C12.1006 1.65173 12.9143 0.281712 14.4282 0.0344024C16.0595 -0.22861 17.6634 1.04719 17.7925 2.80977C17.9763 5.27894 18.168 7.75204 18.2032 10.2251C18.2267 11.7365 18.8095 12.1487 20.2374 11.9799C22.4946 11.709 24.7674 11.5794 27.0363 11.3989C27.361 11.3714 27.6857 11.3557 28.0104 11.3753C29.5947 11.4695 31.0421 12.7571 30.9991 14.1703C30.9482 15.8269 29.8255 16.6238 28.3429 16.7808C25.628 17.0674 22.9014 17.3775 20.1787 17.3618C18.3362 17.3539 17.7729 18.0016 17.8277 19.7328C17.9098 22.1431 17.8511 24.5612 17.8237 26.9755C17.8003 28.9932 16.9866 29.9353 15.2849 29.9981C13.7788 30.0531 12.7187 28.8911 12.5974 27.054C12.5779 26.7281 12.5622 26.4023 12.5583 26.0765C12.5544 25.099 12.5583 24.1177 12.5583 23.1402C12.574 23.1363 12.5857 23.1363 12.5935 23.1363Z" fill="#F3C075"/>
</svg>
