<svg width="29" height="29" viewBox="0 0 29 29" fill="none" xmlns="http://www.w3.org/2000/svg">
<path d="M22.0738 17.4532C16.8053 17.3204 16.7974 17.3204 16.8132 22.5537C16.8172 23.7879 16.8608 25.022 16.9123 26.2561C16.9797 27.8495 16.0283 28.7908 14.629 28.9743C13.178 29.1657 12.183 28.2713 11.743 26.838C10.9462 24.237 11.0532 21.5656 11.1285 18.906C11.1682 17.4883 10.6845 16.922 9.20986 16.9533C6.97404 17.0002 4.73425 17.09 2.51032 16.6135C0.702635 16.2269 -0.209135 15.1685 0.0406111 13.5126C0.262608 12.0402 1.70162 11.0599 3.38641 11.2201C5.48349 11.4192 7.56074 11.7981 9.68557 11.7825C10.9858 11.7746 11.5606 11.3099 11.303 10.0406C10.855 7.80279 11.303 5.51028 10.74 3.26073C10.3634 1.75322 11.525 0.284768 12.8966 0.0621564C14.6726 -0.222943 15.6279 0.464419 16.171 2.29608C16.9044 4.77215 16.837 7.30679 16.837 9.83363C16.837 11.2084 17.3207 11.8059 18.8112 11.7981C21.1144 11.7903 23.4216 11.9738 25.7248 12.1105C27.7743 12.2316 29.0349 13.3798 28.9993 15.024C28.9676 16.594 27.7545 17.4883 25.6257 17.4962C25.0311 17.5001 24.4404 17.4571 23.8458 17.4493C23.2591 17.4454 22.6684 17.4532 22.0738 17.4532Z" fill="#F3C075"/>
</svg>
