<svg width="30" height="32" viewBox="0 0 30 32" fill="none" xmlns="http://www.w3.org/2000/svg">
<path d="M12.5646 31.7566C14.9265 31.7743 16.0807 30.607 16.2589 28.4803C16.4372 26.358 16.6466 24.2268 16.6555 22.1C16.66 20.5923 17.2571 20.1811 18.6787 20.3182C21.3258 20.579 23.9639 21.0389 26.6466 20.8709C28.594 20.7471 29.9176 19.6151 29.9309 18.0101C29.9443 16.4891 28.4514 14.9902 26.6555 15.1494C23.8971 15.3926 21.4907 13.8628 18.7857 13.9158C17.6181 13.9379 17.9345 13.0094 18.0994 12.2798C18.7099 9.56946 19.3694 6.86791 19.8864 4.13983C20.3142 1.88928 19.5076 0.487659 17.5869 0.085301C15.5949 -0.334743 14.4586 0.845801 13.9817 2.54366C13.3267 4.86496 12.7919 7.22605 12.3819 9.60483C11.8026 12.9563 11.5085 13.2437 8.07264 12.9563C6.45054 12.8193 4.82397 12.6513 3.19741 12.6159C1.39706 12.5761 0.193846 13.4825 0.0200481 15.2953C-0.162661 17.2275 0.911314 18.355 2.80526 18.607C4.41845 18.8237 6.04501 18.9652 7.67157 19.0227C9.54323 19.089 10.5236 19.7036 10.3275 21.8215C10.1092 24.1605 10.1805 26.526 10.1805 28.8782C10.1849 30.7795 11.3436 31.5975 12.5646 31.7566Z" fill="#F3C075"/>
</svg>
