<svg width="292" height="206" viewBox="0 0 292 206" fill="none" xmlns="http://www.w3.org/2000/svg">
<path opacity="0.55" d="M129.81 1.75537C98.3572 6.73227 65.7213 13.2469 39.5337 29.1688C15.2795 43.9233 -0.801711 65.4402 0.970952 89.4089C2.7283 113.659 18.3862 137.592 35.1343 157.097C51.0858 175.706 72.4418 192.218 100.182 199.568C136.051 209.07 180.046 206.045 217.086 198.77C231.995 195.839 252.308 192.62 261.736 181.755C263.546 179.633 265.023 177.352 266.292 174.966C268.441 172.159 270.213 169.135 271.778 166.037C276.403 156.841 279.67 147.172 282.498 137.511C282.53 137.414 282.601 137.315 282.63 137.187C282.658 137.06 282.687 136.933 282.719 136.837C283.797 133.189 284.799 129.579 285.801 125.969C293.19 99.5117 292.747 85.5375 285.801 59C279.699 35.7235 260.266 17.9196 230.322 12.7588C194.707 6.63138 165.633 -3.91716 129.81 1.75537Z" fill="#CD856B"/>
</svg>
