<svg width="295" height="188" viewBox="0 0 295 188" fill="none" xmlns="http://www.w3.org/2000/svg">
<path opacity="0.55" d="M157.64 187.151C189.083 186.301 221.869 184.213 249.439 172.984C274.974 162.577 293.29 145.195 294.38 123.582C295.519 101.719 282.983 78.5502 268.855 59.2126C255.403 40.7666 236.401 23.5748 210.055 13.8387C175.988 1.24984 132.471 -1.078 95.2759 1.18669C80.3032 2.10033 59.9966 2.65337 49.4649 11.2807C47.4385 12.9699 45.7202 14.8381 44.1942 16.8251C41.7541 19.0868 39.6594 21.5848 37.758 24.1737C32.1352 31.8594 27.7891 40.1228 23.874 48.4298C23.8317 48.5122 23.7502 48.5931 23.7069 48.7035C23.6636 48.8138 23.6203 48.9242 23.5781 49.0065C22.0895 52.1419 20.6805 55.2521 19.2714 58.3624C8.89989 81.1508 -2.46097 106.309 1.22035 130.808C4.45925 152.298 21.4221 170.423 50.1879 178.457C84.4036 188.002 121.828 188.123 157.64 187.151Z" fill="#FFC061" fill-opacity="0.74"/>
</svg>
