<svg width="434" height="37" viewBox="0 0 434 37" fill="none" xmlns="http://www.w3.org/2000/svg">
<path d="M433.19 14.0835C432.998 13.3341 402.687 10.0884 402.537 10.0731C401.983 10.056 399.874 9.34218 399.575 9.29682C398.333 9.11521 399.287 10.1027 398.507 10.3634C397.967 10.5518 398.301 9.54067 397.988 9.24576C397.391 8.65608 396.277 10.1481 396.127 10.1474C395.977 10.1468 360.149 4.61649 359.382 5.34689C359.007 5.69745 360.275 6.64233 359.183 6.52008C356.009 6.15378 337.302 3.31178 337.031 3.64813C336.64 4.11603 333.985 5.1316 334.318 4.29654C335.151 2.20155 324.6 3.85719 324.543 3.31392C324.442 2.40356 323.859 2.1368 323.616 2.89888C323.191 4.17382 318.369 0.674222 319.931 3.07335C320.705 4.26554 318.385 3.87365 318.386 3.72689C318.401 0.380812 272.36 1.55631 266.777 0.78308C267.524 4.63152 266.056 1.29354 264.931 1.72883C264.616 1.84484 264.526 1.80039 264.662 1.61021C265.687 0.0444105 257.357 0.917418 257.298 0.770394C256.913 -0.361367 256.201 1.66075 254.54 1.19844C250.502 0.0945032 252.495 3.22936 250.782 1.06439C249.68 -0.32005 249.433 1.42528 248.088 0.568111C246.431 -0.51059 246.734 2.17647 245.661 0.880226C244.484 -0.54857 242.553 2.62761 242.559 1.30678C242.568 -0.718474 240.898 1.02055 240.227 0.357157C239.78 -0.0851083 239.465 -0.0278047 239.463 0.485848C239.459 1.30769 232.699 -0.644842 232.694 0.455842C232.693 0.764034 232.543 0.778071 231.974 0.570087C230.285 -0.083149 228.895 2.64044 227.946 0.55223C227.16 -1.16836 216.81 2.5135 217.007 2.03006C218.112 -0.636084 216.229 1.98256 216.009 0.895552C215.906 0.410786 215.605 0.732326 214.222 1.98834C213.9 0.225781 214.051 0.109055 211.966 0.848292C210.106 1.51515 210.845 0.197579 209.882 1.20596C209.04 2.08279 207.876 1.15305 207.877 0.800834C207.878 0.566021 205.201 -0.267725 207.201 1.28213C208.545 2.31541 206.491 2.77594 206.298 2.29078C205.602 0.570591 200.834 1.81161 200.834 1.95837C200.827 3.38192 198.203 0.845988 197.647 1.15172C197.467 1.25366 196.351 3.03919 196.775 1.96971C197.381 0.431412 193.913 2.33862 195.516 2.34572C196.055 2.34811 197.726 3.77907 197.545 4.07179C197.198 4.62795 194.212 2.39865 194.435 2.98668C194.657 3.58938 194.177 3.61659 193.94 3.01383C193.629 2.20526 191.768 3.28303 192.22 2.62461C192.355 2.43442 192.282 2.18462 192.057 2.05154C190.908 1.32732 191.338 2.12171 190.602 2.74951C190.391 2.92469 187.817 2.63445 187.998 2.34173C188.028 2.28316 187.434 1.23853 187.164 1.23733C186.55 1.23461 186.92 2.33695 186.335 2.33436C185.048 2.32866 186.357 0.82283 185.892 1.09961C185.742 1.187 183.073 1.77689 183.07 2.59874C183.067 3.30317 182.783 3.06712 182.153 3.29914C181.463 3.54558 182.008 2.24178 181.604 2.1079C180.722 1.81047 179.949 3.9791 178.693 3.51858C178.229 3.34041 178.643 1.28759 177.647 2.82417C177.18 3.5559 174.756 3.03151 174.047 4.15843C173.414 5.18294 173.277 2.32051 169.933 3.27431C168.358 3.72229 168.362 2.9738 168.783 2.56474C169.896 1.48364 165.531 3.04933 165.053 2.79772C163.484 1.9689 164.997 5.219 163.335 5.28501C158.467 5.48357 159.794 3.40549 158.457 4.2948C157.616 4.86344 157.406 4.80378 157.41 3.98193C157.419 1.95668 156.67 5.34356 155.295 4.73574C147.852 1.42998 139.588 7.51324 139.439 7.42452C138.752 6.99587 139.165 1.52357 137.273 6.03541C136.88 6.98761 134.868 8.13806 135.249 6.67214C135.721 4.83973 133.806 7.78114 133.273 6.44325C133.155 6.13453 130.639 6.05001 130.163 5.4315C129.448 4.50374 122.367 7.37823 121.997 6.37862C121.686 5.52603 117.535 6.08 119.059 7.01135C119.91 7.52878 118.214 8.32841 118.221 6.83148C118.225 5.90691 118.013 6.49305 116.739 6.63416C115.286 6.80383 116.621 6.25203 115.89 5.50031C115.279 4.86653 113.217 7.16155 113.644 5.5931C113.902 4.6403 113.225 5.34173 112.701 5.33941C112.507 5.33854 112.618 7.21757 110.806 7.25357C110.551 7.25244 110.326 7.41288 110.325 7.57431C110.319 8.95384 108.819 6.056 108.55 6.09883C108.295 6.14173 108.071 6.02337 108.071 5.86194C108.074 5.37763 106.798 6.06174 106.575 5.51774C106.501 5.32662 106.426 5.45837 106.409 5.79585C106.377 6.3534 106.317 6.38246 105.809 6.08668C105.017 5.61354 103.769 6.92889 104.206 6.2117C104.885 5.11401 101.459 4.20356 101.726 4.98257C102.036 5.95256 99.597 5.44277 97.9821 4.87792C96.6513 4.41706 93.5215 7.79338 94.1424 6.21112C94.5513 5.18561 92.7317 6.87996 92.2205 7.34733C90.9423 8.5451 89.8085 7.55677 91.4435 6.96229C94.5934 5.83152 88.2416 6.28767 86.6906 8.21804C86.0431 9.02235 85.8253 7.48041 85.329 7.94784C85.0584 8.19614 82.0305 8.82844 82.1687 8.05122C82.3992 6.71672 78.5967 6.40634 78.5857 5.51105C78.5604 4.45426 77.0311 4.84375 77.2089 5.28482C77.8461 6.81395 72.5843 4.61857 73.2384 5.72217C73.4168 6.01648 72.8156 6.5128 72.4739 5.89489C72.1172 5.26224 71.6827 5.30433 71.6798 5.97942C71.677 6.61048 71.392 6.69731 70.8851 6.19607C70.1992 5.51793 70.0277 7.04348 69.4602 6.68874C69.3108 6.60002 69.1157 6.71654 69.0248 6.93628C68.4494 8.37198 68.4459 5.7743 67.4688 6.6065C65.4695 8.31474 60.5732 4.74144 62.9006 6.73302C64.6761 8.25253 62.0736 7.49254 62.0702 8.27036C62.0654 9.35637 61.054 7.78153 60.7223 8.29372C60.5413 8.57176 58.9658 9.26921 58.9696 8.40334C58.9724 7.77228 58.8527 7.74242 58.1021 8.15002C57.5617 8.44115 56.3547 7.07093 56.5151 8.05494C56.6024 8.64237 55.8826 8.85929 55.8852 8.25759C55.8891 7.37704 54.4764 8.50086 54.4799 7.72304C54.4883 5.80051 50.7418 9.77578 50.3998 9.24592C50.3551 9.17234 47.4075 8.57226 47.3788 8.29329C47.2915 7.70586 45.4684 6.81718 44.7297 7.92929C43.5237 9.7291 44.1767 7.69203 43.6067 7.89497C43.3667 7.98196 43.0977 7.86336 43.0089 7.61347C42.6833 6.74614 41.0008 7.92747 41.334 7.07773C41.8035 5.87637 39.8179 7.87816 39.1619 7.21483C38.5207 6.58091 38.1076 8.56039 37.5721 7.75083C36.7092 6.45551 39.0598 6.59801 38.569 5.818C38.4054 5.5531 33.2605 10.8284 33.5411 8.32C33.6966 6.99984 32.4018 8.57912 31.0739 7.44318C29.761 6.32198 28.1924 8.85398 27.8037 8.70549C21.3896 6.31421 24.2727 11.3609 21.4189 9.86595C20.4477 9.36266 22.4033 7.37536 23.2583 7.05628C24.8332 6.49089 22.3941 6.0545 21.864 7.40235C21.2432 8.95526 15.2965 9.2371 14.1662 7.45628C13.4225 6.29357 14.9254 8.50165 12.8284 8.59508C10.5666 8.70247 13.5259 10.0364 11.3223 10.5256C10.3329 10.7414 9.71224 12.2503 8.71387 11.1158C7.29819 9.52448 9.01669 10.3687 9.72397 9.59397C10.4161 8.84856 9.35669 7.97795 8.51614 8.41451C7.88572 8.73459 7.61681 8.58664 7.32084 7.77815C6.95117 6.70516 5.1549 9.92593 4.54518 8.9546C3.62322 7.46823 0.577329 12.1804 1.4452 12.3457C2.58237 12.5709 2.07858 14.7554 1.78919 15.8548C1.13387 18.4349 3.1529 19.0456 1.32586 19.0375C-0.75572 19.0282 2.24068 22.1529 2.24967 20.1129C2.25387 19.159 4.26986 20.4594 2.52998 21.0681C1.12008 21.5609 1.66753 23.0749 2.43406 22.4472C3.95199 21.2212 5.14992 28.0655 5.52909 26.9812C5.8022 26.1752 6.92187 26.9727 6.00365 28.04C3.88118 30.5108 5.57727 29.6378 6.98361 33.357C11.0974 30.9831 16.9466 32.4179 15.8134 31.2975C14.1881 29.6906 19.6693 33.0904 19.6735 32.1218C19.6757 31.6228 20.5297 31.5532 20.9919 32.0102C21.976 32.9832 21.6706 30.9272 22.0906 30.7676C23.1256 30.3907 22.2044 32.133 23.057 32.357C24.1341 32.6259 25.0988 27.8164 25.1889 31.1483C25.2151 31.9996 25.6586 33.3077 26.2359 31.4611C26.3725 31.0361 27.902 33.9781 27.475 32.3178C27.2984 31.6273 27.6133 31.5406 28.1197 32.1592C28.6412 32.7779 29.3304 32.6929 29.1686 32.0318C28.6827 30.1364 32.7754 32.5761 33.2872 31.9767C36.2224 28.5702 38.2695 33.0261 38.2774 31.2357C38.2807 30.4872 38.8492 30.6071 38.8476 30.974C38.8413 32.4122 53.325 31.9334 53.0748 30.9197C52.8392 30.0087 54.4999 30.383 54.5433 30.7207C55.0355 34.5827 55.2045 30.21 55.8934 30.2131C56.8818 30.2174 55.7181 32.6044 56.7124 31.2733C57.6012 30.0885 66.8034 31.8758 66.0336 29.8617C65.7966 29.259 66.7697 29.322 66.7674 29.8503C66.7631 30.8336 70.2617 28.7357 70.5368 30.8943C70.7396 32.4509 82.5247 29.2304 82.6744 29.2311C84.0672 29.2372 81.5892 30.8113 83.1445 31.3171C84.1165 31.6296 86.9088 30.101 87.4606 30.6172C89.3847 32.3868 87.3207 28.3857 89.2922 29.5832C90.2929 30.1894 90.8565 28.0345 91.4044 29.4459C91.9523 30.8572 91.1627 29.9144 90.8611 30.3827C90.7706 30.5291 101.017 29.826 100.487 31.1152C100.351 31.4668 102.491 31.7698 101.672 30.7829C101.121 30.1347 103.103 28.9254 102.783 30.1274C102.281 31.9597 109.688 29.8791 109.837 29.9385C111.183 30.4288 110.552 30.969 111.857 30.5345C113.296 30.0419 112.393 31.0359 113.007 31.0386C113.427 31.0404 113.193 29.6452 113.939 30.3823C114.878 31.311 116.741 29.8957 116.266 29.1452C115.834 28.4535 117.673 29.2101 116.967 29.6619C114.76 31.061 125.924 29.2907 125.683 29.7152C125.351 30.3155 125.859 30.5966 126.594 30.2329C128.14 29.4619 128.739 32.7961 128.677 29.9486C128.63 26.9545 134.654 32.9544 140.031 29.3239C140.182 29.2218 144.245 31.4853 144.879 30.3287C145.483 29.2013 146.193 31.2737 147.127 30.0744C147.443 29.6649 147.668 29.5632 147.802 29.7692C147.951 30.0047 148.145 30.0203 148.596 29.7728C150.397 28.8415 150.78 30.2961 152.415 29.6429C153.24 29.3237 153.465 29.31 153.673 29.6045C153.881 29.8989 153.986 29.8847 154.243 29.5189C154.936 28.524 156.439 30.7468 156.443 29.7488C156.448 28.6335 159.446 28.045 159.156 29.1738C158.653 31.1088 160.763 28.1096 161.853 28.8483C163.899 30.2515 169.762 28.4283 169.985 28.7669C170.134 28.9877 169.484 30.3203 171.45 29.3898C172.921 28.6918 173.094 30.2189 173.667 29.3409C174.225 28.4921 173.873 30.0316 175.268 29.6121C179.527 28.3395 179.105 28.9981 181.258 29.6387C184.758 30.6815 184.328 26.4089 185.347 29.5394C185.554 30.2008 186.171 29.5284 187.548 29.6079C188.851 29.687 188.18 29.0823 189.05 28.7633C190.235 28.3136 190.495 30.3988 192.191 29.5698C193.182 29.0752 195.649 29.9226 195.652 29.1448C195.656 28.2496 198.53 28.6145 198.677 29.2463C199.236 31.4502 199.366 25.7711 202.165 29.5993C202.388 29.9085 203.299 27.0067 203.614 27.0081C204.048 27.01 203.503 28.2844 204.113 29.2263C204.217 29.3736 218.81 28 220.496 29.4751C221.197 30.0946 225.298 27.2363 224.889 28.2911C224.646 28.9211 224.943 29.5095 225.26 29.0119C225.592 28.485 226.461 28.4155 226.264 28.9283C225.612 30.5838 228.08 27.9237 229.273 29.0004C230.303 29.9148 229.801 28.3129 230.862 28.6551C232.687 29.2356 234.062 26.4239 235.178 27.9845C235.997 29.1475 245.266 29.4528 247.312 27.3485C247.266 27.6125 246.731 29.9877 248.143 28.9519C250.367 27.3327 250.504 30.2392 250.988 29.0379C251.306 28.2321 252.228 29.6598 252.501 28.9565C252.577 28.7661 252.802 28.6057 253.027 28.6067C253.641 28.6094 253.244 26.9492 253.738 26.9514C255.55 26.9594 254.805 29.4217 256.409 29.1353C266.676 27.2876 369.961 31.3558 370.703 32.7239C371.862 34.8718 373.018 30.8557 373.657 31.8858C373.88 32.2537 371.807 33.7561 373.952 32.9144C374.823 32.5661 376.062 33.3054 376.068 32.0433C376.07 31.5149 377.356 32.0196 377.293 32.6357C377.215 33.4573 380.244 32.5754 380.45 33.2515C380.996 35.0737 382.717 32.1314 383.823 32.5179C385.363 33.0531 385.342 34.4912 386.095 33.526C386.547 32.9409 386.014 31.4269 387.183 31.4321C388.56 31.4382 387.03 35.4527 387.966 33.8424C388.449 32.9787 389.31 34.5822 389.313 33.9658C389.315 33.4815 388.744 33.8459 388.747 33.2148C388.754 31.7032 392.357 36.5477 394.542 33.358C395.899 31.3974 395.015 34.901 396.347 34.9216C397.8 34.9574 397.928 32.962 399.123 33.7011C400.184 34.3663 399.267 35.052 400.45 35.0572C401.049 35.0599 401.139 34.9575 401.007 34.502C400.46 32.7091 402.275 35.4469 402.28 34.3902C402.282 34.0086 402.852 33.6736 403.466 33.6764C404.05 33.679 402.685 34.2746 403.566 34.9096C404.372 35.4855 405.082 34.1678 404.814 33.653C403.715 31.6081 407.327 34.2952 406.095 35.1703C405.164 35.8266 407.801 35.6328 408.328 34.9453C409.156 33.8777 408.551 35.2692 410.527 35.4101C412.444 35.5506 412.497 33.5843 412.882 34.6133C413.222 35.5101 412.456 36.079 413.339 36.3471C414.251 36.63 414.981 34.0209 414.989 35.7381C415.001 36.2958 415.031 36.2959 415.377 35.8572C415.784 35.3306 416.443 35.4363 417.308 36.1739C417.905 36.6755 420.698 34.9268 420.229 36.0842C419.744 37.2708 424.279 34.5464 424.273 35.8379C424.264 37.9659 430.193 34.8222 429.413 35.2003C430.509 37.7881 429.843 36.0093 430.637 36.0129C430.892 36.014 431.042 35.8092 430.999 35.5302C430.853 34.649 433.457 35.0127 432.351 34.5529C431.962 34.3897 431.903 34.2427 432.128 34.0236C432.76 33.41 430.712 32.7111 432.196 32.2774C433.261 31.9739 432.73 30.0784 432.971 29.6832C433.469 28.8782 433.425 28.7312 432.75 28.9043C431.925 29.1208 431.358 28.8395 431.076 28.0897C430.321 26.1492 432.159 27.0525 432.012 26.3474C431.661 24.6435 433.064 25.6917 433.039 24.4147C433.027 23.8863 432.863 23.5628 432.624 23.5617C432.13 23.5595 432.147 23.0899 432.677 21.6247C434.208 17.4341 429.833 21.4653 430.755 19.4294C431.481 17.833 429.835 17.4588 432.651 17.4713C428.997 13.9181 433.69 15.9936 433.19 14.0835Z" fill="#F29370" fill-opacity="0.6"/>
</svg>
