<svg width="147" height="169" viewBox="0 0 147 169" fill="none" xmlns="http://www.w3.org/2000/svg">
<path d="M72.5961 72.2959C77.0706 71.5019 78.7897 65.4096 79.09 62.4627C80.054 58.3808 80.8364 55.5071 78.3052 51.7208C75.7739 47.9346 69.2371 49.2296 64.5149 52.9379C59.7926 56.6461 58.6586 66.3333 59.9761 69.0048C61.2936 71.6763 67.0031 73.2884 72.5961 72.2959Z" fill="#7C9E67" fill-opacity="0.6"/>
<path d="M126.073 112.855C124.178 116.986 128.209 121.867 130.46 123.792C133.268 126.908 135.185 129.187 139.739 129.261C144.293 129.336 146.949 123.224 146.588 117.231C146.228 111.237 138.909 104.79 135.962 104.353C133.016 103.915 128.441 107.692 126.073 112.855Z" fill="#7C9E67" fill-opacity="0.6"/>
<path d="M92.6957 105.303C95.0971 101.445 91.7163 96.0932 89.7258 93.8996C87.3351 90.4535 85.7214 87.9502 81.2134 87.3009C76.7055 86.6515 73.2978 92.3781 72.8978 98.369C72.4978 104.36 78.9429 111.68 81.8104 112.487C84.6778 113.293 89.6941 110.126 92.6957 105.303Z" fill="#7C9E67" fill-opacity="0.6"/>
<path d="M21.6261 85.4491C23.4311 89.6196 29.7557 89.8867 32.6924 89.4989C36.8865 89.4951 39.8632 89.5934 42.9633 86.2568C46.0633 82.9202 43.295 76.8586 38.5972 73.1194C33.8995 69.3801 24.212 70.5118 21.9166 72.4102C19.6211 74.3086 19.3699 80.236 21.6261 85.4491Z" fill="#7C9E67" fill-opacity="0.6"/>
<path d="M17.1617 126.539C21.7004 126.313 24.1704 120.485 24.8381 117.599C26.3067 113.67 27.4435 110.917 25.4073 106.843C23.3712 102.769 16.7236 103.234 11.5733 106.32C6.42308 109.407 4.08245 118.875 5.05433 121.691C6.02621 124.506 11.4883 126.822 17.1617 126.539Z" fill="#7C9E67" fill-opacity="0.6"/>
<path d="M104.296 74.9623C107.482 78.2025 113.478 76.1733 116.078 74.7536C119.989 73.2391 122.802 72.2584 124.492 68.0291C126.181 63.7997 121.415 59.1424 115.686 57.3466C109.957 55.5508 101.327 60.0964 99.8698 62.6942C98.4124 65.2921 100.313 70.912 104.296 74.9623Z" fill="#7C9E67" fill-opacity="0.6"/>
<path d="M90.3088 142.361C85.831 143.136 84.086 149.221 83.7732 152.167C82.7919 156.245 81.9973 159.115 84.5125 162.912C87.0277 166.709 93.5699 165.442 98.3079 161.754C103.046 158.065 104.221 148.383 102.915 145.706C101.609 143.029 95.906 141.393 90.3088 142.361Z" fill="#7C9E67" fill-opacity="0.6"/>
<path d="M78.0458 21.9202C81.232 25.1604 87.2281 23.1312 89.8279 21.7115C93.7391 20.197 96.5513 19.2163 98.2412 14.9869C99.9311 10.7576 95.165 6.10031 89.4356 4.30451C83.7062 2.5087 75.0769 7.0543 73.6195 9.65213C72.1621 12.25 74.063 17.8699 78.0458 21.9202Z" fill="#7C9E67" fill-opacity="0.6"/>
<path d="M35.3543 114.61C34.5083 119.074 39.5936 122.844 42.242 124.171C45.7159 126.521 48.1247 128.273 52.5629 127.25C57.0011 126.228 58.1108 119.657 56.3203 113.926C54.5298 108.195 45.876 103.696 42.9108 103.98C39.9456 104.263 36.4118 109.028 35.3543 114.61Z" fill="#7C9E67" fill-opacity="0.6"/>
<path d="M24.0654 41.8169C23.2194 46.2818 28.3048 50.0516 30.9532 51.3784C34.427 53.7285 36.8359 55.4801 41.2741 54.4576C45.7123 53.4352 46.822 46.8645 45.0315 41.1334C43.241 35.4023 34.5872 30.9035 31.622 31.1869C28.6568 31.4703 25.1229 36.2357 24.0654 41.8169Z" fill="#7C9E67" fill-opacity="0.6"/>
</svg>
