<svg width="233" height="4" viewBox="0 0 233 4" fill="none" xmlns="http://www.w3.org/2000/svg">
<path d="M232.981 2.00764C232.393 2.0185 232.478 1.99315 232.563 1.97142C232.742 1.92218 232.722 1.90769 232.508 1.93304C232.354 1.95115 232.319 1.9497 232.319 1.92652C232.319 1.878 232.767 1.91783 232.642 1.86786C232.488 1.80702 232.941 1.82151 232.692 1.7527C232.393 1.67014 233.135 1.70563 232.443 1.60785C231.726 1.50646 231.203 1.62089 231.398 1.47169C231.517 1.38044 231.831 1.39565 231.746 1.36378C231.681 1.33988 231.995 1.27108 232.214 1.34278C232.354 1.38841 232.692 1.41013 232.692 1.37392C232.692 1.31019 232.03 1.18127 231.806 1.20155C231.627 1.21748 231.831 1.14868 232.03 1.12478C232.174 1.1074 232.179 1.09798 232.05 1.06684C231.781 1.00238 232.219 0.985002 232.105 0.89592C232.075 0.868398 232.105 0.846671 232.174 0.846671C232.363 0.846671 232.438 0.761934 232.274 0.735861C232.174 0.719928 232.179 0.717755 232.304 0.728619C232.697 0.762658 232.07 0.588839 232.08 0.581597C232.115 0.551903 232.12 0.506275 231.925 0.534521C231.642 0.575079 231.512 0.493239 231.343 0.533072C231.149 0.577976 230.561 0.499757 230.397 0.538142C230.252 0.570733 229.824 0.49179 229.998 0.533797C230.118 0.562766 229.869 0.562766 229.774 0.540315C229.655 0.512069 229.207 0.541763 229.207 0.577975C229.207 0.625051 228.923 0.596806 229.008 0.563491C229.087 0.533072 228.634 0.502654 228.301 0.51569C227.818 0.533796 227.892 0.618533 227.524 0.574354C227.126 0.526554 225.97 0.524381 226.03 0.538142C226.14 0.56349 225.791 0.567836 225.622 0.543212C225.433 0.51569 225.099 0.509896 225.099 0.534521C225.099 0.54973 224.477 0.570733 224.477 0.528002C224.477 0.503378 222.898 0.445438 223.167 0.552627C223.267 0.591736 222.784 0.576527 222.49 0.530899C221.823 0.427332 221.225 0.601151 221.355 0.494687C221.38 0.474408 220.573 0.487444 220.464 0.509172C220.324 0.538142 219.742 0.425883 219.742 0.466441C219.742 0.483099 219.682 0.479478 219.562 0.455578C219.403 0.424435 219.383 0.424435 219.378 0.451232C219.373 0.485996 218.89 0.541763 218.721 0.527278C218.557 0.512793 218.865 0.478029 218.532 0.496859C218.333 0.508447 218.328 0.506275 218.477 0.478753C218.806 0.418641 217.874 0.492514 217.874 0.451232C217.874 0.422986 217.426 0.425883 217.262 0.454853C217.083 0.485996 217.222 0.498308 217.048 0.469338C216.884 0.441817 216.585 0.43892 216.699 0.465717C216.928 0.519311 215.375 0.389671 215.733 0.536693C215.818 0.572181 215.509 0.550454 215.509 0.493238C215.509 0.428056 215.166 0.436747 215.031 0.506275C214.942 0.551902 214.912 0.556247 214.902 0.524381C214.892 0.482374 214.713 0.470786 214.573 0.502653C214.424 0.537417 214.26 0.50048 214.344 0.451956C214.519 0.349113 213.607 0.528002 213 0.444714C212.452 0.370116 211.581 0.416468 211.018 0.375186C210.64 0.34694 210.466 0.424435 210.346 0.396189C210.247 0.372289 209.455 0.383877 209.216 0.412122C209.091 0.427331 209.027 0.428056 209.027 0.414295C209.027 0.382428 208.429 0.392568 208.29 0.427331C208.18 0.454853 208.165 0.453404 208.16 0.419365C208.155 0.388222 208.096 0.382428 207.886 0.390395C207.672 0.398362 207.633 0.394016 207.692 0.370116C207.792 0.331007 207.533 0.328834 207.523 0.372289C207.518 0.401983 207.508 0.401983 207.349 0.371564C207.189 0.341146 207.155 0.34187 206.796 0.386774C206.179 0.463544 206.393 0.365046 206.149 0.386774C206.084 0.392568 206.039 0.390395 206.039 0.380255C206.039 0.354182 205.253 0.339698 205.068 0.361425C204.849 0.386773 205.118 0.431677 204.879 0.388946C204.73 0.361425 204.68 0.361425 204.55 0.384601C204.351 0.419365 204.157 0.420089 204.247 0.386773C204.356 0.344767 204.068 0.335352 203.918 0.37591C203.843 0.396189 203.709 0.412122 203.614 0.412122C203.38 0.412122 203.326 0.469337 203.311 0.425883C203.301 0.396913 203.117 0.308555 202.758 0.354182C202.584 0.376634 202.499 0.378807 202.464 0.362873C202.39 0.331006 202.056 0.333903 202.056 0.366494C202.056 0.401258 201.807 0.406328 201.807 0.357079C201.807 0.301312 201.458 0.310003 201.543 0.380979C201.553 0.388946 201.458 0.388222 201.334 0.378807C201.085 0.359976 200.776 0.371564 200.881 0.395464C200.971 0.416467 200.737 0.424434 200.652 0.375185C200.562 0.324488 200.214 0.329558 200.069 0.383876C199.925 0.438195 199.766 0.443989 199.86 0.391119C199.915 0.359976 199.885 0.354906 199.691 0.362149C199.542 0.367943 199.432 0.359976 199.397 0.341146C199.293 0.285379 199.293 0.392567 198.984 0.392567C198.884 0.392567 198.835 0.385325 198.874 0.376634C198.949 0.359252 198.62 0.302036 198.441 0.302036C198.167 0.302036 197.943 0.386773 197.943 0.329558C197.943 0.291897 197.779 0.296967 197.59 0.340421C197.346 0.396913 197.226 0.332455 197.246 0.415019C197.261 0.485995 196.868 0.511343 196.803 0.443989C196.743 0.383152 196.504 0.422261 196.181 0.367218C195.807 0.302761 195.787 0.398361 195.479 0.353458C195.364 0.3368 195.329 0.3368 195.329 0.353458C195.329 0.388946 195.105 0.378806 195.021 0.338973C194.861 0.265824 193.91 0.319418 194.343 0.358527C194.543 0.376634 194.408 0.419364 194.08 0.357079C193.86 0.315073 193.826 0.314348 193.641 0.340421C193.457 0.367218 193.402 0.366494 192.954 0.334627C191.839 0.254236 192.516 0.374461 192.187 0.375909C192.078 0.376633 192.093 0.380979 192.232 0.38967C192.705 0.417916 191.834 0.518586 191.834 0.358527C191.834 0.282482 191.59 0.250615 191.57 0.323764C191.555 0.382427 191.525 0.320142 191.261 0.320142C190.973 0.320142 191.241 0.247718 190.838 0.247718C190.699 0.247718 190.589 0.256409 190.589 0.267997C190.589 0.282481 190.534 0.281033 190.395 0.2651C190.056 0.225266 190.226 0.28393 189.504 0.28393C188.906 0.28393 189.155 0.339697 188.936 0.297691C188.752 0.262927 188.199 0.227439 187.93 0.28393C187.427 0.388945 187.676 0.171672 186.327 0.268721C186.168 0.280309 184.236 0.200641 184.236 0.250614C184.236 0.296242 182.777 0.25496 182.837 0.29769C182.877 0.327384 182.618 0.329557 182.618 0.294793C182.618 0.260029 182.309 0.245545 182.13 0.270893C182.025 0.286102 181.99 0.285378 181.99 0.26872C181.99 0.236854 181.373 0.241199 181.288 0.274514C181.164 0.32159 180.636 0.241199 180.8 0.281757C180.845 0.29262 180.82 0.302036 180.751 0.302036C180.546 0.302036 180.746 0.274514 180.337 0.257857C180.063 0.246269 180.063 0.245544 180.307 0.228887C180.686 0.202814 179.332 0.228887 179.232 0.251338C179.127 0.275963 178.844 0.24989 178.913 0.222369C178.973 0.199917 178.615 0.141253 178.301 0.187605C177.768 0.265823 177.071 0.152117 176.145 0.18688C175.757 0.201365 176.025 0.216574 175.622 0.248441C175.194 0.282481 175.672 0.242647 175.299 0.201365C174.985 0.166601 174.885 0.167326 174.88 0.206435C174.875 0.236129 174.855 0.235405 174.691 0.202814C174.502 0.166601 174.502 0.166601 174.318 0.202814C174.104 0.24482 173.67 0.242647 173.451 0.199192C173.227 0.155013 173.103 0.209332 172.834 0.175292C172.689 0.157186 172.645 0.161532 172.58 0.199917C172.535 0.225265 172.465 0.245544 172.426 0.24482C171.873 0.235405 172.236 0.294069 172.047 0.276687C171.968 0.269444 171.903 0.249165 171.903 0.231059C171.903 0.161532 171.231 0.180362 171.181 0.251338C171.061 0.413569 171.007 0.304208 170.782 0.356354C170.643 0.388945 170.165 0.309278 170.16 0.252786C170.155 0.187604 169.488 0.152116 169.478 0.216574C169.478 0.228886 169.383 0.236129 169.259 0.233232C168.945 0.225265 169.11 0.265823 168.91 0.265823C168.706 0.265823 169.065 0.229611 168.612 0.229611C168.069 0.229611 168.517 0.283929 167.984 0.283929C167.427 0.283929 167.7 0.13908 167.138 0.13908C166.954 0.13908 166.919 0.148495 166.969 0.178913C167.123 0.267996 166.57 0.0847613 166.252 0.144149C166.137 0.165877 166.047 0.170222 165.988 0.156462C165.833 0.120974 165.241 0.170946 165.121 0.126767C165.022 0.0891067 164.803 0.131837 164.803 0.102143C164.803 0.0572398 163.722 0.143425 163.438 0.130389C163.264 0.122422 163.184 0.126043 163.184 0.141977C163.184 0.158634 163.155 0.159358 163.09 0.144874C162.861 0.0934521 162.169 0.21585 161.93 0.126043C161.845 0.093452 161.77 0.0854853 161.661 0.0977975C161.387 0.12894 160.272 0.073173 160.366 0.100694C160.386 0.106488 160.366 0.126043 160.321 0.144149C160.172 0.204986 159.007 -0.0231517 158.419 0.0833124C158.3 0.10504 158.195 0.114455 158.195 0.103591C158.195 0.0920034 156.244 0.055791 155.84 0.0920033C155.651 0.109385 154.227 0.0463757 154.147 0.0659303C154.043 0.0905547 153.46 0.0775182 153.46 0.102143C153.46 0.136182 153.246 0.122421 153.177 0.0840364C153.132 0.0586878 153.012 0.0478241 152.788 0.0478241C152.315 0.0478241 152.549 0.0116118 152.335 0.0116118C152.211 0.0116118 152.395 0.0333392 152.006 0.0862091C151.758 0.119524 151.698 0.122421 151.758 0.097797C151.932 0.0231997 150.702 0.140527 150.528 0.0753454C150.438 0.0427543 150.104 0.0398573 150.104 0.0717241C150.104 0.0869333 150.07 0.086209 149.99 0.0681029C149.681 -0.00214898 148.287 0.102867 147.894 0.0463754C147.625 0.00726612 147.456 0.13763 147.232 0.0847604C147.003 0.0297177 146.798 0.128939 146.435 0.0760694C146.211 0.0434784 146.032 0.0420299 145.932 0.0724482C145.882 0.0869331 145.837 0.0876573 145.793 0.0738967C145.693 0.0442026 145.001 0.0796906 145.145 0.057239C145.22 0.0456511 145.25 -0.0166341 144.423 0.0203024C143.632 0.0550662 143.856 0.00364473 143.482 0.0174054C143.358 0.0224751 143.243 0.0188539 143.243 0.0101629C143.243 0.000747721 143.124 0.000747716 142.95 0.0101629C142.521 0.034063 142.033 -0.0260494 141.436 0.0514449C141.147 0.0891056 141.481 0.00292038 140.201 0.0326144C138.971 0.0615842 139.305 -0.0238768 138.732 0.00364451C138.304 0.0239234 137.637 0.00654144 137.637 0.0297173C137.637 0.0572387 136.97 0.0601356 136.825 0.0333385C136.676 0.00509291 136.268 0.0224748 136.268 0.0572386C136.268 0.111557 133.778 0.0203019 133.778 0.0427536C133.778 0.0608597 132.409 0.0717233 132.409 0.0456505C132.409 -0.0217044 128.819 0.0862081 127.848 0.0427533C127.146 0.0108865 127.37 0.0775171 127.007 0.0565139C126.882 0.0492715 126.802 0.053617 126.802 0.0666534C126.802 0.0796898 126.723 0.0840353 126.598 0.0775171C126.26 0.0594109 125.996 0.131111 126.13 0.0789655C126.329 0.00291972 125.334 0.0528926 125.279 0.0507199C125.12 0.0463744 125.234 0.109384 125.05 0.0623078C124.925 0.0311652 124.562 0.0369592 124.562 0.0695503C124.562 0.0782412 124.492 0.0970716 124.413 0.109384C124.069 0.163702 123.905 0.00436811 123.118 0.0775169C122.57 0.128938 122.326 -0.00504716 121.898 0.057238C121.684 0.0883805 121.45 0.092726 121.45 0.0666531C121.45 0.00509224 120.733 0.107211 120.648 0.086932C120.544 0.0623076 119.887 0.0883805 119.548 0.0637561C119.18 0.036959 118.697 0.0999683 117.531 0.0948986C117.118 0.0927258 116.75 0.0999682 116.705 0.110108C116.655 0.12242 116.561 0.121696 116.451 0.107211C116.147 0.0695499 115.978 0.149217 115.978 0.108659C115.978 0.0565135 115.052 0.162978 114.798 0.103589C114.654 0.0695498 114.31 0.153562 114.096 0.0977954C113.668 -0.0108415 113.145 0.190499 112.961 0.0891044C112.856 0.0311647 111.198 0.0347859 110.934 0.0724467C110.685 0.108659 110.297 0.11228 110.212 0.0796891C110.152 0.055789 109.311 0.0536162 109.152 0.0760678C109.027 0.0941739 108.833 0.0036432 108.639 0.047098C108.574 0.0615829 108.46 0.0659283 108.365 0.0579616C108.176 0.041304 107.22 0.0130583 107.319 0.0275432C107.424 0.0427524 106.383 0.209329 106.383 0.103589C106.383 0.0434766 106.08 0.0854829 105.99 0.0492706C105.88 0.00291883 104.516 0.149216 103.839 0.0695494C103.675 0.0499947 103.625 0.0514432 103.565 0.0746191C103.471 0.110831 103.341 0.11228 103.122 0.0796888C102.33 -0.0369149 102.276 0.169495 101.673 0.0818614C101.559 0.0652038 101.484 0.0652038 101.374 0.0818614C100.732 0.175289 101.33 -0.0376391 100.249 0.0376824C99.9604 0.057237 99.8209 0.0594097 99.7612 0.0449248C99.7014 0.0289914 99.6317 0.0297157 99.4824 0.0478218C99.2035 0.0811371 98.865 0.0420278 98.9645 0.0666522C99.0791 0.095622 98.1629 0.0478217 98.1629 0.0833098C98.1629 0.110831 97.914 0.113004 97.914 0.0767916C97.914 0.0282671 96.9729 0.075343 96.8435 0.0470974C96.7389 0.0246458 95.8974 0.0963461 95.5589 0.0688248C95.2701 0.0456489 94.8967 0.0536156 94.7025 0.0854824C94.583 0.105761 94.5232 0.106485 94.4734 0.0898278C94.3689 0.055064 93.866 0.0789641 93.7714 0.0442003C93.6419 -0.00287567 93.6668 0.0854823 93.2088 0.0507185C92.7457 0.0152304 93.0046 0.0789641 92.5216 0.0608579C92.0984 0.0449245 92.0038 0.12604 91.2769 0.108658C90.9881 0.10214 90.8138 0.0883792 90.8138 0.0724458C90.8138 0.0297153 90.3856 0.0543396 90.3408 0.0999671C90.2213 0.223813 89.2703 0.000745357 89.0313 0.0912761C88.9865 0.108658 88.9716 0.108658 88.9616 0.0905518C88.9168 0.0123333 87.2189 0.171667 86.5717 0.113003C86.4323 0.100691 86.0837 0.186876 86.0837 0.10214C86.0837 0.0695486 86.0638 0.0688243 85.8846 0.0948972C85.6605 0.127488 85.5111 0.130385 85.3966 0.104312C85.2273 0.0652031 85.1178 0.176737 84.7892 0.113003C84.6049 0.0775152 84.6 0.0775152 84.595 0.117349C84.59 0.14487 84.5103 0.157907 84.351 0.157907C83.8531 0.157906 84.7593 0.0941729 83.166 0.0941728C82.4789 0.0941728 82.0507 0.102139 81.9461 0.117349C81.7121 0.150664 81.0847 0.146318 81.1744 0.112279C81.269 0.0767908 81.0449 0.0775151 80.8408 0.114452C80.7263 0.13473 80.6615 0.136179 80.5918 0.120246C80.4524 0.0883787 80.2632 0.123143 79.4516 0.14994C78.8491 0.170218 79.3869 0.12097 79.1081 0.0956211C79.0732 0.0927241 76.8326 0.142697 76.5737 0.108657C76.1654 0.054339 76.1604 0.131109 75.6277 0.11083C75.2294 0.095621 75.5431 0.147042 75.0551 0.12966C74.8559 0.122418 74.7414 0.126039 74.7414 0.1398C74.7414 0.190497 74.4377 0.0883785 73.7556 0.153561C73.3573 0.191946 73.4021 0.150664 73.1631 0.178909C73.0386 0.193394 72.944 0.193394 72.8095 0.177461C72.4361 0.134006 68.9358 0.222364 68.9259 0.219467C68.7068 0.138351 68.4081 0.278855 68.1243 0.237573C68.0097 0.220915 67.1533 0.231055 66.3666 0.367937C66.4712 0.299134 66.4463 0.279579 66.3268 0.262921C66.1277 0.233952 64.9426 0.223812 64.8281 0.250609C64.6787 0.286097 64.3203 0.229606 64.1958 0.27813C64.1311 0.303479 64.1012 0.303479 63.9767 0.278855C63.663 0.217294 63.0257 0.355625 63.0257 0.27813C63.0257 0.2354 62.8016 0.246988 62.7469 0.292615C62.7021 0.331 62.6971 0.331 62.5627 0.285373C62.2191 0.168769 62.234 0.250609 61.8407 0.250609C61.3826 0.250609 61.6415 0.294064 61.293 0.27813C61.0988 0.269439 61.0689 0.274509 61.1237 0.309273C61.1884 0.349106 61.1834 0.349831 60.9445 0.318688C60.6208 0.277406 60.5013 0.278855 60.5959 0.323758C60.815 0.423704 59.8889 0.251333 59.6947 0.35997C59.5951 0.415013 59.4109 0.403425 59.4109 0.341864C59.4109 0.288994 59.2317 0.266542 59.1371 0.3071C59.0823 0.331 58.4201 0.34114 58.4499 0.317964C58.4848 0.294788 58.1661 0.27306 58.1661 0.31217C58.1661 0.344761 57.9022 0.349831 57.7031 0.321585C57.6035 0.3071 57.5139 0.31217 57.3745 0.341864C57.1504 0.388216 56.9114 0.376628 57.001 0.323758C57.1604 0.233951 56.543 0.347658 56.4484 0.309997C56.4035 0.292615 56.3089 0.293339 56.05 0.313618C55.5571 0.351279 55.577 0.304927 55.4725 0.346933C55.3181 0.406322 55.0243 0.305651 54.8053 0.357797C54.641 0.397631 54.0534 0.279578 54.0534 0.337518C54.0534 0.381697 52.6842 0.328827 52.6842 0.410667C52.6842 0.472228 52.3655 0.440361 52.4054 0.416461C52.4452 0.389664 52.3307 0.409218 52.0021 0.383146C51.3 0.327379 50.6179 0.436015 50.4934 0.388215C50.3839 0.346209 49.4876 0.384594 49.3831 0.392561C48.4371 0.468606 46.9533 0.394009 46.9533 0.462088C46.9533 0.493955 46.4554 0.491058 46.4554 0.467882C46.4554 0.444706 45.7085 0.441809 45.7085 0.472228C45.7085 0.488885 45.6787 0.488161 45.604 0.470055C45.5243 0.451224 45.4446 0.45557 45.2803 0.488161C44.9467 0.553343 45.1359 0.485264 44.6331 0.485264C44.4687 0.485264 44.3592 0.493231 44.399 0.501922C44.4887 0.522925 43.8962 0.545376 43.707 0.528719C43.458 0.506267 43.3734 0.587383 43.2588 0.543204C43.1294 0.493231 42.8207 0.596073 42.3477 0.553343C41.8746 0.510612 41.4763 0.619974 41.4763 0.550446C41.4763 0.518579 40.4357 0.509888 40.381 0.571449C40.3312 0.623595 40.0921 0.601867 40.1868 0.567104C40.4008 0.486712 36.2682 0.642425 36.2931 0.635182C36.4425 0.596073 33.9679 0.645322 33.8683 0.668498C33.5347 0.746716 34.0725 0.593176 31.7921 0.700364C31.6427 0.707607 30.4328 0.698192 29.7656 0.735128C29.2229 0.764822 28.9341 0.701089 28.8146 0.748889C28.725 0.784377 28.481 0.782204 28.5856 0.758304C28.6901 0.73368 28.2719 0.735852 28.2719 0.754683C28.2719 0.830004 25.4786 0.744543 25.1102 0.816243C24.8463 0.867665 24.0297 0.818416 23.716 0.862595C23.3725 0.910395 22.9293 0.854628 22.9692 0.916189C22.9941 0.954574 22.7451 0.965438 22.536 0.936468C22.3468 0.910395 21.8887 0.898807 21.9883 0.921983C22.063 0.939365 21.4157 0.93502 21.2165 0.916913C21.117 0.907498 21.0522 0.911119 21.0522 0.925604C21.0522 0.97268 20.9875 0.885047 20.5294 0.915465C20.0863 0.945159 19.5535 0.907498 19.4141 0.944435C19.2847 0.978474 18.5328 0.955298 18.6225 0.976301C18.7071 0.99658 18.3486 1.03569 18.1992 1.02265C18.1395 1.01686 18.0598 1.02917 18.025 1.04873C17.9503 1.09291 17.6316 1.10522 17.7362 1.04004C17.8407 0.977026 17.5619 0.988614 17.5619 1.0212C17.5619 1.05959 17.2632 1.01613 17.1437 1.05814C17.069 1.08494 17.0391 1.08494 16.7653 1.05814C16.4068 1.02338 15.8342 1.04873 15.7346 1.10304C15.645 1.15157 15.4508 1.15084 15.5305 1.10304C15.6201 1.05235 15.2765 1.06104 15.3562 1.09001C15.5703 1.17185 14.7537 1.15084 14.8832 1.12115C14.9927 1.09508 14.3205 1.03279 14.3205 1.11391C14.3205 1.21023 13.3247 1.17909 13.3247 1.21965C13.3247 1.25369 12.9065 1.24065 13.021 1.18851C13.1405 1.13274 12.9563 1.17764 12.5281 1.18778C12.1098 1.1972 12.0202 1.24717 11.9057 1.20154C11.7912 1.15519 11.4526 1.21385 11.5273 1.23124C11.6418 1.25876 11.2086 1.21385 11.2086 1.24789C11.2086 1.27686 10.8352 1.24282 10.8352 1.2689C10.8352 1.29787 10.1182 1.25948 9.78961 1.27759C9.28174 1.30583 9.42613 1.42895 9.22198 1.42895C8.97304 1.42895 9.27177 1.37174 8.56973 1.33335C8.1963 1.31308 7.84778 1.49052 7.2702 1.40505C6.86192 1.34494 6.90672 1.48979 6.13995 1.49559C5.87605 1.49776 5.61218 1.51152 5.52753 1.52818C5.42297 1.54846 5.35326 1.55063 5.28853 1.53759C5.12422 1.49993 4.69601 1.59481 4.44209 1.55787C3.77988 1.46155 3.05293 1.75197 2.98323 1.74617C2.77908 1.72807 3.0629 1.70996 2.85875 1.69186C2.78406 1.68534 2.73427 1.68823 2.73427 1.6991C2.73427 1.70924 2.65958 1.71286 2.56 1.70779C2.11189 1.68316 1.60402 1.78383 1.99736 1.81932C2.08699 1.82729 2.07703 1.83743 1.9675 1.84974C1.67871 1.88088 2.17163 1.83743 2.31105 1.86712C2.3708 1.88016 2.43553 1.87799 2.50523 1.86133C2.57495 1.84467 2.6098 1.85626 2.6098 1.89609C2.6098 1.99604 2.05713 1.92941 2.19653 1.98228C2.40068 2.05977 1.35507 1.89102 1.92268 2.08729C1.99239 2.11047 1.95753 2.11844 1.78326 2.11844C1.59407 2.11844 1.58908 2.12206 1.73846 2.13582C2.01729 2.16189 1.59904 2.17855 0.976669 2.16551C0.488724 2.15537 0.468796 2.15682 0.538498 2.19521C0.643066 2.25097 0.548462 2.26329 0.867126 2.26329C1.2057 2.26329 0.941818 2.23214 1.16588 2.23214C1.25549 2.23214 1.30528 2.24228 1.27541 2.25387C1.19077 2.28646 1.49449 2.30891 1.61897 2.27922C1.69864 2.26111 1.7285 2.26039 1.7285 2.2756C1.7285 2.30312 2.17165 2.28429 1.9924 2.25749C1.82809 2.23359 2.67949 2.15682 2.51021 2.22128C2.44051 2.24735 2.46541 2.24735 2.68947 2.21693C3.04796 2.16841 2.9882 2.05108 3.16248 2.06412C3.64047 2.09888 2.48035 2.28139 3.43632 2.28139C3.90933 2.28139 3.17242 2.35164 3.31184 2.40307C3.3716 2.42552 3.34171 2.42697 3.13258 2.41031C2.93343 2.3951 2.85875 2.39655 2.799 2.419C2.68947 2.45883 2.68947 2.45883 3.00314 2.46535C3.54088 2.47694 3.02306 2.57978 3.45126 2.5595C3.63051 2.55081 3.62553 2.55371 3.42636 2.57761C3.15253 2.6102 3.04796 2.69928 3.3019 2.68552C3.3965 2.68045 3.54585 2.70001 3.66536 2.7326C3.97903 2.82096 4.35246 2.77315 4.35246 2.80719C4.35246 2.82385 4.17821 2.83254 3.95415 2.82747C3.82469 2.82458 3.89439 2.90569 4.02882 2.91945C4.28773 2.94553 3.28696 2.9955 3.80975 3.01723C4.31264 3.0375 3.62552 3.08023 3.88443 3.16207C4.06866 3.22146 4.16824 3.17728 4.30267 3.2077C4.46201 3.24391 3.95912 3.23885 4.2728 3.27651C4.66614 3.32358 4.06369 3.34169 4.68607 3.38225C4.97485 3.40108 5.04456 3.40035 5.13914 3.37645C5.2238 3.35472 5.28853 3.35328 5.42795 3.36921C5.68686 3.39963 5.36819 3.43512 5.59224 3.41484C5.8163 3.39456 5.81134 3.47712 5.99059 3.47712C6.16484 3.47712 5.93083 3.52275 6.28932 3.52275C6.63786 3.52275 7.06606 3.60387 7.31003 3.593C7.89755 3.56765 7.8876 3.56838 7.68845 3.53506C7.4843 3.50175 7.5988 3.4228 7.84776 3.4228C8.04692 3.4228 7.75815 3.38659 8.01706 3.38659C8.11664 3.38659 8.22618 3.40325 8.26103 3.4228C8.4104 3.50537 9.2668 3.44091 9.30165 3.34458C9.35144 3.20698 10.0883 3.24754 10.0883 3.22581C10.0883 3.20191 10.4767 3.21784 10.3821 3.25188C10.2676 3.29534 10.88 3.2613 11.0344 3.29823C11.0941 3.31272 11.0692 3.31489 10.9597 3.30475C10.8452 3.29461 10.8252 3.29678 10.885 3.31127C11.0095 3.34096 11.4576 3.32503 11.4576 3.34965C11.4576 3.39673 12.777 3.31996 12.8268 3.32431C13.0409 3.34314 13.2102 3.31417 13.0857 3.28013C12.9214 3.2345 13.0857 3.21712 13.2849 3.2584C13.6085 3.32575 14.1961 3.25695 14.1313 3.24029C14.0616 3.22364 14.3255 3.21567 14.7338 3.22074C14.9828 3.22436 15.0276 3.19612 14.7935 3.18235C14.6492 3.17366 15.0276 3.1389 15.5305 3.24898C15.7246 3.21639 16.0831 3.15121 16.1976 3.16135C16.3669 3.17584 16.4516 3.10414 16.815 3.13311C17.6017 3.19539 17.303 3.09182 17.6366 3.10993C17.8059 3.11935 17.8258 3.10776 17.7511 3.03171C17.5669 2.84341 18.0001 3.07879 18.0499 3.07879C18.3934 3.07879 18.1743 2.99622 18.6473 3.05996C19.0506 3.11428 19.434 3.06503 19.434 3.10703C19.434 3.12152 19.3444 3.13311 19.2349 3.13311C18.9511 3.13311 19.0706 3.19467 19.3743 3.20118C19.8224 3.21132 20.2008 3.24609 20.0365 3.2613C19.7975 3.28302 20.4348 3.36342 20.4348 3.33372C20.4348 3.31489 20.4747 3.31489 20.624 3.33227C21.0672 3.38514 20.863 3.29461 21.4356 3.25043C21.6497 3.23378 21.8091 3.22871 21.8091 3.2374C21.8091 3.28592 22.9293 3.1838 22.9293 3.19901C22.9293 3.22653 23.3227 3.24464 23.4671 3.22436C23.6862 3.19249 23.1982 3.17294 23.4422 3.13745C23.6264 3.11065 23.9252 3.12876 23.8405 3.16135C23.7658 3.19032 24.1143 3.19684 24.2338 3.16859C24.3434 3.14252 25.0255 3.15194 25.1002 3.18163C25.2147 3.22581 25.4487 3.20698 25.3691 3.1599C25.2794 3.10703 25.5882 3.09472 25.7226 3.14542C25.7973 3.17439 25.8321 3.17294 25.9815 3.13238C26.2255 3.06937 25.9715 3.14252 26.5939 3.12804C26.9425 3.12007 27.0271 3.12442 27.0819 3.15338C27.1914 3.21567 27.7939 3.14469 27.7939 3.18598C27.7939 3.19684 27.8486 3.20191 27.9084 3.19684C28.0677 3.18308 27.8437 3.10051 27.9681 3.11717C28.0976 3.13455 29.2478 3.05271 29.3424 3.07662C29.4469 3.10124 29.0536 3.10196 29.193 3.12369C29.3224 3.14325 29.8054 3.08748 30.154 3.10124C30.4826 3.11428 30.4228 3.08096 30.9158 3.08603C31.4236 3.0911 31.2643 3.07299 31.6825 3.0404C32.1755 3.00274 31.6128 3.115 31.9464 3.115C32.5987 3.115 32.0709 2.96508 32.6335 3.0462C32.8327 3.07517 33.2758 3.00709 33.1215 3.03316C32.9522 3.06213 33.2808 3.09545 33.5795 3.07879C34.0476 3.05272 34.2766 3.11428 34.2766 3.08531C34.2766 3.07806 34.3911 3.08748 34.5256 3.10559C34.9438 3.1599 34.6301 3.24754 34.9637 3.22943C35.4168 3.20553 34.9587 3.48364 35.5911 3.50609C36.1537 3.52565 35.5762 3.55607 35.9595 3.61038C36.2234 3.64805 36.4126 3.64877 36.318 3.61256C36.1039 3.53289 36.7363 3.65529 36.9255 3.61835C37.0251 3.59807 37.0549 3.59807 37.1047 3.61835C37.1495 3.63501 37.2192 3.63573 37.3288 3.62197C37.5031 3.60097 37.9213 3.61763 37.8217 3.64153C37.5927 3.69585 38.7628 3.6169 38.7628 3.55462C38.7628 3.50827 39.0416 3.54231 40.1569 3.50899C40.3809 3.50247 40.2714 3.57852 40.4307 3.572C40.5701 3.56693 40.605 3.45829 40.4706 3.45829C40.371 3.45829 40.8838 3.35328 40.8838 3.45105C40.8838 3.48219 40.9286 3.49233 41.0282 3.48364C41.1278 3.47495 41.1477 3.48074 41.0929 3.50247C41.0282 3.52782 41.0681 3.53217 41.307 3.52348C41.5659 3.51406 42.756 3.57562 43.0497 3.50899C43.2389 3.46626 43.4729 3.46698 43.5675 3.51116C43.687 3.56621 44.3144 3.50971 44.3144 3.43657C44.3144 3.23812 45.2903 3.57128 45.9625 3.45829C46.321 3.39818 47.6653 3.50175 47.5359 3.40542C47.4263 3.32576 47.4263 3.29606 47.5259 3.29534C48.3026 3.28665 47.6006 3.39528 48.5117 3.3091C48.8005 3.28158 48.8105 3.2823 48.8304 3.31489C48.8553 3.36342 48.6113 3.33879 48.6113 3.37356C48.6113 3.4018 49.403 3.41774 49.3134 3.36342C49.2337 3.31417 49.647 3.31851 49.5573 3.28303C49.4379 3.23667 50.1698 3.25985 49.7067 3.32721C49.3432 3.38008 51.3199 3.33879 51.549 3.37283C51.6685 3.39021 51.9573 3.31344 51.9672 3.34386C51.9772 3.37573 52.5199 3.34314 52.4153 3.36631C52.3556 3.38008 52.5647 3.44091 52.9082 3.38514C53.2269 3.333 53.5705 3.36197 53.68 3.31996C53.7447 3.29606 53.7796 3.29824 53.914 3.33445C54.0883 3.38152 54.5165 3.39311 54.7306 3.35618C55.0293 3.30475 55.0094 3.41267 55.3629 3.37283C55.6019 3.34604 55.9903 3.34966 55.9106 3.3779C55.8758 3.39021 55.9057 3.40687 55.9704 3.41267C56.3338 3.44598 56.4583 3.27651 56.777 3.35038C57.0708 3.41918 56.6276 3.24319 57.9371 3.44671C59.0474 3.29317 58.7537 3.39891 58.903 3.34169C59.1271 3.25478 59.3263 3.4076 59.9188 3.32721C60.6308 3.23088 61.1884 3.37356 61.1884 3.26637C61.1884 3.21929 61.2034 3.21857 61.4274 3.24826C61.6465 3.27796 61.6764 3.27723 61.8158 3.23885C62.1145 3.15701 62.3734 3.33807 62.2141 3.32431C62.0299 3.30838 61.8905 3.34314 62.1394 3.34314C62.4282 3.34314 63.2199 3.0882 63.0655 3.27071C63.0207 3.32503 64.3103 3.40977 63.5933 3.28882C62.3286 3.07589 64.1311 3.18163 64.2107 3.20915C64.3153 3.24754 64.6787 3.25116 64.6787 3.21495C64.6787 3.18598 65.0123 3.16208 65.1916 3.17801C65.4555 3.20191 64.4796 3.27434 65.9882 3.26854C67.1583 3.2642 67.1982 3.34966 67.2778 3.31272C67.3575 3.27578 66.7401 3.24609 67.0139 3.22871C67.1832 3.21784 67.1832 3.1686 67.1932 3.12297C67.8554 3.38732 67.955 3.06865 68.7118 3.06865C68.9956 3.06865 69.364 3.15701 68.9109 3.17367C68.5873 3.18598 68.5923 3.25116 68.8163 3.22943C69.0155 3.20988 69.4835 3.19539 69.4337 3.25913C69.384 3.32069 69.2694 3.32721 69.8819 3.21712L69.9665 3.25695C70.0711 3.3062 70.2802 3.30693 70.2802 3.2584C70.2802 3.21133 70.7283 3.21133 70.9026 3.2584C71.0022 3.2852 71.1366 3.29172 71.4951 3.28665C72.3515 3.27506 71.7042 3.21929 72.1225 3.14542C72.3316 3.10921 72.0278 3.08169 72.2967 3.11211C72.7548 3.16353 72.934 3.06575 73.0734 3.17439C73.2228 3.29027 73.9149 3.26275 74.0842 3.35835C74.1638 3.40542 74.5124 3.42136 74.5124 3.37863C74.5124 3.3359 74.8261 3.31417 75.548 3.30838C76.509 3.30041 76.4293 3.27723 76.2451 3.27723C76.031 3.27723 75.6626 3.20119 75.9264 3.21567C76.0161 3.22074 76.1306 3.20988 76.1754 3.19394C76.2451 3.16715 76.2899 3.1686 76.5339 3.20698C77.2907 3.32576 77.4351 3.11283 77.9977 3.26709C78.2716 3.34242 77.6193 3.36269 78.0226 3.34531C78.3463 3.33083 78.5006 3.39022 78.5006 3.35545C78.5006 3.32358 78.8741 3.37935 78.8741 3.30548C78.8741 3.23305 79.0135 3.27941 79.5611 3.28737C79.7255 3.28955 79.8499 3.31127 79.9246 3.34893C80.0491 3.41267 80.4474 3.4315 80.3379 3.36921C80.2931 3.34531 80.3379 3.333 80.4574 3.333C80.5769 3.333 80.6167 3.32286 80.5719 3.30475C80.4723 3.26782 80.7462 3.2823 80.7462 3.34531C80.7462 3.43802 80.9603 3.31489 81.3885 3.32793C81.5179 3.33155 81.6225 3.31779 81.6673 3.29099C81.7768 3.22726 82.1154 3.21133 82.1154 3.26927C82.1154 3.34531 82.459 3.28448 82.7826 3.35255C83.0166 3.40108 83.2855 3.38152 83.2058 3.32141C83.1759 3.29751 83.2008 3.27796 83.2656 3.27796C83.6091 3.27796 83.6888 3.1657 84.0373 3.23016C84.351 3.28882 84.7294 3.21567 84.7294 3.26854C84.7294 3.31417 85.2273 3.27506 85.2273 3.32938C85.2273 3.42281 85.4763 3.34024 86.1982 3.36125C87.1941 3.38949 87.3235 3.38659 87.453 3.33155C87.5924 3.27361 87.9061 3.25768 87.7816 3.31489C87.6521 3.37501 87.7766 3.41267 88.2894 3.31345C89.4595 3.44671 90.3259 3.26854 90.3408 3.40253C90.3458 3.44598 90.3657 3.44816 90.5101 3.41991C90.8288 3.35762 92.5864 3.34676 92.6461 3.33228C92.7557 3.3062 93.1092 3.35763 93.2486 3.33879C93.3781 3.32141 93.5722 3.39166 93.5722 3.35763C93.5722 3.31489 94.817 3.38442 94.817 3.32503C94.817 3.25044 95.1257 3.3808 95.5041 3.33517C95.7879 3.30041 96.5647 3.34386 96.5647 3.32141C96.5647 3.29969 97.2418 3.25696 97.2866 3.27579C97.3015 3.28303 97.6451 3.38225 97.7596 3.32141C97.8492 3.27216 97.8891 3.27072 98.133 3.30693C98.3223 3.33445 98.611 3.32721 98.4915 3.29824C98.392 3.27434 99.801 3.18308 99.801 3.25116C99.801 3.28737 100.06 3.30765 100.174 3.28013C100.334 3.24319 101.021 3.28448 101.091 3.25406C101.17 3.22002 101.574 3.31924 101.808 3.28593C101.957 3.2642 101.509 3.20771 101.185 3.20771C100.488 3.20771 102.455 3.07517 102.475 3.15339C102.485 3.19539 103.142 3.17439 103.386 3.19612C103.461 3.20264 103.545 3.19684 103.585 3.18236C103.655 3.15484 104.79 3.14977 104.79 3.17656C104.79 3.20481 105.502 3.11211 105.482 3.19322C105.472 3.24464 105.91 3.26203 105.91 3.20771C105.91 3.18019 106.259 3.13094 106.334 3.22436C106.363 3.26058 106.523 3.26275 106.647 3.22799C106.797 3.18743 107.155 3.19322 107.155 3.2374C107.155 3.29317 107.439 3.22654 107.782 3.2403C107.967 3.24754 108.056 3.23957 108.106 3.21205C108.186 3.16643 108.4 3.15918 108.4 3.20119C108.4 3.23378 108.46 3.22219 108.873 3.15194C109.301 3.1867 109.749 3.22654 109.834 3.20626C110.123 3.1389 110.984 3.28955 111.377 3.25478C111.596 3.23523 111.362 3.17294 111.089 3.17729C110.904 3.18019 110.815 3.16932 110.79 3.14035C110.74 3.08459 110.934 3.10559 111.801 3.08965C112.528 3.07662 112.104 3.1867 112.811 3.11356C113.025 3.09183 113.155 3.08169 113.12 3.0911C112.966 3.12876 113.249 3.19105 113.573 3.19105C114.041 3.19105 113.673 3.15411 114.385 3.16208C114.659 3.16498 114.883 3.15991 114.883 3.15049C114.883 3.14108 114.957 3.13746 115.047 3.14253C115.271 3.15484 115.475 3.07662 115.634 3.09183C115.794 3.10704 116.182 3.02809 116.446 3.02809C116.67 3.02809 116.864 3.12297 116.66 3.13239C115.993 3.16498 117.382 3.15991 117.576 3.13673C117.92 3.09473 117.87 3.16715 118.263 3.13601C118.766 3.09617 117.89 3.19177 119.812 3.17077C121.729 3.14977 120.927 3.094 121.624 3.11283C122.73 3.14253 123.476 2.93829 124.333 3.01723C124.656 3.04693 124.781 2.96146 124.945 3.02158C125.095 3.07807 124.731 3.04693 124.731 3.08893C124.731 3.11428 126.165 3.09545 126.399 3.06648C126.499 3.05417 126.593 3.05272 126.618 3.06141C126.723 3.09979 129.715 3.01433 129.71 2.97233C129.71 2.95712 130.208 2.96798 130.208 3.00347C130.208 3.03679 131.194 3.03172 131.428 2.99768C131.567 2.97812 131.642 2.97667 131.777 2.99333C132.499 3.07952 133.818 2.9057 133.818 2.99985C133.818 3.01289 134.191 3.02085 134.938 3.0223C136.542 3.02592 135.894 2.9745 136.183 2.9745C136.372 2.9745 136.208 3.00275 136.527 3.01651C137.064 3.03896 137.159 3.06576 137.089 2.99406C137.01 2.91511 137.433 2.96074 137.433 2.97523C137.433 2.99913 138.045 3.00854 138.11 2.98609C138.205 2.9535 138.618 3.06286 138.712 3.0252C138.757 3.00709 138.812 3.00782 138.976 3.02737C139.395 3.07662 139.061 2.96581 139.33 2.95277C139.599 2.94046 139.942 3.0701 140.49 3.03316C141.152 2.98899 140.644 3.10994 141.75 3.06576C142.248 3.04548 142.307 3.03896 142.138 3.02085C141.774 2.98247 141.974 2.89266 142.377 2.91439C142.477 2.92018 142.626 2.91511 142.726 2.90353C142.994 2.87166 143.472 2.94626 143.373 3.0042C143.174 3.11935 144.03 2.96002 144.578 2.98174C144.817 2.99116 144.916 2.98392 145.041 2.94988C145.215 2.9028 145.663 2.90642 145.673 2.95567C145.678 2.9716 145.708 2.97378 145.977 2.88107C146.43 2.94191 146.898 3.00999 146.923 2.95205C146.928 2.94046 146.973 2.94988 147.017 2.97378C147.127 3.03027 147.326 3.04041 147.58 3.00275C147.854 2.96291 147.944 3.00057 148.307 3.00564C148.641 3.00999 148.745 3.00347 148.845 3.04982C148.974 3.11138 149.392 3.05417 149.407 3.09038C149.412 3.10197 149.472 3.09328 149.552 3.06938C149.885 2.96943 150.682 3.03461 150.876 3.00709C151.001 2.98899 151.026 2.99188 150.991 3.02085C150.921 3.08024 150.478 3.14687 151.185 3.094C151.474 3.07227 151.499 3.073 151.429 3.0998C151.284 3.15267 151.772 3.06938 151.772 3.09328C151.772 3.10052 151.867 3.09473 151.977 3.08169C152.156 3.05996 152.176 3.06141 152.121 3.094C152.031 3.14832 152.529 3.13891 152.45 3.11935C152.41 3.10921 152.44 3.10197 152.514 3.10197C152.639 3.10197 152.972 3.26637 153.102 3.13818C153.187 3.05272 153.261 3.03968 153.445 3.07662C153.6 3.10776 153.615 3.10776 153.694 3.06938C153.983 2.93901 154.581 3.15846 154.078 3.13166C153.864 3.12008 153.694 3.17729 154.322 3.15629C154.929 3.13601 154.81 3.1715 155.074 3.13891C155.213 3.12225 155.263 3.12152 155.263 3.13673C155.263 3.15267 155.323 3.15267 155.537 3.13601C156.005 3.09907 155.731 3.15629 156.074 3.15629C156.338 3.15629 156.03 3.22871 156.239 3.22871C156.403 3.22871 156.453 3.15339 156.592 3.15774C156.856 3.16643 157.085 3.11356 157.279 3.16281C157.533 3.22871 158.141 3.12877 158.3 3.21278L158.38 3.25551C158.773 3.18743 158.843 3.16788 158.907 3.20554C158.952 3.23233 158.987 3.23016 159.102 3.19178C159.176 3.16643 159.241 3.15846 159.246 3.17367C159.251 3.19757 159.266 3.19757 159.37 3.17439C159.54 3.13673 159.271 3.094 159.689 3.16425C160.117 3.23595 160.038 3.25913 159.928 3.06286C161.014 3.0969 161.123 3.11138 161.462 3.06576C161.81 3.01868 161.875 3.01868 161.875 3.06648C161.875 3.09545 161.925 3.10052 162.124 3.09183C162.482 3.0759 162.278 3.11935 162.562 3.11935C162.836 3.11935 162.687 3.16281 162.876 3.14687C163.02 3.13384 163.04 3.00709 163.174 3.10342C163.249 3.15774 163.404 3.19105 163.523 3.18091C163.613 3.17295 163.633 3.17874 163.588 3.19685C163.458 3.24537 163.936 3.2193 163.812 3.28738C163.762 3.3149 163.777 3.31997 163.852 3.30476C164.195 3.23306 164.205 3.44526 164.947 3.32866C165.106 3.30331 165.246 3.29027 165.246 3.30041C165.246 3.333 166.441 3.33156 166.789 3.28593C167.103 3.24537 167.596 3.24537 167.69 3.28665C167.785 3.33011 168.034 3.32866 167.959 3.28448C167.885 3.24247 168.099 3.18743 168.198 3.22292C168.233 3.23596 168.353 3.24682 168.462 3.24682C168.885 3.24682 169.597 3.41195 169.423 3.31924C169.334 3.27362 169.244 3.25768 169.418 3.25189C169.687 3.24392 169.627 3.15122 169.807 3.2193C170.105 3.33156 170.608 3.22582 170.608 3.29752C170.608 3.40833 171.604 3.36704 171.604 3.40108C171.604 3.43585 171.968 3.43585 172.057 3.40108C172.097 3.3866 172.192 3.37936 172.266 3.3866C172.61 3.41774 173.083 3.39674 172.739 3.36632C172.48 3.34314 172.978 3.23668 172.978 3.30403C172.978 3.31562 173.053 3.31997 173.153 3.31417C173.267 3.30766 173.307 3.3149 173.267 3.33663C173.187 3.38008 173.426 3.40326 173.665 3.37501C173.82 3.3569 173.855 3.3598 173.855 3.39239C173.855 3.46047 174.821 3.32576 174.542 3.39239C174.447 3.41557 174.716 3.42064 174.811 3.38298C174.905 3.34604 175.433 3.34821 175.577 3.3866C175.652 3.40688 175.717 3.40905 175.776 3.39457C176.006 3.33952 176.732 3.40688 176.374 3.42426C176.185 3.43367 176.17 3.50393 176.329 3.46771C176.414 3.44888 176.474 3.44961 176.633 3.47278C176.892 3.50972 176.971 3.50755 176.971 3.46409C176.971 3.40977 177.196 3.40253 177.24 3.45468C177.295 3.51696 177.534 3.49741 177.514 3.46916C177.484 3.43078 177.813 3.42788 177.878 3.46554C177.962 3.51479 178.336 3.48872 178.56 3.52203C178.829 3.56042 178.6 3.4822 178.834 3.4822C178.903 3.4822 178.958 3.49596 178.958 3.51189C178.958 3.56549 179.735 3.50103 179.675 3.54014C179.63 3.57273 180.417 3.57563 180.636 3.54376C180.885 3.50755 181.199 3.52348 181.298 3.57852C181.363 3.61329 181.388 3.60967 181.507 3.54738C181.652 3.47278 181.985 3.43295 181.941 3.49451C181.851 3.62343 182.523 3.53869 182.364 3.5749C182.319 3.58504 182.364 3.59011 182.463 3.58722C183.36 3.56187 182.976 3.71903 183.957 3.64226C184.146 3.62777 184.181 3.6285 184.111 3.64515C183.932 3.68789 184.828 3.63212 184.719 3.6734C184.619 3.71106 185.779 3.69006 185.989 3.6495C186.297 3.59084 186.018 3.66109 186.347 3.72555C186.805 3.81608 186.75 3.62488 187.253 3.70527C187.313 3.71468 187.278 3.71541 187.179 3.70672C186.954 3.68789 187.029 3.73351 187.557 3.7212C188.199 3.70672 187.98 3.75814 188.249 3.76321C188.508 3.76828 189.021 3.80232 189.145 3.77407C189.205 3.76031 190.121 3.70309 190.046 3.80376C189.982 3.8914 190.34 3.85808 190.335 3.80304C190.33 3.74655 190.624 3.74293 190.719 3.79725C190.778 3.83201 190.863 3.83636 191.336 3.83346C191.859 3.82984 192.083 3.84722 191.749 3.8646C191.575 3.87329 192.805 3.90009 192.71 3.8646C192.66 3.84722 192.705 3.84577 192.89 3.86026C193.228 3.88561 193.203 3.8646 193.626 3.8856C194.099 3.90878 194.144 3.82187 194.144 3.89285C194.144 4.008 194.931 3.89502 195.18 3.93123C195.404 3.96382 195.723 3.93558 195.952 3.98121C196.235 4.03842 197.331 3.92399 197.176 3.98048C197.012 4.04059 197.62 3.987 197.63 3.89357C197.635 3.8197 197.729 3.88923 198.357 3.80666C198.904 3.73424 199.049 3.75959 198.974 3.72989C198.825 3.66978 199.596 3.67195 199.128 3.58504C198.904 3.54304 198.899 3.53797 199.088 3.53217C199.288 3.52638 199.288 3.52421 199.078 3.49306C198.73 3.44237 199.088 3.38515 198.815 3.40108C198.561 3.41557 198.451 3.40398 198.854 3.23596C199.467 3.46337 198.83 3.3359 199.681 3.3359C199.91 3.3359 199.9 3.33156 199.586 3.29534C199.223 3.25334 199.218 3.18309 199.576 3.20264C199.746 3.21206 200.249 3.20699 199.95 3.16353C199.666 3.12225 199.442 3.14977 199.556 3.10487C199.686 3.05417 199.651 3.04113 199.786 3.02665C199.96 3.00782 199.586 2.92888 199.322 2.92888C198.924 2.92888 198.959 2.88832 199.382 2.8579C200.025 2.81082 200.617 2.91874 200.617 2.80431C200.617 2.72174 200.971 2.79996 201.463 2.78185C201.678 2.77389 201.822 2.77968 201.927 2.79924C202.066 2.82603 202.096 2.82603 202.33 2.79417C202.584 2.7594 202.584 2.7594 202.663 2.80503C202.748 2.85428 203.231 2.86804 203.231 2.82169C203.231 2.78185 203.764 2.78692 203.948 2.82893C204.202 2.88687 204.819 2.81662 204.237 2.90715C203.525 3.01796 204.705 2.88687 204.844 2.92091C204.919 2.93902 205.014 2.93829 205.297 2.91801C205.85 2.8789 206.134 2.91874 206.024 2.87963C205.93 2.84486 206.517 2.82314 206.428 2.85573C206.333 2.89194 206.796 2.9057 206.985 2.87239C207.125 2.84704 207.16 2.85066 207.209 2.89629C207.299 2.97016 207.847 2.96581 207.772 2.93612C207.687 2.90353 207.951 2.84849 208.041 2.87963C208.125 2.91005 208.364 2.9086 208.28 2.88759C208.245 2.8789 208.29 2.87239 208.394 2.87239C208.584 2.87239 208.598 2.94191 208.419 2.96074C208.349 2.96799 208.349 2.98392 208.419 3.00203C208.638 3.06069 208.992 2.94553 209.191 2.96509C209.34 2.97957 209.081 2.84342 209.335 2.82096C209.445 2.81155 209.47 2.81662 209.41 2.83835C209.315 2.87456 209.45 2.87818 209.679 2.84559C209.813 2.82603 209.818 2.8311 209.709 2.87311C209.559 2.93105 209.619 2.95857 209.903 2.95857C210.142 2.95857 210.117 2.99985 209.933 2.98392C209.848 2.97668 209.828 2.9803 209.883 2.99333C210.022 3.02665 210.446 2.98392 210.376 2.94409C210.271 2.88542 211.073 2.92888 211.073 2.94191C211.073 2.97668 212.318 2.94264 212.318 2.86732C212.318 2.84342 212.816 2.84269 212.816 2.86949C212.816 2.89846 213.134 2.8579 213.284 2.89701C213.508 2.95423 214.399 2.86804 213.951 2.86804C213.732 2.86804 214.165 2.72826 213.772 2.77461C213.468 2.81082 213.787 2.82893 213.378 2.81807C213.055 2.80938 213.08 2.76592 213.418 2.75578C213.533 2.75216 213.632 2.73333 213.632 2.71378C213.632 2.66453 213.906 2.68191 214.578 2.6667C215.041 2.65656 215.519 2.71595 215.649 2.69784C215.893 2.66235 215.061 2.65294 215.061 2.60369C215.061 2.58051 215.415 2.64642 215.664 2.61021C215.883 2.57834 216.411 2.67539 216.226 2.60586C216.117 2.56458 216.864 2.58196 216.729 2.59065C216.45 2.60731 217.237 2.84559 216.366 2.82241C215.893 2.8101 216.037 2.86876 216.241 2.86876C216.55 2.86876 216.321 2.81589 216.615 2.85138C216.799 2.87383 217.665 2.8608 217.66 2.86514C217.506 3.01796 218.855 2.92815 218.308 2.86587C217.864 2.81517 218.492 2.813 218.377 2.76882C218.298 2.7384 218.532 2.70581 218.746 2.7174C219.129 2.7384 218.572 2.66598 219.393 2.54068C219.458 2.56024 219.981 2.73333 219.508 2.69422C219.288 2.67612 219.672 2.71378 219.672 2.77099C219.672 2.80358 219.752 2.81227 220.125 2.81807C220.538 2.82459 220.598 2.81952 220.747 2.7652C220.837 2.73261 220.976 2.70509 221.046 2.70509C221.121 2.70509 221.146 2.69712 221.101 2.68698C220.991 2.66091 221.29 2.67974 221.29 2.64135C221.29 2.60152 221.589 2.62325 221.474 2.59572C221.35 2.56603 221.564 2.48636 221.773 2.48491C221.898 2.48419 221.912 2.47984 221.818 2.47405C221.629 2.46319 221.664 2.41901 222.146 2.46826C222.51 2.50519 222.849 2.51751 222.724 2.48854C222.624 2.46464 223.112 2.4516 223.267 2.47405C223.496 2.50737 223.78 2.42625 223.78 2.46753C223.78 2.4965 223.954 2.45377 224.278 2.49578C224.507 2.52547 224.521 2.52475 224.661 2.47912C224.84 2.42263 225.079 2.41394 224.96 2.46826C224.741 2.56893 225.677 2.47405 225.881 2.51099C226.075 2.54503 225.761 2.56965 225.98 2.55299C226.07 2.54648 226.16 2.54865 226.209 2.55951C226.349 2.59283 226.553 2.57979 226.483 2.54141C226.399 2.49433 226.528 2.52113 226.976 2.46898C227.718 2.3828 227.25 2.46391 227.838 2.50302C228.236 2.52909 228.281 2.52909 228.251 2.50157C228.166 2.4277 228.863 2.35238 228.769 2.49216C228.739 2.53344 229.102 2.53199 229.192 2.48998C229.276 2.4516 229.635 2.44436 229.635 2.48057C229.635 2.51606 229.854 2.50954 229.998 2.46971C230.203 2.41466 230.506 2.46681 230.506 2.43277C230.506 2.39511 230.905 2.46029 231.129 2.44074C231.223 2.41901 231.557 2.43856 231.308 2.46174C230.949 2.49433 231.905 2.47188 231.587 2.41539C231.457 2.39149 231.462 2.38642 231.622 2.38642C232.254 2.38642 231.119 2.30023 231.637 2.22708C231.761 2.20898 232.822 2.23795 232.822 2.20753C232.822 2.17494 232.105 2.20391 231.985 2.15828C231.925 2.13438 231.89 2.13366 231.806 2.15393C231.592 2.20391 231.642 2.08079 232.284 2.09817C232.772 2.1112 233.08 2.00619 232.981 2.00764Z" fill="#BDAB73"/>
</svg>
