<svg width="542" height="433" viewBox="0 0 542 433" fill="none" xmlns="http://www.w3.org/2000/svg">
<path d="M489.625 428.848C502.304 421.704 504.649 403.656 511.113 387.784C519.496 367.167 526.731 346.084 532.038 324.562C542.479 282.381 545.727 238.203 535.536 197.378C522.321 144.461 487.814 101.405 446.279 71.1127C356.119 5.38216 221.833 -40.1098 121.701 52.3424C76.2255 94.3525 33.6496 155.509 6.97815 212.3C-5.76031 239.454 -0.235814 247.353 24.7525 257.248C94.2206 284.768 163.476 312.815 232.695 340.935C297.355 367.206 362.03 399.655 429.514 418.378C444.755 422.607 460.769 432.615 477.585 431.977C482.431 431.803 486.376 430.651 489.625 428.848Z" fill="#FFC061" fill-opacity="0.38"/>
</svg>
