<svg width="268" height="252" viewBox="0 0 268 252" fill="none" xmlns="http://www.w3.org/2000/svg">
<path d="M267.286 131.805C270.269 161.069 258.164 185.423 241.487 207.624C231.86 220.438 217.093 228.169 205.099 238.707C200.304 242.924 194.572 246.091 188.458 245.818C179.966 245.435 172.397 247.958 164.632 250.382C159.282 252.04 154.08 251.013 149.051 248.96C138.561 244.643 127.541 243.134 116.472 244.594C104.787 246.14 94.3588 244.557 84.2265 238.15C72.6273 230.828 59.8325 225.497 48.5785 217.507C32.7391 206.264 22.1507 190.791 13.4236 173.809C10.2311 167.6 6.53316 161.614 3.87066 155.194C-2.74862 139.202 -0.0984395 123.618 5.96615 107.91C12.8073 90.1607 24.4064 75.8751 37.5587 62.8758C45.6325 54.9104 52.8065 46.3143 60.0914 37.7306C70.7784 25.1147 83.0555 15.863 100.719 15.393C108.867 15.1704 116.238 10.3962 123.967 7.71219C138.672 2.59163 153.784 -2.29394 169.476 1.15688C180.212 3.51927 191.614 3.11111 201.697 8.35536C207.33 11.2867 212.939 14.2675 218.56 17.2483C218.917 17.4338 219.373 17.6441 219.546 17.9657C227.102 32.9934 243.816 41.3545 249.104 57.8294C255.218 76.8893 265.227 94.7618 266.472 115.38C266.78 120.872 267.841 126.339 267.286 131.805ZM264.192 139.066C264.907 100.773 254.084 70.1856 235.595 42.3317C230.676 34.9229 223.663 28.5779 217.426 22.0349C208.501 12.672 196.298 9.17168 183.479 6.54955C161.427 2.04741 140.472 3.22242 119.948 12.6101C113.058 15.7641 105.921 18.9552 98.2662 19.0541C80.9107 19.2768 70.0265 30.2724 60.1653 42.1461C53.1886 50.5567 45.953 58.6086 38.1627 66.2029C22.5698 81.3791 10.8597 98.9547 4.64722 119.994C1.77517 129.703 1.26979 139.709 4.79514 149.06C10.8351 165.052 19.5498 179.783 28.9302 194.032C32.5295 199.498 37.2382 204.137 42.329 208.391C56.4674 220.253 72.8246 228.317 88.9352 236.963C97.8348 241.737 106.932 242.85 116.263 241.353C127.702 239.511 138.265 241.947 148.743 245.682C156.065 248.292 163.078 248.28 170.314 245.435C175.245 243.493 180.607 241.255 185.722 242.096C192.674 243.233 197.679 240.302 202.683 236.74C206.689 233.895 210.547 230.803 214.208 227.513C222.134 220.376 232.39 215.652 238.578 206.895C253.788 185.374 267.421 163.024 264.192 139.066Z" fill="#A0A0A0"/>
<path d="M187.707 213.364C176.317 209.171 164.693 216.765 152.354 217.68C142.481 218.41 133.409 216.913 124.78 213.586C113.304 209.171 101.41 207.983 89.5515 205.918C68.8062 202.294 52.9915 191.756 43.3522 172.35C35.414 156.357 34.8593 139.932 39.5064 123.209C44.5232 105.176 50.3906 87.3902 61.4843 71.9667C63.7401 68.8251 66.4026 65.7824 69.4472 63.4448C77.0156 57.6316 83.5486 51.0391 88.6763 42.9007C91.9305 37.7183 98.18 36.4567 103.394 34.589C117.237 29.6664 131.695 28.615 146.389 28.949C154.487 29.1345 162.585 26.735 170.795 28.6645C180.04 30.8414 188.643 34.3045 192.822 43.4572C197.987 54.7868 206.788 63.6674 212.532 74.5641C215.885 80.9091 220.581 86.5739 223.638 93.0303C230.849 108.281 235.841 123.914 234.473 141.441C232.92 161.329 227.472 179.276 214.726 194.749C209.882 200.636 204.631 206.116 198.221 210.321C195.497 212.139 192.711 214.031 187.707 213.364ZM140.164 32.0164C125.853 31.6206 112.885 34.1809 100.349 39.1406C94.5067 41.4535 89.2434 44.4344 86.8767 50.8536C85.7673 53.8468 83.3514 55.9742 80.8491 57.7305C66.23 68.0088 56.7387 81.7996 50.6987 98.6208C44.8437 114.935 39.075 131.014 39.8392 148.8C41.0472 176.79 65.9711 202.244 93.6562 203.568C100.362 203.889 107.154 204.359 113.588 206.845C134.247 214.835 155.153 217.458 176.49 209.381C179.534 208.231 182.677 209.084 185.525 210.061C189.654 211.484 193.106 210.803 196.421 208.119C214.159 193.722 227.459 176.592 230.196 152.98C231.453 142.207 232.39 131.67 230.307 120.6C225.795 96.58 210.708 78.423 198.554 58.5839C197.075 56.1721 194.24 54.725 193.475 51.7318C190.332 39.5117 180.927 34.8735 169.932 31.8432C159.664 29.0232 149.544 32.7461 140.164 32.0164Z" fill="#A0A0A0"/>
<path d="M184.354 75.7637C195.078 80.3277 200.809 89.5298 205.9 99.2267C216.39 119.19 214.936 140.142 210.338 161.156C207.959 172.015 198.578 177.618 191.047 184.458C186.338 188.725 181.284 192.609 176.477 196.765C173.667 199.201 170.511 200.414 166.85 199.832C160.132 198.769 153.217 199.647 146.647 198.472C137.489 196.839 128.244 197.136 119.135 196.691C108.805 196.196 98.562 193.809 91.4003 188.082C80.3435 179.251 70.8645 167.823 68.2144 152.696C68.5718 152.733 68.9293 152.782 69.2868 152.832C73.2805 160.921 79.1972 167.909 83.4251 175.677C89.8472 187.488 101.237 191.248 111.764 192.658C130.512 195.157 149.593 196.616 168.662 196.171C171.497 196.109 173.802 195.07 175.91 193.289C181.075 188.923 186.4 184.755 191.392 180.203C197.087 174.996 204.027 170.618 206.48 162.751C210.942 148.466 212.322 133.599 209.746 119.016C206.701 101.75 197.851 87.3035 183.442 76.7284C183.75 76.3945 184.046 76.0729 184.354 75.7637Z" fill="#A0A0A0"/>
<path d="M68.1898 99.8577C68.7322 87.5016 73.8107 76.9141 81.3791 67.5141C85.1263 62.8635 91.2279 61.4288 96.5406 59.8332C112.096 55.1703 127.159 48.2934 144.034 48.9984C153.772 49.4066 162.511 50.9774 169.032 59.2767C173.297 64.7064 179.275 68.6643 183.134 74.5517C182.838 74.8857 182.53 75.2073 182.234 75.5412C175.467 70.7917 170.363 64.2983 164.496 58.6088C162.758 56.9266 161.34 54.8116 158.74 54.1932C147.436 51.4969 136.158 50.5692 124.842 54.255C114.549 57.6069 104.245 60.8969 93.878 64.0014C86.778 66.1288 81.6133 70.4454 78.2975 76.9636C74.5749 84.2734 71.6659 91.9047 70.2113 100.043C69.5334 99.9814 68.8678 99.9195 68.1898 99.8577Z" fill="#A0A0A0"/>
<path d="M183.133 74.5518C183.54 74.9599 183.935 75.368 184.341 75.7638C184.046 76.073 183.75 76.3945 183.454 76.7161C183.047 76.3203 182.64 75.9369 182.234 75.5412C182.542 75.2072 182.838 74.8733 183.133 74.5518Z" fill="#A0A0A0"/>
<path d="M184.046 127.229C184.872 139.499 183.503 151.546 176.403 162.405C172.065 169.047 166.074 172.671 158.604 175.565C143.492 181.416 129.045 176.221 114.488 174.39C107.486 173.512 103.258 166.45 98.1553 161.774C87.6779 152.176 79.3082 141.255 77.1018 126.561C75.7212 117.371 77.1265 109.01 82.8582 101.515C95.7886 84.6444 111.012 70.9524 132.682 66.9574C144.762 64.7311 155.535 67.0069 162.61 78.6333C164.496 81.7378 166.949 84.9412 169.944 86.8336C180.779 93.6734 183.886 103.964 184.033 115.838C184.083 119.548 184.046 123.247 184.046 127.229ZM181.507 129.27C181.507 125.77 181.667 122.269 181.482 118.794C180.816 106.871 179.386 95.3555 167.257 88.7136C164.237 87.0563 162.438 83.8033 160.564 80.7978C157.334 75.6154 152.934 70.9772 146.857 70.2969C138.586 69.3816 130.278 69.629 122.118 73.1046C107.08 79.4991 95.3942 89.765 85.718 102.542C79.5178 110.717 77.7181 120.043 80.6148 129.963C85.8536 147.922 98.8702 159.697 113.194 170.346C114.143 171.051 115.449 171.508 116.633 171.607C126.79 172.387 136.712 176.283 146.98 174.848C158.505 173.24 169.501 170.346 175.442 158.373C180.04 149.121 182.517 139.61 181.507 129.27Z" fill="#A0A0A0"/>
<path d="M130.167 160.426C118.593 159.672 109.064 155.578 101.989 145.596C96.479 137.841 100.103 130.123 100.386 122.393C100.559 117.508 101.878 112.684 102.507 107.811C103.887 97.0129 115.363 85.201 125.212 87.6995C137.526 90.8287 150.752 94.3413 157.827 107.365C163.239 117.322 165.593 127.576 162.807 138.744C160.428 148.256 153.18 153.277 145.144 157.223C140.534 159.486 135.443 160.587 130.167 160.426ZM160.527 130.519C160.367 124.966 160.7 120.958 159.146 116.901C154.167 104.014 145.378 96.444 131.708 93.154C116.744 89.5424 107.376 94.8732 105.231 110.148C104.343 116.444 103.998 122.888 102.408 128.998C100.054 138.076 103.554 144.273 110.063 150.061C117.865 157 131.289 159.721 141.101 155.504C152.737 150.507 162.216 143.89 160.527 130.519Z" fill="#A0A0A0"/>
<path d="M117.261 109.357C119.616 112.647 118.025 114.7 117.126 116.592C114.895 121.28 114.821 126.24 115.388 131.1C116.127 137.421 119.172 142.121 125.877 144.087C131.363 145.683 136.873 145.819 142.333 145.188C148.225 144.508 150.407 139.214 151.196 134.539C153.599 120.34 151.171 107.588 131.313 105.238C128.922 104.953 126.876 105.634 124.805 106.586C123.696 107.093 122.216 107.86 121.563 106.438C120.774 104.731 122.451 103.927 123.683 103.271C126.531 101.75 129.662 101.96 132.731 102.096C144.774 102.628 154.277 112.325 154.524 124.372C154.623 129.48 154.82 134.489 152.589 139.474C149.581 146.227 144.503 149.06 137.587 149.146C132.435 149.208 127.381 148.045 122.611 146.178C118.408 144.533 115.116 141.243 114.217 136.889C112.343 127.798 112.331 118.695 117.261 109.357Z" fill="#A0A0A0"/>
<path d="M137.094 118.287C142.888 119.808 143.689 124.409 143.393 129.27C143.11 133.908 141.729 138.361 136.49 139.697C131.326 141.02 125.902 142.207 121.563 137.718C118.062 134.094 117.015 123.457 119.357 118.992C121.834 114.267 131.917 113.846 137.057 118.25C133.606 118.262 130.155 118.262 126.703 118.311C124.867 118.336 123.067 118.423 121.81 120.167C119.566 123.259 120.491 132.325 123.424 135.145C126.481 138.089 134.432 138.621 137.698 135.516C141.359 132.041 141.273 127.6 139.338 123.123C138.611 121.49 136.688 120.426 137.094 118.287Z" fill="#A0A0A0"/>
</svg>
