<svg width="210" height="162" viewBox="0 0 210 162" fill="none" xmlns="http://www.w3.org/2000/svg">
<path d="M144.997 17.5279C114.625 0.701101 55.5318 18.2182 38.5 31.5C11.6924 47.3516 9.64759 62.8693 4.88303 93.4821C0.118463 124.095 45.1879 148.005 92.1142 151.469C139.04 154.933 195.89 111.955 202.002 92.5311C208.113 73.1072 182.961 38.5614 144.997 17.5279Z" fill="#FFBA9D"/>
<path d="M179.389 124.53C179.422 124.937 179.57 125.306 179.831 125.627C179.632 127.277 179.067 128.653 178.235 129.507C177.392 130.371 176.217 130.767 174.615 130.28C173.213 129.853 171.8 129.459 170.385 129.064C162.086 126.747 153.744 124.419 147.531 115.596C160.134 115.572 170.441 117.346 179.389 124.53Z" stroke="#222222" stroke-width="1.4"/>
<path d="M147.721 89.5131L147.721 89.5127C148.919 81.1543 147.525 76.0166 144.215 73.6855C140.897 71.3484 135.282 71.5548 127.296 74.8661C126.402 75.7966 125.482 76.2963 124.529 76.4671C123.552 76.6422 122.622 76.4564 121.772 76.1725C121.222 75.9888 120.648 75.7412 120.109 75.5085C119.844 75.3943 119.588 75.2838 119.347 75.1861C118.57 74.8714 117.869 74.6509 117.193 74.6329L117.186 74.6327L117.186 74.6327C116.079 74.5911 114.943 74.4665 113.833 74.3446C113.617 74.321 113.403 74.2974 113.189 74.2746C111.863 74.1327 110.577 74.0174 109.341 74.0548C106.901 74.1287 104.714 74.7933 102.945 77.0338L102.945 77.0347C99.2143 81.7433 101.058 86.8939 103.444 92.2298L103.444 92.2301C104.119 93.7433 104.702 95.3229 105.277 96.8794C105.537 97.5828 105.795 98.2816 106.058 98.9674L106.185 99.1136C110.99 102.026 113.894 106.605 116.693 111.016C116.819 111.216 116.945 111.414 117.071 111.613C117.506 112.147 117.943 112.682 118.381 113.217C119.725 114.86 121.075 116.511 122.387 118.195M147.721 89.5131L121.835 118.625M147.721 89.5131C146.27 99.6682 143.011 109.429 137.024 117.965M147.721 89.5131L137.597 118.367M122.387 118.195L121.835 118.625M122.387 118.195C122.387 118.195 122.387 118.195 122.387 118.195L121.835 118.625M122.387 118.195C124.097 120.387 125.504 121.988 126.747 123.034C127.991 124.081 128.99 124.503 129.892 124.491C130.791 124.478 131.76 124.03 132.941 122.948C134.122 121.866 135.439 120.221 137.024 117.965M121.835 118.625C128.695 127.422 131.232 127.422 137.597 118.367M137.024 117.965L137.597 118.367M137.024 117.965C137.024 117.965 137.024 117.965 137.025 117.965L137.597 118.367M106.064 99.0956L105.729 99.656L105.449 99.3334L106.064 99.0956ZM106.064 99.0956L106.102 99.0809C106.099 99.0734 106.097 99.0659 106.094 99.0584C106.092 99.0574 106.09 99.0563 106.088 99.0553L106.064 99.0956Z" stroke="#222222" stroke-width="1.4"/>
<path d="M123.893 44.9007L123.893 44.9007L123.894 44.9065C124.005 45.7228 124.016 46.5666 123.998 47.5275C123.992 47.8447 123.982 48.178 123.972 48.5267C123.953 49.1766 123.933 49.8799 123.931 50.6319C123.479 51.7879 123.479 53.153 123.588 54.4693C123.642 55.1309 123.728 55.8089 123.811 56.468L123.824 56.5658C123.911 57.2619 123.995 57.9361 124.042 58.5826C124.139 59.8983 124.074 60.9721 123.686 61.7556C123.331 62.4722 122.651 63.0507 121.218 63.2611C120.196 63.4096 119.441 63.0979 118.803 62.4635C118.129 61.7948 117.58 60.7575 117.089 59.4655C116.661 58.338 116.299 57.0829 115.932 55.8055C115.88 55.6272 115.829 55.4484 115.777 55.2695C115.36 53.8294 114.921 52.3759 114.364 51.1653L113.728 51.4581L114.364 51.1658C113.654 49.6203 113.102 47.9314 112.919 46.2856C112.888 45.9954 112.857 45.7044 112.825 45.413C112.708 44.3467 112.591 43.2765 112.54 42.2259C112.476 40.89 112.523 39.6448 112.799 38.5657C113.072 37.498 113.563 36.6144 114.379 35.9577C115.2 35.2971 116.417 34.8135 118.234 34.6704C120.1 34.527 121.262 34.8395 122.005 35.3485C122.74 35.8513 123.171 36.6194 123.422 37.6257C123.675 38.6456 123.725 39.8402 123.742 41.1193C123.745 41.3255 123.746 41.5343 123.748 41.7446C123.757 42.8062 123.766 43.9064 123.893 44.9007Z" stroke="#222222" stroke-width="1.4"/>
<path d="M165.162 45.5819L165.163 45.5816C167.629 43.6762 170.959 43.2421 173.439 45.0551L173.441 45.0561C174.88 46.1031 175.263 47.3491 175.142 48.6652C175.014 50.0451 174.324 51.5199 173.527 52.891C169.918 59.0545 165.21 64.0349 157.181 65.9663C156.168 65.9841 155.405 65.5995 154.967 65.0026C154.52 64.3932 154.325 63.4425 154.716 62.1837C156.738 55.7104 159.776 49.7369 165.162 45.5819Z" stroke="#222222" stroke-width="1.4"/>
<path d="M187.536 98.4864L187.533 98.4894C183.118 102.825 177.542 101.637 172.223 100.247L172.223 100.247C170.903 99.9031 169.322 99.735 167.761 99.5768C167.684 99.569 167.607 99.5612 167.529 99.5534C166.023 99.4011 164.532 99.2505 163.201 98.9657C161.793 98.6644 160.667 98.2321 159.928 97.5762C159.233 96.9586 158.821 96.0908 158.938 94.7258L158.939 94.7219C159.052 93.3123 159.601 92.5894 160.35 92.1723C161.165 91.7182 162.316 91.5699 163.724 91.5752C164.417 91.5778 165.144 91.6167 165.893 91.6622C166.021 91.6699 166.15 91.6779 166.28 91.6859C166.9 91.7244 167.533 91.7636 168.151 91.7845C169.57 91.8326 171.018 91.7909 172.231 91.3738C173.474 91.4552 174.714 91.4676 175.911 91.4796C176.172 91.4822 176.431 91.4848 176.688 91.4881C178.181 91.5073 179.598 91.5496 180.937 91.7428C183.584 92.1246 185.885 93.0877 187.711 95.6316C187.771 95.7162 187.846 95.8947 187.896 96.1807C187.944 96.4562 187.959 96.7807 187.938 97.1105C187.916 97.4407 187.86 97.755 187.778 98.012C187.692 98.2817 187.596 98.4283 187.536 98.4864Z" stroke="#222222" stroke-width="1.4"/>
<path d="M86.2629 66.4736L86.2597 66.4729C86.0829 66.4362 85.9058 66.3996 85.7286 66.363C82.4332 65.6823 79.1111 64.996 76.567 63.3256C75.8345 62.8444 75.0449 62.3927 74.2692 61.9489C74.0594 61.8289 73.8506 61.7094 73.6443 61.5901C72.6613 61.0219 71.7159 60.448 70.8723 59.7889C69.2059 58.4869 67.9638 56.8769 67.719 54.3792L67.7189 54.3786C67.6365 53.5454 67.8271 52.8538 68.2035 52.3444C68.5776 51.8381 69.1768 51.455 70.0205 51.3093C75.0458 50.4758 79.2223 52.4703 82.8429 55.8612C84.6161 57.5286 86.1884 59.3836 87.5845 61.0307C88.0921 61.6295 88.5764 62.2009 89.0386 62.7258C89.229 64.5032 88.9232 65.5037 88.4819 66.0102C88.0584 66.4963 87.345 66.7035 86.2629 66.4736Z" stroke="#222222" stroke-width="1.4"/>
<path d="M99.3792 117.033L99.451 117.003L99.5144 116.957C99.8592 116.709 100.209 116.456 100.558 116.204L100.559 116.203C100.908 115.951 101.257 115.698 101.6 115.452L101.611 115.444L101.621 115.436L101.741 115.343C102.413 115.064 103.084 114.779 103.753 114.496L103.755 114.496C104.301 114.264 104.847 114.033 105.392 113.805C105.691 114.662 106.001 115.526 106.311 116.379C105.299 118.081 104.412 119.897 103.541 121.682C103.432 121.906 103.323 122.129 103.214 122.351C102.179 124.463 101.143 126.513 99.8976 128.346C97.4748 131.912 94.2768 134.641 88.7825 135.234L87.0244 133.676C87.5971 132.421 88.1657 131.162 88.7337 129.904L88.7339 129.904C89.3469 128.547 89.9592 127.191 90.5763 125.841L90.7928 125.613C91.6873 125.261 92.3038 124.695 92.6927 123.975C93.0516 123.31 93.1945 122.556 93.2364 121.803L93.4818 121.521C94.7759 120.31 96.0906 119.1 97.4079 117.887C98.0604 117.601 98.7104 117.317 99.3792 117.033Z" stroke="#222222" stroke-width="1.4"/>
<path d="M74.7449 105.433L74.7423 105.433C73.5334 105.545 72.3593 105.43 71.4369 104.999C70.5465 104.583 69.858 103.86 69.5756 102.64C69.2991 101.426 69.639 100.551 70.2955 99.8209C70.9897 99.0487 72.038 98.442 73.1654 97.8728L73.1664 97.8723C76.1995 96.3348 79.3633 95.8549 82.6279 95.7836C84.262 95.7479 85.9125 95.8145 87.5834 95.8994C87.9102 95.916 88.2381 95.9334 88.5667 95.9507C89.76 96.0138 90.9639 96.0774 92.1639 96.1092C92.4649 96.8216 92.7713 97.535 93.0751 98.2422C93.2142 98.5661 93.3528 98.8888 93.49 99.2094C88.1917 103.792 81.6093 104.824 74.7449 105.433Z" stroke="#222222" stroke-width="1.4"/>
</svg>
