<svg width="384" height="91" viewBox="0 0 384 91" fill="none" xmlns="http://www.w3.org/2000/svg">
<path d="M49.3001 29.3696C49.8101 29.6796 50.7801 30.4896 51.9101 30.9296C55.9501 32.4896 58.5201 35.2296 58.0701 39.3796C57.6201 43.5396 56.9301 47.8496 55.2801 51.6796C53.2501 56.4096 50.1601 57.2996 44.9001 55.8996C40.3001 54.6796 36.5701 52.2096 33.9201 48.4096C31.4701 44.8996 30.2101 41.1796 32.2001 37.0496C34.4701 32.3296 38.6701 30.5196 43.8101 30.0596C45.5201 29.9096 47.2201 29.6396 49.3001 29.3696Z" fill="#F9728F"/>
<path d="M138.86 48.5997C137.56 49.1397 136.28 49.7597 134.94 50.1997C134.21 50.4397 133.35 50.5697 132.6 50.4397C125.99 49.3197 119.76 41.1197 120.57 34.7097C121.47 27.6097 129.32 22.8497 136.22 25.7597C139.88 27.3097 143.34 29.7797 146.17 32.5097C150.14 36.3397 150.1 43.0997 146.16 46.9097C144.56 48.4597 141.65 48.7997 139.34 49.6897C139.19 49.3197 139.02 48.9597 138.86 48.5997Z" fill="#F9728F"/>
<path d="M46.7 81.7496C46.85 86.8796 42.39 90.2096 35.04 90.4596C27.83 90.7096 23.71 87.2096 23.51 80.6796C23.31 74.0396 28.99 68.2696 35.89 68.0996C43.34 67.9296 46.42 71.8196 46.7 81.7496Z" fill="#F9728F"/>
<path d="M106.33 67.3197C105.33 68.9497 104.32 70.5697 103.35 72.2097C102.63 73.4297 101.6 74.5997 101.32 75.9097C100.84 78.1297 99.4499 78.7497 97.4999 78.2997C88.8999 76.3297 82.5999 70.9397 83.9999 61.5497C84.5099 58.0997 86.6399 55.5797 90.0999 54.3297C95.2099 52.4797 103.81 57.0497 105.11 62.2697C105.49 63.7797 105.55 65.3697 105.75 66.9197C105.94 67.0597 106.14 67.1897 106.33 67.3197Z" fill="#F9728F"/>
<path d="M383.09 76.8699C382.56 79.2599 382.19 81.6899 381.47 84.0199C380.36 87.6299 377.73 88.2399 374.69 85.6599C372.51 83.8099 370.53 81.7399 368.32 79.9199C367.31 79.0799 365.67 78.8399 364.85 77.8999C362.46 75.1899 362.2 69.9299 364.06 67.5999C365.57 65.7099 372.54 64.3099 375.33 65.3499C380.28 67.1799 382.68 70.9099 383.09 76.8699Z" fill="#F9728F"/>
<path d="M19.6099 9.39979C19.3099 16.2098 17.6299 18.6298 11.9999 20.3198C8.65986 21.3198 5.72986 20.6298 3.28986 18.2298C-1.57014 13.4498 1.80986 2.01979 8.59986 0.249786C14.0299 -1.17021 19.8699 3.68979 19.6099 9.39979Z" fill="#F9728F"/>
<path d="M358.28 34.2298C356.02 35.6498 356.43 37.5398 357.66 39.6198C358.17 40.4798 358.34 41.5198 358.66 42.4798C359.41 44.6798 358.95 45.7398 356.21 46.4498C346.09 49.0998 338.32 42.5698 340.08 32.6098C340.91 27.9198 344.56 26.1398 349.04 28.2598C352.28 29.7798 356.81 29.3398 358.28 34.2298Z" fill="#F9728F"/>
<path d="M295.45 16.4597C302.83 16.3197 308.1 24.8197 304.73 31.0997C301.45 37.2097 298.61 37.1197 292.84 32.7197C289.27 29.9997 288.37 25.9597 288.37 21.8597C288.36 18.6697 291.43 16.5397 295.45 16.4597Z" fill="#F9728F"/>
<path d="M201.89 69.0496C195.47 69.1996 189.26 60.7996 191.61 55.0396C191.96 54.1896 192.79 53.3496 193.63 52.8796C197.23 50.8696 204.27 52.0296 207.18 54.8496C209.49 57.0896 208.85 59.7196 208.75 62.3996C208.54 68.4096 208.13 68.9096 201.89 69.0496Z" fill="#F9728F"/>
<path d="M344.25 82.83C343.52 84.67 343.16 86.76 341.98 88.29C340.43 90.3 338.39 91.36 335.79 88.96C333.42 86.76 330.31 85.27 328.04 83.01C325.89 80.87 325.33 78 327.36 75.33C329.41 72.63 332.57 72.4 335.62 72.78C340.4 73.36 343.81 77.69 344.25 82.83Z" fill="#F9728F"/>
<path d="M301.12 57.4699C301.12 58.9799 301 60.4999 301.15 61.9999C301.39 64.4999 301.21 67.2899 298.33 67.6999C296.18 67.9999 293.46 66.9599 291.54 65.7299C289.61 64.4899 288.35 62.2899 286.8 60.5199C284.93 58.3699 284.28 53.6199 286.03 51.3999C286.85 50.3599 289.09 49.1999 290.04 49.5699C293.76 51.0199 297.27 52.9999 300.74 54.9699C301.28 55.2799 301.18 56.5899 301.38 57.4299C301.3 57.4399 301.21 57.4499 301.12 57.4699Z" fill="#F9728F"/>
<path d="M218.48 35.91C218.02 32.76 219.69 30.49 222.53 28.88C225.3 27.3 228.01 27.93 230.53 29.42C234.03 31.49 234.73 35.46 232.36 38.73C231.71 39.63 231.17 40.62 230.74 41.63C229.27 45.08 225.62 46.04 222.5 43.74C219.28 41.36 218.61 40.09 218.48 35.91Z" fill="#F9728F"/>
<path d="M158.08 73.2799C158.35 73.1299 157.99 73.3599 157.6 73.5399C156.99 73.8299 156.36 74.0899 155.74 74.3599C155.7 73.5799 155.31 72.3299 155.67 72.0899C157.8 70.6599 159.98 68.7199 162.38 68.3499C167.81 67.5099 172.77 72.2299 172.68 77.4499C172.67 78.1199 172.66 78.8199 172.45 79.4399C171.89 81.0799 173.04 84.0099 170.13 83.9499C167.54 83.8999 164.21 83.3099 162.58 81.6999C160.4 79.5799 159.55 76.2299 158.08 73.2799Z" fill="#F9728F"/>
<path d="M244.39 64.18C245.46 64.34 247.25 64.16 248.42 64.89C250.26 66.04 252.32 67.57 253.05 69.38C253.52 70.55 251.75 72.5 251.05 74.13C250.64 75.07 250.21 76.05 250.07 77.05C249.77 79.2 248.93 80.16 246.57 79.06C244.79 78.23 242.9 77.61 241.1 76.8C238.57 75.67 236.97 71.94 237.68 69.01C238.37 66.1 241.04 64.03 244.39 64.18Z" fill="#F9728F"/>
</svg>
