<svg width="232" height="219" viewBox="0 0 232 219" fill="none" xmlns="http://www.w3.org/2000/svg">
<path d="M36.5839 0.283152C36.19 0.336402 35.7962 0.389651 35.4581 0.499596C35.0068 0.721208 34.4443 0.773166 34.2761 0.715609C34.108 0.658053 33.8265 0.712164 33.7128 0.880096C33.5991 1.04803 33.2044 1.21381 32.9234 1.21165C32.5862 1.20907 32.3609 1.26361 32.3601 1.37614C32.3592 1.48867 32.1906 1.48738 31.91 1.42896C31.6294 1.37054 31.4042 1.42508 31.2909 1.53675C31.2901 1.64928 31.0644 1.76008 30.8396 1.75836C30.39 1.75492 26.2669 4.3679 25.6997 5.03877C25.4728 5.31837 25.1896 5.59754 25.0763 5.7092C24.3409 6.32251 24.002 6.54499 23.4945 6.76617C23.1564 6.87611 22.7604 7.21069 22.5896 7.49072C22.4184 7.82701 21.7384 8.55328 21.172 9.11162C20.5486 9.78205 20.0934 10.51 20.0338 10.9597C19.9183 11.3527 19.8033 11.6894 19.6909 11.6886C19.4661 11.6869 18.6063 13.8747 18.6599 14.2127C18.7684 14.72 17.8593 16.0072 17.2955 16.2279C16.9574 16.3379 16.6743 16.617 16.6168 16.7854C16.6155 16.9542 16.1053 17.5129 15.5394 18.015C14.9735 18.5171 14.3501 19.1875 14.1794 19.4676C14.0652 19.6918 13.6109 20.3072 13.2702 20.7548C12.9295 21.2023 12.6455 21.594 12.6451 21.6502C12.6991 21.932 11.1078 24.2268 10.1437 25.3447C9.23629 26.4069 8.72184 27.5283 8.88527 28.2048C8.93803 28.6553 8.82303 28.992 8.36953 29.495C8.02973 29.83 7.7457 30.2217 7.74527 30.2779C7.74441 30.3905 7.68562 30.7276 7.51485 31.0076C7.39986 31.3444 7.28358 31.8499 7.28056 32.2437C7.27797 32.5813 7.16039 33.2556 6.9879 33.7607C6.41381 35.3318 6.29752 35.8373 6.57379 36.4584C6.68404 36.7406 6.73766 37.0786 6.62482 37.134C6.51198 37.1894 6.39742 37.4699 6.4519 37.6954C6.56129 38.0901 6.38794 38.7077 5.9846 39.9987C5.87004 40.2792 5.86745 40.6168 5.979 40.7302C6.09054 40.8436 5.91935 41.1799 5.57997 41.4586C5.29681 41.7378 5.12518 42.1303 5.1788 42.4684C5.23284 42.7501 5.17405 43.0873 5.11699 43.1994C5.00372 43.311 4.88571 44.0416 4.82304 44.8851C4.70201 46.0096 4.58616 46.4588 4.19102 46.6809C3.79587 46.9029 3.68088 47.2396 3.73062 48.084C3.72587 48.7029 3.6645 49.3777 3.49416 49.6014C3.3234 49.8815 3.20712 50.387 3.14746 50.8367C3.08781 51.2864 2.97023 51.9607 2.91101 52.3541C2.90756 52.8042 2.73594 53.1968 2.5669 53.2517C2.45363 53.3634 2.39527 53.6443 2.50509 53.9827C2.61491 54.3212 2.6093 55.0526 2.60499 55.6153C2.41353 58.596 2.40965 59.1024 2.74428 59.4426C2.91116 59.6689 2.96435 60.0632 2.90426 60.5691C2.78668 61.2434 2.83771 61.919 3.11183 62.8214C3.16674 62.9907 3.27871 63.0478 3.39198 62.9361C3.50481 62.8807 3.50697 62.5994 3.39629 62.3735C3.1745 61.9779 3.2307 61.9783 3.50913 62.3181C3.89952 62.7149 4.49792 65.3078 4.27052 65.6437C4.04226 66.0921 3.76513 65.5836 3.60471 64.5132C3.39241 62.8799 2.9964 63.2144 3.15165 64.9599C3.3043 67.043 3.95372 70.3115 4.23473 70.3136C4.34714 70.3145 4.40636 69.9211 4.2974 69.4701C4.08208 68.2306 3.92986 66.0912 4.04312 65.9796C4.09976 65.9237 4.20958 66.2622 4.31896 66.6569C4.42792 67.1079 4.53601 67.6714 4.64583 68.0098C4.75565 68.3483 4.8646 68.7992 4.91865 69.081C5.02804 69.4757 5.08381 69.5324 5.19794 69.3082C5.31164 69.1403 5.25716 68.9148 5.09028 68.6884C4.92296 68.5184 4.86848 68.2929 4.92512 68.237C5.03839 68.1254 5.09804 67.6757 5.04528 67.2251C4.99339 66.6621 5.6592 67.7925 5.87668 68.7507C6.04054 69.3709 6.37302 69.9924 6.5961 70.2192C6.81962 70.3897 7.15382 70.7862 7.26406 71.0683C7.65188 71.8028 8.76515 73.218 9.54595 74.0117C9.93635 74.4086 10.2143 74.8046 10.2688 75.0301C10.3237 75.1993 10.7137 75.6525 11.1603 76.0498C11.6069 76.4471 12.3319 77.1841 12.7772 77.7502C13.2225 78.3163 13.7245 78.8265 13.8927 78.8841C14.0608 78.9416 14.4512 79.3385 14.8416 79.7354C15.232 80.1322 16.0137 80.8134 16.5723 81.2679C17.1871 81.7227 17.9691 82.3477 18.4157 82.745C18.8061 83.1418 19.4209 83.5967 19.7006 83.7676C21.3219 84.9054 22.4412 85.5329 23.1697 85.8198C23.618 85.9921 24.3456 86.3915 24.9051 86.7334C25.4645 87.0753 26.64 87.7033 27.5367 88.0477C28.4895 88.3926 29.7212 89.021 30.3369 89.3634C31.5119 90.0476 32.5214 90.3366 31.8513 89.7688C31.3489 89.3148 31.5772 88.8665 32.1941 89.04C32.5871 89.0993 32.6995 89.1001 32.5322 88.93C32.4207 88.8167 32.1405 88.702 31.9157 88.7002C31.4099 88.6964 26.9271 86.9177 25.135 86.06C24.4632 85.7172 23.848 85.3186 23.8488 85.2061C23.8497 85.0936 22.7875 84.3539 21.5562 83.6693C20.3253 82.9284 18.6479 81.7902 17.81 81.1085C16.9722 80.4269 16.2463 79.8024 16.1343 79.7453C15.6311 79.4038 13.1763 77.0218 11.8386 75.5485C10.0548 73.6218 9.89049 73.0578 11.0171 72.7289C11.6933 72.509 11.8053 72.5661 12.8078 73.7554C12.9747 73.9818 13.5324 74.5487 13.9786 75.0023C14.4248 75.4558 14.7586 75.9085 14.7019 75.9644C14.6453 76.0202 14.0871 75.5095 13.4183 74.7729C12.8057 74.0367 12.1356 73.4689 11.967 73.4676C11.7984 73.4663 11.6855 73.5217 11.6851 73.578C11.74 73.7472 12.8541 75.0499 13.9147 76.0146C14.4724 76.5815 14.9747 77.0355 14.9739 77.1481C15.0279 77.4298 18.6012 80.5519 20.0547 81.5759C23.1852 83.7943 26.9927 85.6803 31.8703 87.2932C34.0566 88.0414 36.9778 88.2326 39.4537 87.8577C40.0728 87.7499 40.0724 87.8062 39.9012 88.1425C39.73 88.4788 39.7858 88.5355 40.1792 88.5385C40.4602 88.5407 41.5864 88.2679 42.7126 87.9952C44.9093 87.3931 44.9093 87.3931 47.2698 87.4112C49.2369 87.4263 49.8015 87.093 49.4158 86.0772C49.306 85.7388 49.0833 85.4557 48.9709 85.4549C48.8585 85.454 48.8594 85.3415 48.9731 85.1736C49.1434 84.9498 49.312 84.9511 49.4236 85.0645C49.5351 85.1779 50.3829 84.5654 51.5151 83.505C52.5341 82.5563 53.7783 81.553 54.2301 81.2751C54.6819 80.9972 55.0779 80.6627 55.1354 80.4943C55.1929 80.3259 55.9283 79.7126 56.8889 79.0448C57.7933 78.3765 58.6977 77.7082 58.9242 77.4849C59.1508 77.2615 59.8287 76.8166 60.3941 76.3708L61.4114 75.6471L61.4045 76.5473C61.3946 77.8414 60.297 81.7155 59.6143 82.7793C59.444 83.0031 58.9356 83.3368 58.4843 83.5584C57.9771 83.7233 57.5816 84.0016 57.6373 84.0583C57.6918 84.2838 58.029 84.2864 58.256 84.0068C58.3693 83.8951 58.5383 83.8402 58.6494 84.0098C58.8721 84.2929 57.7372 85.6909 56.7204 86.3583C56.2682 86.6924 55.7594 87.0824 55.5895 87.2499C55.4196 87.4174 55.1935 87.5845 55.0249 87.5832C54.519 87.5793 52.2546 89.7001 52.7042 89.7036C52.929 89.7053 53.1529 89.8195 53.1521 89.9321C53.2053 90.3264 54.2203 89.884 55.2389 88.9915C55.8048 88.4894 56.5397 87.9324 56.8787 87.7099C57.2172 87.5437 57.5574 87.1524 57.672 86.872C57.7865 86.5915 58.2418 85.8635 58.6957 85.3043C59.1496 84.7451 59.4912 84.1851 59.4925 84.0163C59.4933 83.9038 59.7778 83.4558 60.1738 83.1212C60.7963 82.5633 61.0821 81.9466 61.6609 79.7566C61.7193 79.4757 61.89 79.1956 62.0024 79.1965C62.3397 79.1991 62.6872 77.8513 62.698 76.4447C62.704 75.657 62.8229 74.8139 62.937 74.5897C63.1087 74.1971 64.9836 71.5669 65.8348 70.5044C66.7431 69.3297 67.0855 68.6571 67.3734 67.759C67.8935 65.9062 69.2021 63.8343 70.56 62.6631C71.5219 61.8264 73.3402 59.2521 73.7989 58.074C73.971 57.6251 74.3129 57.0088 74.6519 56.7863C74.935 56.5072 75.1629 56.115 75.1084 55.8896C75.0543 55.6078 75.2873 54.5405 75.6332 53.4178C76.3828 50.9478 76.56 49.8238 76.4043 48.1345C76.3537 47.4027 76.3027 46.7271 76.3594 46.6712C76.4164 46.5591 76.3144 45.2079 76.1012 43.6871C75.8885 42.1099 75.7354 40.0831 75.6861 39.1825C75.6368 38.2818 75.5326 37.2119 75.4794 36.8176C75.2627 35.7469 75.82 36.3701 76.4275 37.7815C76.7033 38.4588 76.9247 38.9106 76.9826 38.686C76.9843 38.4609 77.1534 38.406 77.3777 38.4639C77.8265 38.5799 77.772 38.3544 77.0517 36.9985C76.5528 36.0944 76.4988 35.8126 76.7253 35.5893C76.9518 35.366 76.8965 35.253 76.5614 34.9691C76.0586 34.5714 75.5601 33.611 75.5087 32.9917C75.5104 32.7666 75.2324 32.3706 74.9531 32.1434C74.2242 31.9127 74.114 31.6305 73.5765 28.4192C73.1986 26.3906 72.7632 24.5305 72.4861 24.0219C72.2652 23.5138 71.9327 22.8923 71.822 22.6664C71.7118 22.3842 71.3771 22.0441 71.0974 21.8731C70.5938 21.5879 70.1497 20.853 69.4878 19.2162C69.1022 18.2004 68.8229 17.9732 68.2046 17.9685C67.8112 17.9655 67.6997 17.8521 67.7589 17.4586C67.7611 17.1773 67.6508 16.8951 67.5388 16.838C67.4269 16.7809 67.3127 17.0051 67.2539 17.3422C67.2488 18.0174 66.9111 18.0711 66.7477 17.3946C66.6936 17.1129 66.4161 16.6606 66.1372 16.3771C65.8584 16.0937 65.4684 15.6405 65.3011 15.4704C65.1342 15.2441 64.5186 14.9018 64.0145 14.6728C63.4542 14.4435 62.9505 14.1583 62.8952 14.0453C62.8398 13.9323 62.5597 13.8177 62.3349 13.8159C62.11 13.8142 61.7175 13.6987 61.4378 13.5277C61.158 13.3568 60.5973 13.1837 60.2605 13.1248C59.8675 13.0656 59.3643 12.7241 59.0859 12.3843C58.8075 12.0446 58.306 11.4781 57.9151 11.1375C57.5805 10.7973 57.0228 10.2304 56.7448 9.83436C56.2995 9.26827 54.7336 8.24345 52.8296 7.32858C52.5494 7.2139 52.2139 6.98625 51.9909 6.75947C51.7673 6.58896 51.4876 6.41801 51.319 6.41672C51.1504 6.41543 50.7583 6.24362 50.5348 6.0731C50.255 5.90216 49.9191 5.73078 49.7505 5.72949C49.5819 5.72819 49.3575 5.67021 49.1327 5.66848C48.8517 5.66633 48.8521 5.61007 49.0791 5.33047C49.3623 5.0513 49.4747 5.05216 50.035 5.28152C50.3709 5.4529 51.5481 5.8558 52.6125 6.3141C53.6774 6.71613 55.133 7.45877 55.8598 7.97074C56.5865 8.48272 57.4261 8.9393 57.7067 8.99772C57.9873 9.05613 58.5463 9.45429 58.9371 9.79489C59.551 10.3623 59.663 10.4194 59.6652 10.1381C59.6669 9.91302 59.4442 9.62998 59.0525 9.4019C58.7171 9.17426 58.2704 8.77697 58.1044 8.43809C57.4382 7.36389 55.7603 6.28195 52.8464 5.13427C51.3332 4.55999 49.9891 3.93075 49.8772 3.87362C49.5987 3.53388 46.46 2.38447 46.1219 2.49442C45.9529 2.54939 45.1111 2.37414 44.2698 2.14262C43.3727 1.85441 42.4748 1.67872 42.25 1.677C42.0252 1.67528 41.2967 1.38835 40.6244 1.10186C39.4489 0.473911 37.8208 0.236363 36.5839 0.283152ZM45.0048 1.58557C44.8919 1.64098 44.9468 1.8102 45.1704 1.98072C45.5608 2.37758 45.6736 2.32218 45.396 1.86991C45.2854 1.64399 45.1176 1.53017 45.0048 1.58557ZM41.0495 4.31238C42.5103 4.37984 43.688 4.72648 45.8155 5.81187C46.6551 6.26844 47.3831 6.61163 47.4955 6.61249C48.0575 6.6168 53.3203 9.30171 55.4457 10.6684C56.3964 11.2947 56.3938 11.6322 55.4418 11.1748C55.1616 11.0601 54.3207 10.7723 53.5356 10.5412C52.7505 10.3102 51.7977 9.96525 51.4622 9.73761C51.0705 9.50954 50.0061 9.05124 49.1656 8.70719C48.269 8.36272 47.2608 7.90485 46.9249 7.73347C46.5332 7.5054 46.0848 7.33316 45.86 7.33144C45.3542 7.32756 39.8671 4.58466 39.813 4.30291C39.813 4.30291 40.3755 4.25095 41.0495 4.31238ZM62.5934 16.7438C63.0984 16.8602 64.9925 19.0692 65.3232 19.9158C65.7647 20.9882 66.4313 22.0062 67.0461 22.461C67.3254 22.6882 67.6034 23.0842 67.6566 23.4785C67.7642 24.0983 67.7076 24.1541 67.0894 24.1494C66.5273 24.1451 66.3596 24.0312 66.0267 23.466C65.8049 23.0704 65.4729 22.3927 65.3648 21.8292C64.9826 20.3633 64.5935 19.7976 63.5891 18.8334C62.8628 18.2651 62.5291 17.8124 62.4763 17.3619C62.3673 16.9109 62.4253 16.6863 62.5934 16.7438ZM74.8929 25.3345C74.7247 25.277 74.6672 25.4453 74.7204 25.8396C74.774 26.1776 74.9405 26.4602 75.0529 26.4611C75.1653 26.462 75.2794 26.2378 75.2249 26.0123C75.1713 25.6743 75.0049 25.3917 74.8929 25.3345ZM36.4798 28.5288C36.6485 28.53 36.7604 28.5872 36.9839 28.7577C37.4863 29.2117 37.6485 30.0569 37.3627 30.6737C37.1898 31.235 37.0207 31.29 36.6853 31.0624C36.5175 30.9486 35.5629 30.8287 33.5401 30.7569C33.3153 30.7552 33.0913 30.641 33.0926 30.4722C33.0373 30.3592 32.9266 30.1333 32.7584 30.0757C32.5902 30.0182 32.5336 30.074 32.6443 30.2999C32.7545 30.5821 32.6413 30.6938 32.1354 30.6899C31.4044 30.7406 31.3486 30.6839 31.6339 30.1234C31.9192 29.5629 33.0467 29.1214 33.8327 29.24C34.3377 29.3564 34.7882 29.2473 35.578 28.8594C36.0856 28.6383 36.3112 28.5275 36.4798 28.5288ZM75.5397 28.9406C75.3149 28.9389 75.1411 29.6128 75.2501 30.0638C75.3037 30.4018 75.6976 30.3485 75.8125 30.0118C75.9284 29.5625 75.8207 28.9428 75.5397 28.9406ZM35.9637 29.8752C35.6256 29.9852 35.6247 30.0977 35.904 30.3249C36.2391 30.6088 36.9126 30.7265 36.8582 30.501C36.805 30.1067 36.3017 29.7653 35.9637 29.8752ZM39.1097 30.0681C39.4469 30.0707 39.8395 30.1863 40.2308 30.4706C40.9022 30.8696 40.9022 30.8696 40.5066 31.1479C40.2805 31.315 40.0548 31.4258 39.9428 31.3687C39.8866 31.3682 39.5499 31.3094 39.2131 31.2506C38.3147 31.1311 38.0916 30.9044 38.3761 30.4564C38.5468 30.1764 38.7725 30.0656 39.1097 30.0681ZM30.6231 30.0031C31.1285 30.0632 31.7905 31.7001 31.5073 31.9792C31.2241 32.2584 31.2769 32.709 31.5579 32.7111C31.6703 32.712 31.784 32.544 31.7291 32.3748C31.7308 32.1498 31.9578 31.8702 32.2958 31.7602C32.8596 31.5395 32.972 31.5403 33.3062 31.9368C33.6408 32.2769 33.9776 32.3358 34.8207 32.3422C35.4389 32.347 36.058 32.2392 36.227 32.1842C36.4527 32.0734 36.6771 32.1314 37.0683 32.4157C37.3476 32.643 37.5716 32.7572 37.5166 32.588C37.463 32.25 38.3069 32.1439 39.2602 32.4325C39.7085 32.6048 40.6065 32.7805 41.2239 32.8977C42.5152 33.0764 43.3557 33.4205 44.9786 34.3332C46.3215 35.1312 46.657 35.3589 46.0387 35.3541C45.5329 35.3503 45.6942 36.308 46.1987 36.4807C46.4231 36.5387 46.5904 36.7088 46.6458 36.8217C46.6449 36.9343 47.0919 37.2753 47.5956 37.5605C48.0993 37.8457 48.4339 38.1859 48.3764 38.3542C48.2614 38.691 49.1014 39.0913 49.6643 38.9831C50.34 38.8194 51.2894 39.6145 51.1723 40.2325C51.1131 40.6259 51.2246 40.7393 51.6172 40.8549C52.0663 40.9146 53.4036 42.444 53.5112 43.0638C53.5661 43.233 53.8437 43.6853 54.1779 44.0817C55.2371 45.2152 55.6786 46.2877 55.4494 46.8486C55.107 47.5212 55.2709 48.1414 55.8312 48.3708C56.1671 48.5421 56.2229 48.5988 55.9959 48.8784C55.826 49.0459 55.5999 49.213 55.4313 49.2117C55.2627 49.2104 55.0932 49.3217 55.1482 49.4909C55.2031 49.6601 55.0898 49.7718 54.9774 49.7709C54.865 49.77 54.6977 49.6 54.699 49.4312C54.5883 49.2052 54.3661 48.8659 54.143 48.6392C53.9195 48.4686 53.6972 48.1293 53.6423 47.9601C53.5874 47.7909 53.2532 47.3944 52.8062 47.0534C52.1914 46.5986 51.7989 46.483 50.7314 46.4186C49.5512 46.4095 49.3272 46.2953 48.377 45.6128C47.7622 45.1579 47.3165 44.6481 47.2624 44.3663C47.2097 43.9158 47.0419 43.802 46.144 43.6263C45.5828 43.5095 44.6857 43.2212 44.1812 43.0486C43.6771 42.8196 42.9477 42.6453 42.5548 42.586C42.1618 42.5267 41.7126 42.467 41.5444 42.4094C41.4329 42.296 40.7031 42.1779 39.9729 42.116C39.2427 42.0542 37.9522 41.763 37.1666 41.5881C35.5402 41.1255 35.2026 41.1792 35.7603 41.7462C36.0391 42.0296 36.0383 42.1422 35.7006 42.1958C35.0807 42.4162 33.9566 42.4075 33.3397 42.234C33.0029 42.1752 32.7781 42.1734 32.8334 42.2864C32.8326 42.3989 33.2247 42.5707 33.6739 42.6305C34.1231 42.6902 34.9644 42.9217 35.5818 43.0389C36.1987 43.2125 37.6582 43.4487 38.781 43.6261C40.1843 43.862 41.1381 44.0943 41.6975 44.4362C42.145 44.721 42.6491 44.9499 42.8177 44.9512C42.9863 44.9525 43.0982 45.0097 43.0974 45.1222C43.0965 45.2347 43.4324 45.4061 43.8246 45.5779C44.2167 45.7497 44.7208 45.9786 45.0005 46.1496C45.2807 46.2643 45.7848 46.4932 46.0645 46.6641C46.4008 46.7793 46.7359 47.0632 46.8461 47.3453C46.9564 47.6275 47.2914 47.9114 47.5158 47.9694C49.3653 48.6588 51.38 49.7996 51.4332 50.1939C51.5966 50.8704 52.3195 51.8887 52.7129 51.8917C53.1625 51.8952 53.8845 53.0261 54.045 54.0964C54.1535 54.6036 54.3757 54.9429 54.8232 55.2277C55.6065 55.6838 56.0488 56.6438 56.7043 59.1246L57.1418 60.7034L55.7882 61.312C54.0961 62.0868 52.5752 62.5253 51.676 62.5184C51.2826 62.5154 50.663 62.6794 50.2679 62.9015C49.8727 63.1235 48.9718 63.3417 48.2403 63.4486C47.5088 63.5555 46.8897 63.6633 46.7769 63.7187C46.5512 63.8295 44.4185 63.4193 44.1392 63.1921C43.9715 63.0783 43.1872 62.7347 42.403 62.391C40.7783 61.7034 37.7014 59.823 34.9621 57.8889C33.8999 57.1493 32.8938 56.4101 32.6141 56.2391C32.1104 55.9539 32.1104 55.9539 32.4451 56.2941C33.1705 56.9749 32.2172 56.6862 31.2674 55.9475C30.3729 55.3217 30.2086 54.7577 30.9375 54.9884C31.4983 55.1615 31.3327 54.7663 30.3858 53.6337C29.4948 52.5578 29.1018 52.4985 29.0953 53.3425C29.0919 53.7926 29.0353 53.8484 28.6998 53.6208C27.5809 52.937 28.4694 54.3505 29.6993 55.204C30.0906 55.4883 30.4257 55.7722 30.4248 55.8847C30.4239 55.9973 31.206 56.6222 32.1001 57.3043C32.9946 57.9301 33.7763 58.6113 33.7754 58.7238C33.7741 58.8926 34.1658 59.1207 34.5579 59.2925C35.286 59.6357 36.7373 60.9409 36.3439 60.9379C36.2315 60.9371 35.5039 60.5376 34.7209 60.0252C33.938 59.5128 32.9868 58.9428 32.5947 58.771C31.3064 58.1985 29.9648 57.2316 29.7448 56.611C29.6907 56.3293 29.1892 55.7627 28.6864 55.365C26.4512 53.6598 25.5628 52.2463 26.2977 51.6893C26.5243 51.466 26.5251 51.3534 26.024 50.7306C25.746 50.3346 25.1892 49.6552 24.9116 49.2029C24.5774 48.8065 24.0206 48.127 23.6864 47.7305C22.7945 46.7672 22.2956 45.8631 21.7996 44.5651C21.3046 43.1546 21.3638 42.7612 22.037 42.9351C22.5419 43.0516 23.3335 42.4387 23.225 41.9314C23.2258 41.8189 23.2833 41.6505 23.4524 41.5956C23.6776 41.541 23.678 41.4848 23.3988 41.2576C23.231 41.1437 23.0088 40.8044 22.9543 40.5789C22.902 40.0721 23.298 39.7376 23.5764 40.0773C23.688 40.1907 24.2491 40.3075 24.8678 40.256C25.486 40.2607 26.1038 40.3217 26.272 40.3793C26.4397 40.4931 26.5526 40.4377 26.5543 40.2126C26.4994 40.0434 26.2201 39.8162 25.8842 39.6448C25.435 39.5851 25.1553 39.4142 25.0999 39.3012C25.0442 39.2445 25.0454 39.0757 24.9901 38.9628C24.8807 38.5681 24.5439 38.5092 24.4294 38.7897C24.3714 39.0143 24.1458 39.1251 23.921 39.1234C23.6962 39.1217 23.4705 39.2325 23.4134 39.3446C23.3564 39.4567 23.3572 39.3441 23.3589 39.1191C23.3611 38.8378 23.4233 38.0505 23.4289 37.319C23.4389 36.025 23.4951 36.0254 24.1124 36.1427C24.786 36.2604 25.4639 35.8154 25.8646 34.8619C26.0354 34.5819 26.319 34.2465 26.6013 34.0798C27.0531 33.8019 27.4495 33.4111 28.1295 32.6848C28.2994 32.5173 28.4144 32.1806 28.4724 31.956C28.5307 31.6751 28.7002 31.5639 29.037 31.6227C29.3738 31.6816 29.5999 31.5145 29.886 30.8415C30.059 30.2801 30.3421 30.0009 30.6231 30.0031ZM75.1334 30.6255C75.0214 30.5684 74.9086 30.6238 74.7387 30.7913C74.5688 30.9588 74.5104 31.2397 74.6773 31.4661C74.9544 31.9746 75.2367 31.8079 75.2977 31.1895C75.2998 30.9081 75.2449 30.7389 75.1334 30.6255ZM76.4105 32.661C76.2977 32.7164 76.2393 32.9973 76.2895 33.7854C76.2847 34.4043 76.3941 34.799 76.5627 34.8003C76.8437 34.8025 76.8584 32.8895 76.6353 32.6627C76.5229 32.6618 76.4667 32.6614 76.4105 32.661ZM25.4548 36.997C25.3424 36.9961 25.2291 37.1078 25.2841 37.277C25.339 37.4462 25.4509 37.5033 25.5638 37.4479C25.6204 37.3921 25.7337 37.2804 25.6783 37.1675C25.6792 37.055 25.5672 36.9978 25.4548 36.997ZM77.5913 39.9285C76.7487 39.8658 76.5797 39.9208 76.971 40.2051C77.2507 40.3761 78.5433 40.386 78.4889 40.1605C78.4897 40.048 78.0972 39.9324 77.5913 39.9285ZM27.2339 39.5426C26.8405 39.5396 26.7825 39.7643 27.118 39.9919C27.3973 40.2191 27.6788 40.165 27.6252 39.827C27.5698 39.714 27.4025 39.5439 27.2339 39.5426ZM49.7711 39.7154C49.6587 39.7145 49.5459 39.7699 49.545 39.8824C49.5441 39.995 49.6557 40.1083 49.7119 40.1088C49.7681 40.1092 49.8814 39.9975 49.9384 39.8854C49.9951 39.8296 49.9397 39.7166 49.7711 39.7154ZM79.6708 39.9445C79.5584 39.9436 79.4456 39.999 79.4447 40.1116C79.4439 40.2241 79.5554 40.3375 79.724 40.3388C79.8364 40.3396 79.9497 40.228 79.9506 40.1154C79.8948 40.0587 79.7832 39.9453 79.6708 39.9445ZM28.862 39.7802C28.6934 39.7789 28.5806 39.8343 28.6355 40.0035C28.6904 40.1728 28.8582 40.2866 29.083 40.2883C29.3078 40.29 29.421 40.1783 29.3095 40.065C29.198 39.9516 28.974 39.8373 28.862 39.7802ZM29.5922 39.8421C29.3091 40.1212 30.2027 40.8596 31.2122 41.1486C32.558 41.5528 33.4569 41.616 33.347 41.2775C33.2926 41.052 29.7621 39.6746 29.5922 39.8421ZM81.411 40.2392C81.3543 40.295 81.4654 40.4646 81.689 40.6352C81.9125 40.8057 82.0806 40.8632 82.1369 40.8637C82.1935 40.8078 82.0824 40.6382 81.8589 40.4677C81.6915 40.2976 81.4676 40.1833 81.411 40.2392ZM83.5998 40.6498C83.1494 40.7589 83.1489 40.8151 83.5968 41.0437C84.1005 41.3289 84.7179 41.4461 84.6638 41.1644C84.554 40.8259 84.0503 40.5407 83.5998 40.6498ZM85.3352 41.5634C85.2782 41.6755 86.3408 42.3588 87.7407 43.0448C89.1402 43.787 90.5945 44.6984 91.0416 45.0394C91.432 45.4363 91.8794 45.7211 91.9356 45.7215C92.7783 45.7842 92.07 42.8529 91.1198 42.1704C90.6727 41.8294 90.4484 41.7714 90.2223 41.9384C89.7138 42.2722 87.8583 42.3705 87.2422 42.0844C86.4588 41.6283 85.4493 41.3392 85.3352 41.5634ZM50.5416 41.8594C50.3167 41.8577 50.2597 41.9698 50.315 42.0828C50.4266 42.1962 50.5385 42.2533 50.5947 42.2537C50.6509 42.2541 50.7638 42.1987 50.8208 42.0866C50.8779 41.9745 50.7664 41.8612 50.5416 41.8594ZM49.8062 42.4727C49.6938 42.4719 49.5809 42.5273 49.5801 42.6398C49.5792 42.7523 49.747 42.8662 49.8594 42.867C49.9718 42.8679 50.085 42.7562 50.0859 42.6437C50.0306 42.5307 49.9186 42.4736 49.8062 42.4727ZM24.6746 43.4618C24.3936 43.4596 24.3352 43.7405 24.5004 44.1919C24.6102 44.5304 24.608 44.8117 24.4952 44.8671C24.3819 44.9788 24.2682 45.1467 24.2678 45.203C24.267 45.3155 24.4913 45.3735 24.6599 45.3748C24.8848 45.3765 24.9984 45.2086 24.9448 44.8705C24.8376 44.1945 24.838 44.1382 25.0646 43.9149C25.1783 43.747 25.1229 43.634 24.9547 43.5765C24.8428 43.5193 24.7308 43.4622 24.6746 43.4618ZM48.7846 43.7591C48.6143 43.9828 49.2243 45.0566 49.6709 45.4539C50.2295 45.9083 51.0176 45.7456 50.9095 45.182C50.8555 44.9003 50.632 44.7298 50.2394 44.6142C49.9026 44.5554 49.5109 44.3273 49.2883 44.0443C49.0652 43.8175 48.8417 43.647 48.7846 43.7591ZM45.1073 46.8819C44.7135 46.9351 44.7126 47.0477 44.9365 47.1619C45.1043 47.2757 45.4973 47.335 45.7221 47.3367C46.0593 47.3393 46.1159 47.2835 45.8366 47.0563C45.7251 46.9429 45.3325 46.8273 45.1073 46.8819ZM0.479063 46.99C0.366657 46.9892 0.310024 47.045 0.421567 47.1584C0.533109 47.2718 0.644652 47.3852 0.700854 47.3856C0.757057 47.386 0.813691 47.3302 0.75835 47.2172C0.759644 47.0484 0.64767 46.9913 0.479063 46.99ZM56.6544 50.9654C56.9921 50.9117 57.047 51.0809 57.207 52.2075C57.3129 53.0523 57.309 53.5587 57.14 53.6137C56.7453 53.7795 56.5239 53.3276 56.3648 52.0885C56.2584 51.2999 56.3168 51.0191 56.6544 50.9654ZM37.7451 61.4551C37.9703 61.4005 38.4191 61.5165 38.8674 61.6887C39.4277 61.9181 39.5397 61.9752 39.1463 61.9722C38.3594 61.9662 37.295 61.5079 37.7451 61.4551ZM40.7714 62.6036C40.8838 62.6045 40.9953 62.7179 40.9383 62.83C40.8812 62.9421 40.7679 63.0537 40.7117 63.0533C40.6555 63.0529 40.6002 62.9399 40.5449 62.8269C40.5461 62.6582 40.659 62.6028 40.7714 62.6036ZM44.6377 64.1525C44.7501 64.1533 44.8617 64.2667 44.917 64.3797C44.9161 64.4922 44.8595 64.548 44.6909 64.5468C44.5785 64.5459 44.4108 64.4321 44.4112 64.3758C44.4121 64.2633 44.5253 64.1516 44.6377 64.1525ZM5.30689 69.7592C5.19449 69.7583 5.08165 69.8137 5.08079 69.9263C5.07993 70.0388 5.19147 70.1522 5.36008 70.1535C5.47248 70.1543 5.58575 70.0427 5.58661 69.9301C5.58747 69.8176 5.4755 69.7605 5.30689 69.7592ZM4.56893 70.7101C4.51273 70.7097 4.39989 70.765 4.34326 70.8209C4.22999 70.9326 4.28404 71.2143 4.56203 71.6103L4.95114 72.176L4.90011 71.5004C4.84779 70.9936 4.73754 70.7114 4.56893 70.7101ZM5.85814 71.1701C5.85728 71.2826 5.80021 71.3947 5.74229 71.6194C5.68091 72.2941 6.17552 73.7608 6.78814 74.497C7.06657 74.8368 7.34629 75.0077 7.34715 74.8952C7.40465 74.7268 7.23776 74.5005 7.07002 74.3866C6.9027 74.2166 6.62773 73.4267 6.40895 72.6373C6.24897 71.5107 6.02804 71.0026 5.85814 71.1701ZM5.06268 72.2894C4.95028 72.2885 4.83701 72.4002 4.89192 72.5694C4.94683 72.7386 5.05837 72.852 5.17077 72.8529C5.28318 72.8537 5.39645 72.7421 5.34154 72.5728C5.3424 72.4603 5.23129 72.2907 5.06268 72.2894ZM5.44359 73.924C5.44359 73.924 5.44273 74.0366 5.44187 74.1491C5.49635 74.3746 5.55169 74.4875 5.60875 74.3754C5.66539 74.3196 5.66668 74.1508 5.55557 73.9812C5.4998 73.9245 5.44359 73.924 5.44359 73.924ZM5.88761 74.6589C5.7752 74.6581 5.77348 74.8831 5.94036 75.1095C6.05104 75.3354 6.2724 75.7872 6.38265 76.0694C6.4929 76.3516 6.71599 76.5784 6.8846 76.5797C7.10941 76.5814 7.05493 76.3559 6.61091 75.621C6.38998 75.1129 6.00001 74.6598 5.88761 74.6589ZM7.45438 75.5712C7.39688 75.7396 7.67359 76.3044 8.06312 76.8138C8.61954 77.5495 8.73109 77.6629 8.73367 77.3253C8.79419 76.7631 7.62644 75.1224 7.45438 75.5712ZM7.55558 77.035C7.44317 77.0341 7.38611 77.1462 7.49765 77.2596C7.60919 77.373 7.72117 77.4301 7.77737 77.4305C7.83357 77.431 7.8902 77.3751 7.83486 77.2622C7.83616 77.0934 7.72418 77.0362 7.55558 77.035ZM7.94296 77.8257C7.60574 77.8231 7.88244 78.3879 8.33034 78.6164C8.55429 78.7306 8.83487 78.7891 8.8353 78.7328C8.89236 78.6207 8.11156 77.827 7.94296 77.8257ZM10.6338 78.7466C10.4647 78.8015 10.2948 78.969 10.3506 79.0257C10.3497 79.1383 10.4622 79.1391 10.575 79.0837C10.6878 79.0283 10.7998 79.0855 10.7989 79.198C10.9062 79.874 11.0726 80.1566 11.5222 80.1601C11.9157 80.1631 12.0272 80.2765 12.08 80.727C12.1327 81.1776 12.2442 81.291 12.5261 81.1806C13.2023 80.9607 12.6493 79.7748 11.7518 79.5429C11.4154 79.4278 11.1362 79.2006 11.0817 78.9751C11.0272 78.7496 10.8595 78.6358 10.6338 78.7466ZM10.9533 81.056C10.7851 80.9984 10.7285 81.0543 10.7272 81.2231C10.7821 81.3923 10.8937 81.5057 11.0061 81.5065C11.1185 81.5074 11.2317 81.3957 11.2322 81.3395C11.2326 81.2832 11.0653 81.1131 10.9533 81.056ZM13.7557 82.0903C13.6428 82.1457 13.5849 82.3703 13.5832 82.5954C13.6377 82.8209 13.7488 82.9905 13.9174 82.9918C14.0298 82.9927 14.0877 82.7681 14.0337 82.4863C14.0363 82.1487 13.8689 81.9786 13.7557 82.0903ZM13.7445 83.5532C13.4073 83.5506 13.6835 84.1717 14.1859 84.6256C14.4652 84.8529 14.7449 85.0238 14.8577 84.9684C14.9714 84.8005 14.0255 83.5553 13.7445 83.5532ZM57.0148 84.6162L56.2267 84.779C55.6076 84.8868 54.2523 85.7204 53.008 86.7237C52.7819 86.8908 53.2324 86.7817 54.1909 86.3952C54.7546 86.1744 55.3188 85.8974 55.4325 85.7295C55.5462 85.5615 55.7719 85.4507 55.8843 85.4516C55.9967 85.4525 56.279 85.2858 56.5617 85.0629L57.0148 84.6162ZM16.0976 84.5278C15.9852 84.5269 15.9282 84.639 16.0397 84.7524C16.1513 84.8658 16.2632 84.9229 16.3194 84.9233C16.3756 84.9238 16.4327 84.8117 16.3769 84.755C16.3778 84.6424 16.2101 84.5286 16.0976 84.5278ZM15.5287 85.4237C15.3593 85.5349 15.4146 85.6479 15.6381 85.8184C16.0289 86.159 16.2546 86.0482 15.977 85.5959C15.8659 85.4263 15.6978 85.3687 15.5287 85.4237ZM16.6999 86.6143C16.5317 86.5567 16.4751 86.6126 16.4742 86.7251C16.4734 86.8376 16.6411 86.9514 16.7535 86.9523C16.8659 86.9532 16.9788 86.8978 16.9788 86.8978C16.9796 86.7852 16.8681 86.6718 16.6999 86.6143ZM18.4331 87.8092C18.3769 87.8087 18.3756 87.9775 18.5421 88.2602C18.6528 88.4861 18.8763 88.6566 18.9887 88.6575C19.1011 88.6583 19.0466 88.4328 18.824 88.1498C18.6575 87.8672 18.4898 87.7533 18.4331 87.8092ZM21.4612 88.7327C21.405 88.7322 21.405 88.7322 21.4045 88.7885C21.4037 88.901 21.5148 89.0707 21.6268 89.1278C21.7387 89.1849 21.8511 89.1858 21.9078 89.13C21.9644 89.0741 21.8533 88.9045 21.6856 88.7907C21.6294 88.7902 21.5174 88.7331 21.4612 88.7327ZM38.3773 88.9748C38.0976 88.8039 35.5663 89.0658 35.565 89.2346C35.5641 89.3472 36.1262 89.3515 36.9696 89.3017C38.2636 89.1428 38.6012 89.0891 38.3773 88.9748ZM19.7176 88.8881C19.6052 88.8872 19.5481 88.9993 19.6601 89.0565C19.7717 89.1699 19.9394 89.2837 20.108 89.285C20.2204 89.2858 20.2775 89.1737 20.1659 89.0604C20.0544 88.947 19.8862 88.8894 19.7176 88.8881ZM21.1162 89.7428C21.1158 89.7991 21.6194 90.0843 22.2351 90.4266C23.4106 91.0546 23.9713 91.2277 23.4689 90.7737C23.1339 90.4898 21.0613 89.5736 21.1162 89.7428ZM53.0928 90.3255L52.3043 90.5445C51.8534 90.7099 51.064 91.0414 50.4998 91.3184C49.5971 91.7617 49.2594 91.8153 48.2487 91.6951C46.9573 91.5164 46.5621 91.7384 47.2893 92.1941C47.681 92.4222 47.6244 92.478 47.0036 92.8109L46.2704 93.1429L46.9448 93.148C47.3382 93.151 47.9011 93.0428 48.2396 92.8766C48.5781 92.7104 49.4804 92.3235 50.2698 91.9919C51.0592 91.6603 52.0185 91.1613 52.4145 90.8267L53.0928 90.3255ZM24.3639 91.3432C24.3077 91.3428 24.3072 91.3991 24.363 91.4558C24.4746 91.5691 24.6423 91.683 24.7547 91.6838C25.0919 91.6864 24.9808 91.5168 24.5321 91.4008C24.4763 91.3441 24.4201 91.3437 24.3639 91.3432ZM26.7166 92.3741C26.6604 92.3736 26.66 92.4299 26.7158 92.4866C26.8273 92.6 26.995 92.7138 27.1075 92.7147C27.4447 92.7173 27.3336 92.5476 26.941 92.4321C26.8295 92.3187 26.7733 92.3182 26.7166 92.3741ZM28.398 93.0059C28.1174 92.9475 28.0045 93.0029 28.0603 93.0596C28.1718 93.173 28.3962 93.231 28.5648 93.2323C29.0707 93.2361 28.9591 93.1227 28.398 93.0059ZM45.7083 93.1386L45.145 93.303C44.8074 93.3567 44.075 93.5762 43.4559 93.684C42.1607 94.0117 42.104 94.0675 42.3829 94.351C42.4944 94.4643 42.775 94.5228 42.9441 94.4678C43.1693 94.4133 43.6202 94.2479 44.0145 94.1384C44.4088 94.0289 44.9168 93.7514 45.1995 93.5285L45.7083 93.1386Z" fill="#C7ABD6"/>
<path d="M191.579 170.868C193.796 165.419 195.898 160.245 198 155.071C197.734 154.924 197.469 154.776 197.211 154.631C196.801 154.947 196.179 155.183 196.012 155.595C187.733 176.258 172.17 188.559 150.998 193.888C138.021 197.153 126.448 193.536 116.496 184.725C115.587 183.917 114.738 183.031 113.769 182.301C112.826 181.591 111.773 181.032 110.144 180.76C110.806 181.872 111.319 183.115 112.157 184.079C118.061 190.854 125.172 195.973 133.38 199.705C137.272 201.478 140.773 199.918 144.301 199.073C157.335 195.951 168.385 188.712 179.442 181.554C179.512 183.8 177.765 185.935 175.162 187.245C171.898 188.892 168.721 190.721 165.509 192.479C165.635 192.738 165.761 192.997 165.892 193.253C168.32 192.331 170.746 191.418 173.175 190.496C173.224 190.723 173.265 190.947 173.314 191.173C170.534 192.83 167.871 194.744 164.95 196.094C157.508 199.528 150.105 203.194 141.756 203.935C133.424 204.667 126.452 201.838 120.053 196.466C109.984 188.01 103.369 177.509 98.1245 165.517C95.1992 158.827 94.326 151.924 92.9061 145.119C92.0053 140.81 93.3388 135.852 94.3821 131.352C95.7818 125.346 97.8311 119.485 99.6918 113.595C100.211 111.957 100.979 110.377 101.813 108.871C102.06 108.426 102.933 108.325 103.736 107.974C103.538 106.245 103.169 104.227 105.998 103.869C106.316 103.829 106.256 102.259 106.728 101.701C108.553 99.5265 110.558 97.5003 112.431 95.3608C113.657 93.9627 114.706 92.3999 115.966 91.0374C116.772 90.1665 117.719 89.3041 118.776 88.7949C121.43 87.5114 124.589 86.9432 126.818 85.174C132.204 80.8843 139.003 81.1521 145.031 79.3992C150.593 77.7827 157.189 78.5832 163.08 79.6474C168.355 80.6099 173.401 83.1724 178.35 85.4519C180.413 86.4035 181.934 88.502 183.765 89.9967C185.526 91.4336 187.193 93.1543 189.214 94.0597C192.616 95.5844 194.164 98.8392 196.695 101.138C198.195 102.496 199.756 103.861 200.911 105.488C202.253 107.381 203.196 109.561 204.267 111.644C204.938 112.95 205.525 114.305 206.161 115.659C205.67 115.433 205.153 115.187 205.184 115.204C207.129 125.746 208.246 136.489 203.529 147.136C203.386 146.526 203.234 145.913 203.091 145.302C202.894 145.27 202.705 145.24 202.508 145.209C202.062 147.734 201.615 150.259 201.095 153.212C201.902 152.653 202.28 152.392 202.92 151.947C200.91 159.297 198.578 166.129 191.579 170.868ZM196.301 112.861C197.135 115.717 198.217 118.525 198.728 121.439C199.301 124.671 199.748 128.027 199.535 131.28C199.242 135.76 198.277 140.2 197.591 144.679C198.531 144.034 199.197 143.573 199.863 143.112C200.215 143.237 200.57 143.366 200.921 143.49C201.015 138.078 201.246 132.669 201.129 127.261C201.086 125.191 200.052 123.158 199.834 121.071C199.503 117.886 198.725 115.004 196.193 112.847C195.906 111.42 195.62 109.985 195.332 108.558C195.511 108.487 195.69 108.416 195.868 108.345C197.414 110.365 198.965 112.382 200.511 114.402C200.749 114.167 200.995 113.935 201.233 113.701C193.901 103.67 184.235 96.4512 173.125 90.9809C174.818 92.8283 176.889 94.2365 178.673 95.9511C183.817 100.913 188.837 106.013 193.933 111.026C194.639 111.72 195.506 112.255 196.301 112.861ZM147.054 187.138C147.41 187.593 147.759 188.046 148.116 188.501C165.81 186.076 178.654 176.766 186.658 160.566C176.456 173.735 163.253 182.598 147.054 187.138ZM105.666 113.161C110.579 112.023 112.044 109.843 111.788 104.667C109.496 107.838 107.583 110.498 105.666 113.161ZM117.977 192.553C113.641 187.393 109.302 182.228 104.396 176.399C107.767 183.597 112.844 188.195 117.977 192.553Z" fill="#C7ABD6"/>
<path d="M190.546 169.814C190.804 173.966 186.943 178.22 182.283 181.971C182.071 181.806 181.857 181.65 181.644 181.485C184.512 177.715 187.384 173.951 190.546 169.814Z" fill="#C7ABD6"/>
</svg>
