<svg width="159" height="155" viewBox="0 0 159 155" fill="none" xmlns="http://www.w3.org/2000/svg">
<path d="M152.747 56.8667C152.62 56.2504 152.492 55.6341 152.281 55.1121C151.881 54.4236 151.737 53.5408 151.809 53.2687C151.881 52.9967 151.765 52.558 151.487 52.397C151.209 52.2359 150.904 51.6306 150.876 51.1865C150.843 50.6535 150.732 50.3036 150.554 50.3147C150.376 50.3258 150.359 50.0593 150.421 49.6096C150.482 49.1598 150.371 48.81 150.182 48.6434C150.004 48.6545 149.804 48.3102 149.782 47.9549C149.738 47.2442 145.154 41.0193 144.032 40.1973C143.565 39.8697 143.093 39.4532 142.904 39.2866C141.854 38.1926 141.465 37.6817 141.059 36.9043C140.848 36.3824 140.276 35.7937 139.815 35.5549C139.265 35.3216 138.042 34.3275 137.098 33.4945C135.97 32.5837 134.769 31.945 134.052 31.9004C133.419 31.7615 132.874 31.617 132.863 31.4393C132.841 31.084 129.289 29.9673 128.761 30.0893C127.972 30.3168 125.838 29.0227 125.427 28.1565C125.216 27.6345 124.744 27.218 124.471 27.1458C124.205 27.1624 123.265 26.4182 122.41 25.5797C121.554 24.7411 120.426 23.8303 119.965 23.5915C119.598 23.436 118.576 22.7861 117.831 22.2974C117.086 21.8087 116.436 21.4032 116.347 21.4088C115.908 21.5253 112.107 19.2648 110.234 17.8652C108.456 16.549 106.628 15.8602 105.577 16.1931C104.871 16.3262 104.327 16.1817 103.482 15.5209C102.915 15.0211 102.265 14.6156 102.176 14.6211C101.998 14.6322 101.459 14.5766 100.998 14.3377C100.453 14.1933 99.6416 14.0654 99.0191 14.1042C98.4855 14.1374 97.4072 14.0261 96.5903 13.8094C94.0448 13.076 93.2334 12.9481 92.2827 13.4532C91.8491 13.6585 91.3211 13.7806 91.2211 13.6084C91.1211 13.4363 90.6654 13.2863 90.3151 13.3973C89.7037 13.6137 88.7088 13.408 86.6246 12.9135C86.1689 12.7635 85.6353 12.7967 85.4685 12.9854C85.3017 13.1742 84.7515 12.9409 84.2737 12.4355C83.8014 12.019 83.1622 11.7912 82.6342 11.9133C82.195 12.0298 81.6559 11.9742 81.4725 11.8964C81.2836 11.7298 80.1164 11.6241 78.7769 11.6182C76.9871 11.5512 76.2646 11.4178 75.8702 10.8181C75.4757 10.2184 74.9311 10.074 73.6026 10.2458C72.6243 10.3067 71.5516 10.2843 71.1793 10.0399C70.718 9.80105 69.9066 9.67318 69.1896 9.62862C68.4726 9.58406 67.3943 9.47279 66.7663 9.4227C66.0548 9.46697 65.4157 9.2392 65.3102 8.97823C65.1212 8.81163 64.671 8.75046 64.1485 8.96134C63.6259 9.17221 62.4698 9.24416 61.5805 9.2995C56.8504 9.3263 56.05 9.37611 55.5496 9.94233C55.2104 10.231 54.5934 10.3585 53.7875 10.3195C52.7092 10.2083 51.6475 10.3635 50.2522 10.8962C49.991 11.0017 49.9131 11.1849 50.102 11.3515C50.202 11.5236 50.6467 11.4959 50.9914 11.2961C51.5918 10.9021 51.5973 10.9909 51.0913 11.4683C50.5075 12.1289 46.4774 13.3606 45.9217 13.0385C45.1881 12.7274 45.9608 12.2334 47.634 11.8618C50.1909 11.3459 49.6187 10.7573 46.8783 11.1954C43.6043 11.6666 38.5125 13.0536 38.5402 13.4978C38.5512 13.6755 39.1793 13.7256 39.8797 13.5036C41.8141 13.0266 45.177 12.5497 45.3659 12.7163C45.4604 12.7997 44.9379 13.0105 44.3264 13.2269C43.626 13.4489 42.7477 13.6819 42.2251 13.8928C41.7026 14.1036 41.0022 14.3256 40.563 14.4421C39.9516 14.6585 39.8681 14.7529 40.2349 14.9084C40.5128 15.0695 40.863 14.9585 41.2022 14.6699C41.4524 14.3868 41.8026 14.2758 41.897 14.3591C42.086 14.5257 42.803 14.5703 43.5089 14.4371C44.3927 14.293 42.6804 15.4697 41.1906 15.9191C40.2289 16.2465 39.2838 16.8404 38.9502 17.2179C38.7055 17.5898 38.1161 18.1616 37.6825 18.3669C36.5651 19.0607 34.4523 20.9758 33.2846 22.2969C32.7008 22.9575 32.1059 23.4404 31.7557 23.5514C31.4944 23.6569 30.8217 24.323 30.2433 25.0724C29.665 25.8218 28.5808 27.0486 27.7356 27.8147C26.8905 28.5807 26.1399 29.43 26.0675 29.7021C25.9952 29.9741 25.4113 30.6347 24.8275 31.2953C24.2437 31.9559 23.2539 33.266 22.5977 34.1986C21.947 35.2201 21.0461 36.5247 20.4678 37.2741C19.884 37.9347 19.2333 38.9561 18.9942 39.4169C17.3758 42.1038 16.5081 43.9414 16.1353 45.124C15.9127 45.8513 15.362 47.0449 14.8837 47.9664C14.4054 48.888 13.5432 50.8144 13.0981 52.269C12.6585 53.8124 11.8018 55.8277 11.329 56.8381C10.3779 58.77 10.0327 60.3967 10.8557 59.2754C11.5174 58.4316 12.251 58.7426 12.045 59.7364C11.9948 60.3638 12.0058 60.5415 12.2561 60.2584C12.4229 60.0696 12.5731 59.6144 12.551 59.2591C12.5012 58.4595 14.8159 51.1811 15.973 48.2554C16.4403 47.1561 17.002 46.1402 17.1799 46.1291C17.3578 46.1181 18.4089 44.3582 19.3544 42.3374C20.389 40.3111 22.0018 37.5353 22.9861 36.1364C23.9704 34.7375 24.8768 33.5217 24.9547 33.3385C25.4385 32.5058 28.9305 28.3646 31.1101 26.0886C33.9569 23.0577 34.8297 22.7359 35.4738 24.4794C35.8959 25.5233 35.818 25.7065 34.0499 27.4217C33.7108 27.7104 32.8767 28.6541 32.2095 29.409C31.5422 30.164 30.8639 30.7413 30.7695 30.658C30.675 30.5747 31.4201 29.6365 32.5099 28.4985C33.6053 27.4494 34.4283 26.328 34.4117 26.0615C34.3951 25.795 34.2951 25.6229 34.2062 25.6284C33.9449 25.7339 32.01 27.6379 30.6032 29.4198C29.7691 30.3635 29.1074 31.2073 28.9295 31.2184C28.4904 31.3349 23.9528 37.3248 22.4957 39.7341C19.3369 44.9247 16.778 51.1482 14.7688 59.0319C13.8283 62.5684 13.8489 67.2045 14.7147 71.0745C14.9534 72.0406 14.8644 72.0462 14.3142 71.8129C13.7641 71.5796 13.6807 71.6739 13.7193 72.2958C13.747 72.74 14.3022 74.489 14.8574 76.238C16.0513 79.6418 16.0513 79.6418 16.2835 83.3729C16.477 86.4821 17.0659 87.3373 18.628 86.6158C19.1505 86.4049 19.5731 86.0219 19.562 85.8442C19.551 85.6666 19.7288 85.6555 20.0067 85.8166C20.379 86.0609 20.3956 86.3275 20.2288 86.5162C20.062 86.7049 21.1231 87.9766 22.9234 89.6482C24.5348 91.1531 26.2572 93.0079 26.7461 93.6909C27.235 94.3739 27.8073 94.9626 28.0797 95.0348C28.352 95.107 29.4021 96.201 30.5633 97.6448C31.719 98.9998 32.8746 100.355 33.2525 100.688C33.6303 101.021 34.4081 102.043 35.1749 102.887L36.4305 104.414L35.0076 104.503C32.9621 104.63 26.7206 103.324 24.9646 102.363C24.5922 102.119 24.0089 101.352 23.6089 100.664C23.2924 99.8809 22.809 99.2867 22.7256 99.3811C22.3754 99.492 22.4086 100.025 22.8753 100.353C23.0643 100.519 23.1698 100.78 22.914 100.975C22.4915 101.358 20.1576 99.7192 18.9909 98.1866C18.413 97.5091 17.7408 96.7483 17.4574 96.4984C17.174 96.2485 16.8851 95.9098 16.8685 95.6433C16.8187 94.8437 13.2181 91.5006 13.2624 92.2113C13.2845 92.5666 13.1287 92.9331 12.9508 92.9441C12.3338 93.0717 13.1448 94.6265 14.6673 96.137C15.523 96.9755 16.4841 98.075 16.873 98.5859C17.173 99.1023 17.8287 99.5966 18.2844 99.7466C18.7402 99.8966 19.9405 100.535 20.8741 101.191C21.8077 101.846 22.7302 102.324 22.997 102.307C23.1748 102.296 23.9139 102.696 24.4862 103.285C25.4364 104.206 26.4423 104.59 29.966 105.262C30.4162 105.323 30.8774 105.562 30.8885 105.74C30.9217 106.273 33.0892 106.673 35.3126 106.535C36.5576 106.457 37.9027 106.552 38.2695 106.708C38.9086 106.935 43.2709 109.607 45.0436 110.834C46.9996 112.139 48.1 112.606 49.5506 112.962C52.5352 113.578 55.9528 115.417 57.9531 117.433C59.3811 118.86 63.6489 121.448 65.5608 122.043C66.2888 122.265 67.3003 122.737 67.6892 123.248C68.1615 123.664 68.8061 123.981 69.1563 123.87C69.5955 123.753 71.3073 124.004 73.1192 124.426C77.1041 125.337 78.8994 125.493 81.5508 125.061C82.7014 124.9 83.7631 124.745 83.8575 124.828C84.0409 124.906 86.1643 124.595 88.5434 124.09C91.0114 123.58 94.1964 123.114 95.6138 122.937C97.0313 122.76 98.7099 122.477 99.3269 122.349C100.995 121.889 100.072 122.838 97.909 123.954C96.8695 124.464 96.1801 124.864 96.5414 124.93C96.8971 124.908 97.0026 125.169 96.9358 125.53C96.8022 126.252 97.1524 126.141 99.2149 124.853C100.588 123.965 101.027 123.849 101.405 124.182C101.783 124.515 101.955 124.415 102.367 123.854C102.94 123.016 104.402 122.123 105.374 121.973C105.73 121.951 106.325 121.468 106.653 121.002C106.937 119.825 107.371 119.619 112.385 118.415C115.547 117.594 118.438 116.701 119.211 116.207C119.989 115.802 120.934 115.208 121.279 115.008C121.713 114.803 122.213 114.237 122.452 113.776C122.847 112.949 123.959 112.166 126.472 110.939C128.034 110.218 128.362 109.752 128.301 108.775C128.262 108.153 128.429 107.964 129.057 108.014C129.502 107.986 129.936 107.781 130.013 107.598C130.091 107.415 129.724 107.259 129.185 107.203C128.118 107.27 127.996 106.742 129.047 106.409C129.486 106.293 130.17 105.804 130.587 105.333C131.004 104.861 131.676 104.195 131.927 103.912C132.266 103.623 132.739 102.613 133.045 101.791C133.345 100.88 133.74 100.053 133.912 99.9533C134.085 99.8533 134.235 99.3981 134.213 99.0428C134.191 98.6874 134.33 98.0545 134.569 97.5937C134.808 97.1329 135.02 96.228 135.075 95.6894C135.126 95.062 135.61 94.2293 136.115 93.7519C136.621 93.2745 137.461 92.4197 137.956 91.7646C138.456 91.1984 139.29 90.2547 139.885 89.7718C140.73 89.0058 142.176 86.4188 143.411 83.3098C143.562 82.8545 143.884 82.2994 144.218 81.9219C144.463 81.55 144.702 81.0892 144.685 80.8227C144.669 80.5562 144.897 79.9177 145.141 79.5458C145.38 79.085 145.614 78.5354 145.598 78.2689C145.581 78.0024 145.648 77.6415 145.626 77.2861C145.598 76.842 145.687 76.8364 146.154 77.1641C146.626 77.5806 146.637 77.7583 146.337 78.6688C146.103 79.2184 145.597 81.1227 144.99 82.8548C144.473 84.5814 143.46 86.9631 142.732 88.1678C142.003 89.3725 141.375 90.7493 141.313 91.199C141.252 91.6487 140.685 92.5758 140.19 93.2309C139.361 94.2634 139.283 94.4466 139.728 94.4189C140.084 94.3968 140.506 94.0138 140.823 93.3698C141.146 92.8146 141.724 92.0652 142.241 91.7655C143.865 90.5943 145.389 87.8241 146.88 83.094C147.62 80.64 148.466 78.4471 148.543 78.2639C149.049 77.7865 150.518 72.701 150.307 72.1791C150.202 71.9181 150.386 70.569 150.659 69.2143C151.015 67.7653 151.193 66.3273 151.171 65.9719C151.149 65.6166 151.522 64.4341 151.9 63.3404C152.762 61.4139 152.958 58.8156 152.747 56.8667ZM151.62 70.3138C151.52 70.1417 151.259 70.2471 151.014 70.6191C150.43 71.2797 150.53 71.4518 151.214 70.9633C151.559 70.7635 151.72 70.486 151.62 70.3138ZM146.875 64.3665C146.93 66.6818 146.512 68.5805 145.033 72.0614C144.404 73.4382 143.942 74.6263 143.953 74.804C144.009 75.6923 140.349 84.303 138.424 87.8116C137.54 89.3827 137.006 89.4159 137.624 87.8614C137.774 87.4061 138.136 86.0459 138.414 84.7801C138.692 83.5143 139.132 81.9708 139.455 81.4157C139.772 80.7717 140.378 79.0396 140.829 77.6738C141.274 76.2192 141.886 74.5759 142.12 74.0263C142.437 73.3823 142.659 72.655 142.637 72.2997C142.587 71.5002 146.314 62.5286 146.753 62.4121C146.753 62.4121 146.898 63.2949 146.875 64.3665ZM129.616 99.7747C129.488 100.585 126.207 103.822 124.906 104.438C123.261 105.253 121.726 106.419 121.076 107.441C120.748 107.907 120.153 108.39 119.536 108.517C118.569 108.756 118.474 108.673 118.413 107.695C118.358 106.807 118.519 106.529 119.376 105.941C119.976 105.547 121.01 104.948 121.888 104.715C124.162 103.949 125.012 103.272 126.425 101.579C127.242 100.368 127.921 99.791 128.627 99.6579C129.327 99.436 129.688 99.5027 129.616 99.7747ZM117.403 120.154C117.475 119.882 117.203 119.81 116.586 119.938C116.058 120.06 115.63 120.354 115.641 120.531C115.652 120.709 116.019 120.865 116.369 120.754C116.897 120.632 117.325 120.337 117.403 120.154ZM108.114 59.8225C108.13 60.089 108.052 60.2722 107.808 60.6442C107.146 61.488 105.828 61.8375 104.822 61.4542C103.917 61.243 103.811 60.9821 104.134 60.4269C104.295 60.1493 104.379 58.6281 104.269 55.4244C104.247 55.0691 104.402 54.7027 104.669 54.6861C104.841 54.5862 105.186 54.3864 105.259 54.1143C105.331 53.8423 105.236 53.759 104.892 53.9588C104.458 54.1641 104.269 53.9975 104.219 53.198C104.059 52.0487 104.142 51.9543 105.059 52.3431C105.976 52.732 106.798 54.4644 106.698 55.7192C106.569 56.5298 106.792 57.2294 107.491 58.4344C107.897 59.2117 108.097 59.556 108.114 59.8225ZM111.778 121.574C111.756 121.219 110.672 121.019 109.971 121.241C109.443 121.363 109.571 121.979 110.116 122.124C110.838 122.257 111.805 122.019 111.778 121.574ZM105.929 59.1558C105.718 58.6339 105.54 58.6449 105.212 59.1113C104.801 59.6719 104.689 60.749 105.04 60.6381C105.657 60.5105 106.14 59.6778 105.929 59.1558ZM105.972 64.1472C106.005 64.6802 105.866 65.3132 105.46 65.9627C104.904 67.0674 104.904 67.0674 104.421 66.4733C104.132 66.1345 103.932 65.7903 104.01 65.6071C104.004 65.5182 104.06 64.9797 104.116 64.4411C104.205 63.0087 104.539 62.6312 105.278 63.0311C105.739 63.2699 105.939 63.6142 105.972 64.1472ZM105.137 50.733C105.098 51.5381 102.585 52.7646 102.113 52.3481C101.641 51.9316 100.935 52.0647 100.963 52.5089C100.974 52.6866 101.251 52.8476 101.513 52.7422C101.868 52.72 102.335 53.0477 102.546 53.5697C102.957 54.4359 102.968 54.6136 102.379 55.1853C101.879 55.7515 101.823 56.2901 101.906 57.6226C101.967 58.5998 102.205 59.5659 102.311 59.8269C102.511 60.1712 102.444 60.5321 102.038 61.1816C101.71 61.6479 101.554 62.0143 101.815 61.9089C102.343 61.7868 102.604 63.1083 102.253 64.6462C102.031 65.3735 101.853 66.8114 101.736 67.7997C101.596 69.8595 101.145 71.2253 99.8826 73.89C98.7702 76.0996 98.4476 76.6547 98.3868 75.6775C98.337 74.878 96.8417 75.2386 96.6247 76.0547C96.5579 76.4156 96.3076 76.6987 96.1353 76.7986C95.9574 76.8097 95.4681 77.5536 95.0732 78.3808C94.6782 79.208 94.1778 79.7742 93.9055 79.702C93.3608 79.5575 92.8212 80.9288 93.0543 81.8061C93.3875 82.8555 92.2364 84.4432 91.2471 84.3264C90.619 84.2763 90.4522 84.465 90.313 85.0979C90.2683 85.8141 87.9998 88.0956 87.0326 88.3342C86.7713 88.4396 86.0875 88.9281 85.4981 89.4998C83.8245 91.2984 82.1789 92.1142 81.2675 91.8142C80.1671 91.3476 79.2054 91.675 78.905 92.5855C78.6714 93.1351 78.5879 93.2295 78.1212 92.9018C77.8378 92.6519 77.5489 92.3132 77.5323 92.0467C77.5157 91.7801 77.3212 91.5247 77.06 91.6301C76.7987 91.7356 76.6098 91.569 76.5987 91.3913C76.5877 91.2136 76.8379 90.9305 77.1047 90.9139C77.4494 90.7141 77.9609 90.3256 78.2945 89.9481C78.5392 89.5761 79.0507 89.1876 79.3119 89.0822C79.5732 88.9767 80.1626 88.405 80.6519 87.6611C81.3026 86.6396 81.4418 86.0067 81.4257 84.3133C81.3096 82.4477 81.4653 82.0813 82.4386 80.5047C83.0892 79.4832 83.8454 78.7227 84.2845 78.6062C84.9905 78.4731 85.1518 78.1955 85.3301 76.7576C85.4527 75.8582 85.8089 74.4091 86.026 73.593C86.332 72.7713 86.5269 71.5999 86.5771 70.9725C86.6274 70.3451 86.6721 69.6289 86.7444 69.3568C86.9112 69.1681 87.0172 68.0021 87.0343 66.8417C87.0514 65.6813 87.3689 63.6105 87.5583 62.3501C88.1095 59.7296 87.9874 59.2022 87.1533 60.1459C86.7363 60.6177 86.5584 60.6288 86.4363 60.1013C86.0198 59.1462 85.9092 57.3695 86.1152 56.3757C86.171 55.8372 86.1488 55.4818 85.9765 55.5817C85.7986 55.5928 85.5705 56.2313 85.5258 56.9475C85.4811 57.6637 85.2083 59.0184 85.0912 60.0066C84.8853 61.0004 84.6732 63.3323 84.517 65.1256C84.2995 67.3686 84.0377 68.901 83.5594 69.8226C83.1589 70.5609 82.853 71.3826 82.8696 71.6491C82.8861 71.9156 82.8083 72.0988 82.6304 72.1099C82.4525 72.1209 82.2189 72.6705 81.9908 73.309C81.7627 73.9474 81.4567 74.7691 81.2175 75.2299C81.0673 75.6851 80.7613 76.5068 80.5222 76.9676C80.3775 77.5117 79.966 78.0724 79.5324 78.2777C79.0988 78.483 78.6873 79.0437 78.6204 79.4046C77.7357 82.4026 76.156 85.7114 75.539 85.8389C74.4884 86.1718 72.9594 87.4263 72.9981 88.0482C73.0423 88.7589 71.3355 90.0244 69.6624 90.3961C68.873 90.6236 68.3615 91.0121 67.9611 91.7504C67.327 93.0384 65.8594 93.8432 62.0126 95.1527L59.5667 96.0184L58.4558 93.9472C57.0449 91.3596 56.1841 89.0053 56.0957 87.5839C56.057 86.9621 55.7294 86.0015 55.335 85.4018C54.9405 84.8021 54.4963 83.4028 54.2466 82.259C53.9969 81.1152 53.7582 80.1491 53.6582 79.977C53.4582 79.6327 53.8707 76.2182 54.1988 75.7519C54.3601 75.4743 54.8163 74.1974 55.2725 72.9205C56.1794 70.2778 58.8102 65.2092 61.563 60.6681C62.6141 58.9083 63.6708 57.2373 63.9099 56.7765C64.3048 55.9493 64.3048 55.9493 63.8044 56.5156C62.8091 57.7368 63.1598 56.199 64.2219 54.6168C65.1117 53.1346 65.9845 52.8127 65.7006 53.9897C65.4891 54.8947 66.095 54.5894 67.7797 52.9685C69.381 51.442 69.4313 50.8146 68.0973 50.8976C67.3858 50.9419 67.2913 50.8586 67.6139 50.3035C68.5705 48.4603 66.4356 50.0201 65.2233 52.0575C64.8173 52.707 64.4058 53.2677 64.2279 53.2787C64.0501 53.2898 63.1492 54.5944 62.1704 56.0822C61.2806 57.5644 60.2908 58.8745 60.1129 58.8856C59.8461 58.9022 59.5291 59.5462 59.301 60.1846C58.8392 61.3727 56.9375 63.8097 56.8988 63.1879C56.8877 63.0102 57.4384 61.8166 58.1614 60.5231C58.8844 59.2296 59.6798 57.664 59.9079 57.0256C60.6701 54.927 62.0493 52.7009 63.0054 52.2847C63.4446 52.1681 64.2842 51.3133 64.857 50.475C67.3038 46.7556 69.4387 45.1958 70.3999 46.2954C70.7778 46.6286 70.9557 46.6175 71.8842 45.7571C72.4791 45.2742 73.491 44.3194 74.1748 43.831C74.7642 43.2592 75.7761 42.3044 76.3655 41.7327C77.7889 40.2172 79.1621 39.3292 81.1578 38.4024C83.3314 37.4645 83.9594 37.5146 83.759 38.5972C83.6309 39.4078 84.6865 40.5906 85.4759 40.3632C85.6537 40.3521 85.9261 40.4243 86.0316 40.6853C86.1426 41.0351 86.2316 41.0296 86.5597 40.5633C86.7209 40.2857 87.2324 39.8971 87.5826 39.7862C88.3775 39.6475 88.9498 40.2362 88.4439 40.7135C88.277 40.9023 88.1545 41.8017 88.3042 42.7734C88.365 43.7506 88.3369 44.7333 88.2645 45.0053C88.1033 45.2829 88.2032 45.455 88.559 45.4329C88.8202 45.3275 89.1483 44.8612 89.382 44.3115C89.4267 43.5953 89.6658 43.1345 89.8382 43.0346C89.9216 42.9403 90.1884 42.9237 90.3607 42.8238C90.9722 42.6073 91.028 42.0688 90.5723 41.9188C90.211 41.8521 90.011 41.5078 89.9889 41.1525C89.9668 40.7971 89.7668 40.4529 89.5834 40.3751C89.4 40.2973 89.5779 40.2863 89.9336 40.2641C90.3783 40.2364 91.6289 40.2478 92.785 40.1759C94.8305 40.0486 94.836 40.1374 94.719 41.1257C94.6074 42.2028 95.3852 43.2245 96.9358 43.7523C97.3971 43.9911 97.9583 44.4021 98.2527 44.8297C98.7416 45.5127 99.4029 46.0958 100.625 47.0899C100.909 47.3398 101.453 47.4843 101.815 47.551C102.265 47.6121 102.459 47.8676 102.404 48.4061C102.348 48.9447 102.637 49.2834 103.732 49.6612C104.637 49.8723 105.11 50.2889 105.137 50.733ZM109.071 121.119C109.149 120.935 109.049 120.763 108.765 120.513C108.482 120.263 108.032 120.202 107.693 120.491C106.92 120.985 107.214 121.413 108.198 121.44C108.643 121.413 108.904 121.307 109.071 121.119ZM105.996 123.361C105.896 123.189 105.446 123.128 104.207 123.294C103.228 123.355 102.617 123.571 102.634 123.838C102.661 124.282 105.685 124.094 106.019 123.716C106.008 123.539 106.002 123.45 105.996 123.361ZM93.5176 43.3407C93.5066 43.1631 93.3177 42.9965 93.0564 43.1019C92.7951 43.2073 92.7172 43.3905 92.8172 43.5627C92.9117 43.646 93.1006 43.8126 93.2729 43.7127C93.4508 43.7016 93.5287 43.5184 93.5176 43.3407ZM94.6457 126.029C94.6517 124.691 94.5462 124.43 94.1402 125.08C93.901 125.541 94.0282 127.584 94.3784 127.473C94.5562 127.462 94.6954 126.829 94.6457 126.029ZM89.6925 46.4325C89.6538 45.8107 89.2926 45.744 88.97 46.2991C88.6419 46.7654 88.7585 47.2041 89.2865 47.082C89.4589 46.9821 89.7091 46.699 89.6925 46.4325ZM91.9093 82.0557C91.8982 81.878 91.7982 81.7059 91.6204 81.7169C91.4425 81.728 91.2757 81.9167 91.2812 82.0056C91.2867 82.0944 91.4757 82.261 91.6591 82.3388C91.7535 82.4221 91.9259 82.3222 91.9093 82.0557ZM94.8502 129.316C94.8391 129.139 94.7392 128.966 94.5613 128.978C94.3834 128.989 94.2166 129.177 94.2332 129.444C94.2442 129.622 94.4332 129.788 94.611 129.777C94.6944 129.683 94.8613 129.494 94.8502 129.316ZM89.4971 49.0309C89.4805 48.7644 89.3805 48.5923 89.1192 48.6977C88.858 48.8031 88.6967 49.0807 88.7188 49.436C88.7409 49.7914 88.9298 49.958 89.0967 49.7693C89.2635 49.5805 89.4192 49.2141 89.4971 49.0309ZM89.48 50.1913C89.0077 49.7748 87.94 51.2681 87.5949 52.8948C87.105 55.0656 87.1045 56.4925 87.6271 56.2816C87.9773 56.1707 89.7634 50.4412 89.48 50.1913ZM94.5769 132.098C94.4824 132.015 94.2267 132.209 93.982 132.581C93.7373 132.953 93.665 133.225 93.6705 133.314C93.765 133.397 94.0207 133.203 94.2654 132.831C94.5156 132.548 94.6714 132.181 94.5769 132.098ZM94.17 135.601C93.9479 134.902 93.8589 134.907 93.5474 135.64C93.1525 136.467 93.0354 137.455 93.4746 137.339C93.9971 137.128 94.392 136.301 94.17 135.601ZM92.9184 138.444C92.735 138.366 91.7728 140.12 90.8438 142.407C89.8259 144.7 88.5467 147.099 88.0573 147.842C87.4735 148.503 87.073 149.241 87.0785 149.33C87.0725 150.668 91.6252 149.226 92.5984 147.649C93.0878 146.905 93.1546 146.544 92.8657 146.206C92.2824 145.439 91.9221 142.519 92.3059 141.514C92.94 140.226 93.2852 138.599 92.9184 138.444ZM88.6072 83.5097C88.5851 83.1543 88.4017 83.0766 88.2293 83.1765C88.0625 83.3652 87.9846 83.5484 87.9902 83.6372C87.9957 83.7261 88.0957 83.8982 88.2791 83.976C88.4625 84.0538 88.6293 83.865 88.6072 83.5097ZM87.557 82.4157C87.546 82.238 87.446 82.0659 87.2681 82.0769C87.0903 82.088 86.929 82.3656 86.94 82.5433C86.9511 82.7209 87.14 82.8875 87.3179 82.8765C87.4902 82.7766 87.5681 82.5933 87.557 82.4157ZM83.2184 42.8223C83.1908 42.3781 82.7406 42.317 82.0457 42.6277C81.5231 42.8386 81.0785 42.8663 80.9785 42.6942C80.7896 42.5275 80.5117 42.3665 80.4228 42.372C80.2449 42.3831 80.1781 42.744 80.1947 43.0105C80.2168 43.3658 80.4946 43.5269 81.0227 43.4048C82.0788 43.1608 82.1678 43.1552 82.5456 43.4884C82.8235 43.6495 82.9958 43.5496 83.0682 43.2776C83.146 43.0943 83.2239 42.9111 83.2184 42.8223ZM85.4121 80.9439C85.0397 80.6996 83.4108 81.7819 82.8325 82.5313C82.1763 83.464 82.5205 84.691 83.3988 84.458C83.8379 84.3415 84.0826 83.9696 84.2218 83.3367C84.2776 82.7981 84.5946 82.1541 85.0172 81.7711C85.3508 81.3936 85.5955 81.0217 85.4121 80.9439ZM80.0725 75.4795C79.9448 74.8632 79.767 74.8743 79.6112 75.2407C79.4499 75.5182 79.3997 76.1456 79.4218 76.501C79.455 77.034 79.5494 77.1173 79.8775 76.651C80.0443 76.4622 80.1835 75.8293 80.0725 75.4795ZM74.9717 4.98818C74.9607 4.81051 74.8662 4.72721 74.6994 4.91595C74.5326 5.10469 74.3658 5.29343 74.3713 5.38226C74.3768 5.4711 74.4713 5.5544 74.6436 5.4545C74.9104 5.43789 74.9883 5.25469 74.9717 4.98818ZM74.897 94.1726C75.0191 94.7001 74.7578 94.8055 72.9957 95.1827C71.6728 95.4434 70.8724 95.4932 70.7668 95.2322C70.4613 94.627 71.1507 94.2274 73.0906 93.8391C74.3247 93.584 74.7749 93.6451 74.897 94.1726ZM56.2366 65.4586C56.3476 65.8084 56.214 66.5301 55.9914 67.2574C55.691 68.1679 55.6131 68.3511 55.5744 67.7293C55.497 66.4856 56.1034 64.7534 56.2366 65.4586ZM54.7564 70.3664C54.7675 70.5441 54.6007 70.7328 54.4173 70.655C54.2339 70.5773 54.045 70.4107 54.0395 70.3218C54.0339 70.233 54.2063 70.1331 54.3786 70.0332C54.6454 70.0166 54.7454 70.1887 54.7564 70.3664ZM52.7367 76.6455C52.7477 76.8231 52.5809 77.0119 52.4086 77.1118C52.2307 77.1229 52.1363 77.0396 52.1197 76.773C52.1086 76.5954 52.2699 76.3178 52.3588 76.3123C52.5367 76.3012 52.7256 76.4678 52.7367 76.6455ZM39.5345 15.1304C39.5235 14.9527 39.4235 14.7805 39.2456 14.7916C39.0677 14.8027 38.9009 14.9914 38.9175 15.2579C38.9286 15.4356 39.1175 15.6022 39.2954 15.5911C39.4732 15.5801 39.5511 15.3969 39.5345 15.1304ZM37.9508 14.0696C37.9453 13.9807 37.8453 13.8086 37.7508 13.7253C37.5619 13.5587 37.1227 13.6752 36.5279 14.1581L35.6772 14.8353L36.7389 14.6801C37.5338 14.5414 37.9674 14.3361 37.9508 14.0696ZM37.3665 16.1571C37.1886 16.1681 37.0052 16.0904 36.6439 16.0237C35.5712 16.0012 33.3087 16.9447 32.2134 17.9938C31.7074 18.4712 31.4682 18.932 31.6461 18.9209C31.9184 18.9931 32.2576 18.7045 32.4189 18.4269C32.6691 18.1438 33.8865 17.6221 35.1095 17.1893C36.8716 16.8121 37.6499 16.407 37.3665 16.1571ZM35.5104 15.0241C35.4993 14.8464 35.3104 14.6798 35.0492 14.7852C34.7879 14.8907 34.6211 15.0794 34.6321 15.2571C34.6432 15.4347 34.8321 15.6013 35.0934 15.4959C35.2712 15.4848 35.527 15.2906 35.5104 15.0241ZM32.97 15.8064C32.97 15.8064 32.7922 15.8175 32.6143 15.8285C32.2641 15.9395 32.0917 16.0394 32.2751 16.1172C32.3696 16.2005 32.6364 16.1839 32.8921 15.9896C32.9755 15.8952 32.97 15.8064 32.97 15.8064ZM31.8581 16.589C31.8471 16.4114 31.4913 16.4335 31.1522 16.7221C30.8075 16.9219 30.1181 17.3216 29.6845 17.5269C29.2509 17.7322 28.9173 18.1097 28.9339 18.3762C28.956 18.7316 29.3062 18.6206 30.4181 17.838C31.1964 17.4328 31.8692 16.7667 31.8581 16.589ZM30.59 19.165C30.3176 19.0927 29.4559 19.5923 28.6942 20.2639C27.5934 21.2242 27.4266 21.413 27.9602 21.3798C28.855 21.4132 31.318 19.3872 30.59 19.165ZM28.2887 19.4865C28.2777 19.3089 28.0943 19.2311 27.9275 19.4198C27.7607 19.6086 27.6828 19.7918 27.6883 19.8806C27.6938 19.9694 27.7883 20.0527 27.9606 19.9528C28.2274 19.9362 28.3053 19.753 28.2887 19.4865ZM27.0824 20.1859C27.0492 19.6528 26.1875 20.1524 25.876 20.8852C25.7202 21.2516 25.6589 21.7013 25.7479 21.6958C25.9313 21.7735 27.099 20.4524 27.0824 20.1859ZM25.9248 24.5385C25.8193 24.2775 25.5359 24.0276 25.4525 24.122C25.2746 24.1331 25.2857 24.3108 25.3856 24.4829C25.4856 24.655 25.4078 24.8382 25.2299 24.8493C24.1737 25.0934 23.7457 25.3876 23.7899 26.0982C23.8286 26.7201 23.6618 26.9088 22.9558 27.0419C22.2499 27.1751 22.0831 27.3638 22.2886 27.7969C22.7107 28.8408 24.523 27.8362 24.7903 26.3927C24.935 25.8486 25.2631 25.3823 25.6133 25.2713C25.9635 25.1604 26.1248 24.8828 25.9248 24.5385ZM22.3117 25.2984C22.384 25.0264 22.2896 24.9431 22.0228 24.9597C21.7615 25.0651 21.5947 25.2539 21.6057 25.4315C21.6168 25.6092 21.8057 25.7758 21.8946 25.7703C21.9836 25.7648 22.2338 25.4816 22.3117 25.2984ZM20.9873 29.8398C20.8873 29.6677 20.526 29.601 20.1703 29.6231C19.8201 29.7341 19.5643 29.9284 19.5809 30.1949C19.592 30.3726 19.9532 30.4393 20.3924 30.3228C20.926 30.2896 21.1762 30.0064 20.9873 29.8398ZM18.675 29.9837C18.6418 29.4507 17.6912 29.9558 17.0295 30.7996C16.7014 31.2659 16.4622 31.7267 16.5622 31.8988C16.8401 32.0599 18.7026 30.4279 18.675 29.9837ZM21.7755 98.4592L21.4313 97.2321C21.1926 96.266 19.7259 94.2169 18.0035 92.3622C17.7146 92.0234 17.9367 92.7231 18.6532 94.1945C19.0642 95.0607 19.5641 95.9214 19.842 96.0825C20.1198 96.2436 20.3198 96.5878 20.3309 96.7655C20.342 96.9432 20.6364 97.3708 21.0198 97.7928L21.7755 98.4592ZM17.3953 33.8089C17.3842 33.6312 17.2008 33.5535 17.034 33.7422C16.8672 33.9309 16.7893 34.1142 16.7949 34.203C16.8004 34.2918 16.9838 34.3696 17.0672 34.2752C17.2451 34.2642 17.4063 33.9866 17.3953 33.8089ZM15.9171 33.0091C15.7226 32.7537 15.5503 32.8536 15.3056 33.2255C14.8107 33.8806 15.0107 34.2248 15.6945 33.7364C15.9503 33.5421 16.0226 33.2701 15.9171 33.0091ZM14.1656 34.9909C14.2379 34.7188 14.1434 34.6355 13.9656 34.6466C13.7877 34.6577 13.6264 34.9352 13.6375 35.1129C13.6485 35.2906 13.7485 35.4627 13.7485 35.4627C13.9264 35.4516 14.0932 35.2629 14.1656 34.9909ZM12.4693 37.861C12.4638 37.7722 12.197 37.7888 11.7689 38.0829C11.4242 38.2827 11.1795 38.6547 11.1906 38.8324C11.2017 39.01 11.5519 38.8991 11.9744 38.516C12.4025 38.2219 12.5638 37.9443 12.4693 37.861ZM11.3449 42.7467C11.3394 42.6578 11.3394 42.6578 11.2504 42.6634C11.0726 42.6744 10.8168 42.8687 10.7389 43.0519C10.6611 43.2351 10.6721 43.4128 10.7666 43.4961C10.861 43.5794 11.1168 43.3851 11.2781 43.1075C11.2725 43.0187 11.3504 42.8355 11.3449 42.7467ZM12.831 69.4973C13.0701 69.0365 12.3767 65.0666 12.1099 65.0832C11.932 65.0943 11.9873 65.9826 12.1592 67.3096C12.5531 69.3362 12.6752 69.8637 12.831 69.4973ZM10.9067 40.0094C10.8957 39.8317 10.7123 39.7539 10.6344 39.9371C10.4676 40.1259 10.3063 40.4034 10.3229 40.67C10.3339 40.8476 10.5173 40.9254 10.6841 40.7367C10.851 40.5479 10.9233 40.2759 10.9067 40.0094ZM9.71093 42.3133C9.62199 42.3188 9.22706 43.146 8.75428 44.1564C7.8921 46.0828 7.68058 46.9878 8.34229 46.144C8.75379 45.5833 9.9722 42.2078 9.71093 42.3133ZM12.3228 92.894L11.8897 91.6725C11.5786 90.9784 10.9676 89.7679 10.4677 88.9072C9.66778 87.5301 9.54567 87.0026 9.62403 85.3925C9.76369 83.3327 9.36927 82.733 8.72966 83.9321C8.41262 84.5761 8.31815 84.4928 7.72374 83.5488L7.11828 82.4271L7.18462 83.4932C7.22331 84.115 7.45646 84.9923 7.75643 85.5087C8.0564 86.0251 8.76738 87.4078 9.37838 88.6183C9.98936 89.8288 10.8838 91.2892 11.456 91.8778L12.3228 92.894ZM7.54141 47.6207C7.53588 47.5319 7.44696 47.5374 7.36355 47.6318C7.19674 47.8205 7.03544 48.0981 7.0465 48.2758C7.07967 48.8088 7.33543 48.6145 7.46907 47.8927C7.55248 47.7984 7.54694 47.7095 7.54141 47.6207ZM6.17279 51.4514C6.16726 51.3626 6.07832 51.3681 5.99492 51.4625C5.82812 51.6512 5.66682 51.9288 5.67788 52.1065C5.71105 52.6395 5.96679 52.4452 6.10598 51.8123C6.27278 51.6236 6.26725 51.5347 6.17279 51.4514ZM5.36036 54.1774C5.42166 53.7277 5.32166 53.5555 5.23825 53.6499C5.07144 53.8386 5.00462 54.1995 5.0212 54.466C5.07095 55.2655 5.23777 55.0768 5.36036 54.1774ZM7.063 81.5388L6.74092 80.667C6.61881 80.1395 6.19122 79.0068 5.95255 78.0407C5.29179 76.0307 5.19734 75.9474 4.78032 76.4192C4.61349 76.608 4.5522 77.0577 4.65772 77.3186C4.76877 77.6685 5.07978 78.3625 5.29636 78.9733C5.51292 79.5841 6.00734 80.356 6.39072 80.778L7.063 81.5388Z" fill="#C7ABD6"/>
</svg>
