<svg width="35" height="41" viewBox="0 0 35 41" fill="none" xmlns="http://www.w3.org/2000/svg">
<path d="M23.1757 17.5807C25.8368 11.0063 29.3099 4.96994 34.7983 0C34.7494 0.582109 34.8277 1.0566 34.6565 1.4088C33.4336 3.89866 32.152 6.35428 30.8997 8.82947C30.5915 9.44093 30.3274 10.0817 30.2002 10.7812C31.5698 8.80501 32.9395 6.82388 34.3092 4.84765C34.3923 4.89657 34.4706 4.94059 34.5538 4.98951C33.9716 6.02654 33.3944 7.06847 32.8074 8.09572C31.7949 9.86651 30.7431 11.6128 29.7746 13.4032C29.53 13.8581 29.623 14.4794 29.4371 14.9783C28.7669 16.7931 28.1065 18.6177 27.3337 20.3934C25.465 24.6589 24.1687 29.0565 23.797 33.7281C23.6453 35.6505 23.1072 37.4702 21.0772 38.3996C20.0842 38.8546 19.1597 39.4611 18.1911 39.965C16.9486 40.6107 16.0241 39.921 15.3148 39.0502C14.3267 37.842 13.4755 36.5163 12.5853 35.2249C10.609 32.3633 8.61322 29.5213 6.69079 26.6254C5.12545 24.2676 3.48674 21.9343 2.20512 19.4248C1.19744 17.4486 0.610439 15.2425 0.0185461 13.0852C-0.113529 12.601 0.493039 11.8966 0.786539 11.2998C1.08982 10.6883 1.43224 10.0915 1.75509 9.48496C1.98011 9.06427 2.1611 8.61913 2.42036 8.2278C3.32532 6.87769 5.93258 5.73793 7.28268 6.051C8.66702 6.37385 9.34697 7.41578 9.64047 8.62891C11.2645 15.3794 15.1045 20.9804 18.8662 26.6254C18.92 26.7036 19.0178 26.7526 19.2526 26.9482C19.3994 26.7036 19.5461 26.4542 19.7124 26.1802C19.8249 26.3955 19.8934 26.5275 20.0793 26.8846C20.5 25.9601 20.8375 25.197 21.1897 24.4388C21.4881 23.8029 21.811 23.1719 22.1191 22.5408C22.0213 23.1621 21.9186 23.7882 21.8207 24.4095C21.855 24.4192 21.8941 24.429 21.9284 24.4437C22.2365 23.573 22.5496 22.7071 22.8578 21.8364C22.7991 21.8071 22.7404 21.7826 22.6817 21.7533C22.4958 22.0223 22.305 22.2865 22.1142 22.5555C22.0555 21.9196 21.9968 21.2837 21.9381 20.6478C22.3539 19.6205 22.7648 18.603 23.1757 17.5807ZM22.4518 24.8546C24.0758 23.299 25.5482 21.6848 26.052 19.4738C25.8808 19.6107 25.6803 19.7624 25.2694 20.0852C25.4846 19.508 25.6069 19.1998 25.7145 18.8819C25.8221 18.5688 25.92 18.2508 26.0471 17.8448C23.8606 19.7624 22.9654 22.1935 22.4518 24.8546Z" fill="#F9728F"/>
</svg>
