<svg width="365" height="14" viewBox="0 0 365 14" fill="none" xmlns="http://www.w3.org/2000/svg">
<path d="M339.81 7.91845C339.753 5.35707 342.453 2.04567 344.636 2.01029C346.689 1.97491 348.247 3.72967 347.702 6.77219C347.357 8.66846 345.864 10.7558 344.219 11.9374C343.113 12.7228 339.846 9.55999 339.81 7.91845Z" fill="#6F7CF2"/>
<path d="M363.146 0.842773C365.552 5.20844 365.667 6.73678 362.881 8.49154C361.552 9.33354 359.384 9.47505 357.74 9.20618C357.022 9.08589 355.973 6.9349 356.268 6.05044C356.799 4.45135 358.02 2.90886 359.355 1.75553C360.167 1.05504 361.739 1.13995 363.146 0.842773Z" fill="#6F7CF2"/>
<path d="M326.498 3.51043C326.864 4.06233 327.13 4.46564 327.439 4.92556C328.408 4.40904 329.334 3.90667 330.268 3.4043C331.898 6.26993 331.747 9.63793 330.06 11.4634C328.458 13.1899 326.548 13.2536 324.753 12.1215C322.894 10.954 322.456 9.09311 323.568 7.23222C324.322 5.9586 325.414 4.86188 326.498 3.51043Z" fill="#6F7CF2"/>
<path d="M106.385 6.40423C106.42 8.47739 105.516 9.80053 103.132 9.89252C100.525 9.99865 97.4092 6.82169 97.7107 3.97021C97.7969 3.12821 99.1109 1.82629 99.9869 1.73431C104.23 1.28854 106.306 2.93009 106.385 6.40423Z" fill="#6F7CF2"/>
<path d="M282.828 10.0764C282.835 11.9443 281.025 13.8477 279.252 13.8264C277.191 13.8052 274.649 11.6471 275.295 9.8004C276.013 7.72724 277.399 5.27907 279.273 4.30971C281.097 3.36865 282.806 6.17768 282.828 10.0764Z" fill="#6F7CF2"/>
<path d="M312.087 4.67824C313.573 4.67116 315.943 7.57217 315.332 9.43306C314.866 10.8623 313.351 12.7586 312.001 13.0204C309.086 13.5723 306.795 11.5204 306.817 9.23495C306.838 6.84338 309.33 4.69239 312.087 4.67824Z" fill="#6F7CF2"/>
<path d="M20.1272 8.32876C17.3915 8.27923 16.1996 7.1259 16.1924 4.50792C16.1852 2.18711 17.8582 0.043191 19.718 0.000737146C21.9654 -0.0487923 24.3421 2.40645 24.2631 4.69896C24.1698 7.25326 22.8917 8.37829 20.1272 8.32876Z" fill="#6F7CF2"/>
<path d="M120.415 0.0649414C123.51 7.19011 122.21 9.88593 115.906 9.88593C113.859 4.93298 114.032 4.5509 120.415 0.0649414Z" fill="#6F7CF2"/>
<path d="M82.2875 5.34249C82.3665 2.09477 83.2712 0.998047 85.8848 0.998047C88.003 0.998047 89.8771 3.23395 89.834 5.71042C89.7981 7.85434 88.082 9.75061 86.1936 9.73646C83.9964 9.72231 82.2301 7.73405 82.2875 5.34249Z" fill="#6F7CF2"/>
<path d="M33.662 1.40169C37.5538 1.04083 40.4044 1.96066 41.0147 4.25317C41.3163 5.4065 40.7131 7.32399 39.7725 8.05279C38.8391 8.7745 36.7209 8.95847 35.5505 8.47732C32.0895 7.05512 32.786 4.26024 33.662 1.40169Z" fill="#6F7CF2"/>
<path d="M213.35 12.7365C211.21 9.38977 210.923 6.90622 212.89 5.42742C213.932 4.64202 216.517 3.87078 216.66 4.09012C217.737 5.75289 218.965 7.64209 219.008 9.48176C219.066 11.562 216.603 12.6658 213.35 12.7365Z" fill="#6F7CF2"/>
<path d="M7.9995 5.1444C7.95641 6.92038 5.9531 8.51948 3.9067 8.41334C1.61617 8.29306 0.0364955 6.14206 0.000593784 3.29766C-0.0281276 1.20327 0.9843 0.127773 3.21021 0.205605C5.46483 0.276361 8.04976 3.00756 7.9995 5.1444Z" fill="#6F7CF2"/>
<path d="M268.172 9.53872C266.399 11.2156 265.25 13.1968 263.627 13.6214C261.265 14.2369 258.881 11.7817 259.06 9.73684C259.247 7.67075 262.256 4.57162 263.828 5.27918C265.429 6.0009 266.47 7.79103 268.172 9.53872Z" fill="#6F7CF2"/>
<path d="M136.413 10.282C132.794 10.1405 130.726 7.93287 131.035 5.47762C131.286 3.49645 132.564 2.30066 134.804 2.39265C136.966 2.47755 140.06 5.32196 139.4 6.99181C138.818 8.45647 137.124 9.53904 136.413 10.282Z" fill="#6F7CF2"/>
<path d="M152.956 10.8335C145.927 8.61176 145.604 6.92776 150.989 1.52197C155.254 2.59747 156.073 6.24142 152.956 10.8335Z" fill="#6F7CF2"/>
<path d="M294.998 5.72514C297.899 5.39258 298.38 7.62141 298.674 9.44692C299.09 12.0437 296.714 14.598 294.359 13.8763C292.973 13.4517 291.652 11.3856 291.293 9.85731C290.754 7.61433 292.743 5.73929 294.998 5.72514Z" fill="#6F7CF2"/>
<path d="M55.2604 1.94642C55.9641 2.81672 57.5581 3.9842 57.8884 5.39933C58.427 7.72721 56.4811 9.87113 54.5639 9.84283C53.013 9.8216 49.9972 7.13286 50.0044 5.77433C50.0044 3.10682 51.3615 1.93226 55.2604 1.94642Z" fill="#6F7CF2"/>
<path d="M166.118 3.23438C169.414 3.92071 171.597 5.60471 171.029 8.60478C170.807 9.78641 168.804 11.1449 167.353 11.4846C166.484 11.6898 164.797 10.2888 164.057 9.25574C162.219 6.65898 164.553 5.03159 166.118 3.23438Z" fill="#6F7CF2"/>
<path d="M74.5328 7.74877C73.6065 8.28652 72.2925 9.49645 70.7487 9.84316C68.8603 10.2677 66.2467 8.10963 66.2682 6.64497C66.2969 4.55058 68.6736 2.40666 70.9426 2.42789C72.9459 2.43497 74.5256 4.35246 74.5328 7.74877Z" fill="#6F7CF2"/>
<path d="M230.798 4.82617C233.677 5.88752 235.451 7.72718 234.654 10.5221C234.331 11.6471 232.435 13.1896 231.372 13.1117C230.008 13.0127 228.163 11.7249 227.581 10.515C226.303 7.84747 228.45 6.25545 230.798 4.82617Z" fill="#6F7CF2"/>
<path d="M250.846 8.03138C250.832 11.2225 248.95 13.423 246.947 13.2744C244.886 13.1258 243.393 12.1282 243.4 9.9135C243.414 7.35212 245.655 4.97471 248.196 5.49831C249.46 5.7601 250.358 7.52901 250.846 8.03138Z" fill="#6F7CF2"/>
<path d="M199.506 12.0224C197.015 11.9516 195.011 10.4516 195.162 8.77467C195.335 6.88547 197.568 4.92552 199.758 5.35006C201.237 5.64016 203.204 6.70858 203.657 7.86898C204.332 9.57421 201.438 12.079 199.506 12.0224Z" fill="#6F7CF2"/>
<path d="M185.06 4.89768C185.526 5.27976 187.307 6.03685 187.63 7.1548C188.183 9.07938 185.354 11.8389 183.358 11.5558C181.527 11.2941 179.387 10.9686 179.531 8.36474C179.646 6.16421 181.218 4.8623 185.06 4.89768Z" fill="#6F7CF2"/>
</svg>
