<svg width="217" height="263" viewBox="0 0 217 263" fill="none" xmlns="http://www.w3.org/2000/svg">
<path d="M48.6908 53.8139C44.0022 58.2881 39.2136 62.6622 34.6537 67.265C33.0241 68.9088 31.1801 70.9529 30.7656 73.0685C29.0789 81.9167 18.0293 84.2182 10.7534 81.0734C7.82307 79.8012 4.82124 78.0144 2.73426 75.6844C0.261327 72.9398 0.0469108 69.4806 3.54904 66.8218C15.5278 57.6877 27.0919 47.9532 39.5709 39.5766C55.0661 29.1703 70.9901 19.2928 87.3857 10.3731C95.8337 5.7703 105.511 3.15442 114.902 0.695781C124.708 -1.86292 129.983 2.89712 135.086 10.6876C136.201 12.3743 135.529 15.419 135.272 17.7919C134.529 24.4674 135.787 32.0721 125.795 35.8744C128.797 36.4462 130.04 36.7606 131.312 36.9179C132.871 37.1037 134.443 37.2038 136.001 37.2609C136.887 37.2895 138.202 37.5468 138.617 37.0751C142.005 33.2871 145.807 35.0739 149.924 34.931C154.727 34.7594 154.984 37.9614 156.714 39.8196C158.172 41.392 155.699 45.1944 159.358 46.3951C158.758 47.0812 158.272 47.9961 157.514 48.3963C156.513 48.9395 155.298 49.0967 152.926 49.7686C155.113 50.6691 156.085 51.0837 158.701 52.17C154.284 54.5286 150.953 56.5155 147.465 58.1308C138.302 62.3763 129.011 65.9213 118.776 67.2507C113.287 67.9654 105.84 70.1381 103.453 74.1406C100.236 79.5296 91.4025 80.2729 92.0743 88.8353C94.9904 88.4779 97.692 88.3492 100.294 87.7918C112.115 85.2617 123.865 82.4742 135.701 80.0299C145.35 78.0287 154.998 75.9417 164.761 74.7838C169.493 74.2263 174.825 74.8124 179.256 76.4992C185.402 78.8435 186.375 88.7924 180.728 93.8955C183.83 93.481 186.003 93.1808 188.261 92.8806C186.603 96.4399 185.017 99.842 183.201 103.73C183.887 103.959 185.245 104.402 186.632 104.859C186.603 105.088 186.646 105.646 186.532 105.674C181.943 106.846 184.874 110.834 183.687 113.264C185.574 114.136 187.389 115.509 189.362 115.78C191.892 116.123 194.551 115.594 197.953 115.409C197.024 117.267 196.409 118.539 195.537 120.269C197.739 121.641 200.326 122.713 202.141 124.543C203.799 126.215 204.6 128.731 205.286 129.975C203.399 133.034 202.055 135.206 200.712 137.379C202.327 138.251 203.957 139.109 206.487 140.467C205.558 143.469 204.414 147.142 203.242 150.945C203.128 150.902 203.942 151.188 204.743 151.473C204.7 151.659 204.714 151.874 204.628 151.931C201.627 153.775 198.51 157.263 195.609 157.105C189.119 156.748 183.802 159.378 177.969 161.022C167.02 164.11 155.799 166.24 144.435 168.827C144.42 168.813 144.835 169.542 145.435 170.628C142.548 170.285 138.674 173.701 137.788 167.712C137.759 167.54 134.7 167.455 133.256 167.926C122.25 171.529 111.2 175.002 100.365 179.076C92.8605 181.892 85.4274 185.137 78.4517 189.068C74.1777 191.469 70.8185 195.5 67.2592 198.602C84.1981 193.785 101.723 189.054 119.076 183.707C123.836 182.235 127.839 178.533 132.513 176.574C137.173 174.63 142.205 173.587 147.079 172.186C158.229 168.984 169.378 165.796 180.528 162.637C181.357 162.394 182.258 162.366 183.115 162.237C183.316 162.68 183.53 163.109 183.73 163.552C181.9 164.524 180.185 165.854 178.241 166.411C166.577 169.799 154.87 172.987 143.191 176.317C141.633 176.76 140.204 177.661 138.903 178.933C161.474 179.548 182.815 170.028 205.729 171.843C205.729 173.244 205.729 174.588 205.729 176.317C207.144 176.732 208.902 176.846 210.103 177.718C211.247 178.533 211.876 180.12 212.633 181.42C213.877 183.579 215.049 185.78 216.035 187.553C211.79 189.011 207.473 190.497 203.17 191.97C203.213 192.284 203.256 192.599 203.299 192.913C204.5 192.913 205.701 192.913 206.901 192.913C206.973 193.428 207.059 193.957 207.13 194.471C203.113 195.086 199.039 195.457 195.094 196.401C189.734 197.673 184.316 198.974 179.184 200.947C159.201 208.637 139.332 216.613 119.42 224.461C117.733 225.118 115.989 225.676 114.231 226.09C108.799 227.363 103.967 229.735 99.8933 233.581L99.9219 233.595C99.9934 232.752 100.051 231.908 100.136 230.822C93.518 232.38 87.0999 233.881 80.696 235.396C111.429 227.434 138.417 210.624 167.863 199.617C167.749 199.074 167.635 198.545 167.506 198.002C165.276 198.002 163.046 197.859 160.845 198.045C158.701 198.231 156.585 198.774 153.369 199.346C155.07 198.03 155.927 197.373 157.3 196.315C151.668 194.328 146.951 196.401 142.076 197.745C137.273 199.074 132.284 199.76 127.41 200.889C122.407 202.047 117.461 203.377 112.487 204.634C112.272 204.048 112.058 203.462 111.843 202.876C129.883 196.286 147.923 189.711 165.962 183.121C165.805 182.578 165.648 182.049 165.49 181.506C162.103 182.507 158.729 183.507 156.957 184.036C154.226 183.093 152.74 182.021 151.468 182.235C144.835 183.35 138.088 184.265 131.67 186.223C121.378 189.368 111.186 192.513 102.109 199.117C92.5031 206.107 81.6394 211.353 71.4475 217.571C69.3891 218.829 67.9025 221.03 66.1585 222.803C66.5302 223.274 66.9019 223.76 67.2735 224.232C69.7464 224.032 72.2337 223.832 74.7066 223.617C74.7638 223.789 74.821 223.961 74.8781 224.132C71.2474 225.504 67.6166 226.877 63.3854 228.463C63.6141 226.691 63.7285 225.805 63.8572 224.775C60.0834 226.176 56.5956 227.477 53.1078 228.778C52.9791 228.478 52.8362 228.177 52.7075 227.863C54.9517 226.634 57.196 225.419 59.4259 224.189C59.3258 223.918 59.2258 223.66 59.1257 223.389C54.1798 224.732 49.234 226.09 44.1737 227.463C44.3596 226.619 44.5454 225.819 44.6598 225.333C41.4435 224.504 38.2416 223.689 34.4535 222.717C35.7115 221.13 36.3261 220.358 36.8693 219.672C35.0825 218.329 33.3386 217.028 31.8806 215.927C34.9253 211.839 37.5697 208.308 40.2285 204.749C39.3708 203.948 39.0563 203.419 38.6275 203.305C36.4691 202.676 32.9669 202.79 32.3237 201.49C30.1652 197.116 28.9502 192.255 27.5636 187.538C27.0919 185.952 27.3492 184.151 27.049 182.507C26.3057 178.504 32.4523 172.258 37.8699 170.557C45.6747 168.112 53.2793 165.01 60.9697 162.237C66.1585 160.365 71.4904 158.835 76.5506 156.662C98.1637 147.385 119.734 138.022 141.204 128.445C144.949 126.773 148.166 123.885 151.41 121.712C149.052 120.326 146.579 118.882 144.12 117.438C144.206 116.795 144.306 116.152 144.392 115.509C140.818 117.496 137.187 119.382 133.671 121.469C129.383 124.014 125.452 127.33 120.892 129.16C116.361 130.99 111.143 131.018 106.412 132.476C90.9736 137.222 75.65 142.225 60.3264 147.242C58.6397 147.786 57.1674 148.972 55.595 149.858C56.0524 150.216 56.5098 150.587 56.9672 150.945C56.1382 152.145 55.5664 154.032 54.4371 154.447C45.1315 157.935 35.74 161.208 26.3486 164.453C23.4326 165.453 20.4593 166.383 17.4432 166.954C15.7136 167.283 13.8267 166.826 12.0113 166.726C11.9399 166.283 11.8684 165.839 11.7969 165.396C14.9274 163.881 18.0579 162.352 21.174 160.836C21.0025 160.336 20.831 159.85 20.6594 159.35C17.1573 160.493 13.6123 161.551 10.1388 162.78C5.13572 164.553 3.56334 163.495 2.77714 158.235C2.50555 156.448 1.14758 154.861 0.547215 153.103C-1.63983 146.742 3.20597 143.254 6.66522 139.552C9.82429 136.164 13.8267 133.577 17.386 130.546C18.1436 129.903 19.2443 128.574 19.0299 128.088C17.043 123.585 18.7869 117.939 13.2835 114.322C7.25129 110.363 8.13755 97.8836 14.1126 93.7097C20.2449 89.4213 26.8918 85.7763 32.7382 81.1449C44.2595 71.9964 55.3806 62.3477 66.6874 52.9276C67.2449 52.4702 67.9168 52.1557 68.9888 51.4839C65.0722 48.8251 63.9286 46.0949 66.4016 42.3355C63.9572 44.9085 61.813 47.8817 58.9971 49.9401C56.4955 51.7698 53.265 52.5846 50.3489 53.8425C53.7081 50.7835 57.0673 47.7388 60.984 44.1652C54.4371 44.5511 51.4782 49.1968 47.6902 52.4845C47.6759 52.4845 48.3477 53.3422 48.6908 53.8139ZM72.1193 38.8905C74.9782 38.6904 77.6513 37.99 80.1099 38.4474C84.8842 39.3336 88.3006 37.7041 90.5734 33.6302C92.1172 30.857 94.5187 28.5127 96.7772 26.1971C98.2066 24.7247 100.065 23.6812 101.737 22.4376C99.779 21.6514 98.0065 21.6657 97.0488 22.552C94.2185 25.125 91.9028 26.8546 87.4143 27.6551C81.768 28.6557 74.6065 31.4574 72.1193 38.8905ZM136.401 46.9097C120.134 48.9681 96.2912 59.3315 93.8897 65.4639C108.055 59.2744 122.221 53.0992 136.401 46.9097ZM85.7276 163.223C85.5846 162.695 85.4417 162.18 85.2988 161.651C76.2361 163.481 66.6303 163.366 58.5682 168.827C58.7255 169.399 58.8827 169.956 59.0399 170.528C67.9311 168.098 76.8222 165.668 85.7276 163.223ZM95.0047 110.263C95.1619 110.763 95.3191 111.278 95.4764 111.778C105.983 111.964 114.245 104.974 123.937 102.572C123.794 102.129 123.665 101.686 123.522 101.257C114.031 104.259 104.525 107.261 95.0047 110.263ZM53.1792 126.358C53.4651 126.973 53.7367 127.602 54.0226 128.216C61.9703 125.243 69.9037 122.256 78.5089 119.025C73.5773 117.839 70.4183 121.412 65.5868 120.312C62.0703 119.511 57.3532 124.143 53.1792 126.358Z" fill="#C1B6EF"/>
<path d="M45.3307 250.434C35.7535 254.608 28.1774 258.667 18.8003 252.621C25.4472 246.803 32.1656 240.928 38.8696 235.067C39.2842 235.482 39.713 235.911 40.1275 236.325C38.5695 237.955 37.0257 239.584 35.3532 241.328C37.7404 244.116 39.5844 248.161 44.8447 245.488C43.6869 246.346 42.5433 247.203 41.0281 248.318C42.5862 249.076 43.5296 249.548 45.3307 250.434Z" fill="#C1B6EF"/>
<path d="M99.8498 233.553C90.001 237.498 79.9377 240.986 70.3748 245.546C61.9411 249.562 54.0791 254.78 45.9456 259.426C45.0451 259.94 44.0159 260.226 42.8723 260.684C44.1302 252.764 50.4912 251.163 56.2376 248.876C68.6451 243.93 81.0527 238.942 93.5174 234.167C95.4186 233.438 97.72 233.724 99.8498 233.553C99.8498 233.553 99.8927 233.567 99.8498 233.553Z" fill="#C1B6EF"/>
<path d="M118.833 233.323C105.51 238.126 92.1735 242.929 78.8511 247.732C78.5938 247.031 78.3508 246.331 78.0935 245.63C91.373 240.828 104.653 236.025 117.946 231.222C118.232 231.908 118.532 232.608 118.833 233.323Z" fill="#C1B6EF"/>
<path d="M144.234 216.942C155.383 213.254 166.533 209.567 177.668 205.864C177.825 206.35 177.983 206.836 178.154 207.322C167.119 211.153 156.084 214.984 145.048 218.815C144.777 218.2 144.505 217.571 144.234 216.942Z" fill="#C1B6EF"/>
<path d="M85.9126 248.233C75.5063 253.007 65.1 257.796 54.6793 262.57C54.4363 262.041 54.1933 261.498 53.936 260.969C64.3281 256.195 74.7201 251.406 85.1264 246.632C85.398 247.175 85.6553 247.704 85.9126 248.233Z" fill="#C1B6EF"/>
</svg>
