<svg width="179" height="181" viewBox="0 0 179 181" fill="none" xmlns="http://www.w3.org/2000/svg">
<path d="M28.6454 74.4491C28.5886 74.3923 28.5035 74.3071 28.4467 74.2503C16.2962 62.0999 14.309 44.0446 24.0464 34.3072C33.7838 24.5698 51.8107 26.5286 63.9896 38.7074" stroke="#3DBBEE" stroke-width="2.42497" stroke-miterlimit="10" stroke-linecap="round" stroke-linejoin="round"/>
<path d="M154.663 112.859C166.757 124.953 166.757 144.541 154.663 156.635C142.569 168.728 122.981 168.785 110.859 156.663" stroke="#3DBBEE" stroke-width="2.42497" stroke-miterlimit="10" stroke-linecap="round" stroke-linejoin="round"/>
<path d="M28.1897 73.9937L110.858 156.662" stroke="#3DBBEE" stroke-width="2.42497" stroke-miterlimit="10" stroke-linecap="round" stroke-linejoin="round"/>
<path d="M43.8044 2L154.663 112.859" stroke="#3DBBEE" stroke-width="2.42497" stroke-miterlimit="10" stroke-linecap="round" stroke-linejoin="round"/>
<path d="M53.8824 83.2202L100.951 130.289" stroke="#3DBBEE" stroke-width="2.42497" stroke-miterlimit="10" stroke-linecap="round" stroke-linejoin="round"/>
<path d="M128.289 102.95L63.7606 38.4224" stroke="#3DBBEE" stroke-width="2.42497" stroke-miterlimit="10" stroke-linecap="round" stroke-linejoin="round"/>
<path d="M127.885 102.546C127.942 102.603 127.998 102.659 128.027 102.688C136.856 111.517 137.935 124.916 130.44 132.411C122.945 139.906 109.517 138.855 100.688 130.026" stroke="#3DBBEE" stroke-width="2.42497" stroke-miterlimit="10" stroke-linecap="round" stroke-linejoin="round"/>
</svg>
