<svg width="160" height="141" viewBox="0 0 160 141" fill="none" xmlns="http://www.w3.org/2000/svg">
<ellipse rx="8.14457" ry="8.13945" transform="matrix(-0.702338 -0.711844 -0.712634 0.701536 127.327 110.327)" fill="#3DBBEE"/>
<ellipse rx="6.63069" ry="6.62652" transform="matrix(-0.702338 -0.711844 -0.712634 0.701536 33.3932 71.1016)" fill="#3DBBEE"/>
<path d="M75.0459 41.9202L127.15 104.879" stroke="black" stroke-width="0.708004"/>
<path d="M66.3954 41.4272L36.6 66.8981" stroke="black" stroke-width="0.708004"/>
<line y1="-0.354002" x2="30.5293" y2="-0.354002" transform="matrix(-0.55026 -0.834993 0.835697 -0.549191 29.112 65.6895)" stroke="black" stroke-width="0.708004"/>
<path d="M68.3139 42.6388C65.3589 41.2273 64.108 37.6914 65.5187 34.7415C66.9295 31.7916 70.4683 30.5436 73.4233 31.9551C76.3783 33.3666 77.6292 36.9025 76.2185 39.8524C74.8077 42.8023 71.2689 44.0503 68.3139 42.6388Z" stroke="black" stroke-width="0.708004"/>
<path d="M29.2881 77.2263C26.1653 75.7347 24.8434 71.998 26.3342 68.8806C27.825 65.7632 31.5648 64.4443 34.6875 65.936C37.8103 67.4276 39.1322 71.1643 37.6414 74.2817C36.1506 77.3991 32.4108 78.718 29.2881 77.2263Z" stroke="black" stroke-width="0.708004"/>
<path d="M4.57462 32.5252C6.28741 30.0574 9.68001 29.4446 12.1524 31.1575C14.6248 32.8705 15.2397 36.2598 13.527 38.7277C11.8142 41.1955 8.42156 41.8083 5.94917 40.0953C3.47678 38.3823 2.86183 34.993 4.57462 32.5252Z" stroke="black" stroke-width="0.708004"/>
<path d="M128.69 115.443C125.567 113.951 124.245 110.214 125.736 107.097C127.227 103.98 130.967 102.661 134.09 104.152C137.212 105.644 138.534 109.381 137.044 112.498C135.553 115.615 131.813 116.934 128.69 115.443Z" stroke="black" stroke-width="0.708004"/>
</svg>
