<svg width="183" height="192" viewBox="0 0 183 192" fill="none" xmlns="http://www.w3.org/2000/svg">
<ellipse rx="7.29842" ry="7.29384" transform="matrix(-0.99468 -0.103011 -0.104131 0.994564 155.042 87.7275)" fill="#3DBBEE"/>
<path d="M78.229 74.2218L150.137 88.0909" stroke="black" stroke-width="0.808323"/>
<path d="M71.9642 78.8091L65.8636 113.401" stroke="black" stroke-width="0.808323"/>
<line y1="-0.404162" x2="27.3576" y2="-0.404162" transform="matrix(-0.955574 -0.294751 0.295974 -0.955196 59.9949 116.831)" stroke="black" stroke-width="0.808323"/>
<path d="M73.961 78.4692C71.1593 79.1646 68.3269 77.4596 67.6339 74.6621C66.9409 71.8646 68.6493 69.0325 71.451 68.337C74.2526 67.6416 77.085 69.3466 77.778 72.1441C78.471 74.9416 76.7626 77.7737 73.961 78.4692Z" stroke="black" stroke-width="0.808323"/>
<path d="M66.6685 124.626C63.7051 125.362 60.7092 123.558 59.9762 120.599C59.2432 117.64 61.0502 114.645 64.0135 113.909C66.9769 113.174 69.9728 114.977 70.7058 117.936C71.4388 120.895 69.6318 123.891 66.6685 124.626Z" stroke="black" stroke-width="0.808323"/>
<path d="M24.2164 107.861C23.9993 105.226 25.9614 102.911 28.5996 102.692C31.2379 102.472 33.552 104.431 33.7691 107.066C33.9862 109.701 32.0242 112.015 29.3859 112.235C26.7476 112.454 24.4335 110.496 24.2164 107.861Z" stroke="black" stroke-width="0.808323"/>
<path d="M157.198 94.4353C154.235 95.1709 151.239 93.3675 150.506 90.4085C149.773 87.4495 151.58 84.4539 154.543 83.7183C157.507 82.9827 160.503 84.7862 161.236 87.7452C161.969 90.7041 160.162 93.6998 157.198 94.4353Z" stroke="black" stroke-width="0.808323"/>
</svg>
