<?xml version="1.0" encoding="utf-8"?>
<!-- Generator: Adobe Illustrator 18.1.1, SVG Export Plug-In . SVG Version: 6.00 Build 0)  -->
<svg version="1.1" id="Layer_1" xmlns="http://www.w3.org/2000/svg" xmlns:xlink="http://www.w3.org/1999/xlink" x="0px" y="0px"
	 width="352px" height="141.8px" viewBox="0 0 352 141.8" style="enable-background:new 0 0 352 141.8;" xml:space="preserve">
<polygon style="fill-rule:evenodd;clip-rule:evenodd;fill:#FFFBF4;" points="329.5,126.4 329.7,124.9 101.4,122.8 101.4,124.3 "/>
<path style="fill-rule:evenodd;clip-rule:evenodd;fill:#FFFBF4;" d="M27.6,34.9C24.3,53.3,28.8,86,49.3,97.6
	c-3.7,4.6-8.7,10.2-17.6,11.1c-2.2-3.2-6.1-7-6.5-11.9c4.4,0.5,8.7,1.1,13.1,1.6c-4.8-1.8-9.6-3.6-14.5-5.4
	c-3.5-3.6-6.5-12.2-5.7-19.7c5,4.9,9.9,9.7,14.9,14.6c-4.5-7.1-9-14.2-13.5-21.4C17.5,58.2,19.1,45.3,27.6,34.9"/>
<path style="fill-rule:evenodd;clip-rule:evenodd;fill:#FFFBF4;" d="M0,103.9c2.4,1.5,11.6-1.2,13-1c1.5,0.1,6.1,5.2,8.2,6.5
	c42.7,4.8,53.6-72.9,27-109.4C62.7,6.4,78.6,27.8,79,39.4c-0.5,7.2-3.6,26.3-5.7,39l11.3-31.5c4,5,7.7,18.6,4.7,30.3
	C83.8,82.8,78.2,88.4,72.7,94c5.8-3.5,11.7-7,17.5-10.5c0.7,8.7,1.5,20-7.4,29.2c-4,0-8,0.3-11.9,0.3c8.6,4.9,20.3,7.4,30.5,9.6
	C73.1,130.7,17.2,118.2,0,103.9"/>
<polygon style="fill-rule:evenodd;clip-rule:evenodd;fill:#FFFBF4;" points="112.7,118.8 113,90.9 134.7,91.2 134.4,119.3 
	125.3,119.2 125.4,95.8 121.8,95.9 121.5,119.2 "/>
<path style="fill-rule:evenodd;clip-rule:evenodd;fill:#FFFBF4;" d="M147.9,94.2c-1,0.4-2.6,1.6-3,2.7c0.1,3.2,0.1,6.5,0.2,9.7
	C147.3,102.6,148.6,98.3,147.9,94.2 M135.9,97c1.8-2.2,3.4-3.9,5.3-5.7h10.1c2.3,3.2,4.3,6.5,5,9.7c-1.2,3.6-2.9,6.9-5.8,10.7
	l-6.1-2.2v9.7l-9,0.2L135.9,97z"/>
<path style="fill-rule:evenodd;clip-rule:evenodd;fill:#FFFBF4;" d="M282.9,95.4c-1,0.4-2.6,1.6-3,2.7c0.1,3.2,0.1,6.5,0.2,9.7
	C282.3,103.9,283.7,99.6,282.9,95.4 M271,98.3c1.8-2.2,3.4-3.9,5.3-5.7h10.1c2.3,3.2,4.3,6.5,5,9.7c-1.2,3.6-2.9,6.9-5.8,10.7
	l-6.1-2.2v9.7l-9,0.2L271,98.3z"/>
<path style="fill-rule:evenodd;clip-rule:evenodd;fill:#FFFBF4;" d="M163.1,91.5c4.1-0.2,8.3-0.2,12.4,0c1.9,5.1,3.9,13.4,4.4,18.7
	c-1.3,3.2-2.9,6.4-6.8,9.6c-4.2-0.1-10.6,0.2-12.6-0.2c-1.2-1.8-3.7-11.6-4.1-20.4C158.4,96.2,160.6,93.3,163.1,91.5 M166.2,94.3
	c-0.6,0.3-1.9,2.8-1.7,4.2c0.7,5.2,2.6,14,5.3,17.9c1.2-1.1,1.8-2.7,2-4.2C170.5,103.4,167.3,95.7,166.2,94.3"/>
<path style="fill-rule:evenodd;clip-rule:evenodd;fill:#FFFBF4;" d="M181.6,108.8l-0.2,11.2h5.3l3.1-14.8l1.9,14.6h9.6l-4.7-28h-7.4
	c-0.5,5.7-1.4,11.3-3.5,17H181.6z"/>
<path style="fill-rule:evenodd;clip-rule:evenodd;fill:#FFFBF4;" d="M219.7,97.5l-7.4-1.7l-0.4,6.8l4.2-2.2
	c-1.5,3.6-1.7,6.5,0.3,10.8l-4.3-2.4l-0.2,8.5c2.1-1.1,6.9-2.7,8.8-2.9l-1.7,5.5h-16l0.3-27.9h15.4L219.7,97.5z"/>
<path style="fill-rule:evenodd;clip-rule:evenodd;fill:#FFFBF4;" d="M308.5,98.3l-7.4-1.7l-0.4,6.8l4.2-2.2
	c-1.5,3.6-1.7,6.5,0.3,10.8l-4.3-2.4l-0.2,8.5c2.1-1.1,6.9-2.7,8.8-2.9l-1.7,5.5h-16l0.3-27.9h15.4L308.5,98.3z"/>
<polygon style="fill-rule:evenodd;clip-rule:evenodd;fill:#FFFBF4;" points="224,92.1 244.6,92.1 246.6,106.7 243.6,106.7 
	238.6,95.1 238.6,120.4 229.2,120.4 229.7,95.3 225.1,106.3 222.5,106.4 "/>
<path style="fill-rule:evenodd;clip-rule:evenodd;fill:#FFFBF4;" d="M256.5,100.9l-2.4,9.4h3.8L256.5,100.9z M255.9,92.5h7.5
	l5.8,28.1h-9.6l-0.6-4.2h-6l-0.8,4.1h-4.7L255.9,92.5z"/>
<polygon style="fill-rule:evenodd;clip-rule:evenodd;fill:#FFFBF4;" points="311,92.9 320.1,92.9 319.7,116.2 323.4,116.2 
	323.4,92.9 332.5,92.9 332.5,116.5 336.6,116.5 333.3,127.2 327.4,127.2 329.7,120.9 310.7,120.9 "/>
<path style="fill:#FFFBF4;" d="M322.2,141l0.5-2.4l0.1-0.1l0.3,0l0.1,0.1c0,0.3-0.1,0.6-0.1,0.8c0,0.6,0.2,1,0.6,1.3
	c0.4,0.3,0.9,0.5,1.5,0.5c0.6,0,1.2-0.2,1.7-0.5c0.5-0.4,0.8-0.8,1-1.4c0.2-0.6,0.3-1.2,0.3-1.8c0-0.4-0.1-0.8-0.3-1.2
	c-0.2-0.4-0.5-0.6-0.9-0.8c-0.4-0.2-0.8-0.3-1.2-0.3c-0.4,0-0.8,0.1-1.4,0.2l-0.1-0.1l0.3-0.8c0.5,0,0.7,0,0.9,0
	c0.4,0,0.9-0.1,1.3-0.3c0.4-0.2,0.8-0.5,1-1c0.2-0.4,0.4-0.9,0.4-1.3c0-0.5-0.1-0.9-0.4-1.2c-0.3-0.3-0.7-0.5-1.3-0.5
	c-0.5,0-0.9,0.1-1.2,0.3c-0.3,0.2-0.7,0.6-1.1,1.1l-0.1,0l-0.2-0.1l0-0.1l1-1.7c0.6-0.4,1.3-0.5,2.1-0.5c0.8,0,1.5,0.2,1.9,0.7
	c0.5,0.4,0.7,1,0.7,1.7c0,0.6-0.2,1.1-0.5,1.6c-0.3,0.5-1,1-2,1.5v0c0.8,0.1,1.4,0.4,1.9,0.8c0.5,0.4,0.8,1.1,0.8,1.9
	c0,0.8-0.2,1.5-0.6,2.1c-0.4,0.7-1,1.2-1.8,1.6c-0.8,0.4-1.6,0.6-2.5,0.6C323.9,141.8,323,141.5,322.2,141 M313.2,141l0.5-2.4
	l0.1-0.1l0.3,0l0.1,0.1c0,0.3-0.1,0.6-0.1,0.8c0,0.6,0.2,1,0.6,1.3c0.4,0.3,0.9,0.5,1.5,0.5c0.6,0,1.2-0.2,1.7-0.5
	c0.5-0.4,0.8-0.8,1-1.4c0.2-0.6,0.3-1.2,0.3-1.8c0-0.4-0.1-0.8-0.3-1.2c-0.2-0.4-0.5-0.6-0.9-0.8c-0.4-0.2-0.8-0.3-1.2-0.3
	c-0.4,0-0.8,0.1-1.4,0.2l-0.1-0.1l0.3-0.8c0.5,0,0.7,0,0.9,0c0.4,0,0.9-0.1,1.3-0.3c0.4-0.2,0.8-0.5,1-1c0.2-0.4,0.4-0.9,0.4-1.3
	c0-0.5-0.1-0.9-0.4-1.2c-0.3-0.3-0.7-0.5-1.3-0.5c-0.5,0-0.9,0.1-1.2,0.3c-0.3,0.2-0.7,0.6-1.1,1.1l-0.1,0l-0.2-0.1l0-0.1l1-1.7
	c0.6-0.4,1.3-0.5,2.1-0.5c0.8,0,1.5,0.2,1.9,0.7c0.5,0.4,0.7,1,0.7,1.7c0,0.6-0.2,1.1-0.5,1.6c-0.3,0.5-1,1-2,1.5v0
	c0.8,0.1,1.4,0.4,1.9,0.8c0.5,0.4,0.8,1.1,0.8,1.9c0,0.8-0.2,1.5-0.6,2.1c-0.4,0.7-1,1.2-1.8,1.6c-0.8,0.4-1.6,0.6-2.5,0.6
	C314.9,141.8,314,141.5,313.2,141 M306.6,133.2c0,0.5,0.1,0.9,0.2,1.3c0.1,0.4,0.4,0.7,0.7,0.9c0.3,0.2,0.7,0.3,1,0.3
	c0.6,0,1.2-0.3,1.7-0.8c0.5-0.5,0.7-1.3,0.7-2.4c0-0.8-0.2-1.5-0.6-1.9c-0.4-0.4-0.8-0.7-1.4-0.7c-0.7,0-1.2,0.3-1.7,0.9
	C306.9,131.5,306.6,132.3,306.6,133.2 M305.1,141.4c-0.1-0.4-0.2-0.8-0.4-1.2c-0.1-0.3-0.2-0.5-0.2-0.5l0-0.1l0.2-0.1l0.1,0
	c0.3,0.5,0.6,0.9,0.9,1.1c0.3,0.2,0.7,0.3,1.1,0.3c1,0,1.8-0.5,2.4-1.6c0.6-1.1,1.1-2.5,1.4-4.4c-0.4,0.5-0.8,0.9-1.3,1.3
	c-0.5,0.3-1,0.5-1.6,0.5c-0.5,0-1-0.1-1.4-0.4c-0.4-0.2-0.7-0.6-1-1.1c-0.2-0.5-0.3-1-0.3-1.5c0-0.5,0.1-1,0.3-1.5
	c0.2-0.5,0.4-1,0.8-1.4c0.3-0.4,0.8-0.8,1.4-1.1c0.6-0.4,1.2-0.5,1.9-0.5c0.6,0,1.1,0.2,1.5,0.5c0.4,0.3,0.7,0.7,1,1.2
	c0.2,0.5,0.3,1.2,0.3,2.1c0,0.9-0.1,1.8-0.3,2.6c-0.2,0.8-0.4,1.6-0.8,2.4c-0.4,0.8-0.9,1.5-1.4,2.1c-0.5,0.6-1.1,1-1.7,1.3
	c-0.6,0.3-1.1,0.4-1.7,0.4C306,141.7,305.5,141.6,305.1,141.4 M296.4,141.5L296.4,141.5l0-0.4l0.1-0.1c0.1,0,0.4,0,0.6-0.1
	c0.4,0,0.7-0.1,0.9-0.1c0.3-0.1,0.5-0.2,0.6-0.5c0.1-0.2,0.2-0.6,0.3-1.2l1.5-8.8c-0.9,0.3-2,0.8-3.3,1.5l-0.1-0.1l0.2-1.1
	c0.7-0.1,1.6-0.4,2.9-0.8c0.5-0.2,1.1-0.4,1.8-0.7l0.3,0.2c-0.3,1.1-0.5,2.6-0.9,4.4l-0.5,2.9c-0.2,0.9-0.3,1.7-0.4,2.3
	c-0.1,0.9-0.2,1.4-0.2,1.5c0,0.3,0.1,0.4,0.3,0.5c0.2,0.1,0.6,0.2,1.3,0.2c0.3,0,0.6,0,0.7,0.1l0.1,0.1l0,0.4l-0.1,0.1
	c-1.1,0-2.1-0.1-3.2-0.1C297.9,141.5,296.9,141.5,296.4,141.5 M287.1,137.2l0.1,0.2l-2,2.3c-1,1.2-1.6,1.8-1.8,1.9
	c-0.2,0.1-0.3,0.1-0.5,0.1c-0.1,0-0.3-0.1-0.5-0.2c-0.2-0.1-0.6-0.4-1.1-0.8l0-0.1l0.1-0.2l0.1,0c0.3,0.3,0.5,0.4,0.8,0.4
	c0.2,0,0.4-0.1,0.7-0.3c0.2-0.2,0.7-0.7,1.4-1.4c0.3-0.3,0.8-0.9,1.6-1.7c-0.8-0.2-1.4-0.4-1.8-0.7c-0.3-0.3-0.5-0.8-0.5-1.3
	c0-0.6,0.3-1.2,0.8-1.7c0.5-0.5,1.3-0.7,2.3-0.7c0.1,0,0.5,0,1,0c0.6,0,0.9,0,1.1,0c0.2,0,0.5,0,0.7,0l0.1,0.1
	c-0.4,1.5-0.7,3-0.9,4.5c-0.2,1.5-0.3,2.5-0.3,2.8c0,0.4,0.1,0.6,0.3,0.6c0.2,0,0.6-0.2,1.1-0.7l0.1,0l0.1,0.2l0,0.1
	c-0.8,0.8-1.6,1.2-2.1,1.2c-0.4,0-0.6-0.2-0.6-0.7c0-0.6,0.4-3.1,1.1-7.7c-0.3,0-0.6-0.1-0.9-0.1c-0.7,0-1.3,0.2-1.7,0.6
	c-0.4,0.4-0.6,0.9-0.6,1.4c0,0.6,0.2,1,0.5,1.3C285.8,136.9,286.3,137.1,287.1,137.2 M272.5,134.8l-0.1-0.2l0-0.1
	c0.2-0.1,0.6-0.4,1.1-0.7c0.6-0.4,1-0.6,1.2-0.7c0.2-0.1,0.4-0.1,0.5-0.1c0.1,0,0.2,0,0.3,0.1c0.1,0.1,0.1,0.2,0.1,0.3
	c0,0.1-0.1,0.5-0.3,1.2c-0.8,3.1-1.1,4.9-1.1,5.4c0,0.3,0.1,0.4,0.3,0.4c0.2,0,0.6-0.2,1.1-0.6c0.5-0.4,1-0.9,1.6-1.7
	c0.6-0.7,1-1.4,1.2-2.2c0.3-0.7,0.5-1.7,0.7-2.8c0.1,0,0.5-0.1,1.2-0.3l0.1,0.1c0,0-0.1,0.3-0.2,0.7c-0.2,0.8-0.5,1.6-0.7,2.6
	c-0.2,1-0.4,1.8-0.5,2.4c-0.1,0.6-0.2,1-0.2,1.3c0,0.3,0.1,0.4,0.3,0.4c0.1,0,0.2,0,0.4-0.1c0.1-0.1,0.5-0.3,1-0.7l0.1,0l0.1,0.2
	l0,0.1c-1,0.8-1.7,1.3-2,1.5c-0.3,0.2-0.6,0.3-0.7,0.3c-0.1,0-0.3-0.1-0.3-0.2c-0.1-0.1-0.1-0.3-0.1-0.4c0-0.4,0.2-1.6,0.7-3.6
	l-0.1,0l-0.7,0.9c-0.2,0.3-0.5,0.6-0.8,1c-0.3,0.3-0.6,0.7-1,1.1c-0.4,0.4-0.8,0.6-1.1,0.8c-0.3,0.2-0.6,0.3-0.7,0.4
	c-0.1,0-0.3,0.1-0.3,0.1c-0.2,0-0.3-0.1-0.4-0.3c-0.1-0.2-0.2-0.4-0.2-0.7c0-0.5,0.1-1.1,0.3-2.1c0.6-2.3,0.9-3.7,0.9-4.2
	c0-0.2-0.1-0.3-0.2-0.3c-0.2,0-0.6,0.2-1.3,0.7L272.5,134.8z M264.6,136.9c-0.4,2-0.6,3.5-0.7,4.5c-0.3,0-0.7,0.1-1.2,0.3l-0.1-0.1
	c0.4-1.7,0.7-3.3,1-4.8c0.2-1.5,0.4-2.3,0.4-2.5c0-0.2-0.1-0.3-0.2-0.3c-0.2,0-0.7,0.3-1.3,0.8l-0.1,0l-0.1-0.2l0-0.1
	c0.5-0.4,0.9-0.7,1.3-0.9c0.4-0.2,0.7-0.4,0.9-0.5c0.2-0.1,0.4-0.1,0.5-0.1c0.2,0,0.4,0.2,0.4,0.5c0,0.1,0,0.5-0.1,1l-0.4,2.1l1.8,0
	l1.9,0c0.1-0.3,0.3-1.4,0.7-3.3c0.3-0.1,0.6-0.1,0.8-0.2l0.4-0.1l0.1,0.1c-0.4,1.2-0.8,2.6-1.1,4.1c-0.3,1.5-0.4,2.5-0.4,3.1
	c0,0.2,0,0.4,0.1,0.5c0.1,0.1,0.2,0.2,0.3,0.2c0.2,0,0.3-0.1,0.5-0.2c0.2-0.1,0.4-0.3,0.6-0.5l0.1,0l0.1,0.2l0,0.1
	c-0.9,0.8-1.7,1.2-2.2,1.2c-0.2,0-0.4-0.1-0.5-0.2c-0.1-0.1-0.2-0.4-0.2-0.7c0-0.4,0.2-1.7,0.6-3.9l-1.8,0L264.6,136.9z
	 M259.3,134.1c-0.4-0.2-0.9-0.3-1.4-0.3c-0.4,0-0.8,0.1-1.1,0.2c-0.1,0.1-0.2,0.3-0.4,0.5c-0.1,0.2-0.3,0.7-0.5,1.3
	c-0.2,0.6-0.4,1.3-0.6,2.1c-0.1,0.7-0.2,1.3-0.2,1.8c0,0.3,0,0.5,0.1,0.6c0.1,0.1,0.1,0.1,0.3,0.1c0.2,0,0.6-0.3,1.2-0.9
	c0.6-0.6,1.1-1.2,1.6-2c0.4-0.8,0.8-1.8,1-3L259.3,134.1z M260.8,139.7l0.1,0.2l0,0.1c-1.2,1.1-2.1,1.6-2.5,1.6
	c-0.3,0-0.4-0.2-0.4-0.6c0-0.2,0-0.4,0.1-0.7c0-0.3,0.1-0.6,0.2-0.9l0.2-0.9l0.1-0.5l-0.1,0c-0.9,1.2-1.7,2.2-2.4,2.8
	c-0.8,0.6-1.3,0.9-1.6,0.9c-0.4,0-0.6-0.5-0.6-1.5c0-0.6,0.1-1.3,0.3-2.1c0.2-0.8,0.4-1.5,0.7-2.2c0.3-0.7,0.5-1.1,0.7-1.3
	c0.2-0.2,0.4-0.5,0.8-0.7c0.4-0.3,0.8-0.5,1.1-0.6c0.3-0.1,0.7-0.2,1.1-0.2c0.5,0,1,0.1,1.6,0.3l0.6-0.3l0.2,0.2
	c0,0.1-0.1,0.5-0.4,1.3l-0.4,1.5l-0.2,0.9c-0.2,0.6-0.3,1.3-0.4,1.9c-0.1,0.7-0.2,1.1-0.2,1.4c0,0.2,0.1,0.4,0.2,0.4
	c0.1,0,0.2,0,0.4-0.1C260,140.2,260.3,140,260.8,139.7L260.8,139.7z M248.4,137.1c-0.2,0.7-0.3,1.4-0.3,2.1c0,0.7,0.1,1.2,0.4,1.6
	c0.2,0.4,0.6,0.5,1,0.5c0.3,0,0.6-0.1,1-0.3c0.3-0.2,0.6-0.5,0.7-0.9c0.2-0.4,0.3-0.8,0.3-1.2c0-0.6-0.2-1-0.5-1.4
	c-0.3-0.4-0.8-0.6-1.4-0.6C249.2,137,248.8,137,248.4,137.1 M248.5,136.7c0.7,0,1.2-0.1,1.5-0.2c0.3-0.1,0.6-0.2,1-0.4
	c0.3-0.2,0.6-0.5,0.8-0.8c0.2-0.3,0.3-0.7,0.3-1.1c0-0.5-0.2-0.8-0.7-0.8c-0.5,0-1,0.3-1.5,0.9C249.2,134.8,248.8,135.6,248.5,136.7
	 M250.3,136.8c0.8,0.1,1.4,0.3,1.8,0.5c0.4,0.3,0.5,0.7,0.5,1.3c0,0.6-0.2,1.1-0.5,1.6c-0.3,0.5-0.8,0.9-1.4,1.1
	c-0.6,0.3-1.2,0.4-1.7,0.4c-0.7,0-1.2-0.2-1.6-0.6c-0.4-0.4-0.6-0.9-0.6-1.7c0-0.8,0.2-1.7,0.5-2.5c0.3-0.9,0.7-1.6,1.2-2.2
	c0.5-0.6,1-1,1.5-1.3c0.6-0.3,1.1-0.5,1.7-0.5c0.4,0,0.8,0.1,1,0.3c0.2,0.2,0.3,0.4,0.3,0.8c0,0.6-0.2,1.2-0.7,1.6
	c-0.5,0.5-1.1,0.8-2,1L250.3,136.8z M240.1,138.9c0,0.5,0.1,0.9,0.2,1.2c0.1,0.3,0.3,0.5,0.5,0.7c0.3,0.2,0.6,0.3,0.9,0.3
	c0.4,0,0.7-0.1,1-0.3c0.3-0.2,0.6-0.6,0.8-1.1c0.3-0.6,0.5-1.2,0.6-1.9c0.1-0.7,0.2-1.3,0.2-1.9c0-0.5-0.1-1-0.2-1.3
	c-0.1-0.3-0.3-0.6-0.5-0.7c-0.2-0.2-0.5-0.2-0.9-0.2c-0.9,0-1.6,0.5-2,1.6C240.3,136.3,240.1,137.5,240.1,138.9 M238.7,139
	c0-1.1,0.2-2.1,0.6-3.1c0.4-0.9,1-1.6,1.7-2.2c0.8-0.5,1.5-0.8,2.3-0.8c0.7,0,1.3,0.2,1.7,0.6c0.5,0.4,0.7,1.1,0.7,2.1
	c0,1-0.2,2-0.7,3c-0.4,1-1,1.8-1.8,2.3c-0.8,0.5-1.5,0.8-2.2,0.8c-0.5,0-0.9-0.1-1.3-0.3c-0.4-0.2-0.6-0.5-0.8-0.9
	C238.8,140.1,238.7,139.6,238.7,139 M231.3,136.9c-0.4,2-0.6,3.5-0.7,4.5c-0.3,0-0.7,0.1-1.2,0.3l-0.1-0.1c0.4-1.7,0.7-3.3,1-4.8
	c0.2-1.5,0.4-2.3,0.4-2.5c0-0.2-0.1-0.3-0.2-0.3c-0.2,0-0.7,0.3-1.3,0.8l-0.1,0l-0.1-0.2l0-0.1c0.5-0.4,0.9-0.7,1.3-0.9
	c0.4-0.2,0.7-0.4,0.9-0.5c0.2-0.1,0.4-0.1,0.5-0.1c0.2,0,0.4,0.2,0.4,0.5c0,0.1,0,0.5-0.1,1l-0.4,2.1l1.8,0l1.9,0
	c0.1-0.3,0.3-1.4,0.7-3.3c0.3-0.1,0.6-0.1,0.8-0.2l0.4-0.1l0.1,0.1c-0.4,1.2-0.8,2.6-1.1,4.1c-0.3,1.5-0.4,2.5-0.4,3.1
	c0,0.2,0,0.4,0.1,0.5c0.1,0.1,0.2,0.2,0.3,0.2c0.2,0,0.3-0.1,0.5-0.2c0.2-0.1,0.4-0.3,0.6-0.5l0.1,0l0.1,0.2l0,0.1
	c-0.9,0.8-1.7,1.2-2.2,1.2c-0.2,0-0.4-0.1-0.5-0.2c-0.1-0.1-0.2-0.4-0.2-0.7c0-0.4,0.2-1.7,0.6-3.9l-1.8,0L231.3,136.9z
	 M227.1,139.6l0.1,0.2l0,0.1c-0.7,0.6-1.4,1-2,1.4c-0.6,0.3-1.2,0.5-1.7,0.5c-0.7,0-1.3-0.2-1.6-0.7c-0.4-0.4-0.6-1.1-0.6-2
	c0-0.5,0.1-1.1,0.2-1.7c0.1-0.6,0.3-1.1,0.5-1.6c0.2-0.4,0.4-0.8,0.7-1.1c0.2-0.3,0.6-0.5,1.1-0.8c0.6-0.4,1.1-0.7,1.5-0.8
	c0.4-0.1,0.7-0.2,1-0.2c0.6,0,1.1,0.1,1.5,0.4l0,0.1c-0.2,0.7-0.3,1.4-0.4,2.1l-0.1,0.1h-0.3l-0.1-0.1V135c0-0.1,0-0.2,0-0.3
	c0-0.2,0-0.3-0.1-0.4c-0.1-0.1-0.2-0.2-0.5-0.3c-0.3-0.1-0.5-0.1-0.9-0.1c-0.6,0-1.1,0.2-1.5,0.5c-0.4,0.3-0.7,1-1,1.9
	c-0.3,1-0.4,1.8-0.4,2.5c0,0.7,0.1,1.3,0.4,1.6c0.3,0.3,0.7,0.5,1.1,0.5c0.4,0,0.8-0.1,1.2-0.3S226.3,140.1,227.1,139.6L227.1,139.6
	z M214.5,138.9c0,0.5,0.1,0.9,0.2,1.2c0.1,0.3,0.3,0.5,0.5,0.7c0.3,0.2,0.6,0.3,0.9,0.3c0.4,0,0.7-0.1,1-0.3
	c0.3-0.2,0.6-0.6,0.8-1.1c0.3-0.6,0.5-1.2,0.6-1.9c0.1-0.7,0.2-1.3,0.2-1.9c0-0.5-0.1-1-0.2-1.3c-0.1-0.3-0.3-0.6-0.5-0.7
	c-0.2-0.2-0.5-0.2-0.9-0.2c-0.9,0-1.6,0.5-2,1.6C214.7,136.3,214.5,137.5,214.5,138.9 M213.1,139c0-1.1,0.2-2.1,0.6-3.1
	c0.4-0.9,1-1.6,1.7-2.2c0.8-0.5,1.5-0.8,2.3-0.8c0.7,0,1.3,0.2,1.7,0.6c0.5,0.4,0.7,1.1,0.7,2.1c0,1-0.2,2-0.7,3
	c-0.4,1-1,1.8-1.8,2.3c-0.8,0.5-1.5,0.8-2.2,0.8c-0.5,0-0.9-0.1-1.3-0.3c-0.4-0.2-0.6-0.5-0.8-0.9
	C213.2,140.1,213.1,139.6,213.1,139 M204.8,133.2l0.2,0.2l0,0.1c-0.8,0.3-1.4,0.8-1.8,1.2c-0.4,0.5-0.7,1.1-1,1.8
	c-0.3,0.7-0.4,1.5-0.4,2.2c0,0.8,0.1,1.3,0.3,1.7c0.2,0.3,0.5,0.5,0.8,0.5c0.4,0,0.7-0.2,1.1-0.4c0.4-0.3,0.8-0.8,1.1-1.5
	c0.4-0.7,0.6-1.5,0.8-2.4c0.2-0.9,0.3-1.7,0.3-2.4c0-1.5-0.2-2.6-0.7-3.4c-0.5-0.8-1.1-1.2-1.9-1.2c-0.6,0-1.1,0.3-1.7,0.8l-0.1,0
	l0-0.2l0-0.1c0.8-0.7,1.7-1,2.6-1c1,0,1.8,0.4,2.4,1.1c0.6,0.8,0.8,1.9,0.8,3.3c0,0.7-0.1,1.5-0.2,2.2c-0.1,0.7-0.3,1.4-0.6,1.9
	c-0.2,0.6-0.6,1.1-1,1.7c-0.4,0.6-0.8,1-1.3,1.4c-0.5,0.4-0.9,0.7-1.3,0.9c-0.4,0.2-0.8,0.3-1.2,0.3c-0.6,0-1-0.2-1.2-0.7
	c-0.3-0.4-0.4-1-0.4-1.7c0-0.8,0.1-1.5,0.4-2.3c0.2-0.8,0.6-1.4,1-2c0.4-0.6,0.9-1,1.3-1.3C203.6,133.6,204.2,133.4,204.8,133.2
	L204.8,133.2z M193.7,138.9c0,0.5,0.1,0.9,0.2,1.2c0.1,0.3,0.3,0.5,0.5,0.7c0.3,0.2,0.6,0.3,0.9,0.3c0.4,0,0.7-0.1,1-0.3
	c0.3-0.2,0.6-0.6,0.8-1.1c0.3-0.6,0.5-1.2,0.6-1.9c0.1-0.7,0.2-1.3,0.2-1.9c0-0.5-0.1-1-0.2-1.3c-0.1-0.3-0.3-0.6-0.5-0.7
	c-0.2-0.2-0.5-0.2-0.9-0.2c-0.9,0-1.6,0.5-2,1.6C193.9,136.3,193.7,137.5,193.7,138.9 M192.3,139c0-1.1,0.2-2.1,0.6-3.1
	c0.4-0.9,1-1.6,1.7-2.2c0.8-0.5,1.5-0.8,2.3-0.8c0.7,0,1.3,0.2,1.7,0.6c0.5,0.4,0.7,1.1,0.7,2.1c0,1-0.2,2-0.7,3
	c-0.4,1-1,1.8-1.8,2.3c-0.8,0.5-1.5,0.8-2.2,0.8c-0.5,0-0.9-0.1-1.3-0.3c-0.4-0.2-0.6-0.5-0.8-0.9
	C192.4,140.1,192.3,139.6,192.3,139 M187.4,129.9c-0.1,0.5-0.3,1.7-0.7,3.7L186,138l-0.3,2.1c0,0.1,0,0.2,0,0.3
	c0,0.2,0.1,0.4,0.2,0.4c0.1,0.1,0.5,0.1,1.1,0.2l0.1,0.1l-0.1,0.4l-0.1,0.1c0,0-0.1,0-0.2,0c-1.3,0-2-0.1-2.1-0.1
	c-0.2,0-0.8,0-1.7,0.1l-0.1-0.1l0-0.4l0.1-0.1c0.6,0,0.9-0.1,1-0.2c0.1-0.1,0.2-0.3,0.3-0.5c0.1-0.5,0.5-2.3,1.1-5.5
	c0.5-2.8,0.7-4.4,0.7-4.8c0-0.1-0.1-0.2-0.2-0.3c-0.1-0.1-0.3-0.1-0.7-0.1c-0.1,0-0.2,0-0.3,0l-0.1-0.1l0-0.4l0.1-0.1
	c0.9,0,1.9,0.1,3.1,0.1c2.2,0,3.7,0,4.7-0.1l0.1,0.1c0,0.1,0,0.3-0.1,0.7c0,0.3-0.1,0.8-0.2,1.7l-0.1,0.1h-0.3l-0.1-0.1l-0.1-1
	c0-0.2,0-0.4-0.1-0.4c0-0.1-0.1-0.1-0.3-0.2c-0.1,0-0.4-0.1-0.9-0.1c-0.4,0-0.9-0.1-1.3-0.1C188.4,129.8,187.8,129.8,187.4,129.9"/>
<path style="fill:#FFFBF4;" d="M341.2,81.8h1.8c1.3,0,2.5-0.1,2.5-1.7c0-1.3-1.1-1.5-2.2-1.5h-2.1V81.8z M341.2,87.5h-1.5V77.4h3.8
	c2.4,0,3.6,0.9,3.6,2.9c0,1.8-1.2,2.6-2.6,2.8l2.9,4.5h-1.7l-2.7-4.4h-1.8V87.5z M343.1,89.8c4,0,7.1-3.1,7.1-7.4
	c0-4.2-3.1-7.3-7.1-7.3c-4,0-7.2,3.1-7.2,7.3C335.9,86.7,339,89.8,343.1,89.8 M334.1,82.4c0-5,4.1-8.8,8.9-8.8
	c4.8,0,8.9,3.7,8.9,8.8c0,5.1-4.1,8.8-8.9,8.8C338.2,91.3,334.1,87.5,334.1,82.4"/>
</svg>
