<svg width="194" height="40" viewBox="0 0 194 40" fill="none" xmlns="http://www.w3.org/2000/svg">
<g clip-path="url(#clip0)">
<path fill-rule="evenodd" clip-rule="evenodd" d="M11.1529 13.1913C11.3339 13.1913 11.5109 13.2451 11.6614 13.346C11.8119 13.4468 11.9292 13.5902 11.9985 13.7579C12.0677 13.9257 12.0859 14.1102 12.0506 14.2883C12.0152 14.4664 11.9281 14.6299 11.8001 14.7583C11.6721 14.8867 11.509 14.9741 11.3315 15.0095C11.1539 15.0449 10.9699 15.0268 10.8027 14.9573C10.6354 14.8878 10.4925 14.7701 10.3919 14.6192C10.2913 14.4682 10.2377 14.2908 10.2377 14.1092C10.2377 13.8658 10.3341 13.6323 10.5057 13.4601C10.6774 13.288 10.9102 13.1913 11.1529 13.1913ZM24.7247 25.5703C25.0272 25.5703 25.323 25.6603 25.5745 25.8289C25.8261 25.9975 26.0222 26.2371 26.138 26.5175C26.2538 26.7978 26.2841 27.1063 26.225 27.4039C26.166 27.7015 26.0203 27.9749 25.8064 28.1895C25.5924 28.4041 25.3198 28.5502 25.0231 28.6094C24.7264 28.6686 24.4188 28.6382 24.1392 28.5221C23.8597 28.406 23.6208 28.2093 23.4527 27.957C23.2846 27.7047 23.1949 27.4081 23.1949 27.1046C23.1949 26.6977 23.3561 26.3074 23.643 26.0197C23.9298 25.732 24.3189 25.5703 24.7247 25.5703ZM34.387 16.0107C34.4135 15.7152 34.5106 15.4306 34.6698 15.1806C34.8291 14.9307 35.0461 14.7229 35.3023 14.5747C35.8518 14.3142 36.42 14.095 37.002 13.9191C37.7445 13.6351 38.4637 13.2931 39.1528 12.8962C39.3032 14.024 38.4533 14.7911 37.4531 15.2501C36.7402 15.5803 35.9858 15.8119 35.2107 15.9385C34.9424 16.0101 34.6637 16.0345 34.387 16.0107ZM33.5568 19.5119C33.5568 18.2531 34.3413 17.8728 35.3349 17.6629C36.1252 17.5465 36.8968 17.326 37.6296 17.0073C37.4969 17.564 37.225 18.0777 36.8396 18.4998C36.4541 18.922 35.9678 19.2387 35.4265 19.4201C34.6158 19.6693 34.1647 19.7808 33.5568 19.5054V19.5119ZM25.653 24.377C26.3067 22.469 27.6142 22.3117 29.5755 22.1018C30.2945 22.0026 30.9728 21.7079 31.5367 21.2495C31.4193 21.8195 31.1771 22.3564 30.8278 22.8212C30.4785 23.2861 30.0307 23.6674 29.5166 23.9377C28.9331 24.2654 28.2902 24.4731 27.6257 24.5485C26.9611 24.624 26.2882 24.5657 25.6464 24.377H25.653ZM32.0989 17.7154C31.1706 18.2203 29.4839 18.0826 27.8953 18.6202C27.328 18.7938 26.8409 19.1643 26.5211 19.6653C26.2013 20.1662 26.0697 20.765 26.1498 21.3544C27.2939 20.2332 29.2813 20.6987 30.726 20.0955C31.1585 19.8664 31.52 19.5228 31.7713 19.102C32.0226 18.6812 32.154 18.1993 32.1512 17.7088L32.0989 17.7154ZM33.341 13.3093C33.378 14.0059 33.1608 14.6922 32.7301 15.24C32.2994 15.7878 31.6847 16.1596 31.0006 16.286C29.1897 16.6598 27.2089 16.6729 25.9864 17.5974C25.9079 16.1483 26.8493 14.437 28.0784 14.1748C30.105 13.7486 32.4912 13.9322 33.341 13.2896V13.3093ZM40.3884 11.421C39.5255 10.8702 38.9175 11.3357 37.9303 11.7488C36.9277 12.1932 35.8916 12.5572 34.8316 12.8372C34.9338 12.6785 34.9977 12.4981 35.0182 12.3103C35.0386 12.1224 35.015 11.9324 34.9492 11.7554C34.8708 11.5946 34.7421 11.464 34.5828 11.3835C34.4234 11.303 34.2421 11.277 34.0667 11.3095C33.4599 11.3926 32.8623 11.5331 32.282 11.7291C31.1142 11.982 29.9261 12.1291 28.7321 12.1684C26.959 12.2368 25.1833 12.1557 23.4237 11.9258C22.4366 11.8406 21.822 11.8013 21.0048 12.4635C20.539 12.8561 20.2316 13.4054 20.1402 14.0087C20.0487 14.6121 20.1795 15.2281 20.508 15.7418C21.2435 16.7613 21.9118 17.828 22.5085 18.9349C22.9203 19.7218 23.221 20.4364 23.5283 21.0921C23.6525 21.3675 23.7506 21.6888 23.8879 22.0428C24.1864 22.6295 24.2405 23.3111 24.0382 23.9377C23.7963 24.4426 23.4302 24.5344 23.0315 24.836C22.6696 25.1141 22.3808 25.4766 22.1901 25.8919C21.9994 26.3072 21.9125 26.7629 21.937 27.2195C21.9615 27.6761 22.0965 28.1198 22.3305 28.5122C22.5645 28.9046 22.8904 29.2339 23.2799 29.4716C23.4499 29.5765 23.4368 29.6158 23.4172 29.6552C23.3976 29.6945 23.2995 29.6552 23.1295 29.5896C23.0439 29.549 22.9609 29.503 22.8811 29.4519C22.6378 29.2931 22.4178 29.1011 22.2274 28.8815C21.7506 28.3545 21.4547 27.6882 21.3829 26.9802C21.3111 26.2723 21.4673 25.5599 21.8286 24.9474C22.3516 24.0557 21.9855 23.3476 21.6455 22.4559C20.2661 18.9546 17.1935 14.2928 13.6371 12.4569C12.6337 11.9294 11.4893 11.7343 10.3684 11.8996C9.57953 12.0498 8.85077 12.4255 8.26988 12.9815C7.9492 13.2925 7.55585 13.518 7.12583 13.6371C6.55707 13.801 6.09291 13.7879 5.48493 13.9191C4.99462 14.024 4.73312 14.1617 4.60891 14.3715C4.566 14.4299 4.53793 14.4978 4.52715 14.5696C4.51636 14.6413 4.52318 14.7145 4.54701 14.783C4.57084 14.8515 4.61096 14.9131 4.6639 14.9625C4.71683 15.0119 4.78099 15.0476 4.85079 15.0665C5.69915 15.1797 6.53375 15.3797 7.34156 15.6632C8.556 16.0299 9.70379 16.59 10.741 17.322C12.1305 18.3118 13.3702 19.4977 14.4216 20.843C15.3866 22.157 16.1145 23.6305 16.5725 25.1966C16.9316 26.2044 17.0764 27.2765 16.9974 28.3438C16.99 28.6719 16.8818 28.9896 16.6875 29.2537C16.4933 29.5177 16.2225 29.7152 15.9122 29.8191C15.565 29.9495 15.1815 29.9436 14.8385 29.8025C14.4954 29.6615 14.2181 29.3958 14.0621 29.0585C13.9494 28.861 13.8821 28.6408 13.8652 28.414C13.8482 28.1871 13.882 27.9593 13.964 27.7472C14.4935 26.5997 13.3626 25.5835 12.5781 25.5572C12.3241 25.5625 12.0751 25.6285 11.8518 25.7498C11.6284 25.8711 11.4372 26.0441 11.2939 26.2545C11.1507 26.4648 11.0596 26.7065 11.0282 26.9592C10.9969 27.212 11.0262 27.4687 11.1137 27.7078C11.7879 29.4919 13.016 31.0114 14.6169 32.042C16.2178 33.0726 18.1066 33.5599 20.0046 33.4318C21.571 33.2834 23.0795 32.7619 24.4043 31.9107C25.3302 31.2913 26.1251 30.4946 26.7432 29.5663C27.3614 28.638 27.7907 27.5965 28.0065 26.5014C31.7263 26.0227 33.4718 22.8427 33.4849 21.3085C34.6645 21.4519 35.8583 21.2005 36.8809 20.5934C37.9035 19.9864 38.6976 19.0576 39.1397 17.9514C39.33 17.3621 39.4336 16.748 39.447 16.1287C39.8906 15.7756 40.2575 15.3351 40.5251 14.8345C40.7927 14.3338 40.9553 13.7835 41.0029 13.2175C41.0606 12.8918 41.0304 12.5565 40.9155 12.2463C40.8006 11.9362 40.605 11.6626 40.3492 11.4537L40.3884 11.421ZM22.9269 2.28747C10.9306 2.28747 1.20289 10.0113 1.20289 19.5382C1.20289 29.0651 10.9306 36.7823 22.9269 36.7823C34.9231 36.7823 44.6443 29.0585 44.6443 19.5382C44.6443 10.0178 34.9166 2.28747 22.9269 2.28747ZM22.9269 0.930237C10.2638 0.930237 0 9.26381 0 19.5382C0 29.8125 10.2638 38.1395 22.9269 38.1395C35.5899 38.1395 45.8472 29.7797 45.8472 19.5382C45.8472 9.29659 35.5834 0.930237 22.9269 0.930237Z" fill="white"/>
</g>
<g clip-path="url(#clip1)">
<path fill-rule="evenodd" clip-rule="evenodd" d="M67.4847 4.83832L63.7012 20.7891C63.5557 21.4844 63.3449 22.1644 63.0714 22.82C62.8351 23.3824 62.4617 23.8767 61.9852 24.2576C61.1857 24.8446 60.2105 25.1423 59.2195 25.1019C58.1948 25.1001 57.173 24.9915 56.1708 24.7779V20.8986C56.6165 21.0225 57.0775 21.0824 57.54 21.0766C57.7478 21.085 57.9523 21.0222 58.1196 20.8986C58.2032 20.8289 58.268 20.7393 58.3079 20.638C58.3478 20.5367 58.3615 20.427 58.3478 20.319V19.9676C58.3198 19.7693 58.2693 19.5748 58.1972 19.388L54.8838 4.83832H59.6713L61.1591 16.1248H61.2093L62.6926 4.83832H67.4847Z" fill="white"/>
<path fill-rule="evenodd" clip-rule="evenodd" d="M74.8142 13.4041C75.9734 13.4376 76.5439 12.6055 76.5256 10.9077C76.5074 9.20994 75.9369 8.37779 74.8142 8.41126H73.6549V13.4041H74.8142ZM69.0317 4.83775H73.9835C76.518 4.80428 78.3573 5.15722 79.5013 5.89656C80.627 6.70285 81.1808 8.37627 81.1625 10.9168C81.162 11.6506 81.1025 12.3832 80.9845 13.1075C80.8589 13.8002 80.6034 14.463 80.2315 15.0608C79.8481 15.653 79.3078 16.1271 78.6706 16.43C77.8651 16.8292 76.972 17.0191 76.0738 16.9822H73.6549V24.969H69.0317V4.83775Z" fill="white"/>
<path fill-rule="evenodd" clip-rule="evenodd" d="M89.6831 19.3006L88.6015 17.4112L86.3561 24.9735H81.418L85.3475 13.2809L81.418 4.83768H86.3561L89.6056 13.2809H89.6831V4.83768H94.0143V13.2809H94.0919L97.3413 4.83768H102.279L98.3499 13.2809L102.279 24.9735H97.3413L95.1005 17.4112L94.0143 19.3006V24.9735H89.6831V19.3006Z" fill="white"/>
<path fill-rule="evenodd" clip-rule="evenodd" d="M115.807 4.83768L112.028 20.7884C111.882 21.4837 111.671 22.1637 111.398 22.8194C111.163 23.3813 110.791 23.8755 110.316 24.257C109.516 24.8446 108.539 25.1424 107.546 25.1013C106.521 25.0995 105.5 24.9909 104.497 24.7773V20.898C104.943 21.022 105.404 21.0819 105.867 21.076C106.074 21.0844 106.279 21.0216 106.446 20.898C106.53 20.8283 106.595 20.7387 106.635 20.6374C106.674 20.5361 106.688 20.4263 106.674 20.3183V19.9669C106.646 19.7687 106.596 19.5743 106.524 19.3873L103.21 4.83768H107.998L109.486 16.1241H109.536L111.019 4.83768H115.807Z" fill="white"/>
<path fill-rule="evenodd" clip-rule="evenodd" d="M117.094 4.83768H124.177L125.637 14.8143H125.688L127.175 4.83768H134.377V24.9735H129.895V9.32397H129.845L127.121 24.9735H124.127L121.63 9.32397H121.58V24.9735H117.094V4.83768Z" fill="white"/>
<path fill-rule="evenodd" clip-rule="evenodd" d="M136.322 10.3326C136.34 8.3671 136.912 6.89754 138.038 5.92391C139.273 5.00835 140.77 4.5141 142.307 4.5141C143.845 4.5141 145.342 5.00835 146.577 5.92391C147.687 6.89754 148.25 8.3671 148.265 10.3326V12.1992H143.629V9.9173C143.642 9.51626 143.591 9.11564 143.478 8.73069C143.408 8.52756 143.275 8.35182 143.099 8.22867C142.846 8.11361 142.569 8.06191 142.291 8.07806C141.683 8.09631 141.296 8.31538 141.132 8.73526C140.999 9.11626 140.939 9.5187 140.954 9.92186V19.8802C140.954 20.0326 140.962 20.185 140.977 20.3366C141.016 20.5594 141.071 20.779 141.141 20.9938C141.223 21.2287 141.383 21.4288 141.593 21.5615C141.804 21.6941 142.053 21.7514 142.3 21.724C142.588 21.7433 142.873 21.6627 143.108 21.4959C143.284 21.3725 143.417 21.1968 143.487 20.9938C143.591 20.6334 143.641 20.2598 143.638 19.8848V16.932H148.275V19.4786C148.189 23.2727 146.198 25.2124 142.3 25.2976C138.385 25.2124 136.395 23.2727 136.331 19.4786L136.322 10.3326Z" fill="white"/>
<path fill-rule="evenodd" clip-rule="evenodd" d="M150.456 4.83768H154.942V13.08H155.02L158.091 4.83768H163.03L159.15 13.1804L163.03 24.9735H158.091L156.029 17.7626L154.942 19.4284V24.9735H150.456V4.83768Z" fill="white"/>
<path fill-rule="evenodd" clip-rule="evenodd" d="M173.435 12.6739H173.385L169.633 24.9735H164.59V4.83768H169.077V16.8589H169.127L172.833 4.83768H177.921V24.9735H173.435V12.6739Z" fill="white"/>
<path fill-rule="evenodd" clip-rule="evenodd" d="M184.927 0C184.925 0.226907 184.973 0.451411 185.07 0.656839C185.166 0.862266 185.308 1.04334 185.484 1.18661C185.867 1.45352 186.327 1.58666 186.793 1.56541C187.901 1.59888 188.522 1.0786 188.656 0.00456388H190.568C190.55 1.18204 190.197 2.05527 189.509 2.62423C188.726 3.22401 187.756 3.52789 186.771 3.48224C184.285 3.50049 183.025 2.34127 182.992 0.00456388L184.927 0ZM188.961 12.6739H188.911L185.155 24.969H180.135V4.83771H184.621V16.859H184.671L188.377 4.84227H193.443V24.969H188.957L188.961 12.6739Z" fill="white"/>
<path fill-rule="evenodd" clip-rule="evenodd" d="M59.2841 37.2675C58.7764 37.4866 58.2284 37.5966 57.6756 37.5904C57.2991 37.6096 56.9228 37.5485 56.5718 37.411C56.2208 37.2736 55.903 37.063 55.6396 36.7933C55.3763 36.5236 55.1733 36.2009 55.0443 35.8467C54.9152 35.4925 54.8631 35.1149 54.8912 34.739C54.8718 34.3402 54.9364 33.9419 55.0808 33.5697C55.2251 33.1975 55.446 32.8597 55.7292 32.5783C56.0123 32.2969 56.3514 32.0781 56.7245 31.936C57.0976 31.7939 57.4963 31.7318 57.8949 31.7536C58.3826 31.7446 58.866 31.8467 59.3084 32.0521L59.0769 32.8259C58.7111 32.6404 58.305 32.5483 57.8949 32.5578C57.6221 32.5525 57.3513 32.6046 57.1 32.7109C56.8487 32.8172 56.6225 32.9751 56.4363 33.1746C56.2501 33.374 56.108 33.6104 56.0192 33.8684C55.9304 34.1264 55.8969 34.4002 55.9209 34.672C55.8969 34.94 55.9296 35.2101 56.0168 35.4648C56.104 35.7194 56.2438 35.9528 56.4271 36.1499C56.6104 36.3469 56.8331 36.5033 57.0807 36.6087C57.3283 36.7141 57.5954 36.7663 57.8645 36.7618C58.2853 36.7619 58.7011 36.6704 59.083 36.4937L59.2841 37.2675Z" fill="white"/>
<path fill-rule="evenodd" clip-rule="evenodd" d="M65.0724 31.8694V37.4686H64.061V32.6675H61.4594V37.4686H60.4419V31.8694H65.0724Z" fill="white"/>
<path fill-rule="evenodd" clip-rule="evenodd" d="M67.6662 31.8691V34.227C67.6662 35.1043 67.6662 35.6709 67.5992 36.4691H67.6358C67.9831 35.7867 68.1658 35.3968 68.5497 34.7509L70.2922 31.863H71.5108V37.4561H70.5055V35.0982C70.5055 34.1843 70.5055 33.7091 70.5725 32.7952C70.2008 33.5263 69.9632 33.9711 69.6342 34.5377C69.1041 35.4029 68.4766 36.4813 67.8856 37.4622H66.6914V31.8691H67.6662Z" fill="white"/>
<path fill-rule="evenodd" clip-rule="evenodd" d="M74.1359 35.1709C74.1311 35.3804 74.1681 35.5887 74.2449 35.7836C74.3217 35.9786 74.4367 36.1562 74.5832 36.306C74.7296 36.4559 74.9045 36.5749 75.0976 36.6562C75.2908 36.7374 75.4982 36.7793 75.7077 36.7792C76.786 36.7792 77.4073 35.902 77.4073 34.6165C77.4073 33.5078 76.7981 32.5514 75.7442 32.5514C75.3896 32.5559 75.0464 32.678 74.7686 32.8984C74.4908 33.1189 74.294 33.4254 74.209 33.7698C74.1698 33.9025 74.1472 34.0396 74.142 34.1779V35.1709H74.1359ZM73.1308 33.6967C73.1308 32.9778 73.1308 32.3991 73.082 31.8691H73.9836L74.0446 32.8316C74.2455 32.4876 74.5369 32.2053 74.887 32.0152C75.2371 31.8251 75.6326 31.7345 76.0306 31.7533C77.3952 31.7533 78.4125 32.8986 78.4125 34.5861C78.4125 36.5964 77.1941 37.5894 75.86 37.5894C75.5213 37.6047 75.1845 37.5318 74.8823 37.3781C74.5802 37.2244 74.323 36.9949 74.1359 36.7122V39.7582H73.1308V33.6967Z" fill="white"/>
<path fill-rule="evenodd" clip-rule="evenodd" d="M83.3963 31.8691V32.6673H81.6538V37.4683H80.6363V32.6673H78.8877V31.8691H83.3963Z" fill="white"/>
<path fill-rule="evenodd" clip-rule="evenodd" d="M84.7726 34.6779C84.7726 35.8964 85.4672 36.8286 86.4603 36.8286C87.4534 36.8286 88.1602 35.9147 88.1602 34.6535C88.1602 33.703 87.685 32.5149 86.4847 32.5149C85.2844 32.5149 84.7726 33.6238 84.7726 34.6779ZM89.2021 34.6169C89.2373 35.001 89.191 35.3882 89.0664 35.7533C88.9418 36.1183 88.7415 36.4529 88.4787 36.7352C88.2159 37.0176 87.8965 37.2413 87.5414 37.3918C87.1862 37.5422 86.8033 37.6161 86.4177 37.6085C86.0481 37.6113 85.6819 37.5373 85.3424 37.3911C85.0029 37.245 84.6975 37.03 84.4454 36.7596C84.1934 36.4892 84.0003 36.1695 83.8783 35.8206C83.7563 35.4716 83.7082 35.1012 83.7369 34.7327C83.7053 34.3519 83.7539 33.9686 83.8795 33.6077C84.0051 33.2468 84.205 32.9162 84.4661 32.6372C84.7273 32.3583 85.044 32.1371 85.3959 31.988C85.7478 31.8389 86.127 31.7652 86.5091 31.7716C88.1115 31.7533 89.2021 32.9232 89.2021 34.623V34.6169Z" fill="white"/>
<path fill-rule="evenodd" clip-rule="evenodd" d="M91.4311 34.2269H92.1927C92.9421 34.2269 93.7159 34.0075 93.7159 33.3373C93.7159 32.7829 93.2345 32.5148 92.211 32.5148C91.9482 32.5154 91.6858 32.5316 91.425 32.5635V34.2269H91.4311ZM91.4311 36.8041C91.7235 36.8041 91.9307 36.8345 92.2414 36.8345C92.936 36.8345 93.9535 36.6883 93.9535 35.8658C93.9535 35.0433 93.131 34.8849 92.1744 34.8849H91.4311V36.8041ZM90.4623 31.9299C91.0515 31.8441 91.6461 31.8013 92.2414 31.8019C93.1919 31.8019 94.7394 31.9664 94.7394 33.2033C94.7278 33.5256 94.5998 33.8328 94.3791 34.068C94.1585 34.3032 93.8601 34.4506 93.5392 34.4828C94.3617 34.5985 94.9588 35.0494 94.9588 35.8597C94.9588 37.3281 93.131 37.5108 92.0099 37.5108C91.4006 37.5108 90.7243 37.4621 90.4258 37.4438L90.4623 31.9299Z" fill="white"/>
<path fill-rule="evenodd" clip-rule="evenodd" d="M96.9018 34.6779C96.9018 35.8964 97.5963 36.8286 98.5895 36.8286C99.5826 36.8286 100.289 35.9147 100.289 34.6535C100.289 33.703 99.8141 32.5149 98.6138 32.5149C97.4136 32.5149 96.9018 33.6238 96.9018 34.6779ZM101.331 34.6169C101.366 35.0016 101.32 35.3893 101.195 35.7547C101.07 36.1202 100.869 36.4551 100.606 36.7375C100.342 37.02 100.022 37.2436 99.6663 37.3937C99.3105 37.5437 98.9269 37.6169 98.5407 37.6085C98.1711 37.6113 97.805 37.5373 97.4655 37.3911C97.126 37.245 96.8205 37.03 96.5685 36.7596C96.3164 36.4892 96.1233 36.1695 96.0014 35.8206C95.8794 35.4716 95.8312 35.1012 95.8599 34.7327C95.8284 34.3519 95.877 33.9686 96.0026 33.6077C96.1282 33.2468 96.328 32.9162 96.5892 32.6372C96.8504 32.3583 97.1671 32.1371 97.519 31.988C97.8708 31.8389 98.25 31.7652 98.6321 31.7716C100.241 31.7533 101.325 32.9232 101.325 34.623L101.331 34.6169Z" fill="white"/>
<path fill-rule="evenodd" clip-rule="evenodd" d="M104.023 33.5566C104.033 34.2635 103.937 34.9679 103.737 35.6461C103.624 36.0101 103.472 36.3613 103.286 36.694H105.863V32.6428H104.036V33.5566H104.023ZM106.868 31.8691V36.7001H107.477L107.423 39.216H106.625L106.576 37.4494H102.677L102.622 39.216H101.824L101.775 36.7061H102.251C102.49 36.3531 102.676 35.9674 102.805 35.5609C103.026 34.8385 103.135 34.0865 103.128 33.3312V31.8691H106.868Z" fill="white"/>
<path fill-rule="evenodd" clip-rule="evenodd" d="M109.244 34.6779C109.244 35.8964 109.938 36.8286 110.932 36.8286C111.925 36.8286 112.631 35.9147 112.631 34.6535C112.631 33.703 112.156 32.5149 110.956 32.5149C109.756 32.5149 109.244 33.6238 109.244 34.6779ZM113.673 34.6169C113.708 35.001 113.662 35.3882 113.538 35.7533C113.413 36.1183 113.213 36.4529 112.95 36.7352C112.687 37.0176 112.368 37.2413 112.013 37.3918C111.657 37.5422 111.275 37.6161 110.889 37.6085C110.519 37.6113 110.153 37.5373 109.814 37.3911C109.474 37.245 109.169 37.03 108.917 36.7596C108.665 36.4892 108.471 36.1695 108.349 35.8206C108.228 35.4716 108.179 35.1012 108.208 34.7327C108.177 34.3519 108.225 33.9686 108.351 33.6077C108.476 33.2468 108.676 32.9162 108.937 32.6372C109.199 32.3583 109.515 32.1371 109.867 31.988C110.219 31.8389 110.598 31.7652 110.98 31.7716C112.589 31.7533 113.673 32.9232 113.673 34.623V34.6169Z" fill="white"/>
<path fill-rule="evenodd" clip-rule="evenodd" d="M115.769 31.8691V33.7517C115.769 34.4646 116.037 34.9703 116.926 34.9703C117.362 34.9691 117.787 34.8352 118.145 34.5864V31.8691H119.126V37.5353H118.121V35.281C117.658 35.5508 117.133 35.6957 116.597 35.7014C116.351 35.7284 116.101 35.6997 115.867 35.6174C115.633 35.5351 115.421 35.4013 115.245 35.2259C115.07 35.0504 114.936 34.8378 114.854 34.6038C114.771 34.3697 114.743 34.1202 114.77 33.8736V31.863L115.769 31.8691Z" fill="white"/>
<path fill-rule="evenodd" clip-rule="evenodd" d="M121.775 31.8691V34.1234H124.425V31.8691H125.437V37.4683H124.425V34.9338H121.775V37.4683H120.764V31.8691H121.775Z" fill="white"/>
<path fill-rule="evenodd" clip-rule="evenodd" d="M133.137 31.8691V37.4622H132.132V31.8691H133.137ZM128.087 36.7433C128.32 36.7796 128.557 36.7959 128.793 36.792C129.579 36.792 130.408 36.4813 130.408 35.5735C130.408 34.6657 129.598 34.3976 128.836 34.3976C128.585 34.3934 128.333 34.4158 128.087 34.4646V36.7189V36.7433ZM128.087 31.8691V33.77C128.385 33.7216 128.686 33.6972 128.988 33.6969C130.207 33.6969 131.425 34.1904 131.425 35.5796C131.432 35.8275 131.38 36.0734 131.274 36.2977C131.168 36.5219 131.011 36.7184 130.816 36.8712C130.16 37.3373 129.365 37.5652 128.562 37.5171C128.061 37.5165 127.561 37.49 127.063 37.4379V31.8691H128.087Z" fill="white"/>
<path fill-rule="evenodd" clip-rule="evenodd" d="M136.39 29.5967C136.426 30.0963 136.67 30.474 137.127 30.474C137.584 30.474 137.858 30.0963 137.913 29.5967H138.619C138.624 29.7949 138.586 29.9916 138.509 30.1742C138.432 30.3568 138.317 30.521 138.172 30.6562C138.027 30.7913 137.855 30.8943 137.668 30.9585C137.48 31.0226 137.281 31.0464 137.084 31.0284C136.891 31.0435 136.697 31.0171 136.515 30.9509C136.333 30.8847 136.168 30.7802 136.03 30.6445C135.892 30.5087 135.784 30.345 135.715 30.1642C135.646 29.9835 135.616 29.7899 135.628 29.5967H136.39ZM135.732 31.8751V34.2327C135.732 35.11 135.732 35.6765 135.665 36.4746H135.701C136.048 35.7923 136.231 35.4024 136.615 34.7567L138.357 31.8691H139.576V37.4615H138.607V35.0978C138.607 34.184 138.607 33.7088 138.674 32.795C138.302 33.5261 138.065 33.9708 137.742 34.5373C137.212 35.4024 136.585 36.4807 135.994 37.4615H134.818V31.8691L135.732 31.8751Z" fill="white"/>
<path fill-rule="evenodd" clip-rule="evenodd" d="M144.102 34.2208H144.59C145.443 34.2208 146.021 33.8248 146.021 33.3069C146.021 32.789 145.571 32.4844 144.937 32.4844C144.458 32.4967 143.992 32.6354 143.584 32.8865L143.328 32.2772C143.889 31.9386 144.532 31.7615 145.187 31.7654C146.04 31.7654 147.082 32.1493 147.082 33.2338C147.049 33.5583 146.906 33.8617 146.676 34.0934C146.447 34.3251 146.145 34.4712 145.82 34.5071C146.206 34.5001 146.579 34.6417 146.863 34.9027C147.146 35.1636 147.319 35.5238 147.344 35.9085C147.344 37.127 146.125 37.5718 144.906 37.5718C144.269 37.5743 143.641 37.4194 143.079 37.1209L143.341 36.4264C143.794 36.6771 144.303 36.8111 144.821 36.8163C145.668 36.8163 146.198 36.4142 146.198 35.8597C146.198 35.1042 145.412 34.9032 144.565 34.9032H144.102V34.2208Z" fill="white"/>
<path fill-rule="evenodd" clip-rule="evenodd" d="M151.578 34.6108C150.469 34.6108 149.208 34.7875 149.208 35.872C149.196 36 149.212 36.1291 149.255 36.2503C149.298 36.3715 149.367 36.482 149.456 36.574C149.546 36.6661 149.655 36.7377 149.775 36.7837C149.895 36.8297 150.024 36.8492 150.152 36.8407C150.451 36.8504 150.746 36.7647 150.993 36.596C151.241 36.4274 151.428 36.1845 151.529 35.9024C151.561 35.7978 151.578 35.689 151.578 35.5795V34.6047V34.6108ZM152.559 36.1279C152.552 36.576 152.579 37.024 152.638 37.4683H151.724L151.645 36.7615H151.608C151.412 37.0281 151.154 37.244 150.858 37.3913C150.561 37.5386 150.233 37.613 149.902 37.6084C149.682 37.6254 149.46 37.5962 149.252 37.5227C149.043 37.4493 148.852 37.3332 148.691 37.1818C148.53 37.0305 148.402 36.8472 148.316 36.6437C148.23 36.4402 148.187 36.2209 148.19 35.9999C148.19 34.6473 149.409 33.904 151.553 33.9162V33.8004C151.575 33.6278 151.557 33.4525 151.501 33.2878C151.444 33.1232 151.351 32.9735 151.229 32.8502C151.106 32.7269 150.957 32.6331 150.792 32.5761C150.628 32.519 150.453 32.5002 150.28 32.521C149.761 32.5153 149.251 32.6592 148.812 32.9353L148.58 32.2529C149.136 31.9329 149.766 31.7648 150.408 31.7655C152.12 31.7655 152.534 32.9353 152.534 34.0442L152.559 36.1279Z" fill="white"/>
<path fill-rule="evenodd" clip-rule="evenodd" d="M155.147 34.2269H155.909C156.664 34.2269 157.432 34.0075 157.432 33.3373C157.432 32.7829 156.944 32.5148 155.927 32.5148C155.664 32.5154 155.402 32.5317 155.141 32.5635V34.2269H155.147ZM155.147 36.8041C155.433 36.8041 155.647 36.8346 155.957 36.8346C156.652 36.8346 157.669 36.6883 157.669 35.8658C157.669 35.0433 156.847 34.8849 155.89 34.8849H155.153V36.8041H155.147ZM154.178 31.9299C154.767 31.8441 155.362 31.8013 155.957 31.8019C156.908 31.8019 158.455 31.9664 158.455 33.2033C158.443 33.5189 158.32 33.8201 158.107 34.0533C157.894 34.2865 157.605 34.4365 157.292 34.4767C158.108 34.5924 158.711 35.0433 158.711 35.8536C158.711 37.322 156.883 37.5048 155.762 37.5048C155.153 37.5048 154.477 37.456 154.178 37.4377V31.9299Z" fill="white"/>
<path fill-rule="evenodd" clip-rule="evenodd" d="M160.618 34.6778C160.618 35.8964 161.312 36.8286 162.305 36.8286C163.298 36.8286 164.005 35.9147 164.005 34.6535C164.005 33.703 163.53 32.5149 162.33 32.5149C161.129 32.5149 160.618 33.6238 160.618 34.6778ZM165.047 34.6169C165.082 35.001 165.036 35.3882 164.911 35.7532C164.787 36.1183 164.586 36.4529 164.324 36.7352C164.061 37.0175 163.741 37.2413 163.386 37.3917C163.031 37.5422 162.648 37.6161 162.263 37.6084C161.893 37.6112 161.527 37.5372 161.187 37.3911C160.848 37.245 160.542 37.0299 160.29 36.7596C160.038 36.4892 159.845 36.1694 159.723 35.8205C159.601 35.4716 159.553 35.1012 159.582 34.7327C159.547 34.3483 159.594 33.961 159.72 33.5961C159.846 33.2313 160.048 32.8972 160.312 32.6158C160.576 32.3344 160.897 32.1121 161.253 31.9634C161.609 31.8148 161.993 31.7432 162.378 31.7533C163.962 31.7533 165.047 32.9231 165.047 34.623V34.6169Z" fill="white"/>
<path fill-rule="evenodd" clip-rule="evenodd" d="M167.739 33.5566C167.749 34.2635 167.653 34.9679 167.453 35.6461C167.344 36.0078 167.197 36.3569 167.014 36.6879H169.591V32.6428H167.764V33.5566H167.739ZM170.584 31.8691V36.7001H171.163L171.108 39.216H170.298L170.255 37.4494H166.387L166.326 39.216H165.546L165.498 36.7061H165.973C166.213 36.3537 166.4 35.9678 166.527 35.5609C166.748 34.8385 166.857 34.0865 166.85 33.3312V31.8691H170.584Z" fill="white"/>
</g>
<defs>
<clipPath id="clip0">
<rect width="45.8472" height="37.2093" fill="white" transform="translate(0 0.930237)"/>
</clipPath>
<clipPath id="clip1">
<rect width="138.605" height="40" fill="white" transform="translate(54.8838)"/>
</clipPath>
</defs>
</svg>
