<svg width="42" height="42" viewBox="0 0 42 42" fill="none" xmlns="http://www.w3.org/2000/svg">
<path d="M1.29199 9.47024V32.4829C1.29199 37.0013 4.9548 40.6641 9.47317 40.6641H32.4858C37.0042 40.6641 40.667 37.0013 40.667 32.4829V9.47024C40.667 4.95187 37.0042 1.28906 32.4858 1.28906H9.47317C4.9548 1.28906 1.29199 4.95187 1.29199 9.47024ZM25.1503 32.133C15.4385 35.4838 6.47222 26.5175 9.82308 16.8057C10.9521 13.5325 13.5352 10.9492 16.8084 9.82015C26.5204 6.46929 35.4868 15.4356 32.1359 25.1477C31.0069 28.4209 28.4238 31.0039 25.1503 32.133ZM34.6423 9.07034C34.4877 9.87951 33.8182 10.3503 33.1256 10.3503C32.704 10.3503 32.2743 10.1763 31.9453 9.79876C31.9162 9.76536 31.8891 9.72955 31.8651 9.6923C31.5255 9.17319 31.5149 8.55652 31.8035 8.0564C32.0078 7.7024 32.3375 7.44958 32.7324 7.34383C33.1268 7.23761 33.5392 7.29216 33.8927 7.49668C34.393 7.78507 34.692 8.3246 34.6579 8.9432C34.6555 8.9855 34.6504 9.02852 34.6423 9.07034Z" fill="#6F6F6F"/>
<path d="M20.9801 11.418C15.7055 11.418 11.4147 15.7087 11.4147 20.9834C11.4147 26.2581 15.7055 30.5489 20.9801 30.5489C26.2548 30.5489 30.5456 26.2581 30.5456 20.9834C30.5456 15.7087 26.2548 11.418 20.9801 11.418Z" fill="#6F6F6F"/>
</svg>
