<svg width="61" height="35" viewBox="0 0 61 35" fill="none" xmlns="http://www.w3.org/2000/svg">
<path d="M51.939 17.0846C51.9641 17.0711 51.9745 17.0592 51.9834 17.0609C53.7786 17.0778 55.5886 16.8227 57.3616 17.2417C59.1643 17.6675 60.4493 19.0667 60.8471 21.2803C61.1103 22.7521 61.0482 24.1867 60.5484 25.5841C60.0412 26.9934 59.1376 27.9244 57.9029 28.357C57.2404 28.5902 56.5276 28.7034 55.8341 28.7372C54.6171 28.7963 53.3926 28.7558 52.1712 28.7558C52.1002 28.7558 52.0292 28.7457 51.936 28.7355V17.0846H51.939ZM54.0847 22.8805C54.0847 23.9856 54.0862 25.089 54.0847 26.1958C54.0847 26.3884 54.0773 26.5523 54.3169 26.5439C54.9779 26.5219 55.6448 26.5675 56.3014 26.4949C57.2744 26.3884 58.0655 25.8849 58.4737 24.7933C58.8404 23.8166 58.8641 22.7909 58.6822 21.7568C58.4293 20.312 57.5746 19.4148 56.3102 19.2999C55.6729 19.2407 55.0296 19.2678 54.3908 19.2306C54.135 19.2171 54.0773 19.3269 54.0817 19.6023C54.0906 20.6973 54.0847 21.7889 54.0847 22.8805ZM39.7968 28.7575C38.9436 28.7575 38.1731 28.7609 37.4027 28.749C37.3288 28.749 37.2386 28.6595 37.1868 28.5834C36.3676 27.36 35.5616 26.1299 34.735 24.915C34.6433 24.7815 34.4555 24.6818 34.3047 24.6666C33.966 24.6294 32.9974 24.648 32.9974 24.648C32.9974 24.648 32.9856 24.7426 32.9886 25.0011C32.9974 26.0944 32.9915 27.186 32.9915 28.2793V28.7321H30.8458V17.0643C30.9301 17.0542 31.0011 17.0373 31.0721 17.0373C32.5509 17.0406 34.0296 17.0288 35.5099 17.0575C36.2507 17.0694 36.9546 17.3009 37.6023 17.7436C38.4792 18.3435 38.9007 19.2711 38.9702 20.41C39.0027 20.9153 38.9643 21.4476 38.8696 21.9427C38.6597 23.0292 38.0356 23.7338 37.1705 24.1698C37.0596 24.2255 36.9487 24.2847 36.8053 24.359C37.7975 25.819 38.7735 27.2519 39.7983 28.7592L39.7968 28.7575ZM32.9886 22.5493C33.6851 22.5493 34.3461 22.551 35.0041 22.5476C35.1772 22.5476 35.3561 22.5493 35.5276 22.5087C36.3868 22.3127 36.8215 21.7179 36.786 20.8071C36.7506 19.9352 36.267 19.359 35.4064 19.2847C34.6744 19.2221 33.9394 19.2525 33.203 19.2356C33.0403 19.2289 32.9856 19.3083 32.9871 19.4891C32.993 19.9453 32.9871 20.4033 32.9871 20.8595V22.5476L32.9886 22.5493ZM50.9364 28.7541C50.2148 28.7541 49.533 28.7625 48.8528 28.7457C48.7774 28.744 48.6709 28.6037 48.6354 28.5023C48.4402 27.9599 48.2583 27.4124 48.0868 26.8616C48.0217 26.6537 47.9315 26.5659 47.7289 26.5659C46.3626 26.576 44.9977 26.576 43.6313 26.5675C43.4213 26.5659 43.3222 26.6436 43.2512 26.8785C43.0782 27.4412 42.8741 27.9937 42.6716 28.5446C42.6375 28.6307 42.5429 28.744 42.4719 28.7473C41.7902 28.7642 41.11 28.7558 40.3809 28.7558C40.6146 28.0782 40.826 27.4479 41.0493 26.8193C42.1629 23.6578 43.2823 20.4996 44.3899 17.3364C44.4683 17.1116 44.5644 17.0271 44.7714 17.0356C45.3821 17.0491 45.9943 17.044 46.6036 17.039C46.7603 17.039 46.8639 17.0677 46.9348 17.2705C48.2465 21.0234 49.5641 24.7747 50.8817 28.526C50.8965 28.5801 50.9068 28.6375 50.9379 28.7575L50.9364 28.7541ZM45.6631 19.5871C45.1248 21.2127 44.5925 22.823 44.0498 24.4689H47.2897C46.7411 22.8264 46.2058 21.211 45.6616 19.5871H45.6631ZM12.0581 28.7625H9.90647V17.0744C10.569 17.0744 11.2181 17.0677 11.8629 17.0829C11.9309 17.0846 12.0093 17.1978 12.061 17.2789C13.4038 19.4536 14.742 21.6334 16.0803 23.8115C16.2415 24.0718 16.4057 24.3286 16.6068 24.648V17.088H18.7392V28.7794C18.087 28.7794 17.4393 28.7879 16.7931 28.7693C16.7192 28.7676 16.6319 28.6358 16.5757 28.5446C15.1383 26.211 13.7039 23.8757 12.2695 21.5405C12.2207 21.4594 12.1601 21.385 12.061 21.2498L12.0581 28.7625ZM4.86682 17.0863H6.99625V28.7524H4.86682V17.0863ZM28.6277 28.0444C28.6277 28.1424 28.5168 28.2962 28.4266 28.3367C27.2524 29.0583 25.2354 29.2729 23.5836 28.7575C21.6553 28.1559 20.3835 26.7585 19.9991 24.4587C19.6604 22.4462 19.8837 20.5216 21.1067 18.9061C21.8431 17.9362 22.8013 17.4006 23.8749 17.1234C25.33 16.7517 26.7393 16.9578 28.1234 17.5594C28.3408 17.654 28.4118 17.7892 28.4029 18.0562C28.3852 18.6932 28.3955 19.332 28.3955 20.0231C28.2787 19.9622 28.2092 19.9301 28.1397 19.8913C26.8813 19.1579 25.5755 18.9298 24.2136 19.4232C22.7865 19.9403 21.9614 21.3952 22.0546 23.1339C22.1063 24.043 22.2631 24.9014 22.791 25.6078C23.3914 26.4121 24.1958 26.7365 25.0757 26.821C25.4912 26.8599 25.7796 26.8582 26.0324 26.8041C26.3755 26.7281 26.5752 26.7264 26.584 26.0961C26.5737 25.5571 26.5722 24.9707 26.5722 24.3827H24.8361V22.1184H26.5752V22.1116C27.0794 22.1116 27.5644 22.1099 28.0421 22.1184H28.3112V22.1201C28.3659 22.1235 28.4207 22.1218 28.4754 22.1235C28.6099 22.1235 28.6262 22.2722 28.6262 22.355C28.6351 24.1275 28.6351 26.2668 28.6247 28.0427L28.6277 28.0444Z" fill="white"/>
<path d="M2.13238 31.8774V12.9504L16.608 4.07402V13.9591H18.7389V0L0 11.4904V34.3124H18.7389V31.8757L2.13238 31.8774Z" fill="#FDC50A"/>
<path d="M30.6727 33.2855C30.6981 33.5079 30.7776 33.6699 30.911 33.7716C31.0476 33.8732 31.2494 33.9241 31.5162 33.9241C31.6465 33.9241 31.7561 33.9098 31.8451 33.8812C31.934 33.8526 32.0055 33.8144 32.0595 33.7668C32.1135 33.7191 32.1516 33.6635 32.1739 33.6C32.1961 33.5333 32.2072 33.4634 32.2072 33.3903C32.2072 33.3363 32.1993 33.2839 32.1834 33.233C32.1675 33.179 32.1389 33.1298 32.0976 33.0853C32.0563 33.0408 32.0007 33.0027 31.9308 32.9709C31.8609 32.936 31.772 32.909 31.664 32.8899L31.2303 32.8089C31.0587 32.7771 30.9062 32.7374 30.7728 32.6898C30.6394 32.6421 30.5266 32.5801 30.4344 32.5039C30.3455 32.4245 30.2772 32.3292 30.2295 32.218C30.185 32.1036 30.1628 31.9654 30.1628 31.8034C30.1628 31.6413 30.1946 31.4999 30.2581 31.3792C30.3248 31.2585 30.4154 31.1584 30.5297 31.079C30.6441 30.9964 30.7791 30.936 30.9348 30.8979C31.0937 30.8566 31.2652 30.8359 31.4495 30.8359C31.6846 30.8359 31.8816 30.8629 32.0404 30.917C32.1993 30.971 32.328 31.0424 32.4265 31.1314C32.5249 31.2172 32.5996 31.3173 32.6504 31.4316C32.7013 31.546 32.7362 31.6652 32.7553 31.7891L32.212 31.8748C32.1675 31.6842 32.0897 31.5428 31.9785 31.4507C31.8705 31.3586 31.6973 31.3125 31.459 31.3125C31.3224 31.3125 31.208 31.3252 31.1159 31.3506C31.027 31.3729 30.9539 31.4062 30.8967 31.4507C30.8427 31.492 30.803 31.5412 30.7776 31.5984C30.7553 31.6524 30.7442 31.7096 30.7442 31.77C30.7442 31.9193 30.7839 32.0305 30.8633 32.1036C30.9459 32.1767 31.0889 32.2338 31.2922 32.2752L31.764 32.3657C32.123 32.4324 32.3867 32.5468 32.5551 32.7088C32.7235 32.8677 32.8077 33.098 32.8077 33.3998C32.8077 33.5428 32.7807 33.6762 32.7267 33.8001C32.6759 33.9209 32.5964 34.0273 32.4884 34.1194C32.3804 34.2084 32.2454 34.2783 32.0833 34.3291C31.9245 34.3831 31.7386 34.4101 31.5258 34.4101C31.0905 34.4101 30.749 34.3196 30.5012 34.1385C30.2533 33.9542 30.1167 33.6699 30.0913 33.2855H30.6727Z" fill="white"/>
<path d="M33.3632 30.9217H33.9398V34.3244H33.3632V30.9217Z" fill="white"/>
<path d="M34.6616 30.9217H35.3621L36.3296 33.6286L37.3256 30.9217H38.0023V34.3244H37.4733V31.851L36.5392 34.3244H36.0818L35.1811 31.8558V34.3244H34.6616V30.9217Z" fill="white"/>
<path d="M38.7245 30.9217H39.9016C40.1589 30.9217 40.3702 30.9503 40.5354 31.0075C40.7038 31.0647 40.8356 31.1409 40.9309 31.2362C41.0263 31.3316 41.093 31.4428 41.1311 31.5698C41.1692 31.6937 41.1883 31.824 41.1883 31.9606C41.1883 32.1068 41.1692 32.2466 41.1311 32.38C41.093 32.5134 41.0247 32.631 40.9262 32.7326C40.8309 32.8311 40.7006 32.9106 40.5354 32.9709C40.3702 33.0281 40.1621 33.0567 39.9111 33.0567H39.2916V34.3244H38.7245V30.9217ZM39.8968 32.5754C40.043 32.5754 40.1621 32.5611 40.2542 32.5325C40.3495 32.5039 40.4242 32.4642 40.4782 32.4134C40.5322 32.3593 40.5688 32.2958 40.5878 32.2227C40.6101 32.1497 40.6212 32.0671 40.6212 31.9749C40.6212 31.8796 40.6101 31.797 40.5878 31.7271C40.5656 31.654 40.5259 31.5937 40.4687 31.546C40.4147 31.4984 40.34 31.4618 40.2447 31.4364C40.1526 31.411 40.035 31.3983 39.892 31.3983H39.2916V32.5754H39.8968Z" fill="white"/>
<path d="M42.3168 30.9217V33.824H44.0039L43.9324 34.3244H41.7402V30.9217H42.3168Z" fill="white"/>
<path d="M44.472 30.9217H46.7357V31.4173H45.0487V32.3228H46.6404V32.8232H45.0487V33.8287H46.8263L46.7595 34.3244H44.472V30.9217Z" fill="white"/>
<path d="M47.3436 30.9217H47.9203V32.299H49.45V30.9217H50.0267V34.3244H49.45V32.8327H47.9203V34.3244H47.3436V30.9217Z" fill="#FF6900"/>
<path d="M52.2324 34.4101C51.9878 34.4101 51.767 34.3704 51.57 34.291C51.3762 34.2084 51.2094 34.0908 51.0696 33.9383C50.9298 33.7858 50.8218 33.6 50.7455 33.3808C50.6725 33.1584 50.6359 32.9074 50.6359 32.6278C50.6359 32.3482 50.674 32.0972 50.7503 31.8748C50.8265 31.6524 50.9346 31.465 51.0744 31.3125C51.2141 31.1568 51.3825 31.0393 51.5795 30.9598C51.7765 30.8772 51.9941 30.8359 52.2324 30.8359C52.4739 30.8359 52.6931 30.8772 52.89 30.9598C53.087 31.0393 53.2538 31.1552 53.3904 31.3077C53.5271 31.4602 53.6319 31.6477 53.705 31.8701C53.7812 32.0893 53.8193 32.3387 53.8193 32.6183C53.8193 32.901 53.7828 33.1536 53.7097 33.376C53.6367 33.5952 53.5318 33.7827 53.3952 33.9383C53.2586 34.0908 53.0918 34.2084 52.8948 34.291C52.701 34.3704 52.4802 34.4101 52.2324 34.4101ZM52.2276 33.9145C52.5549 33.9145 52.8027 33.8001 52.9711 33.5714C53.1395 33.3395 53.2236 33.0234 53.2236 32.623C53.2236 32.4229 53.2014 32.2434 53.1569 32.0845C53.1156 31.9257 53.0537 31.7906 52.9711 31.6795C52.8885 31.5683 52.7852 31.4825 52.6613 31.4221C52.5374 31.3617 52.3928 31.3316 52.2276 31.3316C52.0624 31.3316 51.9179 31.3617 51.794 31.4221C51.6701 31.4825 51.5652 31.5683 51.4794 31.6795C51.3968 31.7906 51.3349 31.9257 51.2936 32.0845C51.2523 32.2434 51.2316 32.4229 51.2316 32.623C51.2316 33.0234 51.3142 33.3395 51.4794 33.5714C51.6478 33.8001 51.8972 33.9145 52.2276 33.9145Z" fill="#FF6900"/>
<path d="M54.4315 30.9217H55.1321L56.0995 33.6286L57.0955 30.9217H57.7722V34.3244H57.2432V31.851L56.3092 34.3244H55.8517L54.951 31.8558V34.3244H54.4315V30.9217Z" fill="#FF6900"/>
<path d="M58.4944 30.9217H60.7581V31.4173H59.071V32.3228H60.6628V32.8232H59.071V33.8287H60.8486L60.7819 34.3244H58.4944V30.9217Z" fill="#FF6900"/>
</svg>
