<svg width="795" height="449" viewBox="0 0 795 449" fill="none" xmlns="http://www.w3.org/2000/svg">
<path d="M676.792 222.627C677.12 222.451 677.255 222.297 677.37 222.319C700.763 222.539 724.348 219.215 747.452 224.675C770.941 230.224 787.686 248.455 792.869 277.299C796.299 296.478 795.49 315.171 788.977 333.381C782.368 351.744 770.594 363.876 754.505 369.513C745.872 372.552 736.584 374.027 727.547 374.467C711.689 375.238 695.734 374.709 679.817 374.709C678.892 374.709 677.968 374.577 676.754 374.445V222.627H676.792ZM704.752 298.151C704.752 312.551 704.771 326.929 704.752 341.351C704.752 343.861 704.655 345.997 707.777 345.887C716.39 345.601 725.081 346.195 733.636 345.249C746.315 343.861 756.624 337.3 761.942 323.076C766.721 310.349 767.029 296.984 764.659 283.509C761.364 264.683 750.227 252.991 733.752 251.494C725.447 250.723 717.065 251.075 708.74 250.591C705.407 250.415 704.655 251.846 704.713 255.435C704.829 269.703 704.752 283.927 704.752 298.151ZM518.573 374.731C507.455 374.731 497.416 374.776 487.376 374.621C486.413 374.621 485.238 373.454 484.563 372.464C473.888 356.522 463.386 340.493 452.615 324.661C451.42 322.922 448.973 321.623 447.008 321.425C442.595 320.94 429.974 321.182 429.974 321.182C429.974 321.182 429.82 322.415 429.858 325.784C429.974 340.03 429.897 354.254 429.897 368.5V374.401H401.937V222.363C403.035 222.231 403.96 222.011 404.885 222.011C424.154 222.055 443.424 221.901 462.712 222.275C472.366 222.429 481.538 225.446 489.978 231.215C501.404 239.031 506.896 251.119 507.802 265.96C508.226 272.543 507.725 279.479 506.492 285.931C503.755 300.089 495.624 309.27 484.351 314.951C482.906 315.678 481.461 316.448 479.592 317.417C492.521 336.441 505.239 355.113 518.593 374.753L518.573 374.731ZM429.858 293.835C438.934 293.835 447.547 293.857 456.122 293.813C458.376 293.813 460.708 293.835 462.943 293.307C474.139 290.753 479.804 283.002 479.341 271.134C478.879 259.773 472.578 252.264 461.363 251.296C451.825 250.481 442.248 250.877 432.652 250.657C430.533 250.569 429.82 251.604 429.839 253.96C429.916 259.905 429.839 265.872 429.839 271.817V293.813L429.858 293.835ZM663.728 374.687C654.324 374.687 645.441 374.798 636.577 374.577C635.595 374.555 634.207 372.728 633.745 371.407C631.201 364.339 628.831 357.205 626.596 350.027C625.748 347.318 624.573 346.173 621.933 346.173C604.128 346.306 586.343 346.306 568.538 346.195C565.802 346.173 564.511 347.186 563.586 350.247C561.331 357.579 558.672 364.779 556.032 371.957C555.589 373.08 554.356 374.555 553.431 374.599C544.548 374.82 535.684 374.709 526.185 374.709C529.229 365.88 531.985 357.667 534.894 349.476C549.404 308.28 563.991 267.127 578.423 225.908C579.444 222.98 580.697 221.879 583.395 221.989C591.353 222.165 599.33 222.099 607.269 222.033C609.312 222.033 610.66 222.407 611.585 225.049C628.677 273.953 645.846 322.834 663.015 371.715C663.207 372.42 663.342 373.168 663.747 374.731L663.728 374.687ZM595.014 255.237C588 276.419 581.063 297.402 573.991 318.848H616.21C609.061 297.446 602.086 276.397 594.995 255.237H595.014ZM157.123 374.798H129.086V222.495C137.719 222.495 146.178 222.407 154.579 222.605C155.466 222.627 156.487 224.103 157.161 225.16C174.658 253.497 192.096 281.901 209.535 310.283C211.635 313.674 213.774 317.021 216.395 321.182V222.671H244.181V375.018C235.683 375.018 227.243 375.128 218.823 374.886C217.859 374.864 216.722 373.146 215.99 371.957C197.26 341.55 178.569 311.12 159.878 280.69C159.242 279.633 158.452 278.665 157.161 276.903L157.123 374.798ZM63.417 222.649H91.1646V374.665H63.417V222.649ZM373.033 365.44C373.033 366.717 371.588 368.72 370.413 369.249C355.113 378.651 328.83 381.447 307.306 374.731C282.179 366.893 265.608 348.684 260.598 318.716C256.185 292.492 259.095 267.413 275.031 246.363C284.627 233.725 297.113 226.745 311.102 223.134C330.063 218.29 348.427 220.976 366.463 228.815C369.295 230.048 370.22 231.809 370.105 235.288C369.873 243.589 370.008 251.912 370.008 260.918C368.486 260.125 367.58 259.707 366.675 259.2C350.277 249.644 333.262 246.672 315.515 253.101C296.92 259.839 286.168 278.797 287.382 301.454C288.057 313.3 290.099 324.485 296.978 333.689C304.801 344.17 315.284 348.397 326.749 349.498C332.164 350.005 335.921 349.983 339.216 349.278C343.687 348.287 346.288 348.265 346.404 340.052C346.269 333.028 346.249 325.388 346.249 317.725H323.627V288.221H346.288V288.133C352.859 288.133 359.179 288.111 365.403 288.221H368.91V288.243C369.623 288.287 370.336 288.265 371.049 288.287C372.802 288.287 373.014 290.224 373.014 291.303C373.13 314.401 373.13 342.276 372.995 365.418L373.033 365.44Z" fill="black"/>
<path d="M27.7861 415.379V168.75L216.411 53.0867V181.895H244.178V0L0 149.726V447.108H244.178V415.357L27.7861 415.379Z" fill="#FDC50A"/>
<path d="M399.68 433.782C400.012 436.68 401.047 438.791 402.785 440.116C404.565 441.441 407.194 442.103 410.672 442.103C412.369 442.103 413.797 441.917 414.957 441.544C416.116 441.172 417.047 440.675 417.751 440.054C418.455 439.433 418.952 438.708 419.241 437.88C419.531 437.011 419.676 436.1 419.676 435.148C419.676 434.444 419.573 433.761 419.366 433.099C419.159 432.395 418.786 431.753 418.248 431.174C417.71 430.594 416.985 430.097 416.074 429.683C415.164 429.228 414.004 428.876 412.597 428.628L406.946 427.572C404.71 427.158 402.723 426.641 400.984 426.02C399.246 425.399 397.776 424.591 396.575 423.598C395.416 422.563 394.526 421.321 393.905 419.872C393.326 418.381 393.036 416.581 393.036 414.469C393.036 412.358 393.45 410.516 394.278 408.942C395.147 407.369 396.327 406.065 397.817 405.03C399.308 403.954 401.067 403.167 403.096 402.671C405.166 402.132 407.401 401.863 409.802 401.863C412.866 401.863 415.433 402.215 417.503 402.919C419.573 403.623 421.249 404.554 422.533 405.713C423.816 406.831 424.789 408.135 425.451 409.626C426.114 411.116 426.569 412.668 426.817 414.283L419.738 415.401C419.159 412.917 418.144 411.075 416.695 409.874C415.288 408.673 413.032 408.073 409.927 408.073C408.146 408.073 406.656 408.239 405.456 408.57C404.296 408.86 403.344 409.294 402.599 409.874C401.895 410.412 401.378 411.054 401.047 411.799C400.757 412.503 400.612 413.248 400.612 414.035C400.612 415.98 401.129 417.429 402.164 418.381C403.241 419.334 405.104 420.079 407.753 420.617L413.901 421.797C418.579 422.666 422.015 424.157 424.209 426.268C426.403 428.338 427.5 431.339 427.5 435.272C427.5 437.135 427.149 438.874 426.445 440.488C425.782 442.062 424.747 443.448 423.34 444.649C421.932 445.808 420.173 446.719 418.061 447.381C415.992 448.085 413.57 448.437 410.796 448.437C405.124 448.437 400.674 447.257 397.445 444.897C394.216 442.496 392.436 438.791 392.104 433.782H399.68Z" fill="black"/>
<path d="M434.738 402.981H442.252V447.319H434.738V402.981Z" fill="black"/>
<path d="M451.658 402.981H460.786L473.392 438.253L486.371 402.981H495.189V447.319H488.296V415.09L476.124 447.319H470.163L458.426 415.152V447.319H451.658V402.981Z" fill="black"/>
<path d="M504.599 402.981H519.937C523.291 402.981 526.044 403.354 528.196 404.099C530.39 404.844 532.109 405.838 533.35 407.08C534.592 408.322 535.462 409.77 535.959 411.426C536.455 413.041 536.704 414.738 536.704 416.518C536.704 418.423 536.455 420.244 535.959 421.983C535.462 423.722 534.572 425.254 533.288 426.578C532.046 427.862 530.349 428.897 528.196 429.683C526.044 430.429 523.332 430.801 520.061 430.801H511.989V447.319H504.599V402.981ZM519.875 424.529C521.779 424.529 523.332 424.343 524.533 423.97C525.774 423.598 526.747 423.08 527.451 422.418C528.155 421.714 528.631 420.886 528.879 419.934C529.169 418.982 529.314 417.905 529.314 416.705C529.314 415.463 529.169 414.386 528.879 413.476C528.59 412.524 528.072 411.737 527.327 411.116C526.623 410.495 525.65 410.019 524.408 409.688C523.208 409.356 521.676 409.191 519.813 409.191H511.989V424.529H519.875Z" fill="black"/>
<path d="M551.409 402.981V440.799H573.392L572.461 447.319H543.896V402.981H551.409Z" fill="black"/>
<path d="M579.493 402.981H608.99V409.439H587.007V421.238H607.748V427.758H587.007V440.861H610.17L609.3 447.319H579.493V402.981Z" fill="black"/>
<path d="M616.912 402.981H624.426V420.927H644.36V402.981H651.873V447.319H644.36V427.882H624.426V447.319H616.912V402.981Z" fill="#FF6900"/>
<path d="M680.615 448.437C677.428 448.437 674.55 447.92 671.984 446.885C669.458 445.808 667.285 444.276 665.463 442.289C663.642 440.302 662.234 437.88 661.241 435.024C660.288 432.126 659.812 428.855 659.812 425.212C659.812 421.569 660.309 418.299 661.303 415.401C662.296 412.503 663.704 410.06 665.525 408.073C667.347 406.045 669.541 404.513 672.108 403.478C674.675 402.401 677.51 401.863 680.615 401.863C683.762 401.863 686.618 402.401 689.185 403.478C691.752 404.513 693.925 406.024 695.705 408.011C697.485 409.998 698.852 412.441 699.804 415.339C700.797 418.195 701.294 421.445 701.294 425.088C701.294 428.773 700.818 432.064 699.866 434.962C698.914 437.818 697.547 440.261 695.767 442.289C693.987 444.276 691.814 445.808 689.247 446.885C686.722 447.92 683.844 448.437 680.615 448.437ZM680.553 441.979C684.817 441.979 688.046 440.488 690.241 437.508C692.435 434.486 693.532 430.366 693.532 425.15C693.532 422.542 693.242 420.203 692.662 418.133C692.124 416.063 691.317 414.304 690.241 412.855C689.164 411.406 687.819 410.288 686.204 409.501C684.59 408.715 682.706 408.322 680.553 408.322C678.4 408.322 676.517 408.715 674.902 409.501C673.288 410.288 671.922 411.406 670.804 412.855C669.727 414.304 668.92 416.063 668.382 418.133C667.844 420.203 667.575 422.542 667.575 425.15C667.575 430.366 668.651 434.486 670.804 437.508C672.998 440.488 676.248 441.979 680.553 441.979Z" fill="#FF6900"/>
<path d="M709.271 402.981H718.4L731.006 438.253L743.984 402.981H752.802V447.319H745.909V415.09L733.738 447.319H727.777L716.04 415.152V447.319H709.271V402.981Z" fill="#FF6900"/>
<path d="M762.213 402.981H791.709V409.439H769.726V421.238H790.467V427.758H769.726V440.861H792.889L792.02 447.319H762.213V402.981Z" fill="#FF6900"/>
</svg>
