<svg width="51" height="51" viewBox="0 0 51 51" fill="none" xmlns="http://www.w3.org/2000/svg">
<path d="M42.3194 27.6884C41.4949 26.6472 41.7308 26.1839 42.3194 25.2532C42.33 25.2425 49.1364 15.8373 49.8376 12.6477L49.8419 12.6455C50.1904 11.4832 49.8419 10.6289 48.1567 10.6289H42.5807C41.1613 10.6289 40.5067 11.362 40.1561 12.1823C40.1561 12.1823 37.3171 18.978 33.3009 23.3832C32.0046 24.656 31.4054 25.064 30.6978 25.064C30.3493 25.064 29.8074 24.656 29.8074 23.4937V12.6455C29.8074 11.2515 29.41 10.6289 28.2349 10.6289H19.4671C18.5767 10.6289 18.0476 11.2792 18.0476 11.8848C18.0476 13.2065 20.0557 13.5104 20.264 17.2292V25.2978C20.264 27.0658 19.9431 27.3909 19.2313 27.3909C17.3358 27.3909 12.7351 20.5675 10.0087 12.7582C9.45837 11.243 8.92075 10.631 7.49063 10.631H1.9125C0.320875 10.631 0 11.3642 0 12.1844C0 13.6337 1.8955 20.8395 8.8145 30.3595C13.4257 36.8578 19.9198 40.3789 25.8273 40.3789C29.3781 40.3789 29.8116 39.5969 29.8116 38.2518C29.8116 32.0425 29.4907 31.456 31.2694 31.456C32.0939 31.456 33.5134 31.864 36.8284 34.9984C40.6172 38.715 41.2399 40.3789 43.3606 40.3789H48.9366C50.5261 40.3789 51.3315 39.5969 50.8682 38.0542C49.8079 34.8093 42.6424 28.1347 42.3194 27.6884Z" fill="#6F6F6F"/>
</svg>
