<svg width="48" height="48" viewBox="0 0 48 48" fill="none" xmlns="http://www.w3.org/2000/svg">
<path d="M47.1706 12.6553C46.5829 10.1026 44.4949 8.21923 41.9814 7.93829C36.0291 7.27385 30.0045 7.27038 24.0077 7.27385C18.0098 7.27038 11.9843 7.27385 6.03202 7.93829C3.51992 8.21923 1.43343 10.1026 0.845791 12.6553C0.00941422 16.2907 0 20.259 0 24.0019C0 27.7448 0 31.7126 0.836377 35.3475C1.42303 37.8997 3.51001 39.783 6.0236 40.0645C11.9753 40.7294 18.0004 40.7329 23.9983 40.7294C29.9971 40.7329 36.0207 40.7294 41.9719 40.0645C44.484 39.7835 46.5725 37.9002 47.1602 35.3475C47.997 31.7121 48 27.7443 48 24.0019C48 20.259 48.0069 16.2907 47.1706 12.6553ZM17.8057 31.452C17.8057 26.1424 17.8057 20.8883 17.8057 15.5782C22.8928 18.2325 27.9463 20.8689 33.0656 23.5396C27.9621 26.1865 22.9062 28.8071 17.8057 31.452Z" fill="#6F6F6F"/>
</svg>
