<svg width="287" height="208" viewBox="0 0 287 208" fill="none" xmlns="http://www.w3.org/2000/svg">
<path d="M37.5137 110.377C39.5083 105.683 41.541 101.007 43.4881 96.2934C50.9158 78.2753 58.6378 60.4472 71.5365 45.432C76.6276 39.502 83.5423 38.0955 90.0771 42.2009C91.3404 42.9992 92.7746 44.6243 92.8886 45.9642C93.392 51.9608 94.2563 58.0999 93.4965 63.9919C92.0717 75.0252 88.7094 85.8494 87.769 96.8922C85.9929 117.714 85.309 138.63 84.3401 159.519C84.2262 161.999 85.1095 164.527 85.5274 167.026C85.9549 166.998 86.3823 166.979 86.8097 166.95C88.0635 161.324 89.5167 155.727 90.5425 150.053C96.061 119.633 104.049 89.8788 114.63 60.8558C117.109 54.061 120.453 47.5228 123.957 41.1746C125.411 38.5422 127.966 35.8623 130.654 34.7409C133.418 33.591 137.996 33.0303 139.886 34.5508C142.061 36.3184 143.438 40.8705 142.925 43.826C139.468 63.9919 135.108 83.9962 131.765 104.172C130.625 111.052 131.585 118.274 132.107 125.706C133.285 122.342 134.52 118.997 135.621 115.604C139.202 104.523 142.28 93.2429 146.478 82.4092C148.415 77.401 152.291 73.0675 155.71 68.7625C157.097 67.0139 159.471 65.826 161.628 64.9422C168.704 62.0247 174.108 66.0351 173.51 73.6472C173.025 79.7578 172.38 85.8589 171.838 91.9695C171.04 100.988 170.271 109.997 170.594 119.263C173.253 114.948 175.457 110.244 178.715 106.443C181.574 103.117 185.231 99.7811 189.23 98.2416C201.026 93.6801 206.117 100.123 205.908 111.936C205.757 120.052 204.455 128.148 204.721 136.73C206.174 133.518 207.903 130.41 209.014 127.084C212.358 117.115 217.971 108.591 225.304 101.216C229.445 97.0537 235.125 96.8922 240.33 97.871C241.973 98.1846 243.921 102.176 244.016 104.552C244.424 114.635 244.186 124.746 244.186 136.226C246.637 132.786 248.318 129.944 250.455 127.512C253.96 123.52 257.399 119.329 261.53 116.07C265.634 112.829 270.734 112.772 275.426 115.376C279.606 117.685 279.425 122.009 280.251 126.067C281.961 134.478 281.477 143.287 285.399 151.336C288.819 158.359 286.72 163.111 279.482 166.503C268.777 156.364 262.737 143.924 260.732 128.633C259.792 129.811 258.491 130.857 257.959 132.206C255.556 138.364 253.599 144.713 251.044 150.804C248.879 155.974 246.485 161.125 243.484 165.829C241.147 169.478 236.711 169.887 232.789 169.164C227.698 168.224 223.623 165.344 222.321 160.013C221.429 156.354 220.821 152.505 220.868 148.751C220.973 141.329 221.647 133.917 222.037 126.495C222.141 124.509 222.056 122.513 221.096 120.061C220.336 121.059 219.216 121.962 218.883 123.083C216.148 132.244 213.536 141.443 210.943 150.643C209.157 156.981 207.951 163.548 205.548 169.64C203.838 173.983 200.314 177.138 194.71 175.874C189.438 174.686 185.497 170.856 184.927 165.021C184.072 156.211 183.635 147.364 183.16 138.526C182.97 135.01 183.132 131.484 183.132 127.958C182.638 127.92 182.144 127.873 181.659 127.835C180.425 132.444 179.047 137.034 177.974 141.681C175.884 150.69 173.947 159.747 171.952 168.775C170.746 174.239 166.13 178.278 161.419 177.993C157.838 177.774 153.962 173.108 153.127 168.138C149.413 145.891 151.369 123.682 153.469 101.463C153.706 98.9449 153.81 96.417 153.905 93.8891C153.934 93.0148 153.744 92.1215 152.756 91.0667C150.619 97.89 148.017 104.609 146.44 111.556C144.084 121.981 141.881 132.501 140.665 143.106C139.506 153.275 139.326 163.595 139.411 173.84C139.459 179.951 135.726 184.151 132.354 187.601C126.978 193.103 117.964 188.732 116.853 180.331C115.599 170.789 114.659 161.144 114.45 151.526C114.079 134.012 114.345 116.488 114.345 99.9712C112.939 104.599 110.707 110.387 109.463 116.383C106.129 132.434 103.194 148.571 100.136 164.679C99.2144 169.526 98.5021 174.41 97.5048 179.238C96.3745 184.721 94.4083 189.663 89.5832 193.255C85.271 196.467 80.3224 196.477 77.9383 191.621C74.9179 185.434 72.2963 178.858 70.7576 172.167C64.7547 146.1 65.0112 119.757 68.2406 93.3474C68.497 91.2282 68.535 89.071 68.6775 86.9327C68.2121 86.7807 67.7372 86.6381 67.2718 86.4861C65.7235 89.8978 64.1943 93.3189 62.6271 96.7211C59.9011 102.642 56.7192 108.391 54.5346 114.502C52.5589 120.033 51.5901 125.934 50.3364 131.703C49.5195 135.485 48.8261 139.315 48.3417 143.154C46.4611 158.008 44.9793 172.918 42.7282 187.705C41.9589 192.723 40.0972 197.931 37.4092 202.226C31.9952 210.884 15.8481 209.534 11.8779 199.993C8.74344 192.466 6.40687 184.417 5.01063 176.377C1.11634 153.893 -0.792816 131.151 0.308983 108.344C1.20182 89.3276 3.37692 70.3306 4.97263 51.3051C5.6755 42.8377 5.86547 34.3037 7.09075 25.9124C8.18305 18.4333 10.1112 11.0398 12.2578 3.78879C12.7612 2.09721 15.7532 -0.136053 17.4154 0.00649573C27.1036 0.842782 36.8298 1.89764 46.3661 3.76028C51.4856 4.75812 54.2117 12.9689 53.3093 19.5927C51.4382 33.4009 50.2794 47.3232 48.1328 61.0839C46.841 69.4277 44.8274 77.7716 42.0539 85.7258C40.3347 90.639 37.1053 94.925 38.758 100.579C38.9859 101.359 37.8176 102.48 37.5232 103.506C36.9153 105.616 36.4689 107.764 35.9465 109.893C36.4784 110.054 37.0008 110.216 37.5137 110.377Z" fill="#959595"/>
</svg>
