<svg width="185" height="135" viewBox="0 0 185 135" fill="none" xmlns="http://www.w3.org/2000/svg">
<path d="M111.267 129.004C112.026 123.351 116.412 121.704 120.389 120.383C127.773 117.924 135.309 115.853 142.891 114.122C153.326 111.739 163.973 110.859 174.682 111.36C179.121 111.565 180.912 115.352 181.982 118.653C183.508 123.32 183.925 128.344 184.95 133.968C160.042 132.291 135.81 130.659 111.267 129.004Z" fill="#8CAD78" fill-opacity="0.85"/>
<path d="M85.4711 87.53C93.3107 82.2404 100.945 78.461 109.901 78.1802C116.943 77.9601 123.994 77.8994 131.036 77.5731C136.166 77.3302 141.282 76.7838 146.404 76.3436C149.69 76.0628 153.242 75.7213 155.063 79.0909C158.585 85.6024 158.365 89.7916 154.798 93.3281C154.13 93.9883 153.083 94.7321 152.255 94.679C142.473 94.1022 132.668 93.6696 122.931 92.6071C112.276 91.446 101.689 89.6701 91.0719 88.1751C89.4554 87.9626 87.8238 87.8032 85.4711 87.53Z" fill="#8CAD78" fill-opacity="0.85"/>
<path d="M84.4241 135C75.8408 134.651 67.7887 134.522 59.7594 133.938C54.2725 133.535 48.6262 133.285 44.4977 128.58C41.0371 124.633 41.796 122.045 45.0138 118.319C48.2695 114.547 52.0413 113.098 56.4126 112.847C64.1308 112.407 71.8793 112.407 79.6202 112.445C80.8041 112.453 82.2839 113.417 83.1112 114.38C87.4294 119.442 87.8771 129.407 84.4241 135Z" fill="#8CAD78" fill-opacity="0.85"/>
<path d="M145.471 54.1455C136.182 54.1455 127.234 54.7299 118.4 53.9786C109.771 53.2424 101.249 51.2162 92.7187 49.5693C91.4665 49.3265 89.334 47.6037 89.4326 47.3761C90.2371 45.5698 91.1326 43.0123 92.6504 42.4659C96.9458 40.9025 101.492 39.8021 106.038 39.2177C111.821 38.4664 117.695 38.1704 123.531 38.0946C131.628 37.9883 138.337 40.6293 142.01 48.5979C142.89 50.5179 144.249 52.2179 145.471 54.1455Z" fill="#8CAD78" fill-opacity="0.85"/>
<path d="M76.6605 30.3383C76.6833 32.4557 76.3646 33.9052 73.678 33.5258C64.1992 32.1977 54.6824 31.0745 45.2264 29.6022C41.6443 29.0406 38.0471 28.0313 34.7306 26.5893C33.6302 26.1112 32.4159 23.1135 32.9244 22.2104C35.1404 18.3096 38.6239 15.8204 43.2608 15.0463C46.9415 14.4315 50.6299 13.6878 54.1967 12.595C59.3649 11.0089 64.5331 11.5173 69.2156 13.445C71.4848 14.3784 73.3289 17.49 74.3535 20.0247C75.6588 23.2501 75.932 26.8853 76.6605 30.3383Z" fill="#8CAD78" fill-opacity="0.85"/>
<path d="M29.5246 83.3027C20.5163 81.6711 11.4928 80.0925 2.49972 78.3698C-0.285489 77.8386 -0.460038 75.0382 0.602439 73.6646C4.22245 68.9972 8.34335 64.717 12.3428 60.3456C12.8057 59.8372 13.6481 59.4274 14.3388 59.397C18.4065 59.2452 22.5122 58.9568 26.5497 59.2983C28.0068 59.4274 29.904 60.9072 30.5719 62.2657C31.9455 65.0585 32.4768 68.2535 33.6455 71.1601C34.5638 73.4445 35.9298 75.5542 37.0606 77.7551C37.4856 78.5747 38.3583 79.7738 38.0927 80.2064C37.5084 81.1322 36.3852 82.0961 35.3454 82.2858C33.5165 82.6197 31.5812 82.3769 29.6916 82.3769C29.6233 82.6956 29.5777 82.9992 29.5246 83.3027Z" fill="#8CAD78" fill-opacity="0.85"/>
<path d="M101.538 9.57448C103.306 3.53353 108.277 2.73668 112.307 2.10678C120.723 0.786272 129.306 0.33092 137.837 0.027354C145.008 -0.230677 146.101 1.24162 145.76 8.39057C145.714 9.39234 145.555 10.3865 145.38 11.9802C130.779 11.1758 116.276 10.3865 101.538 9.57448Z" fill="#8CAD78" fill-opacity="0.85"/>
</svg>
