<svg width="368" height="178" viewBox="0 0 368 178" fill="none" xmlns="http://www.w3.org/2000/svg">
<path d="M362.827 50.4307C369.613 66.7313 368.19 85.6147 360.412 101.312C353.138 115.992 340.686 127.801 326.329 135.495C295.264 152.138 257.381 149.587 225.997 135.279C210.145 128.053 195.659 118.016 182.723 106.393C170.08 95.0323 157.544 81.8697 151.836 65.5142C146.434 50.0497 148.162 32.1026 160.156 20.1894C165.686 14.6978 172.617 10.8236 179.785 7.89536C187.665 4.67656 196.014 2.38111 204.428 1.07034C220.741 -1.46725 238.369 0.0985661 251.99 10.2231C264.461 19.4921 272.132 34.1914 274.938 49.2749C278.46 68.2067 275.015 87.823 269.601 106.054C265.146 121.051 258.783 135.84 248.855 148.067C243.977 154.075 238.204 159.386 231.618 163.476C224.028 168.19 215.482 171.17 206.772 173.02C190.439 176.484 173.389 176.245 157.092 172.697C140.862 169.165 125.314 162.327 111.867 152.561C98.698 142.998 86.8817 130.442 81.0188 115.033C78.3585 108.043 75.7338 98.4996 80.6185 91.8586C84.286 86.8706 91.1175 85.5922 96.8804 86.89C103.973 88.4881 109.019 94.1896 112.087 100.511C115.77 108.114 117.51 116.98 117.875 125.377C118.25 133.939 116.758 142.753 112.242 150.143C108.529 156.219 102.931 161.29 96.1217 163.592C88.3507 166.22 80.0083 164.596 72.7991 161.087C65.1798 157.374 58.0158 151.695 52.7824 145.019C48.1819 139.153 45.0179 131.927 46.7387 124.389C46.7936 124.153 47.0971 123.956 47.336 124.05C53.3216 126.416 54.655 133.929 55.3168 139.592C56.0529 145.884 55.6978 152.406 53.9447 158.511C52.2982 164.245 49.286 169.743 44.5014 173.436C39.0678 177.627 32.0878 178.795 25.4307 177.498C16.0197 175.661 7.74179 169.859 0.206512 164.225C-0.287445 163.857 0.196838 163.014 0.694031 163.389C11.8517 171.731 27.71 182.385 41.7443 174.137C51.9624 168.132 55.0456 154.885 54.6647 143.847C54.4548 137.768 53.7026 127.608 47.0713 124.986C47.2714 124.873 47.4684 124.76 47.6685 124.647C45.6959 133.283 50.4838 141.419 56.2014 147.518C61.8577 153.555 69.0024 158.834 76.7766 161.765C84.3958 164.638 92.7769 164.826 100.028 160.809C106.63 157.155 111.622 150.821 114.266 143.811C117.523 135.166 117.51 125.612 115.928 116.611C114.566 108.876 112.306 100.708 107.176 94.5673C102.614 89.108 95.5244 86.0667 88.4475 87.8811C85.119 88.7335 82.1714 90.7384 80.5281 93.8087C78.3908 97.8023 78.6782 102.629 79.5983 106.92C82.9882 122.704 93.5292 136.137 105.594 146.407C117.717 156.725 132.026 164.403 147.219 169.103C162.364 173.788 178.432 175.522 194.219 173.982C210.717 172.374 227.147 167.354 239.751 156.209C251.15 146.13 258.905 132.538 264.355 118.484C270.554 102.5 274.889 85.0982 275.348 67.9194C275.781 51.6575 272.048 35.1438 262.24 21.9135C257.627 15.6889 251.709 10.4459 244.806 6.89776C237.394 3.08169 229.103 1.29311 220.816 0.9864C212.576 0.679694 204.334 1.75155 196.327 3.65959C188.663 5.48691 181.044 7.98899 174.015 11.5855C167.158 15.0949 160.756 19.8214 156.339 26.2138C151.707 32.9194 149.702 41.0196 149.828 49.1102C150.096 66.3956 159.762 81.4468 171.165 93.7312C182.284 105.706 195.052 116.36 208.928 124.996C237.255 142.62 271.722 151.224 304.604 142.846C336.202 134.801 364.98 109.134 366.191 74.8413C366.482 66.5699 365.077 58.334 361.894 50.689C361.652 50.1143 362.591 49.8625 362.827 50.4307Z" fill="#222222"/>
</svg>
