<svg width="244" height="130" viewBox="0 0 244 130" fill="none" xmlns="http://www.w3.org/2000/svg">
<path d="M169.972 1.69996C169.648 2.72945 169.378 3.59515 168.966 4.90541C170.748 4.66559 172.148 4.48426 173.935 4.24443C173.506 5.72432 173.218 6.71872 172.924 7.74821C175.17 10.1581 176.141 7.05798 177.811 6.54908C179.27 7.86519 174.4 13.2934 180.54 11.2403C180.793 15.7911 180.981 20.3126 181.346 24.8225C181.422 25.7584 182.122 26.6534 182.557 27.5542C183.034 28.5369 183.545 29.4962 184.016 30.4788C184.292 31.0579 184.498 32.1635 184.757 32.1693C185.427 32.1869 186.304 31.9002 186.745 31.4206C187.909 30.1279 189.021 28.7474 189.92 27.2617C193.626 21.114 198.56 16.1537 204.794 12.6792C206.629 11.6556 209.217 11.9013 211.469 11.7492C212.292 11.6965 213.139 12.2815 213.998 12.4102C216.692 12.8079 218.579 13.7497 216.997 17.7682C218.973 17.5225 220.45 17.54 221.796 17.1306C223.796 16.5223 225.037 16.6509 225.937 18.903C226.36 19.9675 227.954 20.5876 229.06 21.348C229.342 21.541 230.018 21.3714 230.13 21.5703C231.412 23.8925 233.518 26.203 233.676 28.6246C234.106 35.3221 234.247 42.1015 230.336 48.2375C229.33 49.8169 229.365 52.1742 229.283 54.1863C229.142 57.5614 229.271 60.9482 229.324 64.3291C229.383 67.8739 230.871 69.3947 234.811 69.5526C234.476 70.7927 234.506 72.2609 233.788 73.0154C231.836 75.0627 232.465 77.2153 233.271 79.2509C234.511 82.3861 236.176 85.3518 237.481 88.4636C237.852 89.3469 237.887 90.5636 237.605 91.4819C236.834 94.0088 237.599 94.9798 240.357 94.623C242.598 94.3306 243.557 95.5004 243.057 97.8168C242.951 98.3081 242.986 98.8872 243.145 99.3669C245.068 105.111 243.774 108.895 238.987 112.82C235.352 115.798 231.794 118.781 230.589 123.858C230.059 126.081 227.748 127.888 226.16 130C224.231 124.063 222.355 118.272 220.461 112.487C220.314 112.037 220.132 111.504 219.785 111.218C216.327 108.346 215.539 104.239 214.192 100.256C212.204 94.389 209.622 88.7093 207.141 83.0179C206.305 81.0993 204.929 80.4851 202.965 82.1288C201.589 83.2811 199.848 84.0006 198.419 84.8312C197.442 85.1119 196.143 85.0769 195.719 85.6676C193.761 88.3993 189.362 88.5806 188.609 92.4939C188.58 92.6401 188.274 92.8858 188.191 92.8507C184.339 91.2713 180.616 96.6995 176.435 92.7922C174.894 91.3532 171.848 91.5112 169.483 90.9555C166.072 90.1541 163.561 87.9898 162.485 84.8838C158.274 72.7639 154.828 60.4218 153.093 47.6701C152.552 43.7043 152.616 43.6984 150.834 42.277C150.052 45.5351 149.417 48.5885 148.57 51.5834C147.476 55.4498 146.247 59.2811 145.012 63.1066C143.083 69.0847 140.783 74.9691 139.254 81.0408C138.39 84.4627 136.578 86.896 134.338 89.3586C132.955 90.8794 131.997 92.7863 130.903 94.5528C130.191 95.7052 129.691 97.0037 128.874 98.0683C127.604 99.7237 126.022 100.215 123.975 99.1153C123.181 98.6883 121.858 98.583 121.076 98.9516C119.546 99.671 118.229 100.829 116.829 101.818C112.936 104.567 107.319 104.514 103.65 101.186C101.232 98.9925 99.0388 96.4012 97.3215 93.6345C94.822 89.6043 92.8754 85.2406 90.6229 81.0642C90.2112 80.2979 89.429 79.7305 88.8174 79.0754C88.5762 79.9645 88.2763 80.8419 88.1116 81.7427C87.7235 83.9011 87.2353 86.0595 87.0824 88.2355C86.7178 93.3771 85.2945 98.1209 82.0364 102.169C80.8307 103.666 79.2899 104.9 78.343 105.825C76.8609 106.901 75.9552 107.737 74.8966 108.299C71.1209 110.305 68.6744 113.914 63.4636 114.376C57.1061 114.938 51.519 113.318 45.7437 111.797C41.6504 110.715 39.9684 107.147 38.3393 103.637C32.3817 90.856 29.6293 77.2679 27.9826 63.3874C27.7062 61.0769 27.3709 58.7605 26.9004 56.4793C26.7475 55.7364 26.1653 54.6133 25.6419 54.5315C24.9655 54.4262 23.7305 55.0169 23.4835 55.6136C22.8836 57.0759 22.6013 58.702 22.3955 60.2872C22.1426 62.2351 22.6484 64.4637 21.8603 66.1132C19.9313 70.1551 18.7903 74.1268 19.9901 78.5899C20.1665 79.2509 19.8195 80.4617 19.2961 80.8244C14.4383 84.1877 9.84507 88.06 3.9345 89.5282C2.71122 89.8324 1.31738 89.4346 0 89.3586C0.194078 88.3817 0.382276 87.4108 0.588116 86.4339C1.95843 79.8768 3.20523 73.2904 4.72846 66.7683C6.97506 57.152 10.4685 47.9802 15.1675 39.2704C15.3969 38.8434 15.6792 38.4164 15.7968 37.9543C17.8905 29.6424 24.3598 27.1038 31.8347 25.5771C38.0629 24.3078 43.6912 25.7877 48.8842 28.8644C50.7486 29.97 51.8013 32.3916 53.3304 34.123C56.2122 37.3928 58.9057 40.686 58.747 45.4298C58.7234 46.2312 59.5056 47.0618 60.2172 48.4832C61.023 47.0911 61.6934 46.3482 61.9051 45.4942C63.6518 38.3404 67.6746 32.5086 72.2619 26.8873C73.8321 24.9629 74.4438 22.2663 75.4965 19.9266C75.8435 19.1603 76.1317 18.3531 76.5904 17.6512C77.6961 15.9432 79.0546 14.3814 79.9838 12.5915C81.3247 10.0119 83.2832 9.16375 86.1355 9.06431C89.4878 8.95317 92.8989 8.55542 96.1394 7.72481C100.791 6.53154 101.227 6.66607 101.232 11.3865C101.232 11.7258 101.456 12.065 101.491 12.1645C103.356 11.4567 105.032 10.5325 106.808 10.2283C108.713 9.90077 111.148 9.47962 112.565 10.357C114.059 11.2812 115.124 13.5976 115.483 15.4752C116.259 19.5405 116.406 23.717 116.918 27.8349C117.823 35.1466 118.782 42.4525 119.782 49.7525C119.864 50.3316 120.417 50.8463 120.752 51.3962C121.352 51.0043 122.181 50.7469 122.511 50.1971C126.651 43.2831 130.591 36.2522 134.832 29.4026C139.778 21.424 144.7 13.4045 150.205 5.81206C152.034 3.28514 155.498 1.79355 158.45 0.290261C159.65 -0.318073 161.503 0.184973 163.026 0.401399C165.255 0.711416 167.466 1.22031 169.972 1.69996Z" fill="#C8A0CC"/>
</svg>
