<svg width="115" height="129" viewBox="0 0 115 129" fill="none" xmlns="http://www.w3.org/2000/svg">
<path d="M22.1648 95.8701C20.5032 103.354 19.0641 110.906 16.3565 118.108C15.4145 120.61 13.3819 126.847 10.0216 127.092C6.73538 127.329 5.32596 118.219 4.77703 115.969C3.71625 111.648 2.94478 107.26 2.44035 102.835C0.689703 87.4577 2.37359 71.7986 7.05436 57.0677C9.99931 47.794 14.1311 36.4859 22.5728 30.8058C27.7358 27.331 34.6123 27.1751 39.5601 31.1993C45.1013 35.6988 49.7079 42.5372 53.8027 48.2989C58.3277 54.662 62.2073 61.5003 64.5217 68.992C66.7397 76.1867 68.3717 85.7203 64.3585 92.6329C60.2193 99.7608 55.5607 86.6336 54.7448 83.3889C52.7419 75.4294 52.9496 66.8759 55.0489 58.961C56.9182 51.9148 60.3676 44.1706 66.7545 40.1092C74.4322 35.2162 81.8947 40.2132 87.4804 45.8115C93.081 51.4322 97.1609 58.5601 99.1786 66.2374C101.449 74.9022 100.395 83.6488 99.5941 92.4324C98.2959 106.569 99.9501 120.447 112.709 128.844C113.659 129.468 114.549 127.938 113.599 127.315C105.87 122.228 101.649 114.187 100.959 105.032C100.217 95.2836 102.71 85.6089 102.354 75.8526C101.812 61.1736 93.5484 44.6458 79.9734 37.8446C64.6107 30.1599 54.7077 50.3184 52.4897 62.3022C51.0209 70.2171 51.2286 78.7929 53.8027 86.4702C54.908 89.7669 57.3411 96.6572 61.7325 96.724C67.2293 96.8057 68.342 86.5445 68.4384 82.8246C68.6535 74.8948 66.1833 66.9131 62.7933 59.8223C58.7579 51.395 52.9719 43.9479 47.0523 36.7829C42.7202 31.5409 38.4993 26.5885 31.2222 26.3954C19.4053 26.0762 12.4324 38.4757 8.50087 47.9053C2.20298 63.0224 -0.675211 79.721 0.133352 96.078C0.608105 105.619 1.81724 116.556 5.72653 125.369C7.68489 129.78 11.5497 129.587 14.2647 126.089C17.536 121.872 19.0715 116.088 20.4661 111.039C21.8014 106.183 22.7805 101.261 23.871 96.3453C24.1158 95.2316 22.4171 94.7638 22.1648 95.8701Z" fill="#222222"/>
<path d="M51.6959 16.758C51.4882 23.9378 46.7778 31.8156 38.7737 31.7414C30.9255 31.6671 25.8515 24.0418 25.8515 16.758C25.8515 9.71175 30.6807 2.06412 38.299 1.7894C46.5181 1.4924 51.4734 9.32566 51.6959 16.758C51.7256 17.894 53.4985 17.9014 53.4614 16.758C53.2166 8.54605 47.7644 0 38.7737 0C29.9611 0 24.0861 8.53862 24.0861 16.758C24.0861 24.9699 29.9611 33.5159 38.7737 33.5159C47.7644 33.5159 53.224 24.9699 53.4614 16.758C53.4911 15.6145 51.7256 15.6145 51.6959 16.758Z" fill="#222222"/>
<path d="M95.6772 27.2716C95.4695 34.4515 90.7591 42.3293 82.755 42.2551C74.9068 42.1808 69.8329 34.5555 69.8329 27.2716C69.8329 20.2254 74.662 12.5778 82.2803 12.3031C90.4995 12.0061 95.4621 19.8393 95.6772 27.2716C95.7069 28.4076 97.4798 28.4151 97.4427 27.2716C97.2053 19.0671 91.7457 10.5137 82.755 10.5137C73.9424 10.5137 68.0674 19.0523 68.0674 27.2716C68.0674 35.4836 73.9424 44.0296 82.755 44.0296C91.7457 44.0296 97.2053 35.4836 97.4427 27.2716C97.4798 26.1356 95.7143 26.1356 95.6772 27.2716Z" fill="#222222"/>
</svg>
