<svg width="303" height="136" viewBox="0 0 303 136" fill="none" xmlns="http://www.w3.org/2000/svg">
<path d="M191.616 98.8545C198.219 102.349 204.727 103.337 211.4 103.812C225.71 104.832 238.584 99.8191 250.866 93.5492C263.219 87.2399 275.004 79.7999 287.073 72.9292C291.42 70.4544 294.962 67.3472 296.358 62.3661C303.323 64.2321 305.177 69.2527 300.16 73.6329C295.254 77.9182 289.763 81.6263 284.178 85.0103C273.111 91.7149 262.249 99.0521 250.463 104.191C240.28 108.635 229.086 111.37 218.066 113.078C207.59 114.699 196.838 113.513 186.907 108.769C186.788 108.714 186.631 108.698 186.552 108.611C181.606 103.179 176.281 105.385 170.972 107.86C161.711 112.177 152.474 116.541 143.229 120.874C133.1 125.61 122.553 129.026 111.565 131.121C106.422 132.101 101.381 133.651 96.2142 134.426C82.9222 136.418 69.6303 137.936 57.498 129.729C56.1964 128.844 54.3111 128.496 52.6861 128.48C38.4949 128.346 25.4318 124.392 14.041 116.012C1.41167 106.721 -1.53858 93.2409 0.670164 78.6218C3.84129 57.6143 14.9718 40.8843 29.9755 26.2968C46.6357 10.0886 67.1771 3.09133 89.5169 0.458476C108.228 -1.74743 124.478 4.02429 137.912 17.3941C138.74 18.2243 139.742 19.0861 140.129 20.1298C142.511 26.621 147.954 27.214 153.689 27.6172C161.104 28.139 166.949 31.2779 172.905 36.1562C176.952 39.4769 184.974 40.987 189.912 39.3504C195.915 37.358 201.84 35.2153 208.079 33.8317C212.954 32.7485 216.78 34.8042 220.693 36.9231C224.495 38.9867 228.076 41.4851 231.973 43.3115C239.719 46.9406 243.522 54.5308 238.718 62.9828C234.079 71.1423 227.28 76.5741 219.77 81.3812C211.605 86.6153 203.133 91.3592 194.819 96.3481C193.872 96.9332 193.044 97.7318 191.616 98.8545ZM44.569 114.833C43.5356 111.916 42.8966 110.153 42.2813 108.374C36.7279 92.3158 42.3997 78.3293 50.7298 65.1097C57.1588 54.9103 67.1139 48.6642 77.566 43.1613C89.7141 36.7571 102.288 31.7523 116.03 29.9338C120.597 29.3329 125.054 27.9176 129.558 26.8819C130.016 26.1624 130.473 25.4429 130.939 24.7313C129.511 24.0514 128.06 23.4189 126.663 22.6915C113.671 15.8761 100.087 11.907 85.3598 15.0934C77.8264 16.7221 70.4981 19.2442 63.0435 21.2604C52.9464 23.9881 44.2771 29.6808 36.7279 36.3538C29.8572 42.4339 24.1223 50.0795 18.9475 57.7488C12.5579 67.2286 11.4141 78.0368 14.2145 89.2086C16.0052 96.356 20.9275 101.045 25.9445 106.034C30.9615 111.015 36.9646 112.699 44.569 114.833ZM124.257 46.3872C122.814 46.7746 121.883 46.8536 121.126 47.2569C113.529 51.2734 105.507 54.4359 99.1329 60.6583C91.2839 68.3355 84.2396 76.5266 80.1692 86.8129C77.5739 93.3674 76.2881 100.293 79.0964 107.18C80.2639 110.05 81.2026 114.161 85.4071 113.418C96.1116 111.521 106.721 109.125 117.363 106.903C120.084 106.334 120.865 105.085 119.209 102.46C115.462 96.5221 115.138 89.9281 116.984 83.4527C121.157 68.802 130.316 57.7488 142.677 49.1623C143.631 48.4982 145.154 47.1383 144.964 46.6402C144.515 45.4305 143.324 43.8176 142.243 43.6515C138.859 43.1376 135.301 42.426 132.587 45.8574C130.063 49.0516 125.409 50.2376 122.112 48.8065C122.711 48.1266 123.263 47.502 124.257 46.3872ZM124.273 91.288C124.273 100.444 129.479 103.899 137.036 100.586C145.753 96.7672 152.269 89.9913 159.495 84.1168C165.45 79.2781 168.211 73.4036 168.432 65.7659C168.527 62.5638 167.77 60.4607 165.395 58.6738C164.133 57.725 162.879 56.7683 161.625 55.8117C158.627 53.5109 155.487 53.0918 152.111 54.9973C143.631 59.7965 136.666 66.1929 131.152 74.2654C127.444 79.705 125.046 85.5637 124.273 91.288ZM66.759 114.667C65.8518 110.208 64.2899 106.002 64.2741 101.796C64.2189 85.5242 71.0581 71.8144 81.1474 59.5435C84.4053 55.5824 88.026 51.9138 91.489 48.1108C90.0376 47.8182 89.0594 48.1108 88.2075 48.6168C83.8057 51.2259 79.2699 53.6453 75.097 56.5865C62.089 65.7422 51.2504 76.5583 49.8621 93.6204C49.5229 97.7318 49.4361 102.191 50.6509 106.034C53.8694 116.146 55.9203 116.644 66.759 114.667ZM190.48 88.3942C192.129 88.1254 192.799 88.1728 193.288 87.904C200.988 83.6503 209.065 79.9343 216.212 74.89C221.915 70.8735 226.727 65.4655 231.46 60.2393C234.868 56.4758 234.032 53.2737 229.962 50.3009C228.928 49.5418 228.147 48.3796 227.043 47.7866C225.158 46.7825 223.178 45.8021 221.119 45.3435C219.281 44.9403 217.253 45.051 215.36 45.3198C211.29 45.897 207.259 46.7113 202.423 47.5731C204.143 50.3404 205.508 52.1035 206.391 54.0881C207.283 56.0647 208.418 58.3338 208.19 60.3342C207.495 66.438 205.019 71.8776 200.751 76.4792C197.406 80.0766 194.322 83.9113 190.48 88.3942ZM189.952 71.6246C192.444 67.7583 194.898 64.6037 196.602 61.0932C197.99 58.239 195.418 54.2225 192.326 53.4476C189.62 52.7677 186.481 55.3531 187.001 57.8674C187.869 62.0024 188.776 66.1296 189.952 71.6246ZM147.986 32.029C154.486 33.9977 160.97 35.9822 167.494 37.8798C167.951 38.0142 169.095 37.4291 169.087 37.1998C169.063 36.3776 168.913 35.3814 168.409 34.7884C165.348 31.1514 153.058 28.9139 147.986 32.029Z" fill="#AA6D73" fill-opacity="0.3"/>
</svg>
