<svg width="74" height="49" viewBox="0 0 74 49" fill="none" xmlns="http://www.w3.org/2000/svg">
<rect x="7.5" y="5.5" width="59" height="24" rx="2.5" stroke="black"/>
<rect x="1" y="43" width="6" height="5" rx="2" stroke="black"/>
<rect x="67" y="43" width="6" height="5" rx="2" stroke="black"/>
<path d="M17.6896 12.008C17.1989 12.008 16.8256 12.1413 16.5696 12.408C16.3242 12.6747 16.2016 13.0693 16.2016 13.592V14.584H18.7936V15.544H16.2336V23H15.0976V15.544H13.5936V14.584H15.0976V13.544C15.0976 12.776 15.3162 12.168 15.7536 11.72C16.2016 11.272 16.8309 11.048 17.6416 11.048C17.9616 11.048 18.2709 11.096 18.5696 11.192C18.8682 11.2773 19.1189 11.4053 19.3216 11.576L18.9376 12.424C18.6069 12.1467 18.1909 12.008 17.6896 12.008ZM21.6096 14.584H22.7456V23H21.6096V14.584ZM22.1856 12.744C21.9509 12.744 21.7536 12.664 21.5936 12.504C21.4336 12.344 21.3536 12.152 21.3536 11.928C21.3536 11.7147 21.4336 11.528 21.5936 11.368C21.7536 11.208 21.9509 11.128 22.1856 11.128C22.4202 11.128 22.6176 11.208 22.7776 11.368C22.9376 11.5173 23.0176 11.6987 23.0176 11.912C23.0176 12.1467 22.9376 12.344 22.7776 12.504C22.6176 12.664 22.4202 12.744 22.1856 12.744ZM30.8492 14.52C31.9052 14.52 32.7425 14.8293 33.3612 15.448C33.9905 16.056 34.3052 16.9467 34.3052 18.12V23H33.1692V18.232C33.1692 17.3573 32.9505 16.6907 32.5132 16.232C32.0759 15.7733 31.4519 15.544 30.6412 15.544C29.7345 15.544 29.0145 15.816 28.4812 16.36C27.9585 16.8933 27.6972 17.6347 27.6972 18.584V23H26.5612V14.584H27.6492V16.136C27.9585 15.624 28.3852 15.2293 28.9292 14.952C29.4839 14.664 30.1239 14.52 30.8492 14.52ZM38.0293 14.584H39.1653V23H38.0293V14.584ZM38.6053 12.744C38.3706 12.744 38.1733 12.664 38.0133 12.504C37.8533 12.344 37.7733 12.152 37.7733 11.928C37.7733 11.7147 37.8533 11.528 38.0133 11.368C38.1733 11.208 38.3706 11.128 38.6053 11.128C38.84 11.128 39.0373 11.208 39.1973 11.368C39.3573 11.5173 39.4373 11.6987 39.4373 11.912C39.4373 12.1467 39.3573 12.344 39.1973 12.504C39.0373 12.664 38.84 12.744 38.6053 12.744ZM45.2222 23.08C44.5395 23.08 43.8835 22.984 43.2542 22.792C42.6355 22.5893 42.1502 22.3387 41.7982 22.04L42.3102 21.144C42.6622 21.4213 43.1049 21.6507 43.6382 21.832C44.1715 22.0027 44.7262 22.088 45.3022 22.088C46.0702 22.088 46.6355 21.9707 46.9982 21.736C47.3715 21.4907 47.5582 21.1493 47.5582 20.712C47.5582 20.4027 47.4569 20.1627 47.2542 19.992C47.0515 19.8107 46.7955 19.6773 46.4862 19.592C46.1769 19.496 45.7662 19.4053 45.2542 19.32C44.5715 19.192 44.0222 19.064 43.6062 18.936C43.1902 18.7973 42.8329 18.568 42.5342 18.248C42.2462 17.928 42.1022 17.4853 42.1022 16.92C42.1022 16.216 42.3955 15.64 42.9822 15.192C43.5689 14.744 44.3849 14.52 45.4302 14.52C45.9742 14.52 46.5182 14.5947 47.0622 14.744C47.6062 14.8827 48.0542 15.0693 48.4062 15.304L47.9102 16.216C47.2169 15.736 46.3902 15.496 45.4302 15.496C44.7049 15.496 44.1555 15.624 43.7822 15.88C43.4195 16.136 43.2382 16.472 43.2382 16.888C43.2382 17.208 43.3395 17.464 43.5422 17.656C43.7555 17.848 44.0169 17.992 44.3262 18.088C44.6355 18.1733 45.0622 18.264 45.6062 18.36C46.2782 18.488 46.8169 18.616 47.2222 18.744C47.6275 18.872 47.9742 19.0907 48.2622 19.4C48.5502 19.7093 48.6942 20.136 48.6942 20.68C48.6942 21.416 48.3849 22.0027 47.7662 22.44C47.1582 22.8667 46.3102 23.08 45.2222 23.08ZM55.7223 14.52C56.7783 14.52 57.6156 14.8293 58.2343 15.448C58.8636 16.056 59.1783 16.9467 59.1783 18.12V23H58.0423V18.232C58.0423 17.3573 57.8236 16.6907 57.3863 16.232C56.949 15.7733 56.325 15.544 55.5143 15.544C54.6076 15.544 53.8876 15.816 53.3543 16.36C52.8316 16.8933 52.5703 17.6347 52.5703 18.584V23H51.4343V11.128H52.5703V16.056C52.8796 15.5653 53.3063 15.1867 53.8503 14.92C54.3943 14.6533 55.0183 14.52 55.7223 14.52Z" fill="black"/>
<path d="M4 3V43.5" stroke="black"/>
<path d="M70 3V43" stroke="black"/>
<circle cx="4" cy="2" r="1.5" stroke="black"/>
<circle cx="70" cy="2" r="1.5" stroke="black"/>
</svg>
