<svg width="96" height="61" viewBox="0 0 96 61" fill="none" xmlns="http://www.w3.org/2000/svg">
<path fill-rule="evenodd" clip-rule="evenodd" d="M43.3107 7.95878L43.3109 7.97151V26.1435L40.7237 27.7461V8.04638C40.7237 6.80607 40.2209 5.68271 39.4078 4.86986C38.5947 4.0568 37.4716 3.5538 36.2313 3.5538C35.8198 3.5538 35.4163 3.61142 35.035 3.71543C34.6364 3.82418 34.2675 3.98364 33.9434 4.1813L30.588 6.26165V3.15094L32.2389 2.12729C32.4467 1.98811 32.6521 1.86533 32.8692 1.75053C33.8616 1.22467 34.9934 0.926666 36.1946 0.926666C40.1005 0.926666 43.2727 4.06198 43.3107 7.95878ZM39.8038 28.316L37.261 29.891C38.9685 31.3365 40.0528 33.4954 40.0528 35.9079C40.0528 38.716 38.5837 41.1807 36.3724 42.5764L36.0997 42.7505L6.63968 61V57.8433L34.967 40.2923C35.5829 39.9106 36.0852 39.4398 36.4749 38.912C37.1296 38.0255 37.4688 36.9788 37.501 35.9225C37.5327 34.8706 37.2589 33.8081 36.6868 32.885C36.3321 32.3125 35.8638 31.7942 35.2847 31.3663L20.2691 20.2792C19.8274 19.953 19.4718 19.5596 19.2038 19.127C18.7722 18.4298 18.564 17.6282 18.5845 16.8375C18.6048 16.0523 18.8516 15.2785 19.3296 14.6312C19.6081 14.2538 19.9653 13.9186 20.4014 13.6487L28.0223 8.92914V12.0414L22.2049 15.6451C21.6058 16.0312 21.1907 16.4163 21.1907 17.2003C21.1907 17.8748 21.5057 18.2578 22.0057 18.6417L36.299 29.1932C36.621 29.3915 36.9274 29.6122 37.2164 29.8533V8.3243C37.2159 7.90547 37.1954 7.58137 36.8161 7.30473C36.5204 7.08874 36.0807 7.04925 35.7654 7.24518L30.588 10.4528V7.33993L34.4213 4.9646C34.6762 4.80924 34.9651 4.68407 35.2758 4.59927C35.5721 4.51857 35.8938 4.47391 36.2313 4.47391C37.2178 4.47391 38.111 4.87376 38.7575 5.52024C39.4037 6.1665 39.8038 7.05982 39.8038 8.04638V28.316ZM6.63968 56.7653V53.6093L32.9868 37.2871C33.5601 36.9473 33.9447 36.3224 33.9447 35.6077C33.9447 35.0132 33.6784 34.4807 33.2589 34.1229L31.9694 33.1696L0.545166 52.6329V30.0332L3.13475 28.431L3.14036 47.7952L17.9594 38.6125C18.4897 38.2836 18.9271 37.8715 19.2709 37.406C19.8589 36.6102 20.1752 35.6582 20.2171 34.701C20.2589 33.7432 20.0259 32.7767 19.5154 31.9528C19.223 31.4809 18.841 31.0564 18.3691 30.708L3.65004 19.836L5.91616 18.4324L19.3 28.3128C20.7127 29.1927 21.81 30.5312 22.3844 32.12L26.8278 29.3677L18.1959 22.9849C16.2782 21.5208 15.162 19.3613 15.162 16.9355C15.162 14.4447 16.429 11.9222 18.5689 10.595L28.0223 4.73911V7.8511L19.92 12.8689C19.3794 13.2036 18.9375 13.6183 18.5929 14.0848C17.9995 14.8886 17.6933 15.846 17.6681 16.8157C17.6432 17.7801 17.8974 18.7578 18.4242 19.6084C18.7526 20.139 19.1863 20.6197 19.7229 21.0159L31.0825 29.4036L22.8267 34.5182C22.8272 34.5547 22.828 34.591 22.828 34.6274C22.828 34.9701 22.8045 35.3073 22.7599 35.6377L31.8764 29.9898L34.7383 32.103C35.2229 32.461 35.6131 32.8919 35.9072 33.3664C36.3832 34.1348 36.6113 35.0201 36.5845 35.8973C36.5582 36.7701 36.2781 37.6343 35.7382 38.3656C35.4144 38.8043 34.997 39.1957 34.4854 39.5125L6.63968 56.7653ZM4.05075 27.8644L6.63968 26.2626V41.8729L16.2726 35.9059C16.6457 35.6088 16.8848 35.1507 16.8848 34.6367C16.8848 34.1533 16.6731 33.7192 16.3375 33.4221L0.545166 21.7593L2.81043 20.3563L17.823 31.4446C18.2 31.7232 18.504 32.0605 18.7357 32.4342C19.1472 33.0984 19.335 33.8819 19.3009 34.6615C19.2668 35.4413 19.0104 36.2154 18.5342 36.8599C18.2563 37.2362 17.9039 37.5687 17.478 37.8326L4.05614 46.1497L4.05075 27.8644Z" fill="white"/>
<path d="M55.7962 40.0551C56.6116 40.0551 57.3069 40.3449 57.8815 40.9232C58.4572 41.5023 58.745 42.211 58.745 43.0495C58.745 43.8871 58.4572 44.5958 57.8815 45.1749C57.3069 45.7543 56.6116 46.0439 55.7962 46.0439C54.7829 46.0439 54.013 45.6251 53.4871 44.7863V45.9066H52.7332V37.9065H53.4871V41.3118C54.013 40.4739 54.7829 40.0551 55.7962 40.0551ZM54.1385 44.6553C54.5736 45.0929 55.1065 45.3122 55.7392 45.3122C56.371 45.3122 56.9049 45.0929 57.3388 44.6553C57.7738 44.2169 57.9902 43.6813 57.9902 43.0495C57.9902 42.4168 57.7738 41.8812 57.3388 41.4436C56.9049 41.0052 56.371 40.7859 55.7392 40.7859C55.1065 40.7859 54.5736 41.0052 54.1385 41.4436C53.7046 41.8812 53.4871 42.4168 53.4871 43.0495C53.4871 43.6813 53.7046 44.2169 54.1385 44.6553ZM60.3358 41.1407C60.686 40.4474 61.2885 40.1006 62.1423 40.1006V40.8323C61.6236 40.8323 61.1931 40.9847 60.85 41.2893C60.5078 41.5942 60.3358 42.0737 60.3358 42.7295V45.9066H59.5818V40.1923H60.3358V41.1407ZM67.3208 40.1923H68.0757V45.9066H67.3208V44.7863C66.7961 45.6251 66.0259 46.0439 65.0126 46.0439C64.1974 46.0439 63.5021 45.7543 62.9264 45.1749C62.3516 44.5958 62.0638 43.8871 62.0638 43.0495C62.0638 42.211 62.3516 41.5023 62.9264 40.9232C63.5021 40.3449 64.1974 40.0551 65.0126 40.0551C66.0259 40.0551 66.7961 40.4739 67.3208 41.3118V40.1923ZM63.4691 44.6553C63.9042 45.0929 64.4371 45.3122 65.0698 45.3122C65.7025 45.3122 66.2355 45.0929 66.6694 44.6553C67.1044 44.2169 67.3208 43.6813 67.3208 43.0495C67.3208 42.4168 67.1044 41.8812 66.6694 41.4436C66.2355 41.0052 65.7025 40.7859 65.0698 40.7859C64.4371 40.7859 63.9042 41.0052 63.4691 41.4436C63.0352 41.8812 62.8177 42.4168 62.8177 43.0495C62.8177 43.6813 63.0352 44.2169 63.4691 44.6553ZM71.9299 40.0551C72.6234 40.0551 73.1696 40.2663 73.5699 40.6888C73.9699 41.1122 74.1695 41.6816 74.1695 42.398V45.9066H73.4156V42.398C73.4156 41.8875 73.2801 41.4909 73.0101 41.2093C72.7391 40.9277 72.357 40.7859 71.8613 40.7859C71.3124 40.7859 70.8668 40.9596 70.5237 41.3064C70.1814 41.6529 70.0095 42.1887 70.0095 42.9122V45.9066H69.2555V40.1923H70.0095V41.0835C70.4365 40.3973 71.0763 40.0551 71.9299 40.0551ZM80.1262 37.9065H80.881V45.9066H80.1262V44.7863C79.6012 45.6251 78.8313 46.0439 77.818 46.0439C77.0025 46.0439 76.3075 45.7543 75.7318 45.1749C75.1569 44.5958 74.8691 43.8871 74.8691 43.0495C74.8691 42.211 75.1569 41.5023 75.7318 40.9232C76.3075 40.3449 77.0025 40.0551 77.818 40.0551C78.8313 40.0551 79.6012 40.4739 80.1262 41.3118V37.9065ZM76.2745 44.6553C76.7095 45.0929 77.2422 45.3122 77.8751 45.3122C78.5078 45.3122 79.0408 45.0929 79.4747 44.6553C79.9095 44.2169 80.1262 43.6813 80.1262 43.0495C80.1262 42.4168 79.9095 41.8812 79.4747 41.4436C79.0408 41.0052 78.5078 40.7859 77.8751 40.7859C77.2422 40.7859 76.7095 41.0052 76.2745 41.4436C75.8405 41.8812 75.623 42.4168 75.623 43.0495C75.623 43.6813 75.8405 44.2169 76.2745 44.6553ZM82.8265 38.8208C82.7194 38.927 82.5902 38.9805 82.4378 38.9805C82.2855 38.9805 82.1563 38.927 82.0492 38.8208C81.9424 38.714 81.8889 38.5839 81.8889 38.4315C81.8889 38.279 81.9424 38.1497 82.0492 38.0429C82.1563 37.9367 82.2855 37.8835 82.4378 37.8835C82.5902 37.8835 82.7194 37.9367 82.8265 38.0429C82.9333 38.1497 82.9868 38.279 82.9868 38.4315C82.9868 38.5839 82.9333 38.714 82.8265 38.8208ZM82.0609 45.9066V40.1923H82.8148V45.9066H82.0609ZM86.6691 40.0551C87.3624 40.0551 87.9088 40.2663 88.3088 40.6888C88.7091 41.1122 88.9087 41.6816 88.9087 42.398V45.9066H88.1547V42.398C88.1547 41.8875 88.0192 41.4909 87.7493 41.2093C87.4783 40.9277 87.0959 40.7859 86.6005 40.7859C86.0515 40.7859 85.6059 40.9596 85.2628 41.3064C84.9206 41.6529 84.7486 42.1887 84.7486 42.9122V45.9066H83.9947V40.1923H84.7486V41.0835C85.1755 40.3973 85.8155 40.0551 86.6691 40.0551ZM94.8653 40.1923H95.6201V45.6786C95.6201 46.5011 95.3385 47.1489 94.7743 47.6212C94.2102 48.0936 93.5365 48.3297 92.7513 48.3297C91.4102 48.3297 90.5074 47.8644 90.0422 46.9351L90.7053 46.5581C91.0484 47.2514 91.73 47.5981 92.7513 47.5981C93.4064 47.5981 93.9224 47.4251 94.3002 47.0785C94.6772 46.7318 94.8653 46.2648 94.8653 45.6786V44.7863C94.3403 45.6251 93.5704 46.0439 92.5571 46.0439C91.7417 46.0439 91.0466 45.7543 90.4709 45.1749C89.8961 44.5958 89.6082 43.8871 89.6082 43.0495C89.6082 42.211 89.8961 41.5023 90.4709 40.9232C91.0466 40.3449 91.7417 40.0551 92.5571 40.0551C93.5704 40.0551 94.3403 40.4739 94.8653 41.3118V40.1923ZM91.0136 44.6553C91.4484 45.0929 91.9814 45.3122 92.6141 45.3122C93.247 45.3122 93.7797 45.0929 94.2139 44.6553C94.6487 44.2169 94.8653 43.6813 94.8653 43.0495C94.8653 42.4168 94.6487 41.8812 94.2139 41.4436C93.7797 41.0052 93.247 40.7859 92.6141 40.7859C91.9814 40.7859 91.4484 41.0052 91.0136 41.4436C90.5797 41.8812 90.3622 42.4168 90.3622 43.0495C90.3622 43.6813 90.5797 44.2169 91.0136 44.6553Z" fill="white"/>
<path d="M57.0235 24.1574C58.4957 24.1574 59.7246 24.6733 60.7112 25.7052C61.6977 26.7381 62.1906 28.0108 62.1906 29.523C62.1906 31.0362 61.6977 32.3089 60.7112 33.3408C59.7246 34.3737 58.4957 34.8897 57.0235 34.8897H52.7609V24.1574H57.0235ZM57.0235 32.8659C57.9539 32.8659 58.7104 32.5567 59.2933 31.938C59.8752 31.3196 60.1668 30.5149 60.1668 29.523C60.1668 28.5321 59.8752 27.7264 59.2933 27.1079C58.7104 26.4904 57.9539 26.1812 57.0235 26.1812H54.8775V32.8659H57.0235ZM67.1829 35.1044C66.1197 35.1044 65.226 34.8666 64.4996 34.3914C63.7742 33.9156 63.2634 33.2696 62.9667 32.4514L64.7759 31.3936C65.1947 32.488 66.0181 33.0342 67.2444 33.0342C67.8369 33.0342 68.2719 32.9274 68.5481 32.7124C68.8235 32.4977 68.9616 32.2269 68.9616 31.8998C68.9616 31.522 68.7933 31.2279 68.4556 31.0183C68.1185 30.809 67.5152 30.5807 66.6465 30.3358C66.1661 30.1932 65.7596 30.0497 65.4273 29.9062C65.0959 29.7636 64.7633 29.5719 64.431 29.3314C64.0985 29.0916 63.8454 28.7869 63.6717 28.4188C63.498 28.0518 63.4115 27.6222 63.4115 27.131C63.4115 26.1607 63.7563 25.3862 64.4461 24.8088C65.1358 24.2311 65.9665 23.9424 66.9378 23.9424C67.8067 23.9424 68.5704 24.1545 69.23 24.5788C69.8894 25.003 70.4028 25.593 70.7707 26.3495L68.9929 27.377C68.5632 26.4565 67.8779 25.9967 66.9378 25.9967C66.4984 25.9967 66.1536 26.0964 65.9031 26.2962C65.6528 26.4949 65.527 26.7532 65.527 27.0695C65.527 27.4075 65.6679 27.6811 65.9486 27.8904C66.2302 28.0999 66.7694 28.3271 67.5661 28.5731C67.8932 28.6745 68.1418 28.7539 68.3101 28.81C68.4786 28.8661 68.7087 28.9535 69 29.0711C69.2915 29.1887 69.5159 29.2984 69.6745 29.4008C69.8333 29.5025 70.015 29.6406 70.2192 29.8145C70.4233 29.9882 70.5791 30.1673 70.687 30.3509C70.794 30.5354 70.8857 30.7572 70.9623 31.0183C71.0389 31.2786 71.0773 31.563 71.0773 31.8694C71.0773 32.8605 70.7172 33.6474 69.9963 34.2302C69.2762 34.8131 68.3377 35.1044 67.1829 35.1044ZM74.6599 24.1574H76.5001V34.8897H74.3835V26.395L72.3597 26.9627L71.8384 25.1536L74.6599 24.1574Z" fill="white"/>
</svg>
