<svg width="38" height="38" viewBox="0 0 38 38" fill="none" xmlns="http://www.w3.org/2000/svg">
<g clip-path="url(#clip0)">
<path d="M3.93558 12.8661L3.93553 12.8662C4.41405 13.2039 5.86088 14.2098 8.27909 15.8856C10.6968 17.5609 12.5498 18.8515 13.8377 19.7571C13.9827 19.8588 14.2858 20.0764 14.7442 20.4078L14.7443 20.4079C15.2013 20.7386 15.5782 21.0038 15.8758 21.2045C16.1692 21.4022 16.5277 21.6265 16.953 21.8773C17.3613 22.118 17.7352 22.2924 18.0758 22.4053L18.0769 22.4057C18.4187 22.52 18.7181 22.5707 18.9787 22.5707H19H19.0214C19.282 22.5707 19.5815 22.5199 19.9234 22.4057L19.9244 22.4054C20.2647 22.2925 20.6389 22.1179 21.0467 21.8776C21.4722 21.6262 21.8309 21.402 22.1243 21.2043C22.4219 21.0037 22.7984 20.7387 23.2557 20.4079C23.7149 20.0754 24.0182 19.8583 24.1629 19.7568L24.1645 19.7556C25.4651 18.8509 28.7735 16.5535 34.0884 12.8639C35.0713 12.1773 35.8898 11.3512 36.5473 10.3848L36.5475 10.3846C37.19 9.44139 37.5 8.47077 37.5 7.46458C37.5 6.66685 37.2188 5.99549 36.6408 5.42369L36.6408 5.42364C36.06 4.8489 35.39 4.57165 34.6071 4.57165H3.39272C2.42944 4.57165 1.74693 4.88947 1.27074 5.48601L3.93558 12.8661ZM3.93558 12.8661L3.92768 12.8608M3.93558 12.8661L3.92768 12.8608M3.92768 12.8608C3.10642 12.3044 2.3179 11.5302 1.56667 10.526L1.56665 10.526M3.92768 12.8608L1.56665 10.526M1.56665 10.526C0.8255 9.53543 0.5 8.67403 0.5 7.9308C0.5 6.92118 0.766539 6.11792 1.27069 5.48607L1.56665 10.526Z" stroke="white"/>
<path d="M36.1614 15.9562L36.1594 15.9576C31.5253 19.0941 28.0105 21.529 25.614 23.2633C24.8064 23.8582 24.1456 24.3267 23.6337 24.6652C23.6337 24.6653 23.6337 24.6653 23.6336 24.6653L23.3578 24.2483C22.8558 24.5805 22.1882 24.9198 21.3539 25.266L36.1614 15.9562ZM36.1614 15.9562C36.6403 15.6288 37.0866 15.2787 37.5 14.9061V30.5353C37.5 31.3353 37.2215 32.0065 36.6499 32.5781L36.6498 32.5782C36.0784 33.1498 35.4065 33.4286 34.6073 33.4286H3.39294C2.59349 33.4286 1.92153 33.1498 1.35023 32.5782L1.35013 32.5781C0.778673 32.0067 0.5 31.3352 0.5 30.5353V14.9039C0.922757 15.2831 1.37712 15.6347 1.86283 15.9583C6.97931 19.4352 10.4846 21.869 12.3849 23.2623L36.1614 15.9562ZM19.0217 26.2855C19.8228 26.2855 20.6655 26.0936 21.5456 25.7278L12.681 22.8594C13.4867 23.453 14.1406 23.9163 14.6423 24.2483L14.3663 24.6652C14.3663 24.6652 14.3664 24.6652 14.3664 24.6652C14.9044 25.0214 15.6041 25.3747 16.4543 25.7277C17.3344 26.0936 18.1777 26.2855 18.9787 26.2855H19.0001H19.0217Z" stroke="white"/>
</g>
<defs>
<clipPath id="clip0">
<rect width="38" height="38" fill="white"/>
</clipPath>
</defs>
</svg>
