<svg width="348" height="315" viewBox="0 0 348 315" fill="none" xmlns="http://www.w3.org/2000/svg">
<mask id="mask0" mask-type="alpha" maskUnits="userSpaceOnUse" x="0" y="0" width="348" height="315">
<rect width="348" height="315" fill="#C4C4C4"/>
</mask>
<g mask="url(#mask0)">
<path fill-rule="evenodd" clip-rule="evenodd" d="M922.416 123.288C973.641 155.09 970.529 230.632 916.862 258.113L736.325 350.559C712.432 362.793 683.91 361.793 660.933 347.914L185.803 60.927C133.831 29.5346 136.505 -46.719 190.55 -74.3929L378.137 -170.449C402.33 -182.837 431.245 -181.646 454.337 -167.31L922.416 123.288ZM946.487 315.969C1045.16 265.44 1050.89 126.539 956.7 68.065L488.622 -222.533C446.162 -248.893 392.995 -251.084 348.511 -228.305L160.924 -132.249C61.5523 -81.3647 56.6345 58.8437 152.197 116.565L627.326 403.552C669.574 429.071 722.019 430.91 765.951 408.415L946.487 315.969ZM937.449 99.075C1007.51 142.571 1003.25 245.894 929.852 283.481L749.315 375.926C716.636 392.66 677.624 391.292 646.198 372.31L171.068 85.3222C99.9833 42.3856 103.641 -61.9099 177.56 -99.7605L365.147 -195.817C398.237 -212.761 437.785 -211.131 469.37 -191.523L937.449 99.075ZM933.498 290.601C1012.44 250.178 1017.02 139.058 941.668 92.2783L473.589 -198.32C439.621 -219.408 397.088 -221.16 361.501 -202.937L173.914 -106.881C94.4164 -66.1739 90.4822 45.9928 166.932 92.17L642.062 379.157C675.86 399.572 717.816 401.044 752.961 383.047L933.498 290.601Z" fill="#E40000"/>
</g>
</svg>
