<svg width="348" height="234" viewBox="0 0 348 234" fill="none" xmlns="http://www.w3.org/2000/svg">
<mask id="mask0" mask-type="alpha" maskUnits="userSpaceOnUse" x="0" y="0" width="348" height="234">
<rect width="348" height="234" fill="#C4C4C4"/>
</mask>
<g mask="url(#mask0)">
<g style="mix-blend-mode:overlay">
<path fill-rule="evenodd" clip-rule="evenodd" d="M922.416 359.288C973.641 391.09 970.529 466.632 916.862 494.113L736.325 586.559C712.432 598.793 683.91 597.793 660.933 583.914L185.803 296.927C133.831 265.535 136.505 189.281 190.55 161.607L378.137 65.5511C402.33 53.1627 431.245 54.3539 454.337 68.6903L922.416 359.288ZM946.487 551.969C1045.16 501.44 1050.89 362.539 956.7 304.065L488.622 13.4671C446.162 -12.8933 392.995 -15.0835 348.511 7.69509L160.924 103.751C61.5523 154.635 56.6345 294.844 152.197 352.565L627.326 639.552C669.574 665.071 722.019 666.91 765.951 644.415L946.487 551.969ZM937.449 335.075C1007.51 378.571 1003.25 481.894 929.852 519.481L749.315 611.926C716.636 628.66 677.624 627.292 646.198 608.31L171.068 321.322C99.9833 278.386 103.641 174.09 177.56 136.239L365.147 40.1835C398.237 23.2394 437.785 24.8686 469.37 44.4771L937.449 335.075ZM933.498 526.601C1012.44 486.178 1017.02 375.058 941.668 328.278L473.589 37.6804C439.621 16.592 397.088 14.8398 361.501 33.0627L173.914 129.119C94.4164 169.826 90.4822 281.993 166.932 328.17L642.062 615.157C675.86 635.572 717.816 637.044 752.961 619.047L933.498 526.601Z" fill="white" fill-opacity="0.7"/>
</g>
</g>
</svg>
