<svg width="386" height="201" viewBox="0 0 386 201" fill="none" xmlns="http://www.w3.org/2000/svg">
<path opacity="0.55" d="M174.343 3.15137C132.404 8.97989 88.8458 16.3392 53.5579 32.6311C20.8751 47.7282 -1.16328 69.1343 0.438527 92.357C2.01115 115.854 22.0593 138.603 43.6948 157.016C64.3002 174.584 92.1508 189.946 128.769 196.207C176.12 204.301 234.659 199.972 284.091 191.734C303.989 188.416 331.073 184.647 343.938 173.797C346.41 171.678 348.444 169.417 350.203 167.059C353.147 164.264 355.595 161.272 357.772 158.213C364.205 149.136 368.848 139.642 372.909 130.169C372.954 130.075 373.052 129.976 373.094 129.851C373.136 129.727 373.178 129.602 373.223 129.508C374.771 125.931 376.215 122.393 377.659 118.855C388.306 92.9259 388.156 79.368 379.763 53.8141C372.388 31.4006 347.132 14.724 307.518 10.6588C260.399 5.83429 222.107 -3.49095 174.343 3.15137Z" fill="#DC3C3C" fill-opacity="0.55"/>
</svg>
