<svg width="210" height="162" viewBox="0 0 210 162" fill="none" xmlns="http://www.w3.org/2000/svg">
<path d="M144.997 17.5279C114.625 0.701101 55.5318 18.2182 38.5 31.5C11.6924 47.3516 9.64759 62.8693 4.88303 93.4821C0.118463 124.095 45.1879 148.005 92.1142 151.469C139.04 154.933 195.89 111.955 202.002 92.5311C208.113 73.1072 182.961 38.5614 144.997 17.5279Z" fill="#98C177" fill-opacity="0.53"/>
<path d="M50.4058 78.0525L48.6516 93.7257L48.3579 93.5865L62.5054 77.8478L62.6196 77.7167L62.791 77.7659C71.7494 80.1652 80.9037 81.9257 90.1069 83.0148C99.302 84.063 108.66 84.4888 117.766 82.9985C120.042 82.63 122.269 82.0649 124.456 81.3771C126.626 80.6647 128.731 79.7148 130.754 78.6421C134.785 76.4884 138.432 73.5323 141.035 69.8146C142.324 67.9558 143.311 65.8922 143.858 63.7304C144.429 61.5686 144.412 59.2839 143.841 57.1712C143.523 56.1231 143.074 55.1159 142.487 54.1987C141.867 53.3062 141.173 52.4464 140.317 51.7503C138.66 50.3009 136.621 49.3019 134.475 48.6714C133.928 48.5322 133.398 48.352 132.843 48.2537L131.179 47.9344L127.728 47.353C125.435 46.9272 123.142 46.4932 120.866 46.0264C116.289 45.0847 111.752 44.0939 107.2 43.3159C102.647 42.5216 98.07 41.9157 93.4765 41.7847C88.8913 41.6536 84.2896 41.9566 79.7778 42.8001C75.2822 43.6681 70.803 44.9455 66.4054 46.3621C62.024 47.8197 57.6672 49.4247 53.6286 51.6193C51.6296 52.7248 49.6633 53.9776 48.1703 55.6318C47.4604 56.467 46.8567 57.4415 46.8322 58.4651C46.824 58.9728 46.9546 59.4723 47.1912 59.939C47.3217 60.1683 47.4604 60.3894 47.6481 60.6105C47.8276 60.8234 47.9908 61.0527 48.1784 61.2656C49.7286 62.9115 51.7439 64.1153 53.8407 65.057C55.9457 65.9987 58.1731 66.7111 60.4331 67.2024L60.4004 67.3744C58.0996 66.965 55.8478 66.3344 53.6694 65.4664C51.4991 64.5902 49.3941 63.452 47.6726 61.7569C47.4604 61.544 47.2728 61.3065 47.077 61.0773C46.873 60.8562 46.6935 60.6023 46.5222 60.3239C46.1958 59.7671 46 59.1202 46 58.4569C46.0163 57.1139 46.718 55.9757 47.4686 55.0422C49.0596 53.1915 51.0667 51.865 53.0901 50.6694C57.1777 48.3192 61.5427 46.5587 65.9648 45.0356C70.3951 43.537 74.858 42.1859 79.4759 41.2196C84.0938 40.2861 88.8178 39.8849 93.5255 40.0159C98.2332 40.1387 102.9 40.7119 107.51 41.5226C112.111 42.3415 116.664 43.3651 121.2 44.3232C123.469 44.8145 125.745 45.273 128.013 45.7152L131.432 46.3294L133.186 46.6815C133.773 46.7961 134.344 46.9927 134.924 47.1483C137.224 47.8525 139.452 48.958 141.296 50.6039C142.242 51.39 143.025 52.3727 143.711 53.3963C144.372 54.4444 144.869 55.5908 145.212 56.7782C145.84 59.1693 145.808 61.716 145.171 64.058C144.559 66.4163 143.482 68.6109 142.095 70.568C139.305 74.474 135.478 77.5038 131.309 79.6984C129.212 80.7957 127.059 81.7456 124.799 82.4662C122.547 83.1622 120.254 83.7191 117.937 84.0794C108.644 85.5206 99.2286 85.0047 89.9927 83.8747C80.7487 82.6791 71.6026 80.8203 62.6278 78.3145L62.9134 78.2326L48.6108 93.8158L48.2519 94.2088L48.3171 93.6847L50.2345 78.0361L50.4058 78.0525Z" fill="#222222"/>
<path d="M76.1308 61.4624C76.1308 61.4624 74.6377 65.6059 77.7381 65.3766C80.8384 65.1473 80.2673 60.3078 76.1308 61.4624Z" fill="#222222" stroke="#222222" stroke-width="0.7087" stroke-miterlimit="10"/>
<path d="M96.0547 61.4624C96.0547 61.4624 94.5616 65.6059 97.662 65.3766C100.754 65.1473 100.183 60.3078 96.0547 61.4624Z" fill="#222222" stroke="#222222" stroke-width="0.7087" stroke-miterlimit="10"/>
<path d="M120.262 59.9639C120.262 59.9639 118.769 64.1074 121.87 63.8781C124.962 63.6488 124.391 58.8093 120.262 59.9639Z" fill="#222222" stroke="#222222" stroke-width="0.7087" stroke-miterlimit="10"/>
<path d="M119.365 116.122C119.365 116.122 117.872 120.266 120.972 120.036C124.072 119.807 123.493 114.967 119.365 116.122Z" fill="#222222" stroke="#222222" stroke-width="0.7087" stroke-miterlimit="10"/>
<path d="M139.281 116.122C139.281 116.122 137.787 120.266 140.888 120.036C143.988 119.807 143.417 114.967 139.281 116.122Z" fill="#222222" stroke="#222222" stroke-width="0.7087" stroke-miterlimit="10"/>
<path d="M163.496 114.624C163.496 114.624 162.003 118.767 165.103 118.538C168.196 118.308 167.624 113.469 163.496 114.624Z" fill="#222222" stroke="#222222" stroke-width="0.7087" stroke-miterlimit="10"/>
<path d="M154.823 129.552C156.643 130.158 158.323 131.14 159.718 132.467C160.404 133.139 161.032 133.884 161.489 134.735C161.946 135.595 162.264 136.488 162.672 137.339C163.463 139.059 164.353 140.746 165.315 142.375C166.286 144.005 167.314 145.602 168.563 147.002C168.881 147.346 169.215 147.673 169.574 147.96C169.933 148.239 170.333 148.484 170.725 148.533C171.141 148.599 171.435 148.37 171.606 147.968C171.785 147.575 171.892 147.117 171.957 146.658C172.226 144.807 172.169 142.899 172.096 141.008C171.916 137.216 171.508 133.433 171.002 129.667L170.961 129.364L171.263 129.298C175.718 128.348 180.124 127.095 184.375 125.466C186.496 124.639 188.576 123.705 190.535 122.583C192.468 121.445 194.361 120.135 195.691 118.391C196.36 117.523 196.801 116.524 196.988 115.492C197.168 114.444 196.899 113.387 196.531 112.397C195.601 110.431 193.978 108.81 192.24 107.41C191.799 107.066 191.326 106.779 190.869 106.452C190.641 106.296 190.412 106.132 190.176 105.985L189.433 105.6C188.935 105.346 188.446 105.068 187.94 104.83L186.374 104.2L185.59 103.88L184.783 103.626L183.167 103.119C182.082 102.816 180.972 102.57 179.871 102.3C170.97 100.474 161.766 100.359 152.669 100.719C143.556 101.112 134.467 102.169 125.476 103.692C120.98 104.462 116.509 105.362 112.079 106.435C107.657 107.508 103.267 108.761 99.0735 110.407C98.5432 110.603 98.0455 110.849 97.5315 111.07C97.0093 111.283 96.5198 111.537 96.0384 111.799L95.3041 112.184L94.6351 112.626C94.1537 112.896 93.8192 113.248 93.4439 113.567C91.9834 115.156 90.7514 117.048 90.0498 119.07C89.34 121.093 89.1523 123.296 89.8132 125.269C90.4577 127.251 91.9182 128.921 93.7376 130.084C95.5407 131.288 97.6702 132.025 99.8241 132.557C101.994 133.081 104.238 133.351 106.49 133.482C111.002 133.663 115.603 133.597 120.156 133.442C124.725 133.286 129.278 132.958 133.83 132.565C138.383 132.139 142.928 131.599 147.431 130.788L147.464 130.96C138.497 132.885 129.359 133.966 120.205 134.522C117.912 134.67 115.62 134.76 113.327 134.842C111.034 134.891 108.742 134.981 106.417 134.875C104.099 134.776 101.774 134.531 99.4814 134.015C97.2051 133.482 94.9125 132.737 92.8727 131.427C90.8249 130.166 89.0299 128.225 88.2222 125.826C87.3818 123.435 87.5858 120.798 88.3935 118.513C89.1931 116.196 90.523 114.157 92.1466 112.364C92.628 111.922 93.1094 111.455 93.6315 111.16L94.3985 110.652L95.1899 110.235C95.712 109.948 96.2424 109.678 96.7809 109.449C97.3193 109.219 97.8497 108.957 98.3963 108.753C102.737 107.041 107.192 105.837 111.663 104.765C116.142 103.7 120.662 102.857 125.198 102.12C134.271 100.67 143.417 99.7122 152.604 99.3928C161.775 99.1062 171.043 99.2864 180.099 101.211C181.217 101.497 182.351 101.759 183.461 102.079L185.117 102.611L185.941 102.881L186.749 103.217L188.364 103.888C188.895 104.142 189.401 104.429 189.923 104.699L190.698 105.109C190.951 105.264 191.187 105.436 191.432 105.608C191.913 105.952 192.411 106.263 192.868 106.632C194.663 108.106 196.385 109.809 197.413 112.036C197.837 113.174 198.131 114.427 197.918 115.672C197.69 116.892 197.16 118.039 196.417 118.988C194.932 120.896 192.958 122.223 190.951 123.378C188.927 124.516 186.806 125.441 184.644 126.252C180.32 127.857 175.881 129.069 171.369 129.978L171.63 129.609C172.104 133.401 172.471 137.192 172.618 141.016C172.667 142.924 172.707 144.84 172.414 146.765C172.34 147.248 172.226 147.723 172.006 148.198C171.957 148.312 171.892 148.435 171.802 148.541C171.728 148.656 171.614 148.754 171.484 148.844C171.231 149 170.929 149.049 170.66 149.008C170.113 148.926 169.68 148.632 169.297 148.329C168.914 148.017 168.571 147.673 168.245 147.313C166.972 145.856 165.952 144.234 164.997 142.588C164.043 140.934 163.178 139.231 162.395 137.495C161.995 136.627 161.677 135.718 161.244 134.891C160.812 134.056 160.208 133.319 159.547 132.664C158.201 131.353 156.537 130.354 154.766 129.748L154.823 129.552Z" fill="#222222"/>
</svg>
