<svg width="304" height="48" viewBox="0 0 304 48" fill="none" xmlns="http://www.w3.org/2000/svg">
<path d="M290.698 19.9145C287.442 19.8692 284.394 19.8387 281.345 19.7997C281.336 20.0142 281.333 20.2198 281.324 20.4343C282.103 20.5909 282.874 20.7564 283.653 20.913C283.661 21.0752 283.67 21.246 283.678 21.4082C279.081 21.9717 274.493 22.6031 269.891 23.0727C267.953 23.2672 265.979 23.1726 264.028 23.1196C262.506 23.0785 261.054 23.616 259.612 21.756C257.76 19.3607 255.297 20.918 253.217 21.3596C247.317 22.624 241.435 23.7335 235.307 22.1418C236.784 21.9711 238.272 21.8598 239.738 21.6041C241.245 21.3463 242.756 21.0454 244.224 20.567C245.725 20.0783 247.167 19.3444 248.557 18.1338C247.601 18.0292 246.638 17.925 245.682 17.8204C245.648 17.5483 245.614 17.2761 245.579 17.0039C247.243 16.7979 248.906 16.6004 250.563 16.3947C250.558 16.1724 250.546 15.9419 250.541 15.7195C246.695 15.9188 242.849 16.1181 239.009 16.317C239.018 16.6247 239.02 16.9242 239.029 17.2319C239.902 17.2638 240.767 17.296 241.639 17.3364C241.635 17.2425 241.629 17.14 241.624 17.0461C234.306 17.4253 226.993 17.804 219.254 18.205C219.745 18.8986 219.99 19.2369 220.388 19.807C219.951 20.0266 219.566 20.2178 219.181 20.4089C225.793 18.9363 232.467 18.7789 239.201 20.1509C235.141 20.3612 231.087 20.5712 227.027 20.7815C227.015 20.9277 227.009 21.0735 226.996 21.2197C229.202 21.525 231.414 21.8299 233.619 22.1351C233.616 22.3322 233.613 22.5378 233.61 22.7348C231.707 22.8334 229.693 23.5199 227.934 22.9005C225.001 21.871 222.323 22.5233 219.488 22.9869C216.421 23.4883 213.28 23.4798 210.16 23.4873C205.025 23.4965 199.882 23.3434 194.741 23.2501C194.373 23.2436 194.007 23.1683 193.614 22.812C200.375 20.2017 207.425 19.7937 214.438 18.6856C211.982 18.4618 209.496 17.9057 207.07 18.1255C205.197 18.291 203.437 18.9387 201.773 17.1929C201.568 16.9809 201.109 16.9105 200.868 17.0514C194.91 20.5533 188.378 18.6829 182.159 19.7328C181.283 19.8809 180.416 20.0884 179.603 20.9353C183.583 20.7291 187.563 20.5229 191.543 20.3168C191.576 20.6918 191.608 21.0667 191.648 21.4414C187.45 21.967 183.265 22.7403 179.051 22.95C173.074 23.2425 167.075 23.2537 161.082 23.1189C155.458 22.9993 149.835 22.503 144.204 22.2383C139.243 22.0073 134.277 21.7766 129.319 21.7252C123.799 21.6687 118.279 21.7406 112.769 21.8805C105.153 22.0782 97.5357 22.3871 89.9156 22.6363C89.1601 22.6584 88.4056 22.569 87.0496 22.5023C87.8979 21.6879 88.2613 21.3352 88.7329 20.8741C88.1987 20.9018 87.7775 20.9151 87.3573 20.9454C84.7146 21.1165 82.0729 21.3047 79.429 21.4503C75.3827 21.6684 71.3302 21.7671 67.2981 22.13C66.1718 22.2312 65.1053 23.0997 64.1536 24.1164C70.424 23.7916 76.6945 23.4668 83.3255 23.1233C82.2119 23.6004 81.4065 23.9504 79.939 24.5743C80.8764 24.8339 81.1684 25.0414 81.3848 24.9531C85.3425 23.2842 89.4806 25.3556 93.4929 24.3516C94.577 24.0814 95.8529 25.0597 97.0158 25.0166C98.3522 24.9645 99.7011 26.0589 101.106 24.2226C101.89 23.1975 103.931 23.691 105.412 23.5971C106.5 23.5237 107.603 23.6121 108.989 23.6259C108.191 23.9925 107.629 24.2442 107.072 24.4956C107.092 24.6145 107.119 24.7415 107.138 24.8604C110.067 25.0425 113.002 25.3527 115.936 25.372C127.959 25.4597 139.976 25.4194 152.001 25.5498C153.047 25.5641 154.098 26.8537 155.16 26.9357C157.5 27.1227 159.855 26.7011 162.189 26.914C168.324 27.4609 174.3 26.1068 180.384 25.2866C180.116 25.8055 179.879 26.2716 179.368 27.2654C183.515 27.0506 187.228 26.7213 190.95 26.7168C193.475 26.7145 196.02 27.3788 198.543 27.3679C200.518 27.3598 202.468 26.7366 204.442 26.4545C205.419 26.3183 206.418 26.3351 207.423 26.4884C198.163 30.6151 188.419 29.031 178.206 29.8939C179.034 28.9521 179.325 28.6288 179.894 27.983C178.833 28.038 178.069 27.9063 177.378 28.139C170.184 30.5321 162.836 29.5686 155.512 29.2032C150.37 28.9474 145.219 28.9146 140.08 28.7185C135.015 28.5272 129.949 28.1989 124.885 28.0246C121.961 27.9278 119.032 28.0025 116.082 27.2906C117.531 27.2156 118.987 27.1401 120.436 27.0651C120.436 26.8083 120.443 26.5596 120.444 26.3028C119.008 26.2487 117.574 26.109 116.145 26.1659C111.04 26.379 105.947 26.8055 100.842 26.8816C90.0908 27.0533 79.3269 27.1058 68.5732 27.0978C65.4663 27.0961 62.3534 26.4612 59.2501 26.5278C54.7556 26.6236 50.2525 26.9425 45.7863 27.4564C42.3049 27.8508 38.9449 28.7782 35.3269 27.6986C33.1506 27.0494 30.729 27.9967 28.4105 28.0911C25.4438 28.2105 22.4732 28.1247 19.5082 28.2783C18.3129 28.3402 17.1486 28.8714 15.9617 29.0955C12.4998 29.7372 9.26973 28.004 6.08939 26.7133C2.69093 25.3484 1.30503 21.602 0.836985 16.8322C4.7467 16.3043 8.58255 15.6433 12.441 15.2893C18.0522 14.7761 23.6807 14.339 29.3069 14.116C39.0288 13.7237 48.7502 13.3228 58.484 13.2895C68.5458 13.2562 78.6191 13.7018 88.6903 13.8478C95.3305 13.9404 101.964 13.7766 108.6 13.9208C119.714 14.1584 130.825 14.6101 141.933 14.848C150.238 15.0256 158.549 15.1943 166.851 15.0468C181.855 14.7746 196.842 14.0325 211.846 13.8888C230.946 13.7041 250.061 13.8097 269.166 13.9928C277.44 14.0779 285.715 14.5909 293.991 15.0953C296.234 15.2274 298.475 15.9674 300.702 16.5541C301.286 16.7122 301.813 17.3184 302.404 17.75C300.893 18.9498 299.664 19.9209 298.346 20.9651C299.597 21.4739 300.801 21.968 302.074 22.4928C301.976 23.5765 301.893 24.4369 301.758 25.9677C296.319 25.402 290.846 24.8379 285.252 24.2545C285.983 20.1502 289.118 22.2393 290.698 19.9145ZM46.4572 23.475C46.5502 23.8469 46.6359 24.2106 46.7289 24.5824C48.3063 24.0128 49.8833 23.4345 51.4608 22.8648C51.3665 22.4674 51.2656 22.0702 51.1718 21.6813C49.6024 22.2762 48.0329 22.8712 46.4572 23.475Z" fill="#AB6D57" fill-opacity="0.56"/>
<path d="M222.348 27.779C228.502 27.015 234.635 25.9696 240.816 25.6066C243.693 25.4404 246.642 26.7859 249.57 27.0794C252.464 27.366 255.382 27.2149 258.288 27.2184C259.5 27.2156 260.713 27.1014 261.928 27.0384C261.94 27.4059 261.953 27.7734 261.958 28.1412C248.796 28.3008 235.634 28.4519 222.471 28.6115C222.43 28.3226 222.389 28.0508 222.348 27.779Z" fill="#AB6D57" fill-opacity="0.56"/>
<path d="M273.114 28.9331C275.892 28.7892 278.757 27.9902 281.429 28.6479C286.115 29.792 290.566 28.0804 295.13 28.2892C296.714 28.3612 298.294 29.007 300.077 29.4454C297.666 32.5324 297.663 32.2158 294.962 31.123C293.334 30.4625 291.418 30.9641 289.637 31.0821C287.535 31.2252 285.447 31.7614 283.36 31.6812C282.159 31.6321 280.976 30.6318 279.76 30.1726C279.023 29.894 278.245 29.746 277.484 29.6655C276.024 29.5272 274.562 29.483 273.105 29.3959C273.11 29.2415 273.115 29.0871 273.114 28.9331Z" fill="#AB6D57" fill-opacity="0.56"/>
<path d="M238.881 29.4905C241.956 29.5281 245.038 29.5654 248.113 29.5944C248.116 29.6457 248.112 29.6972 248.114 29.7485C245.043 29.9076 241.971 30.0667 238.906 30.2255C238.9 29.9861 238.894 29.7381 238.881 29.4905Z" fill="#AB6D57" fill-opacity="0.56"/>
</svg>
