<svg width="337" height="105" viewBox="0 0 337 105" fill="none" xmlns="http://www.w3.org/2000/svg">
<path d="M2.05974 103.521C5.26043 80.8724 17.6183 61.3727 33.4346 48.562C42.1151 41.5307 51.7772 36.3418 61.7959 32.6092C71.7934 28.8828 82.453 26.014 92.9554 25.5571C102.678 25.1356 112.654 27.6143 119.638 36.1165C125.176 42.8598 128.385 52.2299 128.551 61.6084C128.634 66.2841 127.96 70.989 126.413 75.3058C126.075 76.251 125.534 78.3708 124.503 78.3311C123.628 78.2978 122.309 77.0355 121.645 76.4471C120.016 74.997 118.679 73.1172 117.668 71.0328C113.249 61.9339 115.277 50.8091 121.71 43.8863C129.164 35.8661 139.797 34.6768 149.125 38.1591C159.437 42.0085 167.671 50.7256 174.673 60.1584C176.399 62.4847 178.068 64.8737 179.713 67.2793C180.322 68.1702 181.5 67.3878 181.521 66.3947C181.801 53.2648 182.785 35.0315 195.09 29.4754C206.425 24.3574 216.441 37.2411 222.913 46.4485C223.478 47.2517 224.417 46.6759 224.683 45.8955C229.457 31.8769 235.878 16.2579 248.643 10.5536C261.729 4.70741 276.743 10.1175 287.099 20.4349C292.86 26.1726 297.402 33.4041 300.437 41.5474C300.99 43.0288 302.787 41.7436 302.266 40.2831C299.83 33.4604 297.256 26.2331 297.697 18.6698C298.08 12.1142 300.94 5.8299 306.388 3.53901C318.038 -1.35992 328 10.3908 335.207 19.4751C336.141 20.654 337.638 18.8805 336.706 17.7038C330.027 9.28503 322.321 0.073453 311.849 0.000428045C307.522 -0.0308684 303.129 1.65288 300.098 5.42305C296.945 9.34345 295.579 14.8454 295.529 20.1657C295.46 27.6727 298.011 34.7561 300.435 41.5454C301.044 41.1239 301.655 40.7024 302.264 40.281C296.518 24.8644 285.094 12.2331 271.283 7.58668C264.431 5.28117 256.953 4.90353 250.086 7.3363C243.421 9.69605 237.829 14.7118 233.547 21.1192C228.733 28.3258 225.52 36.7612 222.637 45.2258C223.227 45.0422 223.818 44.8565 224.408 44.6729C218.616 36.4315 211.197 26.8402 201.556 25.9097C192.101 24.9979 184.799 33.8798 181.89 43.7549C179.755 51.001 179.563 58.7959 179.399 66.3884C180.001 66.0943 180.605 65.798 181.207 65.5038C174.016 54.984 166.08 44.5373 155.613 38.5451C146.052 33.0724 134.693 31.6619 125.142 37.9275C117.103 43.202 111.932 53.2586 113.438 64.2478C114.121 69.2239 116.132 74.0873 119.357 77.4507C120.718 78.8694 122.77 80.8474 124.682 80.8641C126.832 80.8828 127.713 78.0682 128.401 76.1174C135.186 56.9098 126.308 32.8345 109.792 25.7365C98.8572 21.0379 86.6635 23.1326 75.5608 25.8262C64.3152 28.5532 53.2672 32.7406 43.0279 38.9248C24.1539 50.3271 7.98446 69.4388 1.77904 93.8458C1.02698 96.8023 0.447923 99.8109 0.0171626 102.857C-0.207044 104.432 1.83554 105.11 2.05974 103.521Z" fill="#222222"/>
</svg>
