<svg width="210" height="173" viewBox="0 0 210 173" fill="none" xmlns="http://www.w3.org/2000/svg">
<path d="M144.997 17.5279C114.626 0.701101 55.532 18.2182 38.5002 31.5C11.6926 47.3516 9.64784 62.8693 4.88327 93.4821C0.118707 124.095 45.1881 148.005 92.1144 151.469C139.041 154.933 195.891 111.955 202.002 92.5311C208.113 73.1072 182.961 38.5614 144.997 17.5279Z" fill="#D7B7B7" fill-opacity="0.6"/>
<path d="M104.115 160.49C110.353 137.882 125.945 120.026 140.107 101.387C143.648 96.7352 148.582 92.4171 148.05 85.8649C147.885 83.7643 150.233 83.3308 151.792 82.7306C156.562 80.8966 158.231 77.2454 159.607 72.1604C152.49 73.9277 145.812 74.7779 142.272 81.08C141.373 82.6972 139.869 83.1474 138.053 83.7643C134.127 85.1147 130.164 86.7152 126.734 88.8826C120.222 93.0006 118.552 100.953 108.371 103.187C100.153 104.988 93.6409 113.341 86.4499 118.859C83.2213 121.327 79.7909 123.227 75.7734 120.71C71.2974 117.892 73.5905 114.725 75.2965 111.257C84.5054 92.5338 99.8779 77.7122 112.884 61.3735C120.662 51.6036 131.155 43.601 135.466 31.1969C113.526 40.1665 96.8511 55.4382 79.5707 69.943C78.8003 70.3431 78.0115 70.6933 77.2777 71.1434C74.9663 72.5772 72.1596 75.6782 69.9032 72.4272C67.7019 69.2595 69.6831 66.3085 74.1224 65.4749C74.471 66.2418 73.7372 67.6089 75.3882 67.5756C75.645 67.5756 75.8652 66.3251 76.0853 65.6583C76.3788 65.3748 76.6907 65.0747 76.9842 64.7913C76.6173 65.008 76.232 65.2415 75.8652 65.4582C75.2598 65.4915 74.6361 65.5249 74.0307 65.5416C74.8746 60.1898 77.2593 55.8383 83.2763 53.8544L83.2396 53.821C82.5609 55.4382 81.9005 57.0721 81.2217 58.6893C80.011 59.4896 79.1121 60.4565 79.5524 61.9237C79.6441 62.2571 80.4879 62.7406 80.6714 62.6406C82.194 61.8904 81.7904 60.4399 81.9738 59.2228C86.5783 61.5236 87.0002 58.2725 87.8624 55.5883C88.2476 55.805 88.6879 55.905 89.1465 55.905C97.9334 50.4532 105.583 44.0011 113.214 37.1822C118.497 32.4639 126.716 26.9955 135.319 26.462C141.942 26.0452 140.657 31.5136 138.64 34.8981C134.329 42.1505 129.688 49.3029 123.542 55.4716C108.06 73.5942 92.4852 91.6502 82.4875 113.224C103.785 98.2357 124.991 83.4975 147.885 70.9267C148.179 70.86 148.472 70.7933 148.747 70.7099C162.304 66.6753 163.881 67.8923 161.478 80.5299C153.443 95.1347 140.804 106.989 132.274 121.41C124.661 134.264 115.562 146.385 110.664 160.456C109.6 164.391 106.775 167.775 106.885 172.994C103.015 168.459 103.639 164.458 104.115 160.49Z" fill="#B0B68B"/>
<path d="M122.771 164.841C121.487 163.34 119.139 161.89 119.066 160.339C118.644 151.353 124.386 144.051 129.284 137.198C133.54 131.246 142.216 131.563 149.573 132.897C156.415 134.131 158.616 141.266 154.691 147.752C151.517 153.004 145.922 156.088 141.464 160.173C135.557 162.723 130.329 167.642 122.771 164.841ZM147.261 143.667C147.408 142.15 146.968 140.816 145.133 140.566C140.951 139.983 136.273 139.082 133.154 142.283C129.174 146.368 125.505 150.903 125.688 156.871C125.725 158.189 126.899 158.555 128.201 158.705C133.099 159.289 147.169 148.202 147.261 143.667Z" fill="#B0B68B"/>
<path d="M178.631 25.078C186.372 24.3445 189.564 28.8793 190.573 34.6145C191.417 39.4661 179.273 49.0526 173.293 48.5191C167.441 48.0023 162.543 45.8182 162.268 39.5162C161.992 32.7472 170.724 25.1614 178.631 25.078ZM182.061 35.1147C181.529 31.8636 178.888 31.4301 176.521 31.4968C170.926 31.6302 168.67 35.1647 167.936 39.6162C167.624 41.4668 168.761 43.1674 171.018 42.6505C175.842 41.5335 179.805 39.1327 182.061 35.1147Z" fill="#B0B68B"/>
<path d="M85.1111 50.8032C85.056 51.27 85.056 51.7202 85.1111 52.187C84.4874 52.7372 83.882 53.304 83.2583 53.8542L83.295 53.8876C83.1666 52.4871 83.3317 51.2534 85.1111 50.8032Z" fill="#B0B68B"/>
</svg>
