<svg width="340" height="333" viewBox="0 0 340 333" fill="none" xmlns="http://www.w3.org/2000/svg">
<path d="M41.1717 203.137C44.218 201.88 47.2723 200.602 50.3078 199.316C50.2831 198.518 50.2395 197.713 50.2067 196.936C44.0396 196.537 37.8644 196.159 31.6785 195.752C31.643 195.098 31.5807 194.458 31.5453 193.804C33.2554 192.789 34.9386 191.789 35.8516 191.241C33.2775 189.271 29.7474 187.906 28.078 185.064C24.6152 179.138 29.5019 169.541 36.9575 166.771C47.403 162.895 57.8863 159.207 69.1346 155.137C66.8358 153.985 64.9736 153.044 63.0736 152.089C64.2045 150.957 65.1953 149.97 66.5792 148.562C60.8354 148.641 55.6627 148.686 51.6458 148.743C50.3986 144.653 50.0061 141.498 48.6279 139.086C41.7532 126.98 44.9366 111.866 60.7521 104.591C72.1855 99.3331 83.3116 93.8617 95.261 90.9659C116.633 85.7863 137.992 80.3551 159.361 75.1251C168.555 72.8793 177.789 70.8706 187.34 66.859C184.098 66.2183 180.859 64.7645 177.594 65.0521C147.804 67.5138 117.998 65.58 88.2247 74.3367C87.4327 74.5594 86.6489 74.7605 85.8542 74.9329C71.0304 78.1632 66.0889 72.9186 67.9755 56.384C85.0063 53.9761 101.988 50.8349 118.958 49.3413C158.554 45.873 197.925 45.0829 235.975 54.8728C249.836 58.4352 256.398 79.4499 246.739 92.3977C242.887 97.5465 235.137 99.4919 228.986 102.28C224.773 104.187 220.245 105.039 215.862 106.365C215.672 107.281 215.481 108.196 215.263 109.126C220.56 109.842 225.898 110.278 231.119 111.311C244.543 113.971 257.739 118.05 271.385 119.362C285.431 120.7 280.353 135.133 284.943 142.762C286.496 145.338 284.08 151.072 283.193 157.547C253.048 161.825 221.714 163.588 190.538 161.292C192.62 160.317 194.902 159.268 197.164 158.213C197.105 157.796 197.045 157.379 196.986 156.962C163.388 158.918 129.791 160.873 96.2125 162.836C96.1376 163.671 96.0357 164.521 95.9608 165.356C100.123 165.6 104.264 165.96 108.457 166.067C134.94 166.713 161.427 167.41 187.918 167.862C194.791 167.982 201.865 166.524 208.59 167.329C216.199 168.241 223.561 170.737 230.952 172.752C246.389 176.927 261.66 181.779 277.298 185.239C283.93 186.699 286.3 190.369 287.026 197.126C287.343 200.08 288.746 202.772 289.709 205.721C281.865 206.768 274.634 207.723 266.854 208.77C273.316 215.986 284.78 212.491 290.599 223.857C263.592 226.863 238.422 229.666 213.253 232.468C213.159 232.951 213.057 233.456 212.963 233.938C228.061 238.677 243.167 243.394 259.957 248.665C253.566 251.289 249.092 253.148 243.594 255.39C245.956 257.873 247.652 259.664 250.924 263.103C246.73 263.464 244.206 264.299 242.061 263.771C229.373 260.695 216.931 256.551 204.079 254.203C190.639 251.76 176.796 251.089 163.184 249.395C158.812 248.851 154.363 248.105 150.305 246.544C140.819 242.885 132.195 251.558 122.983 250.567C122.903 251.301 122.804 252.029 122.731 252.741C135.877 253.67 149.022 254.598 162.159 255.548C162.114 256.074 162.068 256.599 162.041 257.132C154.105 257.331 146.007 258.481 138.261 257.591C114.613 254.87 90.7658 257.524 66.8809 259.474C60.7628 259.981 54.6674 257.833 48.5727 256.893C48.7175 255.813 48.8623 254.732 49.0072 253.652C52.6602 253.361 56.3133 253.07 58.1452 252.939C52.4237 249.845 45.5381 246.416 39.0482 242.271C38.1668 241.696 39.2851 237.6 39.4243 236.074C37.9187 232.331 34.5049 227.311 35.5465 225.726C39.1695 220.27 43.7917 214.323 49.0949 211.737C56.0626 208.316 63.9965 207.895 71.5283 206.188C71.5547 205.311 71.5999 204.44 71.6263 203.562C61.4912 203.78 51.3829 203.983 41.2477 204.201C41.2098 203.842 41.1907 203.49 41.1717 203.137ZM185.934 209.39C194.1 210.362 202.248 211.327 210.414 212.299C210.519 211.499 210.615 210.721 210.72 209.922C202.781 206.84 195.038 202.08 185.985 209.483C154.368 206.875 122.579 210.318 90.6544 215.856C116.864 222.886 144.681 214.017 171.162 218.188C160.383 219.153 149.623 220.125 138.845 221.09C138.802 221.838 138.759 222.587 138.717 223.335C153.673 224.766 168.57 226.47 183.593 227.432C187.599 227.692 191.959 224.928 196.076 224.834C208.407 224.547 220.689 224.907 232.985 225.001C233.085 224.619 233.192 224.215 233.292 223.833C231.009 222.982 228.727 222.132 226.067 221.14C227.694 219.774 228.666 218.952 231.741 216.35C214.029 215.224 198.516 214.252 182.353 213.235C184.052 211.328 184.967 210.312 185.934 209.39ZM151.037 130.148C164.694 130.971 177.414 136.673 191.777 132.778C205.52 129.046 219.585 127.678 233.501 125.269C233.509 124.211 233.543 123.139 233.551 122.081C212.459 122.359 191.366 122.637 170.274 122.915C170.218 123.585 170.181 124.261 170.125 124.931C171.184 125.547 172.216 126.179 173.887 127.171C165.711 128.243 158.37 129.206 151.037 130.148ZM193.588 183.143C193.636 181.632 193.71 180.106 193.758 178.595C173.38 179.953 152.994 181.333 132.609 182.712C132.585 183.468 132.55 184.195 132.527 184.95C152.888 184.326 173.234 183.746 193.588 183.143ZM205.673 243.527C205.666 245.103 205.64 246.672 205.632 248.247C212.807 247.789 219.962 247.323 227.128 246.887C227.173 245.325 227.218 243.764 227.282 242.209C220.078 242.632 212.885 243.083 205.673 243.527Z" fill="#F29370" fill-opacity="0.57"/>
</svg>
