<svg width="387" height="52" viewBox="0 0 387 52" fill="none" xmlns="http://www.w3.org/2000/svg">
<path d="M370.854 20.1473C366.694 20.1488 362.799 20.1622 358.904 20.1671C358.89 20.3819 358.883 20.5877 358.869 20.8025C359.861 20.948 360.845 21.1025 361.837 21.248C361.845 21.4102 361.854 21.581 361.862 21.7432C355.979 22.3733 350.109 23.0712 344.221 23.6073C341.741 23.83 339.221 23.7636 336.728 23.7386C334.784 23.7195 332.921 24.2783 331.105 22.4376C328.773 20.0672 325.603 21.6611 322.939 22.1329C315.381 23.4833 307.849 24.6782 300.041 23.1736C301.931 22.9815 303.834 22.8487 305.711 22.5716C307.64 22.2919 309.575 21.9691 311.459 21.4692C313.384 20.9585 315.237 20.2033 317.031 18.9718C315.81 18.8809 314.581 18.7905 313.361 18.6996C313.321 18.4277 313.282 18.1558 313.242 17.8839C315.37 17.6538 317.499 17.4323 319.619 17.2026C319.616 16.9802 319.604 16.7497 319.601 16.5272C314.683 16.782 309.765 17.0367 304.856 17.2911C304.863 17.5989 304.861 17.8986 304.869 18.2064C305.983 18.2257 307.088 18.2455 308.202 18.2734C308.198 18.1795 308.192 18.077 308.187 17.9831C298.83 18.4679 289.481 18.9522 279.585 19.4648C280.203 20.1519 280.511 20.4869 281.011 21.0517C280.449 21.2777 279.955 21.4746 279.46 21.6714C287.931 20.1026 296.461 19.849 305.046 21.1251C299.855 21.394 294.672 21.6625 289.481 21.9314C289.463 22.0778 289.453 22.2239 289.435 22.3703C292.249 22.6441 295.071 22.9174 297.884 23.1911C297.878 23.3884 297.871 23.5942 297.864 23.7914C295.431 23.9175 292.848 24.6334 290.609 24.0389C286.876 23.0508 283.445 23.7422 279.816 24.247C275.889 24.7928 271.876 24.8295 267.889 24.8819C261.327 24.965 254.757 24.8859 248.189 24.8665C247.718 24.8652 247.253 24.7952 246.755 24.4443C255.432 21.7347 264.446 21.225 273.424 20.0151C270.289 19.8265 267.121 19.3057 264.018 19.5607C261.622 19.7532 259.363 20.4267 257.261 18.7036C257.002 18.4944 256.417 18.4305 256.108 18.575C248.443 22.1652 240.124 20.3875 232.162 21.5276C231.04 21.6885 229.93 21.9086 228.878 22.7678C233.967 22.5042 239.056 22.2406 244.144 21.977C244.181 22.3518 244.218 22.7266 244.263 23.1009C238.891 23.6874 233.532 24.5214 228.144 24.792C220.502 25.1708 212.836 25.2682 205.18 25.2197C197.996 25.1809 190.817 24.7652 183.625 24.5813C177.29 24.4215 170.947 24.2621 164.613 24.282C157.56 24.3049 150.505 24.4564 143.462 24.6757C133.727 24.9831 123.989 25.4019 114.248 25.761C113.283 25.7939 112.32 25.7153 110.588 25.6681C111.684 24.8408 112.153 24.4826 112.763 24.0145C112.08 24.0498 111.541 24.0692 111.004 24.1056C107.624 24.3149 104.246 24.5412 100.865 24.7249C95.6918 25.0015 90.512 25.1585 85.3544 25.5798C83.9137 25.6972 82.5384 26.5818 81.3077 27.6129C89.3249 27.1976 97.3421 26.7823 105.82 26.3431C104.391 26.8366 103.356 27.1984 101.472 27.8439C102.666 28.0903 103.036 28.2937 103.314 28.2022C108.396 26.4751 113.653 28.4885 118.795 27.426C120.184 27.14 121.801 28.1007 123.287 28.0408C124.996 27.9694 126.704 29.0452 128.525 27.1873C129.541 26.1502 132.142 26.6147 134.037 26.4994C135.428 26.4103 136.835 26.4829 138.607 26.4767C137.582 26.8551 136.86 27.1151 136.145 27.3747C136.169 27.4934 136.201 27.6201 136.224 27.7388C139.964 27.8789 143.71 28.1471 147.459 28.1242C162.821 28.0389 178.177 27.8256 193.542 27.783C194.877 27.7823 196.202 29.0578 197.558 29.1245C200.545 29.2779 203.561 28.8221 206.541 29.0016C214.372 29.4606 222.028 28.0196 229.814 27.1111C229.464 27.6343 229.155 28.1041 228.488 29.106C233.79 28.8314 238.538 28.4484 243.295 28.3903C246.521 28.3517 249.764 28.9798 252.989 28.9326C255.512 28.8961 258.013 28.2443 260.539 27.9337C261.79 27.7833 263.065 27.7857 264.348 27.9247C252.455 32.1877 240.027 30.7427 226.964 31.7532C228.036 30.7988 228.413 30.4711 229.149 29.8166C227.792 29.8869 226.818 29.7661 225.932 30.0089C216.704 32.5073 207.328 31.6489 197.975 31.3887C191.408 31.2066 184.827 31.2479 178.263 31.1257C171.793 31.0071 165.325 30.7515 158.856 30.6499C155.121 30.5952 151.377 30.7121 147.618 30.0421C149.471 29.9461 151.332 29.8497 153.185 29.7537C153.189 29.4967 153.202 29.2478 153.205 28.9908C151.372 28.9573 149.542 28.8381 147.714 28.9157C141.188 29.2024 134.674 29.7025 128.149 29.8521C114.409 30.1787 100.654 30.3861 86.9123 30.5329C82.9422 30.5759 78.9736 29.9853 75.0071 30.0967C69.2625 30.2573 63.5037 30.6412 57.7893 31.2197C53.335 31.6645 49.028 32.641 44.4204 31.6126C41.6488 30.9943 38.5408 31.9771 35.5767 32.105C31.7841 32.2672 27.9893 32.2241 24.1985 32.4205C22.6702 32.4996 21.1747 33.048 19.6548 33.2893C15.2218 33.9813 11.1193 32.2933 7.07395 31.0475C2.75093 29.7304 1.0339 26.0012 0.504466 21.2345C5.50802 20.65 10.4191 19.9333 15.3547 19.5235C22.5322 18.9291 29.7308 18.4107 36.9233 18.1066C49.3519 17.5741 61.78 17.033 74.2187 16.8595C87.0765 16.6814 99.9421 16.9823 112.809 16.9835C121.293 16.9806 129.772 16.7212 138.25 16.77C152.448 16.8478 166.64 17.1399 180.83 17.2181C191.44 17.2764 202.058 17.3256 212.668 17.0584C231.845 16.5701 251.006 15.6118 270.181 15.252C294.59 14.7923 319.014 14.6228 343.425 14.5311C353.996 14.4972 364.564 14.8915 375.131 15.2772C377.995 15.3771 380.849 16.0854 383.685 16.6404C384.429 16.7902 385.094 17.3893 385.843 17.8128C383.895 19.0352 382.311 20.0247 380.611 21.0887C382.203 21.5798 383.735 22.0569 385.353 22.5638C385.213 23.6498 385.095 24.512 384.9 26.0459C377.958 25.558 370.972 25.0723 363.832 24.569C364.826 20.4511 368.802 22.4966 370.854 20.1473ZM58.7039 27.2257C58.8173 27.5966 58.9217 27.9593 59.0351 28.3301C61.059 27.7373 63.0824 27.1359 65.1064 26.5431C64.9917 26.1467 64.8684 25.7507 64.7542 25.3628C62.7401 25.9808 60.726 26.5988 58.7039 27.2257Z" fill="#8EAEB0"/>
<path d="M283.401 29.0011C291.275 28.148 299.127 27.0136 307.031 26.5614C310.71 26.3537 314.459 27.6576 318.196 27.9092C321.89 28.1545 325.621 27.9612 329.334 27.9229C330.883 27.9026 332.434 27.7709 333.988 27.6904C333.998 28.058 334.009 28.4256 334.011 28.7936C317.189 29.1427 300.368 29.4834 283.546 29.8325C283.497 29.544 283.449 29.2726 283.401 29.0011Z" fill="#8EAEB0"/>
<path d="M348.255 29.4253C351.807 29.2413 355.479 28.4004 358.884 29.0202C364.855 30.0978 370.567 28.3208 376.396 28.464C378.419 28.5133 380.429 29.1369 382.702 29.5499C379.576 32.6739 379.577 32.3571 376.141 31.3024C374.07 30.6648 371.615 31.1944 369.337 31.3381C366.649 31.5116 363.973 32.0782 361.308 32.0279C359.774 31.9961 358.276 31.0121 356.73 30.57C355.791 30.3019 354.799 30.1649 353.828 30.0954C351.965 29.9779 350.097 29.9548 348.236 29.8885C348.245 29.734 348.254 29.5794 348.255 29.4253Z" fill="#8EAEB0"/>
<path d="M304.503 30.4762C308.432 30.4695 312.37 30.4625 316.298 30.4473C316.301 30.4985 316.295 30.5502 316.298 30.6014C312.37 30.8049 308.443 31.0083 304.524 31.2113C304.52 30.9718 304.516 30.7238 304.503 30.4762Z" fill="#8EAEB0"/>
</svg>
