<svg width="248" height="635" viewBox="0 0 248 635" fill="none" xmlns="http://www.w3.org/2000/svg">
<path d="M-255.184 573.85C-246.812 588.71 -225.66 591.457 -207.058 599.033C-182.896 608.858 -158.188 617.337 -132.965 623.557C-83.5306 635.793 -31.7551 639.6 16.0908 627.656C78.1076 612.169 128.567 571.727 164.069 523.05C241.102 417.386 294.417 260.008 186.067 142.656C136.832 89.361 65.1591 39.4636 -1.39774 8.20562C-33.2209 -6.72332 -42.4784 -0.248872 -54.0755 29.0365C-86.3276 110.451 -119.197 191.615 -152.153 272.738C-182.942 348.517 -220.971 424.314 -242.914 503.402C-247.87 521.264 -259.599 540.032 -258.852 559.739C-258.647 565.42 -257.298 570.042 -255.184 573.85Z" fill="#FFC061" fill-opacity="0.5"/>
</svg>
