<svg width="212" height="218" viewBox="0 0 212 218" fill="none" xmlns="http://www.w3.org/2000/svg">
<path d="M31.4081 120.658C32.7719 150.981 73.1465 165.276 93.1633 168.632C120.387 176.952 139.457 183.504 167.851 168.284C196.244 153.065 193.322 108.704 172.118 75.3902C150.914 42.0765 85.2486 30.0578 65.6446 37.6593C46.0405 45.2609 29.7033 82.7544 31.4081 120.658Z" fill="#8CAD78" fill-opacity="0.6"/>
<path d="M163.479 63.29C163.334 60.4234 162.951 57.5721 163.081 54.6902C163.181 52.481 163.836 51.6095 165.961 50.6616C170.79 48.5136 175.945 47.6995 181.096 46.8548C184.144 46.3541 187.193 45.8916 190.287 45.6814C193.5 45.4597 195.484 47.023 197.222 49.5035C198.95 51.9688 199.245 54.8354 200.026 57.5644C200.91 60.6527 201.768 63.7678 202.297 66.9287C202.756 69.6883 202.91 72.5281 202.879 75.3259C202.848 78.0817 200.42 80.4935 197.372 81.0324C195.162 81.4222 192.903 81.8197 190.678 81.7662C186.909 81.6745 183.129 82.5765 179.376 81.6401C179.135 81.579 178.867 81.6363 178.614 81.6325C171.847 81.5675 165.08 81.5866 158.317 81.4222C148.168 81.1776 138.016 80.8795 127.871 80.4552C122.697 80.2374 117.497 80.4935 112.353 79.557C110.952 79.301 110.174 80.2985 110.09 82.588C109.975 85.6419 109.968 88.7072 110.082 91.7611C110.266 96.6649 110.638 101.561 110.661 106.476C110.691 113.123 111.059 119.751 111.924 126.359C112.396 129.971 112.621 133.625 113.916 137.046C116.344 143.452 118.121 150.141 122.295 155.797C127.783 163.231 134.818 168.43 143.768 170.849C147.755 171.927 151.906 172.183 156.012 172.619C157.93 172.821 159.826 173.242 161.748 172.817C162.284 171.583 161.775 170.36 161.714 169.167C161.404 162.735 161.036 156.294 161.408 149.865C162.016 139.358 162.219 128.844 162.61 118.333C162.87 111.323 163.077 104.321 163.096 97.3071" stroke="#222222" stroke-width="1.5" stroke-miterlimit="10" stroke-linecap="round" stroke-linejoin="round"/>
<path d="M127.481 35.0061C125.646 34.922 123.946 35.717 122.751 36.7872C118.668 40.4565 114.862 44.5156 113.763 50.115C112.897 54.5411 112.912 58.9977 114.988 63.3091C117.324 68.1594 121.491 70.1545 126.339 71.0833C131.628 72.0962 136.863 71.2286 142.033 69.9749C147.353 68.6868 151.63 63.5384 151.251 57.9351C151.071 55.2673 151.485 52.5536 151.002 49.9163C150.083 44.8749 147.031 41.2056 142.991 38.2549C142.546 37.93 142.098 37.6166 141.65 37.2994" stroke="#222222" stroke-width="1.5" stroke-miterlimit="10" stroke-linecap="round" stroke-linejoin="round"/>
<path d="M192.967 98.0715C192.841 102.975 192.994 107.91 192.527 112.783C191.531 123.095 191.562 133.419 191.661 143.746C191.711 148.788 190.57 153.619 189.475 158.45C188.716 161.79 186.3 163.121 182.635 163.686C177.84 164.424 173.176 163.438 168.458 163.208C165.195 163.052 161.939 162.658 158.692 162.268C155.701 161.905 154.939 160.862 154.433 158.091C153.778 154.525 154.112 150.943 153.974 147.377C153.736 141.269 153.878 135.15 154.027 129.031C154.196 122.094 153.74 115.145 153.752 108.2C153.759 104.042 155.406 100.567 159.071 98.2588C160.427 97.4065 161.951 97.2918 163.475 97.1083C166.914 96.6955 170.361 96.4089 173.811 96.0955C179.169 95.61 184.527 95.224 189.904 95.0138" stroke="#222222" stroke-width="1.5" stroke-miterlimit="10" stroke-linecap="round" stroke-linejoin="round"/>
</svg>
