<svg width="508" height="64" viewBox="0 0 508 64" fill="none" xmlns="http://www.w3.org/2000/svg">
<path d="M504.545 28.9828C504.545 28.829 503.876 27.2967 503.653 27.2967C502.582 27.2905 504.236 25.8752 503.79 25.6783C503.139 25.3829 504.485 25.1552 504.605 25.0506C504.647 25.0137 502.959 23.9491 503.465 23.7214C503.688 23.6168 503.345 22.0906 503.473 21.9429C503.61 21.7829 502.796 21.4137 503.045 21.2414C503.85 20.6753 504.159 23.026 504.193 21.2906C504.193 21.106 502.462 20.3676 502.231 19.8814C501.879 19.1553 500.508 19.4568 500.517 19.2353C500.517 19.0691 500.088 18.6753 499.857 18.9338C499.72 19.0876 499.942 19.8691 499.257 19.3645C498.623 18.8968 499.891 18.583 499.402 18.5768C499.231 18.5768 498.297 17.9861 497.783 18.0599C496.883 18.183 497.671 17.8568 497.311 17.6907C497.08 17.5861 497.243 17.863 496.994 17.863C496.763 17.863 496.909 17.5122 496.677 17.5122C496.437 17.5122 496.583 17.863 496.377 17.8507C495.872 17.8322 495.889 17.2538 495.177 17.2784C494.56 17.303 494.26 17.1922 494.26 16.9584C494.26 16.823 494.132 16.7984 493.695 16.8538C492.658 16.983 493.446 16.583 492.975 16.3799C492.769 16.2876 492.872 16.5399 492.666 16.7738C492.443 17.0261 491.638 16.5769 491.784 16.2815C492.161 15.4569 490.361 18.5338 490.395 16.8599C490.421 15.2723 489.495 17.2292 489.187 16.2569C489.092 15.9676 488.518 15.7646 488.578 16.4169C488.655 17.3338 487.738 16.9153 487.901 16.4046C488.004 16.0907 486.787 14.5154 486.513 16.2138C486.324 17.4199 485.056 16.5707 485.733 16.1215C486.727 15.4569 483.985 14.0661 483.967 15.1738C483.959 15.7153 482.408 14.2569 483.308 15.5061C483.83 16.2261 482.965 16.7861 482.982 16.2446C482.982 16.1646 482.511 15.5369 482.511 15.4507C482.519 14.6631 480.908 16.0169 480.899 15.2723C480.899 15.0384 479.948 14.3861 479.939 14.6138C479.931 15.1246 478.14 14.6323 479.005 15.2661C479.134 15.3584 479.1 15.3953 478.894 15.3953C478.457 15.3892 478.842 15.6107 478.62 15.863C478.388 16.1215 477.445 14.0538 476.657 13.7831C475.817 13.4938 475.543 14.6077 475.32 14.2384C475.174 13.9923 474.78 14.2138 474.789 13.8569C474.797 13.5492 474.532 13.5185 474.54 13.9431C474.549 14.4107 473.769 14.3554 473.897 14.2077C473.992 14.1031 474 13.34 472.655 14.22C471.918 13.5861 471.729 13.4015 471.841 13.8877C471.901 14.1338 471.858 14.1769 471.558 14.1769C471.009 14.1708 471.438 12.9031 470.915 12.8969C470.666 12.8969 470.761 13.1862 470.187 13.0754C469.964 13.0323 468.987 13.1677 468.987 13.5185C468.97 14.3738 466.938 12.8908 467.135 13.0385C466.981 14.1092 466.321 13.8692 466.313 13.2846C466.304 13.0446 466.338 12.8846 466.373 12.7677C466.218 12.8108 465.979 12.8292 465.601 12.7862C464.213 12.62 464.05 12.54 464.153 13.0569C464.204 13.3338 463.785 12.9277 463.493 13.3092C463.245 13.6354 462.927 13.3954 463.193 13.0569C463.716 12.38 462.55 11.8939 462.61 12.3985C462.662 12.8785 461.436 12.3739 461.428 12.4354C461.428 12.5831 460.708 12.7369 460.828 12.2877C461.085 11.3154 459.619 13.3277 461.128 13.7708C461.813 13.9738 459.894 14.0661 460.185 13.5431C460.254 13.42 458.908 12.8846 459.054 12.2816C459.277 11.3462 458.034 12.4416 458.291 12.9462C458.428 13.2108 457.717 13.1923 457.7 12.9215C457.691 12.8046 457.648 12.78 457.605 12.8662C457.468 13.1123 457.228 13.0262 457.065 12.6631C456.723 11.9246 455.094 12.3677 455.403 11.6969C455.643 11.1677 454.683 11.8016 454.786 12.0046C454.914 12.2508 454.503 12.3185 454.28 12.0908C453.363 11.1677 454.606 13.6723 453.74 13.66C453.655 13.66 453.56 12.5708 453.312 13.2723C453.183 13.6477 453.132 12.9215 452.557 12.78C451.743 12.5831 452.72 12.3616 452.557 11.9062C452.403 11.5 452.018 12.78 451.563 12.1954C451.435 12.0231 451.383 12.0231 451.135 12.1769C450.321 12.6815 449.361 11.5246 449.661 13.3338C449.875 14.5954 449.147 14.22 449.172 12.5892C449.181 11.8385 448.212 12.3246 448.212 11.9123C448.221 11.6231 448.032 11.2908 447.561 11.5862C446.901 12.0046 447.124 11.3093 446.567 11.5246C446.096 11.7093 446.036 11.3708 446.49 11.137C447.638 10.5462 445.641 10.6077 445.83 11.4446C445.976 12.0723 445.307 11.5493 445.307 11.2477C445.316 10.6385 444.27 11.5062 444.896 11.6846C445.761 11.9308 444.313 12.8477 444.33 11.6231C444.339 11.1062 443.362 11.5677 443.482 11.8139C443.662 12.2139 442.967 11.6046 442.522 11.6846C441.87 11.8016 442.65 11.137 442.016 10.9462C441.468 10.7862 441.845 9.59852 440.928 10.1893C440.285 10.6077 441.485 10.3247 441.785 11.2231C441.905 11.5923 440.293 11.5062 440.285 12.0539C440.259 13.7523 439.385 11.1 440.002 10.577C440.396 10.2447 439.282 10.2385 439.419 10.3985C439.539 10.54 438.982 10.737 439.119 10.9031C439.265 11.0816 438.819 10.8108 438.442 11.0631C438.014 11.3523 437.251 10.6016 437.028 10.9954C436.874 11.2846 437.003 10.4047 436.308 10.3677C432.906 10.2016 434.337 8.77392 433.712 9.44468C433.583 9.58621 433.532 9.5739 433.369 9.37698C433.112 9.06314 430.943 12.1831 431.783 9.82621C432.015 9.18622 431.183 10.2631 430.72 9.9862C430.455 9.82621 430.446 9.84467 430.541 10.3062C430.678 11.0139 429.709 11.2354 429.349 10.7062C428.998 10.1893 429.152 10.1524 428.278 10.9277C426.821 10.257 426.444 9.70929 426.333 9.91236C426.144 10.2754 425.278 9.80775 425.21 9.85698C424.978 10.0231 426.058 10.4354 424.978 10.3062C424.096 10.2016 424.336 10.7431 424.027 10.3924C423.521 9.82005 424.353 9.99236 424.353 9.83851C424.336 9.33391 420.753 8.85392 422.33 8.40469C423.11 8.18316 422.176 8.29392 422.322 8.29392C421.79 8.28162 421.919 7.7524 421.242 8.23239C420.873 8.49084 421.182 9.11237 420.316 8.9093C419.991 8.83545 418.671 7.91855 418.619 7.95547C418.551 8.0047 418.928 8.36162 418.825 8.54623C418.499 9.12468 416.631 8.35546 415.354 7.24163C415.654 8.30008 414.231 8.01085 413.803 7.6724C412.809 6.89087 412.963 8.55238 412.663 8.55238C411.472 8.54007 410.829 7.46317 410.82 7.79547C410.812 8.17085 407.744 8.53392 407.752 7.75855C407.761 7.34625 406.347 7.38317 406.63 7.63547C407.238 8.18316 405.584 8.93391 405.293 8.58315C404.77 7.96778 405.892 7.5924 405.25 7.37086C403.604 6.79856 402.55 8.34931 402.173 8.34931C401.667 8.34315 402.276 7.30933 401.727 7.00779C401.213 6.72472 401.033 7.23548 400.313 7.14317C400.099 7.11241 400.613 8.22623 399.576 8.21393C398.411 8.20162 399.611 7.81393 398.959 7.28471C398.505 6.91549 399.088 6.70626 398.548 6.7001C398.368 6.7001 398.188 6.61395 398.136 6.51549C398.085 6.39857 395.78 6.89087 395.711 7.08164C395.257 8.31854 394.614 5.35859 393.337 6.25088C392.617 6.75549 392.232 5.35859 391.075 5.66628C390.56 5.80166 390.715 5.21705 389.883 5.6232C388.829 6.13396 389.858 6.09088 389.858 6.39857C389.849 6.97702 388.821 6.18319 388.623 6.56472C388.452 6.89087 387.544 6.79241 388.264 5.96781C388.966 5.16782 387.715 4.86629 387.226 6.14627C386.832 7.1801 384.733 3.88784 384.707 5.3832C384.69 6.48472 383.37 4.94013 383.284 6.25088C383.113 8.73084 379.71 8.04777 380.687 5.81397C381.124 4.81706 379.753 5.51243 378.819 5.3709C378.948 5.42628 381.339 6.33088 379.77 6.31857C379.299 6.31242 379.273 6.39242 379.599 6.71241C379.959 7.06318 379.882 7.14317 379.222 7.1001C378.013 7.0201 379.325 6.6878 377.996 5.69089C376.617 4.65706 378.211 5.56782 378.468 4.89706C378.759 4.1463 378.022 4.78629 377.885 4.7186C376.797 4.22015 377.388 5.48166 376.514 5.43859C375.785 5.40166 375.562 5.08782 375.734 5.42628C375.871 5.69704 375.957 6.39857 375.562 6.39857C375.082 6.39242 375.811 6.71857 375.802 7.06318C375.794 7.51855 374.611 6.89087 374.32 6.9401C374.08 6.98318 373.48 5.14321 373.171 5.35243C372.691 5.67243 373.214 7.29702 372.186 6.41703C371.817 6.10319 371.791 6.09704 371.783 6.32473C371.774 6.93395 370.772 6.18319 371.303 5.9555C371.714 5.7832 370.429 5.30936 370.42 5.84473C370.412 6.30626 368.998 7.61086 369.306 6.82318C369.469 6.40473 368.149 6.62626 369.058 5.98012C369.623 5.58012 368.74 5.43243 369.169 5.33397C369.795 5.18628 368.783 4.75552 368.809 4.73091C369.186 4.3063 368.055 4.71244 367.901 4.71244C366.932 4.70629 368.5 5.70935 367.729 5.6232C367.643 5.61089 366.118 6.81703 366.127 6.2755C366.144 5.40782 365.287 5.26013 364.601 5.56782C363.067 6.26934 363.444 3.18632 362.638 5.29705C362.536 5.57397 363.17 5.22321 362.81 5.8755C362.493 6.44165 362.116 5.58012 361.721 5.80166C361.019 6.20165 360.453 5.05705 360.942 5.19244C361.113 5.24167 362.244 5.82627 361.601 5.00782C361.01 4.24476 362.116 4.83552 362.116 4.51553C362.124 3.95553 360.787 4.71244 359.956 4.26322C359.545 4.04169 359.982 3.29708 359.322 3.82015C359.073 4.01707 359.065 4.04784 359.288 4.14015C359.647 4.28784 359.433 5.27244 359.065 5.16167C357.959 4.82321 358.233 5.00782 358.465 5.20474C358.645 5.35859 358.688 5.45705 358.576 5.45705C358.456 5.45705 358.422 5.54935 358.482 5.69089C358.713 6.23857 357.573 6.87241 357.573 6.49703C357.573 6.35549 356.811 5.84473 356.536 5.65397C356.931 5.43243 357.753 5.11859 356.631 4.94013C355.825 4.8109 356.331 4.16476 355.491 4.75552C355.037 5.07552 355.311 5.10628 354.334 4.44168C354.437 4.76167 354.96 5.42013 353.408 5.02629C351.523 4.54629 352.628 5.03244 351.831 5.28474C351.249 5.46936 350.014 4.57706 350.28 5.09398C350.494 5.50628 349.457 5.05705 349.423 5.07552C348.96 5.40782 351.334 5.77089 350.889 6.07242C350.734 6.17704 348.943 6.10319 349.14 6.50318C349.286 6.79856 348.84 6.54011 348.6 6.54011C348.575 6.54011 349.055 5.96165 348.54 5.96165C348.275 5.96165 348.258 6.70626 347.829 6.58318C347.383 6.45395 347.735 7.00164 347.409 6.99548C347.323 6.99548 346.072 5.94935 346.595 5.6232C347.486 5.06936 346.295 3.60477 346.226 4.29399C346.098 5.67243 344.521 6.15858 345.069 6.15858C345.558 6.16473 345.327 6.48472 344.787 6.54011C343.998 6.62011 343.69 4.98936 343.227 4.98321C342.978 4.98321 343.493 6.61395 342.25 5.76474C341.659 5.35859 341.967 4.44783 341.838 4.7186C341.573 5.26628 341.161 4.28168 340.579 4.35553C340.03 4.42322 340.296 4.73091 339.944 4.72475C339.002 4.7186 340.69 5.09398 340.51 5.24167C340.227 5.46936 340.827 5.58012 340.493 5.71551C340.33 5.7832 339.173 5.33397 339.439 5.64781C339.713 5.97396 338.153 5.60474 339.225 4.57706C339.739 4.07861 340.022 3.9863 338.402 4.84783C337.725 4.3063 337.69 4.23245 337.356 4.40476C337.031 4.57706 336.996 4.5586 337.879 4.76167C338.453 4.8909 336.971 5.22936 338.385 5.56782C339.465 5.82627 336.619 7.1801 337.031 5.6232C337.339 4.42937 334.682 4.65706 336.011 4.07861C336.748 3.75246 336.062 3.62939 335.659 3.9063C335.505 4.01092 334.014 4.55245 334.957 4.5586C335.548 4.56475 334.228 5.97396 335.059 5.39551C335.659 4.97706 335.548 5.56166 336.028 5.66012C336.319 5.71551 336.345 5.75243 336.156 5.83858C335.959 5.93089 335.959 5.98012 336.191 6.17088C336.971 6.81087 335.694 6.34934 335.496 6.20781C335.068 5.90012 334.939 6.87856 335.359 6.87856C335.548 6.87856 335.437 7.10625 334.999 7.02625C334.502 6.93395 334.905 6.41703 334.34 6.15242C333.765 5.88166 334.674 4.46629 333.68 5.11859C332.703 5.76474 332.308 4.07861 332.3 4.87244C332.291 5.2109 331.383 5.18628 331.468 4.73091C331.537 4.36168 331.417 4.32476 331.006 4.58937C330.354 5.00782 330.62 4.40476 330.303 4.3986C330.003 4.3986 330.029 4.98936 329.129 4.47245C328.966 4.37399 327.098 3.93092 327.26 4.21399C327.458 4.56475 326.703 4.86013 327.141 5.06936C327.62 5.3032 326.652 5.2109 326.986 5.67858C328.76 8.18316 326.035 5.26013 325.975 6.35549C325.932 7.13087 324.535 6.79856 325.118 6.47857C325.332 6.36165 325.358 6.29396 325.212 6.25088C324.561 6.04781 325.812 5.8632 325.906 5.97396C326.309 6.46626 326.661 4.82937 325.564 5.43243C324.844 5.83243 326.026 4.5586 326.052 4.54629C326.421 4.42322 325.855 4.46014 325.855 4.17092C325.864 3.82015 323.472 6.49088 324.835 4.3186C325.032 3.99861 323.712 2.8294 324.012 3.51246C324.184 3.91861 323.027 3.67246 322.495 3.494C320.73 2.9094 321.981 4.3063 321.99 3.74015C321.998 3.16785 324.244 4.49706 323.087 4.50322C322.221 4.50937 322.89 4.90321 322.178 4.89706C321.621 4.8909 319.393 5.26628 319.59 4.56475C319.659 4.31245 320.044 4.23245 320.036 4.4786C320.036 4.68168 321.681 4.7186 321.193 3.80169C321.09 3.61708 321.056 3.61092 320.859 3.77708C320.533 4.04784 320.387 4.00476 320.481 3.67246C320.67 3.01401 319.882 3.61092 319.873 3.94323C319.864 4.58937 318.673 3.71554 318.587 3.70938C318.373 3.70938 318.536 4.01092 318.099 4.08476C317.876 4.12169 317.807 4.20168 317.876 4.33707C317.962 4.50937 317.927 4.51552 317.645 4.40476C316.316 3.88784 317.585 4.68168 317.43 4.78629C316.891 5.16782 315.322 4.02323 315.973 4.3063C316.505 4.54014 316.762 3.494 315.871 3.62323C315.425 3.69092 314.645 2.81709 314.379 3.30939C314.354 3.36477 312.974 3.19247 312.682 3.4017C312.434 3.58016 313.06 4.12169 312.571 4.12169C311.526 4.11553 311.971 3.24785 311.106 3.23555C310.3 3.22324 310.094 3.86938 309.503 3.25401C309.126 2.86017 308.946 3.30939 309.023 3.53093C309.246 4.17707 307.952 3.17401 307.952 3.04478C303.718 1.02635 307.189 3.29093 305.321 3.78323C304.841 3.9063 305.115 2.89709 304.104 2.9094C303.572 2.91555 303.589 2.94017 304.215 3.0817C305.038 3.27247 302.818 3.95553 302.775 3.35862C302.741 2.84786 302.612 4.22014 301.858 4.07246C301.438 4.02938 301.438 4.03553 301.67 4.3063C301.961 4.64475 301.721 5.35243 301.241 4.17707C300.898 3.34016 300.753 0.681741 300.83 4.8786C299.913 4.53399 299.596 4.38014 299.587 4.8909C299.587 5.11244 298.533 5.4632 298.533 5.02013C298.542 4.57091 298.859 4.87244 298.867 4.50322C298.867 4.44168 296.373 4.02938 297.573 4.57706C298.464 4.98321 297.247 4.82937 297.239 5.3709C297.239 5.53089 298.344 5.67243 298.422 5.82012C298.533 6.0355 296.733 6.55857 296.759 5.42628C296.768 4.97706 295.516 4.79244 296.15 5.26013C296.468 5.49397 296.116 5.99242 295.962 5.98012C295.491 5.94935 295.028 3.77708 294.676 3.77092C294.591 3.77092 294.779 4.4663 294.462 4.4663C293.871 4.46014 294.111 3.59246 293.631 4.04784C293.271 4.3863 293.562 4.67552 292.894 5.37705C292.182 6.12165 292.062 3.28478 292.748 3.29093C293.374 3.29708 293.442 2.79863 290.194 2.42325C290.194 2.54017 290.023 3.71554 289.637 2.96478C289.457 2.61402 289.286 3.15555 288.926 2.89094C288.54 2.60786 288.6 4.18322 288.823 4.18938C289.02 4.18938 289.928 4.8909 289.251 4.8909C288.874 4.88475 289.371 5.88781 288.703 5.2909C288.583 5.18013 287.092 4.71244 287.1 4.29399C287.1 4.06015 287.743 4.53399 287.743 4.30014C287.752 3.83246 286.629 3.48785 286.62 3.27247C286.62 3.01401 285.995 2.26941 285.986 3.14939C285.969 4.10938 283.372 1.63557 282.25 2.20172C281.907 2.37402 281.735 2.41094 281.692 2.31248C281.538 1.97403 281.23 2.92786 280.493 2.5771C280.107 2.39248 279.867 2.41094 279.858 2.63248C279.858 2.89709 280.904 2.76786 280.724 3.26016C280.621 3.54323 282.087 3.64785 281.504 4.01707C280.99 4.34937 279.593 3.99861 279.507 4.01707C279.181 4.09707 281.444 4.93398 280.767 5.22936C280.535 5.32782 280.964 6.07242 280.338 5.61089C279.876 5.27244 279.481 6.31242 279.267 4.87244C279.113 3.86938 277.664 1.85095 277.836 1.37096C278.153 0.503283 277.142 2.20787 276.876 1.18635C276.567 0.0171368 277.227 2.86632 275.959 2.02941C275.779 1.91249 274.279 2.40479 275.111 2.63863C275.299 2.69402 275.316 2.73709 275.162 2.86632C274.742 3.22939 276.07 3.734 275.076 3.72169C270.885 3.68477 274.339 2.36787 272.728 2.04172C272.197 1.93095 271.631 5.56166 271.297 4.44168C271.194 4.09092 270.294 4.82937 270.551 4.25091C270.723 3.87554 270.251 4.10322 269.986 4.02938C268.203 3.53708 269.866 5.19244 269.351 5.17398C268.743 5.14936 268.966 4.71244 268.546 4.62629C268.254 4.57091 268.203 4.50322 268.28 4.29399C268.554 3.53093 266.883 4.31245 267.637 4.86013C268.537 5.51243 267.097 5.52474 267.32 5.26628C267.877 4.62629 264.089 3.67246 265.503 3.30939C266.035 3.17401 265.349 2.8294 265.143 3.08786C264.706 3.64169 264.912 2.81709 263.832 2.87247C262.487 2.94017 262.992 3.14939 263.146 3.14939C263.789 3.15555 263.858 3.85092 263.858 3.85092C264.663 3.85707 263.695 4.8109 263.635 4.92167C263.515 5.15551 262.007 4.30014 262.881 4.3063C262.966 4.3063 262.846 3.0017 262.212 3.91861C261.467 5.01398 260.79 3.05093 259.941 5.08167C259.838 5.32782 260.421 5.3709 260.781 5.14321C261.227 4.86013 261.338 5.03244 260.952 5.41397C260.447 5.91243 261.03 5.85704 261.012 7.01395C260.978 9.37083 258.716 7.40163 259.616 7.40779C260.198 7.41394 258.741 4.12169 259.221 3.87554C259.89 3.53093 259.196 2.58325 259.178 3.32785C259.153 4.93398 257.79 2.15249 257.173 2.52171C256.719 2.79248 255.802 2.4171 255.793 2.79863C255.793 3.05709 256.282 2.74325 256.273 3.0017C256.247 3.63554 255.365 3.19247 255.416 3.62323C255.51 4.48476 251.945 1.94326 251.679 2.55248C251.525 2.91555 251.294 2.87247 251.191 2.46633C251.071 1.99864 250.231 1.99864 250.505 2.32479C250.9 2.79248 249.811 3.70323 249.58 2.99555C249.494 2.74325 248.731 2.28787 248.68 2.71863C248.611 3.28478 248.963 3.74631 247.84 3.30939C247.103 3.02632 246.906 3.22324 246.966 2.86632C247.06 2.33095 245.835 2.83555 246.032 2.18941C246.177 1.69096 242.338 1.11866 243.658 2.19556C243.829 2.3371 243.855 2.40479 243.718 2.40479C243.581 2.40479 243.606 2.46017 243.778 2.5894C244.678 3.26016 242.835 2.74325 242.749 2.74325C242.346 2.73709 242.775 1.78942 242.381 1.8448C242.295 1.85711 241.447 0.829431 241.704 1.46327C241.918 2.0048 240.932 1.42019 240.787 1.6048C240.392 2.0971 240.272 1.46327 239.844 1.73403C239.698 1.82634 239.141 3.42631 237.676 1.96787C236.973 1.27865 236.27 3.30939 236.596 2.93401C236.742 2.76786 237.616 3.34631 236.964 3.61708C236.322 3.88169 237.65 3.99861 237.204 4.35553C236.81 4.66321 235.79 3.16785 235.807 3.05709C235.919 2.31248 234.539 2.79248 235.173 2.26325C235.627 1.88172 234.35 2.60171 234.359 2.20787C234.359 2.02941 233.853 2.17095 233.99 1.91249C234.205 1.5248 233.613 0.626358 233.631 1.5925C233.648 2.36787 231.445 2.2571 231.068 2.52787C230.417 2.9894 230.674 1.62326 230.888 0.989429C231.222 0.0109831 227.768 0.995582 226.749 0.835585C226.234 0.755586 227.143 1.53711 226.492 1.38942C226.192 1.32173 226.149 1.35865 226.14 1.63557C226.123 2.63863 225.48 2.67555 225.489 2.12172C225.497 1.5925 225.266 1.99249 225.095 1.77711C224.478 1.00789 224.315 5.04475 222.669 4.25091C221.795 3.83246 222.721 4.15861 222.738 3.19862C222.755 2.32479 222.421 2.62632 222.421 2.93401C222.412 3.35247 221.375 2.66325 222.078 2.07249C222.361 1.83249 222.241 1.80172 221.804 1.99249C221.409 2.16479 220.621 1.78326 220.724 1.46942C220.921 0.903276 220.21 1.61711 220.304 1.99864C220.304 2.0048 219.198 1.93095 219.19 2.42941C219.181 2.9217 217.836 2.42941 217.69 2.46633C216.284 2.83555 220.501 3.23555 219.001 3.22324C218.65 3.22324 219.241 3.88169 218.633 3.75246C215.479 3.09401 217.321 2.11556 217.356 1.79557C217.467 0.823278 217.176 1.64788 216.653 1.30327C215.856 0.774047 216.876 1.94941 216.353 2.21402C215.522 2.63863 217.596 3.66631 216.601 3.46939C215.864 3.32785 216.601 4.01092 216.636 4.12169C216.781 4.54629 215.522 4.15861 215.702 4.50322C215.762 4.61399 215.187 5.3709 214.459 4.20168C213.885 3.27247 213.859 4.7186 213.439 4.21399C213.053 3.75246 214.296 3.68477 213.979 3.494C213.542 3.22939 213.859 2.94017 213.396 2.94017C213.002 2.93401 212.796 2.36787 213.071 2.02326C213.859 1.00174 210.731 2.21402 213.448 3.85707C212.676 3.85707 212.402 3.83246 212.231 3.68477C211.674 3.19247 211.836 3.82015 211.399 3.80784C211.108 3.79554 211.031 3.85092 211.039 4.06015C211.065 4.9709 209.762 3.19247 210.808 3.35247C211.416 3.44477 211.425 3.25401 210.817 3.0817C209.985 2.84786 210.671 2.34325 210.148 2.2571C209.702 2.18326 210.182 2.64479 209.505 2.87863C208.708 3.15555 209.351 3.64169 208.683 3.37708C208.4 3.26631 208.34 3.27862 208.263 3.48785C208.091 3.94323 207.697 3.34016 207.388 3.9063C207.148 4.34322 207.86 4.52168 207.303 4.52168C207.029 4.52168 206.857 4.98321 206.729 4.98321C206.677 4.98321 207.286 3.20478 206.746 3.82631C206.411 4.20784 206.009 3.62939 206.026 4.60168C206.043 5.37705 205.992 5.28474 205.04 4.94629C203.54 4.41091 204.509 5.56166 204.595 5.63551C202.143 5.82627 204.749 4.73091 203.061 4.7186C202.803 4.7186 202.692 4.64475 202.692 4.48476C202.692 4.28784 202.623 4.26322 202.255 4.3186C200.867 4.52168 202.469 2.53402 201.038 2.91555C200.532 3.05093 201.201 1.91864 200.095 1.91249C199.29 1.90634 198.09 0.404823 198.073 1.2725C198.064 1.95557 197.036 1.05097 196.607 1.40173C196.067 1.8448 196.787 3.53708 196.016 3.66631C194.79 3.87554 195.587 3.42631 195.553 2.25095L194.165 2.33095C194.662 0.540205 193.762 2.39248 192.99 1.6048C192.536 1.13712 192.99 2.34325 193.068 2.45402C193.436 2.99555 192.091 3.02632 192.279 1.83865C192.365 1.29096 191.859 1.38327 191.842 1.70942C191.808 2.45402 191.062 1.44481 190.668 1.39558C189.991 1.31558 191.328 2.34325 190.548 2.11556C190.094 1.98634 189.648 3.31554 189.46 3.06939C189.091 2.57709 189.802 1.73403 188.482 1.90018C187.651 2.0048 188.774 3.27247 188.585 3.32785C187.985 3.494 187.54 3.13093 187.531 3.53093C187.523 4.15245 189.922 4.8786 186.468 4.28168L187.394 3.85092C185.646 2.79863 186.897 2.6694 186.897 2.44787C186.897 2.21402 186.417 2.23864 186.417 2.38633C186.409 2.98324 185.526 1.41404 185.166 1.50634C185.08 1.53096 182.852 3.55554 182.86 2.64479C182.869 2.12172 181.541 2.36787 181.815 2.69402C182.252 3.21708 179.732 2.1771 180.718 2.95247C181.729 3.74015 179.612 3.90015 179.612 3.54323C179.621 3.22939 178.704 2.60171 178.918 3.23555C179.03 3.55554 178.053 4.28784 177.967 3.39554C177.83 1.99864 177.693 4.08476 177.135 3.54939C176.913 3.33401 176.321 3.10632 176.784 3.75861C177.641 4.9709 176.047 3.77092 175.85 3.38939C175.687 3.06324 174.822 3.67246 175.576 3.67862C175.961 3.68477 176.141 4.17092 175.404 4.06015C173.75 3.80784 176.801 5.08167 176.021 5.07552C175.43 5.06936 175.936 5.97396 175.704 6.16473C174.367 7.27856 174.796 6.25704 174.564 6.05396C174.204 5.72166 175.207 6.04165 175.216 5.70935C175.224 5.43859 174.333 5.65397 174.196 5.32167C174.016 4.8909 173.133 4.23861 173.545 4.24476C174.504 4.25091 172.739 3.66015 172.328 3.83861C171.951 4.00476 172.662 3.30939 172.036 3.30324C171.479 3.29708 172.096 2.78017 171.651 2.90324C171.102 3.05709 172.182 3.77092 171.385 3.59246C170.674 3.43247 170.382 3.31554 170.416 3.58631C170.485 4.08476 170.399 4.15861 170.091 3.88784C169.508 3.37708 168.094 4.18322 168.411 3.45708C168.985 2.14018 167.982 4.49091 166.697 3.24785C165.874 2.45402 166.534 4.12169 165.763 3.99246C165.034 3.86938 165.009 3.87554 164.991 4.23245C164.974 4.66937 164.889 4.52168 164.572 4.52168C164.263 4.52168 164.734 4.09092 164.297 3.974C161.503 3.21708 163.629 3.94938 163.629 4.06015C163.629 4.22014 162.249 4.10938 161.872 3.47554C161.7 3.19247 161.383 3.21708 161.383 3.51862C161.375 3.98015 160.621 3.20478 160.458 3.53093C160.415 3.61092 160.329 3.64785 160.252 3.61708C160.098 3.54939 160.072 4.68783 160.398 4.82937C161.178 5.18628 159.309 5.34013 159.678 4.93398C159.875 4.71245 158.452 3.9063 159.267 5.14936C160.381 6.85395 157.981 4.77398 157.964 5.68474C157.964 5.90627 157.655 5.90012 157.535 5.67858C157.407 5.42013 157.21 5.45705 157.09 5.75858C156.927 6.14627 156.953 5.73397 156.533 5.72781C155.41 5.71551 156.036 4.20168 156.318 5.03244C156.421 5.32167 156.687 5.34013 156.67 5.05705C156.644 4.70629 156.421 4.15245 156.396 4.37399C156.31 5.1309 155.521 3.75246 155.11 4.04784C155.024 4.10938 156.113 4.82321 155.247 4.62014C154.784 4.50937 155.041 4.78629 154.681 4.78629C154.304 4.78014 154.587 4.41706 154.167 4.44783C153.233 4.51552 153.139 4.01092 152.993 3.98015C152.565 3.88784 153.49 5.53089 154.004 5.16782C154.947 4.50322 154.793 6.74318 154.039 6.18934C153.679 5.92473 154.064 5.67858 153.482 5.61705C153.079 5.57397 153.019 5.69704 153.327 5.93089C153.482 6.05396 153.473 6.07242 153.285 6.02935C152.933 5.94935 152.65 4.98936 152.316 4.90936C152.17 4.87244 151.116 4.20784 151.69 5.00167C152.239 5.75858 150.645 7.00779 151.193 5.69089C151.51 4.92783 150.808 5.28474 150.996 4.63245C151.236 3.78938 149.214 4.51552 150.173 4.52168C150.636 4.52783 149.985 4.65091 150.122 5.19859C150.276 5.81397 148.811 5.50628 149.025 4.94013C149.154 4.61398 149.359 4.28168 149.059 4.28168C148.545 4.27553 148.734 5.3709 148.442 5.3032C147.911 5.17398 147.654 3.88169 147.302 4.13399C146.891 4.42322 148.005 5.96166 147.131 5.7955C145.083 5.40166 146.514 5.1309 146.514 5.02013C146.514 4.7986 146.274 4.8786 145.726 4.76167C144.929 4.60168 145.863 5.16782 145.254 5.39551C144.706 5.60474 145.743 5.56782 145.906 6.02935C146.214 6.89087 145.306 5.51859 144.346 6.07858C143.96 6.30626 143.729 6.14627 143.926 5.78935C144.174 5.34013 144.123 5.21705 143.789 5.43243C142.263 6.41703 141.86 4.33091 141.372 4.33091C140.883 4.32476 141.286 5.98012 141.518 5.88166C141.783 5.77089 141.38 6.74933 141.098 6.08473C140.986 5.82627 139.238 5.35243 140.129 5.35859C141.209 5.36474 139.366 3.82015 139.315 3.92477C139.221 4.10322 138.269 4.15861 138.407 3.894C138.552 3.62323 138.158 3.83246 137.747 3.53708C137.515 3.37093 137.498 3.37708 137.498 3.64785C137.481 4.54014 134.738 3.22324 135.141 3.99861C135.21 4.12169 135.141 4.15245 134.918 4.10322C134.353 3.974 134.259 4.73706 133.993 4.73091C133.324 4.72475 133.727 3.0017 133.153 4.1463C132.93 4.59552 132.964 4.57091 132.159 4.19553C130.959 3.64169 131.456 3.974 130.822 4.46014C130.239 4.90321 130.856 4.68168 130.856 5.01398C130.848 5.30936 129.502 4.96475 129.082 5.15551C128.576 5.3832 128.148 4.37399 127.694 4.77398C127.265 5.14936 127.402 4.56475 126.982 4.5586C126.777 4.5586 126.785 4.98936 126.991 5.08167C127.282 5.21705 127.145 5.3709 126.742 5.36474C126.228 5.35859 126.117 4.43553 125.457 4.77398C124.72 5.15551 123.571 4.07861 123.854 4.78014C123.94 5.00167 123.897 5.02629 123.46 4.9709C122.637 4.8786 123.117 5.21705 122.38 5.2109C121.592 5.20474 122.252 5.77089 122.414 5.60474C122.543 5.46936 123.203 5.24167 123.349 5.59243C123.64 6.26319 121.892 5.82012 121.523 6.06012C121.506 6.07242 122.277 7.03241 121.72 6.87856C121.48 6.81087 120.812 7.29702 121.035 6.88472C121.189 6.6078 120.015 6.52165 120.015 6.41088C120.023 6.1155 120.889 5.24782 120.726 5.0509C119.715 3.85707 120.778 5.43243 120.195 5.42628C120.041 5.42628 119.561 4.95859 119.381 4.95859C118.746 4.95244 119.946 5.36474 119.406 5.77704C116.655 7.88778 116.672 3.93707 116.887 7.48778C116.552 7.48778 115.421 7.48163 116.201 7.02625C116.75 6.70626 115.627 4.59552 114.941 5.06936C114.598 5.30936 115.404 5.35859 115.284 5.57397C114.564 6.86626 116.458 6.38011 115.773 6.86626C115.301 7.19856 114.727 6.40473 114.453 7.00779C114.05 7.86932 113.879 6.09088 113.099 5.86935C112.507 5.7032 112.284 5.89396 112.85 6.08473C113.381 6.26319 112.824 7.29702 113.784 7.39548C114.213 7.43855 114.17 9.29083 112.113 6.20781C111.633 5.48782 111.187 5.08782 111.393 5.55551C111.522 5.84473 111.11 5.98627 110.665 5.81397C110.185 5.62935 110.51 6.04781 110.776 6.04781C111.462 6.05396 110.468 6.7001 110.108 6.2755C109.979 6.12781 109.302 6.41088 109.585 6.74318C110.168 7.43855 108.659 6.59549 108.102 7.07548C107.554 7.54932 107.742 7.06933 107.065 7.06318C106.637 7.05702 106.748 7.57394 107.185 7.59855C108.676 7.6724 107.999 8.41085 107.845 8.47854C107.425 8.6693 108.205 9.05084 108.205 9.1616C108.205 9.19237 107.588 9.25391 107.365 9.43852C106.877 9.84467 107.099 9.06314 107.271 8.94622C107.588 8.72469 105.497 7.24779 105.488 7.90624C105.488 8.01701 104.837 8.54007 104.845 7.85701C104.854 7.22933 103.406 7.24779 103.406 6.94625C103.406 6.78626 103.38 6.77395 103.26 6.90318C103.14 7.03856 103.063 7.02625 102.84 6.86626C102.052 6.2878 102.017 8.6693 98.0921 8.20162C97.0037 8.07239 96.8409 8.60161 97.4065 8.60777C98.2378 8.61392 96.4723 9.53698 97.6465 9.44468C98.5378 9.37698 97.5522 9.99851 97.4665 9.99851C97.2437 9.99851 96.9094 11.5185 96.6266 10.7C96.5923 10.5893 94.4155 9.74621 95.6324 9.75236C96.2324 9.75852 95.5039 9.59237 95.701 9.18006C96.3266 7.81393 91.2188 7.7647 91.7844 8.88468C92.2301 9.76467 90.1218 8.78007 91.0388 8.78622C91.433 8.79238 91.1245 8.497 91.1245 8.38008C91.1245 8.26931 90.1218 8.54623 89.539 8.31239C89.0334 8.11547 89.1705 8.417 89.3505 8.42315C89.5304 8.42315 89.6676 8.78007 89.1705 8.68161C88.8962 8.62623 88.8534 8.657 88.922 8.84776C89.2133 9.56775 86.488 8.28777 86.4366 9.30314C86.4109 9.7339 85.6567 9.12468 85.8624 8.54623C86.1281 7.82624 85.4253 8.87853 85.0396 8.82315C83.2742 8.56469 82.7771 10.14 82.16 9.76467C81.8344 9.5616 81.6887 9.86928 81.9029 9.86928C82.3314 9.87544 80.9516 11.9492 80.8316 9.76467C80.7374 8.02931 79.2633 8.75546 79.7518 9.02007C79.9146 9.10622 80.1117 9.76467 79.4433 9.93697C77.4035 10.4724 79.7175 8.74315 78.9033 8.50931C78.4834 8.39238 78.2863 8.42931 78.5005 8.58315C78.7748 8.78622 78.7491 9.0693 78.4577 8.9893C77.7292 8.78007 78.6634 10.0662 77.8749 10.0601C77.275 10.0539 77.2921 10.9831 76.5294 10.417C76.178 10.1585 77.0179 10.0539 76.478 9.75236C75.4324 9.17391 75.998 10.6385 75.1838 10.1462C74.9696 10.017 75.0553 9.8139 75.0124 9.82005C73.5812 9.98621 74.961 9.26622 74.961 9.20468C74.9439 8.97084 75.0296 9.29699 74.2326 9.39545C73.6155 9.46929 70.1445 8.50931 70.1274 9.53698C70.0931 11.4631 66.3222 11.0631 66.7593 11.3031C67.7277 11.8262 64.7453 12.0846 65.5252 11.0016C65.9023 10.4785 65.508 10.3124 65.1995 10.6016C64.8567 10.9216 65.6623 11.137 64.9081 11.2785C64.2739 11.3954 64.1282 11.3585 63.9483 11.0508C63.1427 9.70929 63.6569 12.8292 64.0425 11.7769C64.411 10.78 66.3993 12.3308 65.1652 12.0969C64.8567 12.0416 64.7624 12.0662 64.7624 12.22C64.7539 12.6139 63.2883 11.8754 63.2026 12.8354C63.0998 13.9677 65.9023 13.0569 64.6253 13.7338C63.9911 14.0723 62.8084 13.4815 62.7998 13.7585C62.7998 13.8692 61.5572 13.9923 62.3199 13.5615C63.4255 12.9338 60.7173 12.7985 60.7258 12.4785C60.7344 11.9308 60.3745 12.6754 60.2031 12.6323C59.5431 12.4662 58.7033 12.6815 58.8404 12.4292C59.1575 11.8446 56.9464 11.7585 58.2662 12.2692C59.0461 12.5708 57.6491 13.0815 57.4263 12.8169C57.272 12.6262 56.6121 12.8539 56.6121 13.1C56.6035 13.42 56.1322 13.2662 55.7037 13.6354C55.1809 14.0908 55.0438 13.3585 54.7524 13.7031C54.4439 14.0661 53.8611 13.1308 53.4926 13.1985C52.8326 13.3215 53.2183 12.3739 52.7641 12.4908C52.2413 12.6262 52.7555 13.1554 52.0185 13.18C51.4014 13.1985 51.2129 13.1308 51.2814 13.5492C51.3586 14.0538 50.4073 14.1831 50.6558 13.5C51.0243 12.4846 49.8245 14.2692 49.516 13.9061C49.096 13.4138 48.5304 14.5892 47.7333 14.3246C46.8078 14.0169 47.9133 13.6477 48.1533 13.6477C49.0617 13.6538 47.8448 12.9215 47.6219 13.5185C47.5448 13.7215 46.7563 14.0538 46.902 13.5677C47.0992 12.8723 46.0364 13.3831 46.3278 13.74C46.4907 13.9369 46.4821 13.9923 46.2764 14.0477C46.0536 14.1092 46.0536 14.14 46.2421 14.3C47.0991 15.0261 46.2336 15.1184 46.225 15.4261C46.2164 15.7646 46.8163 15.703 46.8078 16.1276C46.8078 16.3861 45.8393 15.7092 45.9679 16.5523C46.0279 16.9338 43.5082 16.06 44.2795 15.8692C44.8537 15.7276 44.8966 16.3246 45.0851 15.6969C45.2308 15.2107 45.2051 15.2107 44.5795 15.4261C43.9796 15.6353 42.2741 15.1061 42.4198 15.7646C42.4884 16.0723 42.3427 15.7461 41.9999 15.943C40.9971 16.5215 43.1568 14.3123 41.3057 14.3C41.2628 14.3 41.7513 14.8784 41.6742 15.1615C41.4856 15.8138 40.9971 14.8169 40.7572 15.0938C40.5601 15.3153 40.1487 15.2292 40.243 14.983C40.3544 14.6938 39.2917 14.38 39.5573 14.7492C39.6345 14.8538 38.5546 17.0322 38.5632 16.1584C38.5632 15.7892 37.8947 16.6876 37.3976 16.1707C37.2605 16.0292 36.7806 16.2692 37.072 16.4784C37.509 16.7984 36.2407 17.0384 36.8063 17.1738C37.2177 17.2784 37.012 18.2938 36.4378 17.6292C36.2921 17.463 36.2835 17.4815 36.3521 17.7522C36.6949 19.0507 34.6209 16.0107 35.4693 18.1891C35.855 19.1984 33.3525 17.2045 33.6096 18.423C33.6353 18.5338 32.4783 20.1399 33.2496 19.943C34.0038 19.746 33.3868 21.1553 32.7354 20.4722C32.1955 19.906 32.2469 20.743 32.7697 21.1983C33.1896 21.5614 33.1896 21.5799 32.864 21.6352C32.1784 21.746 33.1468 22.0414 32.7697 22.4598C31.9984 23.3214 36.6006 21.9675 34.2352 23.6967C35.0408 24.0906 35.1094 24.1644 34.9808 23.8629C34.7923 23.4075 36.0093 23.8075 35.9064 24.0967C35.675 24.706 36.4635 23.8629 36.8149 23.5983C36.9348 23.9552 37.3891 25.2106 36.9006 25.2475C37.6633 25.2413 40.6286 25.2536 38.6489 25.4383C36.4549 25.6475 37.7062 27.1244 36.6434 26.3798C36.4035 26.2136 36.2321 26.7121 37.2177 26.669C37.9633 26.6321 38.1004 26.7736 37.5862 27.0321C37.2605 27.1921 37.2605 27.1921 37.6633 27.3275C38.8117 27.7151 37.0891 27.8075 37.3548 28.3551C37.4662 28.5828 37.0891 28.6505 36.1721 27.9182C35.2636 28.6074 35.9664 30.4659 34.9037 30.4597C34.818 30.4597 32.1269 28.7182 32.1355 29.8197C32.1355 30.2259 32.6326 30.2013 32.5897 30.4351C32.3669 31.8874 31.4413 29.4443 31.3299 29.6474C31.1414 29.9736 29.7358 29.592 30.2415 30.1828C30.5329 30.5274 29.8644 30.5705 30.0701 30.8043C30.1815 30.9336 30.3272 31.6905 29.8987 31.6905C29.513 31.6843 29.513 31.4566 29.2645 31.4566C28.9045 31.4505 29.5987 31.6166 29.2902 32.0228C28.6303 32.8966 29.6758 31.9243 30.4043 32.3551C30.55 32.4412 31.2356 30.9151 31.2699 32.3489C31.2785 32.6443 31.707 33.5243 30.6614 33.032C29.3245 32.3981 27.5676 33.2351 28.3989 32.5889C28.7588 32.312 28.6303 32.232 28.1075 32.4166C27.2162 32.7366 27.1648 30.5397 26.0678 30.7797C25.4079 30.9274 25.6307 30.3674 25.2107 30.7613C24.8765 31.0812 24.2937 30.3305 24.3023 30.2197C24.3023 29.9674 23.5138 30.2628 24.0366 30.6936C24.6708 31.2105 23.4796 31.0874 23.4796 30.9028C23.4796 30.6997 23.1882 30.9212 23.2482 31.5305C23.3081 32.1212 23.171 31.9243 22.614 31.7828C22.1854 31.672 22.494 31.0382 22.0997 31.0382C22.014 31.0382 20.917 31.5366 20.4028 31.1982C20.12 31.0136 19.9229 30.3428 19.1002 30.6997C18.3117 31.0443 19.2716 31.2289 19.263 31.5366C19.263 31.6474 18.2603 32.1705 19.0744 32.0228C20.2057 31.8197 18.7745 32.9335 17.2233 32.4966C16.6234 32.3243 16.7862 32.8474 17.0433 32.8474C17.6346 32.8535 16.8033 33.635 16.5548 33.1304C16.4691 32.952 15.4064 32.9458 15.2607 32.6566C14.9522 32.0597 14.9179 33.112 14.3437 32.9951C13.5638 32.8351 15.6292 33.8997 14.9693 34.9335C14.6779 35.395 12.921 33.272 13.1181 33.992C13.1524 34.115 12.304 34.5396 12.3982 33.5366C12.5868 31.6289 12.0297 35.3581 9.7843 35.0135C9.48434 34.9704 9.39007 34.1458 9.09868 34.6689C8.98726 34.8781 8.21594 34.8781 8.22451 34.6689C8.23308 33.875 7.47033 35.4812 8.26736 35.8073C8.95298 36.0904 8.0274 35.9058 8.13881 36.4104C8.37878 37.5242 6.68187 36.4781 6.78471 36.0596C6.9047 35.5919 2.91096 35.4996 4.20507 36.3796C4.77927 36.7673 4.76213 36.9642 4.16222 36.8719C3.57944 36.7796 3.43375 36.9765 3.75084 37.4319C4.05937 37.875 4.03366 37.9857 3.63086 37.8934C3.31376 37.8196 3.28805 37.8381 3.37375 38.1088C3.54516 38.6196 2.67956 38.6688 3.63086 38.8103C5.19922 39.0442 2.08822 39.475 3.11665 40.2934C4.77927 41.6103 2.10536 40.7242 1.41974 40.718C2.49102 41.3334 1.76255 41.7641 1.56543 41.7641C1.12835 41.758 1.29975 41.9734 1.77112 42.0164C2.43103 42.078 2.47388 42.5334 1.82254 42.6257C0.939804 42.7611 1.07693 43.3457 1.574 43.2164C2.22534 43.0503 2.2082 43.9241 2.70527 43.881C3.41661 43.8195 2.5253 44.8656 3.09951 44.7179C3.44232 44.6318 3.45946 44.8287 3.12522 45.0195C2.85097 45.1795 2.77384 45.4195 3.03951 45.3087C3.87083 44.9456 1.77969 47.0625 1.71113 46.281C1.71113 46.0472 1.61685 45.7764 1.88253 45.7764C2.98809 45.7825 1.01694 44.7487 0.579854 45.2349C0.357027 45.481 1.34261 45.2841 1.4026 46.0348C1.55686 48.0779 0.965515 46.841 0.896953 46.6133C0.554143 45.5179 0.219903 47.2225 1.41974 47.5056C1.8911 47.6164 1.96823 48.804 1.53115 48.9702C0.519862 49.3517 2.0368 49.1363 2.02823 49.4256C2.02823 49.6286 1.03408 49.5302 1.37689 49.8256C1.6597 50.0656 1.24833 50.2317 1.59971 50.2317C2.38818 50.2379 1.2569 50.9271 2.34532 50.9332C2.98809 50.9394 2.86811 52.7547 3.33947 51.3701C3.51088 50.884 4.15365 50.6194 3.69942 51.5117C3.4766 51.9486 3.4766 51.9917 3.75084 52.1024C3.99938 52.2071 4.02509 52.3055 3.91368 52.6255C3.48517 53.887 5.01067 52.2809 4.98496 52.964C4.95925 53.7024 6.63045 54.1332 6.62188 54.7055C6.60474 55.7824 13.3581 57.3516 12.3468 58.0654C11.8669 58.4039 13.4952 58.01 13.5209 58.41C13.5295 58.527 13.5723 58.5516 13.6238 58.4716C13.898 57.9916 14.6693 58.8531 15.0293 58.5085C15.6978 57.8623 15.8092 58.9146 15.852 58.8531C16.1948 58.3362 16.9319 59.2531 17.2147 58.9454C17.429 58.7116 18.0717 59.2223 18.3031 59.4192C18.7316 59.7823 18.0974 58.7916 18.6117 58.6439C19.0487 58.5208 18.8688 58.8408 19.2458 58.8469C20.0172 58.8531 18.7059 59.53 19.443 59.37C20.0515 59.2408 19.4858 59.8623 20.3 59.8069C20.6257 59.7823 20.7456 59.8254 20.7456 59.9546C20.7371 60.4592 21.0456 59.7762 21.4741 59.9792C21.8598 60.1577 21.8769 60.1577 21.8769 59.9362C21.8855 59.3146 22.6825 60.0038 22.7854 59.8377C22.9053 59.6346 23.3339 59.6592 23.3339 59.8623C23.3339 60.09 23.651 60.1331 23.6595 59.7639C23.6767 58.5885 25.5707 61.5607 25.5793 60.5761C25.5878 60.0162 26.1106 60.8715 26.5563 60.8715C27.0619 60.8777 26.5048 60.2931 27.1305 60.2992C27.5504 60.3054 27.1048 60.8285 27.6704 60.73C28.1418 60.65 27.9789 61.0438 28.1332 60.6623C28.3732 60.0654 29.1188 60.4408 28.8188 60.6992C28.5017 60.9761 29.2045 61.1177 29.5816 61.05C30.25 60.9269 29.513 60.6069 30.0186 60.3177C30.3615 60.1269 30.7128 60.6008 30.7214 60.7177C30.7214 60.7423 32.3926 60.8961 32.0069 61.2161C31.587 61.5546 32.3155 61.6715 32.3412 60.9454C32.3583 60.5085 32.984 60.9146 32.8897 61.0808C32.7354 61.3638 33.4296 61.0069 33.8838 61.3331C34.3038 61.6284 34.9208 61.0131 34.9123 61.4623C34.9123 61.69 35.2294 61.6961 35.2379 61.4623C35.2379 61.2407 35.5036 61.2284 35.6236 61.4684C35.9493 62.1084 36.4549 60.6008 36.7377 61.4192C36.9348 61.9977 37.5262 60.7546 38.9146 61.7577C39.3259 62.0592 39.4631 62.1023 39.5402 61.9669C39.7202 61.6346 39.9858 61.8992 40.8429 62.1515C41.1943 62.2561 41.8456 62.0777 42.0856 62.4777C42.3598 62.933 42.814 62.7361 42.8226 62.1577C42.8397 61.1915 43.851 62.9884 44.1081 62.9884C44.391 62.9884 44.0139 62.5884 44.2538 62.693C45.7879 63.3823 45.1537 62.133 45.9079 62.25C46.3621 62.3177 46.4221 62.3115 46.2593 62.1823C45.3765 61.5054 47.3305 61.6777 47.1249 62.5515C47.0135 63.0376 47.1506 63.1484 47.502 62.8469C48.4104 62.0715 48.0419 63.3638 48.5989 63.1546C49.0189 62.9946 49.1046 63.0069 49.096 63.21C49.096 63.4069 49.6188 63.5299 49.4817 63.0992C49.3188 62.5823 50.1844 62.9761 50.013 62.65C49.8931 62.4223 50.6301 62.2192 50.4587 62.5269C50.2187 62.9453 52.2156 62.9207 51.5642 62.6192C51.3071 62.5023 51.7357 62.0284 52.5755 62.3546C53.1326 62.57 53.1497 62.5946 52.8241 62.7115C51.6842 63.1361 53.8097 63.1915 53.244 62.49C52.7469 61.8746 54.2724 61.813 54.4696 62.373C54.5381 62.5761 54.521 62.7423 54.461 62.8715C54.5038 62.8407 54.5467 62.81 54.6067 62.7792C55.0695 62.49 56.1493 63.2715 56.3122 63.1607C54.2125 61.53 57.332 62.7607 59.3632 62.773C59.7317 62.7792 59.5431 62.373 59.1575 62.33C58.4119 62.25 58.6776 60.6623 59.5689 60.7361C60.2802 60.7977 60.743 61.5361 60.1688 61.69C59.526 61.8623 60.2373 62.3361 60.2459 61.9115C60.2459 61.7269 60.863 61.5731 61.0001 62.0961C61.2915 63.2407 61.7286 60.7177 62.997 61.53C63.8283 62.0592 64.9081 61.8807 64.9081 62.7177C64.9081 63.1853 66.1337 62.7792 66.2279 62.6684C66.4422 62.4346 67.7106 62.933 67.9334 62.6684C68.1048 62.4653 70.5816 62.2069 70.3417 62.89C70.2474 63.1669 71.4301 62.3669 71.1473 63.1115C71.0273 63.4253 71.2415 63.2961 71.73 63.1607C72.15 63.0438 72.0557 63.5669 72.7328 63.3884C72.9813 63.3207 73.127 62.4161 74.0097 63.0684C74.7296 63.5976 74.4125 62.4346 74.9096 62.4407C75.141 62.4407 75.1924 62.3853 75.141 62.213C74.9953 61.7761 77.4293 61.6715 76.4608 62.41C75.6381 63.0376 76.5722 63.1976 76.6665 62.6746C76.7436 62.213 77.6949 62.2623 77.9092 62.4223C78.7748 63.0561 78.1406 61.893 78.8091 61.8992C79.7946 61.9054 78.8948 63.4315 79.8546 62.9761C80.6431 62.6007 80.0603 62.2561 80.2317 62.0592C80.4545 61.8007 81.3887 62.4223 81.5087 62.17C81.6201 61.9361 82.1857 62.0223 82.1857 62.2807C82.1772 62.5577 82.4514 62.5823 82.8285 62.3361C83.317 62.0223 84.7225 62.73 84.0712 62.2007C83.3684 61.6284 84.2169 61.7884 84.3283 61.5792C84.5854 61.0684 85.0482 62.4838 85.331 62.7977C85.5881 63.0807 86.2737 62.7115 85.8624 62.5946C84.8339 62.3054 86.7365 60.2685 86.7194 61.61C86.7108 62.0592 86.9165 62.3115 87.1051 62.09C87.4222 61.7269 87.6278 63.3453 88.1163 62.8284C88.5449 62.373 89.8475 63.6161 90.4989 63.6223C91.0045 63.6284 89.9161 62.8653 91.9044 62.8407C93.1214 62.8284 93.9698 61.9915 93.9527 62.7238C93.9441 63.0253 94.2955 63.1361 94.2612 62.9453C94.1155 62.1207 95.0668 62.8284 95.2639 62.0961C95.4096 61.5731 96.2838 61.813 96.4123 61.9546C96.618 62.1823 96.4723 61.5177 96.7209 61.4131C97.3636 61.1361 94.784 60.3669 95.9838 60.1454C96.918 59.9731 96.1895 60.1331 97.0894 60.6561L97.5865 60.9454C96.9694 59.1054 99.4719 61.1792 99.4719 61.2838C99.4633 61.7084 98.2292 60.9023 98.075 61.1915C97.9807 61.3761 98.0578 61.0869 98.7092 62.6807C99.0691 63.5484 99.2834 61.4931 99.8661 61.4992C100.475 61.5054 100.106 61.2469 100.5 60.8715C100.963 60.4285 102.172 63.5546 102.197 62.1577C102.223 60.4346 105.051 61.7454 103.937 62.0223C103.68 62.09 103.886 62.3115 104.22 62.1146C104.768 61.7946 105.514 63.013 105.308 62.1884C105.094 61.3084 107.811 62.5577 108.068 62.5269C109.473 62.3423 106.714 62.3792 106.731 61.4931C106.739 61.1977 111.256 60.5515 111.342 60.5515C112.447 60.5577 110.87 61.0869 111.325 61.3577C111.839 61.6654 110.759 61.8315 111.247 62.0592C111.616 62.2253 113.51 61.3577 113.501 61.8561C113.501 61.9115 113.39 61.9607 113.261 61.9607C112.379 61.9546 113.064 63.5115 113.561 63.2592C114.23 62.9269 112.807 62.1884 113.673 62.1946C114.556 62.2007 113.133 61.3638 113.021 60.3238C115.344 60.65 113.69 58.6993 113.544 59.2408C113.296 60.17 112.584 59.0562 112.49 59.0562C111.719 59.05 113.176 58.4469 112.764 58.2562C112.199 57.9977 114.701 57.3024 114.178 57.8993C113.827 58.2993 114.967 59.0192 114.967 58.3608C114.967 57.7331 115.001 57.6654 115.224 57.727C115.455 57.7947 115.858 57.5362 116.038 57.1977C116.364 56.6193 117.838 57.6039 116.852 57.5485C116.175 57.5116 116.141 58.1885 116.33 58.4408C117.092 59.4808 115.687 59.1116 115.49 59.5362C115.395 59.7331 115.953 59.5854 115.944 59.6592C115.944 59.6839 115.455 59.8808 115.55 60.1823C115.627 60.4162 115.593 60.4592 115.387 60.4038C115.181 60.3485 115.13 60.41 115.121 60.7115C115.113 61.4931 116.441 60.1515 116.818 60.6131C116.981 60.8038 116.184 61.2715 116.818 61.1054C116.998 61.0561 117.049 61.0808 116.981 61.1669C116.912 61.2408 116.964 61.3023 117.092 61.3023C117.564 61.3084 116.672 60.4346 118.361 60.6931C119.106 60.81 118.875 60.3485 119.243 60.7054C119.535 60.9884 119.518 61.0377 119.064 61.1792C117.384 61.7146 121.369 61.8192 120.932 61.2284C120.572 60.7423 122.123 60.8285 122.029 61.2961C121.943 61.7207 124.009 61.5607 122.852 61.29C122.414 61.1854 122.183 60.0039 122.132 59.9423C121.78 59.53 124.146 60.7546 124.154 60.2746C124.163 59.9792 123.631 60.1885 123.777 59.9115C123.949 59.5854 124.634 60.0531 124.643 59.69C124.668 58.3485 125.911 59.8869 126.014 59.8992C126.828 60.0162 126.708 59.1423 126.28 59.2346C125.543 59.3946 125.688 58.4716 125.62 58.4039C125.114 57.9547 126.288 58.207 126.22 58.6439C126.16 59.0316 127.582 59.0931 127.651 59.2285C127.985 59.8746 128.079 58.8408 128.268 58.8408C129.099 58.8469 128.465 59.6223 128.688 59.9546C129.434 61.0684 129.082 59.5423 129.271 59.5423C129.811 59.5485 129.751 60.2315 130.359 60.1577C130.65 60.1208 131.756 60.3546 129.708 60.7792C128.328 61.0684 130.291 61.1054 130.256 61.3208C130.119 62.0838 130.582 61.8746 130.59 61.4131C130.599 60.9023 131.49 60.4777 131.37 60.8838C131.173 61.5669 133.102 60.0838 132.81 61.0684C132.596 61.7823 133.976 61.2715 133.282 60.8961C132.605 60.5331 133.821 60.0531 132.862 59.6715C131.867 59.2777 133.881 58.6869 134.756 59.5546C135.167 59.9608 134.996 59.2039 135.15 59.0008C135.253 58.8716 134.121 57.8931 135.124 57.9793C136.684 58.1147 134.747 61.3146 135.416 61.3208C135.578 61.3208 136.058 60.5146 136.667 60.5208C136.984 60.5208 136.77 60.2685 136.581 60.3485C135.21 60.9146 136.795 57.7823 137.412 58.3546C137.884 58.7977 137.584 58.8839 138.167 58.9885C140.232 59.3577 138.955 59.3946 140.189 59.8931C138.527 60.33 140.746 61.6346 140.755 60.7915C140.763 60.1946 142.143 60.6008 141.363 60.01C140.035 58.9946 142.82 60.0346 142.683 59.2654C142.615 58.8962 143.137 58.8654 143.257 59.2346C143.54 60.1023 147.08 59.6162 147.088 59.7392C147.105 60.0839 148.117 60.4285 147.98 60.0285C147.637 59.0131 150.268 60.3485 149.231 58.3423C149.077 58.047 149.608 58.1823 149.796 58.4839C150.062 58.9146 150.345 58.8593 150.293 58.3854C150.148 57.0931 151.502 58.9269 151.245 59.0316C150.791 59.2162 151.073 60.6377 150.233 60.6315C149.454 60.6254 150.576 60.1454 150.293 59.8192C149.728 59.1731 149.454 61.3084 150.002 60.9946C150.371 60.7792 150.859 61.4746 150.979 61.1915C151.399 60.2438 150.713 60.4162 151.373 59.9854C151.896 59.6408 152.033 59.6469 152.162 60.01C152.367 60.6192 153.859 59.4192 153.833 60.89C153.987 60.7792 155.024 60.09 154.004 60.0777C152.487 60.0654 156.764 59.7762 156.901 59.8069C157.527 59.9485 156.824 60.3362 157.227 60.5085C157.373 60.57 157.364 60.6192 157.201 60.6931C156.507 61.0192 159.472 61.5546 159.267 61.1177C159.164 60.9085 158.512 61.13 158.512 60.8777C158.521 60.5392 157.27 60.2377 157.998 60.2315C158.195 60.2315 158.529 60.1085 158.718 59.9792C159.472 59.45 161.032 59.8069 160.466 59.5485C160.261 59.45 160.261 59.4254 160.458 59.3331C160.989 59.0931 161.246 60.2992 161.76 59.45C162.232 58.6685 164.349 58.5146 162.746 59.6162C161.666 60.3546 162.283 60.6623 162.703 60.2808C163.577 59.4808 163.44 61.3884 163.912 60.9392C164.229 60.6377 164.957 60.7792 165.129 60.4777C165.274 60.2254 167.091 58.9454 166.123 58.4962C165.403 58.1639 166.963 57.9916 167.168 57.93C167.948 57.6962 166.174 60.0777 167.194 59.4869C167.623 59.2408 167.477 60.1638 168.042 59.9177C168.197 59.85 167.837 58.4593 168.42 58.4593C168.66 58.4593 168.66 59.1546 168.985 59.1608C169.302 59.1608 169.242 59.4316 168.865 59.6531C168.42 59.9177 168.437 60.0839 168.925 60.09C169.251 60.09 170.151 59.2346 170.159 59.7885C170.176 60.7423 173.896 60.5885 173.93 60.5269C174.136 60.1331 174.427 60.1085 174.804 60.4408C175.276 60.8592 175.696 61.1361 175.559 60.5885C175.301 59.5608 176.133 60.1146 176.124 60.4408C176.116 60.7177 179.355 60.3177 179.347 60.6992C179.347 60.8838 179.012 60.9023 179.055 60.9269C179.544 61.2838 179.509 60.3054 179.664 60.2377C180.281 59.9731 179.201 59.9915 179.201 59.77C179.201 59.5854 181.421 59.0869 181.044 59.7639C180.898 60.0223 181.918 61.05 181.935 60.1454C181.943 59.7946 182.535 60.2192 182.449 59.5546C182.423 59.3885 183.195 59.4562 183.486 59.2839C183.906 59.0377 184.446 59.9423 183.606 60.0038C183.075 60.0408 182.852 60.4346 183.357 60.4408C185.843 60.4592 185.003 57.0993 185.937 57.6777C186.134 57.7947 186.229 57.7947 186.434 57.6777C187.026 57.3454 188.465 58.8531 188.157 58.8593C189.897 58.8346 188.26 57.2408 189.562 57.2531C189.597 57.2531 189.554 59.2346 189.922 59.3331C190.248 59.4254 190.248 59.4254 189.871 59.5669C189.528 59.6962 189.52 59.7269 189.751 59.9054C190.111 60.1885 189.34 60.6069 190.094 60.6131C190.419 60.6131 190.325 59.6408 190.856 59.5362C192.296 59.2654 192.159 60.2131 192.613 59.3946C192.87 58.9269 194.413 59.2654 194.602 58.7854C194.687 58.5516 194.122 58.1639 194.37 57.5116C194.576 56.9701 195.827 57.61 195.424 57.8931C195.142 58.09 195.921 59.2408 196.83 59.1054C197.953 58.9393 198.098 60.3362 196.993 59.6039C196.47 59.2531 195.022 60.7977 196.213 60.1577C196.83 59.8254 197.301 59.85 196.933 60.1946C196.59 60.5146 196.967 60.1023 197.618 60.1085C198.45 60.1146 198.373 58.5393 198.801 59.3639C198.955 59.6715 199.787 59.45 199.178 59.8746C199.05 59.9608 200.112 60.9146 200.104 60.0654C200.104 59.5177 200.747 59.45 200.429 59.4377C200.275 59.4315 199.512 58.127 200.318 58.6316C200.558 58.7793 200.575 58.7669 200.515 58.5023C200.455 58.2439 200.507 58.207 200.858 58.2131C201.432 58.2254 201.561 59.3269 201.638 59.3269C201.938 59.3269 201.946 58.9577 202.169 59.2531C202.392 59.5485 202.743 59.4869 202.752 59.1546C202.761 58.4716 204.252 58.65 203.318 59.3269C202.915 59.6223 204.055 60.0469 203.849 59.6408C203.609 59.1546 204.432 59.8746 204.92 59.69C205.734 59.3823 204.74 59.5054 204.32 59.2654C203.746 58.9331 204.415 58.8716 204.655 59.0254C205.006 59.2408 205.263 59.0377 204.955 58.7854C204.706 58.5823 204.706 58.57 205.015 58.4531C205.803 58.1577 205.452 59.0869 206.094 58.6439C206.351 58.4716 207.628 58.4593 207.637 58.3054C207.646 58.01 205.657 58.41 206.549 57.7823C206.891 57.5362 206.129 57.45 206.591 57.1239C206.926 56.8901 206.917 56.767 206.583 56.6685C205.734 56.4285 207.38 56.5393 207.431 56.4778C207.586 56.3054 207.029 56.0531 207.14 55.9793C207.568 55.6778 207.431 56.3301 208.057 56.4531C208.888 56.6131 207.628 56.9516 208.211 57.3824C208.725 57.7639 208.288 58.0777 208.04 57.7762C207.586 57.2224 207.766 58.5023 208.271 58.5823C209.377 58.7669 207.946 59.3208 208.528 59.4869C208.991 59.6162 209.043 59.7885 208.708 60.1269C207.971 60.8592 209.505 60.1392 209.582 59.7515C209.831 58.5762 210.397 59.9792 210.757 59.1916C210.971 58.7239 211.571 59.0254 211.382 59.5116C211.185 60.0285 213.516 60.33 212.119 59.8992C211.031 59.5608 212.813 59.3146 211.716 58.6746C211.057 58.287 212.145 58.01 212.154 57.6408C212.162 57.007 213.268 58.3731 213.285 57.6962C213.293 57.2716 214.116 57.5793 213.799 57.9485C213.748 58.01 213.302 58.9208 212.788 58.687C212.582 58.5946 212.531 58.97 212.873 58.9762C213.345 58.9823 212.659 59.37 213.259 59.4746C213.688 59.5485 213.405 59.5054 213.859 60.3115C213.885 60.2438 214.819 58.9762 214.176 58.7977C213.662 58.6562 213.988 58.3116 214.579 58.7116C215.025 59.0069 215.282 58.7854 214.87 58.4593C214.048 57.8193 215.385 58.1085 215.402 57.93C215.522 56.4593 215.924 57.4931 216.91 58.0839C216.13 58.2254 216.087 58.1823 216.344 58.5454C216.49 58.7423 216.456 58.7731 216.147 58.7485C215.839 58.7239 215.779 58.7731 215.727 59.0993C215.633 59.7577 215.984 59.2162 216.473 59.5792C218.016 60.7361 216.49 58.9946 217.253 59.2162C217.81 59.3762 217.776 58.6131 218.127 59.0623C218.324 59.3146 218.581 59.2162 218.478 58.9269C218.307 58.4408 219.978 59.0685 220.21 59.4192C221.032 60.6561 220.732 59.05 221.075 59.0562C221.264 59.0562 221.804 59.7331 222.061 59.1669C222.198 58.8716 222.464 58.8777 222.464 59.1792C222.464 59.4008 222.866 59.6223 223.038 59.4992C223.569 59.1239 220.938 57.7147 222.369 57.8316C223.86 57.9547 223.149 59.1423 224.092 59.05C225.437 58.9146 223.038 59.8439 224.332 59.9854C224.529 60.0039 224.709 60.1269 224.752 60.2623C225.326 61.8807 224.906 56.9639 225.609 56.6378C225.849 56.527 227.006 56.9147 227.014 56.5762C227.023 56.2255 228.008 56.9024 228.463 56.5208C229.123 55.9608 228.745 58.4654 229.568 57.3516C229.962 56.8162 229.294 57.6777 230.014 58.0716C230.777 58.49 229.902 58.3239 230.108 58.7239C230.262 59.0254 229.371 58.6193 229.654 59.1731C229.765 59.3946 230.511 59.4377 230.537 59.2285C230.734 57.2839 231.814 58.7977 231.119 58.7916C230.417 58.7854 231.308 59.5054 231.591 59.7823C232.362 60.5331 233.708 57.967 232.499 58.7362C232.122 58.9762 231.994 58.9639 232.002 58.687C232.011 58.367 231.642 58.3793 231.779 58.2131C231.925 58.0408 232.096 58.3054 232.242 58.047C232.534 57.53 232.696 58.2747 232.774 58.1393C233.511 56.8531 234.41 59.9054 234.419 59.4131C234.41 60.0039 236.253 57.0008 236.065 58.6746C235.97 59.4869 236.69 59.0623 236.433 58.5516C236.253 58.2008 238.91 58.3854 238.653 59.1608C238.567 59.4192 239.107 59.5485 238.97 58.8408C238.936 58.6439 239.475 58.9269 239.604 59.1731C240.29 60.4962 242.809 59.9792 242.801 60.4161C242.792 60.8592 244.309 59.7208 244.395 59.7269C245.235 59.7577 244.798 60.6069 245.389 60.1946C245.595 60.0531 246.366 59.6223 246.349 60.4777C246.477 60.3546 247.163 59.93 246.289 59.4562C244.943 58.73 246.88 57.7147 246.863 58.6069C246.854 58.89 247.172 59.4131 247.18 58.8962C247.189 58.1762 248.543 58.9085 247.703 59.3392C246.992 59.7023 251.157 60.7608 250.917 58.4162C250.822 57.5239 251.448 58.5516 251.697 58.2746C251.868 58.0839 251.911 58.1454 252.554 58.6193C249.006 59.6408 254.456 58.8654 252.974 59.5054C252.562 59.6839 253.094 60.1454 253.445 59.3331C253.985 58.0962 254.336 59.7823 254.979 60.09C256.059 60.6131 254.988 59.6839 256.273 59.6531C256.882 59.6408 256.642 58.7793 257.224 58.7793C257.43 58.7793 257.499 58.8346 257.439 58.9577C257.079 59.6408 258.656 57.8931 258.767 58.7977C258.827 59.2839 259.058 59.5054 259.273 59.2654C259.384 59.1423 259.453 59.1731 259.573 59.4192C259.933 60.1208 260.987 59.4377 259.95 59.0746C258.819 58.6808 258.099 57.2777 259.136 57.7331C259.598 57.9362 259.487 57.5485 259.298 57.4685C259.093 57.3762 258.853 56.8901 259.967 57.2285C260.43 57.37 260.301 56.607 260.704 56.607C261.201 56.6131 260.575 57.1854 261.244 57.1916C261.45 57.1916 261.544 57.1485 261.475 57.0685C261.398 56.9824 261.492 56.9701 261.75 57.0254C263.215 57.3516 260.233 58.3546 261.732 58.2131C262.409 58.1454 262.761 58.5762 262.598 58.0777C262.461 57.6777 262.761 57.6962 263.335 58.1208C264.526 58.9946 264.286 57.7208 264.749 57.8747C264.955 57.9485 267.217 57.9608 266.326 58.5762C264.432 59.8869 268.426 58.4469 267.492 58.0531C267.277 57.9608 265.743 55.8378 267.852 57.0377C267.937 57.087 269.72 57.8808 269.137 58.1331C268.897 58.2377 269.034 59.3577 269.308 59.4808C269.694 59.6592 269.788 59.5915 269.531 59.3269C268.674 58.4346 270.491 57.5362 270.174 58.207C269.986 58.6131 271.065 58.6931 271.065 58.527C271.074 58.1885 271.357 58.6869 272.985 58.7854C272.771 55.5055 273.808 58.97 274.596 57.7639C275.068 57.0439 275.196 57.1362 275.436 57.7823C275.805 58.7854 276.533 57.93 279.019 58.9269C280.236 59.4131 278.959 58.6562 279.344 58.2377C279.447 58.1331 280.964 57.1177 280.681 57.8993C279.678 60.7115 283.689 58.6377 282.558 58.8346C282.147 58.9085 281.067 56.5085 282.292 57.5731C283.501 58.6316 282.867 56.5331 283.801 57.727C284.118 58.1331 284.246 58.1639 284.401 57.85C284.521 57.5977 284.889 57.5547 285.078 57.7762C285.763 58.5946 284.641 58.0408 284.632 58.5516C284.615 59.4131 286.56 59.3023 286.569 58.5577C286.578 58.2439 286.62 58.2193 287.237 58.2254C288.394 58.2377 287.794 57.7639 288.197 57.77C288.669 57.7762 287.726 58.81 288.377 58.8162C288.626 58.8162 288.266 58.5208 288.994 58.3362C289.86 58.127 288.532 57.5424 289.123 57.5424C290.314 57.5547 290.503 58.5885 290.923 58.3239C291.154 58.1762 293.185 58.5085 293.194 58.287C293.194 58.2131 293.288 58.17 293.399 58.1885C293.537 58.207 293.588 58.0962 293.562 57.8439C293.502 57.2839 294.145 57.3947 294.085 57.7639C294.017 58.1823 295.182 58.047 294.368 58.4654C293.957 58.6746 295.088 58.81 295.465 58.5762C296.202 58.1147 297.719 59.2223 299.767 58.7362C300.17 58.6377 299.433 58.2993 299.887 58.1762C300.221 58.09 300.178 57.9116 299.81 57.8377C299.27 57.7331 299.459 57.5608 300.101 57.5731C301.104 57.5977 301.55 58.3054 301.01 58.1516C300.384 57.9731 301.13 59.2592 301.541 58.7239C301.747 58.4531 301.438 58.1577 302.133 58.5085C304.035 59.4623 301.55 56.5947 303.075 57.9547C304.549 59.2654 303.238 57.5116 303.581 57.2654C304.712 56.447 303.761 57.8931 304.952 57.8193C306.135 57.7516 304.626 59.1239 304.635 58.4285C304.644 57.7947 304.044 58.89 304.292 59.0008C304.395 59.0439 304.644 58.8593 304.944 58.9208C305.449 59.0131 305.158 58.1454 305.741 58.6623C305.963 58.8654 309.092 59.2592 308.123 58.8531C307.755 58.6993 307.746 58.3731 308.115 58.4777C308.337 58.5393 308.372 58.5023 308.286 58.25C308.08 57.6224 309.957 58.0962 310.103 57.2654C310.18 56.8039 311.131 56.6808 311.406 57.1054C311.731 57.6162 311.003 57.7331 311.466 57.7393C312.143 57.7454 312.04 58.49 312.331 58.5085C312.665 58.5331 312.811 58.5146 312.905 58.7916C313.3 59.9423 313.042 57.2839 314.328 57.2962C314.414 57.2962 316.308 59.8131 318.545 58.6993C319.324 58.3116 320.079 59.3146 319.856 58.5146C319.736 58.0962 319.736 58.0962 320.413 58.3362C321.047 58.5639 322.221 58.2993 322.213 58.9023C322.204 59.2408 322.478 59.1362 322.641 58.73C322.83 58.2808 323.292 58.1823 323.627 58.527C324.038 58.9577 324.664 58.4777 324.844 58.8162C325.152 59.4008 325.324 58.5393 325.709 58.5454C326.095 58.5516 325.624 58.7669 326.129 59.0069C326.386 59.13 327.68 58.6869 328.143 58.65C328.726 58.6008 330.92 59.1608 330.929 58.7054C330.929 58.4531 331.906 58.25 331.906 58.09C331.923 57.1239 335.839 59.5977 336.568 58.7546C336.679 58.6254 336.756 58.6254 336.945 58.7423C337.133 58.8593 337.219 58.8469 337.339 58.6993C337.922 57.9977 338.359 59.6346 340.124 58.4593C340.879 57.9608 339.31 56.9393 340.939 57.5239C341.856 57.85 343.63 57.1054 342.31 57.887C341.984 58.0839 341.984 58.0839 342.43 58.3854C343.664 59.2223 343.441 55.9731 344.307 57.37C344.478 57.647 346.921 58.1146 347.015 58.1023C349.243 57.77 350.289 58.6377 350.434 58.6377C350.717 58.6377 350.529 58.1085 351.283 58.6069C351.557 58.7916 351.574 58.7854 351.574 58.4962C351.591 57.5054 353.014 59.3454 353.4 58.6069C353.528 58.3731 353.828 58.3916 353.828 58.6131C353.82 59.13 354.394 58.1454 355.234 58.6008C355.971 58.9946 355.499 57.9177 356.134 58.0654C356.871 58.2377 356.811 58.7731 357.273 58.447C359.476 56.9024 357.411 58.2685 359.005 58.0962C359.699 58.0223 360.085 58.3177 360.033 58.4162C359.647 59.1362 361.919 57.3331 361.901 58.7731C362.776 58.207 362.724 58.2008 362.956 58.4346C363.23 58.7116 364.455 58.5823 364.164 58.1762C363.984 57.9177 364.275 57.2531 364.567 57.2531C366.161 57.2531 364.85 57.3393 366.701 57.9116C368.038 58.3239 367.506 57.7393 367.669 57.7454C368.166 57.7577 368.449 58.5331 368.526 58.4962C368.68 58.4285 368.475 57.8193 369.178 58.287C370.112 58.9085 368.295 56.8716 369.966 57.4254C371.466 57.9177 368.818 57.9116 370.806 58.127C371.783 58.2316 371.226 57.3024 372.126 58.1516C372.426 58.4346 372.537 58.4839 372.546 58.3423C372.554 57.887 373.24 58.3546 373.566 58.3977C374.585 58.5331 372.786 56.5147 375.348 56.5331C376.308 56.5393 374.671 57.2224 374.345 57.2224C373.968 57.2162 374.071 57.7393 374.508 57.5731C374.723 57.4931 374.842 57.4993 374.92 57.5916C374.997 57.6839 375.091 57.6654 375.237 57.5239C375.674 57.0993 375.648 58.2316 376.471 57.6593C376.779 57.4439 377.294 57.6531 377.156 57.9423C377.036 58.1946 378.039 58.6131 377.919 58.1147C377.799 57.6285 378.451 57.9054 378.416 58.0408C378.288 58.4777 379.616 57.2162 379.273 57.9423C378.956 58.6316 379.908 57.8377 380.216 58.1331C380.516 58.4285 380.396 58.2254 380.739 57.9054C381.227 57.45 381.613 58.6069 381.853 58.17C382.17 57.6039 382.17 58.4346 382.556 58.4162C383.044 58.3916 382.444 58.4285 382.77 57.5054C385.161 59.1485 386.892 57.4685 387.141 57.967C387.261 58.2008 387.604 58.1639 387.492 58.0346C386.961 57.407 391.914 58.97 392.163 58.1762C392.292 57.77 392.42 57.7516 392.711 58.09C392.883 58.287 392.943 58.3054 393.063 58.1762C393.174 58.047 393.251 58.0654 393.466 58.287C393.808 58.65 398.154 57.647 396.38 57.6347C394.254 57.6162 396.508 55.6716 397.374 56.3116C397.716 56.5639 397.639 56.6377 397.159 56.5454C396.637 56.447 396.422 57.647 397.965 57.45C398.102 57.4316 400.082 58.17 400.939 57.9793C401.924 57.7577 402.19 57.7577 402.293 57.9608C402.422 58.2316 403.15 57.8993 403.304 58.1885C403.621 58.8039 406.132 56.9885 406.115 58.0408C406.107 58.6008 408.884 57.5608 409.098 58.0654C409.449 58.89 410.538 57.5854 411.18 58.0531C411.412 58.2254 411.437 58.2131 411.437 57.9362C411.437 57.6716 411.48 57.647 411.763 57.7577C412.192 57.9239 412.894 57.6962 412.894 57.8747C412.886 58.3177 413.597 57.6593 413.743 57.6593C413.974 57.6593 413.631 57.7454 413.871 57.9608C414.086 58.1454 414.814 58.1885 414.84 58.0162C415.071 56.7177 414.908 58.2993 418.834 57.7762C419.596 57.6716 419.905 58.7546 420.256 58.1085C420.505 57.6408 422.699 58.9085 422.742 57.5854C422.75 57.1547 423.436 57.1485 423.359 57.5977C423.256 58.1885 424.361 57.647 424.353 58.0408C424.344 58.6377 424.798 57.7577 425.253 57.7577C425.63 57.7577 425.69 58.6008 425.913 57.4747C426.315 58.0716 426.298 58.1146 426.744 57.9916C428.475 57.5116 429.349 58.5146 429.358 58.0223C429.358 57.8685 430.438 57.8747 430.566 58.0346C430.935 58.4716 431.329 57.5547 431.638 57.9608C432.177 58.6746 432.666 57.5731 432.812 57.4808C433.489 57.087 433.986 58.3177 434.868 57.93C437.345 56.8347 435.348 57.4931 434.851 55.9547C437.148 57.3085 436.171 58.1823 436.883 57.5239C437.277 57.1547 437.474 57.8562 437.937 57.8562C438.091 57.8562 442.23 56.2316 440.379 57.6654C439.934 58.01 441.613 58.01 441.613 57.8316C441.622 57.3762 443.782 57.9916 443.936 57.9485C444.244 57.8623 444.142 56.8654 444.527 57.0439C444.87 57.2039 445.016 56.5147 445.256 56.9454C445.461 57.3024 445.187 57.8685 445.478 57.7454C445.821 57.5977 446.13 58.1085 446.13 57.7577C446.13 57.6531 446.061 57.5977 445.967 57.6347C445.873 57.6716 445.804 57.6347 445.804 57.5424C445.813 57.1793 446.764 57.1485 446.781 57.7393C446.79 58.2808 447.098 57.3762 447.732 57.53C447.818 57.5485 454.752 57.9547 453.063 57.5793C452.129 57.37 453.363 57.0254 453.749 57.4562C453.92 57.6531 454.666 57.6347 454.563 57.4377C454.374 57.0747 455.874 57.6654 456.423 57.5916C457.391 57.4623 456.097 56.0347 456.663 56.0408C456.817 56.0408 458.06 58.4346 458.077 57.4439C458.094 56.5208 460.048 58.4839 459.739 57.5977C459.517 56.9639 460.708 57.5854 460.836 57.45C460.939 57.3393 461.068 57.3393 461.368 57.4439C462.439 57.807 462.533 56.8224 463.416 57.6408C463.647 57.85 463.716 57.8623 463.93 57.7393C464.196 57.5854 465.704 58.287 465.156 57.7947C464.539 57.2408 466.047 57.5239 466.056 57.5116C466.398 57.1239 466.578 57.8623 466.604 57.8623C466.896 57.8623 466.998 56.6501 468.772 57.9362C469.158 56.4778 469.158 57.85 470.058 57.7085C470.478 57.6408 470.512 57.6593 470.461 57.9116C470.366 58.3362 474.48 57.5916 474.986 57.37C475.449 57.167 474.395 57.167 474.6 56.5701C474.883 55.7393 474.883 55.6101 474.574 55.6101C474.223 55.6101 473.923 55.087 474.42 55.2039C474.643 55.2593 474.729 55.2162 474.729 55.0562C474.737 54.7609 476.091 54.7486 475.44 55.087C474.6 55.5178 477.428 55.8624 476.571 56.0839C474.866 56.527 477.308 56.1578 476.82 57.0439C476.554 57.53 477.42 58.4962 477.428 57.8377C477.437 57.2777 478.44 58.0593 478.517 57.2654C478.56 56.7793 477.754 57.2777 477.763 56.8408C477.763 56.7793 479.579 55.6408 477.531 55.2408C476.066 54.9516 477.197 53.4993 478.303 53.4193C479.34 53.3393 477.977 55.3393 479.005 55.2101C479.417 55.1609 479.425 55.1732 479.314 55.5178C479.142 56.047 479.545 55.9239 479.554 55.6532C479.571 54.6378 481.962 56.3116 481.953 56.8777C481.936 57.8193 478.68 55.5424 479.631 56.6378C480.059 57.1362 479.288 57.1977 479.717 57.3024C480.077 57.3947 479.34 57.7331 479.665 57.7393C479.768 57.7393 479.845 57.8254 479.845 57.9423C479.845 58.1023 479.888 58.0962 480.034 57.887C480.488 57.2408 481.542 57.8623 481.671 57.5239C482.005 56.6316 482.416 58.5146 482.69 57.8131C482.896 57.2716 483.822 57.7639 486.221 57.8316C487.216 57.8562 487.721 56.8408 487.953 57.37C488.013 57.5177 488.51 57.4931 488.167 57.0008C487.498 56.047 488.535 56.4285 488.338 56.1885C488.253 56.0778 487.361 56.1824 487.773 55.3639C488.004 54.8962 487.584 54.8409 487.507 55.0009C487.027 55.9978 486.47 51.8624 488.99 53.4993C489.255 53.6716 489.272 53.6655 489.272 53.3886C489.272 53.1486 489.375 53.0809 489.778 53.0132C490.687 52.8717 488.69 49.9979 488.955 49.8071C489.735 49.2594 490.027 51.284 490.584 51.1671C490.858 51.1055 490.884 51.0563 490.738 50.8102C490.592 50.5763 490.635 50.4286 490.987 49.9548C491.424 49.364 489.829 48.9394 489.829 49.2902C489.812 50.0963 488.818 48.5394 489.41 48.5456C489.615 48.5456 489.847 48.3302 489.855 48.1333C489.864 47.7702 487.481 49.0563 488.227 47.6902C488.407 47.3641 488.184 46.6318 486.684 46.6687C485.613 46.6933 486.059 46.3179 486.273 46.3179C488.347 46.3364 473.349 41.0626 473.349 41.0442C473.358 40.6872 474.96 40.718 474.146 40.5211C473.777 40.4288 474.617 39.3088 475.209 39.7396C476.306 40.5457 474.754 37.8134 475.329 37.8196C475.671 37.8196 477.257 39.4134 476.409 39.4073C475.594 39.4011 476.691 40.2072 477.583 39.838C478.311 39.5365 478.842 40.8411 478.851 40.1765C478.851 39.9426 479.34 39.9796 479.34 40.1211C479.331 40.4411 480.188 39.7211 480.522 39.8196C481.062 39.9734 481.842 38.2811 481.971 38.2257C482.245 38.1088 481.336 37.5304 481.311 38.2011C481.302 38.3181 480.505 38.2996 480.505 38.1827C480.505 37.9242 481.062 38.0165 480.445 37.5304C479.674 36.9273 480.222 36.7304 480.445 36.995C480.754 37.3642 481.379 36.8104 480.916 36.5273C480.128 36.0412 481.508 36.0596 481.499 36.3919C481.491 36.755 481.756 36.1335 482.279 36.4719C483.11 37.0135 484.653 38.0165 483.573 37.8011C483.153 37.7211 483.076 37.9981 483.693 37.8996C486.093 37.5119 483.865 37.1981 484.379 36.755C484.662 36.515 485.442 36.5089 485.27 36.0104C485.142 35.6412 485.536 35.8935 485.544 35.5304C485.544 35.3458 485.622 35.3089 485.87 35.3643C486.307 35.4627 487.601 32.5397 487.867 32.5397C488.81 32.5458 487.216 31.8935 487.224 31.4074C487.224 31.2966 488.947 29.5551 488.501 31.4382C490.241 29.8751 489.255 31.6289 490.207 31.9243C491.115 32.2012 490.498 32.5028 490.841 32.5028C491.852 32.5089 491.475 31.8197 491.809 31.3582C492.195 30.8289 490.327 29.3397 491.929 29.9674C492.958 30.3674 492.846 30.5274 492.949 30.4043C493.515 29.7643 493.54 31.512 492.718 31.912C491.132 32.6874 496.249 32.0966 496.249 31.9735C496.249 31.7582 494.972 31.5797 495.983 31.4197C498.023 31.0874 496.48 32.3243 496.977 32.4597C497.414 32.5828 497.466 32.1581 497.954 32.1581C498.451 32.1643 497.868 32.0105 497.868 31.7274C497.886 30.9274 499.762 33.0258 500.397 32.232C500.714 31.8382 503.053 32.7551 503.456 32.0228C503.679 31.6166 504.647 31.7089 504.639 32.1397C504.63 32.5704 504.819 32.5705 505.162 32.1335C505.942 31.112 504.69 31.7028 504.33 31.0505C503.55 29.629 507.39 31.4259 507.416 30.0351C507.441 29.3151 504.527 29.7766 504.545 28.9828Z" fill="#FF4D4D" fill-opacity="0.4"/>
</svg>
