<svg width="64" height="53" viewBox="0 0 64 53" fill="none" xmlns="http://www.w3.org/2000/svg">
<path d="M4.89785 39.2027C5.19521 39.153 5.33736 39.8377 5.82909 39.527C6.08651 39.3682 6.92658 39.5779 6.95269 39.4429C6.96248 39.3923 7.07493 39.4195 7.20239 39.5043C7.46558 39.6762 7.95757 39.4766 7.89909 39.2156C7.85062 38.993 8.04706 38.9016 8.13351 39.1082C8.22828 39.3394 9.00495 39.3133 9.22582 39.0731C9.54558 38.7274 9.56186 39.2966 9.89485 38.9501C10.0152 38.8239 10.0879 38.8088 10.1228 38.8986C10.1511 38.9778 10.2387 38.998 10.3179 38.9491C10.6017 38.7666 11.3394 39.0097 11.0397 38.7787C10.5976 38.4275 11.8675 38.0378 11.9588 38.8505C12.0634 39.7515 12.7182 39.1842 13.0002 39.6415C13.133 39.8567 13.5296 39.8572 13.4745 39.646C13.4179 39.4433 13.5796 39.3732 13.6941 39.5477C13.8136 39.7414 13.8973 39.5115 14.174 39.7939C14.5501 40.171 14.6363 39.6127 14.9492 39.8653C15.0436 39.9408 15.156 39.9235 15.2483 39.8294C15.3307 39.7414 15.405 39.6956 15.4232 39.7363C15.5113 39.9123 15.8705 40.1512 15.9099 40.06C15.9937 39.8746 16.5702 39.7344 16.6598 39.8797C16.7759 40.068 16.9706 39.9182 16.8167 39.8349C16.6628 39.7516 16.8674 39.618 16.957 39.7632C17.0598 39.93 17.0969 39.5581 17.5845 39.5841C18.1234 39.6156 18.2034 39.2246 18.2669 39.5048C18.307 39.6806 18.6085 39.97 18.6655 39.6526C18.7308 39.3152 18.807 39.3722 19.629 39.6302L19.3319 39.1375C19.5553 39.2448 20.2303 39.5192 19.9966 39.2401C19.8408 39.0539 19.8886 39.0096 20.1763 39.0772C20.6641 39.1922 20.658 38.7281 20.7315 39.0467C20.8635 39.6263 21.0153 38.8419 21.143 39.0379C21.2094 39.1455 21.2242 39.1364 21.2205 38.9753C21.2144 38.5111 21.6525 39.2213 21.8635 39.0094C21.908 38.9597 21.989 38.9914 22.0421 39.0775C22.2213 39.368 22.4296 38.7196 22.7917 38.7859C22.8926 38.8054 23.0181 38.7874 23.0511 38.7522C23.5771 38.2421 23.4551 39.0526 24.1349 38.6258C24.4781 38.4067 25.0912 39.0238 25.0934 38.5843C25.0944 38.3311 25.1259 38.3711 25.6752 38.619L25.8387 37.8869C25.93 38.7441 25.8609 38.1999 26.21 38.3337C26.4895 38.4435 26.7135 38.1419 26.838 38.3326C26.9309 38.4832 27.4039 38.6296 27.243 38.3798C27.1102 38.1646 27.2885 38.0769 27.7167 38.1396C28.0903 38.1914 28.2836 38.139 28.0899 38.0356C27.936 37.9523 28.2363 37.7522 28.3029 37.9266C28.3794 38.1171 28.4962 37.9187 28.6748 37.9645C28.8402 38.0111 28.9286 37.6669 29.0381 37.8444C29.1808 38.0758 29.4419 37.4022 29.7235 37.6816C30.035 37.9871 30.0401 37.3749 30.3431 37.6113C30.608 37.8193 30.9735 37.2151 30.9823 37.4622C30.993 37.7675 31.4919 37.0142 31.8067 37.325C32.1214 37.6359 32.1165 36.9631 32.2276 37.1322C32.2475 37.1645 32.2986 37.1033 32.3281 36.996C32.3773 36.832 32.4384 36.8314 32.6536 36.9808C33.3208 37.4531 32.7957 36.2916 33.945 36.5705C34.0409 36.593 34.0294 36.6076 33.9203 36.608C33.798 36.6092 33.7848 36.6322 33.8841 36.6823C34.0893 36.7934 34.186 36.4516 34.2723 36.5914C34.3486 36.7152 34.5545 36.4619 34.8424 36.5962C35.2279 36.7669 35.0481 36.2095 35.2963 36.346C35.4982 36.4517 35.6726 36.1362 35.9061 36.3264C36.272 36.6205 36.0217 35.6163 36.7922 35.7798C36.9972 35.8241 37.0649 35.7898 37.1026 35.6403C37.1452 35.4878 37.2063 35.465 37.3949 35.5492C38.2651 35.9407 37.8959 34.9876 38.4929 35.1467C38.7492 35.2188 38.8285 35.1922 38.876 35.0366C38.9202 34.8756 38.9912 34.8467 39.2211 34.898C39.7403 35.0085 39.4663 34.4868 39.746 34.6411C39.8453 34.6913 39.8766 34.6645 39.8713 34.5341C39.8693 34.3868 39.932 34.3555 40.2494 34.3603C40.889 34.3669 40.6846 33.9136 41.0153 34.0067C41.2551 34.0742 40.9904 33.9552 41.4347 33.8446C41.6313 33.7976 41.717 33.7372 41.6542 33.7018C41.5995 33.6686 41.6126 33.6011 41.6819 33.5584C41.9707 33.3728 42.1968 33.9167 42.2237 33.4618C42.2537 32.8789 43.1032 32.9045 43.1696 33.0121C43.299 33.2219 43.631 32.475 43.7742 32.9065C43.9074 33.2997 44.416 33.1494 44.2342 32.4668C44.1925 32.3217 45.0451 32.2414 44.9098 32.3323C44.5782 32.5592 45.3374 32.8039 45.4222 32.3431C45.4809 32.0172 46.2358 31.9006 46.1927 31.8307C46.0633 31.6208 45.8625 31.9823 45.8761 31.4615C45.8806 31.2804 45.9134 31.1785 45.9499 31.2377C46.0263 31.3614 46.7069 31.2461 46.8651 31.0817C47.0432 30.905 47.0527 31.3968 47.3299 31.2258C47.5824 31.07 47.565 31.3853 47.7678 31.1934C47.8469 31.1223 47.8532 30.9773 47.7868 30.8697C47.6607 30.6652 47.8403 30.4579 48.0604 30.5598C48.244 30.6471 48.9241 30.3093 48.9312 30.498C48.9366 30.6729 49.3568 30.2132 48.8028 30.035C48.639 29.9801 48.6373 29.9663 48.7926 29.9299C48.8917 29.9133 48.9609 29.8261 48.9442 29.7547C48.8725 29.4944 49.5268 30.1009 49.6251 29.7506C49.7201 29.4172 50.265 29.8684 50.3331 29.3362C50.4012 28.8263 50.9244 29.2091 50.8476 28.9074C50.8075 28.7316 51.0335 28.5551 51.1247 28.6919C51.2044 28.821 51.4733 28.6477 51.3937 28.5186C51.3041 28.3733 51.5863 28.2215 51.6858 28.3607C51.7339 28.4276 51.7436 28.3102 51.7034 28.0899C51.6246 27.6632 51.8737 27.4798 52.0795 27.8134C52.2487 28.0878 52.4535 28.0431 52.5337 27.7189C52.5975 27.4567 52.6124 27.4475 52.8506 27.5457C53.0971 27.6462 53.0987 27.6377 53.0155 27.392C52.9522 27.2008 52.9752 27.1494 53.1108 27.1698C53.5886 27.2464 53.2071 26.6945 53.3276 26.6127C53.4711 26.5242 53.4718 26.7912 53.6797 26.6629C53.9536 26.4865 54.0623 26.984 54.1589 26.6199C54.2047 26.4505 54.2725 26.4606 54.3721 26.6443C54.4336 26.7549 54.8079 26.4201 54.8685 26.197C54.9078 26.0614 54.9556 26.017 54.9988 26.0869C55.2426 26.4713 55.5686 25.2824 55.5862 25.732C55.595 25.9346 55.8321 25.5655 55.8612 25.3025C55.8838 25.0954 55.8937 25.0893 55.9421 25.2674C56.1088 25.8702 56.2506 25.0474 56.3497 25.0531C56.5448 25.0591 56.075 24.8958 56.2972 24.5359C56.3796 24.4034 56.399 24.2577 56.3444 24.2023C56.1422 23.9854 56.4546 23.9932 56.7129 24.2127C57.1849 24.6122 56.9408 24.1389 57.4212 23.9317C57.7679 23.7847 57.3238 23.2863 57.2594 23.326C57.1456 23.3962 57.0112 23.2117 57.1861 23.0964C57.3792 22.9773 57.4479 23.3434 57.6376 23.2189C57.7119 23.1731 57.8144 23.2064 57.8658 23.2787C57.982 23.467 58.3995 23.2243 58.3906 22.9773C58.3767 22.711 58.5992 22.4401 58.6526 22.6597C58.676 22.7641 58.7438 22.7965 58.8346 22.7331C59.0475 22.6018 58.821 22.6004 59.0251 22.2665C59.249 21.8982 58.8274 21.824 59.1728 21.819C59.5843 21.8102 59.0608 20.6403 59.4086 20.9382C59.5991 21.103 60.0927 20.895 60.1813 20.6176C60.2157 20.5072 60.257 20.4966 60.3134 20.5881C60.4063 20.7387 60.5974 20.4724 60.1074 20.1433C59.6091 19.8119 59.8119 19.5977 59.8965 19.7238C59.9993 19.8906 60.1622 18.9137 60.2367 19.655C60.2807 20.0809 60.6568 19.7599 60.532 19.4135C60.3789 18.988 60.9303 18.7741 60.465 18.4076C59.9848 18.0279 60.9036 17.9663 60.4559 17.3735C60.2967 17.1597 60.2766 17.0607 60.3723 16.9942C60.671 16.8026 59.6792 16.0478 60.1774 15.6811C60.2186 15.6482 60.2085 15.5653 60.1555 15.5015C59.9566 15.2899 60.3548 15.2374 59.8301 14.9075C58.8552 14.2908 59.8259 13.8926 59.0157 13.7091C58.8569 13.6733 58.7129 13.5616 58.6696 13.4472C58.5781 13.1769 58.2262 13.2379 58.1509 13.5369C58.0478 13.957 57.9245 13.5132 57.2134 14.0112C56.0651 14.8086 55.9821 13.976 55.8525 14.3976C55.7657 14.6888 56.0372 14.9075 55.8669 14.864C55.6222 14.7996 55.7738 14.6244 55.3755 14.6324C54.9029 14.6417 54.7071 14.3465 54.8586 14.7804C54.9618 15.0807 54.7328 15.3631 54.4879 15.2319C54.425 15.1964 54.3045 15.2559 54.2254 15.3493C54.0655 15.5444 54.0704 15.4968 53.8159 14.8517C53.217 15.9193 52.9272 15.0062 52.7193 15.1345C52.6648 15.1681 52.6649 15.2126 52.7228 15.2289C52.8717 15.2707 52.7883 15.6341 52.6035 15.7555C52.3757 15.896 52.5619 15.6327 51.9999 15.6079C51.2281 15.5864 51.0877 16.2895 50.8836 15.9697C50.721 15.7061 50.38 16.1615 50.2722 15.9978C50.1892 15.8633 50.1978 15.9991 49.8211 16.0532C49.3998 16.1125 49.7216 15.914 49.6121 15.7365C49.5258 15.5966 49.1464 15.8678 49.0924 16.1016C49.0597 16.248 49.0251 16.2694 48.934 16.1993C48.7684 16.0638 48.7045 16.2815 48.3109 16.1529C48.1306 16.0933 47.9588 16.125 47.8417 16.2344C47.7395 16.3345 47.6288 16.3657 47.5956 16.3119C47.506 16.1666 47.2933 16.3424 46.7722 16.1513C46.1619 15.9262 46.2689 16.4544 45.9575 16.1489C45.6974 15.8934 45.495 16.2633 45.2764 16.0862C45.0661 15.9114 44.8883 16.1993 44.7954 16.0487C44.6527 15.8173 44.5823 16.091 44.7038 16.4097C44.7903 16.6386 44.7822 16.7252 44.6796 16.6697C44.4148 16.5285 44.4325 16.9781 44.1509 16.721C43.8908 16.4878 43.9097 16.751 43.6265 16.5024C43.4294 16.3268 43.1092 16.5169 43.2865 16.7046C43.424 16.85 43.2161 16.956 42.9877 16.8518C42.6023 16.6811 42.0716 17.3054 41.8145 16.8996C41.6519 16.636 41.2881 17.254 41.0675 16.9073C40.7141 16.3455 40.7409 17.8514 39.6861 17.0167C39.244 16.6655 39.0291 16.6495 39.2316 16.9777C39.4075 17.2628 38.975 17.4702 38.7725 17.142C38.5486 16.79 37.2359 16.5896 37.5163 17.0331C37.6457 17.2429 36.5925 18.4273 36.7915 17.3539C36.909 16.7244 36.4599 16.9271 36.3481 17.1446C36.1951 17.4395 36.172 17.4463 35.9847 17.2202C35.8504 17.058 35.7579 17.0631 35.4807 17.2341C35.0104 17.5241 34.9402 17.2109 34.5804 17.4032C34.2437 17.5885 34.233 17.261 34.0449 17.377C33.8469 17.4991 34.0835 17.628 33.9449 17.7135C33.7964 17.8051 33.842 17.5244 33.7034 17.6322C33.6572 17.6681 33.6673 17.751 33.7253 17.8117C33.8629 17.9572 33.6995 18.0579 33.5372 17.9278C33.4428 17.8523 33.4131 17.8706 33.3772 18.0339C33.3412 18.1972 33.285 18.1948 33.0565 18.0238C32.7519 17.7958 31.9768 17.7911 31.9856 18.0159C31.9891 18.088 31.9263 18.097 31.8402 18.0239C31.6216 17.8468 31.5 18.1372 31.2581 17.9002C30.9583 17.6024 30.682 18.1516 30.4255 18.0127C30.2914 17.9394 30.0041 18.0498 30.2853 18.1289C30.5747 18.2103 30.7802 18.4549 29.9538 18.4002C28.7703 18.3207 28.6039 19.2032 28.6935 19.3484C28.7964 19.5152 28.4283 19.7273 28.3487 19.5982C28.2458 19.4314 27.9378 19.8517 27.871 19.5661C27.8158 19.3105 27.1736 19.5878 27.2137 19.7413C27.2587 19.914 26.833 20.1989 26.7731 20.0353C26.7465 19.97 26.6638 19.9245 26.5828 19.9373C26.3499 19.9696 26.7471 20.2148 26.4136 20.3165C26.2649 20.3637 26.2353 20.4265 26.2984 20.5287C26.3581 20.6255 26.3368 20.6907 26.2245 20.708C25.98 20.7548 25.971 20.441 25.6819 20.4931C25.1533 20.5889 24.415 20.1011 24.4197 20.6849C24.4207 21.0853 24.3051 21.1417 24.1044 20.8274C23.8439 20.4161 23.4457 21.1222 23.4329 21.2787C23.3692 22.2834 22.6706 20.4195 22.5568 21.1878C22.5275 21.3841 22.4551 21.5105 22.3955 21.4804C22.2367 21.4001 21.7017 21.5964 21.7714 21.7094C21.8411 21.8224 21.4996 22.0776 21.3735 21.8731C21.2175 21.6203 21.0981 22.1024 20.8895 21.986C20.7075 21.8903 20.3928 22.2553 20.0702 22.12C19.6218 21.9361 20.0101 22.5656 19.6248 22.4616C19.256 22.3623 19.7264 22.7925 19.1383 22.9028C18.6461 22.991 18.7578 22.729 18.5338 23.0528C18.3164 23.3651 18.3164 23.3651 18.2332 23.1194C18.1416 22.8491 17.8921 22.8322 17.82 23.0921C17.7708 23.2561 17.7394 23.2606 17.6316 23.0969C17.4623 22.8225 17.2575 22.8449 17.3425 23.1267C17.4158 23.3785 17.1456 23.716 16.8917 23.3156C16.7656 23.1111 16.721 23.0941 16.6932 23.2375C16.6426 23.4989 16.5584 23.5286 16.3497 23.3454C16.1046 23.1252 16.0523 23.3506 15.6523 23.3448C15.1929 23.3311 15.3673 24.3673 15.2167 24.3116C14.8413 24.1793 14.7826 23.8293 14.5374 24.285C14.0291 25.2447 14.0775 24.0934 13.6106 24.3888C13.5363 24.4346 13.4553 24.4252 13.4188 24.366C13.3757 24.2961 13.3212 24.3296 13.2455 24.4729C12.9528 25.0397 12.9082 24.4135 12.0778 24.7624C11.3993 25.0472 12.1169 25.1913 11.9123 25.3249C11.744 25.4288 11.7165 25.6834 11.4169 25.4746C11.1636 25.2966 10.5011 25.4081 10.6193 25.766C10.7226 26.0885 10.4972 25.8116 10.3033 26.2951C10.0044 27.0291 10.1849 25.8483 8.39159 27.1178C7.85542 27.5005 7.7928 27.5763 7.93849 27.6795C9.19021 28.6231 6.78716 27.9069 7.08512 28.7778C7.16335 29.0043 7.0514 29.1774 6.94521 29.0052C6.84897 28.8492 6.70682 29.5161 6.39761 29.4469C5.77091 29.3062 5.77091 29.3062 5.66097 29.6265C5.60026 29.8051 5.59254 30.0252 5.65227 30.1221C5.81325 30.3941 5.47601 30.357 5.70618 30.5418C5.96617 30.7528 5.3893 30.715 5.4955 30.8872C5.62824 31.1024 4.76076 31.1696 5.2093 31.4425C5.52875 31.6391 5.38208 31.8112 4.99344 31.7019C4.75364 31.6344 4.65948 31.648 4.68782 31.7493C4.75795 32.0403 4.29505 31.9767 4.49911 32.2965C4.82264 32.8099 3.93987 32.7083 4.38396 33.1845C4.58943 33.4068 4.59455 33.4705 4.43466 33.6434C4.23523 33.8629 4.23763 34.166 4.44778 34.274C4.53879 34.3218 4.47117 34.3784 4.25982 34.4568C3.92629 34.5808 3.75706 34.9823 4.05773 34.9379C4.1519 34.9244 4.14537 34.9581 4.04968 35.0246C3.9177 35.1208 3.9263 35.2567 4.07716 35.4458C4.10534 35.4804 4.03772 35.537 3.92212 35.5712C3.41347 35.7215 4.52533 36.2389 4.23162 36.4275C3.97419 36.5863 4.11521 36.8038 3.92682 36.8086C3.58143 36.8137 4.79615 37.4978 4.36182 37.6246C3.99189 37.734 4.16549 38.4364 4.54042 38.3463C4.82782 38.2804 4.92737 38.4418 4.69307 38.5937C4.40926 38.7762 4.75793 38.7543 4.66751 38.9512C4.59854 39.1274 4.69466 39.2389 4.89785 39.2027Z" fill="#9BA2CC" fill-opacity="0.56"/>
</svg>
