<svg width="195" height="182" viewBox="0 0 195 182" fill="none" xmlns="http://www.w3.org/2000/svg">
<path d="M53.882 152.899C76.6547 172.968 114.972 153.83 131.284 141.753C156.17 127.933 174.125 118.755 182.881 87.7523C191.637 56.7499 157.679 28.058 118.98 20.1937C80.2818 12.3294 26.046 51.2506 17.9082 70.6382C9.77045 90.0258 25.4162 127.813 53.882 152.899Z" fill="#EA9374" fill-opacity="0.6"/>
<path d="M179.283 111.704C178.786 113.28 178.849 114.961 178.77 116.537C178.565 120.601 178.182 124.657 177.765 128.694C177.256 133.639 176.459 138.607 173.631 142.981C170.032 148.54 164.347 151.449 157.795 153.006C153.712 153.979 149.525 154.4 145.296 154.644C141.467 154.86 137.638 155.138 133.826 154.922C129.088 154.651 124.413 154.08 120.242 151.53C116.238 149.081 114.111 145.693 113.156 141.455C112.105 136.78 112.034 132.036 112.439 127.358C112.856 122.513 112.526 117.688 112.764 112.863C113.335 101.15 113.327 89.4248 113.719 77.7115C113.915 71.8472 113.531 65.9674 114.086 60.1378C114.649 54.2039 113.969 48.2623 114.507 42.367C114.962 37.4066 114.449 32.3458 116.088 27.4859C117.323 23.8236 118.711 20.2849 122.565 18.2219C127.174 15.7533 133.288 17.0861 136.996 21.6679C140.829 26.4042 140.111 33.1957 136.087 38.2875C135.198 39.4078 134.081 40.4122 133.038 41.4398C128.905 45.5194 124.042 49.1276 122.72 55.104C122.182 57.5456 121.548 59.9562 121.531 62.4557C121.502 66.7053 121.331 70.9625 121.577 75.2005C121.852 79.9715 122.461 84.8083 124.922 89.081C128.179 94.7445 133.572 97.978 140.295 99.3494C143.869 100.076 147.473 100.4 151.135 100.582C154.125 100.732 157.128 101.069 160.102 100.856C166.32 100.416 172.576 100.238 178.474 97.8389C185.689 94.899 189.488 89.73 190.752 82.7376C191.607 78.0052 191.449 73.2186 191.649 68.4476C191.991 60.2691 192.312 52.0984 192.52 43.9162C192.575 41.8068 192.904 39.6628 192.804 37.5419C192.712 35.6025 192.516 33.6207 191.966 31.7586C190.685 27.4318 187.069 25.5195 182.623 24.8203C178.215 24.1288 173.756 23.8313 169.285 23.5763C164.556 23.3059 159.81 23.5223 155.109 23.1591C152.244 22.9389 149.4 22.8655 146.551 22.9003C143.836 22.9312 141.129 23.2518 138.418 23.445" stroke="#222222" stroke-width="1.5" stroke-miterlimit="10" stroke-linecap="round" stroke-linejoin="round"/>
<path d="M121.336 60.4965C116.832 60.4965 112.324 60.3565 107.829 60.5353C103.254 60.7142 98.8216 61.5541 95.5969 64.9761C93.2291 67.4842 92.0219 70.5212 91.3972 73.7215C90.5953 77.8357 90.1099 81.9965 89.654 86.1572C89.2235 90.0575 88.3667 93.9227 88.0585 97.8308C87.8306 100.693 87.3663 103.524 87.13 106.382C86.8007 110.399 86.0452 114.396 86.328 118.436C86.6825 123.581 88.0332 128.372 93.2839 131.242C95.5801 132.498 98.1674 133.003 100.86 133.244C108.947 133.967 117.064 133.159 125.13 133.672C133.791 134.224 142.465 133.485 151.088 134.072C159.678 134.656 168.263 134.041 176.844 134.516C179.959 134.687 183.2 134.317 186.108 133.174C193.115 130.425 194.339 124.619 191.165 119.031C188.945 115.123 185.104 113.078 180.642 111.81C175.877 110.457 171.019 109.652 166.085 109.053C162.071 108.567 158.103 107.743 154.047 107.583C153.283 107.552 152.768 106.705 151.937 107.16" stroke="#222222" stroke-width="1.5" stroke-miterlimit="10" stroke-linecap="round" stroke-linejoin="round"/>
<path d="M180.553 97.074C180.218 95.3326 180.354 93.6029 180.523 91.8461C180.854 88.4292 180.9 85.0278 180.43 81.5838C180.108 79.2272 179.842 76.9171 179.105 74.6185C177.051 68.2026 172.236 64.4143 165.511 62.464C161.746 61.3727 157.824 61.1212 153.886 60.7884C149.418 60.4092 144.954 60.3395 140.542 60.5988C134.884 60.9316 129.243 60.7729 123.593 60.8852C122.886 60.9006 122.154 61.009 121.476 60.6994" stroke="#222222" stroke-width="1.5" stroke-miterlimit="10" stroke-linecap="round" stroke-linejoin="round"/>
<path d="M117.224 23.8148C114.761 23.8829 112.259 23.7267 109.838 24.0751C107.421 24.4235 104.966 24.7239 102.633 25.5929C99.1003 26.9105 96.1889 28.9049 94.6465 32.2368C92.5084 36.8543 94.0085 40.7069 98.2003 43.6423C101.412 45.893 105.063 46.9062 108.98 47.2466C110.319 47.3628 111.617 47.7232 112.994 47.6591C118.657 47.3908 124.23 46.8501 129.284 44.0708C129.622 43.8826 130.252 43.5422 130.742 44.0388" stroke="#222222" stroke-width="1.5" stroke-miterlimit="10" stroke-linecap="round" stroke-linejoin="round"/>
<path d="M130.742 43.4628C132.554 43.812 134.051 42.7099 135.838 42.5935C140.998 42.2597 145.078 44.1574 148.336 47.39C152.169 51.197 153.76 55.9625 154.428 61.1083C154.943 65.0744 154.887 69.0249 154.696 72.9483C154.436 78.2532 154.079 83.5504 153.875 88.8592C153.688 93.7838 153.109 98.6929 152.624 103.606C152.501 104.848 152.08 106.066 151.799 107.296" stroke="#222222" stroke-width="1.5" stroke-miterlimit="10" stroke-linecap="round" stroke-linejoin="round"/>
<path d="M151.84 107.703C148.671 107.101 145.45 106.964 142.234 106.721C137.468 106.362 132.68 106.263 127.931 105.898C122.148 105.448 116.383 105.601 110.626 105.7C107.525 105.753 104.42 106.583 102.058 108.827C99.4657 111.291 99.6579 114.327 101.887 116.643C104.779 119.649 108.781 120.639 112.975 121.233C118.296 121.987 123.669 121.824 128.986 121.542C136.071 121.168 142.717 119.496 147.795 114.575C149.905 112.529 151.096 110.092 152.053 107.517" stroke="#222222" stroke-width="1.5" stroke-miterlimit="10" stroke-linecap="round" stroke-linejoin="round"/>
<path d="M137.228 22.9629C135.203 23.496 133.013 23.3096 131.018 23.3226C126.596 23.3488 122.2 24.186 117.77 23.617" stroke="#222222" stroke-width="1.5" stroke-miterlimit="10" stroke-linecap="round" stroke-linejoin="round"/>
<path d="M179.568 97.9259C180.4 100.061 179.109 102.134 179.336 104.261C179.598 106.703 179.143 109.125 178.924 111.556" stroke="#222222" stroke-width="1.5" stroke-miterlimit="10" stroke-linecap="round" stroke-linejoin="round"/>
</svg>
