<svg width="60" height="39" viewBox="0 0 60 39" fill="none" xmlns="http://www.w3.org/2000/svg">
<path d="M2.56718 20.9658C2.55878 21.2152 2.95992 21.5414 3.05933 21.3656C3.11905 21.2502 3.22277 21.4967 3.0815 21.6489C2.9242 21.8196 3.25838 21.9809 3.12218 22.3293C3.03368 22.5444 3.04023 22.5426 3.18843 22.3391C3.3319 22.144 3.36357 22.1564 3.43998 22.4316C3.56479 22.8558 3.27138 22.7396 3.34052 22.9886C3.41511 23.2573 3.52473 22.9657 3.83194 23.3604C4.13914 23.755 4.18761 23.3957 4.64116 23.8345C5.3284 24.5048 5.03762 23.7879 5.27352 23.8495C5.53454 23.9253 5.15007 24.1167 5.42196 24.4859C5.61524 24.7498 7.13 25.1975 7.52865 25.108C7.82063 25.041 7.91891 25.1408 7.75688 25.3199C7.62216 25.4702 8.17037 25.8686 8.24905 25.5926C8.33355 25.2868 8.97794 25.1926 9.23019 25.4402C9.34886 25.5626 9.52869 25.6256 9.6299 25.5834C10.2878 25.309 11.3387 25.8148 11.5201 25.6797C11.7127 25.5345 12.3097 25.7781 12.3238 26.0071C12.326 26.0912 12.4039 26.1684 12.4982 26.1775C12.7381 26.2027 12.5565 25.752 13.1914 25.9286C13.4673 26.0073 13.464 26.1988 13.1888 26.2752C13.0119 26.3243 12.9805 26.3895 13.0701 26.534C13.3627 27.0033 11.4865 29.0418 12.2992 30.2913C12.5467 30.6743 12.8554 30.998 13.0352 31.061C13.2784 31.1488 13.321 31.2005 13.2183 31.3137C12.9856 31.5689 13.5648 31.5704 13.6958 32.0422C13.8006 32.3943 14.4734 32.504 14.5545 32.7708C14.6975 33.2605 16.4261 32.7241 16.5554 32.6812C17.254 32.4519 17.0148 33.0901 17.5172 32.6118C17.8682 32.2743 17.5129 32.1895 17.8045 32.2991C18.2079 32.4553 18.7023 31.9228 18.766 32.1521C18.8151 32.3291 18.431 32.344 18.4813 32.4994C18.5249 32.6567 19.0973 32.0743 19.6725 31.8581C20.2674 31.6365 20.0191 32.2419 20.1782 32.0777C20.2648 31.9831 20.7865 32.3112 20.6624 32.0421C20.416 31.5106 21.4017 32.1121 21.6031 31.668C21.7484 31.3524 22.3815 31.6495 22.3374 31.7959C22.2693 32.0336 22.8387 31.4661 22.9279 31.7872C23.0152 32.1018 23.4288 31.8881 23.4212 31.5303C23.3937 30.7192 24.0513 31.9694 24.3972 31.8169C24.7937 31.6433 24.8992 31.8963 25.2098 31.5913C25.382 31.4235 25.4643 31.4148 25.6445 31.5553C25.8516 31.7166 25.8629 31.7064 25.7792 31.405C25.6621 30.9576 26.1736 30.8932 26.1094 31.2216C26.0446 31.5219 26.4534 31.8248 26.6864 31.6472C26.7916 31.5686 26.8728 31.5813 26.8983 31.6731C26.9474 31.85 27.488 31.8905 27.5528 31.7172C27.6224 31.5356 28.0192 31.4395 28.0039 31.6132C27.9813 31.8877 28.7153 31.5568 29.2159 31.072C29.3495 30.9431 29.4027 30.9566 29.4573 31.1532C29.5537 31.5005 29.2305 31.2515 29.2832 31.4415C29.3596 31.7168 29.5941 31.5952 29.7409 31.2086C29.9153 30.7437 30.1578 30.6764 30.1453 31.0892C30.1333 31.5796 30.5833 30.9888 30.8498 31.3383C31.0514 31.607 31.256 31.3526 31.1421 30.9678C31.0785 30.7384 31.1047 30.6041 31.2226 30.5713C31.511 30.4913 31.5094 31.1975 31.6602 31.1557C32.1236 31.02 31.8302 30.7767 32.2274 30.6312C32.4382 30.5515 32.5212 30.5708 32.5128 30.6931C32.4942 30.9312 33.0793 30.6488 33.1795 30.3739C33.3616 29.8858 34.6706 30.8634 34.5203 30.3475C34.4657 30.1509 35.2942 30.415 35.5196 30.0066C35.7137 29.6633 35.9074 29.6236 35.9154 29.932C35.9223 30.2618 36.0926 30.2145 36.3854 29.7944C36.613 29.4701 36.613 29.4701 36.9781 29.6158C37.4317 29.8004 37.6421 29.7702 37.4663 29.5438C37.2461 29.259 37.9363 29.4062 37.9807 29.4645C38.1223 29.644 38.4169 29.1034 38.5472 29.5472C38.6072 29.7634 38.652 29.7722 38.8242 29.6044C39.0077 29.4264 39.0805 29.4344 39.1191 29.6496C39.2235 30.1782 40.3993 28.3624 40.5423 28.8521C40.5878 29.0159 40.9245 28.8307 40.9646 28.9749C41.021 29.178 41.7455 28.991 41.8005 28.7569C41.9017 28.3335 42.6152 28.8695 42.4958 28.465C42.4485 28.2947 42.4748 28.2874 42.7573 28.3642C43.2858 28.5139 43.8356 27.9519 44.1709 28.0918C44.5146 28.2363 44.2256 27.6531 44.4549 27.5894C44.6515 27.5348 44.2828 27.1219 44.6629 27.0164C45.0084 26.9134 44.8922 27.2068 45.0888 27.1523C45.3378 27.0831 44.8857 26.7004 45.4136 26.8221C45.8967 26.935 45.9717 26.646 46.1683 26.9726C46.2975 27.1837 46.3106 27.1801 46.374 26.8237C46.5467 25.8441 47.1612 25.9981 47.1509 26.368C47.1491 26.4885 47.8113 26.6364 47.9922 26.5509C48.1113 26.4967 47.8208 26.1114 47.9959 26.0558C48.186 26.003 48.127 26.2735 48.3039 26.2244C48.5005 26.1698 47.9203 25.6815 48.5737 25.8742C48.9046 25.9729 48.5267 26.4166 48.9723 26.2929C49.1165 26.2529 49.1805 26.1786 49.123 26.124C48.9727 25.9893 49.2184 26.1116 49.359 25.5503C49.6198 24.5321 51.1746 25.2509 50.5007 25.4168C50.0234 25.5282 50.3382 26.2807 51.1018 25.37C51.4571 24.9466 52.6164 24.3424 52.0736 24.2179C51.4096 24.0634 52.2317 23.694 52.2917 23.9103C52.3481 24.1134 52.7194 24.0527 52.8436 23.8135C53.0217 23.4888 52.9554 23.8601 53.2222 23.779C53.5808 23.6724 52.9227 22.8528 53.574 23.2155C53.8819 23.3841 54.5584 22.9986 55.1802 22.7978C55.2833 22.7621 55.2953 22.6529 55.2069 22.4869C55.0522 22.184 55.0682 22.1654 55.4206 22.2652C55.6882 22.3391 56.3606 22.1172 56.1328 21.7287C55.8099 21.176 56.5657 21.0509 56.4474 20.6249C56.3372 20.2532 56.8749 19.9274 56.7264 19.7993C56.539 19.6325 56.8798 19.1567 56.5572 19.0628C56.2413 18.967 56.6592 18.6674 56.8245 18.678C57.0626 18.6966 57.0703 18.2921 56.8308 18.2175C56.6695 18.1705 56.6615 18.1163 56.7795 17.9565C57.2448 17.3191 56.3595 17.0284 56.8568 16.7351C57.2209 16.521 57.1656 16.2964 56.7142 16.1959C56.3542 16.1194 56.2668 15.9319 56.51 15.7655C56.6997 15.6352 56.5868 15.9913 56.7885 16.0059C56.9603 16.0146 56.778 15.4088 56.6535 15.4434C56.4766 15.4925 56.4642 15.143 56.6324 15.0116C56.9303 14.7877 56.3271 14.3694 56.686 14.4673C56.7923 14.4943 56.7479 14.436 56.5936 14.3377C56.2143 14.0901 56.5336 13.8674 56.1921 14.061C55.8637 14.251 55.8156 14.0526 56.1065 13.8801C56.3487 13.7352 56.2053 13.4221 55.8234 13.2669C55.6315 13.1861 55.6243 13.1599 55.7812 13.0387C55.9851 12.8833 55.8676 12.3583 55.6313 12.3462C55.2793 12.324 56.1903 10.9276 55.6399 11.0804C55.1109 11.2343 54.601 9.95717 54.1703 10.0838C53.7789 10.1995 53.6967 9.70002 53.1219 9.86668C52.547 10.0333 52.9169 9.53537 52.6108 9.62743C52.0621 9.78681 52.1012 9.06307 51.7433 9.07067C50.8809 9.0913 51.4542 9.50386 51.1986 9.70187C51.0821 9.79068 51.0217 9.75098 50.9849 9.54237C50.8921 9.0811 50.8521 9.06399 50.591 9.3694C50.1377 9.89757 50.0195 9.21751 49.7821 9.48105C49.5767 9.70746 49.9263 9.31397 49.235 8.93417C48.7177 8.64722 48.4301 8.7553 48.6336 9.1576C48.7449 9.38078 48.7296 9.42739 48.5119 9.43136C48.0055 9.43785 48.1087 8.63985 47.6714 8.89535C47.4959 9.00054 47.4409 8.98052 47.4533 8.82179C47.4657 8.66307 47.4424 8.65541 47.3565 8.77809C47.0466 9.23821 47.0114 8.7045 47.1198 9.57788C47.1401 9.7275 46.5235 9.36228 46.4696 9.19372C46.4078 8.97091 46.1685 9.2279 46.1758 9.50822C46.2055 10.2764 45.4459 8.91325 44.8787 9.05661C44.3705 9.18359 44.6843 9.32234 44.337 9.41877C44.0159 9.50792 43.9962 9.25927 44.1535 9.2156C44.3632 9.15738 43.9406 8.95709 43.8278 8.55079C43.8005 8.45249 43.317 8.26203 43.5558 8.68983C43.8462 9.20209 42.8986 8.99226 42.8604 9.36286C42.8312 9.63917 42.4938 9.28818 42.4822 8.96672C42.4738 8.70788 42.4356 8.69731 42.0588 8.86545C41.4908 9.10783 41.7159 8.87596 41.3391 8.66294C41.1381 8.54933 41.1138 8.56316 41.1658 8.72517C41.1985 8.84313 41.157 8.897 41.046 8.87842C40.9481 8.8562 40.9237 8.87003 40.9841 8.90972C41.1199 8.99202 40.8598 9.78415 40.6763 9.8351C40.4994 9.88422 40.6323 9.47322 40.3157 9.22235C39.9739 8.95727 40.3895 9.33594 39.7725 9.40138C39.5453 9.4221 39.4375 9.46615 39.5355 9.48837C39.6436 9.52187 39.5671 9.6278 39.3286 9.78577C38.7982 10.1377 38.8459 9.75038 39.0276 9.56583C39.2479 9.34233 39.0215 9.13698 38.6963 9.26253C38.2551 9.42739 38.013 9.4452 37.9766 9.31413C37.9002 9.0389 36.8227 8.58987 37.0868 9.49057C37.1742 9.80512 36.7574 9.57498 36.7778 9.34345C36.7993 9.09044 36.5175 9.16866 36.583 9.40458C36.6467 9.63394 36.4108 9.69945 36.3635 9.52906C36.3089 9.33247 36.2018 9.65864 36.0311 9.50135C35.8232 9.31201 36.0711 9.77257 35.0718 9.22417C35.0369 9.40328 34.8442 10.3108 34.5618 9.3446C34.4442 8.94667 34.24 9.02455 34.2217 9.46723C34.1973 9.98928 34.0571 10.247 34.0455 9.7985C34.0274 9.22475 33.2989 9.57523 33.5668 9.34556C33.8996 9.06965 33.1788 9.01567 32.7757 9.57225C32.5529 9.88821 31.5184 8.80611 31.807 9.43887C31.8612 9.55793 31.6224 9.63835 31.5805 9.48762C31.5387 9.3369 30.9969 9.572 30.8382 9.81371C30.738 9.9615 30.6481 9.99352 30.5112 9.9327C30.2328 9.81945 29.9087 10.1776 29.7445 10.0185C29.6091 9.88671 29.2949 9.92453 29.557 10.1059C29.7671 10.2522 29.6108 10.9097 29.3815 10.5922C29.0772 10.1826 28.9402 10.8841 28.739 9.93064C28.6605 9.57131 28.4249 9.71435 28.4613 9.84542C28.5788 10.2433 27.2269 9.26349 27.664 10.0244C28.1084 10.8116 26.558 10.0068 26.9238 10.5617C27.0181 10.6978 26.9984 10.8303 26.8647 10.9592C26.5156 11.3032 26.8437 10.7815 26.4167 10.5401C26.0836 10.3573 26.0279 9.92808 26.0086 10.1381C25.955 10.6824 25.6508 10.0187 25.5852 10.0369C25.3129 10.0984 24.907 10.0346 24.9761 10.2836C25.0435 10.5261 24.6823 10.5981 24.6321 10.4427C24.5793 10.2526 24.2381 10.6508 23.9578 10.531C23.6673 10.3999 22.9792 10.718 23.0007 10.9732C23.0272 11.2976 22.6879 11.3212 22.6286 11.0059C22.5497 10.5691 22.1954 10.9709 22.1408 10.7743C22.1026 10.6367 21.8511 10.6713 21.9267 10.9185C22.0334 11.2771 21.2398 10.4527 21.1044 10.8292C21.049 10.9857 21.0049 11.005 20.9281 10.9063C20.8615 10.8189 20.725 10.8357 20.5495 10.9408C20.1319 11.1909 19.8582 10.6881 20.0992 11.0729C20.485 11.6999 18.988 11.4944 19.4439 11.1278C19.8593 10.7937 18.1774 10.8371 18.0411 11.3126C17.9519 11.6267 17.5009 11.0955 17.1667 11.1883C16.6705 11.3331 17.5893 11.5156 17.1549 12.0103C16.8025 12.4187 16.5375 11.9982 16.551 11.818C16.574 11.494 16.1294 11.8504 16.0592 11.6228C15.9919 11.3804 15.3977 12.0112 15.2965 11.6722C15.1881 11.3071 15.0602 11.6602 15.1144 12.1604C15.1748 12.7083 15.0014 12.8976 14.8705 12.4258C14.7274 11.9361 14.2763 12.5484 14.3597 12.264C14.422 12.0562 14.142 12.141 14.1857 12.2982C14.2203 12.4228 14.012 12.6641 13.9007 12.0597C13.7966 11.4816 13.3442 11.1484 13.6006 12.4536C13.716 13.0216 13.0124 11.9111 12.9538 11.878C12.7277 11.7501 12.4945 13.1983 12.2619 13.0723C12.1949 13.0344 12.1975 12.942 12.2681 12.8659C12.5008 12.6107 11.8284 12.3245 12.0538 12.1702C12.5872 11.8033 11.1113 11.9025 11.5146 12.5669C11.7009 12.8822 11.5291 12.8734 11.2914 12.5512C11.1 12.2938 10.6901 12.2664 10.7639 12.5071C10.9288 13.0754 9.13452 11.7737 9.33393 12.4665C9.43217 12.8204 8.8887 12.4136 8.52529 13.0368C8.22159 13.5447 7.94642 13.2399 8.08114 13.0896C8.28649 12.8632 8.12487 12.7386 7.90277 12.9556C7.76914 13.0844 7.65482 13.1303 7.58894 13.0709C7.48774 12.9861 6.98064 12.8375 7.1699 13.1379C7.33515 13.4026 6.95796 13.6202 6.91611 13.4695C6.87245 13.3122 6.34381 13.5437 6.4399 13.6864C6.65428 14.001 4.77097 14.4885 5.64502 14.7894C5.97302 14.903 5.52814 14.9277 5.62202 15.2404C5.69844 15.5157 5.35807 15.3066 5.22079 15.5494C5.16399 15.6499 5.09845 15.6681 5.02893 15.5956C4.9696 15.5345 4.76424 15.7609 4.57197 16.1107C3.91215 17.268 4.92023 17.1363 4.519 17.4453C4.27943 17.6248 4.48591 17.1228 4.00244 17.1864C3.44507 17.2635 4.10433 17.5534 3.89424 17.7882C3.84617 17.8439 3.78757 17.8107 3.75554 17.7208C3.71188 17.5635 3.18183 17.4848 3.1079 17.6253C3.05583 17.7174 3.4799 18.1008 3.59786 18.0681C3.66994 18.0481 3.72855 18.0812 3.74857 18.1533C3.79587 18.3237 3.40815 18.3255 3.46201 18.494C3.50567 18.6513 3.28249 18.7627 3.27198 18.4197C3.25167 17.8889 2.58683 18.4688 3.13028 19.0026C3.67374 19.5363 3.13028 19.0026 2.87172 19.5967C2.66925 20.0623 2.76396 19.6407 2.45338 19.9457C2.16355 20.2238 2.54143 20.2883 2.36156 20.4794C2.15329 20.7208 2.5767 20.5679 2.56718 20.9658Z" fill="#9BA2CC" fill-opacity="0.56"/>
</svg>
