<svg width="77" height="57" viewBox="0 0 77 57" fill="none" xmlns="http://www.w3.org/2000/svg">
<path d="M6.115 44.5903C6.60549 44.4538 6.35958 44.6943 6.57807 45.0544C6.67367 45.2144 6.66285 45.22 6.46443 45.126C6.27689 45.04 6.25791 45.043 6.32627 45.1765C6.42198 45.3635 7.05931 45.3136 7.06937 45.1197C7.07178 45.0443 7.14212 44.9948 7.23165 44.9962C7.56538 45.0074 7.72142 44.6848 7.88829 45.0241C8.1345 45.5317 8.18024 44.7668 8.54405 44.8367C8.68795 44.8641 9.21703 45.5506 9.03918 45.1765C8.91607 44.9226 9.1193 44.8658 9.39145 45.077C9.60371 45.238 9.63625 45.2348 9.81706 45.0007C10.0356 44.7068 10.5529 44.4892 10.662 44.6356C11.3278 45.5891 11.56 44.641 11.4077 44.5572C11.1657 44.4182 11.8788 44.316 12.2862 44.431C12.7018 44.5486 12.9602 44.7332 12.6862 44.7184C12.3823 44.6987 12.9784 45.2093 13.1102 44.9193C13.2554 44.6023 12.7619 43.9987 13.3535 44.7004C13.7051 45.1204 13.7953 44.6158 14.3444 44.874C14.7032 45.0409 14.2785 44.6785 14.7604 44.4453C14.931 44.3647 14.9853 44.3639 14.8961 44.4433C14.6907 44.6293 14.8217 44.8319 15.1772 44.8589C15.8394 44.911 15.8186 43.8159 16.2492 44.2832C16.4208 44.4717 16.6074 44.3155 16.4844 44.0886C16.3887 43.9016 16.5782 43.8046 16.7389 43.9583C17.1148 44.3322 17.161 44.3557 17.1386 44.1919C17.1246 44.071 17.1897 44.0646 17.4044 44.1637C17.7088 44.3045 17.9468 44.1152 17.7208 43.9141C17.6309 43.832 17.6443 43.7914 17.7772 43.7706C18.0456 43.7343 18.0127 43.6433 18.1685 43.9478C18.3736 44.3349 18.5265 43.9128 18.696 44.2306C18.8191 44.4709 19.0604 44.4485 18.8144 43.9812C18.5574 43.4925 18.9621 43.6291 18.8176 43.4537C18.7059 43.3154 18.9954 43.1335 19.102 43.3418C19.2442 43.6196 19.4156 43.0599 19.6047 43.5361C19.7966 44.0312 20.2278 43.3116 20.3237 43.5523C20.5211 44.058 21.4333 43.5573 20.4793 43.1221C19.4683 42.6689 21.1245 42.9941 21.1064 43.2124C21.0985 43.2905 21.1527 43.2762 21.2392 43.1781C21.3553 43.0445 21.3743 43.055 21.3371 43.2358C21.2892 43.476 21.529 43.7443 21.6913 43.6342C21.9835 43.4307 22.2518 43.3675 22.3147 43.4904C22.3995 43.656 22.955 43.4997 23.0437 43.2857C23.1592 43.0041 23.5638 43.1004 23.7171 43.4399C23.8978 43.8597 23.989 43.5838 23.9124 43.4343C23.8577 43.3274 23.9965 42.771 24.2936 43.0976C24.5606 43.3923 24.5102 43.0136 24.8613 43.2856C25.1198 43.4835 25.4505 43.3952 25.4385 43.1316C25.4326 43.0133 25.457 43.0076 25.555 43.0788C25.7645 43.2344 26.1264 42.82 26.16 43.0859C26.1964 43.3572 27.2206 43.0485 27.3026 43.2088C27.3518 43.3049 27.6067 43.2554 27.3559 42.9793C27.1897 42.788 27.1977 42.7636 27.4686 42.6519C27.6961 42.5624 27.7993 42.5905 27.9303 42.7796C28.2796 43.2884 28.2011 42.6679 28.4019 42.673C28.4724 42.6773 28.4857 42.6099 28.442 42.5244C28.1686 42.0037 29.0014 42.6695 28.7368 42.9667C28.6126 43.1112 28.6704 43.331 28.8166 43.2562C29.0549 43.1342 28.9919 42.3305 29.3127 42.5034C29.465 42.5872 29.4921 42.5733 29.5077 42.4036C29.5234 42.2741 29.5558 42.2441 29.6023 42.3214C30.1347 43.1612 30.7695 42.4789 30.3305 42.6093C30.0812 42.683 29.9417 42.3971 30.1034 42.1256C30.2408 41.9002 30.2952 41.9397 30.8246 42.6934C30.9501 42.8719 31.2266 42.8112 31.1281 42.6189C31.0242 42.4159 31.4221 42.192 31.4529 42.4257C31.4809 42.6406 31.7469 42.6797 31.6887 42.3791C31.6415 42.1134 32.0174 41.8198 32.0841 42.1902C32.1146 42.3701 32.15 42.3992 32.212 42.2933C32.3601 42.0354 32.8397 42.545 32.6593 42.2059C32.5663 42.0243 32.6311 41.9641 32.8916 41.9791C33.239 42.0035 32.9045 42.4848 33.3566 42.2466C33.6625 42.0833 33.7879 42.2348 33.5148 42.4353C32.8331 42.9326 34.0013 42.6649 34.2788 42.1925C34.4432 41.9129 34.6598 41.8154 34.5333 42.0757C34.3881 42.3793 34.6452 42.2409 34.9293 42.0483C35.1052 41.9245 35.0604 42.2508 35.3577 41.9907C35.5037 41.8621 35.6176 41.8442 35.7481 41.9257C35.9195 42.0335 35.933 42.0198 35.8886 41.7864C35.8526 41.5958 35.8768 41.5497 35.9856 41.6154C36.0998 41.6783 36.1674 41.6369 36.2967 41.4089C36.6065 40.866 36.7339 41.5019 36.9476 41.3454C37.329 41.0625 37.1836 41.3526 37.4283 41.4835C37.7301 41.6459 37.3434 41.2776 37.5139 41.1835C37.5681 41.1558 38.3032 41.8042 38.2618 40.9625C38.2442 40.6479 38.4771 40.5421 38.5136 40.8403C38.539 41.0767 38.918 40.8827 38.7437 40.7292C38.5913 40.5916 38.6337 40.3406 38.9631 40.6371C39.2926 40.9337 38.9928 40.5883 39.171 40.3892C39.2709 40.2773 39.2873 40.2959 39.2719 40.5061C39.246 40.8159 39.4416 40.8776 39.5978 40.6089C39.746 40.3644 40.0929 40.2678 40.0775 40.4779C40.0697 40.5695 40.1158 40.5661 40.1941 40.4789C40.2806 40.3807 40.3267 40.3908 40.3408 40.5117C40.3969 40.9818 41.0185 39.7265 41.251 40.1805C41.4423 40.541 41.3162 39.5471 42.1503 39.855C42.5552 40.005 42.6053 39.6625 43.1103 39.7545C43.5555 39.8367 43.6308 39.6633 43.2098 39.535C42.8947 39.4402 42.8947 39.4402 42.9885 39.1562C43.2055 38.4856 43.3307 39.2507 44.0086 39.1598C44.1685 39.1386 44.1982 39.0897 44.1271 38.9509C43.9986 38.6998 44.4783 38.5823 44.5201 38.8643C44.5954 39.3583 45.4021 38.2779 45.4677 38.3926C45.577 38.5928 45.8696 38.4835 45.8442 38.2471C45.8217 38.0563 46.1196 37.9173 46.2639 38.0524C46.4137 38.1982 46.608 37.937 46.7174 38.1506C46.8022 38.3162 47.1329 38.2682 46.9063 37.9191C46.7808 37.7272 46.7914 37.6678 46.9621 37.6276C47.1139 37.5903 47.1489 37.5252 47.0724 37.3891C46.9931 37.2342 47.0174 37.2016 47.2154 37.2013C47.6197 37.2033 47.7169 37.1131 47.4694 36.9499C47.0967 36.7025 48.1865 36.4952 48.4416 36.5129C49.1146 36.5728 48.3452 36.151 48.5461 35.5291C48.6131 35.3262 48.6267 35.326 48.7278 35.5237C48.8536 35.7694 49.0271 35.7345 48.9935 35.4686C48.9654 35.2402 49.2172 35.1181 49.4294 35.2522C49.5708 35.3416 49.6006 35.3196 49.6674 35.0629C49.8009 34.5496 50.1896 34.7349 49.826 34.0379C49.6565 33.7202 50.0141 33.5911 50.0367 33.8087C50.0674 34.0424 50.3197 34.0279 50.2376 33.8676C50.1666 33.7287 50.4408 33.1299 50.4801 33.4469C50.5137 33.7128 50.8167 33.4903 50.697 33.4167C50.5257 33.3089 51.0839 33.158 50.8876 32.9079C50.6966 32.6551 51.2028 32.3623 51.0907 32.1433C50.9785 31.9243 51.5813 31.3663 51.2103 31.536C50.8501 31.7001 51.244 31.1614 51.3499 31.1679C51.4964 31.1738 51.4115 30.9813 51.2217 31.011C50.6795 31.0999 51.6862 29.8227 51.4119 29.7407C51.2897 29.7021 51.0107 28.4764 51.8936 28.7862C52.3174 28.9333 52.1676 28.774 52.412 28.8377C52.7922 28.9396 52.4277 29.3488 52.8288 29.2513C52.9507 29.2225 53.0048 29.1679 52.9477 29.1365C52.6486 28.966 54.1866 28.2595 54.2331 28.3503C54.3644 28.6067 55.1382 28.0892 55.4019 28.2441C55.663 28.3936 55.8445 28.3209 55.7405 28.1179C55.6421 27.9256 55.877 27.6503 56.9309 27.9737L56.7483 27.7638C56.4267 27.4026 56.9787 27.0526 57.0411 27.0544C57.2311 27.065 56.9961 26.6594 57.2262 26.5349C57.5267 26.3743 57.3446 26.9664 57.6208 26.825C57.8103 26.728 57.8699 27.3784 58.044 26.8241C58.1377 26.5267 58.3926 27.158 58.5929 27.0555C58.7608 26.9695 58.2961 26.7692 58.5781 26.7327C58.8872 26.6958 58.4791 26.4059 59.0952 26.4882C59.7032 26.5679 59.7494 26.5646 59.8463 26.3936C59.9191 26.2687 59.8647 26.2426 59.626 26.2569C59.1758 26.2852 58.9471 26.0787 59.3238 25.9869C59.5135 25.9437 59.6379 25.8396 59.6807 25.6963C59.7584 25.4476 60.0944 25.3565 60.1197 25.5795C60.1283 25.6762 60.2504 25.6879 60.4428 25.6231C61.0008 25.4183 60.6354 24.9716 61.2092 24.6375C61.5151 24.4607 61.5259 24.4686 61.6928 24.8079C61.7858 25.0029 61.8791 25.2653 61.8905 25.3943C61.9298 25.7113 62.0201 24.5796 62.1724 24.6635C62.3383 24.7606 63.251 24.3675 63.0334 24.2362C62.8865 24.1496 63.0841 24.0417 63.2337 24.1336C63.4078 24.2333 63.5348 24.1211 63.4473 23.9501C63.3981 23.854 63.4385 23.7861 63.5524 23.7683C63.8289 23.7345 63.8501 23.6024 64.0196 23.9201C64.2192 24.2966 64.7128 24.2731 64.6462 23.8892C64.6323 23.8087 64.5915 23.7958 64.5538 23.8556C64.4622 24.0104 64.2724 23.3861 64.5326 23.3069C64.6274 23.2786 64.6841 23.2024 64.6567 23.149C64.5227 22.8872 65.4219 23.1752 65.1922 22.74C65.0528 22.4676 65.2039 22.2823 65.3947 22.4948C65.7816 22.9169 65.7489 22.2123 66.0746 22.2344C66.4789 22.2633 66.5647 22.0172 66.6878 22.2575C66.8054 22.4872 67.6387 21.9258 67.45 21.5572C67.4117 21.4824 67.4767 21.4492 67.6639 21.4545C68.3204 21.4554 67.1659 21.0824 67.334 20.3829C67.4167 20.0372 67.4547 20.0447 67.6245 20.4431C67.7642 20.7694 67.9421 20.4761 67.9757 20.742C68.0149 21.0455 68.1488 20.6129 68.342 20.7635C68.4318 20.8321 68.4535 20.821 68.453 20.6999C68.4437 20.4013 68.8483 20.511 68.5949 20.2295C68.3605 19.972 68.9329 19.9554 69.037 20.2122C69.1521 20.5038 69.6695 20.2996 69.5089 20.1594C69.4299 20.0852 69.4514 20.0472 69.5788 20.0292C69.7144 20.0137 69.7359 19.9488 69.6593 19.7992C69.5008 19.5029 68.9647 19.7773 69.4968 19.1881C69.7749 18.8771 70.1084 19.4884 70.087 18.8859C70.0634 18.4261 70.4196 18.6145 70.302 18.3849C70.1816 18.1498 70.6052 18.2431 70.5341 18.1042C70.5123 18.0615 70.5907 18.0011 70.7045 17.9698C70.8807 17.9268 70.8886 17.8755 70.7357 17.6302C70.5391 17.3129 70.6497 17.1552 70.8867 17.4181C71.1292 17.6782 71.2344 17.5232 71.0485 17.1734C70.54 16.2068 71.4788 16.2386 71.2962 16.0287C71.1736 15.896 71.1366 16.1441 71.0648 15.8303C70.9597 15.3448 71.8024 15.7493 71.4524 15.0791C71.1134 14.4302 71.6309 14.2798 71.345 14.015C71.1272 13.8164 71.3826 13.2474 71.264 13.4295C71.1319 13.6387 70.745 13.23 71.1267 13.0278C71.3541 12.9114 71.0432 12.5043 71.1537 12.3197C71.2426 12.173 71.0169 12.0391 70.8436 12.1278C70.6054 12.2498 70.4387 11.9643 70.6223 11.749C70.895 11.4273 70.0884 11.8807 70.0397 11.9057C69.8042 12.0464 69.5968 11.7481 69.6195 11.9927C69.6393 12.1915 69.4444 12.2913 69.4192 12.0952C69.3884 11.8481 68.8668 12.3511 68.476 12.3219C68.0093 12.2912 68.1582 12.8891 67.7369 12.6935C67.3835 12.5239 66.9295 12.9451 66.6066 12.9418C66.5225 12.9377 66.4551 13.0329 66.4502 13.1568C66.4455 13.3479 66.4293 13.3562 66.3555 13.2255C66.2353 13.0173 65.8287 13.1176 65.6508 13.3974C65.5403 13.5686 65.4916 13.5936 65.4044 13.5168C65.045 13.1885 63.5354 14.2175 62.702 14.0846C61.7111 13.9244 61.5202 15.0064 61.4612 14.5041C61.4247 14.2193 61.3722 14.6372 60.9266 14.4743C60.5815 14.3476 60.4488 14.3953 60.5609 14.6143C60.6375 14.7639 60.6294 14.7748 60.3959 14.7191C59.3911 14.4784 57.7641 15.3315 57.3107 15.2468C56.9958 15.1923 56.8326 15.7679 56.5662 15.6212C56.3432 15.4927 56.5217 15.3474 56.2668 15.3834C56.0119 15.4195 56.2485 15.5613 56.0861 15.6445C55.9291 15.7249 56.0715 15.4025 55.8415 15.527C55.614 15.6435 55.9561 15.711 55.8019 15.7967C55.569 15.9159 55.6996 15.33 55.2539 15.8211C55.0055 16.0966 53.8097 15.5896 53.6985 16.2668C53.6641 16.4799 53.4635 16.5017 53.3596 16.2987C53.2885 16.1598 52.6471 16.5489 52.6289 16.7402C52.6106 16.9316 51.917 16.4709 51.7711 16.6265C51.6307 16.7793 50.9629 16.6897 50.7901 16.886C50.5822 17.1206 50.4685 16.5248 49.9338 17.1222C49.5908 17.5067 49.657 17.1021 49.3137 17.4059C48.9677 17.7179 48.386 17.4493 48.249 17.7689C48.1979 17.8962 48.1113 17.9271 47.9646 17.8808C47.7391 17.8142 47.2132 17.9082 47.3573 17.9894C47.4824 18.0602 45.9063 18.7458 45.7839 18.6803C45.6806 18.6253 45.1873 18.743 44.7757 18.9133C44.4615 19.0472 43.4119 19.1194 43.8443 19.3766C44.1462 19.5525 42.5841 19.0375 42.8521 19.5475C42.9505 19.7398 42.7556 19.8396 42.6572 19.6473C42.5614 19.4604 42.4808 19.6365 41.9192 19.6476C41.3116 19.662 41.3997 19.9675 41.0602 19.8918C40.8919 19.8566 40.854 19.876 40.868 19.9969C40.882 20.1043 40.8278 20.1186 40.6593 20.0431C40.4446 19.944 40.4284 19.9523 40.4157 20.1678C40.3977 20.4264 40.2111 20.5692 40.1777 20.3571C40.1555 20.2336 39.3762 20.0595 39.2192 20.1399C39.1163 20.1926 39.3563 20.5146 39.5438 20.5737C39.8236 20.6664 39.4388 20.7691 39.2505 20.5081C39.0432 20.2233 38.9439 20.4966 38.9102 20.2172C38.8627 19.8573 38.1832 20.9062 38.0602 20.6793C37.9618 20.487 38.4482 20.0222 37.9395 20.3366C37.5065 20.5987 37.3133 20.4482 37.3898 20.5843C37.5265 20.8514 36.7114 21.208 36.5801 20.9516C36.4844 20.7647 36.2088 21.0406 35.9343 20.9316C35.6246 20.8071 35.4662 21.2185 35.3678 21.0397C35.2967 20.9008 35.1484 21.1317 35.2518 21.2002C35.3144 21.2423 35.0536 21.8409 34.8056 21.5701C34.3751 21.1029 34.6686 21.9032 34.6175 21.9901C34.5501 22.0987 34.4465 21.9899 34.3205 21.6769C34.2245 21.4362 34.0974 21.5215 34.0445 21.8587C33.9521 22.4925 33.9118 21.9199 33.5425 21.8258C33.1487 21.724 33.2214 22.2665 33.3737 22.3504C33.5423 22.4528 33.2358 22.4682 33.1046 22.2252C32.9351 21.9075 32.6711 22.3528 32.3603 21.9995C32.0142 21.6037 32.182 22.8526 31.4013 22.3152C30.9089 21.9807 30.5591 22.0317 30.7614 22.4135C30.9364 22.7419 29.7498 23.1606 29.3802 22.9993C29.2769 22.9578 29.2197 22.8994 29.2631 22.8772C29.3064 22.8551 29.1733 22.8086 28.9615 22.7687C28.3506 22.6567 28.6935 22.9261 28.2794 23.1449C28.1223 23.2252 28.1198 23.2603 28.2637 23.3012C28.5625 23.3909 28.5467 23.5069 28.2294 23.5278C27.7927 23.5558 27.9538 23.1497 27.7096 23.1399C27.4926 23.1297 27.8824 23.5975 27.7281 23.6832C27.5711 23.7636 27.638 23.5339 27.3045 23.59C26.9982 23.6457 26.9324 23.4771 27.2058 23.3304C27.6795 23.0677 26.4673 23.1826 26.9632 23.7242C27.3611 24.1543 26.3203 23.7365 25.6463 24.1153C24.6557 24.6763 25.2335 23.9895 25.0639 23.6449C24.9244 23.359 23.8718 24.0395 24.3881 24.2605C24.7876 24.4268 24.1696 24.5544 24.2762 24.7627C24.3364 24.8802 24.4717 24.7975 24.5306 24.6055C24.5923 24.4189 24.8314 24.5123 24.8132 24.7171C24.7822 25.1104 24.0604 25.0485 24.0669 24.6474C24.071 24.3217 23.3455 24.0527 23.322 24.2602C23.3089 24.3815 23.271 24.4009 23.1704 24.3378C22.9474 24.2093 22.7506 24.519 22.9143 24.7453C23.1216 25.0302 22.8997 25.1573 22.6707 24.8835C22.4308 24.5884 21.7361 24.5395 21.6375 25.0012C21.547 25.4251 21.6022 24.9856 20.991 25.4603C20.5989 25.7621 20.5745 25.7679 20.5899 25.5443C20.6001 25.4042 20.6568 25.328 20.7356 25.3484C21.0995 25.4587 21.0861 24.8318 20.7864 25.1673C20.7216 25.2409 20.6483 25.2447 20.6101 25.1834C20.5745 25.1139 20.5232 25.1604 20.4749 25.3065C20.3677 25.631 19.4148 26.1323 19.2188 25.963C19.1372 25.897 19.0341 25.8958 18.9855 25.9611C18.8425 26.1489 19.2066 25.6322 18.9159 25.5181C18.3724 25.2975 18.7783 25.7166 18.5264 25.7984C17.9357 25.9929 18.2902 26.4317 18.061 26.7849C17.9235 26.9969 17.8586 27.0436 17.8446 26.9362C17.8334 26.8476 17.7193 26.8116 17.5621 26.8516C17.2721 26.9259 16.7986 26.5481 16.9634 26.3761C17.1471 26.1877 16.9487 26.1072 16.7405 26.2879C16.5567 26.4494 16.5051 26.4421 16.3903 26.2178C16.1634 25.7879 15.9759 26.3828 15.8692 26.1744C15.7681 25.9768 15.5493 26.2169 15.5668 26.518C15.5878 27.0263 15.0043 26.9678 15.3603 27.1158C15.6348 27.2248 14.8494 27.5729 14.5761 27.0656C14.4421 26.8174 14.264 27.0434 14.3925 27.2944C14.5812 27.663 14.0743 27.7674 13.9595 27.5431C13.8255 27.2814 13.2813 27.5667 13.6668 27.6255C14.0252 27.6848 14.1222 28.1946 14.4254 28.0394C14.6095 27.9452 14.7079 28.1375 14.5238 28.2317C14.3018 28.3454 14.1051 28.6685 14.1206 28.4719C14.1309 28.3318 13.7421 28.133 13.7272 28.4777C13.7046 28.9275 13.3661 28.3997 13.1833 28.8034C12.9816 29.2504 12.9512 28.4301 13.3545 28.2168C13.5603 28.1115 13.5916 27.8123 13.3562 27.9665C13.1776 28.0849 12.6283 28.4134 12.7818 28.1527C12.9165 27.922 12.5715 27.7952 12.5049 28.0923C12.3664 28.7294 12.1008 28.1306 11.8355 28.2664C11.7272 28.3218 11.6761 28.4356 11.7199 28.5211C11.7746 28.6279 11.7233 28.6879 11.5471 28.7309C11.2652 28.7943 11.4705 28.5679 11.9092 29.7185C10.5787 29.4289 11.4308 29.4781 11.1176 29.2002C10.8345 28.9541 10.7648 29.8325 10.433 29.6383C10.1883 29.4939 9.94197 29.6268 9.98637 29.8737C10.0253 30.1099 9.91997 30.2245 9.74594 30.1249C9.56103 30.0173 9.50272 30.3572 9.2822 30.1668C9.08077 30.0002 8.97598 30.2494 9.10106 30.3202C9.26694 30.4173 9.30117 30.8312 9.1523 30.9142C9.0765 30.953 9.04718 31.0826 9.08026 31.2139C9.1355 31.4553 8.9106 31.5233 8.79034 31.3017C8.71377 31.1521 8.64366 31.2554 8.11434 31.85C9.26739 33.8754 8.60382 32.8062 8.3764 32.9226C8.10026 33.0639 8.18932 32.2768 8.14059 32.3017C7.86986 32.4403 8.131 33.2842 8.10934 33.2953C7.63253 33.4584 8.04863 33.7106 7.80771 33.8407C7.59654 33.9488 7.84637 34.0096 7.49759 34.3028C7.32996 34.4426 7.26821 34.6023 7.30688 34.7712C7.35932 34.9938 7.31076 35.0591 6.94251 35.2342C6.25207 35.5674 6.92845 35.7807 6.69562 35.8999C6.64147 35.9276 6.64191 36.0352 6.6966 36.1421C6.95632 36.6361 5.96936 36.0964 6.04285 36.8273C6.08529 37.2573 5.97284 36.9575 5.60389 36.9576C5.26748 36.9546 4.80581 38.1752 5.36597 37.8277C6.05871 37.3922 5.49842 38.3802 5.45511 38.4023C5.30891 38.4772 5.43301 38.9732 5.23267 39.0758C5.01609 39.1866 5.37519 39.4342 5.21275 39.5174C5.02324 39.6144 5.46635 39.8393 5.15209 39.9462C4.91636 40.0197 5.04741 40.2223 5.14328 40.4496C5.21996 40.6261 4.7158 40.7358 4.81151 40.9228C4.92909 41.1525 5.2286 40.7497 5.15394 41.0711C5.12462 41.2007 5.16017 41.2702 5.27426 41.3061C5.46984 41.3678 5.47082 41.61 5.2759 41.7098C5.07014 41.8151 5.31188 41.8869 5.06872 42.1327C4.81472 42.3841 5.17826 42.3867 5.13668 42.8395C5.11338 43.1143 5.127 43.1276 5.34654 43.0759C5.57149 43.0214 5.57969 43.0374 5.51827 43.2778C5.38197 43.7858 5.93989 43.5541 5.68124 43.9966C5.53587 44.2733 5.62452 44.7268 6.115 44.5903Z" fill="#9BA2CC" fill-opacity="0.56"/>
</svg>
