<svg width="55" height="24" viewBox="0 0 55 24" fill="none" xmlns="http://www.w3.org/2000/svg">
<path d="M0.16331 7.85093C0.469481 7.98202 0.319798 8.29938 0.517107 8.29249C0.775651 8.29249 0.489892 9.42398 0.768848 9.42398C0.904923 9.42398 1.35397 9.73444 1.11584 9.83793C0.850493 9.94832 2.01394 10.0449 1.53768 10.3554C1.4084 10.4382 1.78942 11.3075 2.15682 11.2109C2.59226 11.0936 2.22486 11.9353 3.08214 11.4731C3.81014 11.0798 3.34748 11.7767 3.64685 11.8042C4.36805 11.8732 4.52454 12.8115 4.52454 12.1975C4.52454 11.8456 4.71504 11.818 4.80349 12.1561C4.91916 12.5908 5.10966 12.0664 5.49748 12.5356C5.8921 13.0185 7.28688 12.9978 7.45017 13.5084C7.58624 13.9361 7.8652 14.081 8.11014 13.8464C8.34146 13.6257 9.4913 13.5843 9.45728 13.7913C9.43007 13.9362 9.8383 14.1293 9.68181 13.8672C9.49811 13.5705 10.0152 14.0051 9.94036 14.1293C9.72263 14.495 10.8725 14.1155 10.8725 14.2604C10.8725 14.4053 9.88592 14.7641 10.6888 14.7503C11.1514 14.7434 10.8861 14.2949 11.3215 14.84C11.4168 14.9572 12.6347 15.8749 12.4169 15.6265C12.0427 15.1987 12.8252 14.8538 12.7027 15.3574C12.621 15.6955 12.934 15.9439 13.179 15.7369C13.3286 15.6127 13.3627 15.6196 13.3627 15.7783C13.3627 15.8887 13.4715 15.9784 13.6076 15.9784C13.975 15.9715 13.8797 16.2336 14.2267 16.137C14.6078 16.0335 14.6622 17.0754 15.1861 16.3785C15.3426 16.1784 15.3562 16.1853 15.3085 16.4889C15.2473 16.9167 15.4922 17.1305 15.9141 17.0202C16.125 16.965 16.2339 16.9857 16.2407 17.0822C16.2407 17.1719 16.3223 17.1995 16.4448 17.1581C16.7986 17.0201 16.8054 17.6066 17.2544 17.4824C17.6695 17.372 17.86 17.9723 17.86 17.717C17.86 17.4341 18.4587 17.9723 18.3022 17.7032C18.1593 17.4617 18.3294 17.5376 18.6084 17.8412C18.8737 18.1309 18.8737 18.1309 19.0438 17.8895C19.2683 17.579 19.4589 17.7377 19.2615 18.0619C18.9077 18.6484 19.7378 18.0551 19.8127 18.0551C19.9215 18.0551 19.9759 18.0896 19.9351 18.1309C19.8127 18.2551 20.078 18.6829 20.2753 18.6829C20.6019 18.6829 20.4794 19.1314 20.6971 18.8209C21.1462 18.1585 21.847 19.8144 21.847 19.1107C21.8402 18.3724 23.3982 20.3525 23.5547 19.9455C23.6432 19.7109 23.8541 20.0007 23.8065 19.773C23.7657 19.5798 24.7794 19.4694 24.5685 19.7316C24.4596 19.8696 24.5685 20.3801 25.3101 19.4556L25.3169 19.7454C25.3305 20.1525 25.072 19.7937 25.0788 20.0904C25.0856 20.4974 25.3441 19.8627 25.5959 20.1111C25.8 20.3111 26.1606 20.0145 26.0245 20.2421C25.766 20.6768 27.2152 19.8006 26.9906 20.4422C26.943 20.5802 27.0179 20.6354 27.2764 20.6354C27.8887 20.6423 28.5623 21.0632 28.6984 20.8493C28.8481 20.6147 28.61 21.0356 29.4332 21.0632C29.7326 21.077 29.9979 21.146 30.0251 21.2218C30.1204 21.4978 30.4266 21.3598 30.4266 21.0425C30.4198 20.6354 30.6919 20.5388 30.6035 20.7665C30.5014 21.0425 30.9232 21.146 30.9232 21.4288C30.9232 21.6634 31.2838 21.6496 31.3723 21.415C31.5764 20.8631 31.8554 21.6427 31.522 21.76C31.4335 21.7945 31.5424 21.8221 31.7669 21.829C32.4949 21.8428 32.3112 21.2357 33.0868 21.9049C33.5019 22.2637 33.6584 22.2913 33.6584 22.0222C33.6584 21.76 33.8625 21.7807 34.0258 22.0567C34.1414 22.243 34.1686 22.2499 34.2911 22.0774C34.4 21.9256 34.4068 21.9601 34.3455 22.2499C34.2843 22.5534 34.2979 22.6017 34.4612 22.5396C34.5701 22.4913 34.6517 22.5189 34.6517 22.5948C34.6517 22.857 34.9511 22.2982 35.0531 22.5948C35.128 22.8087 35.5226 22.105 35.23 22.2292C34.9715 22.3395 34.7606 21.8152 35.0395 21.8152C35.3321 21.8152 35.6315 21.2287 35.6315 21.5875C35.6315 21.9049 35.2505 21.829 35.4614 21.967C35.5294 22.0084 35.7471 21.9601 35.9308 21.8635C36.2982 21.6634 36.5704 21.7393 36.2166 21.9394C35.5226 22.3396 36.5296 23.1744 36.7609 22.788C36.8834 22.581 37.1487 22.7742 37.0535 22.9398C36.9106 23.1951 37.8359 22.8432 37.7815 23.1399C37.7406 23.3813 37.9516 23.0847 38.2849 23.133C38.6796 23.1951 38.9857 22.6431 38.836 23.0502C38.7272 23.3469 38.9177 23.34 39.1286 23.0364C39.3395 22.7328 39.911 22.5189 39.8226 22.7811C39.7886 22.8846 39.7001 22.9467 39.6253 22.926C39.4212 22.8846 39.4688 23.2365 39.6797 23.3193C39.9315 23.4158 39.9383 22.857 40.1152 22.9605C40.1832 23.0019 40.2308 22.9398 40.2308 22.8294C40.224 22.105 41.3534 24.1196 41.5371 23.5193C41.646 23.1537 41.9522 23.3124 41.8841 23.7056C41.8161 24.0851 41.9862 24.0989 42.2992 23.7401C42.9591 22.9812 43.5987 24.4025 43.4286 23.8574C43.3402 23.5814 44.3607 23.5883 44.2655 23.8574C44.2178 23.9954 44.2587 23.9816 44.4356 23.8229C44.7553 23.5262 44.9935 23.6435 44.8982 23.4917C44.5989 23.0088 46.0413 23.0364 46.0004 22.9605C45.9256 22.8363 46.1909 22.3809 46.5515 22.5741C46.8169 22.7121 47.715 22.6224 47.055 22.1809C46.7352 21.967 46.8169 21.5599 47.5313 21.9049C48.3613 22.312 48.1572 21.6979 48.4634 22.1188C48.7424 22.4982 48.8172 21.9049 48.6471 21.7945C48.4566 21.6703 48.5314 21.4357 48.9601 21.7255C49.7765 22.2637 49.0894 21.553 49.2458 21.3805C49.2867 21.3391 49.239 21.2977 49.1506 21.2977C49.0417 21.2977 49.0621 21.2356 49.2118 21.1253C49.5724 20.8493 49.8582 21.1874 49.9806 20.8355C50.1371 20.4008 50.5998 20.2766 50.4433 20.5457C50.3072 20.7734 51.4707 20.4905 51.3006 20.0766C51.2802 20.0214 53.7295 19.0348 53.7295 18.5311C53.7295 18.3103 54.4099 18.3103 53.9609 18.0344C53.8588 17.9723 53.7568 16.8339 54.3419 17.1926C55.1447 17.6825 54.0221 16.758 54.9134 15.6748C55.0563 15.4954 55.0359 15.4747 54.7501 15.4747C54.4031 15.4747 53.8656 15.1504 54.233 15.0055C54.4575 14.9159 54.5188 14.5709 54.3147 14.5709C54.1786 14.5709 54.3079 13.7637 54.4575 13.7016C54.6276 13.6326 54.4711 12.6184 54.6753 12.7426C54.7841 12.8116 55.2332 12.5563 53.6207 12.6253C53.6479 10.9487 53.0219 12.0664 53.2192 11.4938C53.3281 11.1833 52.7498 11.3834 52.8382 11.2109C52.8655 11.1557 52.5117 10.4106 52.3824 11.0522C52.1851 12.025 51.8857 10.8452 51.9333 10.6107C52.0422 10.0035 51.736 10.3968 51.6408 10.1553C51.5931 10.0311 51.5727 10.0311 51.5659 10.1553C51.5523 10.3416 51.0761 10.4175 51.3006 10.1415C51.4843 9.91383 51.1101 9.52056 50.7903 9.60336C50.4365 9.69995 50.6338 9.31359 50.4297 9.31359C50.2732 9.31359 50.2256 8.92032 50.4909 9.02381C51.0012 9.217 50.2188 8.54776 50.627 8.23729C50.8515 8.0717 50.8515 8.0648 50.6338 8.0579C50.4569 8.0579 50.4365 8.00271 50.5318 7.81643C50.695 7.50596 50.5113 7.36107 49.8174 7.25068C49.2935 7.16789 49.2867 7.17479 49.3683 7.48526C49.45 7.79573 49.4363 7.80263 49.0689 7.69914C48.858 7.63705 48.6811 7.63704 48.6811 7.69223C48.6879 8.27178 47.5585 7.37487 47.4701 8.04411C47.4224 8.38908 46.5788 8.59605 46.6944 7.72673C46.7284 7.47146 46.6672 7.80953 46.259 7.40246C45.599 6.74703 45.8371 7.35417 45.5106 7.36107C45.2384 7.36107 45.4153 7.86472 45.1432 7.86472C44.558 7.87162 44.9526 7.36107 44.6805 7.36797C44.4015 7.36797 44.1838 6.88502 44.2655 6.45036C44.3403 6.0571 44.3403 6.05019 44.109 6.25717C43.102 7.16788 41.6528 5.34647 42.2039 5.68453C42.3128 5.74663 42.1631 4.9877 41.8297 5.34646C41.7072 5.47065 41.646 5.61554 41.6868 5.68453C41.7821 5.84322 40.9112 5.62933 40.8023 5.46375C40.7547 5.38786 40.7139 5.37406 40.7139 5.43616C40.7139 5.49825 40.6322 5.47755 40.537 5.40166C40.1832 5.12568 40.1492 6.15368 39.5436 6.16058C39.4484 6.16058 39.7682 5.31886 39.462 5.42925C39.3599 5.46375 39.2715 5.60864 39.2511 5.76043C39.2171 6.0157 38.734 6.26408 38.734 6.0295C38.734 5.96741 38.6455 5.91911 38.5435 5.91911C38.319 5.91911 38.2781 5.71902 38.489 5.64313C38.7272 5.56034 38.4823 5.07049 38.1625 4.9946C37.9856 4.9532 37.8495 4.83591 37.8495 4.73242C37.8427 4.09078 37.1691 5.22227 37.033 4.83591C36.7269 3.95279 36.6656 4.05628 36.4887 4.28396C36.2302 4.60823 35.543 4.60823 35.5702 4.27706C35.5838 4.11148 35.5226 4.07008 35.3525 4.12528C34.9919 4.24256 35.196 3.81481 35.0055 3.81481C34.6925 3.81481 34.6585 2.55913 34.5701 4.23567C34.5565 4.49784 34.4476 4.44955 34.2503 4.44955C34.0258 4.44955 34.2979 4.15287 33.808 3.72511C33.3658 3.33875 33.7264 3.73201 33.0324 3.68372C32.7467 3.66302 32.5766 3.58713 32.597 3.49054C32.6174 3.40085 32.5493 3.33185 32.4337 3.33185C32.1479 3.33185 32.4677 3.52504 32.1819 3.63543C31.5288 3.8976 32.005 3.46984 31.7329 3.44225C30.8824 3.35256 30.6375 2.7937 30.6375 3.35945C30.6443 3.8217 30.2497 3.27666 30.0387 3.68372C29.8142 4.11838 29.8482 3.47674 29.1406 3.48364C28.9025 3.48364 28.7732 3.42154 28.7732 3.29736C28.7732 3.06278 28.1813 3.10417 28.0929 3.33875C27.9976 3.60093 27.7663 3.31806 27.3036 3.35255C27.0587 3.37325 27.0383 3.34565 27.1675 3.18007C27.2832 3.02828 27.29 2.95239 27.1675 2.8351C26.9022 2.57293 26.8274 3.12487 26.6232 3.13177C26.2831 3.13177 27.1471 1.7588 26.4395 2.40044C26.0313 2.7799 26.2286 2.22795 25.5006 2.29005C24.9631 2.33834 24.9155 3.13867 25.0039 3.49743C25.1604 4.13907 24.2215 4.42195 24.5141 3.99419C24.8202 3.54573 24.0242 2.40044 23.9426 2.41424C23.6296 2.46254 23.4391 2.37285 23.3778 2.13827C23.337 1.98649 23.2554 1.91059 23.1805 1.95888C22.9084 2.13826 23.4323 2.40045 22.8676 2.40735C22.6838 2.40735 22.5682 2.35904 22.609 2.28315C22.7043 2.12447 22.3437 2.09687 22.2688 2.32455C22.194 2.55912 21.7994 2.20036 21.7994 1.90369C21.7994 1.54492 21.4251 1.7933 21.4251 1.41384C21.4183 1.03437 21.6701 1.24135 21.6701 1.03437C21.6701 0.723902 20.9285 1.26205 20.9285 1.04817C20.9285 0.889489 20.4998 0.841191 20.6019 1.11027C20.6971 1.36554 20.1392 1.37244 20.2277 1.12407C20.2957 0.951583 20.0372 0.337536 19.8671 0.751496C19.8127 0.882584 19.4997 2.17966 19.1867 1.68981C19.0846 1.53112 19.0642 1.53802 19.071 1.7312C19.071 2.00718 18.8261 1.95889 18.8193 1.41384C18.8125 0.785998 18.6628 1.32414 18.4179 1.32414C18.275 1.32414 18.2886 0.723903 18.4383 0.64801C18.5063 0.613514 18.4927 0.599709 18.4043 0.620407C18.0641 0.710099 17.7715 0.23405 17.8396 0.723904C17.8872 1.06197 17.8191 1.09646 17.3361 1.00677C17.0639 0.951574 16.9891 0.875683 17.0367 0.6963C17.1184 0.372031 16.8462 0.392728 16.4856 0.737695C16.3223 0.88948 16.1998 0.951576 16.1998 0.868784C16.1998 0.723898 15.2881 0.848084 15.9005 0.489318C16.2611 0.282338 15.7236 0.192653 15.329 0.399634C15.0296 0.551419 14.9956 0.551419 15.05 0.399634C15.1248 0.199553 14.5193 0.158158 14.4036 0.358239C14.3016 0.537622 13.7097 0.441031 13.7505 0.627313C13.8185 0.923985 13.4783 0.882584 13.4035 0.579013C13.2402 -0.0557269 12.8592 0.751496 12.3421 0.234046C12.0563 -0.0557269 11.9203 -0.0764224 12.0155 0.171954C12.0972 0.385834 11.7502 0.551421 11.4508 0.434132C11.0766 0.289246 11.5937 1.06197 11.3691 1.20686C11.2127 1.30345 11.1446 0.634205 10.9745 0.641104C10.6411 0.641104 10.6003 0.0753582 10.3146 0.468621C10.2057 0.620406 10.1309 0.641112 10.0696 0.530723C9.94035 0.323743 9.46409 0.358238 9.54574 0.572117C9.63418 0.799796 9.26678 0.965374 9.17153 0.716998C8.91979 0.0615599 8.5932 1.16546 8.08292 1.16546C7.73593 1.16546 7.66109 1.35174 7.96045 1.46213C8.17817 1.54492 8.19178 1.65531 8.02169 1.92438C7.77675 2.31075 7.15761 1.00678 7.49779 1.22066C7.72912 1.36554 7.5114 0.413426 7.21884 0.910178C7.12359 1.07576 6.65413 0.848094 6.65413 1.02748C6.65413 1.22756 5.76283 0.868783 6.30713 1.40693C6.57928 1.68291 5.79004 2.04858 5.79004 1.56562C5.79004 1.23446 5.5383 1.24825 5.5383 1.51043C5.5383 1.8071 5.1709 1.7519 5.1709 2.03477C5.1709 2.37284 4.42248 1.93128 4.42929 2.19346C4.42929 2.43493 3.81014 2.18656 3.81014 2.57292C3.81695 3.00758 3.22502 3.32495 3.48356 3.58713C3.68087 3.78721 3.33388 4.09079 3.10935 3.69062C2.98008 3.45605 2.89163 3.49053 2.93926 3.76651C2.98008 3.99418 2.68752 4.34605 2.51742 4.28396C2.40176 4.24256 2.33372 4.29086 2.33372 4.41505C2.33372 4.65652 2.13641 4.68412 2.03435 4.45644C1.86426 4.09078 1.78261 5.24987 1.23831 4.9118C0.911727 4.71172 0.75524 4.9256 1.02739 5.19468C1.77581 5.93981 -0.00678436 6.0502 1.94322e-05 6.71944C1.94322e-05 6.82982 0.0544499 6.88502 0.122488 6.83672C0.190526 6.79533 0.244956 6.83672 0.244956 6.92641C0.251759 7.34037 0.517107 7.60255 0.170114 7.68534C-0.0339995 7.75433 -0.0339997 7.76814 0.16331 7.85093Z" fill="#9BA2CC" fill-opacity="0.56"/>
</svg>
