<svg width="65" height="54" viewBox="0 0 65 54" fill="none" xmlns="http://www.w3.org/2000/svg">
<path d="M4.0007 36.7478C4.42138 36.8467 4.52542 37.6676 4.92198 37.5355C5.29187 37.4118 5.32025 38.1239 5.80757 38.5094C6.02053 38.672 6.04168 38.7572 5.93376 38.9556C5.73773 39.3073 5.904 39.4333 6.17455 39.1501C6.33122 38.9788 6.39977 38.9607 6.40895 39.078C6.41741 39.3351 6.71235 38.9629 6.81812 39.1841C6.98757 39.546 7.08922 39.5811 7.21693 39.3376C7.39157 39.0156 7.43343 39.006 7.51573 39.2664C7.66767 39.754 8.40866 39.1369 8.48592 39.261C8.59261 39.4323 9.32456 39.1981 9.18835 39.3895C9.04433 39.5939 9.3847 39.833 9.24596 40.0588C9.08375 40.3238 9.40766 40.0237 9.62841 40.3783C9.70199 40.4965 9.78847 40.5329 9.82022 40.4557C9.93435 40.2288 10.3935 41.3124 10.6424 40.9688C10.7181 40.8725 10.7853 40.9291 10.8926 41.1657C11.1327 41.705 12.8345 41.9904 13.0903 41.6835C13.2026 41.5562 13.3167 41.5344 13.4326 41.618C13.709 41.8313 13.7408 41.7542 13.698 40.6984C14.4187 41.4715 14.5645 41.1675 14.3937 41.0853C14.0802 40.9279 14.8231 40.9163 14.8683 40.5274C14.9427 39.8907 15.3067 40.3857 15.3776 40.2432C15.486 40.0199 15.4311 40.7265 15.8682 40.4544C16.2671 40.1978 16.1395 40.7364 16.3429 40.6016C16.5729 40.4584 16.2197 40.0961 16.5711 40.1479C16.8414 40.1847 16.6604 40.0349 17.2141 39.9117C17.8515 39.769 17.783 40.2872 17.9843 40.1619C18.1626 40.0509 17.6928 39.7449 18.0263 39.5372C18.3081 39.3618 18.4003 39.5996 18.268 39.6819C17.8116 39.9742 18.999 39.9075 18.6842 39.4146C18.4687 39.0814 18.7063 39.04 19.0149 39.3563C19.3813 39.7269 19.6155 39.5647 19.2894 39.1691C19.2264 39.0935 19.4505 38.6588 19.5187 38.9607C19.578 39.2354 19.7251 38.9716 19.8538 39.1785C19.9532 39.338 20.5558 39.1268 20.3073 38.7404C19.8085 37.9521 21.2323 38.9189 21.8034 39.0799L22.2011 39.1932C22.239 38.1774 22.3482 38.7244 22.7452 38.3624C22.8879 38.2326 22.912 38.2586 22.9168 38.5098C22.9266 38.8973 23.3664 39.0909 23.475 38.7527C23.5275 38.5806 23.5521 38.5817 23.5944 38.7522C23.6277 38.8954 23.699 38.9331 23.814 38.8615C24.1246 38.6681 23.7329 38.4364 24.1541 38.3053C24.3142 38.2549 24.357 38.1954 24.2668 38.1532C24.1185 38.0815 24.6046 37.5165 24.7801 37.5548C24.9592 37.5991 24.4297 37.7483 24.6726 37.9333C24.7623 38.0005 24.8018 38.1153 24.7664 38.1866C24.6893 38.3575 24.9473 38.7463 25.0853 38.6604C25.2348 38.5673 25.3585 37.9327 25.2359 37.9025C25.1793 37.8885 25.2127 37.8267 25.3047 37.7694C25.5577 37.6119 25.4254 37.8993 25.9878 37.7131C26.5979 37.5138 25.9959 37.7901 26.1913 38.0784C26.6121 38.6775 27.1646 38.7189 27.4726 37.4448C28.7629 37.9535 28.9632 38.083 28.9281 37.6293C28.8971 37.1565 30.1672 37.5303 29.7856 37.7761C29.6475 37.862 29.8375 38.0389 30.083 37.7795C30.3498 37.4904 30.2005 37.8786 30.7482 37.6688C31.084 37.5417 31.8063 37.215 31.8162 37.3975C31.8224 37.5741 32.0294 37.4452 32.0274 37.2496C32.0189 36.9925 32.2126 36.9703 32.3597 37.2067C32.4591 37.3663 32.5345 37.3849 32.6238 37.2719C32.8007 37.0306 32.7896 37.4229 33.0537 37.0781C33.5704 36.3956 34.0328 37.3049 34.3167 36.0048C34.5736 34.8281 34.6188 36.4645 35.2581 36.0173C35.6402 35.7466 35.6538 35.73 35.5006 35.6121C35.2913 35.4554 35.5739 35.1401 35.6569 35.2607C35.8077 35.503 36.0742 34.8287 36.1361 35.5691C36.168 35.992 35.7069 36.0331 35.9861 36.0971C36.2124 36.153 36.5591 35.7486 36.4393 35.569C36.3179 35.3739 36.4345 35.3177 36.7034 35.4291C36.978 35.537 37.7003 35.2103 37.6914 34.9781C37.6896 34.8726 37.7381 34.8096 37.8078 34.8318C37.9681 34.8714 37.8454 35.4562 37.934 35.278C38.0127 35.1224 38.4276 35.2249 38.3961 35.3922C38.3516 35.6412 38.6846 34.9584 38.8612 35.242C38.92 35.3366 39.0504 35.3538 39.154 35.2893C39.4666 35.0865 39.8359 35.3978 39.4894 34.9821C39.1686 34.6078 39.4846 34.9359 39.6994 34.794C39.964 34.6293 39.8895 35.266 40.1421 35.1334C40.4559 34.9708 40.9342 34.6239 41.1952 34.7484C41.3173 34.8035 41.3943 33.7224 41.6201 34.4183C41.7261 34.7295 41.7449 34.7341 41.9633 34.508C42.3576 34.0903 42.9107 34.402 42.9027 34.12C42.9 33.8592 43.2309 34.096 43.1038 33.6996C42.9909 33.3516 43.2148 33.2369 43.272 33.5211C43.3053 33.6643 43.3561 33.6819 43.4396 33.5725C43.5738 33.3906 43.7228 33.5274 43.6165 33.7412C43.5415 33.9027 43.7839 34.1126 43.8946 33.7649C43.9388 33.6308 43.9774 33.5903 43.9776 33.6804C43.9886 33.9031 44.5745 33.6778 44.5693 33.4514C44.5652 33.0604 44.1163 32.7494 44.4001 32.5645C44.6129 32.432 44.7828 32.7691 44.66 32.8537C44.5162 32.9433 44.6466 33.1655 44.8442 33.0343C45.0972 32.8767 45.168 33.3493 45.2722 33.145C45.3608 32.9668 46.1382 33.3439 45.6689 32.6029C45.4093 32.1987 45.5451 31.8271 45.8505 32.1126C46.0163 32.2636 46.0581 32.2539 46.1932 32.0223C46.3303 31.7811 46.3513 31.7762 46.4283 32.0153C46.5179 32.2875 46.7153 32.2712 46.6408 31.9978C46.5753 31.7516 47.5213 31.9252 47.266 31.7972C47.082 31.7067 47.5759 31.5387 47.9105 31.5763C48.041 31.5935 48.1256 31.5244 48.1781 31.3523C48.3169 30.9215 49.4564 31.6881 49.1686 31.0719C48.9791 30.6651 49.1441 30.2507 49.3633 30.5899C49.6118 30.9764 50.496 30.9097 50.4144 30.5095C50.3726 30.3141 50.8684 29.8415 50.9366 30.1434C51.0552 30.6928 51.2118 29.6113 51.4899 29.84C51.6 29.9272 51.6403 29.9022 51.6928 29.7301C51.7452 29.558 51.774 29.5401 51.8423 29.637C51.8828 29.702 51.9529 29.6993 51.9826 29.6316C52.0201 29.5509 52.0631 29.5815 52.0875 29.6976C52.1415 29.9509 52.5518 29.8923 52.6062 29.6206C52.6683 29.3359 52.9032 29.2389 53.034 29.4363C53.2752 29.8109 53.2478 27.9338 53.6472 28.5626C53.9583 29.0495 54.2266 27.3654 54.7944 27.9058C55.094 28.1948 55.0228 27.5421 54.9007 27.487C54.711 27.4001 55.0482 26.9933 54.8239 27.1329C54.6457 27.2439 54.5075 27.0348 54.7108 26.9C54.9696 26.7389 55.061 27.3215 55.24 27.0707C55.3042 26.9815 55.5037 26.9558 55.7111 27.007C56.0941 27.0966 56.5157 26.9407 56.251 26.8103C55.9375 26.6529 56.8166 26.655 56.629 26.3536C56.5701 26.259 56.581 26.1867 56.6663 26.1828C56.7516 26.1789 56.7431 26.1267 56.644 26.0573C56.3749 25.8558 57.0303 25.5626 57.0349 25.7237C57.0394 25.8849 57.3248 26.1254 57.3247 25.8303C57.3219 25.5696 57.8765 25.3965 57.9896 24.9244C58.3353 23.4545 58.3755 24.9547 58.6082 24.3671C58.7732 23.9527 58.9133 23.8573 58.9673 24.1107C59.0266 24.3854 59.4369 24.3267 58.921 23.3441C58.5055 22.5614 58.6156 22.6486 59.3498 22.905C59.6869 21.9981 59.7323 21.9042 59.89 21.9782C60.0253 22.0416 60.0425 22.0309 59.9763 21.9245C59.9285 21.8477 59.9837 21.7313 60.0987 21.6597C60.3978 21.4735 60.0921 21.303 60.3099 21.3068C60.8555 21.3116 60.5807 19.9984 60.7877 19.8696C61.5144 19.4089 59.9587 20.2299 60.5836 17.7088C59.8999 18.405 59.9326 18.0731 60.2276 17.4958C60.4773 17.0124 60.4803 16.9531 60.2036 16.6498C59.7469 16.1469 60.1406 15.459 59.9048 15.6058C59.646 15.7669 60.0022 14.9547 59.7113 15.0129C59.4564 15.0649 59.4498 14.7082 59.2094 14.8989C59.0056 15.0586 58.5804 14.5935 58.9174 14.3017C59.0888 14.154 59.0897 14.1042 58.94 14.1072C58.7714 14.1056 58.7325 14.056 58.7293 13.8202C58.7145 13.2964 58.4591 13.7834 58.2436 13.4501C58.0744 13.1783 57.7321 13.4488 57.8922 13.1933C58.0231 12.9806 57.8934 12.8235 57.6958 12.9548C57.575 13.03 57.5341 12.9898 57.5116 12.7742C57.4756 12.3703 56.9339 12.4615 56.8372 12.7677C56.7769 12.9528 56.7252 12.985 56.5899 12.9216C56.451 12.8523 56.428 12.8666 56.4556 13.0135C56.5149 13.2882 56.2486 12.9373 56.3087 12.6621C56.3817 12.3051 56.23 12.8177 55.86 12.2363C55.7055 11.988 55.5953 11.9008 55.55 11.9946C55.5182 12.0718 55.3972 12.0569 55.2949 11.9566C54.9465 11.6405 54.3658 12.2972 54.0261 12.1233C53.7897 11.9999 53.7991 12.4123 53.5401 12.2783C53.1422 12.075 53.0889 13.002 52.7053 12.6422C52.4204 12.3768 52.5155 12.7604 52.1634 12.6434C51.5985 12.4538 51.2643 13.5065 50.542 12.923C50.3815 12.7933 50.3968 13.2922 50.1051 13.2852C49.7642 13.276 50.3123 12.5412 49.549 13.0328C49.2249 13.2428 49.172 13.2347 49.1118 13.0098C49.0299 12.7245 48.8698 12.775 48.6697 13.1456C48.5284 13.4058 48.4051 13.3103 48.4735 12.9971C48.5046 12.8548 48.4648 12.855 48.3274 13.0061C48.0684 13.2821 48.4339 13.2924 48.2613 13.3998C48.0831 13.5108 47.282 13.2879 47.2737 13.1209C47.2636 12.8483 46.6883 13.5263 46.0171 13.3455C45.6703 13.2499 45.6169 13.2667 45.632 13.4705C45.674 14.166 44.9358 13.5185 44.7395 13.7801C44.6211 13.9359 44.6066 13.7973 44.4648 13.1721L44.3519 14.1444C43.0736 13.6036 44.0638 14.7584 43.0339 14.514C42.566 14.4034 42.6076 14.9188 42.405 14.5037C42.1457 13.9845 41.3947 15.0342 41.2936 14.5642C41.2148 14.2197 41.1144 14.725 40.8805 14.5672C40.7027 14.4482 41.2082 14.7731 41.0179 15.1212C40.6769 15.7271 40.2751 14.7227 40.0089 15.077C39.8184 15.335 39.6015 15.2814 39.6259 14.9874C39.649 14.7681 39.6322 14.7539 39.5095 14.9287C39.4026 15.0773 39.357 15.081 39.3237 14.9378C39.303 14.8276 39.2076 14.764 39.1087 14.7846C38.8407 14.8284 38.8189 14.268 38.6407 14.379C38.4509 14.4971 39.0347 15.1914 38.275 15.1888C37.9321 15.1891 37.5151 14.6861 37.625 15.2983C37.6801 15.592 37.1627 16.0043 37.0193 15.7738C36.6787 15.2396 35.5067 15.8052 35.4008 16.1991C35.2788 16.6441 34.5534 16.3249 34.4983 16.0312C34.3928 15.4901 34.1078 16.9549 33.8834 16.5944C33.6017 16.1548 33.7014 16.9045 33.2816 16.9609C32.9225 17.0122 32.9292 17.1639 32.8372 17.0161C32.6606 16.7325 32.8617 17.2222 31.9072 16.9965C31.5809 16.9209 31.3798 16.9312 31.3817 17.0367C31.3846 17.3875 30.2051 17.0311 30.5457 17.5653C30.7076 17.8253 30.671 17.8563 30.1919 17.843C29.6238 17.8277 29.853 18.0293 29.5997 18.5068C29.5095 18.6696 29.2191 18.2928 29.2998 18.1277C29.3353 18.0565 29.333 17.9759 29.2999 17.9227C29.1122 17.6213 28.768 18.6064 28.5876 18.5219C28.3643 18.4067 28.3309 18.8785 28.2587 18.4807C28.1156 17.7252 27.8755 17.5959 27.8629 18.2679C27.8548 18.6009 27.8548 18.6009 27.5556 18.492C27.39 18.4311 27.2932 18.4422 27.3373 18.5131C27.453 18.7117 27.133 18.9027 27.0116 18.7077C26.8607 18.4654 26.8209 18.8756 26.4614 18.7468C26.1244 18.6286 25.852 19.0114 25.1935 19.0687C24.3318 19.146 24.5079 19.8646 24.9751 20.6151C25.1591 20.9106 25.0902 21.2486 24.4597 20.3127C23.9343 19.5328 23.9493 20.3517 23.4719 19.9437C23.2201 19.7315 23.1566 19.8858 23.3589 20.2109C23.5318 20.4886 23.3466 20.7679 23.1659 20.5032C23.0461 20.3236 23.0403 20.3272 23.0138 20.6307C22.991 20.9401 22.9852 20.9437 22.8898 20.6751C22.7149 20.2018 22.7654 20.7444 22.1364 21.3491C21.7969 21.6753 20.9722 20.7865 21.3419 21.4829C21.5013 21.7773 21.4276 22.2742 21.2763 21.8518C21.163 21.5288 20.4526 20.9132 20.4206 21.1053C20.3895 21.2477 19.8537 21.6304 19.5579 21.8474C19.9924 20.4945 19.493 20.9612 19.3949 21.3421C19.2902 21.7763 19.1977 21.8584 19.0558 21.6434C18.7557 21.1742 16.934 23.5547 16.2876 23.17C15.909 22.9464 15.8996 22.9441 15.8898 23.2617C15.8783 23.679 15.6425 23.8258 15.4146 23.5494C15.1625 23.2471 14.774 23.4562 14.9571 23.5964C15.1438 23.7426 15.2553 24.1652 14.6334 23.9866C14.2132 23.8628 14.1656 23.876 14.1766 24.0988C14.191 24.4424 13.9421 24.5809 13.6866 24.3628C13.4646 24.173 13.2137 24.321 13.1234 24.6888C13.039 25.053 12.8641 25.0798 12.7356 24.758C12.5129 24.2079 12.4216 24.8305 12.1268 24.5876C11.9757 24.4603 11.7378 24.8216 12.0426 24.8369C12.3437 24.8462 12.1651 25.2772 11.8061 25.1235C10.9622 24.755 11.7515 25.5101 11.4042 25.6443C11.0416 25.7798 11.1239 25.13 10.8885 25.4569C10.8222 25.5556 10.7574 25.5796 10.7588 25.5049C10.7563 25.3343 10.1347 25.7458 10.1415 25.9876C10.1505 26.2198 9.63775 26.3832 9.51634 26.1882C9.28616 25.8313 9.23221 26.4881 8.83239 26.7944C8.63065 26.9446 8.40125 27.358 8.95055 27.1636C9.45592 26.9884 9.42573 27.286 9.5065 27.1209C9.67217 26.7718 10.2196 27.9972 9.75824 27.7432C9.38497 27.541 9.21329 28.0087 8.99784 27.6754C8.78974 27.3539 8.55741 27.4166 8.63417 27.7706C8.68978 28.0394 8.67621 28.056 8.50418 27.9335C8.16588 27.6849 8.26833 27.1701 8.13484 27.6223C8.06418 27.8548 8.05107 27.8466 7.98189 27.5945C7.86306 27.16 7.42159 27.5661 7.59522 27.704C7.69802 27.7794 7.65269 27.8732 7.4399 28.0057C7.00076 28.2873 7.24555 27.9627 6.98219 27.9626C6.9026 27.963 6.86763 28.0094 6.9081 28.0744C6.95593 28.1512 6.86966 28.2049 6.64148 28.2485C6.18144 28.3299 6.03091 28.8829 6.02727 28.6719C6.02156 28.4705 5.64656 28.8679 5.69735 29.0905C5.8773 29.9051 3.83948 29.4517 4.95096 30.3014C5.2274 30.5147 5.229 30.5301 4.93917 30.6285C4.67602 30.7186 4.65623 30.7637 4.80914 30.9965C5.05035 31.3711 4.78767 31.4363 4.73734 31.1888C4.70034 31.0396 4.66262 31.0303 4.56139 31.1753C4.44658 31.337 4.42979 31.3229 4.40454 31.0516C4.32169 30.1109 4.03222 31.9148 4.20564 31.9626C4.34709 31.9975 3.99949 32.2467 3.90751 32.099C3.6148 31.6416 3.78312 33.0785 3.60277 33.1989C3.4705 33.2813 3.49807 33.4281 3.72778 33.8099C4.04003 34.3371 4.00063 34.7225 3.59434 35.1722C3.33898 35.4542 3.67292 35.6317 3.68367 35.9694C3.69488 36.2822 3.89785 35.7622 3.97143 35.8804C4.10434 36.0683 3.27827 36.5744 4.0007 36.7478Z" fill="#9BA2CC" fill-opacity="0.56"/>
</svg>
