<svg width="60" height="28" viewBox="0 0 60 28" fill="none" xmlns="http://www.w3.org/2000/svg">
<path d="M0.189631 9.31064C0.516083 10.2152 0.992158 10.3648 0.883341 10.5484C0.788126 10.7116 1.20979 10.7321 1.20979 10.9225C1.21659 11.3714 3.06648 12.1739 3.21611 12.582C3.38614 13.0444 4.03224 12.6568 3.88261 13.0444C3.76019 13.3573 4.95718 13.3709 4.95718 13.6157C4.95718 13.7925 5.33124 13.5273 5.44006 13.6701C5.65769 13.9694 7.54839 14.6087 7.63 14.6767C7.91565 14.9215 7.89525 14.3026 8.2625 14.8535C8.59576 15.35 8.60256 14.9487 8.99022 15.2752C9.15344 15.4112 9.19425 15.418 9.12624 15.2956C9.05823 15.1868 9.07863 15.1527 9.16705 15.2072C9.47309 15.3908 9.07183 15.6084 9.73834 15.6016C10.4252 15.5948 10.6701 16.2205 10.9625 16.1049C11.1734 16.0165 11.425 16.2341 11.425 16.5062C11.425 16.8666 13.1049 18.2472 13.4245 18.4105C13.9686 18.6893 13.7306 18.322 13.9754 18.6485C14.227 18.9886 14.3359 18.5533 14.6623 18.9614C15.0228 19.4034 15.5805 19.1722 15.4784 19.349C15.4104 19.4714 15.6825 19.6143 15.6757 19.485C15.6757 19.3558 16.5462 19.3354 16.4714 19.4646C16.383 19.6075 16.5666 19.5802 16.9747 19.6279C17.512 19.6891 17.4848 20.0903 17.682 19.9747C17.7568 19.9339 17.886 20.0019 17.9812 20.1379C18.2805 20.5596 18.8246 20.1379 19.049 20.5528C19.117 20.6752 19.2326 20.75 19.2938 20.7092C19.4503 20.6072 19.4639 20.8452 19.253 20.9405C18.9334 21.0765 19.4775 21.2601 19.9467 21.1785C20.2596 21.1241 20.4704 21.1581 20.6133 21.2737C20.9193 21.5254 22.2251 21.7498 22.1843 21.9674C22.1503 22.1442 22.4223 22.117 22.5584 21.9266C22.6128 21.8518 22.6468 21.8722 22.6468 21.9674C22.6468 22.2327 22.7964 21.845 23.3813 22.3619C24.211 23.1032 23.7553 22.2599 24.0682 22.2531C24.3538 22.2531 24.3266 22.7087 24.5239 22.7087C24.7211 22.7087 25.034 23.0624 24.9523 23.1984C24.9115 23.2664 24.9863 23.3208 25.136 23.3208C25.51 23.314 25.1088 23.076 25.5644 23.0692C25.9997 23.0624 25.8025 23.314 26.0881 23.314C26.1969 23.314 26.401 23.4024 26.5234 23.5181C26.6594 23.6337 26.9995 23.7289 27.3327 23.7425C28.4141 23.7765 27.9652 24.375 28.8357 24.307C29.6111 24.2458 29.5023 24.8579 29.7403 24.7151C29.7947 24.6811 29.8763 24.7355 29.9171 24.8375C30.0123 25.0755 30.366 25.0687 30.366 24.8307C30.366 24.5858 30.6108 24.5722 30.6176 24.8375C30.6176 25.1775 31.4746 24.7423 31.3113 24.9871C31.1753 25.1911 31.8622 25.1979 31.8622 25.3884C31.8622 25.4496 32.0255 25.4972 32.2363 25.4972C32.6784 25.4904 33.5285 26.3405 33.2905 25.5992C33.0184 24.7627 34.0454 26.4289 34.4602 26.0549C34.6303 25.8984 34.7255 25.8712 34.7867 25.9733C34.9567 26.2317 35.2424 25.5856 35.4056 25.8508C35.562 26.1025 35.9361 25.6944 36.1945 26.0957C36.4325 26.4629 36.521 26.1229 36.6502 26.3269C36.827 26.6194 37.3303 26.0549 37.3371 26.5581C37.3371 26.8574 37.5343 26.8846 37.786 26.6262C38.0852 26.3201 39.2006 26.4153 39.2006 26.7486C39.2074 27.3199 39.9419 26.3201 39.9487 26.8302C39.9487 27.0818 40.5472 26.9186 40.7104 27.1702C40.792 27.2927 40.8464 27.3063 40.9145 27.2043C41.0437 27.007 41.8122 26.837 41.8122 27.007C41.8122 27.1702 42.1114 27.2518 41.9822 26.871C41.8122 26.3473 42.9276 27.4015 42.9276 26.9118C42.9276 26.735 43.5465 26.9798 43.5465 26.769C43.5465 26.5921 43.7913 26.5718 43.7981 26.803C43.8049 27.4491 44.6414 26.5718 44.4918 26.837C44.3694 27.0614 44.7911 26.871 44.7911 26.7282C44.7911 26.4901 44.9883 26.6262 45.0087 26.8778C45.0427 27.2859 45.1651 27.3199 45.4236 27.0002C45.8928 26.4017 46.3757 27.2791 46.7702 27.041C47.0966 26.8438 47.2939 27.4287 47.5795 27.0206C47.6951 26.8574 47.7563 26.837 47.8243 26.9526C47.94 27.1362 48.2664 26.9118 48.2664 26.6534C48.2664 26.4289 48.6337 26.3269 48.6337 26.4697C48.6337 26.6194 49.0077 26.633 49.0077 26.4357C49.0077 26.3541 49.0825 26.3881 49.1914 26.5241C49.3682 26.7622 49.3818 26.7554 49.6674 26.4221C50.1843 25.8236 51.0753 26.667 50.7352 26.0617C50.606 25.8304 50.6128 25.8168 50.8372 25.9325C51.2249 26.1365 51.3949 26.0957 51.3201 25.8168C51.2793 25.6672 51.3201 25.572 51.4085 25.5652C51.5649 25.5652 51.5853 26.5717 52.1362 26.0073C52.3879 25.7488 53.8365 25.5652 53.9113 25.3612C54.0065 25.0959 54.1357 25.3884 54.3942 25.1707C54.4894 25.0891 54.571 25.0619 54.571 25.1095C54.571 25.1571 54.6526 25.1299 54.7614 25.0415C54.9927 24.8511 55.802 25.4972 55.6456 24.9123C55.5912 24.7083 55.6252 24.6742 55.8496 24.7287C56.2441 24.8239 56.8018 23.7425 56.5297 23.8037C56.3053 23.8581 56.1761 23.5929 56.6725 23.6133C56.9922 23.6269 57.0398 23.5861 57.033 23.28C57.0262 22.906 57.2166 22.6747 57.3186 22.9332C57.4139 23.178 57.7607 22.6135 57.6791 22.4843C57.5839 22.3279 58.196 21.9878 58.2096 21.7566C58.2368 21.4029 58.196 21.1105 58.5496 20.7432C59.0869 20.1787 58.4204 19.6415 58.8353 19.4782C59.0053 19.4102 59.0121 19.383 58.8489 19.2742C58.7265 19.1858 58.7129 19.1246 58.8149 19.0906C59.0325 19.0021 58.7605 18.7913 59.0053 18.5397C59.1957 18.3424 59.0733 17.8052 58.8421 17.812C58.7741 17.812 58.7197 17.7372 58.7197 17.642C58.7129 17.1999 57.6247 18.4989 57.6043 17.3699C57.5907 16.6626 57.1826 17.5467 56.9854 17.2339C56.8018 16.9482 56.4413 17.3563 56.2645 17.0639C55.666 16.0777 54.3602 16.6354 54.5778 16.0505C54.707 15.7036 53.8501 15.4316 54.5098 15.5608C54.8975 15.6356 54.9179 15.6016 54.7206 15.2412C54.6118 15.0439 54.6254 15.0031 54.843 15.0031C55.5028 14.9963 54.6662 14.5951 54.7818 14.2958C54.8771 14.0442 54.3262 13.6565 54.4214 13.5001C54.5098 13.3437 54.299 13.1804 54.2854 12.9084C54.2786 12.684 53.2924 12.2351 53.034 12.1059C53.6801 12.0515 54.0881 12.0175 54.0881 11.9358C54.0881 11.8406 53.1156 11.3441 52.4967 11.3169C52.0818 11.2965 52.347 10.9293 51.9866 10.9361C50.9732 10.9429 51.6329 10.2152 51.0957 10.392C50.5924 10.5552 51.2113 9.8275 50.8032 9.8275C50.504 9.8275 50.5312 10.1132 50.3475 10.0111C50.2795 9.97034 50.2591 9.89553 50.2999 9.82072C50.3407 9.75271 50.2727 9.58268 50.1571 9.46026C49.7082 8.97738 50.3951 8.72573 49.613 8.78694C48.9737 8.83455 48.9329 8.5353 48.7357 8.65772C48.5385 8.78014 48.6677 8.35167 48.4772 8.35847C48.2256 8.35847 48.5317 7.79399 48.1032 7.90281C47.94 7.94362 47.8583 7.90961 47.8515 7.79399C47.8515 7.59676 47.6543 7.56275 47.5387 7.74638C47.2258 8.25646 47.3007 7.29072 46.8382 7.44034C46.6137 7.51515 46.5797 7.49475 46.641 7.33152C46.7022 7.1615 44.8251 6.05972 45.2263 6.76023C45.4032 7.06628 45.3964 7.07988 45.1107 7.11388C44.7571 7.14789 44.9747 6.85543 44.6074 6.6582C44.1246 6.39976 44.621 5.78768 43.7097 6.05972C43.0092 6.27056 41.785 4.27783 41.6082 4.77431C41.5538 4.92394 41.4993 4.95115 41.4381 4.84913C41.3021 4.6315 41.0165 4.67909 41.0437 4.91713C41.0709 5.19597 40.6968 5.27759 40.792 5.10756C40.9349 4.86272 40.1731 4.53627 40.4792 4.34584C40.9281 4.067 39.7651 4.08061 39.6086 3.84257C39.5338 3.72695 39.4658 3.74736 39.3026 3.91058C38.8265 4.40026 38.6361 4.40705 38.1872 3.94458C37.7111 3.4549 37.5683 3.40049 37.6839 3.74734C37.7928 4.0874 37.4663 4.08741 37.1399 3.74056C36.759 3.33929 36.7114 3.72694 36.3305 3.36649C35.9225 2.99243 35.5348 3.52291 35.5144 2.68638C35.5076 2.26471 35.2492 2.52316 34.9499 2.23072C34.7391 2.01988 34.263 2.1151 34.2698 2.35994C34.2766 2.99924 33.4401 2.27832 33.5897 2.03348C33.6305 1.97227 33.6033 1.92466 33.5285 1.92466C33.3245 1.92466 33.4741 2.1763 33.2768 2.1763C33.0252 2.1763 33.3041 1.72063 32.9368 1.86345C32.5627 2.01308 32.5559 1.37379 32.0255 1.59822C31.6854 1.74105 30.2912 2.01309 30.2844 1.4894C30.2844 1.35338 30.2504 1.32617 30.1892 1.41458C30.0599 1.61181 29.5431 1.86345 29.5431 1.72742C29.5431 1.5506 29.0466 1.5302 29.0398 1.28536C29.033 0.877295 28.3937 1.34657 28.4821 1.47579C28.6249 1.70022 27.6184 1.58462 27.6116 1.10855C27.6048 0.727685 27.2239 0.639254 27.2715 1.19694C27.3259 1.82264 26.8566 1.60501 26.9791 1.92466C27.2171 2.55716 26.1833 1.40099 26.1833 1.14935C26.1833 0.924914 25.9861 0.97931 26.1629 1.47579C26.3534 2.01307 25.9453 1.97907 25.9453 1.85665C25.9453 1.65261 25.4828 1.73424 25.3876 1.95868C25.3128 2.13551 25.2788 2.1083 25.2108 1.80905C25.0339 0.999727 25.6937 1.23096 25.6937 0.999725C25.6869 0.612064 25.0339 1.24455 24.9591 1.19694C24.8843 1.15614 24.4015 1.24456 24.5783 1.84305C24.8027 2.59797 24.1702 2.55036 24.2586 1.71383C24.4219 0.169986 22.844 1.47579 22.5992 0.0543665C22.5856 -0.0272464 22.3747 0.238003 21.9939 0.720879C21.1573 -0.22447 20.9397 0.129177 21.0349 0.435225C21.1573 0.809284 20.7289 0.57126 20.7289 0.788894C20.7289 0.938517 20.3548 0.856887 20.3548 0.537237C20.3548 0.190382 19.7291 0.292416 19.7359 0.428438C19.7359 0.591664 19.3687 0.598458 19.3619 0.42163C19.3619 0.346818 19.2734 0.319617 19.1782 0.360423C19.0762 0.401229 18.8722 0.319617 18.7226 0.169994C18.2261 -0.312882 18.4437 0.401234 17.852 0.258411C17.2603 0.115589 17.75 0.748074 16.757 0.775278C15.8117 0.802483 15.6961 0.285609 15.5124 0.591657C15.3424 0.877302 14.3971 0.408034 14.3971 0.618867C14.3971 0.707281 14.0638 1.08813 13.4041 0.646056C12.3499 -0.061255 12.9008 0.822888 12.2275 0.714071C11.8603 0.652862 11.187 1.41458 11.1666 0.924903C11.153 0.52364 11.2142 1.04052 10.2416 1.19694C9.43229 1.32616 9.55471 1.56422 9.10584 1.59822C7.96326 1.67984 8.77939 2.52317 8.19449 2.52997C7.74562 2.53677 7.99046 2.97203 7.52799 2.54356C6.73906 1.81585 6.05216 3.4345 5.90253 3.07404C5.77331 2.768 5.61009 2.93123 5.61009 3.3597C5.61689 3.74736 5.58288 3.79496 5.36525 3.73375C5.16122 3.67254 5.12041 3.72015 5.12041 3.99219C5.12041 4.29144 5.0864 4.31185 4.75315 4.25064C4.36549 4.17583 3.82821 4.81512 3.73299 4.52268C3.65138 4.29144 2.95767 4.6043 2.99847 4.84913C3.05968 5.20279 1.9103 5.02595 1.9103 5.57683C1.9103 6.13452 -0.714911 6.80104 0.189631 9.31064Z" fill="#9BA2CC" fill-opacity="0.56"/>
</svg>
