<svg width="62" height="26" viewBox="0 0 62 26" fill="none" xmlns="http://www.w3.org/2000/svg">
<path d="M0.140061 9.62008C0.248879 9.62688 0.282884 9.65407 0.201271 9.68808C0.00404013 9.76969 0.391701 10.2186 0.650142 10.2186C0.976593 10.2186 0.541325 10.375 0.541325 10.7015C0.541325 10.8443 0.582131 10.8307 0.718153 10.647C0.88818 10.4158 0.894981 10.4226 0.901782 10.7354C0.915384 11.2795 3.78544 12.0141 3.45218 11.402C3.33657 11.1843 4.00987 12.0481 4.01667 11.844C4.01667 11.7624 4.11189 11.7284 4.2071 11.7624C4.54036 11.878 3.90105 12.2997 3.72423 12.8846C3.561 13.4355 2.78568 13.0886 3.41818 13.8027C4.06428 14.5373 3.81264 15.9451 4.8056 15.9383C5.30208 15.9315 5.13205 16.2919 5.37009 15.9655C5.75775 15.435 5.96178 16.3463 6.34944 15.8227C6.50587 15.6118 6.54667 15.5982 6.6895 15.7478C6.80511 15.8703 6.80511 15.8975 6.69629 15.8363C6.49906 15.7274 6.42425 16.1831 6.79831 16.0675C6.99554 15.9995 7.04315 16.0335 7.01595 16.2171C6.98874 16.3803 7.06355 16.4552 7.26078 16.4824C7.68925 16.5368 7.3764 16.1899 7.87288 16.4416C8.08371 16.5504 8.26054 16.5708 8.34215 16.496C8.6414 16.2443 9.2807 16.6728 9.08347 16.9992C8.99506 17.1421 9.48473 17.1557 9.54594 16.972C9.60035 16.8156 10.3213 16.8972 10.2329 17.2441C10.1444 17.5909 10.5865 17.4005 10.6545 17.3053C10.7565 17.1557 12.2596 17.9786 12.2596 17.8154C12.2596 17.6657 12.5044 17.6453 12.5112 17.8902C12.5112 18.1146 12.722 18.1282 12.8105 17.9106C12.9329 17.6045 13.0893 18.3867 13.5042 17.999C13.7218 17.795 13.8034 17.829 13.7694 18.101C13.7626 18.169 14.2931 18.9511 14.6263 18.5499C14.8644 18.2642 14.9936 18.2302 14.9936 18.4479C14.9936 18.6859 15.4901 19.0668 15.6941 18.992C15.9594 18.8899 15.7893 18.6655 15.9866 18.6655C16.0546 18.6655 16.109 18.8015 16.1158 18.9716C16.1158 19.3184 16.2994 19.3932 16.415 19.094C16.5374 18.7675 16.7483 18.8831 16.6667 19.23C16.5919 19.5292 16.6123 19.5564 16.8503 19.4952C17.2108 19.4 17.0339 19.6857 17.3536 19.5837C17.748 19.4544 17.68 19.9169 17.8773 19.6245C18.0745 19.3252 17.8637 19.8217 18.1901 19.9373C18.3261 19.9849 18.3669 19.9577 18.3193 19.8353C18.2377 19.6313 18.5234 19.4884 18.7954 19.5904C19.047 19.6857 19.3055 20.1277 19.1083 20.1277C19.0334 20.1277 19.0062 20.1821 19.047 20.2434C19.1763 20.4406 19.6455 20.0325 19.9108 20.2434C20.1488 20.4338 20.1964 20.0733 20.3733 20.393C20.5909 20.7874 20.8017 20.257 21.4138 20.7738C22.1891 21.4267 21.8831 20.495 22.3796 20.9303C22.6584 21.1751 23.1549 21.4948 23.0665 21.0323C22.9509 20.4338 23.5766 20.9915 23.8826 20.8759C24.0254 20.8214 24.0866 20.8759 24.0866 21.0459C24.0866 21.3451 24.2839 21.5083 24.3995 21.3179C24.5287 21.1071 24.8348 21.3859 24.828 21.1411C24.828 20.9166 25.8005 20.5766 25.2632 21.1887C25.066 21.4131 25.066 21.4403 25.2496 21.4403C25.3584 21.4403 25.4537 21.488 25.4537 21.5424C25.4537 21.6648 26.5554 22.0252 26.4738 21.6784C26.3922 21.3247 27.0859 22.3177 27.8 21.862C27.936 21.7736 27.9564 21.8076 27.9088 22.0184C27.8612 22.2157 27.902 22.2837 28.0721 22.2837C28.4665 22.2769 28.5549 21.692 28.8134 22.3109C28.8746 22.4605 28.929 22.5081 28.929 22.4129C28.9358 22.2701 28.963 22.2701 29.1262 22.3993C29.4663 22.6713 28.997 22.957 29.5207 22.7461C30.024 22.5489 29.956 22.8958 30.2348 22.7938C30.4592 22.7121 30.6633 23.3854 30.6701 23.1406C30.6769 22.9162 30.8605 23.2018 31.1121 22.9842C31.4046 22.7393 31.4386 23.1406 31.8943 23.0114C32.0439 22.9706 32.1663 22.9842 32.1527 23.0454C32.1051 23.3174 32.1867 23.3582 32.3975 23.1678C32.8668 22.7393 33.0641 23.3378 32.724 23.3378C32.2411 23.3446 32.8124 24.2084 33.8326 23.5283C34.5399 23.0522 34.227 23.8207 34.1318 23.9159C33.8258 24.222 34.5875 23.7459 34.7099 23.9295C34.8391 24.12 35.5124 23.6575 35.8457 23.9839C36.247 24.3784 36.8931 24.358 36.8863 23.9499C36.8863 23.7119 37.2059 23.7731 37.1583 24.1472C37.1175 24.46 37.4711 24.5144 37.5868 24.2152C37.7772 23.6983 38.0152 24.3512 38.4913 24.4464C38.777 24.5076 38.845 24.5756 38.7906 24.732C38.7293 24.9089 38.743 24.9157 38.879 24.7933C39.4639 24.2424 39.3074 25.1265 39.5047 25.1197C39.7019 25.1197 39.5387 24.562 39.7699 24.698C39.8719 24.7593 39.8923 24.7185 39.8379 24.5824C39.7495 24.358 40.1644 24.0587 40.382 24.188C40.7629 24.4192 40.1168 24.7525 40.1848 24.8545C40.2256 24.9225 40.1916 24.9837 40.1032 25.0177C40.0148 25.0449 40.0556 25.1061 40.1916 25.1605C40.4976 25.2761 40.1984 25.1605 40.4364 24.9157C40.8241 24.5212 40.5588 24.8953 40.8717 25.1741C41.0961 25.3714 41.1301 25.3714 41.1913 25.1877C41.2321 25.0789 41.341 24.9837 41.4294 24.9837C41.7286 24.9837 41.2389 25.4326 41.783 25.3305C42.4291 25.2013 41.6878 25.7522 43.2997 25.3238C44.5307 24.9973 43.6397 25.5346 43.7621 25.657C43.9118 25.7998 44.177 25.2557 44.5919 25.3918C44.8639 25.4802 46.1901 24.7184 46.2105 25.4122C46.2173 25.6026 46.2309 25.5958 46.3465 25.3986C46.5234 25.0857 46.945 25.1197 46.9518 25.4394C46.9586 25.8066 47.1083 25.5482 47.7068 25.5414C47.9652 25.5414 48.04 25.487 47.9924 25.3509C47.8904 25.0789 48.1148 25.1129 48.3869 25.4122C48.6385 25.6842 49.1214 25.8066 48.7541 25.4054C48.4617 25.0857 48.6657 24.8137 49.0466 25.0177C49.2778 25.1401 49.339 25.1061 49.5839 24.7185C49.8899 24.2288 50.2096 24.188 50.2708 24.6232C50.332 25.0177 50.5156 24.9565 50.6448 24.494C50.8013 23.9295 50.6856 24.5212 51.0121 24.5144C51.3793 24.5076 51.4542 24.8749 51.5902 24.6437C51.9642 24.018 52.0935 25.4802 52.4607 24.8681C52.5015 24.8001 52.4471 24.7797 52.3519 24.8205C52.1955 24.8817 52.1887 24.8477 52.3043 24.5824C52.5083 24.1268 52.6919 24.4668 52.8212 24.256C52.9572 24.0315 53.2836 24.2424 53.2088 24.5008C53.1612 24.664 53.1952 24.7389 53.3245 24.7389C53.8889 24.7321 53.304 23.8955 53.6985 24.0315C53.9841 24.1336 54.0182 24.0656 54.0182 24.2968C54.0182 24.494 54.3922 24.6844 54.3106 24.0519C54.2698 23.7051 54.2902 23.6371 54.4466 23.6915C54.5826 23.7391 54.6303 23.6847 54.6303 23.4943C54.6235 23.0658 55.4532 23.7255 54.9567 23.7255C54.7731 23.7255 54.6031 24.0315 54.7255 24.1472C55.0859 24.5008 54.8955 23.4535 55.5076 24.0043C55.6368 24.12 55.6572 24.0996 55.6028 23.8751C55.5008 23.4875 55.8136 23.6847 55.698 23.3786C55.6368 23.2154 55.6844 23.2358 55.8816 23.4467C56.1809 23.7663 56.2761 23.7935 56.1741 23.5283C56.0789 23.2834 56.3781 23.2834 56.3781 23.5147C56.3781 23.7391 56.7522 23.8887 56.7522 23.6439C56.7522 23.3514 56.997 23.5963 56.997 23.2222C56.997 23.059 56.9358 23.0046 56.8066 23.0522C56.6706 23.0998 56.6434 23.0658 56.691 22.9162C56.827 22.5217 57.0854 23.1474 57.5819 23.0046C57.7179 22.9638 57.8812 23.0046 57.9288 23.0794C58.058 23.2834 58.6089 22.7257 58.5205 22.4877C58.4797 22.3857 58.5001 22.3313 58.5613 22.3449C58.8673 22.4333 59.7991 21.4199 59.255 21.624C58.8877 21.76 59.3978 21.4199 59.255 21.2907C59.1258 21.1615 59.459 20.8282 59.7243 20.8282C60.1799 20.8214 59.7039 20.4202 59.9555 20.2638C60.1187 20.1617 59.9827 19.6721 60.2547 19.4544C60.4044 19.332 60.4112 19.2776 60.2819 19.2028C60.1595 19.128 60.1731 19.06 60.35 18.9307C60.826 18.5635 60.2956 18.0058 60.8804 18.1486C61.3225 18.2574 61.0777 17.965 60.8328 17.9718C60.5132 17.9718 60.8532 17.5161 60.6424 17.4549C60.4928 17.4073 60.6356 16.9516 60.86 17.0332C61.1185 17.1285 61.0437 16.4823 60.8872 16.4892C60.7988 16.4892 60.792 16.4348 60.8668 16.3327C60.928 16.2443 60.9757 15.9315 60.9689 15.639C60.9485 15.0269 61.615 14.2516 60.9689 14.4556C60.3908 14.6393 60.3228 14.5985 60.3023 14.0136C60.2751 13.2927 60.3432 13.0206 60.5608 13.0206C60.7716 13.0206 60.8124 12.701 60.622 12.5853C60.4384 12.4765 60.8124 11.9868 60.0575 12.2793C59.595 12.4629 59.3162 12.0277 59.459 11.9256C60.1051 11.4836 59.153 11.1707 59.0918 10.7763C59.0373 10.443 58.7925 10.5586 58.8401 10.749C58.9081 11.0211 58.5205 11.0551 58.33 10.7898C57.9492 10.2594 57.6023 10.9327 57.3779 10.9327C57.099 10.9327 57.0786 10.8851 57.2623 10.5518C57.5615 9.99414 56.5142 10.5654 56.5482 10.4974C56.6774 10.2594 55.9905 9.76289 55.596 9.8173C55.1403 9.87171 54.7663 9.7493 54.9839 9.61328C55.2083 9.47045 54.7799 9.1304 54.6915 9.38204C54.6235 9.56567 53.6781 9.59966 53.4061 9.42963C53.1204 9.2528 53.0592 9.8241 52.93 9.51805C52.8212 9.24601 52.1751 8.45029 51.7194 8.88556C51.4133 9.178 51.3997 9.1848 51.2229 8.94676C51.1209 8.81074 51.0393 8.66113 51.0325 8.59992C51.0257 8.4571 50.5564 8.66112 50.468 8.5251C50.3252 8.30066 49.9511 8.75633 49.8287 8.30746C49.6927 7.81778 49.4342 8.13745 49.5226 8.68153C49.5499 8.83115 49.2438 8.72233 49.3662 8.92636C49.4206 9.01477 49.3934 9.04878 49.2778 9.00797C49.0534 8.93316 49.1282 8.4639 48.9378 8.51151C48.6793 8.56591 48.9378 8.10344 48.5433 8.21226C48.3189 8.27347 48.2917 7.09687 48.0196 8.68832C47.4211 7.72937 47.1083 7.8994 47.1083 8.22585C47.1083 8.49789 46.8566 8.4911 46.877 8.25306C46.8974 8.03543 46.6322 8.08304 46.5234 8.32108C46.4146 8.57271 46.3261 7.9538 46.673 7.85859C46.9314 7.79058 47.0063 7.57295 46.7682 7.57295C46.469 7.57295 46.3057 6.89284 46.2989 7.41652C46.2921 7.9266 45.7072 7.57295 45.5848 7.9266C45.5508 8.02862 45.5984 8.05582 45.7209 8.00821C45.8841 7.947 45.8909 7.98102 45.7617 8.25306C45.3876 9.06239 45.3808 8.15104 44.8775 7.96741C44.5511 7.85179 44.415 7.60016 44.6735 7.59336C44.9863 7.59336 43.9526 6.36235 44.211 7.02886C44.4082 7.52533 43.6669 7.22609 43.9526 6.87923C44.0818 6.716 44.041 6.70242 43.6737 6.79083C42.9392 6.96086 42.4835 6.84524 42.64 6.78403C42.8304 6.70921 42.6876 6.21954 42.5447 6.31475C42.3951 6.40997 42.4223 5.62105 42.3407 5.87949C42.1095 6.60041 41.1913 6.18553 41.1845 5.86588C41.1845 5.56663 40.9329 5.58704 40.9329 5.83188C40.9397 6.35556 40.144 5.21978 39.9195 5.3558C39.7767 5.43741 39.9807 5.15857 39.8175 4.91373C39.5115 4.45806 39.1578 5.89309 37.886 4.7233C37.2535 4.13841 36.9611 4.92054 36.5326 4.62129C36.281 4.44446 36.0225 4.50567 36.1517 4.70971C36.1925 4.77772 36.1925 4.81851 36.1517 4.81851C35.9613 4.81851 36.0837 4.28123 35.4648 4.14521C34.948 4.02959 35.016 3.83917 34.7643 3.83917C34.4107 3.83917 34.9071 4.28123 34.5059 4.40365C34.3835 4.44446 34.193 4.52606 34.0706 4.58727C33.7714 4.7505 33.5265 4.43766 33.785 4.22003C34.0434 4.00239 34.159 3.62832 33.3497 4.05679C31.9827 4.7845 32.6832 3.85277 32.2955 3.85957C32.1119 3.85957 32.1051 3.83916 32.2411 3.66234C32.3771 3.48551 32.3703 3.4651 32.1595 3.5059C31.7378 3.58752 32.0847 4.7301 31.5474 4.7369C31.4998 4.7369 31.493 4.57368 31.5338 4.36285C31.6018 4.00919 31.5882 3.98878 31.187 3.99558C30.5205 4.00238 30.8129 3.60792 30.364 3.72354C29.9288 3.83916 30.3096 3.18626 30.3844 3.15226C30.5137 3.09785 30.4116 2.8122 30.1668 3.02303C29.8948 3.26107 29.9356 2.92781 29.6499 3.16585C29.3235 3.44469 29.3915 2.89382 28.8882 2.90062C28.7386 2.90062 28.623 2.84619 28.623 2.77818C28.623 2.49254 28.3645 2.68297 28.2965 3.01623C28.2149 3.43789 27.8884 3.64192 27.8816 3.26786C27.8816 2.99582 27.6368 2.95502 27.3988 3.19306C27.2695 3.31548 27.2627 3.30187 27.3648 3.09784C27.5756 2.66937 27.3308 2.41774 26.7595 2.47215C25.9229 2.56056 26.1474 2.00286 25.9433 2.2069C25.7801 2.37012 26.6438 2.70338 26.3718 3.14545C26.1338 3.53311 25.3992 3.43109 25.3992 3.29507C25.3992 3.05703 25.5693 3.4107 25.6101 2.66939C25.6645 1.69003 24.9232 2.12528 25.0864 2.54695C25.1816 2.78499 24.862 2.56057 24.6443 2.56057C24.5015 2.56057 24.7191 2.18649 24.5491 2.18649C24.2023 2.18649 24.2431 2.92101 23.5698 2.29531C23.1005 1.85324 23.5085 2.36334 23.3045 2.49936C23.1413 2.60818 23.1345 2.2001 22.8488 2.2069C22.74 2.2069 22.6856 2.15249 22.7264 2.08448C23.0053 1.61521 21.9307 2.60817 21.577 2.49255C21.4886 2.46535 21.4546 2.39734 21.4954 2.32933C21.5362 2.26132 21.4818 2.24771 21.373 2.29531C21.0874 2.41093 21.2506 2.59456 21.0466 2.59456C20.7745 2.59456 21.4274 1.56761 20.2304 1.77164C19.3259 1.92806 19.5571 1.09833 19.1899 1.62201C18.6866 2.33613 19.013 1.35678 18.6526 1.28877C18.5166 1.26156 18.4349 1.32276 18.4349 1.44518C18.4349 1.71722 17.6256 1.70363 17.6392 1.28877C17.646 0.962317 17.6392 0.962306 17.2516 1.21395C16.6939 1.5812 17.0815 2.47895 16.5306 2.07089C16.3266 1.92126 16.313 1.84644 16.4354 1.5744C16.6259 1.15274 16.347 0.839883 15.8845 0.955502C15.6465 1.01671 15.5989 0.99632 15.6533 0.839895C15.7077 0.68347 15.6261 0.656258 15.1772 0.703865C13.9258 0.833086 14.4223 1.31596 13.545 0.418221C13.1913 0.975909 13.0213 1.28875 13.0893 0.63585C13.1029 0.459023 13.0553 0.42502 12.9057 0.479429C12.7697 0.533837 12.6608 0.472632 12.5724 0.282202C12.4636 0.0373634 12.4568 0.0509644 12.5112 0.397819C12.5792 0.792281 12.314 1.09153 12.178 0.77188C12.1304 0.656262 12.1167 0.663056 12.1099 0.785475C12.0895 1.11193 11.8787 0.9147 11.7903 0.493034C11.6475 -0.241482 11.1986 0.350211 11.0286 0.0781678C10.913 -0.112262 10.5933 0.0849685 10.6001 0.343409C10.6001 0.669861 9.94721 0.629052 10.022 0.309402C10.1104 -0.0374529 9.74318 -0.119068 9.51874 0.200582C9.40992 0.363808 9.2467 0.44543 9.12428 0.411424C8.97466 0.363817 8.09732 0.683467 8.30135 0.336612C8.36936 0.227795 7.80487 0.0645682 7.89328 0.527041C8.0021 1.06433 7.3628 0.44543 7.3696 0.751478C7.3696 1.05753 7.11116 0.329806 6.53307 0.629053C6.00939 0.901096 6.23382 0.941909 5.52651 1.05073C5.08444 1.11874 4.45874 1.4996 4.45194 1.4996C4.13909 1.4996 4.15949 2.1661 3.67662 2.22051C2.77208 2.32933 3.65622 3.23386 3.05772 3.59432C2.86049 3.71674 2.74487 3.72353 2.62245 3.62832C2.36401 3.41748 2.3028 3.62834 2.50683 4.0092C3.20735 5.3218 1.81313 4.23362 1.92194 4.7233C1.96275 4.92733 1.74511 4.78452 1.39146 5.07016C0.860975 5.49863 1.95595 4.96135 2.05116 5.38981C2.08517 5.54624 2.03756 5.58704 1.84713 5.55303C1.50028 5.49182 1.39826 5.71625 1.6499 5.98829C1.88114 6.23993 1.80632 6.48478 1.49347 6.48478C1.32345 6.48478 1.33025 6.51198 1.53428 6.6548C1.92874 6.94045 2.20759 6.51878 1.98315 6.94725C1.53428 7.80418 1.6635 6.85203 1.13302 6.85883C0.405303 6.86563 1.36425 8.02863 0.752158 8.19185C0.643341 8.23266 -0.363218 9.59968 0.140061 9.62008Z" fill="#9BA2CC" fill-opacity="0.56"/>
</svg>
