<svg width="65" height="24" viewBox="0 0 65 24" fill="none" xmlns="http://www.w3.org/2000/svg">
<path d="M0.51691 4.69281C0.666534 4.44117 0.802555 4.57719 0.720942 4.90365C0.421695 6.05303 2.23078 6.01903 1.37384 6.35908C1.02699 6.49511 1.50987 6.66514 1.62549 6.58353C1.84312 6.43391 1.42825 6.95077 1.81592 7.1548C2.06755 7.28402 2.15597 7.85534 1.94514 7.99136C1.88393 8.02536 1.93833 8.17495 2.04715 8.29737C2.52323 8.82106 1.67309 8.86187 2.17637 9.40595C2.3804 9.63039 2.3804 9.6508 2.19677 9.58279C2.08796 9.54198 1.98594 9.56239 1.98594 9.6304C1.99274 10.0385 2.73406 10.1473 2.73406 10.2629C2.73406 10.4465 2.48242 10.1473 2.28519 10.5826C2.08116 11.0314 2.41441 10.773 2.30559 11.1266C2.18997 11.4939 2.61844 11.3307 2.62524 11.7931C2.62524 12.1128 3.07411 12.344 3.16933 12.072C3.26454 11.8136 3.37336 12.6909 3.67941 12.5685C3.78142 12.5277 3.89024 12.5481 3.93105 12.6093C4.04667 12.7793 4.39352 12.5004 4.33911 12.7317C4.29151 12.9357 4.61796 13.0514 4.61116 12.8337C4.61116 12.4937 4.59075 13.0105 5.25046 13.0105C5.81495 13.0037 5.97137 13.371 6.37263 13.337C6.7807 13.2962 7.11395 13.2758 6.84871 13.4594C6.52226 13.677 7.27038 13.2962 7.80766 13.6702C8.63739 14.2415 9.20868 13.3438 9.20868 13.7247C9.20868 13.9967 8.80742 14.0579 9.08626 14.0375C9.48072 14.0103 9.57594 14.0579 9.50113 14.2551C9.37191 14.5952 9.91599 14.2483 9.86838 14.5136C9.84798 14.602 9.91599 14.636 10.0452 14.5884C10.1676 14.5408 10.2152 14.5612 10.1676 14.6428C10.0112 14.9012 10.7797 14.5272 10.6709 14.942C10.6301 15.1121 10.6981 15.2141 10.9089 15.2889C11.2218 15.4045 11.3306 15.9078 11.0518 15.9146C10.9702 15.9146 11.011 15.9758 11.1334 16.0506C11.4394 16.2206 11.8339 16.0166 11.8339 16.1526C11.8339 16.2071 11.9563 16.2546 12.1059 16.241C12.6772 16.2138 12.718 16.2479 12.514 16.5743C12.1535 17.1456 11.1606 16.1798 11.5687 17.0776C11.8339 17.6625 11.2898 17.8461 12.1331 17.7645C12.4936 17.7305 12.2284 18.363 12.5072 18.3902C13.4117 18.4922 13.4525 18.499 13.3913 18.6758C13.3369 18.8186 13.4117 18.8595 13.6974 18.8595C14.3027 18.8527 13.983 18.465 14.5271 18.5738C14.7788 18.6214 14.8196 18.669 14.6971 18.7439C14.6087 18.7983 14.5815 18.8527 14.6427 18.8527C15.0032 18.8527 15.6901 18.0297 15.5269 18.5738C15.4317 18.8867 15.8261 19.0091 16.037 18.7302C16.241 18.4582 16.5946 18.4446 16.513 18.7166C16.4178 19.0295 16.7443 19.1723 16.8055 18.9887C16.8327 18.9003 16.9007 18.8663 16.9687 18.9071C17.0299 18.9411 17.0503 18.8934 17.0095 18.7982C16.8259 18.329 17.574 18.5058 17.574 19.0091C17.574 19.2539 17.6896 19.2539 17.9617 19.0091C18.1997 18.7914 18.4445 18.8526 18.4445 19.1383C18.4513 19.6076 18.7778 19.0363 19.009 19.1179C19.2947 19.2199 19.2539 18.7507 19.3899 19.0431C19.4511 19.1723 19.5123 19.1587 19.7027 18.9887C19.9136 18.7983 19.934 18.7982 19.9408 18.9819C19.9408 19.0975 20.036 19.1859 20.1584 19.1927C20.3556 19.1995 20.3488 19.2131 20.1448 19.3763C19.6075 19.7844 20.4917 19.7232 20.6141 19.2675C20.6685 19.0567 20.7093 19.0363 20.7977 19.1723C20.9133 19.3423 21.9675 19.5804 21.8587 19.4103C21.5866 18.9819 23.0421 19.6824 23.2461 19.6076C23.3481 19.5736 23.4229 19.6076 23.4229 19.696C23.4229 19.798 23.4637 19.7844 23.5385 19.6552C23.7834 19.2607 24.0146 20.1857 24.3683 19.8864C24.7083 19.6008 24.3819 20.1517 25.1096 20.0565C25.4292 20.0156 25.5381 20.0497 25.5381 20.1857C25.5381 20.3965 25.7421 20.4441 25.8101 20.2469C25.8849 20.0156 26.7486 20.5121 26.9119 20.2333C27.0547 19.9953 27.4696 20.3285 27.3267 20.0905C27.1907 19.8728 27.5988 20.1041 27.728 20.1041C27.762 20.1041 27.728 20.2129 27.6532 20.3557C27.5512 20.5529 27.558 20.5869 27.7008 20.5257C28.0953 20.3489 27.8436 19.9068 28.2449 20.2673C28.5645 20.5529 28.8162 20.3013 29.3671 20.4577C29.8703 20.6005 30.0608 20.2333 29.9656 20.4033C29.8635 20.5937 30.8701 20.5461 30.8701 20.4237C30.8701 20.3625 30.8225 20.3217 30.7477 20.3285C30.5436 20.3285 30.6049 19.9952 30.8293 19.9068C31.2306 19.7504 31.1557 20.6277 32.6588 20.4713C33.9782 20.3353 33.2641 20.8182 34.155 20.9746C34.8079 21.0902 34.6855 21.4439 34.8011 21.199C34.9031 20.9814 35.2364 21.0086 35.4268 21.2535C35.5764 21.4507 35.59 21.4507 35.59 21.2398C35.59 20.9066 36.1477 21.0086 36.1953 21.3554C36.2565 21.7635 36.8346 21.9131 37.1475 21.6003C37.4399 21.3146 37.916 21.3894 38.2153 21.7703C38.3309 21.9199 38.4397 21.9675 38.4669 21.8927C38.5417 21.6615 39.9223 21.8451 39.9903 22.09C40.0379 22.2532 40.0447 22.2532 40.0583 22.0764C40.0991 21.403 40.8473 22.464 41.1941 22.464C41.541 22.464 41.5342 22.9061 41.5478 22.6204C41.5546 22.4368 42.2687 22.4028 42.3367 22.5864C42.3639 22.6612 42.6019 22.7225 42.874 22.7157C43.3161 22.7089 44.3158 23.2733 43.8465 22.3824C43.0508 20.8658 44.9143 22.3484 44.9143 22.4572C44.9279 22.9129 46.3357 23.389 46.9274 23.1373C47.1995 23.0217 47.3219 23.0149 47.3831 23.1169C47.5055 23.3074 48.4645 22.7224 48.8249 23.2121C48.9609 23.4025 48.9882 23.3958 49.063 23.1509C49.1514 22.8517 49.3826 22.7973 49.607 23.0217C49.9335 23.3414 49.8179 22.566 50.4232 22.8381C50.9469 23.0761 50.6136 23.4366 50.9469 23.3073C51.2733 23.1849 51.5726 23.3142 51.6542 22.9809C51.7426 22.6205 52.6063 22.6612 52.6063 22.9129C52.6063 23.2189 53.2932 22.9265 53.3884 22.7633C53.5517 22.4776 53.9801 22.6749 54.1366 22.5048C54.2114 22.4232 54.7487 22.2396 54.6466 22.634C54.5854 22.8721 54.5922 22.8721 54.7147 22.6817C54.8847 22.4096 55.0887 22.3824 55.0887 22.6409C55.0887 22.8857 55.3404 22.8925 55.3335 22.6272C55.3268 22.2532 56.0817 22.8925 56.0749 22.0627C56.0681 21.5799 56.3197 21.6547 56.3197 21.8723C56.3265 22.4572 57.4895 21.8791 57.3807 21.6003C57.2515 21.267 57.8363 21.7907 57.986 21.3146C58.0336 21.1514 58.1424 21.0698 58.2444 21.1106C58.3464 21.1446 58.4076 21.131 58.3872 21.0834C58.326 20.8998 58.7613 20.4101 58.9041 20.4985C59.149 20.6549 58.8157 20.1313 59.0129 20.0088C59.1762 19.9068 59.1762 19.3151 59.0197 19.3151C58.8905 19.3151 58.7205 19.0091 59.2986 19.0023C59.7747 18.9955 59.6998 18.9547 59.7406 18.0433C59.7542 17.7101 60.2167 18.0637 60.0807 17.8461C59.9447 17.6353 60.4956 17.9209 60.4956 17.6965C60.4956 17.6216 60.5568 17.5877 60.618 17.6285C60.6928 17.6693 60.7132 17.6217 60.6656 17.5129C60.584 17.302 60.8016 16.8123 61.0737 17.1932C61.3321 17.5536 61.6517 17.5129 61.5769 17.1252C61.5429 16.9552 61.5701 16.8123 61.6313 16.8123C61.8694 16.8123 61.3321 16.4247 62.1346 16.5675C62.7807 16.6763 62.8215 16.6763 62.5291 16.2343C61.8558 15.2209 63.5356 16.3703 63.2704 15.9282C63.2364 15.867 63.2636 15.7785 63.3384 15.7309C63.5152 15.6153 63.9233 16.2478 64.1409 15.5269C64.277 15.0916 63.454 14.6496 64.345 14.3095C64.6918 14.1803 64.7122 14.1463 64.4946 14.0647C64.2566 13.9763 64.2566 13.9695 64.4742 13.8471C64.8891 13.6158 64.0593 12.9289 64.7598 12.7929C65.1407 12.7181 64.3586 12.3032 64.5014 12.1468C64.5694 12.072 64.277 11.9224 63.9165 12.4529C63.5288 13.0105 63.1752 12.7045 63.1752 13.0649C63.182 13.4798 62.4611 13.1126 62.053 13.3438C61.7062 13.541 61.6245 13.0921 61.3457 13.4458C61.2165 13.609 61.1621 13.6226 61.1145 13.507C61.0192 13.2826 60.2167 13.3166 59.9855 13.5546C59.6522 13.8947 59.523 13.269 59.1558 13.405C58.8905 13.507 58.9245 13.1874 58.5097 13.2962C58.326 13.3438 58.2104 13.3234 58.2104 13.235C58.2104 13.0309 57.7887 13.3098 57.8908 13.1397C57.9248 13.0785 57.8432 13.0037 57.7071 12.9697C57.3127 12.8745 57.5575 13.3778 57.3399 13.3846C57.1358 13.3846 57.3059 13.1397 57.0406 13.1397C56.7006 13.1397 56.8434 12.6841 56.5577 13.0445C56.3605 13.2894 55.4832 13.3506 55.0819 13.1397C54.8847 13.0377 54.8031 13.0513 54.6806 13.235C54.3746 13.6838 54.4902 12.9153 53.8305 12.9221C53.2864 12.9289 53.5857 12.5345 53.3952 12.5753C53.2252 12.6093 52.035 11.97 51.3753 12.3916C51.1033 12.5685 51.2529 12.1944 50.8516 12.3032C50.6884 12.344 50.6204 12.3236 50.668 12.2488C50.7632 12.0856 49.3486 11.6979 49.0494 11.8136C48.9269 11.8612 48.8725 11.8475 48.9269 11.7863C49.097 11.5959 46.7098 11.0586 46.2541 11.181C46.1181 11.215 46.0637 11.1878 46.1113 11.113C46.1589 11.0314 46.1181 11.011 45.9957 11.0586C45.7168 11.1674 45.7304 10.8478 45.3972 10.943C45.2748 10.977 45.1319 10.9566 45.0911 10.8954C44.9891 10.739 44.5403 10.7526 44.5403 10.9158C44.5403 11.1402 44.275 11.045 44.207 10.7934C44.173 10.6574 44.037 10.5485 43.9078 10.5485C43.5677 10.5485 43.7309 10.2493 43.5405 10.3717C43.3229 10.5078 43.146 9.92282 43.0032 10.1609C42.874 10.3717 42.6836 10.3513 42.6768 10.1269C42.6768 9.88202 42.4387 9.89565 42.1531 10.1541C41.8062 10.4669 41.9899 10.1677 41.3369 10.0181C40.6432 9.86844 41.1261 9.18153 40.7248 9.03871C40.4392 8.93669 40.4256 8.9435 40.4256 9.21554C40.4324 9.84804 39.0722 8.96388 39.0654 9.0659C39.0586 9.29033 38.6845 9.26995 38.6845 9.04552C38.6845 8.9095 38.5961 8.88227 38.3717 8.93668C37.814 9.0727 38.2425 8.48783 37.8684 8.49463C37.7664 8.49463 37.6848 8.54903 37.6848 8.61024C37.6848 8.78707 36.7938 8.44701 36.6646 8.22257C36.6374 8.16816 36.311 7.58328 36.311 8.69866C35.7465 8.03895 35.7397 8.22939 35.9437 8.03216C36.1001 7.88254 36.1001 7.86892 35.9097 7.93013C35.5628 8.05255 35.8553 7.59007 34.6515 8.09335C34.4475 8.18176 34.4271 8.15456 34.4951 7.88252C34.5835 7.52206 34.3999 7.38604 33.9646 7.50166C33.5429 7.61048 33.8694 7.26364 33.4273 7.31125C32.3663 7.42687 32.5772 6.26386 31.795 6.86236C31.5842 7.02558 31.0877 7.00519 31.0809 6.83517C31.0537 6.28428 29.5031 5.72659 28.687 5.97823C28.0749 6.16866 28.2313 6.48831 28.1157 6.10745C27.9592 5.57016 27.1771 5.71299 27.2927 5.39334C27.3947 5.1009 27.1159 5.50214 26.6942 5.12128C26.2386 4.69962 25.4224 5.04646 25.266 4.81523C25.1368 4.6316 24.7491 4.5296 24.6743 4.65882C24.6063 4.77443 24.2527 4.53639 24.2935 4.40037C24.3343 4.25755 23.6882 4.20995 23.8174 4.40718C24.1166 4.87645 23.0761 3.89707 22.804 3.99909C22.6952 4.0399 22.634 3.99912 22.6544 3.90391C22.6816 3.78149 22.532 3.72706 22.1307 3.71346C20.0972 3.64545 20.2332 3.06735 20.0836 3.32579C19.968 3.50942 19.6483 3.47541 19.6483 3.27818C19.6483 3.06735 19.1518 2.90412 19.1518 3.15576C19.1518 3.3938 18.9546 3.38022 18.8526 3.13538C18.7642 2.90415 16.9347 2.82252 16.7171 2.53008C16.615 2.39406 16.547 2.36005 16.547 2.44847C16.5402 2.70691 15.9485 2.5777 15.7853 2.28525C15.3909 1.56434 15.316 2.43487 15.5881 2.53689C15.7989 2.6185 15.0236 3.33259 15.1732 2.26483C15.2344 1.82276 14.4047 2.7545 14.0714 2.05399C13.9218 1.74795 13.8946 1.72753 13.7926 1.91796C13.6294 2.22401 13.4389 2.20362 13.4389 1.88397C13.4321 1.4419 13.1193 1.87719 12.8269 1.56434C12.4664 1.18348 11.6231 2.03361 11.7319 1.68675C11.8271 1.3807 10.8069 0.57815 10.6573 0.979413C10.5893 1.16304 9.83438 1.33308 9.83438 1.16306C9.83438 0.993029 9.3379 1.05426 9.3311 1.23109C9.3311 1.3127 9.24269 1.19027 9.14067 0.965839C8.85502 0.319737 8.82782 0.829816 8.34494 0.496564C7.37239 -0.169941 8.82102 1.53034 7.96408 1.2719C7.61043 1.16308 7.81446 1.4623 7.60363 1.4623C7.4268 1.4623 7.52882 0.965839 7.33839 0.965839C7.15476 0.965839 7.29078 0.646201 7.4336 0.680206C7.58322 0.714211 7.58322 0.217703 7.42 0.224504C7.19556 0.224504 6.57667 0.829818 6.66508 0.965839C6.7671 1.12907 6.10059 1.02026 5.92376 0.850233C5.84215 0.76862 5.87615 0.755013 6.01218 0.80262C6.23661 0.884233 6.54946 0.442145 6.42024 0.231312C6.04618 -0.360381 5.63812 1.23789 5.62452 0.843425C5.61091 0.503371 4.8764 0.523765 5.26406 0.408146C5.5089 0.340136 5.66532 -0.00670241 5.44769 9.86667e-05C4.82879 0.027303 4.80839 1.14946 4.47513 0.448951C4.16909 -0.210753 3.11492 0.516942 3.20333 0.768582C3.38016 1.29907 2.10156 0.299341 2.29879 0.80262C2.39401 1.04066 2.06075 1.79558 1.90433 1.70037C1.83632 1.65956 1.78191 1.71395 1.78191 1.80917C1.78191 2.06081 1.17661 2.39406 1.19702 2.70691C1.23782 3.44143 0.312878 3.95832 0.312878 3.57066C0.312878 3.33262 0.0680393 3.32578 0.190459 3.99909C0.26527 4.39355 0.244867 4.4956 0.0816415 4.5364C-0.224407 4.55 0.421695 4.85604 0.51691 4.69281Z" fill="#9BA2CC" fill-opacity="0.56"/>
</svg>
