<svg width="60" height="39" viewBox="0 0 60 39" fill="none" xmlns="http://www.w3.org/2000/svg">
<path d="M2.56718 20.7491C2.55878 20.9985 2.95992 21.3248 3.05933 21.1489C3.11905 21.0336 3.22277 21.28 3.0815 21.4322C2.9242 21.6029 3.25838 21.7642 3.12218 22.1126C3.03368 22.3277 3.04023 22.3259 3.18843 22.1224C3.3319 21.9273 3.36357 21.9397 3.43998 22.215C3.56479 22.6391 3.27138 22.5229 3.34052 22.7719C3.41511 23.0406 3.52473 22.749 3.83194 23.1437C4.13914 23.5384 4.18761 23.1791 4.64116 23.6178C5.3284 24.2881 5.03762 23.5713 5.27352 23.6328C5.53454 23.7086 5.15007 23.9 5.42196 24.2692C5.61524 24.5332 7.13 24.9808 7.52865 24.8913C7.82063 24.8244 7.91891 24.9241 7.75688 25.1032C7.62216 25.2536 8.17037 25.6519 8.24905 25.376C8.33355 25.0702 8.97794 24.976 9.23019 25.2236C9.34886 25.3459 9.52869 25.4089 9.6299 25.3667C10.2878 25.0923 11.3387 25.5981 11.5201 25.4631C11.7127 25.3178 12.3097 25.5615 12.3238 25.7905C12.326 25.8746 12.4039 25.9517 12.4982 25.9609C12.7381 25.986 12.5565 25.5353 13.1914 25.7119C13.4673 25.7906 13.464 25.9821 13.1888 26.0585C13.0119 26.1076 12.9805 26.1728 13.0701 26.3173C13.3627 26.7866 11.4865 28.8251 12.2992 30.0746C12.5467 30.4576 12.8554 30.7813 13.0352 30.8443C13.2784 30.9321 13.321 30.9838 13.2183 31.097C12.9856 31.3522 13.5648 31.3537 13.6958 31.8256C13.8006 32.1776 14.4734 32.2873 14.5545 32.5541C14.6975 33.0438 16.4261 32.5074 16.5554 32.4645C17.254 32.2352 17.0148 32.8734 17.5172 32.3951C17.8682 32.0577 17.5129 31.9728 17.8045 32.0824C18.2079 32.2386 18.7023 31.7061 18.766 31.9355C18.8151 32.1124 18.431 32.1273 18.4813 32.2827C18.5249 32.44 19.0973 31.8576 19.6725 31.6414C20.2674 31.4198 20.0191 32.0252 20.1782 31.861C20.2648 31.7664 20.7865 32.0945 20.6624 31.8254C20.416 31.2939 21.4017 31.8954 21.6031 31.4513C21.7484 31.1357 22.3815 31.4329 22.3374 31.5792C22.2693 31.8169 22.8387 31.2494 22.9279 31.5705C23.0152 31.8851 23.4288 31.6715 23.4212 31.3136C23.3937 30.5025 24.0513 31.7527 24.3972 31.6002C24.7937 31.4266 24.8992 31.6797 25.2098 31.3746C25.382 31.2068 25.4643 31.1981 25.6445 31.3386C25.8516 31.5 25.8629 31.4898 25.7792 31.1883C25.6621 30.7409 26.1736 30.6765 26.1094 31.0049C26.0446 31.3052 26.4534 31.6082 26.6864 31.4305C26.7916 31.3519 26.8728 31.3647 26.8983 31.4564C26.9474 31.6334 27.488 31.6738 27.5528 31.5006C27.6224 31.3189 28.0192 31.2229 28.0039 31.3965C27.9813 31.671 28.7153 31.3402 29.2159 30.8553C29.3495 30.7265 29.4027 30.7399 29.4573 30.9365C29.5537 31.2839 29.2305 31.0348 29.2832 31.2248C29.3596 31.5001 29.5941 31.3785 29.7409 30.9919C29.9153 30.527 30.1578 30.4597 30.1453 30.8726C30.1333 31.3629 30.5833 30.7721 30.8498 31.1217C31.0514 31.3904 31.256 31.1359 31.1421 30.7511C31.0785 30.5217 31.1047 30.3874 31.2226 30.3547C31.511 30.2746 31.5094 30.9809 31.6602 30.939C32.1236 30.8033 31.8302 30.5601 32.2274 30.4145C32.4382 30.3348 32.5212 30.3541 32.5128 30.4764C32.4942 30.7145 33.0793 30.4321 33.1795 30.1573C33.3616 29.6691 34.6706 30.6467 34.5203 30.1309C34.4657 29.9343 35.2942 30.1983 35.5196 29.7899C35.7137 29.4466 35.9074 29.407 35.9154 29.7153C35.9223 30.0451 36.0926 29.9978 36.3854 29.5778C36.613 29.2534 36.613 29.2534 36.9781 29.3991C37.4317 29.5837 37.6421 29.5535 37.4663 29.3271C37.2461 29.0424 37.9363 29.1895 37.9807 29.2478C38.1223 29.4273 38.4169 28.8867 38.5472 29.3305C38.6072 29.5468 38.652 29.5555 38.8242 29.3877C39.0077 29.2097 39.0805 29.2177 39.1191 29.4329C39.2235 29.9615 40.3993 28.1458 40.5423 28.6354C40.5878 28.7993 40.9245 28.614 40.9646 28.7582C41.021 28.9613 41.7455 28.7743 41.8005 28.5402C41.9017 28.1169 42.6152 28.6528 42.4958 28.2484C42.4485 28.078 42.4748 28.0707 42.7573 28.1476C43.2858 28.2973 43.8356 27.7352 44.1709 27.8751C44.5146 28.0197 44.2256 27.4364 44.4549 27.3727C44.6515 27.3181 44.2828 26.9053 44.6629 26.7997C45.0084 26.6968 44.8922 26.9902 45.0888 26.9356C45.3378 26.8664 44.8857 26.4838 45.4136 26.6054C45.8967 26.7184 45.9717 26.4293 46.1683 26.7559C46.2975 26.9671 46.3106 26.9634 46.374 26.607C46.5467 25.6274 47.1612 25.7815 47.1509 26.1513C47.1491 26.2718 47.8113 26.4197 47.9922 26.3342C48.1113 26.28 47.8208 25.8948 47.9959 25.8391C48.186 25.7863 48.127 26.0568 48.3039 26.0077C48.5005 25.9531 47.9203 25.4648 48.5737 25.6575C48.9046 25.7562 48.5267 26.1999 48.9723 26.0762C49.1165 26.0362 49.1805 25.962 49.123 25.9073C48.9727 25.7726 49.2184 25.895 49.359 25.3336C49.6198 24.3154 51.1746 25.0343 50.5007 25.2002C50.0234 25.3115 50.3382 26.064 51.1018 25.1533C51.4571 24.7299 52.6164 24.1258 52.0736 24.0012C51.4096 23.8467 52.2317 23.4773 52.2917 23.6936C52.3481 23.8968 52.7194 23.836 52.8436 23.5968C53.0217 23.2721 52.9554 23.6435 53.2222 23.5623C53.5808 23.4557 52.9227 22.6361 53.574 22.9988C53.8819 23.1674 54.5584 22.782 55.1802 22.5811C55.2833 22.5454 55.2953 22.4362 55.2069 22.2702C55.0522 21.9673 55.0682 21.9487 55.4206 22.0485C55.6882 22.1225 56.3606 21.9005 56.1328 21.512C55.8099 20.9593 56.5657 20.8342 56.4474 20.4082C56.3372 20.0365 56.8749 19.7108 56.7264 19.5826C56.539 19.4158 56.8798 18.9401 56.5572 18.8461C56.2413 18.7503 56.6592 18.4508 56.8245 18.4613C57.0626 18.4799 57.0703 18.0755 56.8308 18.0008C56.6695 17.9538 56.6615 17.8996 56.7795 17.7398C57.2448 17.1024 56.3595 16.8117 56.8568 16.5184C57.2209 16.3044 57.1656 16.0797 56.7142 15.9792C56.3542 15.9027 56.2668 15.7152 56.51 15.5489C56.6997 15.4186 56.5868 15.7746 56.7885 15.7892C56.9603 15.7979 56.778 15.1921 56.6535 15.2267C56.4766 15.2758 56.4642 14.9263 56.6324 14.7949C56.9303 14.5711 56.3271 14.1527 56.686 14.2507C56.7923 14.2776 56.7479 14.2194 56.5936 14.1211C56.2143 13.8734 56.5336 13.6507 56.1921 13.8443C55.8637 14.0343 55.8156 13.8359 56.1065 13.6634C56.3487 13.5185 56.2053 13.2054 55.8234 13.0503C55.6315 12.9694 55.6243 12.9432 55.7812 12.822C55.9851 12.6666 55.8676 12.1416 55.6313 12.1296C55.2793 12.1073 56.1903 10.7109 55.6399 10.8637C55.1109 11.0177 54.601 9.74049 54.1703 9.86713C53.7789 9.98284 53.6967 9.48335 53.1219 9.65C52.547 9.81666 52.9169 9.31869 52.6108 9.41075C52.0621 9.57013 52.1012 8.8464 51.7433 8.85399C50.8809 8.87462 51.4542 9.28718 51.1986 9.48519C51.0821 9.574 51.0217 9.5343 50.9849 9.3257C50.8921 8.86443 50.8521 8.84732 50.591 9.15272C50.1377 9.6809 50.0195 9.00083 49.7821 9.26437C49.5767 9.49078 49.9263 9.0973 49.235 8.71749C48.7177 8.43055 48.4301 8.53862 48.6336 8.94093C48.7449 9.16411 48.7296 9.21071 48.5119 9.21469C48.0055 9.22117 48.1087 8.42317 47.6714 8.67868C47.4959 8.78387 47.4409 8.76384 47.4533 8.60512C47.4657 8.44639 47.4424 8.43874 47.3565 8.56141C47.0466 9.02153 47.0114 8.48782 47.1198 9.3612C47.1401 9.51083 46.5235 9.14561 46.4696 8.97704C46.4078 8.75423 46.1685 9.01122 46.1758 9.29155C46.2055 10.0597 45.4459 8.69657 44.8787 8.83993C44.3705 8.96692 44.6843 9.10567 44.337 9.20209C44.0159 9.29124 43.9962 9.04259 44.1535 8.99893C44.3632 8.94071 43.9406 8.74041 43.8278 8.33411C43.8005 8.23582 43.317 8.04536 43.5558 8.47315C43.8462 8.98542 42.8986 8.77559 42.8604 9.14619C42.8312 9.4225 42.4938 9.07151 42.4822 8.75005C42.4738 8.49121 42.4356 8.48063 42.0588 8.64877C41.4908 8.89115 41.7159 8.65929 41.3391 8.44627C41.1381 8.33265 41.1138 8.34649 41.1658 8.5085C41.1985 8.62645 41.157 8.68033 41.046 8.66175C40.9481 8.63953 40.9237 8.65336 40.9841 8.69305C41.1199 8.77534 40.8598 9.56748 40.6763 9.61842C40.4994 9.66754 40.6323 9.25655 40.3157 9.00567C39.9739 8.74059 40.3895 9.11926 39.7725 9.18471C39.5453 9.20543 39.4375 9.24947 39.5355 9.27169C39.6436 9.3052 39.5671 9.41113 39.3286 9.56909C38.7982 9.92106 38.8459 9.53371 39.0276 9.34916C39.2479 9.12566 39.0215 8.9203 38.6963 9.04586C38.2551 9.21071 38.013 9.22852 37.9766 9.09746C37.9002 8.82222 36.8227 8.37319 37.0868 9.27389C37.1742 9.58845 36.7574 9.35831 36.7778 9.12677C36.7993 8.87376 36.5175 8.95199 36.583 9.1879C36.6467 9.41727 36.4108 9.48277 36.3635 9.31239C36.3089 9.11579 36.2018 9.44197 36.0311 9.28467C35.8232 9.09534 36.0711 9.5559 35.0718 9.00749C35.0369 9.1866 34.8442 10.0942 34.5618 9.12793C34.4442 8.73 34.24 8.80787 34.2217 9.25056C34.1973 9.77261 34.0571 10.0303 34.0455 9.58183C34.0274 9.00808 33.2989 9.35856 33.5668 9.12888C33.8996 8.85297 33.1788 8.79899 32.7757 9.35557C32.5529 9.67154 31.5184 8.58943 31.807 9.2222C31.8612 9.34125 31.6224 9.42167 31.5805 9.27095C31.5387 9.12022 30.9969 9.35533 30.8382 9.59703C30.738 9.74483 30.6481 9.77685 30.5112 9.71603C30.2328 9.60277 29.9087 9.96096 29.7445 9.80185C29.6091 9.67004 29.2949 9.70786 29.557 9.88919C29.7671 10.0356 29.6108 10.693 29.3815 10.3755C29.0772 9.96594 28.9402 10.6674 28.739 9.71397C28.6605 9.35463 28.4249 9.49768 28.4613 9.62874C28.5788 10.0267 27.2269 9.04681 27.664 9.80775C28.1084 10.5949 26.558 9.79012 26.9238 10.345C27.0181 10.4812 26.9984 10.6137 26.8647 10.7425C26.5156 11.0865 26.8437 10.5649 26.4167 10.3234C26.0836 10.1406 26.0279 9.71141 26.0086 9.92146C25.955 10.4657 25.6508 9.802 25.5852 9.8202C25.3129 9.88168 24.907 9.81792 24.9761 10.0669C25.0435 10.3094 24.6823 10.3814 24.6321 10.226C24.5793 10.0359 24.2381 10.4342 23.9578 10.3144C23.6673 10.1833 22.9792 10.5013 23.0007 10.7565C23.0272 11.0809 22.6879 11.1045 22.6286 10.7893C22.5497 10.3524 22.1954 10.7543 22.1408 10.5577C22.1026 10.42 21.8511 10.4546 21.9267 10.7018C22.0334 11.0604 21.2398 10.2361 21.1044 10.6125C21.049 10.769 21.0049 10.7883 20.9281 10.6896C20.8615 10.6023 20.725 10.619 20.5495 10.7242C20.1319 10.9742 19.8582 10.4714 20.0992 10.8563C20.485 11.4832 18.988 11.2777 19.4439 10.9111C19.8593 10.577 18.1774 10.6204 18.0411 11.0959C17.9519 11.41 17.5009 10.8788 17.1667 10.9716C16.6705 11.1164 17.5893 11.299 17.1549 11.7936C16.8025 12.2021 16.5375 11.7816 16.551 11.6013C16.574 11.2773 16.1294 11.6337 16.0592 11.4061C15.9919 11.1637 15.3977 11.7945 15.2965 11.4556C15.1881 11.0904 15.0602 11.4435 15.1144 11.9437C15.1748 12.4916 15.0014 12.6809 14.8705 12.2091C14.7274 11.7194 14.2763 12.3317 14.3597 12.0474C14.422 11.8395 14.142 11.9243 14.1857 12.0816C14.2203 12.2061 14.012 12.4474 13.9007 11.8431C13.7966 11.2649 13.3442 10.9318 13.6006 12.2369C13.716 12.8049 13.0124 11.6944 12.9538 11.6613C12.7277 11.5335 12.4945 12.9816 12.2619 12.8556C12.1949 12.8178 12.1975 12.7253 12.2681 12.6492C12.5008 12.3941 11.8284 12.1078 12.0538 11.9535C12.5872 11.5866 11.1113 11.6858 11.5146 12.3502C11.7009 12.6655 11.5291 12.6568 11.2914 12.3345C11.1 12.0771 10.6901 12.0498 10.7639 12.2904C10.9288 12.8587 9.13452 11.557 9.33393 12.2498C9.43217 12.6037 8.8887 12.197 8.52529 12.8202C8.22159 13.328 7.94642 13.0232 8.08114 12.8729C8.28649 12.6465 8.12487 12.522 7.90277 12.7389C7.76914 12.8678 7.65482 12.9136 7.58894 12.8543C7.48774 12.7694 6.98064 12.6208 7.1699 12.9212C7.33515 13.1859 6.95796 13.4035 6.91611 13.2528C6.87245 13.0955 6.34381 13.327 6.4399 13.4697C6.65428 13.7843 4.77097 14.2719 5.64502 14.5727C5.97302 14.6863 5.52814 14.711 5.62202 15.0237C5.69844 15.299 5.35807 15.09 5.22079 15.3328C5.16399 15.4332 5.09845 15.4514 5.02893 15.379C4.9696 15.3178 4.76424 15.5442 4.57197 15.894C3.91215 17.0513 4.92023 16.9196 4.519 17.2287C4.27943 17.4081 4.48591 16.9061 4.00244 16.9697C3.44507 17.0468 4.10433 17.3367 3.89424 17.5715C3.84617 17.6272 3.78757 17.5941 3.75554 17.5041C3.71188 17.3469 3.18183 17.2682 3.1079 17.4087C3.05583 17.5008 3.4799 17.8842 3.59786 17.8514C3.66994 17.8314 3.72855 17.8646 3.74857 17.9366C3.79587 18.107 3.40815 18.1088 3.46201 18.2774C3.50567 18.4346 3.28249 18.546 3.27198 18.2031C3.25167 17.6723 2.58683 18.2521 3.13028 18.7859C3.67374 19.3197 3.13028 18.7859 2.87172 19.38C2.66925 19.8456 2.76396 19.424 2.45338 19.7291C2.16355 20.0072 2.54143 20.0716 2.36156 20.2627C2.15329 20.5041 2.5767 20.3512 2.56718 20.7491Z" fill="#9BA2CC" fill-opacity="0.56"/>
</svg>
