<svg width="62" height="27" viewBox="0 0 62 27" fill="none" xmlns="http://www.w3.org/2000/svg">
<path d="M0.140061 10.4033C0.248879 10.4101 0.282884 10.4373 0.201271 10.4713C0.00404013 10.5529 0.391701 11.0018 0.650142 11.0018C0.976593 11.0018 0.541325 11.1582 0.541325 11.4847C0.541325 11.6275 0.582131 11.6139 0.718153 11.4302C0.88818 11.199 0.894981 11.2058 0.901782 11.5187C0.915384 12.0627 3.78544 12.7973 3.45218 12.1852C3.33657 11.9675 4.00987 12.8313 4.01667 12.6272C4.01667 12.5456 4.11189 12.5116 4.2071 12.5456C4.54036 12.6612 3.90105 13.0829 3.72423 13.6678C3.561 14.2187 2.78568 13.8718 3.41818 14.5859C4.06428 15.3205 3.81264 16.7283 4.8056 16.7215C5.30208 16.7147 5.13205 17.0751 5.37009 16.7487C5.75775 16.2182 5.96178 17.1295 6.34944 16.6059C6.50587 16.395 6.54667 16.3814 6.6895 16.531C6.80511 16.6535 6.80511 16.6807 6.69629 16.6195C6.49906 16.5106 6.42425 16.9663 6.79831 16.8507C6.99554 16.7827 7.04315 16.8167 7.01595 17.0003C6.98874 17.1635 7.06355 17.2384 7.26078 17.2656C7.68925 17.32 7.3764 16.9731 7.87288 17.2248C8.08371 17.3336 8.26054 17.354 8.34215 17.2792C8.6414 17.0275 9.2807 17.456 9.08347 17.7824C8.99506 17.9253 9.48473 17.9389 9.54594 17.7552C9.60035 17.5988 10.3213 17.6804 10.2329 18.0273C10.1444 18.3741 10.5865 18.1837 10.6545 18.0885C10.7565 17.9389 12.2596 18.7618 12.2596 18.5986C12.2596 18.4489 12.5044 18.4285 12.5112 18.6734C12.5112 18.8978 12.722 18.9114 12.8105 18.6938C12.9329 18.3877 13.0893 19.1699 13.5042 18.7822C13.7218 18.5782 13.8034 18.6122 13.7694 18.8842C13.7626 18.9522 14.2931 19.7343 14.6263 19.3331C14.8644 19.0474 14.9936 19.0134 14.9936 19.2311C14.9936 19.4691 15.4901 19.85 15.6941 19.7752C15.9594 19.6731 15.7893 19.4487 15.9866 19.4487C16.0546 19.4487 16.109 19.5847 16.1158 19.7548C16.1158 20.1016 16.2994 20.1764 16.415 19.8772C16.5374 19.5507 16.7483 19.6663 16.6667 20.0132C16.5919 20.3124 16.6123 20.3396 16.8503 20.2784C17.2108 20.1832 17.0339 20.4689 17.3536 20.3669C17.748 20.2376 17.68 20.7001 17.8773 20.4077C18.0745 20.1084 17.8637 20.6049 18.1901 20.7205C18.3261 20.7681 18.3669 20.7409 18.3193 20.6185C18.2377 20.4145 18.5234 20.2716 18.7954 20.3736C19.047 20.4689 19.3055 20.9109 19.1083 20.9109C19.0334 20.9109 19.0062 20.9653 19.047 21.0266C19.1763 21.2238 19.6455 20.8157 19.9108 21.0266C20.1488 21.217 20.1964 20.8565 20.3733 21.1762C20.5909 21.5706 20.8017 21.0402 21.4138 21.557C22.1891 22.2099 21.8831 21.2782 22.3796 21.7135C22.6584 21.9583 23.1549 22.278 23.0665 21.8155C22.9509 21.217 23.5766 21.7747 23.8826 21.6591C24.0254 21.6046 24.0866 21.6591 24.0866 21.8291C24.0866 22.1283 24.2839 22.2915 24.3995 22.1011C24.5287 21.8903 24.8348 22.1691 24.828 21.9243C24.828 21.6999 25.8005 21.3598 25.2632 21.9719C25.066 22.1963 25.066 22.2235 25.2496 22.2235C25.3584 22.2235 25.4537 22.2712 25.4537 22.3256C25.4537 22.448 26.5554 22.8084 26.4738 22.4616C26.3922 22.1079 27.0859 23.1009 27.8 22.6452C27.936 22.5568 27.9564 22.5908 27.9088 22.8016C27.8612 22.9989 27.902 23.0669 28.0721 23.0669C28.4665 23.0601 28.5549 22.4752 28.8134 23.0941C28.8746 23.2437 28.929 23.2913 28.929 23.1961C28.9358 23.0533 28.963 23.0533 29.1262 23.1825C29.4663 23.4545 28.997 23.7402 29.5207 23.5293C30.024 23.3321 29.956 23.679 30.2348 23.577C30.4592 23.4953 30.6633 24.1686 30.6701 23.9238C30.6769 23.6994 30.8605 23.985 31.1121 23.7674C31.4046 23.5226 31.4386 23.9238 31.8943 23.7946C32.0439 23.7538 32.1663 23.7674 32.1527 23.8286C32.1051 24.1006 32.1867 24.1414 32.3975 23.951C32.8668 23.5225 33.0641 24.121 32.724 24.121C32.2411 24.1278 32.8124 24.9916 33.8326 24.3115C34.5399 23.8354 34.227 24.6039 34.1318 24.6991C33.8258 25.0052 34.5875 24.5291 34.7099 24.7127C34.8391 24.9032 35.5124 24.4407 35.8457 24.7671C36.247 25.1616 36.8931 25.1412 36.8863 24.7331C36.8863 24.4951 37.2059 24.5563 37.1583 24.9304C37.1175 25.2432 37.4711 25.2976 37.5868 24.9984C37.7772 24.4815 38.0152 25.1344 38.4913 25.2296C38.777 25.2908 38.845 25.3588 38.7906 25.5152C38.7293 25.6921 38.743 25.6989 38.879 25.5765C39.4639 25.0256 39.3074 25.9097 39.5047 25.9029C39.7019 25.9029 39.5387 25.3452 39.7699 25.4813C39.8719 25.5425 39.8923 25.5017 39.8379 25.3656C39.7495 25.1412 40.1644 24.842 40.382 24.9712C40.7629 25.2024 40.1168 25.5357 40.1848 25.6377C40.2256 25.7057 40.1916 25.7669 40.1032 25.8009C40.0148 25.8281 40.0556 25.8893 40.1916 25.9437C40.4976 26.0593 40.1984 25.9437 40.4364 25.6989C40.8241 25.3044 40.5588 25.6785 40.8717 25.9573C41.0961 26.1546 41.1301 26.1546 41.1913 25.9709C41.2321 25.8621 41.341 25.7669 41.4294 25.7669C41.7286 25.7669 41.2389 26.2158 41.783 26.1137C42.4291 25.9845 41.6878 26.5354 43.2997 26.107C44.5307 25.7805 43.6397 26.3178 43.7621 26.4402C43.9118 26.583 44.177 26.0389 44.5919 26.175C44.8639 26.2634 46.1901 25.5016 46.2105 26.1954C46.2173 26.3858 46.2309 26.379 46.3465 26.1818C46.5234 25.8689 46.945 25.9029 46.9518 26.2226C46.9586 26.5898 47.1083 26.3314 47.7068 26.3246C47.9652 26.3246 48.04 26.2702 47.9924 26.1341C47.8904 25.8621 48.1148 25.8961 48.3869 26.1954C48.6385 26.4674 49.1214 26.5898 48.7541 26.1886C48.4617 25.8689 48.6657 25.5969 49.0466 25.8009C49.2778 25.9233 49.339 25.8893 49.5839 25.5017C49.8899 25.012 50.2096 24.9712 50.2708 25.4065C50.332 25.8009 50.5156 25.7397 50.6448 25.2772C50.8013 24.7127 50.6856 25.3044 51.0121 25.2976C51.3793 25.2908 51.4542 25.6581 51.5902 25.4269C51.9642 24.8012 52.0935 26.2634 52.4607 25.6513C52.5015 25.5833 52.4471 25.5629 52.3519 25.6037C52.1955 25.6649 52.1887 25.6309 52.3043 25.3656C52.5083 24.91 52.6919 25.25 52.8212 25.0392C52.9572 24.8148 53.2836 25.0256 53.2088 25.284C53.1612 25.4472 53.1952 25.5221 53.3245 25.5221C53.8889 25.5153 53.304 24.6787 53.6985 24.8147C53.9841 24.9168 54.0182 24.8488 54.0182 25.08C54.0182 25.2772 54.3922 25.4676 54.3106 24.8351C54.2698 24.4883 54.2902 24.4203 54.4466 24.4747C54.5826 24.5223 54.6303 24.4679 54.6303 24.2775C54.6235 23.849 55.4532 24.5087 54.9567 24.5087C54.7731 24.5087 54.6031 24.8147 54.7255 24.9304C55.0859 25.284 54.8955 24.2367 55.5076 24.7875C55.6368 24.9032 55.6572 24.8828 55.6028 24.6583C55.5008 24.2707 55.8136 24.4679 55.698 24.1618C55.6368 23.9986 55.6844 24.019 55.8816 24.2299C56.1809 24.5495 56.2761 24.5767 56.1741 24.3115C56.0789 24.0666 56.3781 24.0666 56.3781 24.2979C56.3781 24.5223 56.7522 24.6719 56.7522 24.4271C56.7522 24.1346 56.997 24.3795 56.997 24.0054C56.997 23.8422 56.9358 23.7878 56.8066 23.8354C56.6706 23.883 56.6434 23.849 56.691 23.6994C56.827 23.3049 57.0854 23.9306 57.5819 23.7878C57.7179 23.747 57.8812 23.7878 57.9288 23.8626C58.058 24.0666 58.6089 23.5089 58.5205 23.2709C58.4797 23.1689 58.5001 23.1145 58.5613 23.1281C58.8673 23.2165 59.7991 22.2031 59.255 22.4072C58.8877 22.5432 59.3978 22.2031 59.255 22.0739C59.1258 21.9447 59.459 21.6114 59.7243 21.6114C60.1799 21.6046 59.7039 21.2034 59.9555 21.047C60.1187 20.9449 59.9827 20.4553 60.2547 20.2376C60.4044 20.1152 60.4112 20.0608 60.2819 19.986C60.1595 19.9112 60.1731 19.8432 60.35 19.7139C60.826 19.3467 60.2956 18.789 60.8804 18.9318C61.3225 19.0406 61.0777 18.7482 60.8328 18.755C60.5132 18.755 60.8532 18.2993 60.6424 18.2381C60.4928 18.1905 60.6356 17.7348 60.86 17.8165C61.1185 17.9117 61.0437 17.2656 60.8872 17.2724C60.7988 17.2724 60.792 17.218 60.8668 17.1159C60.928 17.0275 60.9757 16.7147 60.9689 16.4222C60.9485 15.8101 61.615 15.0348 60.9689 15.2388C60.3908 15.4225 60.3228 15.3817 60.3023 14.7968C60.2751 14.0759 60.3432 13.8038 60.5608 13.8038C60.7716 13.8038 60.8124 13.4842 60.622 13.3685C60.4384 13.2597 60.8124 12.77 60.0575 13.0625C59.595 13.2461 59.3162 12.8109 59.459 12.7088C60.1051 12.2668 59.153 11.9539 59.0918 11.5595C59.0373 11.2262 58.7925 11.3418 58.8401 11.5322C58.9081 11.8043 58.5205 11.8383 58.33 11.5731C57.9492 11.0426 57.6023 11.7159 57.3779 11.7159C57.099 11.7159 57.0786 11.6683 57.2623 11.335C57.5615 10.7773 56.5142 11.3486 56.5482 11.2806C56.6774 11.0426 55.9905 10.5461 55.596 10.6005C55.1403 10.6549 54.7663 10.5325 54.9839 10.3965C55.2083 10.2537 54.7799 9.9136 54.6915 10.1652C54.6235 10.3489 53.6781 10.3829 53.4061 10.2128C53.1204 10.036 53.0592 10.6073 52.93 10.3013C52.8212 10.0292 52.1751 9.23349 51.7194 9.66876C51.4133 9.9612 51.3997 9.968 51.2229 9.72997C51.1209 9.59394 51.0393 9.44433 51.0325 9.38313C51.0257 9.2403 50.5564 9.44432 50.468 9.3083C50.3252 9.08387 49.9511 9.53953 49.8287 9.09066C49.6927 8.60099 49.4342 8.92065 49.5226 9.46474C49.5499 9.61436 49.2438 9.50553 49.3662 9.70956C49.4206 9.79798 49.3934 9.83198 49.2778 9.79117C49.0534 9.71636 49.1282 9.2471 48.9378 9.29471C48.6793 9.34912 48.9378 8.88664 48.5433 8.99546C48.3189 9.05667 48.2917 7.88007 48.0196 9.47152C47.4211 8.51257 47.1083 8.6826 47.1083 9.00905C47.1083 9.2811 46.8566 9.2743 46.877 9.03626C46.8974 8.81863 46.6322 8.86624 46.5234 9.10428C46.4146 9.35592 46.3261 8.737 46.673 8.64179C46.9314 8.57378 47.0063 8.35616 46.7682 8.35616C46.469 8.35616 46.3057 7.67604 46.2989 8.19972C46.2921 8.70981 45.7072 8.35615 45.5848 8.70981C45.5508 8.81182 45.5984 8.83902 45.7209 8.79141C45.8841 8.7302 45.8909 8.76422 45.7617 9.03626C45.3876 9.84559 45.3808 8.93424 44.8775 8.75061C44.5511 8.63499 44.415 8.38336 44.6735 8.37656C44.9863 8.37656 43.9526 7.14555 44.211 7.81206C44.4082 8.30854 43.6669 8.00929 43.9526 7.66243C44.0818 7.49921 44.041 7.48562 43.6737 7.57404C42.9392 7.74406 42.4835 7.62844 42.64 7.56723C42.8304 7.49242 42.6876 7.00274 42.5447 7.09795C42.3951 7.19317 42.4223 6.40426 42.3407 6.6627C42.1095 7.38361 41.1913 6.96873 41.1845 6.64908C41.1845 6.34983 40.9329 6.37024 40.9329 6.61508C40.9397 7.13877 40.144 6.00298 39.9195 6.139C39.7767 6.22061 39.9807 5.94177 39.8175 5.69693C39.5115 5.24126 39.1578 6.67629 37.886 5.50651C37.2535 4.92161 36.9611 5.70374 36.5326 5.40449C36.281 5.22766 36.0225 5.28888 36.1517 5.49291C36.1925 5.56092 36.1925 5.60171 36.1517 5.60171C35.9613 5.60171 36.0837 5.06443 35.4648 4.92841C34.948 4.81279 35.016 4.62237 34.7643 4.62237C34.4107 4.62237 34.9071 5.06443 34.5059 5.18685C34.3835 5.22766 34.193 5.30927 34.0706 5.37048C33.7714 5.5337 33.5265 5.22087 33.785 5.00323C34.0434 4.7856 34.159 4.41152 33.3497 4.83999C31.9827 5.56771 32.6832 4.63598 32.2955 4.64278C32.1119 4.64278 32.1051 4.62237 32.2411 4.44554C32.3771 4.26871 32.3703 4.2483 32.1595 4.28911C31.7378 4.37072 32.0847 5.5133 31.5474 5.5201C31.4998 5.5201 31.493 5.35688 31.5338 5.14605C31.6018 4.79239 31.5882 4.77198 31.187 4.77879C30.5205 4.78559 30.8129 4.39113 30.364 4.50675C29.9288 4.62236 30.3096 3.96946 30.3844 3.93546C30.5137 3.88105 30.4116 3.5954 30.1668 3.80624C29.8948 4.04427 29.9356 3.71102 29.6499 3.94905C29.3235 4.2279 29.3915 3.67702 28.8882 3.68382C28.7386 3.68382 28.623 3.6294 28.623 3.56139C28.623 3.27574 28.3645 3.46618 28.2965 3.79943C28.2149 4.2211 27.8884 4.42512 27.8816 4.05107C27.8816 3.77902 27.6368 3.73823 27.3988 3.97626C27.2695 4.09868 27.2627 4.08507 27.3648 3.88104C27.5756 3.45257 27.3308 3.20094 26.7595 3.25535C25.9229 3.34377 26.1474 2.78607 25.9433 2.9901C25.7801 3.15333 26.6438 3.48658 26.3718 3.92865C26.1338 4.31631 25.3992 4.2143 25.3992 4.07828C25.3992 3.84024 25.5693 4.19391 25.6101 3.45259C25.6645 2.47323 24.9232 2.90849 25.0864 3.33015C25.1816 3.56819 24.862 3.34377 24.6443 3.34377C24.5015 3.34377 24.7191 2.9697 24.5491 2.9697C24.2023 2.9697 24.2431 3.70422 23.5698 3.07852C23.1005 2.63645 23.5085 3.14654 23.3045 3.28256C23.1413 3.39138 23.1345 2.9833 22.8488 2.9901C22.74 2.9901 22.6856 2.9357 22.7264 2.86769C23.0053 2.39841 21.9307 3.39137 21.577 3.27575C21.4886 3.24855 21.4546 3.18055 21.4954 3.11253C21.5362 3.04452 21.4818 3.03091 21.373 3.07852C21.0874 3.19414 21.2506 3.37777 21.0466 3.37777C20.7745 3.37777 21.4274 2.35081 20.2304 2.55484C19.3259 2.71127 19.5571 1.88153 19.1899 2.40522C18.6866 3.11933 19.013 2.13998 18.6526 2.07197C18.5166 2.04477 18.4349 2.10596 18.4349 2.22838C18.4349 2.50043 17.6256 2.48684 17.6392 2.07197C17.646 1.74552 17.6392 1.74551 17.2516 1.99715C16.6939 2.36441 17.0815 3.26216 16.5306 2.85409C16.3266 2.70447 16.313 2.62965 16.4354 2.3576C16.6259 1.93594 16.347 1.62309 15.8845 1.7387C15.6465 1.79991 15.5989 1.77952 15.6533 1.6231C15.7077 1.46667 15.6261 1.43946 15.1772 1.48707C13.9258 1.61629 14.4223 2.09917 13.545 1.20142C13.1913 1.75911 13.0213 2.07196 13.0893 1.41905C13.1029 1.24223 13.0553 1.20822 12.9057 1.26263C12.7697 1.31704 12.6608 1.25584 12.5724 1.06541C12.4636 0.820567 12.4568 0.834168 12.5112 1.18102C12.5792 1.57548 12.314 1.87473 12.178 1.55508C12.1304 1.43947 12.1167 1.44626 12.1099 1.56868C12.0895 1.89513 11.8787 1.6979 11.7903 1.27624C11.6475 0.541721 11.1986 1.13341 11.0286 0.861371C10.913 0.670941 10.5933 0.868172 10.6001 1.12661C10.6001 1.45306 9.94721 1.41226 10.022 1.0926C10.1104 0.74575 9.74318 0.664135 9.51874 0.983785C9.40992 1.14701 9.2467 1.22863 9.12428 1.19463C8.97466 1.14702 8.09732 1.46667 8.30135 1.11982C8.36936 1.011 7.80487 0.847771 7.89328 1.31024C8.0021 1.84753 7.3628 1.22863 7.3696 1.53468C7.3696 1.84073 7.11116 1.11301 6.53307 1.41226C6.00939 1.6843 6.23382 1.72511 5.52651 1.83393C5.08444 1.90194 4.45874 2.2828 4.45194 2.2828C4.13909 2.2828 4.15949 2.94931 3.67662 3.00372C2.77208 3.11253 3.65622 4.01707 3.05772 4.37752C2.86049 4.49994 2.74487 4.50674 2.62245 4.41152C2.36401 4.20069 2.3028 4.41154 2.50683 4.7924C3.20735 6.10501 1.81313 5.01683 1.92194 5.50651C1.96275 5.71054 1.74511 5.56772 1.39146 5.85337C0.860975 6.28183 1.95595 5.74455 2.05116 6.17302C2.08517 6.32944 2.03756 6.37024 1.84713 6.33624C1.50028 6.27503 1.39826 6.49945 1.6499 6.77149C1.88114 7.02313 1.80632 7.26798 1.49347 7.26798C1.32345 7.26798 1.33025 7.29519 1.53428 7.43801C1.92874 7.72365 2.20759 7.30198 1.98315 7.73045C1.53428 8.58738 1.6635 7.63523 1.13302 7.64203C0.405303 7.64883 1.36425 8.81183 0.752158 8.97506C0.643341 9.01586 -0.363218 10.3829 0.140061 10.4033Z" fill="#9BA2CC" fill-opacity="0.56"/>
</svg>
