<svg width="185" height="143" viewBox="0 0 185 143" fill="none" xmlns="http://www.w3.org/2000/svg">
<path d="M111.277 80.967C112.721 80.9509 114.164 80.8711 115.598 80.9281C117.9 81.0141 120.203 81.1987 122.505 81.3196C122.925 81.3423 123.389 81.3622 123.763 81.2109C124.414 80.9521 124.991 80.5357 125.551 81.3962C125.645 81.5411 126.192 81.547 126.434 81.4244C127.978 80.6364 129.243 81.1275 130.46 82.1523C130.718 82.3737 131.142 82.5382 131.475 82.5171C133.178 82.4208 134.874 82.2089 136.581 82.1355C137.227 82.1061 138.072 81.7394 138.434 82.8532C138.504 83.0721 139.579 83.1112 140.144 82.9913C141.836 82.6376 143.487 82.1124 145.183 81.7816C145.582 81.7042 146.075 82.1224 146.53 82.314C146.521 82.4856 146.509 82.6632 146.5 82.8349C145.568 83.1086 144.651 83.5785 143.701 83.6271C140.945 83.7641 138.174 83.6207 135.421 83.801C132.799 83.973 130.19 84.4313 127.572 84.7248C126.949 84.7991 126.305 84.724 125.458 84.7109C125.743 84.2347 125.937 83.9237 126.366 83.2063C124.283 83.1702 122.465 83.036 120.66 83.1243C116.502 83.3299 112.345 83.6484 108.192 83.9262C107.662 83.9627 107.103 84.204 106.621 84.0924C106.031 83.9559 104.954 84.9405 104.845 83.4279C104.841 83.3701 104.159 83.3003 103.8 83.3317C102.278 83.4833 100.77 83.7529 99.2482 83.8203C98.1147 83.869 96.8799 83.924 95.8538 83.5338C94.3417 82.9598 92.9426 83.2543 91.4867 83.4829C90.8162 83.5863 90.0348 84.1201 89.6905 82.9646C89.6608 82.8679 89.0486 82.7994 88.8477 82.9252C86.9901 84.1072 84.9619 84.1227 82.837 84.0833C80.6363 84.0401 78.4256 84.3717 76.2198 84.5579C73.5287 84.7922 70.815 84.9468 68.144 85.351C66.2413 85.6369 64.3966 86.27 62.5329 86.7477C62.2812 86.8101 62.0384 86.9183 61.7813 86.9433C57.7936 87.3961 53.8145 87.8455 49.8284 88.278C46.8756 88.5985 43.8953 88.7671 40.9666 89.2312C39.0649 89.5315 37.2042 90.1859 35.3636 90.7926C32.7183 91.6708 30.0566 91.3842 27.5676 90.5038C26.4214 90.098 25.7308 88.5439 24.6649 87.7299C24.1534 87.339 23.1607 87.1873 22.5438 87.3975C21.6227 87.7111 21.0123 87.7555 20.3021 87.0002C18.3881 84.9727 16.3895 83.0289 14.4754 81.0014C13.9723 80.4736 13.5983 79.7897 13.2866 79.1251C11.8381 76.0097 10.3921 72.8883 9.01397 69.7394C7.96777 67.3408 7.7324 64.8067 8.21325 62.2446C8.30992 61.731 8.84601 61.3114 9.09784 60.814C9.39584 60.2239 9.57921 59.5714 9.86524 58.9762C10.2326 58.2047 10.6572 57.4644 10.8428 57.1076C11.6598 56.8905 12.1239 56.7422 12.6002 56.6482C12.8843 56.5925 13.3333 56.4799 13.4467 56.6119C15.6064 59.1429 18.5726 58.4561 21.2377 58.4003C26.2136 58.2937 31.1805 57.7904 36.1563 57.5504C39.1989 57.4011 42.2465 57.4573 45.2955 57.3597C46.0586 57.3375 46.8135 57.017 47.5822 56.948C48.5247 56.868 49.4808 56.906 50.4305 56.8922C50.4505 57.062 50.462 57.2352 50.4821 57.4051C48.9986 57.6992 47.5126 57.9993 45.7825 58.3438C47.9322 59.5444 50.2765 59.0797 51.3791 57.5164C51.6025 57.2036 52.0206 56.8465 52.368 56.8244C57.0919 56.5134 61.8152 56.2372 66.5473 56.0069C67.9993 55.9381 69.6242 55.1913 70.7621 56.8707C70.8491 56.9986 71.2556 56.9032 71.3449 56.5409C71.747 56.2051 72.1318 55.6094 72.5576 55.5853C73.8698 55.5138 75.1943 55.714 76.5113 55.7146C79.1982 55.7241 81.8926 55.7157 84.5762 55.6326C88.0809 55.5236 91.5844 55.2667 95.0929 55.2154C99.1185 55.1575 103.154 55.1598 107.179 55.3193C110.526 55.4523 113.859 55.8674 117.202 56.0904C118.181 56.1589 119.177 55.9334 120.162 55.9551C121.099 55.9711 122.029 56.2369 122.964 56.2096C124.821 56.1643 126.669 55.9747 128.529 55.8742C129.027 55.8455 129.534 55.9468 130.189 55.9981C129.942 56.4487 129.804 56.6923 129.673 56.9385C130.441 57.606 133.237 57.2548 133.816 56.467C133.949 56.2846 134.216 56.0531 134.397 56.0735C136.061 56.2203 137.759 56.2693 139.372 56.6542C140.787 56.9908 141.939 57.1324 143.458 56.6215C145.073 56.0812 147.162 56.2736 148.842 56.7993C150.558 57.3401 151.297 57.6441 152.993 57.0959C153.596 56.901 154.436 57.4162 155.167 57.6048C155.14 57.7689 155.116 57.9414 155.089 58.1055C154.6 58.18 154.111 58.2545 153.622 58.3291C153.606 58.4489 153.582 58.5722 153.567 58.6921C156.398 59.3797 159.229 60.0674 162.163 60.7774C161.614 58.6866 160.577 58.7408 155.481 58.1793C155.886 57.852 156.078 57.5818 156.329 57.505C158.461 56.8247 160.349 57.6765 162.281 58.4414C162.758 58.6286 163.397 58.3996 163.961 58.3494C164.108 58.3342 164.273 58.1933 164.4 58.2258C165.815 58.5973 167.222 58.9866 168.788 59.4151C169.113 59.1451 169.554 58.7836 170.114 58.3248C171.604 60.0051 172.547 61.9114 173.09 64.0345C173.761 66.654 174.455 69.2692 175.082 71.6596C174.354 73.3876 173.636 75.0919 172.863 76.9272C173.405 76.9595 173.852 76.9863 174.051 76.9998C174.956 78.897 175.801 80.6703 176.601 82.3479C175.403 83.4708 174.472 83.205 173.366 82.7879C172.459 82.4481 171.381 82.5338 170.38 82.519C169.689 82.5018 169 82.6325 167.963 82.7215C168.57 84.0372 169.126 85.3591 169.809 86.615C169.918 86.8082 170.63 86.6732 171.364 86.702C171.462 86.9887 171.674 87.6045 172.015 88.5833C170.113 87.9151 168.482 87.5226 167.032 86.7852C165.407 85.9602 163.774 85.9738 162.062 86.0099C161.318 86.0193 160.568 85.6754 159.823 85.4877C159.854 85.3321 159.884 85.1765 159.917 85.0149C159.36 85.1662 158.802 85.4364 158.252 85.422C157.911 85.4117 157.59 84.9536 157.253 84.6994C157.582 84.5365 157.904 84.258 158.248 84.2275C160.133 84.0674 162.025 83.9736 163.917 83.8305C164.091 83.8195 164.246 83.6182 164.538 83.4257C162.925 81.8547 160.89 81.9374 159.019 81.6122C157.89 81.417 156.735 81.3163 155.593 81.2494C153.492 81.1216 151.388 81.0983 149.288 80.9502C146.549 80.7642 143.813 80.4185 141.075 80.2963C138.766 80.1933 136.444 80.4217 134.137 80.3127C129.01 80.0751 123.901 79.5782 118.777 79.468C116.271 79.4152 113.753 79.9894 111.243 80.279C111.242 80.5169 111.26 80.742 111.277 80.967ZM88.7899 81.0063C91.1517 81.6366 97.7217 80.5387 98.5941 79.1872C95.3232 79.7947 92.0608 80.3987 88.7899 81.0063Z" fill="#ED75A0" fill-opacity="0.6"/>
</svg>
