<svg width="279" height="284" viewBox="0 0 279 284" fill="none" xmlns="http://www.w3.org/2000/svg">
<path d="M27.5788 134.67C34.363 151.626 41.2251 168.229 47.665 184.998C53.4795 200.14 63.4416 207.238 79.9147 205.886C87.8737 205.233 95.6955 202.82 103.56 201.116C104.598 200.891 105.561 200.197 106.506 199.639C112.203 196.254 112.291 195.382 108.4 190.226C103.266 183.422 100.968 175.463 100.242 167.142C99.3246 156.708 98.7231 146.233 98.326 135.767C98.1178 130.317 98.2597 124.786 98.9798 119.391C99.7439 113.682 105.771 108.967 111.524 109.619C120.928 110.683 129.147 115.058 132.591 123.946C135.401 131.218 136.483 139.462 136.78 147.333C137.25 159.511 134.75 171.459 130.781 183.024C129.6 186.467 131.505 190.477 136.267 193.487C145.077 199.056 154.009 198.101 162.813 193.385C169.249 189.94 168.958 189.534 163.108 185.15C159.29 182.292 156.292 178.307 153.084 174.676C145.026 165.57 140.939 154.632 139.563 142.774C138.632 134.758 139.958 126.774 142.661 119.125C144.453 114.051 146.418 109.035 148.378 104.026C151.623 95.7263 162.755 82.5417 174.522 83.3745C181.304 83.8568 188.002 83.1636 194.37 86.5232C196.627 87.7117 199.385 87.5496 201.962 89.0147C205.015 90.7499 205.287 92.7905 206.357 95.58C209.985 105.024 209.685 114.832 210.215 124.561C211.2 142.691 207.008 159.831 199.698 176.305C199.457 176.842 199.271 177.405 198.814 178.591C203.546 178 206.905 175.624 210.068 173.183C217.018 167.835 220.711 160.472 223.076 152.124C226.525 139.953 228.491 127.582 229.745 115.025C230.592 106.532 229.843 98.2741 227.622 90.0854C226.558 86.17 225.803 82.3211 227.296 78.2286C228.707 74.3458 229.458 73.9002 232.909 76.4439C238.545 80.6023 242.286 86.3182 244.325 92.7877C252.645 119.12 250.506 144.805 237.944 169.391C230.7 183.569 218.211 191.17 203.077 194.539C197.886 195.693 192.414 195.502 187.099 196.156C185.235 196.385 183.166 196.893 181.686 197.955C172.789 204.355 162.995 208.066 152.033 208.731C141.848 209.345 132.224 207.509 123.134 202.758C122.197 202.269 120.31 202.614 119.357 203.28C103.012 214.645 84.9247 218.697 65.3086 216.276C56.2888 215.161 49.6037 209.557 43.4785 203.586C34.4588 194.791 30.7075 183.236 28.3849 171.216C27.0069 164.086 25.4436 156.863 25.3025 149.661C25.2194 144.862 23.9119 139.406 27.5788 134.67ZM184.491 175.388C186.018 170.984 187.259 167.448 188.472 163.901C192.023 153.531 192.613 142.823 191.149 132.109C190.414 126.635 188.493 121.302 186.753 116.015C186.482 115.184 183.661 114.166 183.185 114.578C179.223 118.003 175.111 121.401 171.84 125.454C165.119 133.795 164.612 143.61 167.515 153.393C170.205 162.444 176.52 169.115 184.491 175.388ZM123.98 141.475C122.293 146.713 122.827 163.257 124.716 166.066C129.607 158.965 129.303 143.751 123.98 141.475Z" fill="#9AB987" fill-opacity="0.4"/>
</svg>
