<svg width="62" height="26" viewBox="0 0 62 26" fill="none" xmlns="http://www.w3.org/2000/svg">
<path d="M0.826097 9.62008C0.934914 9.62688 0.968919 9.65407 0.887306 9.68808C0.690075 9.76969 1.07774 10.2186 1.33618 10.2186C1.66263 10.2186 1.22736 10.375 1.22736 10.7015C1.22736 10.8443 1.26817 10.8307 1.40419 10.647C1.57421 10.4158 1.58102 10.4226 1.58782 10.7354C1.60142 11.2795 4.47147 12.0141 4.13822 11.402C4.0226 11.1843 4.69591 12.0481 4.70271 11.844C4.70271 11.7624 4.79792 11.7284 4.89314 11.7624C5.22639 11.878 4.58709 12.2997 4.41026 12.8846C4.24704 13.4355 3.47171 13.0886 4.10421 13.8027C4.75032 14.5373 4.49868 15.9451 5.49163 15.9383C5.98811 15.9315 5.81808 16.2919 6.05612 15.9655C6.44378 15.435 6.64781 16.3463 7.03548 15.8227C7.1919 15.6118 7.23271 15.5982 7.37553 15.7478C7.49115 15.8703 7.49115 15.8975 7.38233 15.8363C7.1851 15.7274 7.11029 16.1831 7.48435 16.0675C7.68158 15.9995 7.72919 16.0335 7.70198 16.2171C7.67478 16.3803 7.74959 16.4552 7.94682 16.4824C8.37529 16.5368 8.06244 16.1899 8.55892 16.4416C8.76975 16.5504 8.94658 16.5708 9.02819 16.496C9.32744 16.2443 9.96674 16.6728 9.76951 16.9992C9.68109 17.1421 10.1708 17.1557 10.232 16.972C10.2864 16.8156 11.0073 16.8972 10.9189 17.2441C10.8305 17.5909 11.2725 17.4005 11.3406 17.3053C11.4426 17.1557 12.9456 17.9786 12.9456 17.8154C12.9456 17.6657 13.1904 17.6453 13.1972 17.8902C13.1972 18.1146 13.4081 18.1282 13.4965 17.9106C13.6189 17.6045 13.7753 18.3867 14.1902 17.999C14.4078 17.795 14.4895 17.829 14.4554 18.101C14.4486 18.169 14.9791 18.9511 15.3124 18.5499C15.5504 18.2642 15.6796 18.2302 15.6796 18.4479C15.6796 18.6859 16.1761 19.0668 16.3801 18.992C16.6454 18.8899 16.4754 18.6655 16.6726 18.6655C16.7406 18.6655 16.795 18.8015 16.8018 18.9716C16.8018 19.3184 16.9854 19.3932 17.1011 19.094C17.2235 18.7675 17.4343 18.8831 17.3527 19.23C17.2779 19.5292 17.2983 19.5564 17.5363 19.4952C17.8968 19.4 17.72 19.6857 18.0396 19.5837C18.4341 19.4544 18.3661 19.9169 18.5633 19.6245C18.7605 19.3252 18.5497 19.8217 18.8761 19.9373C19.0122 19.9849 19.053 19.9577 19.0054 19.8353C18.9238 19.6313 19.2094 19.4884 19.4814 19.5904C19.7331 19.6857 19.9915 20.1277 19.7943 20.1277C19.7195 20.1277 19.6923 20.1821 19.7331 20.2434C19.8623 20.4406 20.3316 20.0325 20.5968 20.2434C20.8349 20.4338 20.8825 20.0733 21.0593 20.393C21.2769 20.7874 21.4878 20.257 22.0999 20.7738C22.8752 21.4267 22.5691 20.495 23.0656 20.9303C23.3444 21.1751 23.8409 21.4948 23.7525 21.0323C23.6369 20.4338 24.2626 20.9915 24.5686 20.8759C24.7115 20.8214 24.7727 20.8759 24.7727 21.0459C24.7727 21.3451 24.9699 21.5083 25.0855 21.3179C25.2147 21.1071 25.5208 21.3859 25.514 21.1411C25.514 20.9166 26.4865 20.5766 25.9493 21.1887C25.752 21.4131 25.752 21.4403 25.9357 21.4403C26.0445 21.4403 26.1397 21.488 26.1397 21.5424C26.1397 21.6648 27.2415 22.0252 27.1598 21.6784C27.0782 21.3247 27.7719 22.3177 28.4861 21.862C28.6221 21.7736 28.6425 21.8076 28.5949 22.0184C28.5473 22.2157 28.5881 22.2837 28.7581 22.2837C29.1526 22.2769 29.241 21.692 29.4994 22.3109C29.5606 22.4605 29.615 22.5081 29.615 22.4129C29.6218 22.2701 29.649 22.2701 29.8123 22.3993C30.1523 22.6713 29.683 22.957 30.2067 22.7461C30.71 22.5489 30.642 22.8958 30.9208 22.7938C31.1453 22.7121 31.3493 23.3854 31.3561 23.1406C31.3629 22.9162 31.5465 23.2018 31.7982 22.9842C32.0906 22.7393 32.1246 23.1406 32.5803 23.0114C32.7299 22.9706 32.8523 22.9842 32.8387 23.0454C32.7911 23.3174 32.8727 23.3582 33.0836 23.1678C33.5529 22.7393 33.7501 23.3378 33.41 23.3378C32.9272 23.3446 33.4984 24.2084 34.5186 23.5283C35.2259 23.0522 34.9131 23.8207 34.8179 23.9159C34.5118 24.222 35.2735 23.7459 35.396 23.9295C35.5252 24.12 36.1985 23.6575 36.5317 23.9839C36.933 24.3784 37.5791 24.358 37.5723 23.9499C37.5723 23.7119 37.8919 23.7731 37.8443 24.1472C37.8035 24.46 38.1572 24.5144 38.2728 24.2152C38.4632 23.6983 38.7013 24.3512 39.1773 24.4464C39.463 24.5076 39.531 24.5756 39.4766 24.732C39.4154 24.9089 39.429 24.9157 39.565 24.7933C40.1499 24.2424 39.9935 25.1265 40.1907 25.1197C40.3879 25.1197 40.2247 24.562 40.4559 24.698C40.558 24.7593 40.5784 24.7185 40.524 24.5824C40.4355 24.358 40.8504 24.0587 41.068 24.188C41.4489 24.4192 40.8028 24.7525 40.8708 24.8545C40.9116 24.9225 40.8776 24.9837 40.7892 25.0177C40.7008 25.0449 40.7416 25.1061 40.8776 25.1605C41.1837 25.2761 40.8844 25.1605 41.1225 24.9157C41.5101 24.5212 41.2449 24.8953 41.5577 25.1741C41.7822 25.3714 41.8162 25.3714 41.8774 25.1877C41.9182 25.0789 42.027 24.9837 42.1154 24.9837C42.4147 24.9837 41.925 25.4326 42.4691 25.3305C43.1152 25.2013 42.3738 25.7522 43.9857 25.3238C45.2167 24.9973 44.3258 25.5346 44.4482 25.657C44.5978 25.7998 44.863 25.2557 45.2779 25.3918C45.5499 25.4802 46.8762 24.7184 46.8966 25.4122C46.9034 25.6026 46.917 25.5958 47.0326 25.3986C47.2094 25.0857 47.6311 25.1197 47.6379 25.4394C47.6447 25.8066 47.7943 25.5482 48.3928 25.5414C48.6512 25.5414 48.7261 25.487 48.6784 25.3509C48.5764 25.0789 48.8009 25.1129 49.0729 25.4122C49.3245 25.6842 49.8074 25.8066 49.4402 25.4054C49.1477 25.0857 49.3517 24.8137 49.7326 25.0177C49.9638 25.1401 50.0251 25.1061 50.2699 24.7185C50.5759 24.2288 50.8956 24.188 50.9568 24.6232C51.018 25.0177 51.2016 24.9565 51.3309 24.494C51.4873 23.9295 51.3717 24.5212 51.6981 24.5144C52.0654 24.5076 52.1402 24.8749 52.2762 24.6437C52.6503 24.018 52.7795 25.4802 53.1467 24.8681C53.1876 24.8001 53.1331 24.7797 53.0379 24.8205C52.8815 24.8817 52.8747 24.8477 52.9903 24.5824C53.1944 24.1268 53.378 24.4668 53.5072 24.256C53.6432 24.0315 53.9697 24.2424 53.8949 24.5008C53.8473 24.664 53.8813 24.7389 54.0105 24.7389C54.575 24.7321 53.9901 23.8955 54.3845 24.0315C54.6702 24.1336 54.7042 24.0656 54.7042 24.2968C54.7042 24.494 55.0783 24.6844 54.9966 24.0519C54.9558 23.7051 54.9762 23.6371 55.1327 23.6915C55.2687 23.7391 55.3163 23.6847 55.3163 23.4943C55.3095 23.0658 56.1392 23.7255 55.6427 23.7255C55.4591 23.7255 55.2891 24.0315 55.4115 24.1472C55.772 24.5008 55.5815 23.4535 56.1936 24.0043C56.3228 24.12 56.3433 24.0996 56.2888 23.8751C56.1868 23.4875 56.4997 23.6847 56.3841 23.3786C56.3228 23.2154 56.3705 23.2358 56.5677 23.4467C56.8669 23.7663 56.9621 23.7935 56.8601 23.5283C56.7649 23.2834 57.0642 23.2834 57.0642 23.5147C57.0642 23.7391 57.4382 23.8887 57.4382 23.6439C57.4382 23.3514 57.6831 23.5963 57.6831 23.2222C57.6831 23.059 57.6219 23.0046 57.4926 23.0522C57.3566 23.0998 57.3294 23.0658 57.377 22.9162C57.513 22.5217 57.7715 23.1474 58.268 23.0046C58.404 22.9638 58.5672 23.0046 58.6148 23.0794C58.744 23.2834 59.2949 22.7257 59.2065 22.4877C59.1657 22.3857 59.1861 22.3313 59.2473 22.3449C59.5534 22.4333 60.4851 21.4199 59.941 21.624C59.5738 21.76 60.0838 21.4199 59.941 21.2907C59.8118 21.1615 60.1451 20.8282 60.4103 20.8282C60.866 20.8214 60.3899 20.4202 60.6415 20.2638C60.8048 20.1617 60.6687 19.6721 60.9408 19.4544C61.0904 19.332 61.0972 19.2776 60.968 19.2028C60.8456 19.128 60.8592 19.06 61.036 18.9307C61.5121 18.5635 60.9816 18.0058 61.5665 18.1486C62.0085 18.2574 61.7637 17.965 61.5189 17.9718C61.1992 17.9718 61.5393 17.5161 61.3284 17.4549C61.1788 17.4073 61.3216 16.9516 61.5461 17.0332C61.8045 17.1285 61.7297 16.4823 61.5733 16.4892C61.4849 16.4892 61.4781 16.4348 61.5529 16.3327C61.6141 16.2443 61.6617 15.9315 61.6549 15.639C61.6345 15.0269 62.301 14.2516 61.6549 14.4556C61.0768 14.6393 61.0088 14.5985 60.9884 14.0136C60.9612 13.2927 61.0292 13.0206 61.2468 13.0206C61.4577 13.0206 61.4985 12.701 61.308 12.5853C61.1244 12.4765 61.4985 11.9868 60.7435 12.2793C60.2811 12.4629 60.0022 12.0277 60.1451 11.9256C60.7912 11.4836 59.839 11.1707 59.7778 10.7763C59.7234 10.443 59.4785 10.5586 59.5262 10.749C59.5942 11.0211 59.2065 11.0551 59.0161 10.7898C58.6352 10.2594 58.2884 10.9327 58.0639 10.9327C57.7851 10.9327 57.7647 10.8851 57.9483 10.5518C58.2476 9.99414 57.2002 10.5654 57.2342 10.4974C57.3634 10.2594 56.6765 9.76289 56.282 9.8173C55.8264 9.87171 55.4523 9.7493 55.6699 9.61328C55.8944 9.47045 55.4659 9.1304 55.3775 9.38204C55.3095 9.56567 54.3641 9.59966 54.0921 9.42963C53.8064 9.2528 53.7452 9.8241 53.616 9.51805C53.5072 9.24601 52.8611 8.45029 52.4054 8.88556C52.0994 9.178 52.0858 9.1848 51.909 8.94676C51.8069 8.81074 51.7253 8.66113 51.7185 8.59992C51.7117 8.4571 51.2424 8.66112 51.154 8.5251C51.0112 8.30066 50.6372 8.75633 50.5147 8.30746C50.3787 7.81778 50.1203 8.13745 50.2087 8.68153C50.2359 8.83115 49.9298 8.72233 50.0523 8.92636C50.1067 9.01477 50.0795 9.04878 49.9638 9.00797C49.7394 8.93316 49.8142 8.4639 49.6238 8.51151C49.3653 8.56591 49.6238 8.10344 49.2293 8.21226C49.0049 8.27347 48.9777 7.09687 48.7056 8.68832C48.1072 7.72937 47.7943 7.8994 47.7943 8.22585C47.7943 8.49789 47.5427 8.4911 47.5631 8.25306C47.5835 8.03543 47.3182 8.08304 47.2094 8.32108C47.1006 8.57271 47.0122 7.9538 47.359 7.85859C47.6175 7.79058 47.6923 7.57295 47.4543 7.57295C47.155 7.57295 46.9918 6.89284 46.985 7.41652C46.9782 7.9266 46.3933 7.57295 46.2709 7.9266C46.2369 8.02862 46.2845 8.05582 46.4069 8.00821C46.5701 7.947 46.5769 7.98102 46.4477 8.25306C46.0736 9.06239 46.0668 8.15104 45.5635 7.96741C45.2371 7.85179 45.1011 7.60016 45.3595 7.59336C45.6724 7.59336 44.6386 6.36235 44.897 7.02886C45.0943 7.52533 44.353 7.22609 44.6386 6.87923C44.7678 6.716 44.727 6.70242 44.3598 6.79083C43.6252 6.96086 43.1696 6.84524 43.326 6.78403C43.5164 6.70921 43.3736 6.21954 43.2308 6.31475C43.0812 6.40997 43.1084 5.62105 43.0268 5.87949C42.7955 6.60041 41.8774 6.18553 41.8706 5.86588C41.8706 5.56663 41.6189 5.58704 41.6189 5.83188C41.6257 6.35556 40.83 5.21978 40.6056 5.3558C40.4627 5.43741 40.6668 5.15857 40.5036 4.91373C40.1975 4.45806 39.8439 5.89309 38.5721 4.7233C37.9396 4.13841 37.6471 4.92054 37.2186 4.62129C36.967 4.44446 36.7086 4.50567 36.8378 4.70971C36.8786 4.77772 36.8786 4.81851 36.8378 4.81851C36.6473 4.81851 36.7698 4.28123 36.1509 4.14521C35.634 4.02959 35.702 3.83917 35.4504 3.83917C35.0967 3.83917 35.5932 4.28123 35.1919 4.40365C35.0695 4.44446 34.8791 4.52606 34.7566 4.58727C34.4574 4.7505 34.2126 4.43766 34.471 4.22003C34.7294 4.00239 34.8451 3.62832 34.0357 4.05679C32.6687 4.7845 33.3692 3.85277 32.9816 3.85957C32.7979 3.85957 32.7911 3.83916 32.9272 3.66234C33.0632 3.48551 33.0564 3.4651 32.8455 3.5059C32.4239 3.58752 32.7707 4.7301 32.2334 4.7369C32.1858 4.7369 32.179 4.57368 32.2198 4.36285C32.2879 4.00919 32.2743 3.98878 31.873 3.99558C31.2065 4.00238 31.4989 3.60792 31.0501 3.72354C30.6148 3.83916 30.9957 3.18626 31.0705 3.15226C31.1997 3.09785 31.0977 2.8122 30.8528 3.02303C30.5808 3.26107 30.6216 2.92781 30.336 3.16585C30.0095 3.44469 30.0775 2.89382 29.5742 2.90062C29.4246 2.90062 29.309 2.84619 29.309 2.77818C29.309 2.49254 29.0505 2.68297 28.9825 3.01623C28.9009 3.43789 28.5745 3.64192 28.5677 3.26786C28.5677 2.99582 28.3228 2.95502 28.0848 3.19306C27.9556 3.31548 27.9488 3.30187 28.0508 3.09784C28.2616 2.66937 28.0168 2.41774 27.4455 2.47215C26.609 2.56056 26.8334 2.00286 26.6294 2.2069C26.4661 2.37012 27.3299 2.70338 27.0578 3.14545C26.8198 3.53311 26.0853 3.43109 26.0853 3.29507C26.0853 3.05703 26.2553 3.4107 26.2961 2.66939C26.3505 1.69003 25.6092 2.12528 25.7724 2.54695C25.8676 2.78499 25.548 2.56057 25.3304 2.56057C25.1875 2.56057 25.4052 2.18649 25.2351 2.18649C24.8883 2.18649 24.9291 2.92101 24.2558 2.29531C23.7865 1.85324 24.1946 2.36334 23.9905 2.49936C23.8273 2.60818 23.8205 2.2001 23.5349 2.2069C23.4261 2.2069 23.3717 2.15249 23.4125 2.08448C23.6913 1.61521 22.6167 2.60817 22.2631 2.49255C22.1747 2.46535 22.1407 2.39734 22.1815 2.32933C22.2223 2.26132 22.1679 2.24771 22.059 2.29531C21.7734 2.41093 21.9366 2.59456 21.7326 2.59456C21.4606 2.59456 22.1135 1.56761 20.9165 1.77164C20.0119 1.92806 20.2432 1.09833 19.8759 1.62201C19.3726 2.33613 19.6991 1.35678 19.3386 1.28877C19.2026 1.26156 19.121 1.32276 19.121 1.44518C19.121 1.71722 18.3117 1.70363 18.3253 1.28877C18.3321 0.962317 18.3253 0.962306 17.9376 1.21395C17.3799 1.5812 17.7676 2.47895 17.2167 2.07089C17.0126 1.92126 16.999 1.84644 17.1215 1.5744C17.3119 1.15274 17.0331 0.839883 16.5706 0.955502C16.3325 1.01671 16.2849 0.99632 16.3393 0.839895C16.3938 0.68347 16.3121 0.656258 15.8633 0.703865C14.6119 0.833086 15.1083 1.31596 14.231 0.418221C13.8774 0.975909 13.7073 1.28875 13.7753 0.63585C13.7889 0.459023 13.7413 0.42502 13.5917 0.479429C13.4557 0.533837 13.3469 0.472632 13.2585 0.282202C13.1496 0.0373634 13.1428 0.0509644 13.1972 0.397819C13.2653 0.792281 13 1.09153 12.864 0.77188C12.8164 0.656262 12.8028 0.663056 12.796 0.785475C12.7756 1.11193 12.5647 0.9147 12.4763 0.493034C12.3335 -0.241482 11.8846 0.350211 11.7146 0.0781678C11.599 -0.112262 11.2793 0.0849685 11.2861 0.343409C11.2861 0.669861 10.6332 0.629052 10.7081 0.309402C10.7965 -0.0374529 10.4292 -0.119068 10.2048 0.200582C10.096 0.363808 9.93273 0.44543 9.81031 0.411424C9.66069 0.363817 8.78335 0.683467 8.98738 0.336612C9.05539 0.227795 8.4909 0.0645682 8.57932 0.527041C8.68814 1.06433 8.04884 0.44543 8.05564 0.751478C8.05564 1.05753 7.7972 0.329806 7.21911 0.629053C6.69542 0.901096 6.91986 0.941909 6.21255 1.05073C5.77048 1.11874 5.14478 1.4996 5.13798 1.4996C4.82513 1.4996 4.84553 2.1661 4.36265 2.22051C3.45811 2.32933 4.34225 3.23386 3.74376 3.59432C3.54653 3.71674 3.43091 3.72353 3.30849 3.62832C3.05005 3.41748 2.98884 3.62834 3.19287 4.0092C3.89338 5.3218 2.49916 4.23362 2.60798 4.7233C2.64878 4.92733 2.43115 4.78452 2.07749 5.07016C1.54701 5.49863 2.64198 4.96135 2.7372 5.38981C2.7712 5.54624 2.7236 5.58704 2.53317 5.55303C2.18631 5.49182 2.0843 5.71625 2.33593 5.98829C2.56717 6.23993 2.49236 6.48478 2.17951 6.48478C2.00948 6.48478 2.01628 6.51198 2.22032 6.6548C2.61478 6.94045 2.89362 6.51878 2.66919 6.94725C2.22032 7.80418 2.34954 6.85203 1.81905 6.85883C1.09134 6.86563 2.05029 8.02863 1.43819 8.19185C1.32938 8.23266 0.322817 9.59968 0.826097 9.62008Z" fill="#FFC570" fill-opacity="0.83"/>
</svg>
