<svg width="65" height="53" viewBox="0 0 65 53" fill="none" xmlns="http://www.w3.org/2000/svg">
<path d="M5.58364 38.6391C5.881 38.5894 6.02315 39.2741 6.51488 38.9634C6.7723 38.8046 7.61237 39.0143 7.63848 38.8793C7.64827 38.8287 7.76072 38.8559 7.88818 38.9407C8.15137 39.1126 8.64336 38.913 8.58488 38.652C8.53641 38.4294 8.73285 38.338 8.8193 38.5446C8.91407 38.7758 9.69075 38.7497 9.91161 38.5095C10.2314 38.1638 10.2477 38.733 10.5806 38.3865C10.701 38.2603 10.7736 38.2452 10.8086 38.3351C10.8369 38.4142 10.9245 38.4344 11.0037 38.3855C11.2875 38.203 12.0252 38.4461 11.7255 38.2151C11.2834 37.8639 12.5533 37.4742 12.6445 38.2869C12.7492 39.1879 13.4039 38.6206 13.686 39.0779C13.8188 39.2931 14.2154 39.2936 14.1603 39.0824C14.1036 38.8797 14.2654 38.8097 14.3799 38.9841C14.4994 39.1778 14.5831 38.9479 14.8598 39.2303C15.2358 39.6074 15.3221 39.0491 15.635 39.3017C15.7294 39.3772 15.8418 39.3599 15.9341 39.2658C16.0165 39.1778 16.0908 39.132 16.109 39.1727C16.1971 39.3487 16.5563 39.5876 16.5957 39.4964C16.6795 39.311 17.256 39.1708 17.3456 39.3161C17.4617 39.5044 17.6564 39.3546 17.5025 39.2713C17.3486 39.188 17.5532 39.0544 17.6428 39.1996C17.7456 39.3664 17.7827 38.9945 18.2703 39.0205C18.8092 39.052 18.8892 38.661 18.9527 38.9412C18.9928 39.117 19.2943 39.4064 19.3513 39.089C19.4166 38.7516 19.4928 38.8086 20.3148 39.0666L20.0177 38.5739C20.2411 38.6812 20.9161 38.9556 20.6823 38.6765C20.5265 38.4903 20.5744 38.446 20.8621 38.5136C21.3499 38.6286 21.3438 38.1645 21.4173 38.4831C21.5493 39.0627 21.7011 38.2783 21.8288 38.4743C21.8952 38.5819 21.91 38.5728 21.9063 38.4117C21.9002 37.9475 22.3383 38.6577 22.5493 38.4458C22.5938 38.3961 22.6748 38.4278 22.7279 38.5139C22.9071 38.8044 23.1154 38.156 23.4775 38.2223C23.5784 38.2418 23.7039 38.2238 23.7369 38.1886C24.2628 37.6785 24.1409 38.489 24.8207 38.0622C25.1639 37.8431 25.7769 38.4602 25.7792 38.0207C25.7802 37.7675 25.8117 37.8075 26.361 38.0554L26.5244 37.3233C26.6158 38.1805 26.5467 37.6363 26.8957 37.7701C27.1753 37.8799 27.3993 37.5783 27.5237 37.769C27.6167 37.9196 28.0897 38.066 27.9288 37.8162C27.796 37.601 27.9743 37.5133 28.4025 37.576C28.7761 37.6278 28.9693 37.5754 28.7757 37.472C28.6218 37.3887 28.9221 37.1886 28.9887 37.363C29.0651 37.5535 29.182 37.3551 29.3606 37.4009C29.526 37.4475 29.6144 37.1033 29.7239 37.2808C29.8666 37.5122 30.1277 36.8386 30.4093 37.118C30.7208 37.4235 30.7259 36.8113 31.0289 37.0477C31.2938 37.2557 31.6592 36.6515 31.6681 36.8986C31.6788 37.2039 32.1777 36.4506 32.4924 36.7614C32.8072 37.0723 32.8023 36.3995 32.9134 36.5686C32.9333 36.6009 32.9844 36.5397 33.0139 36.4324C33.063 36.2684 33.1242 36.2678 33.3394 36.4172C34.0066 36.8895 33.4815 35.728 34.6308 36.0069C34.7267 36.0294 34.7151 36.044 34.6061 36.0444C34.4838 36.0456 34.4706 36.0686 34.5699 36.1187C34.7751 36.2298 34.8718 35.888 34.958 36.0279C35.0344 36.1516 35.2403 35.8983 35.5282 36.0326C35.9137 36.2033 35.7339 35.6459 35.9821 35.7824C36.184 35.8881 36.3584 35.5726 36.5919 35.7628C36.9578 36.0569 36.7075 35.0527 37.478 35.2162C37.683 35.2605 37.7507 35.2262 37.7883 35.0767C37.8309 34.9242 37.892 34.9014 38.0807 34.9856C38.9509 35.3772 38.5817 34.424 39.1787 34.5831C39.435 34.6552 39.5143 34.6286 39.5618 34.473C39.606 34.312 39.677 34.2831 39.9069 34.3344C40.4261 34.4449 40.1521 33.9232 40.4318 34.0775C40.5311 34.1277 40.5624 34.1009 40.5571 33.9705C40.5551 33.8232 40.6178 33.7919 40.9352 33.7967C41.5747 33.8033 41.3704 33.35 41.7011 33.4431C41.9409 33.5106 41.6762 33.3916 42.1205 33.281C42.317 33.234 42.4028 33.1736 42.3399 33.1382C42.2853 33.105 42.2984 33.0375 42.3677 32.9948C42.6564 32.8092 42.8825 33.3531 42.9095 32.8982C42.9395 32.3153 43.789 32.3409 43.8554 32.4485C43.9848 32.6583 44.3168 31.9114 44.46 32.3429C44.5932 32.7361 45.1018 32.5858 44.92 31.9032C44.8783 31.7581 45.7309 31.6778 45.5956 31.7687C45.264 31.9956 46.0231 32.2403 46.1079 31.7795C46.1666 31.4536 46.9216 31.337 46.8785 31.2671C46.7491 31.0572 46.5483 31.4187 46.5619 30.8979C46.5664 30.7168 46.5992 30.6149 46.6357 30.6741C46.7121 30.7978 47.3927 30.6825 47.5509 30.5181C47.729 30.3414 47.7384 30.8332 48.0157 30.6622C48.2681 30.5064 48.2507 30.8217 48.4535 30.6298C48.5327 30.5587 48.539 30.4137 48.4726 30.3061C48.3465 30.1016 48.5261 29.8943 48.7462 29.9962C48.9298 30.0835 49.6099 29.7457 49.617 29.9344C49.6223 30.1093 50.0426 29.6496 49.4886 29.4714C49.3248 29.4165 49.3231 29.4027 49.4784 29.3663C49.5775 29.3497 49.6467 29.2625 49.63 29.1911C49.5583 28.9308 50.2126 29.5373 50.3109 29.187C50.4059 28.8536 50.9507 29.3048 51.0188 28.7726C51.087 28.2627 51.6102 28.6455 51.5334 28.3438C51.4933 28.168 51.7193 27.9915 51.8105 28.1283C51.8902 28.2574 52.1591 28.0841 52.0795 27.955C51.9899 27.8097 52.2721 27.6579 52.3716 27.7971C52.4197 27.864 52.4293 27.7466 52.3891 27.5263C52.3104 27.0996 52.5595 26.9162 52.7653 27.2498C52.9345 27.5242 53.1393 27.4795 53.2195 27.1553C53.2833 26.8931 53.2982 26.8839 53.5364 26.9821C53.7829 27.0826 53.7845 27.0741 53.7013 26.8284C53.638 26.6372 53.661 26.5858 53.7966 26.6062C54.2744 26.6828 53.8929 26.1309 54.0134 26.0491C54.1569 25.9606 54.1576 26.2276 54.3655 26.0993C54.6394 25.9229 54.7481 26.4204 54.8447 26.0563C54.8905 25.8869 54.9583 25.897 55.0579 26.0807C55.1193 26.1913 55.4937 25.8565 55.5543 25.6334C55.5936 25.4978 55.6414 25.4534 55.6846 25.5233C55.9284 25.9077 56.2544 24.7188 56.272 25.1684C56.2808 25.371 56.5179 25.0019 56.547 24.7389C56.5696 24.5318 56.5795 24.5257 56.6279 24.7038C56.7946 25.3066 56.9364 24.4838 57.0355 24.4895C57.2306 24.4955 56.7608 24.3322 56.983 23.9723C57.0653 23.8398 57.0848 23.6941 57.0301 23.6387C56.828 23.4218 57.1404 23.4296 57.3987 23.6491C57.8707 24.0486 57.6266 23.5753 58.107 23.3681C58.4537 23.2211 58.0096 22.7227 57.9452 22.7624C57.8313 22.8326 57.697 22.6481 57.8719 22.5328C58.065 22.4137 58.1337 22.7798 58.3234 22.6553C58.3977 22.6095 58.5002 22.6428 58.5516 22.7151C58.6678 22.9034 59.0853 22.6607 59.0764 22.4137C59.0625 22.1474 59.285 21.8765 59.3384 22.0961C59.3618 22.2005 59.4296 22.2329 59.5204 22.1695C59.7333 22.0382 59.5068 22.0368 59.7109 21.7029C59.9348 21.3346 59.5132 21.2605 59.8586 21.2554C60.2701 21.2466 59.7466 20.0767 60.0944 20.3746C60.2849 20.5394 60.7785 20.3314 60.867 20.054C60.9015 19.9436 60.9428 19.933 60.9992 20.0245C61.0921 20.1751 61.2832 19.9088 60.7932 19.5797C60.2949 19.2483 60.4976 19.0341 60.5822 19.1602C60.6851 19.327 60.848 18.3501 60.9225 19.0914C60.9665 19.5173 61.3426 19.1963 61.2178 18.8499C61.0647 18.4244 61.6161 18.2106 61.1508 17.844C60.6706 17.4643 61.5894 17.4027 61.1417 16.8099C60.9825 16.5961 60.9624 16.4971 61.0581 16.4306C61.3568 16.239 60.365 15.4842 60.8632 15.1175C60.9044 15.0846 60.8943 15.0017 60.8412 14.9379C60.6424 14.7263 61.0406 14.6738 60.5159 14.3439C59.5409 13.7272 60.5117 13.329 59.7015 13.1455C59.5427 13.1097 59.3987 12.998 59.3554 12.8836C59.2639 12.6133 58.912 12.6743 58.8367 12.9733C58.7336 13.3934 58.6102 12.9496 57.8992 13.4476C56.7509 14.245 56.6679 13.4124 56.5383 13.834C56.4515 14.1252 56.723 14.3439 56.5527 14.3004C56.308 14.236 56.4596 14.0608 56.0613 14.0688C55.5887 14.0781 55.3929 13.7829 55.5444 14.2168C55.6476 14.5171 55.4186 14.7995 55.1736 14.6683C55.1108 14.6328 54.9903 14.6923 54.9112 14.7857C54.7513 14.9808 54.7562 14.9332 54.5017 14.2881C53.9028 15.3557 53.613 14.4426 53.4051 14.5709C53.3506 14.6045 53.3507 14.649 53.4086 14.6653C53.5575 14.7071 53.4741 15.0705 53.2893 15.1919C53.0615 15.3324 53.2476 15.0691 52.6857 15.0443C51.9138 15.0228 51.7734 15.7259 51.5694 15.4061C51.4068 15.1425 51.0658 15.5979 50.958 15.4342C50.875 15.2997 50.8836 15.4355 50.5069 15.4896C50.0856 15.5489 50.4074 15.3504 50.2979 15.1729C50.2116 15.033 49.8322 15.3042 49.7782 15.538C49.7455 15.6844 49.7109 15.7058 49.6198 15.6357C49.4542 15.5002 49.3903 15.7179 48.9966 15.5893C48.8164 15.5297 48.6446 15.5614 48.5275 15.6708C48.4253 15.7709 48.3146 15.8021 48.2814 15.7483C48.1918 15.603 47.9791 15.7788 47.458 15.5877C46.8476 15.3626 46.9547 15.8908 46.6433 15.5853C46.3832 15.3298 46.1808 15.6997 45.9622 15.5226C45.7519 15.3478 45.5741 15.6357 45.4812 15.4851C45.3385 15.2537 45.2681 15.5274 45.3895 15.8461C45.476 16.075 45.468 16.1616 45.3654 16.1061C45.1006 15.9649 45.1183 16.4145 44.8367 16.1574C44.5766 15.9242 44.5955 16.1874 44.3122 15.9388C44.1152 15.7633 43.795 15.9533 43.9723 16.141C44.1098 16.2864 43.9019 16.3924 43.6735 16.2882C43.288 16.1175 42.7574 16.7418 42.5003 16.336C42.3377 16.0724 41.9739 16.6904 41.7533 16.3437C41.3999 15.7819 41.4267 17.2878 40.3719 16.4531C39.9298 16.1019 39.7149 16.0859 39.9174 16.4141C40.0932 16.6992 39.6608 16.9066 39.4583 16.5784C39.2344 16.2264 37.9217 16.026 38.202 16.4695C38.3315 16.6793 37.2783 17.8637 37.4773 16.7903C37.5948 16.1608 37.1457 16.3635 37.0339 16.581C36.8809 16.8759 36.8578 16.8827 36.6705 16.6566C36.5362 16.4944 36.4437 16.4995 36.1665 16.6705C35.6962 16.9605 35.626 16.6473 35.2662 16.8396C34.9295 17.0249 34.9188 16.6974 34.7307 16.8134C34.5327 16.9355 34.7693 17.0644 34.6307 17.1499C34.4822 17.2415 34.5278 16.9608 34.3892 17.0686C34.343 17.1045 34.3531 17.1874 34.4111 17.2481C34.5486 17.3936 34.3853 17.4943 34.223 17.3642C34.1286 17.2887 34.0989 17.307 34.063 17.4703C34.027 17.6336 33.9708 17.6312 33.7423 17.4602C33.4377 17.2322 32.6626 17.2275 32.6714 17.4523C32.6749 17.5244 32.6121 17.5334 32.526 17.4603C32.3074 17.2832 32.1858 17.5736 31.9439 17.3366C31.6441 17.0388 31.3678 17.588 31.1113 17.4491C30.9772 17.3758 30.6899 17.4862 30.9711 17.5653C31.2605 17.6467 31.466 17.8913 30.6396 17.8366C29.4561 17.7571 29.2897 18.6396 29.3793 18.7848C29.4822 18.9516 29.1141 19.1637 29.0345 19.0346C28.9316 18.8678 28.6236 19.2881 28.5568 19.0025C28.5016 18.7469 27.8594 19.0242 27.8995 19.1777C27.9445 19.3504 27.5188 19.6353 27.4589 19.4717C27.4323 19.4064 27.3496 19.3609 27.2686 19.3737C27.0357 19.406 27.4329 19.6512 27.0993 19.7529C26.9507 19.8001 26.9211 19.8629 26.9842 19.9651C27.0439 20.0619 27.0226 20.1271 26.9103 20.1444C26.6658 20.1912 26.6567 19.8774 26.3677 19.9295C25.839 20.0253 25.1008 19.5375 25.1055 20.1213C25.1065 20.5217 24.9909 20.5781 24.7902 20.2638C24.5297 19.8525 24.1315 20.5586 24.1187 20.7151C24.055 21.7199 23.3563 19.8559 23.2426 20.6242C23.2133 20.8205 23.1409 20.9469 23.0813 20.9168C22.9225 20.8365 22.3875 21.0328 22.4572 21.1458C22.5269 21.2588 22.1854 21.514 22.0593 21.3095C21.9033 21.0567 21.7839 21.5388 21.5753 21.4224C21.3933 21.3267 21.0785 21.6917 20.756 21.5564C20.3076 21.3725 20.6959 22.002 20.3106 21.898C19.9418 21.7987 20.4122 22.2289 19.8241 22.3392C19.3319 22.4274 19.4436 22.1654 19.2196 22.4892C19.0022 22.8015 19.0022 22.8015 18.919 22.5558C18.8274 22.2855 18.5779 22.2686 18.5058 22.5285C18.4566 22.6925 18.4252 22.697 18.3174 22.5333C18.1481 22.2589 17.9433 22.2813 18.0282 22.5631C18.1016 22.8149 17.8314 23.1524 17.5775 22.752C17.4514 22.5475 17.4068 22.5305 17.379 22.6739C17.3284 22.9353 17.2442 22.965 17.0355 22.7818C16.7904 22.5616 16.7381 22.787 16.3381 22.7812C15.8786 22.7675 16.0531 23.8037 15.9025 23.748C15.5271 23.6157 15.4684 23.2657 15.2232 23.7214C14.7149 24.6811 14.7633 23.5298 14.2964 23.8252C14.2221 23.871 14.1411 23.8616 14.1046 23.8024C14.0615 23.7325 14.007 23.766 13.9313 23.9093C13.6386 24.4761 13.594 23.8499 12.7636 24.1988C12.0851 24.4836 12.8027 24.6277 12.5981 24.7613C12.4298 24.8652 12.4023 25.1198 12.1026 24.911C11.8494 24.733 11.1869 24.8445 11.3051 25.2024C11.4084 25.5249 11.1829 25.248 10.9891 25.7315C10.6901 26.4655 10.8707 25.2847 9.07739 26.5542C8.54121 26.9369 8.47859 27.0127 8.62428 27.1159C9.876 28.0595 7.47295 27.3433 7.77091 28.2142C7.84914 28.4407 7.73719 28.6138 7.631 28.4416C7.53476 28.2856 7.39261 28.9525 7.0834 28.8833C6.4567 28.7426 6.4567 28.7426 6.34676 29.0629C6.28605 29.2415 6.27833 29.4616 6.33806 29.5585C6.49904 29.8305 6.1618 29.7934 6.39197 29.9782C6.65196 30.1892 6.07509 30.1514 6.18129 30.3236C6.31403 30.5388 5.44655 30.606 5.89509 30.8789C6.21454 31.0755 6.06787 31.2476 5.67923 31.1383C5.43943 31.0708 5.34527 31.0844 5.37361 31.1857C5.44374 31.4767 4.98084 31.4131 5.1849 31.7329C5.50843 32.2463 4.62567 32.1447 5.06975 32.6209C5.27522 32.8432 5.28034 32.9069 5.12046 33.0798C4.92102 33.2993 4.92342 33.6024 5.13357 33.7104C5.22458 33.7582 5.15696 33.8148 4.94562 33.8932C4.61208 34.0172 4.44285 34.4187 4.74353 34.3743C4.83769 34.3608 4.83116 34.3945 4.73547 34.461C4.6035 34.5572 4.61209 34.6931 4.76295 34.8822C4.79113 34.9168 4.72351 34.9734 4.60791 35.0076C4.09926 35.1579 5.21112 35.6753 4.91741 35.8639C4.65999 36.0227 4.801 36.2402 4.61261 36.245C4.26722 36.2501 5.48194 36.9342 5.04761 37.061C4.67768 37.1704 4.85128 37.8728 5.22621 37.7827C5.51361 37.7168 5.61316 37.8782 5.37886 38.0301C5.09505 38.2126 5.44372 38.1907 5.35331 38.3876C5.28433 38.5638 5.38045 38.6753 5.58364 38.6391Z" fill="#FFC570" fill-opacity="0.83"/>
</svg>
