<svg width="60" height="28" viewBox="0 0 60 28" fill="none" xmlns="http://www.w3.org/2000/svg">
<path d="M0.875666 9.31064C1.20212 10.2152 1.67819 10.3648 1.56938 10.5484C1.47416 10.7116 1.89583 10.7321 1.89583 10.9225C1.90263 11.3714 3.75252 12.1739 3.90214 12.582C4.07217 13.0444 4.71827 12.6568 4.56865 13.0444C4.44623 13.3573 5.64322 13.3709 5.64322 13.6157C5.64322 13.7925 6.01728 13.5273 6.12609 13.6701C6.34373 13.9694 8.23443 14.6087 8.31604 14.6767C8.60168 14.9215 8.58128 14.3026 8.94854 14.8535C9.28179 15.35 9.28859 14.9487 9.67625 15.2752C9.83948 15.4112 9.88029 15.418 9.81228 15.2956C9.74427 15.1868 9.76467 15.1527 9.85308 15.2072C10.1591 15.3908 9.75787 15.6084 10.4244 15.6016C11.1113 15.5948 11.3561 16.2205 11.6486 16.1049C11.8594 16.0165 12.111 16.2341 12.111 16.5062C12.111 16.8666 13.7909 18.2472 14.1106 18.4105C14.6546 18.6893 14.4166 18.322 14.6614 18.6485C14.9131 18.9886 15.0219 18.5533 15.3483 18.9614C15.7088 19.4034 16.2665 19.1722 16.1645 19.349C16.0965 19.4714 16.3685 19.6143 16.3617 19.485C16.3617 19.3558 17.2322 19.3354 17.1574 19.4646C17.069 19.6075 17.2526 19.5802 17.6607 19.6279C18.198 19.6891 18.1708 20.0903 18.368 19.9747C18.4428 19.9339 18.5721 20.0019 18.6673 20.1379C18.9665 20.5596 19.5106 20.1379 19.735 20.5528C19.8031 20.6752 19.9187 20.75 19.9799 20.7092C20.1363 20.6072 20.1499 20.8452 19.9391 20.9405C19.6194 21.0765 20.1635 21.2601 20.6328 21.1785C20.9456 21.1241 21.1565 21.1581 21.2993 21.2737C21.6053 21.5254 22.9111 21.7498 22.8703 21.9674C22.8363 22.1442 23.1084 22.117 23.2444 21.9266C23.2988 21.8518 23.3328 21.8722 23.3328 21.9674C23.3328 22.2327 23.4824 21.845 24.0673 22.3619C24.8971 23.1032 24.4414 22.2599 24.7542 22.2531C25.0399 22.2531 25.0127 22.7087 25.2099 22.7087C25.4071 22.7087 25.72 23.0624 25.6384 23.1984C25.5976 23.2664 25.6724 23.3208 25.822 23.3208C26.1961 23.314 25.7948 23.076 26.2505 23.0692C26.6857 23.0624 26.4885 23.314 26.7742 23.314C26.883 23.314 27.087 23.4024 27.2094 23.5181C27.3454 23.6337 27.6855 23.7289 28.0187 23.7425C29.1001 23.7765 28.6512 24.375 29.5218 24.307C30.2971 24.2458 30.1883 24.8579 30.4263 24.7151C30.4807 24.6811 30.5623 24.7355 30.6032 24.8375C30.6984 25.0755 31.052 25.0687 31.052 24.8307C31.052 24.5858 31.2969 24.5722 31.3037 24.8375C31.3037 25.1775 32.1606 24.7423 31.9974 24.9871C31.8614 25.1911 32.5483 25.1979 32.5483 25.3884C32.5483 25.4496 32.7115 25.4972 32.9223 25.4972C33.3644 25.4904 34.2145 26.3405 33.9765 25.5992C33.7044 24.7627 34.7314 26.4289 35.1463 26.0549C35.3163 25.8984 35.4115 25.8712 35.4727 25.9733C35.6427 26.2317 35.9284 25.5856 36.0916 25.8508C36.248 26.1025 36.6221 25.6944 36.8805 26.0957C37.1186 26.4629 37.207 26.1229 37.3362 26.3269C37.513 26.6194 38.0163 26.0549 38.0231 26.5581C38.0231 26.8574 38.2204 26.8846 38.472 26.6262C38.7712 26.3201 39.8866 26.4153 39.8866 26.7486C39.8934 27.3199 40.6279 26.3201 40.6347 26.8302C40.6347 27.0818 41.2332 26.9186 41.3965 27.1702C41.4781 27.2927 41.5325 27.3063 41.6005 27.2043C41.7297 27.007 42.4982 26.837 42.4982 27.007C42.4982 27.1702 42.7975 27.2518 42.6683 26.871C42.4982 26.3473 43.6136 27.4015 43.6136 26.9118C43.6136 26.735 44.2325 26.9798 44.2325 26.769C44.2325 26.5921 44.4773 26.5718 44.4841 26.803C44.4909 27.4491 45.3275 26.5718 45.1778 26.837C45.0554 27.0614 45.4771 26.871 45.4771 26.7282C45.4771 26.4901 45.6743 26.6262 45.6947 26.8778C45.7287 27.2859 45.8512 27.3199 46.1096 27.0002C46.5789 26.4017 47.0617 27.2791 47.4562 27.041C47.7827 26.8438 47.9799 27.4287 48.2655 27.0206C48.3812 26.8574 48.4424 26.837 48.5104 26.9526C48.626 27.1362 48.9524 26.9118 48.9524 26.6534C48.9524 26.4289 49.3197 26.3269 49.3197 26.4697C49.3197 26.6194 49.6938 26.633 49.6938 26.4357C49.6938 26.3541 49.7686 26.3881 49.8774 26.5241C50.0542 26.7622 50.0678 26.7554 50.3535 26.4221C50.8703 25.8236 51.7613 26.667 51.4212 26.0617C51.292 25.8304 51.2988 25.8168 51.5233 25.9325C51.9109 26.1365 52.0809 26.0957 52.0061 25.8168C51.9653 25.6672 52.0061 25.572 52.0945 25.5652C52.251 25.5652 52.2714 26.5717 52.8223 26.0073C53.0739 25.7488 54.5225 25.5652 54.5973 25.3612C54.6926 25.0959 54.8218 25.3884 55.0802 25.1707C55.1754 25.0891 55.257 25.0619 55.257 25.1095C55.257 25.1571 55.3386 25.1299 55.4475 25.0415C55.6787 24.8511 56.488 25.4972 56.3316 24.9123C56.2772 24.7083 56.3112 24.6742 56.5356 24.7287C56.9301 24.8239 57.4878 23.7425 57.2157 23.8037C56.9913 23.8581 56.8621 23.5929 57.3586 23.6133C57.6782 23.6269 57.7258 23.5861 57.719 23.28C57.7122 22.906 57.9027 22.6747 58.0047 22.9332C58.0999 23.178 58.4467 22.6135 58.3651 22.4843C58.2699 22.3279 58.882 21.9878 58.8956 21.7566C58.9228 21.4029 58.882 21.1105 59.2357 20.7432C59.7729 20.1787 59.1064 19.6415 59.5213 19.4782C59.6913 19.4102 59.6981 19.383 59.5349 19.2742C59.4125 19.1858 59.3989 19.1246 59.5009 19.0906C59.7185 19.0021 59.4465 18.7913 59.6913 18.5397C59.8818 18.3424 59.7593 17.8052 59.5281 17.812C59.4601 17.812 59.4057 17.7372 59.4057 17.642C59.3989 17.1999 58.3107 18.4989 58.2903 17.3699C58.2767 16.6626 57.8687 17.5467 57.6714 17.2339C57.4878 16.9482 57.1273 17.3563 56.9505 17.0639C56.352 16.0777 55.0462 16.6354 55.2638 16.0505C55.3931 15.7036 54.5361 15.4316 55.1958 15.5608C55.5835 15.6356 55.6039 15.6016 55.4067 15.2412C55.2978 15.0439 55.3114 15.0031 55.5291 15.0031C56.1888 14.9963 55.3523 14.5951 55.4679 14.2958C55.5631 14.0442 55.0122 13.6565 55.1074 13.5001C55.1958 13.3437 54.985 13.1804 54.9714 12.9084C54.9646 12.684 53.9784 12.2351 53.72 12.1059C54.3661 12.0515 54.7742 12.0175 54.7742 11.9358C54.7742 11.8406 53.8016 11.3441 53.1827 11.3169C52.7678 11.2965 53.0331 10.9293 52.6726 10.9361C51.6593 10.9429 52.319 10.2152 51.7817 10.392C51.2784 10.5552 51.8973 9.8275 51.4892 9.8275C51.19 9.8275 51.2172 10.1132 51.0336 10.0111C50.9656 9.97034 50.9452 9.89553 50.986 9.82072C51.0268 9.75271 50.9588 9.58268 50.8431 9.46026C50.3943 8.97738 51.0812 8.72573 50.2991 8.78694C49.6598 8.83455 49.6189 8.5353 49.4217 8.65772C49.2245 8.78014 49.3537 8.35167 49.1633 8.35847C48.9116 8.35847 49.2177 7.79399 48.7892 7.90281C48.626 7.94362 48.5444 7.90961 48.5376 7.79399C48.5376 7.59676 48.3403 7.56275 48.2247 7.74638C47.9119 8.25646 47.9867 7.29072 47.5242 7.44034C47.2998 7.51515 47.2658 7.49475 47.327 7.33152C47.3882 7.1615 45.5111 6.05972 45.9124 6.76023C46.0892 7.06628 46.0824 7.07988 45.7967 7.11388C45.4431 7.14789 45.6607 6.85543 45.2935 6.6582C44.8106 6.39976 45.3071 5.78768 44.3957 6.05972C43.6952 6.27056 42.471 4.27783 42.2942 4.77431C42.2398 4.92394 42.1854 4.95115 42.1242 4.84913C41.9882 4.6315 41.7025 4.67909 41.7297 4.91713C41.7569 5.19597 41.3829 5.27759 41.4781 5.10756C41.6209 4.86272 40.8592 4.53627 41.1652 4.34584C41.6141 4.067 40.4511 4.08061 40.2947 3.84257C40.2199 3.72695 40.1519 3.74736 39.9886 3.91058C39.5126 4.40026 39.3221 4.40705 38.8733 3.94458C38.3972 3.4549 38.2544 3.40049 38.37 3.74734C38.4788 4.0874 38.1523 4.08741 37.8259 3.74056C37.445 3.33929 37.3974 3.72694 37.0166 3.36649C36.6085 2.99243 36.2208 3.52291 36.2004 2.68638C36.1936 2.26471 35.9352 2.52316 35.6359 2.23072C35.4251 2.01988 34.949 2.1151 34.9558 2.35994C34.9626 2.99924 34.1261 2.27832 34.2757 2.03348C34.3165 1.97227 34.2893 1.92466 34.2145 1.92466C34.0105 1.92466 34.1601 2.1763 33.9629 2.1763C33.7112 2.1763 33.9901 1.72063 33.6228 1.86345C33.2488 2.01308 33.242 1.37379 32.7115 1.59822C32.3714 1.74105 30.9772 2.01309 30.9704 1.4894C30.9704 1.35338 30.9364 1.32617 30.8752 1.41458C30.746 1.61181 30.2291 1.86345 30.2291 1.72742C30.2291 1.5506 29.7326 1.5302 29.7258 1.28536C29.719 0.877295 29.0797 1.34657 29.1681 1.47579C29.311 1.70022 28.3044 1.58462 28.2976 1.10855C28.2908 0.727685 27.9099 0.639254 27.9575 1.19694C28.0119 1.82264 27.5427 1.60501 27.6651 1.92466C27.9031 2.55716 26.8694 1.40099 26.8694 1.14935C26.8694 0.924914 26.6721 0.97931 26.849 1.47579C27.0394 2.01307 26.6313 1.97907 26.6313 1.85665C26.6313 1.65261 26.1689 1.73424 26.0736 1.95868C25.9988 2.13551 25.9648 2.1083 25.8968 1.80905C25.72 0.999727 26.3797 1.23096 26.3797 0.999725C26.3729 0.612064 25.72 1.24455 25.6452 1.19694C25.5704 1.15614 25.0875 1.24456 25.2643 1.84305C25.4887 2.59797 24.8562 2.55036 24.9447 1.71383C25.1079 0.169986 23.53 1.47579 23.2852 0.0543665C23.2716 -0.0272464 23.0608 0.238003 22.6799 0.720879C21.8434 -0.22447 21.6257 0.129177 21.721 0.435225C21.8434 0.809284 21.4149 0.57126 21.4149 0.788894C21.4149 0.938517 21.0408 0.856887 21.0408 0.537237C21.0408 0.190382 20.4151 0.292416 20.4219 0.428438C20.4219 0.591664 20.0547 0.598458 20.0479 0.42163C20.0479 0.346818 19.9595 0.319617 19.8643 0.360423C19.7622 0.401229 19.5582 0.319617 19.4086 0.169994C18.9121 -0.312882 19.1297 0.401234 18.5381 0.258411C17.9464 0.115589 18.436 0.748074 17.4431 0.775278C16.4977 0.802483 16.3821 0.285609 16.1985 0.591657C16.0285 0.877302 15.0831 0.408034 15.0831 0.618867C15.0831 0.707281 14.7499 1.08813 14.0902 0.646056C13.036 -0.061255 13.5869 0.822888 12.9136 0.714071C12.5463 0.652862 11.873 1.41458 11.8526 0.924903C11.839 0.52364 11.9002 1.04052 10.9277 1.19694C10.1183 1.32616 10.2407 1.56422 9.79187 1.59822C8.64929 1.67984 9.46542 2.52317 8.88053 2.52997C8.43166 2.53677 8.6765 2.97203 8.21402 2.54356C7.4251 1.81585 6.73819 3.4345 6.58857 3.07404C6.45935 2.768 6.29612 2.93123 6.29612 3.3597C6.30292 3.74736 6.26892 3.79496 6.05128 3.73375C5.84725 3.67254 5.80644 3.72015 5.80644 3.99219C5.80644 4.29144 5.77244 4.31185 5.43919 4.25064C5.05153 4.17583 4.51424 4.81512 4.41903 4.52268C4.33741 4.29144 3.6437 4.6043 3.68451 4.84913C3.74572 5.20279 2.59634 5.02595 2.59634 5.57683C2.59634 6.13452 -0.0288763 6.80104 0.875666 9.31064Z" fill="#FFC570" fill-opacity="0.83"/>
</svg>
