<svg width="60" height="39" viewBox="0 0 60 39" fill="none" xmlns="http://www.w3.org/2000/svg">
<path d="M2.2531 20.749C2.24469 20.9984 2.64583 21.3247 2.74524 21.1488C2.80496 21.0334 2.90869 21.2799 2.76741 21.4321C2.61012 21.6028 2.94429 21.7641 2.80809 22.1125C2.7196 22.3276 2.72615 22.3258 2.87435 22.1223C3.01781 21.9272 3.04948 21.9396 3.12589 22.2148C3.25071 22.639 2.9573 22.5228 3.02643 22.7718C3.10102 23.0405 3.21064 22.7489 3.51785 23.1436C3.82505 23.5382 3.87352 23.1789 4.32707 23.6177C5.01431 24.288 4.72353 23.5711 4.95943 23.6327C5.22045 23.7085 4.83598 23.8999 5.10788 24.2691C5.30115 24.533 6.81592 24.9807 7.21457 24.8912C7.50655 24.8242 7.60483 24.924 7.4428 25.1031C7.30808 25.2534 7.85629 25.6518 7.93496 25.3758C8.01946 25.07 8.66385 24.9758 8.9161 25.2234C9.03477 25.3458 9.2146 25.4088 9.31581 25.3666C9.9737 25.0922 11.0246 25.598 11.206 25.4629C11.3986 25.3177 11.9956 25.5613 12.0097 25.7903C12.0119 25.8744 12.0898 25.9516 12.1841 25.9607C12.424 25.9859 12.2424 25.5352 12.8773 25.7118C13.1532 25.7905 13.1499 25.982 12.8747 26.0584C12.6978 26.1075 12.6664 26.1727 12.756 26.3172C13.0486 26.7865 11.1724 28.825 11.9851 30.0745C12.2326 30.4575 12.5413 30.7812 12.7211 30.8442C12.9643 30.932 13.0069 30.9837 12.9042 31.0969C12.6716 31.3521 13.2508 31.3536 13.3818 31.8254C13.4866 32.1775 14.1593 32.2872 14.2405 32.554C14.3835 33.0437 16.1121 32.5073 16.2413 32.4644C16.94 32.2351 16.7007 32.8733 17.2031 32.395C17.5541 32.0575 17.1988 31.9727 17.4904 32.0823C17.8938 32.2385 18.3882 31.706 18.4519 31.9353C18.501 32.1123 18.1169 32.1272 18.1672 32.2826C18.2108 32.4399 18.7832 31.8575 19.3584 31.6413C19.9533 31.4197 19.705 32.0251 19.8641 31.8609C19.9507 31.7663 20.4724 32.0944 20.3483 31.8253C20.1019 31.2938 21.0877 31.8953 21.289 31.4512C21.4343 31.1356 22.0674 31.4327 22.0233 31.5791C21.9552 31.8168 22.5247 31.2493 22.6138 31.5704C22.7011 31.885 23.1147 31.6713 23.1071 31.3135C23.0796 30.5024 23.7373 31.7526 24.0831 31.6001C24.4796 31.4265 24.5851 31.6795 24.8957 31.3745C25.0679 31.2067 25.1502 31.198 25.3304 31.3385C25.5375 31.4998 25.5488 31.4896 25.4651 31.1882C25.348 30.7408 25.8595 30.6764 25.7953 31.0048C25.7305 31.3051 26.1393 31.608 26.3723 31.4304C26.4775 31.3518 26.5587 31.3645 26.5842 31.4563C26.6333 31.6332 27.1739 31.6737 27.2388 31.5004C27.3083 31.3188 27.7051 31.2227 27.6898 31.3964C27.6672 31.6709 28.4012 31.34 28.9018 30.8552C29.0355 30.7263 29.0886 30.7398 29.1432 30.9364C29.2396 31.2837 28.9164 31.0347 28.9691 31.2247C29.0455 31.5 29.28 31.3784 29.4268 30.9918C29.6012 30.5269 29.8437 30.4596 29.8313 30.8724C29.8192 31.3628 30.2692 30.772 30.5357 31.1216C30.7373 31.3902 30.9419 31.1358 30.8281 30.751C30.7644 30.5216 30.7906 30.3873 30.9086 30.3545C31.1969 30.2745 31.1953 30.9808 31.3461 30.9389C31.8095 30.8032 31.5161 30.5599 31.9133 30.4144C32.1241 30.3347 32.2071 30.354 32.1987 30.4763C32.1801 30.7144 32.7652 30.432 32.8654 30.1571C33.0475 29.669 34.3565 30.6466 34.2062 30.1307C34.1516 29.9341 34.9802 30.1982 35.2056 29.7898C35.3996 29.4465 35.5933 29.4068 35.6013 29.7152C35.6082 30.045 35.7785 29.9977 36.0713 29.5776C36.2989 29.2533 36.2989 29.2533 36.664 29.399C37.1176 29.5836 37.328 29.5534 37.1522 29.327C36.932 29.0422 37.6222 29.1894 37.6666 29.2477C37.8082 29.4272 38.1028 28.8866 38.2331 29.3304C38.2931 29.5466 38.3379 29.5554 38.5101 29.3876C38.6936 29.2096 38.7664 29.2176 38.805 29.4328C38.9094 29.9614 40.0852 28.1456 40.2282 28.6353C40.2737 28.7991 40.6105 28.6139 40.6505 28.7581C40.7069 28.9612 41.4314 28.7742 41.4864 28.5401C41.5876 28.1167 42.3011 28.6527 42.1818 28.2482C42.1345 28.0779 42.1607 28.0706 42.4432 28.1474C42.9718 28.2971 43.5215 27.7351 43.8568 27.875C44.2005 28.0195 43.9115 27.4363 44.1408 27.3726C44.3374 27.318 43.9687 26.9051 44.3488 26.7996C44.6943 26.6966 44.5781 26.99 44.7747 26.9355C45.0237 26.8663 44.5716 26.4836 45.0995 26.6053C45.5826 26.7182 45.6576 26.4292 45.8542 26.7558C45.9834 26.9669 45.9965 26.9633 46.0599 26.6069C46.2326 25.6273 46.8471 25.7813 46.8368 26.1512C46.835 26.2717 47.4972 26.4196 47.6781 26.3341C47.7972 26.2799 47.5067 25.8946 47.6818 25.839C47.8719 25.7862 47.8129 26.0567 47.9898 26.0076C48.1864 25.953 47.6062 25.4647 48.2596 25.6574C48.5905 25.7561 48.2126 26.1998 48.6582 26.0761C48.8024 26.0361 48.8665 25.9618 48.8089 25.9072C48.6586 25.7725 48.9043 25.8948 49.0449 25.3335C49.3057 24.3153 50.8605 25.0341 50.1866 25.2C49.7093 25.3114 50.0241 26.0639 50.7877 25.1532C51.1431 24.7298 52.3023 24.1257 51.7595 24.0011C51.0955 23.8466 51.9176 23.4772 51.9776 23.6935C52.034 23.8966 52.4053 23.8359 52.5295 23.5967C52.7076 23.272 52.6413 23.6433 52.9081 23.5622C53.2667 23.4556 52.6087 22.636 53.2599 22.9987C53.5679 23.1673 54.2443 22.7818 54.8662 22.581C54.9692 22.5453 54.9812 22.4361 54.8928 22.2701C54.7381 21.9672 54.7541 21.9486 55.1065 22.0484C55.3741 22.1223 56.0465 21.9004 55.8187 21.5119C55.4958 20.9592 56.2516 20.8341 56.1334 20.4081C56.0231 20.0364 56.5609 19.7107 56.4123 19.5825C56.2249 19.4157 56.5657 18.9399 56.2432 18.846C55.9272 18.7502 56.3452 18.4506 56.5104 18.4612C56.7485 18.4798 56.7562 18.0754 56.5167 18.0007C56.3554 17.9537 56.3474 17.8995 56.4654 17.7397C56.9307 17.1023 56.0454 16.8116 56.5427 16.5183C56.9068 16.3042 56.8515 16.0796 56.4001 15.9791C56.0401 15.9026 55.9527 15.7151 56.1959 15.5487C56.3856 15.4184 56.2727 15.7745 56.4744 15.7891C56.6462 15.7978 56.4639 15.192 56.3394 15.2266C56.1625 15.2757 56.1501 14.9262 56.3184 14.7948C56.6162 14.571 56.013 14.1526 56.3719 14.2506C56.4782 14.2775 56.4338 14.2192 56.2795 14.1209C55.9002 13.8733 56.2195 13.6506 55.878 13.8442C55.5496 14.0342 55.5016 13.8358 55.7925 13.6633C56.0346 13.5184 55.8912 13.2053 55.5093 13.0502C55.3175 12.9693 55.3102 12.9431 55.4671 12.8219C55.671 12.6665 55.5535 12.1415 55.3172 12.1294C54.9652 12.1072 55.8762 10.7108 55.3258 10.8636C54.7968 11.0175 54.2869 9.74037 53.8562 9.867C53.4648 9.98272 53.3826 9.48322 52.8078 9.64988C52.2329 9.81654 52.6029 9.31857 52.2967 9.41063C51.748 9.57001 51.7871 8.84628 51.4292 8.85387C50.5668 8.8745 51.1401 9.28706 50.8845 9.48507C50.768 9.57388 50.7076 9.53418 50.6708 9.32558C50.5781 8.86431 50.538 8.84719 50.277 9.1526C49.8236 9.68078 49.7054 9.00071 49.468 9.26425C49.2627 9.49066 49.6122 9.09718 48.9209 8.71737C48.4036 8.43043 48.116 8.5385 48.3195 8.94081C48.4308 9.16399 48.4155 9.21059 48.1978 9.21457C47.6914 9.22105 47.7946 8.42305 47.3573 8.67856C47.1818 8.78374 47.1269 8.76372 47.1393 8.605C47.1517 8.44627 47.1284 8.43862 47.0424 8.56129C46.7325 9.02141 46.6973 8.4877 46.8057 9.36108C46.826 9.51071 46.2094 9.14549 46.1555 8.97692C46.0937 8.75411 45.8545 9.0111 45.8617 9.29142C45.8914 10.0596 45.1319 8.69645 44.5646 8.83981C44.0564 8.96679 44.3702 9.10555 44.0229 9.20197C43.7018 9.29112 43.6821 9.04247 43.8394 8.9988C44.0491 8.94058 43.6265 8.74029 43.5137 8.33399C43.4864 8.23569 43.003 8.04524 43.2417 8.47303C43.5322 8.98529 42.5846 8.77546 42.5463 9.14606C42.5171 9.42238 42.1797 9.07139 42.1681 8.74993C42.1597 8.49108 42.1215 8.48051 41.7447 8.64865C41.1768 8.89103 41.4018 8.65917 41.025 8.44614C40.8241 8.33253 40.7997 8.34636 40.8517 8.50837C40.8845 8.62633 40.8429 8.68021 40.7319 8.66162C40.634 8.6394 40.6096 8.65324 40.67 8.69293C40.8058 8.77522 40.5458 9.56736 40.3623 9.6183C40.1853 9.66742 40.3183 9.25643 40.0016 9.00555C39.6598 8.74047 40.0755 9.11914 39.4584 9.18459C39.2312 9.2053 39.1234 9.24935 39.2214 9.27157C39.3295 9.30508 39.253 9.411 39.0145 9.56897C38.4841 9.92094 38.5318 9.53358 38.7135 9.34903C38.9338 9.12554 38.7074 8.92018 38.3823 9.04573C37.941 9.21059 37.6989 9.2284 37.6625 9.09734C37.5861 8.8221 36.5086 8.37307 36.7727 9.27377C36.8601 9.58833 36.4433 9.35819 36.4637 9.12665C36.4852 8.87364 36.2034 8.95187 36.2689 9.18778C36.3326 9.41714 36.0967 9.48265 36.0494 9.31227C35.9948 9.11567 35.8877 9.44185 35.717 9.28455C35.5091 9.09522 35.757 9.55577 34.7578 9.00737C34.7228 9.18648 34.5301 10.094 34.2477 9.1278C34.1302 8.72988 33.9259 8.80775 33.9077 9.25044C33.8832 9.77249 33.743 10.0302 33.7314 9.58171C33.7133 9.00796 32.9848 9.35844 33.2527 9.12876C33.5855 8.85285 32.8647 8.79887 32.4616 9.35545C32.2388 9.67142 31.2043 8.58931 31.4929 9.22208C31.5471 9.34113 31.3083 9.42155 31.2664 9.27083C31.2246 9.1201 30.6829 9.3552 30.5241 9.59691C30.424 9.7447 30.334 9.77672 30.1972 9.71591C29.9187 9.60265 29.5946 9.96084 29.4305 9.80172C29.295 9.66992 28.9809 9.70774 29.243 9.88907C29.453 10.0355 29.2967 10.6929 29.0674 10.3754C28.7631 9.96582 28.6261 10.6673 28.4249 9.71384C28.3464 9.35451 28.1108 9.49756 28.1472 9.62862C28.2647 10.0265 26.9128 9.04669 27.3499 9.80762C27.7943 10.5948 26.2439 9.79 26.6097 10.3449C26.704 10.481 26.6843 10.6135 26.5507 10.7424C26.2015 11.0864 26.5296 10.5647 26.1026 10.3233C25.7695 10.1405 25.7138 9.71128 25.6945 9.92134C25.6409 10.4656 25.3367 9.80188 25.2711 9.82008C24.9988 9.88156 24.5929 9.8178 24.662 10.0668C24.7294 10.3093 24.3682 10.3813 24.318 10.2259C24.2652 10.0358 23.9241 10.434 23.6438 10.3142C23.3533 10.1831 22.6652 10.5012 22.6866 10.7564C22.7131 11.0808 22.3738 11.1044 22.3145 10.7891C22.2356 10.3523 21.8813 10.7541 21.8267 10.5575C21.7885 10.4199 21.537 10.4545 21.6127 10.7017C21.7193 11.0603 20.9257 10.2359 20.7903 10.6124C20.7349 10.7689 20.6909 10.7882 20.6141 10.6895C20.5474 10.6021 20.4109 10.6189 20.2354 10.724C19.8178 10.9741 19.5441 10.4713 19.7851 10.8561C20.1709 11.4831 18.6739 11.2776 19.1298 10.911C19.5452 10.5769 17.8633 10.6203 17.7271 11.0958C17.6378 11.4099 17.1868 10.8787 16.8526 10.9715C16.3564 11.1163 17.2752 11.2988 16.8409 11.7935C16.4884 12.2019 16.2234 11.7814 16.2369 11.6012C16.2599 11.2772 15.8153 11.6336 15.7451 11.406C15.6778 11.1636 15.0836 11.7944 14.9824 11.4554C14.874 11.0903 14.7461 11.4434 14.8003 11.9436C14.8607 12.4915 14.6874 12.6808 14.5564 12.209C14.4134 11.7193 13.9622 12.3316 14.0456 12.0473C14.1079 11.8394 13.8279 11.9242 13.8716 12.0814C13.9062 12.206 13.6979 12.4473 13.5866 11.843C13.4825 11.2648 13.0301 10.9317 13.2865 12.2368C13.4019 12.8048 12.6983 11.6943 12.6397 11.6612C12.4136 11.5333 12.1804 12.9815 11.9478 12.8555C11.8809 12.8176 11.8834 12.7252 11.9541 12.6491C12.1867 12.3939 11.5144 12.1077 11.7397 11.9534C12.2731 11.5865 10.7972 11.6857 11.2005 12.3501C11.3869 12.6654 11.215 12.6566 10.9773 12.3344C10.7859 12.077 10.376 12.0496 10.4498 12.2903C10.6147 12.8586 8.82044 11.5569 9.01984 12.2497C9.11809 12.6036 8.57461 12.1968 8.2112 12.82C7.90751 13.3279 7.63233 13.0231 7.76705 12.8728C7.97241 12.6464 7.81078 12.5218 7.58868 12.7388C7.45505 12.8676 7.34074 12.9135 7.27485 12.8541C7.17366 12.7693 6.66655 12.6207 6.85582 12.9211C7.02106 13.1858 6.64387 13.4034 6.60203 13.2527C6.55836 13.0954 6.02972 13.3269 6.12581 13.4696C6.3402 13.7842 4.45688 14.2717 5.33093 14.5726C5.65893 14.6862 5.21405 14.7109 5.30794 15.0236C5.38435 15.2989 5.04399 15.0898 4.90671 15.3327C4.8499 15.4331 4.78437 15.4513 4.71484 15.3789C4.65551 15.3177 4.45015 15.5441 4.25788 15.8939C3.59806 17.0512 4.60614 16.9195 4.20491 17.2285C3.96534 17.408 4.17183 16.906 3.68836 16.9696C3.13098 17.0467 3.79024 17.3366 3.58015 17.5714C3.53209 17.6271 3.47348 17.5939 3.44146 17.504C3.39779 17.3467 2.86774 17.268 2.79382 17.4086C2.74175 17.5007 3.16581 17.8841 3.28377 17.8513C3.35586 17.8313 3.41447 17.8644 3.43448 17.9365C3.48178 18.1069 3.09406 18.1087 3.14792 18.2772C3.19158 18.4345 2.96841 18.5459 2.9579 18.2029C2.93758 17.6721 2.27274 18.252 2.8162 18.7858C3.35965 19.3195 2.8162 18.7858 2.55764 19.3799C2.35516 19.8455 2.44987 19.4239 2.13929 19.7289C1.84947 20.007 2.22735 20.0715 2.04748 20.2626C1.8392 20.504 2.26262 20.3511 2.2531 20.749Z" fill="#FFC570" fill-opacity="0.83"/>
</svg>
