<svg width="56" height="24" viewBox="0 0 56 24" fill="none" xmlns="http://www.w3.org/2000/svg">
<path d="M0.849345 7.85093C1.15552 7.98202 1.00583 8.29938 1.20314 8.29249C1.46169 8.29249 1.17593 9.42398 1.45488 9.42398C1.59096 9.42398 2.04001 9.73444 1.80188 9.83793C1.53653 9.94832 2.69998 10.0449 2.22371 10.3554C2.09444 10.4382 2.47545 11.3075 2.84286 11.2109C3.2783 11.0936 2.91089 11.9353 3.76817 11.4731C4.49618 11.0798 4.03352 11.7767 4.33289 11.8042C5.05409 11.8732 5.21057 12.8115 5.21057 12.1975C5.21057 11.8456 5.40108 11.818 5.48953 12.1561C5.60519 12.5908 5.7957 12.0664 6.18352 12.5356C6.57814 13.0185 7.97291 12.9978 8.1362 13.5084C8.27228 13.9361 8.55123 14.081 8.79617 13.8464C9.0275 13.6257 10.1773 13.5843 10.1433 13.7913C10.1161 13.9362 10.5243 14.1293 10.3678 13.8672C10.1841 13.5705 10.7012 14.0051 10.6264 14.1293C10.4087 14.495 11.5585 14.1155 11.5585 14.2604C11.5585 14.4053 10.572 14.7641 11.3748 14.7503C11.8375 14.7434 11.5721 14.2949 12.0076 14.84C12.1028 14.9572 13.3207 15.8749 13.103 15.6265C12.7288 15.1987 13.5112 14.8538 13.3887 15.3574C13.3071 15.6955 13.6201 15.9439 13.865 15.7369C14.0147 15.6127 14.0487 15.6196 14.0487 15.7783C14.0487 15.8887 14.1576 15.9784 14.2936 15.9784C14.661 15.9715 14.5658 16.2336 14.9128 16.137C15.2938 16.0335 15.3482 17.0754 15.8721 16.3785C16.0286 16.1784 16.0422 16.1853 15.9946 16.4889C15.9333 16.9167 16.1783 17.1305 16.6001 17.0202C16.811 16.965 16.9199 16.9857 16.9267 17.0822C16.9267 17.1719 17.0083 17.1995 17.1308 17.1581C17.4846 17.0201 17.4914 17.6066 17.9405 17.4824C18.3555 17.372 18.546 17.9723 18.546 17.717C18.546 17.4341 19.1447 17.9723 18.9882 17.7032C18.8454 17.4617 19.0155 17.5376 19.2944 17.8412C19.5598 18.1309 19.5598 18.1309 19.7299 17.8895C19.9544 17.579 20.1449 17.7377 19.9476 18.0619C19.5938 18.6484 20.4238 18.0551 20.4987 18.0551C20.6075 18.0551 20.662 18.0896 20.6212 18.1309C20.4987 18.2551 20.764 18.6829 20.9613 18.6829C21.2879 18.6829 21.1655 19.1314 21.3832 18.8209C21.8322 18.1585 22.533 19.8144 22.533 19.1107C22.5262 18.3724 24.0843 20.3525 24.2408 19.9455C24.3292 19.7109 24.5401 20.0007 24.4925 19.773C24.4517 19.5798 25.4655 19.4694 25.2545 19.7316C25.1457 19.8696 25.2545 20.3801 25.9961 19.4556L26.003 19.7454C26.0166 20.1525 25.758 19.7937 25.7648 20.0904C25.7716 20.4974 26.0302 19.8627 26.2819 20.1111C26.486 20.3111 26.8466 20.0145 26.7105 20.2421C26.452 20.6768 27.9012 19.8006 27.6767 20.4422C27.6291 20.5802 27.7039 20.6354 27.9624 20.6354C28.5748 20.6423 29.2484 21.0632 29.3844 20.8493C29.5341 20.6147 29.296 21.0356 30.1192 21.0632C30.4186 21.077 30.684 21.146 30.7112 21.2218C30.8064 21.4978 31.1126 21.3598 31.1126 21.0425C31.1058 20.6354 31.3779 20.5388 31.2895 20.7665C31.1874 21.0425 31.6093 21.146 31.6093 21.4288C31.6093 21.6634 31.9699 21.6496 32.0583 21.415C32.2624 20.8631 32.5414 21.6427 32.208 21.76C32.1196 21.7945 32.2284 21.8221 32.4529 21.829C33.181 21.8428 32.9972 21.2357 33.7729 21.9049C34.1879 22.2637 34.3444 22.2913 34.3444 22.0222C34.3444 21.76 34.5485 21.7807 34.7118 22.0567C34.8275 22.243 34.8547 22.2499 34.9771 22.0774C35.086 21.9256 35.0928 21.9601 35.0316 22.2499C34.9703 22.5534 34.984 22.6017 35.1472 22.5396C35.2561 22.4913 35.3377 22.5189 35.3377 22.5948C35.3377 22.857 35.6371 22.2982 35.7392 22.5948C35.814 22.8087 36.2086 22.105 35.9161 22.2292C35.6575 22.3395 35.4466 21.8152 35.7256 21.8152C36.0181 21.8152 36.3175 21.2287 36.3175 21.5875C36.3175 21.9049 35.9365 21.829 36.1474 21.967C36.2154 22.0084 36.4332 21.9601 36.6169 21.8635C36.9843 21.6634 37.2564 21.7393 36.9026 21.9394C36.2086 22.3396 37.2156 23.1744 37.4469 22.788C37.5694 22.581 37.8347 22.7742 37.7395 22.9398C37.5966 23.1951 38.5219 22.8432 38.4675 23.1399C38.4267 23.3813 38.6376 23.0847 38.971 23.133C39.3656 23.1951 39.6718 22.6431 39.5221 23.0502C39.4132 23.3469 39.6037 23.34 39.8146 23.0364C40.0256 22.7328 40.5971 22.5189 40.5086 22.7811C40.4746 22.8846 40.3862 22.9467 40.3113 22.926C40.1072 22.8846 40.1548 23.2365 40.3657 23.3193C40.6175 23.4158 40.6243 22.857 40.8012 22.9605C40.8692 23.0019 40.9169 22.9398 40.9169 22.8294C40.9101 22.105 42.0395 24.1196 42.2232 23.5193C42.332 23.1537 42.6382 23.3124 42.5702 23.7056C42.5021 24.0851 42.6722 24.0989 42.9852 23.7401C43.6452 22.9812 44.2847 24.4025 44.1146 23.8574C44.0262 23.5814 45.0468 23.5883 44.9515 23.8574C44.9039 23.9954 44.9447 23.9816 45.1216 23.8229C45.4414 23.5262 45.6795 23.6435 45.5843 23.4917C45.2849 23.0088 46.7273 23.0364 46.6865 22.9605C46.6116 22.8363 46.877 22.3809 47.2376 22.5741C47.5029 22.7121 48.401 22.6224 47.7411 22.1809C47.4213 21.967 47.5029 21.5599 48.2173 21.9049C49.0474 22.312 48.8433 21.6979 49.1494 22.1188C49.4284 22.4982 49.5032 21.9049 49.3331 21.7945C49.1426 21.6703 49.2175 21.4357 49.6461 21.7255C50.4626 22.2637 49.7754 21.553 49.9319 21.3805C49.9727 21.3391 49.9251 21.2977 49.8366 21.2977C49.7278 21.2977 49.7482 21.2356 49.8979 21.1253C50.2585 20.8493 50.5442 21.1874 50.6667 20.8355C50.8232 20.4008 51.2858 20.2766 51.1293 20.5457C50.9933 20.7734 52.1567 20.4905 51.9866 20.0766C51.9662 20.0214 54.4156 19.0348 54.4156 18.5311C54.4156 18.3103 55.096 18.3103 54.6469 18.0344C54.5448 17.9723 54.4428 16.8339 55.0279 17.1926C55.8308 17.6825 54.7081 16.758 55.5994 15.6748C55.7423 15.4954 55.7219 15.4747 55.4361 15.4747C55.0891 15.4747 54.5516 15.1504 54.919 15.0055C55.1436 14.9159 55.2048 14.5709 55.0007 14.5709C54.8646 14.5709 54.9939 13.7637 55.1436 13.7016C55.3137 13.6326 55.1572 12.6184 55.3613 12.7426C55.4702 12.8116 55.9192 12.5563 54.3067 12.6253C54.3339 10.9487 53.708 12.0664 53.9053 11.4938C54.0141 11.1833 53.4358 11.3834 53.5243 11.2109C53.5515 11.1557 53.1977 10.4106 53.0684 11.0522C52.8711 12.025 52.5717 10.8452 52.6194 10.6107C52.7282 10.0035 52.4221 10.3968 52.3268 10.1553C52.2792 10.0311 52.2588 10.0311 52.252 10.1553C52.2384 10.3416 51.7621 10.4175 51.9866 10.1415C52.1703 9.91383 51.7961 9.52056 51.4763 9.60336C51.1225 9.69995 51.3198 9.31359 51.1157 9.31359C50.9592 9.31359 50.9116 8.92032 51.177 9.02381C51.6872 9.217 50.9048 8.54776 51.313 8.23729C51.5376 8.0717 51.5376 8.0648 51.3198 8.0579C51.1429 8.0579 51.1225 8.00271 51.2178 7.81643C51.3811 7.50596 51.1974 7.36107 50.5034 7.25068C49.9795 7.16789 49.9727 7.17479 50.0543 7.48526C50.136 7.79573 50.1224 7.80263 49.755 7.69914C49.5441 7.63705 49.3672 7.63704 49.3672 7.69223C49.374 8.27178 48.2445 7.37487 48.1561 8.04411C48.1085 8.38908 47.2648 8.59605 47.3805 7.72673C47.4145 7.47146 47.3532 7.80953 46.945 7.40246C46.285 6.74703 46.5232 7.35417 46.1966 7.36107C45.9244 7.36107 46.1013 7.86472 45.8292 7.86472C45.2441 7.87162 45.6387 7.36107 45.3665 7.36797C45.0876 7.36797 44.8699 6.88502 44.9515 6.45036C45.0263 6.0571 45.0263 6.05019 44.795 6.25717C43.7881 7.16788 42.3388 5.34647 42.89 5.68453C42.9988 5.74663 42.8491 4.9877 42.5157 5.34646C42.3933 5.47065 42.332 5.61554 42.3729 5.68453C42.4681 5.84322 41.5972 5.62933 41.4884 5.46375C41.4407 5.38786 41.3999 5.37406 41.3999 5.43616C41.3999 5.49825 41.3183 5.47755 41.223 5.40166C40.8692 5.12568 40.8352 6.15368 40.2297 6.16058C40.1344 6.16058 40.4542 5.31886 40.148 5.42925C40.046 5.46375 39.9575 5.60864 39.9371 5.76043C39.9031 6.0157 39.42 6.26408 39.42 6.0295C39.42 5.96741 39.3316 5.91911 39.2295 5.91911C39.005 5.91911 38.9642 5.71902 39.1751 5.64313C39.4132 5.56034 39.1683 5.07049 38.8485 4.9946C38.6716 4.9532 38.5355 4.83591 38.5355 4.73242C38.5287 4.09078 37.8552 5.22227 37.7191 4.83591C37.4129 3.95279 37.3517 4.05628 37.1748 4.28396C36.9162 4.60823 36.229 4.60823 36.2563 4.27706C36.2699 4.11148 36.2086 4.07008 36.0385 4.12528C35.6779 4.24256 35.8821 3.81481 35.6915 3.81481C35.3786 3.81481 35.3446 2.55913 35.2561 4.23567C35.2425 4.49784 35.1336 4.44955 34.9363 4.44955C34.7118 4.44955 34.984 4.15287 34.4941 3.72511C34.0518 3.33875 34.4124 3.73201 33.7184 3.68372C33.4327 3.66302 33.2626 3.58713 33.283 3.49054C33.3034 3.40085 33.2354 3.33185 33.1197 3.33185C32.834 3.33185 33.1537 3.52504 32.868 3.63543C32.2148 3.8976 32.6911 3.46984 32.4189 3.44225C31.5685 3.35256 31.3235 2.7937 31.3235 3.35945C31.3303 3.8217 30.9357 3.27666 30.7248 3.68372C30.5003 4.11838 30.5343 3.47674 29.8267 3.48364C29.5885 3.48364 29.4593 3.42154 29.4593 3.29736C29.4593 3.06278 28.8673 3.10417 28.7789 3.33875C28.6836 3.60093 28.4523 3.31806 27.9897 3.35255C27.7447 3.37325 27.7243 3.34565 27.8536 3.18007C27.9692 3.02828 27.976 2.95239 27.8536 2.8351C27.5882 2.57293 27.5134 3.12487 27.3093 3.13177C26.9691 3.13177 27.8332 1.7588 27.1256 2.40044C26.7173 2.7799 26.9147 2.22795 26.1867 2.29005C25.6492 2.33834 25.6015 3.13867 25.69 3.49743C25.8465 4.13907 24.9075 4.42195 25.2001 3.99419C25.5063 3.54573 24.7102 2.40044 24.6286 2.41424C24.3156 2.46254 24.1251 2.37285 24.0639 2.13827C24.023 1.98649 23.9414 1.91059 23.8666 1.95888C23.5944 2.13826 24.1183 2.40045 23.5536 2.40735C23.3699 2.40735 23.2542 2.35904 23.295 2.28315C23.3903 2.12447 23.0297 2.09687 22.9549 2.32455C22.88 2.55912 22.4854 2.20036 22.4854 1.90369C22.4854 1.54492 22.1112 1.7933 22.1112 1.41384C22.1044 1.03437 22.3561 1.24135 22.3561 1.03437C22.3561 0.723902 21.6145 1.26205 21.6145 1.04817C21.6145 0.889489 21.1859 0.841191 21.2879 1.11027C21.3832 1.36554 20.8253 1.37244 20.9137 1.12407C20.9818 0.951583 20.7232 0.337536 20.5531 0.751496C20.4987 0.882584 20.1857 2.17966 19.8727 1.68981C19.7707 1.53112 19.7503 1.53802 19.7571 1.7312C19.7571 2.00718 19.5121 1.95889 19.5053 1.41384C19.4985 0.785998 19.3488 1.32414 19.1039 1.32414C18.961 1.32414 18.9746 0.723903 19.1243 0.64801C19.1924 0.613514 19.1788 0.599709 19.0903 0.620407C18.7501 0.710099 18.4576 0.23405 18.5256 0.723904C18.5732 1.06197 18.5052 1.09646 18.0221 1.00677C17.75 0.951574 17.6751 0.875683 17.7227 0.6963C17.8044 0.372031 17.5322 0.392728 17.1716 0.737695C17.0083 0.88948 16.8859 0.951576 16.8859 0.868784C16.8859 0.723898 15.9742 0.848084 16.5865 0.489318C16.9471 0.282338 16.4096 0.192653 16.015 0.399634C15.7156 0.551419 15.6816 0.551419 15.736 0.399634C15.8109 0.199553 15.2053 0.158158 15.0897 0.358239C14.9876 0.537622 14.3957 0.441031 14.4365 0.627313C14.5045 0.923985 14.1644 0.882584 14.0895 0.579013C13.9262 -0.0557269 13.5452 0.751496 13.0281 0.234046C12.7424 -0.0557269 12.6063 -0.0764224 12.7015 0.171954C12.7832 0.385834 12.4362 0.551421 12.1368 0.434132C11.7626 0.289246 12.2797 1.06197 12.0552 1.20686C11.8987 1.30345 11.8307 0.634205 11.6606 0.641104C11.3272 0.641104 11.2864 0.0753582 11.0006 0.468621C10.8917 0.620406 10.8169 0.641112 10.7557 0.530723C10.6264 0.323743 10.1501 0.358238 10.2318 0.572117C10.3202 0.799796 9.95281 0.965374 9.85756 0.716998C9.60582 0.0615599 9.27924 1.16546 8.76896 1.16546C8.42196 1.16546 8.34712 1.35174 8.64649 1.46213C8.86421 1.54492 8.87782 1.65531 8.70772 1.92438C8.46278 2.31075 7.84364 1.00678 8.18383 1.22066C8.41516 1.36554 8.19744 0.413426 7.90487 0.910178C7.80962 1.07576 7.34016 0.848094 7.34016 1.02748C7.34016 1.22756 6.44886 0.868783 6.99317 1.40693C7.26532 1.68291 6.47608 2.04858 6.47608 1.56562C6.47608 1.23446 6.22434 1.24825 6.22434 1.51043C6.22434 1.8071 5.85693 1.7519 5.85693 2.03477C5.85693 2.37284 5.10852 1.93128 5.11532 2.19346C5.11532 2.43493 4.49618 2.18656 4.49618 2.57292C4.50298 3.00758 3.91105 3.32495 4.16959 3.58713C4.3669 3.78721 4.01991 4.09079 3.79539 3.69062C3.66611 3.45605 3.57766 3.49053 3.62529 3.76651C3.66611 3.99418 3.37355 4.34605 3.20346 4.28396C3.08779 4.24256 3.01975 4.29086 3.01975 4.41505C3.01975 4.65652 2.82244 4.68412 2.72039 4.45644C2.55029 4.09078 2.46865 5.24987 1.92434 4.9118C1.59776 4.71172 1.44128 4.9256 1.71343 5.19468C2.46184 5.93981 0.679251 6.0502 0.686055 6.71944C0.686055 6.82982 0.740485 6.88502 0.808523 6.83672C0.876561 6.79533 0.930991 6.83672 0.930991 6.92641C0.937795 7.34037 1.20314 7.60255 0.856149 7.68534C0.652036 7.75433 0.652035 7.76814 0.849345 7.85093Z" fill="#FFC570" fill-opacity="0.83"/>
</svg>
