<svg width="66" height="24" viewBox="0 0 66 24" fill="none" xmlns="http://www.w3.org/2000/svg">
<path d="M1.20295 4.69281C1.35257 4.44117 1.48859 4.57719 1.40698 4.90365C1.10773 6.05303 2.91682 6.01903 2.05988 6.35908C1.71303 6.49511 2.1959 6.66514 2.31152 6.58353C2.52915 6.43391 2.11429 6.95077 2.50195 7.1548C2.75359 7.28402 2.842 7.85534 2.63117 7.99136C2.56996 8.02536 2.62437 8.17495 2.73319 8.29737C3.20926 8.82106 2.35913 8.86187 2.86241 9.40595C3.06644 9.63039 3.06644 9.6508 2.88281 9.58279C2.77399 9.54198 2.67198 9.56239 2.67198 9.6304C2.67878 10.0385 3.42009 10.1473 3.42009 10.2629C3.42009 10.4465 3.16846 10.1473 2.97122 10.5826C2.76719 11.0314 3.10044 10.773 2.99163 11.1266C2.87601 11.4939 3.30448 11.3307 3.31128 11.7931C3.31128 12.1128 3.76015 12.344 3.85536 12.072C3.95058 11.8136 4.0594 12.6909 4.36544 12.5685C4.46746 12.5277 4.57628 12.5481 4.61708 12.6093C4.7327 12.7793 5.07956 12.5004 5.02515 12.7317C4.97754 12.9357 5.30399 13.0514 5.29719 12.8337C5.29719 12.4937 5.27679 13.0105 5.93649 13.0105C6.50098 13.0037 6.65741 13.371 7.05867 13.337C7.46673 13.2962 7.79999 13.2758 7.53474 13.4594C7.20829 13.677 7.95641 13.2962 8.4937 13.6702C9.32343 14.2415 9.89472 13.3438 9.89472 13.7247C9.89472 13.9967 9.49345 14.0579 9.7723 14.0375C10.1668 14.0103 10.262 14.0579 10.1872 14.2551C10.0579 14.5952 10.602 14.2483 10.5544 14.5136C10.534 14.602 10.602 14.636 10.7312 14.5884C10.8537 14.5408 10.9013 14.5612 10.8537 14.6428C10.6972 14.9012 11.4658 14.5272 11.3569 14.942C11.3161 15.1121 11.3842 15.2141 11.595 15.2889C11.9078 15.4045 12.0167 15.9078 11.7378 15.9146C11.6562 15.9146 11.697 15.9758 11.8194 16.0506C12.1255 16.2206 12.5199 16.0166 12.5199 16.1526C12.5199 16.2071 12.6423 16.2546 12.792 16.241C13.3633 16.2138 13.4041 16.2479 13.2 16.5743C12.8396 17.1456 11.8466 16.1798 12.2547 17.0776C12.5199 17.6625 11.9758 17.8461 12.8192 17.7645C13.1796 17.7305 12.9144 18.363 13.1932 18.3902C14.0978 18.4922 14.1386 18.499 14.0774 18.6758C14.023 18.8186 14.0978 18.8595 14.3834 18.8595C14.9887 18.8527 14.6691 18.465 15.2132 18.5738C15.4648 18.6214 15.5056 18.669 15.3832 18.7439C15.2948 18.7983 15.2676 18.8527 15.3288 18.8527C15.6892 18.8527 16.3761 18.0297 16.2129 18.5738C16.1177 18.8867 16.5122 19.0091 16.723 18.7302C16.927 18.4582 17.2807 18.4446 17.1991 18.7166C17.1039 19.0295 17.4303 19.1723 17.4915 18.9887C17.5187 18.9003 17.5867 18.8663 17.6547 18.9071C17.716 18.9411 17.7364 18.8934 17.6955 18.7982C17.5119 18.329 18.26 18.5058 18.26 19.0091C18.26 19.2539 18.3757 19.2539 18.6477 19.0091C18.8857 18.7914 19.1306 18.8526 19.1306 19.1383C19.1374 19.6076 19.4638 19.0363 19.6951 19.1179C19.9807 19.2199 19.9399 18.7507 20.0759 19.0431C20.1371 19.1723 20.1983 19.1587 20.3888 18.9887C20.5996 18.7983 20.62 18.7982 20.6268 18.9819C20.6268 19.0975 20.722 19.1859 20.8444 19.1927C21.0417 19.1995 21.0349 19.2131 20.8308 19.3763C20.2936 19.7844 21.1777 19.7232 21.3001 19.2675C21.3545 19.0567 21.3953 19.0363 21.4837 19.1723C21.5994 19.3423 22.6535 19.5804 22.5447 19.4103C22.2727 18.9819 23.7281 19.6824 23.9321 19.6076C24.0341 19.5736 24.109 19.6076 24.109 19.696C24.109 19.798 24.1498 19.7844 24.2246 19.6552C24.4694 19.2607 24.7006 20.1857 25.0543 19.8864C25.3944 19.6008 25.0679 20.1517 25.7956 20.0565C26.1153 20.0156 26.2241 20.0497 26.2241 20.1857C26.2241 20.3965 26.4281 20.4441 26.4961 20.2469C26.5709 20.0156 27.4347 20.5121 27.5979 20.2333C27.7407 19.9953 28.1556 20.3285 28.0128 20.0905C27.8768 19.8728 28.2848 20.1041 28.414 20.1041C28.448 20.1041 28.414 20.2129 28.3392 20.3557C28.2372 20.5529 28.244 20.5869 28.3868 20.5257C28.7813 20.3489 28.5297 19.9068 28.9309 20.2673C29.2506 20.5529 29.5022 20.3013 30.0531 20.4577C30.5564 20.6005 30.7468 20.2333 30.6516 20.4033C30.5496 20.5937 31.5561 20.5461 31.5561 20.4237C31.5561 20.3625 31.5085 20.3217 31.4337 20.3285C31.2297 20.3285 31.2909 19.9952 31.5153 19.9068C31.9166 19.7504 31.8418 20.6277 33.3448 20.4713C34.6642 20.3353 33.9501 20.8182 34.841 20.9746C35.4939 21.0902 35.3715 21.4439 35.4871 21.199C35.5892 20.9814 35.9224 21.0086 36.1129 21.2535C36.2625 21.4507 36.2761 21.4507 36.2761 21.2398C36.2761 20.9066 36.8338 21.0086 36.8814 21.3554C36.9426 21.7635 37.5207 21.9131 37.8335 21.6003C38.126 21.3146 38.602 21.3894 38.9013 21.7703C39.0169 21.9199 39.1257 21.9675 39.1529 21.8927C39.2277 21.6615 40.6084 21.8451 40.6764 22.09C40.724 22.2532 40.7308 22.2532 40.7444 22.0764C40.7852 21.403 41.5333 22.464 41.8802 22.464C42.227 22.464 42.2202 22.9061 42.2338 22.6204C42.2406 22.4368 42.9547 22.4028 43.0227 22.5864C43.0499 22.6612 43.288 22.7225 43.56 22.7157C44.0021 22.7089 45.0019 23.2733 44.5326 22.3824C43.7369 20.8658 45.6003 22.3484 45.6003 22.4572C45.6139 22.9129 47.0218 23.389 47.6135 23.1373C47.8855 23.0217 48.0079 23.0149 48.0691 23.1169C48.1916 23.3074 49.1505 22.7224 49.511 23.2121C49.647 23.4025 49.6742 23.3958 49.749 23.1509C49.8374 22.8517 50.0686 22.7973 50.2931 23.0217C50.6195 23.3414 50.5039 22.566 51.1092 22.8381C51.6329 23.0761 51.2996 23.4366 51.6329 23.3073C51.9593 23.1849 52.2586 23.3142 52.3402 22.9809C52.4286 22.6205 53.2924 22.6612 53.2924 22.9129C53.2924 23.2189 53.9793 22.9265 54.0745 22.7633C54.2377 22.4776 54.6662 22.6749 54.8226 22.5048C54.8974 22.4232 55.4347 22.2396 55.3327 22.634C55.2715 22.8721 55.2783 22.8721 55.4007 22.6817C55.5707 22.4096 55.7747 22.3824 55.7747 22.6409C55.7747 22.8857 56.0264 22.8925 56.0196 22.6272C56.0128 22.2532 56.7677 22.8925 56.7609 22.0627C56.7541 21.5799 57.0057 21.6547 57.0057 21.8723C57.0125 22.4572 58.1755 21.8791 58.0667 21.6003C57.9375 21.267 58.5224 21.7907 58.672 21.3146C58.7196 21.1514 58.8284 21.0698 58.9304 21.1106C59.0325 21.1446 59.0937 21.131 59.0733 21.0834C59.0121 20.8998 59.4473 20.4101 59.5901 20.4985C59.835 20.6549 59.5017 20.1313 59.699 20.0088C59.8622 19.9068 59.8622 19.3151 59.7058 19.3151C59.5765 19.3151 59.4065 19.0091 59.9846 19.0023C60.4607 18.9955 60.3859 18.9547 60.4267 18.0433C60.4403 17.7101 60.9028 18.0637 60.7667 17.8461C60.6307 17.6353 61.1816 17.9209 61.1816 17.6965C61.1816 17.6216 61.2428 17.5877 61.304 17.6285C61.3788 17.6693 61.3992 17.6217 61.3516 17.5129C61.27 17.302 61.4877 16.8123 61.7597 17.1932C62.0181 17.5536 62.3378 17.5129 62.263 17.1252C62.229 16.9552 62.2562 16.8123 62.3174 16.8123C62.5554 16.8123 62.0181 16.4247 62.8207 16.5675C63.4668 16.6763 63.5076 16.6763 63.2151 16.2343C62.5418 15.2209 64.2217 16.3703 63.9564 15.9282C63.9224 15.867 63.9496 15.7785 64.0245 15.7309C64.2013 15.6153 64.6093 16.2478 64.827 15.5269C64.963 15.0916 64.1401 14.6496 65.031 14.3095C65.3779 14.1803 65.3983 14.1463 65.1806 14.0647C64.9426 13.9763 64.9426 13.9695 65.1602 13.8471C65.5751 13.6158 64.7454 12.9289 65.4459 12.7929C65.8267 12.7181 65.0446 12.3032 65.1874 12.1468C65.2554 12.072 64.963 11.9224 64.6025 12.4529C64.2149 13.0105 63.8612 12.7045 63.8612 13.0649C63.868 13.4798 63.1471 13.1126 62.739 13.3438C62.3922 13.541 62.3106 13.0921 62.0317 13.4458C61.9025 13.609 61.8481 13.6226 61.8005 13.507C61.7053 13.2826 60.9028 13.3166 60.6715 13.5546C60.3383 13.8947 60.209 13.269 59.8418 13.405C59.5765 13.507 59.6106 13.1874 59.1957 13.2962C59.0121 13.3438 58.8964 13.3234 58.8964 13.235C58.8964 13.0309 58.4748 13.3098 58.5768 13.1397C58.6108 13.0785 58.5292 13.0037 58.3932 12.9697C57.9987 12.8745 58.2435 13.3778 58.0259 13.3846C57.8219 13.3846 57.9919 13.1397 57.7267 13.1397C57.3866 13.1397 57.5294 12.6841 57.2438 13.0445C57.0466 13.2894 56.1692 13.3506 55.7679 13.1397C55.5707 13.0377 55.4891 13.0513 55.3667 13.235C55.0606 13.6838 55.1763 12.9153 54.5165 12.9221C53.9725 12.9289 54.2717 12.5345 54.0813 12.5753C53.9113 12.6093 52.7211 11.97 52.0614 12.3916C51.7893 12.5685 51.9389 12.1944 51.5377 12.3032C51.3745 12.344 51.3064 12.3236 51.354 12.2488C51.4493 12.0856 50.0346 11.6979 49.7354 11.8136C49.613 11.8612 49.5586 11.8475 49.613 11.7863C49.783 11.5959 47.3958 11.0586 46.9402 11.181C46.8041 11.215 46.7497 11.1878 46.7973 11.113C46.8449 11.0314 46.8041 11.011 46.6817 11.0586C46.4029 11.1674 46.4165 10.8478 46.0832 10.943C45.9608 10.977 45.818 10.9566 45.7772 10.8954C45.6752 10.739 45.2263 10.7526 45.2263 10.9158C45.2263 11.1402 44.961 11.045 44.893 10.7934C44.859 10.6574 44.723 10.5485 44.5938 10.5485C44.2537 10.5485 44.417 10.2493 44.2265 10.3717C44.0089 10.5078 43.8321 9.92282 43.6892 10.1609C43.56 10.3717 43.3696 10.3513 43.3628 10.1269C43.3628 9.88202 43.1248 9.89565 42.8391 10.1541C42.4923 10.4669 42.6759 10.1677 42.023 10.0181C41.3293 9.86844 41.8121 9.18153 41.4109 9.03871C41.1252 8.93669 41.1116 8.9435 41.1116 9.21554C41.1184 9.84804 39.7582 8.96388 39.7514 9.0659C39.7446 9.29033 39.3706 9.26995 39.3706 9.04552C39.3706 8.9095 39.2822 8.88227 39.0577 8.93668C38.5 9.0727 38.9285 8.48783 38.5544 8.49463C38.4524 8.49463 38.3708 8.54903 38.3708 8.61024C38.3708 8.78707 37.4799 8.44701 37.3506 8.22257C37.3234 8.16816 36.997 7.58328 36.997 8.69866C36.4325 8.03895 36.4257 8.22939 36.6297 8.03216C36.7862 7.88254 36.7862 7.86892 36.5957 7.93013C36.2489 8.05255 36.5413 7.59007 35.3375 8.09335C35.1335 8.18176 35.1131 8.15456 35.1811 7.88252C35.2695 7.52206 35.0859 7.38604 34.6506 7.50166C34.229 7.61048 34.5554 7.26364 34.1133 7.31125C33.0524 7.42687 33.2632 6.26386 32.4811 6.86236C32.2702 7.02558 31.7738 7.00519 31.767 6.83517C31.7398 6.28428 30.1891 5.72659 29.373 5.97823C28.7609 6.16866 28.9173 6.48831 28.8017 6.10745C28.6453 5.57016 27.8631 5.71299 27.9788 5.39334C28.0808 5.1009 27.8019 5.50214 27.3803 5.12128C26.9246 4.69962 26.1085 5.04646 25.952 4.81523C25.8228 4.6316 25.4352 4.5296 25.3604 4.65882C25.2923 4.77443 24.9387 4.53639 24.9795 4.40037C25.0203 4.25755 24.3742 4.20995 24.5034 4.40718C24.8027 4.87645 23.7621 3.89707 23.4901 3.99909C23.3812 4.0399 23.32 3.99912 23.3404 3.90391C23.3676 3.78149 23.218 3.72706 22.8168 3.71346C20.7832 3.64545 20.9193 3.06735 20.7696 3.32579C20.654 3.50942 20.3344 3.47541 20.3344 3.27818C20.3344 3.06735 19.8379 2.90412 19.8379 3.15576C19.8379 3.3938 19.6407 3.38022 19.5386 3.13538C19.4502 2.90415 17.6207 2.82252 17.4031 2.53008C17.3011 2.39406 17.2331 2.36005 17.2331 2.44847C17.2263 2.70691 16.6346 2.5777 16.4714 2.28525C16.0769 1.56434 16.0021 2.43487 16.2741 2.53689C16.485 2.6185 15.7096 3.33259 15.8593 2.26483C15.9205 1.82276 15.0907 2.7545 14.7575 2.05399C14.6079 1.74795 14.5807 1.72753 14.4786 1.91796C14.3154 2.22401 14.125 2.20362 14.125 1.88397C14.1182 1.4419 13.8053 1.87719 13.5129 1.56434C13.1524 1.18348 12.3091 2.03361 12.4179 1.68675C12.5131 1.3807 11.493 0.57815 11.3433 0.979413C11.2753 1.16304 10.5204 1.33308 10.5204 1.16306C10.5204 0.993029 10.0239 1.05426 10.0171 1.23109C10.0171 1.3127 9.92872 1.19027 9.8267 0.965839C9.54106 0.319737 9.51385 0.829816 9.03098 0.496564C8.05843 -0.169941 9.50705 1.53034 8.65012 1.2719C8.29646 1.16308 8.5005 1.4623 8.28966 1.4623C8.11283 1.4623 8.21485 0.965839 8.02442 0.965839C7.84079 0.965839 7.97681 0.646201 8.11964 0.680206C8.26926 0.714211 8.26926 0.217703 8.10603 0.224504C7.8816 0.224504 7.2627 0.829818 7.35111 0.965839C7.45313 1.12907 6.78663 1.02026 6.6098 0.850233C6.52818 0.76862 6.56219 0.755013 6.69821 0.80262C6.92265 0.884233 7.2355 0.442145 7.10628 0.231312C6.73222 -0.360381 6.32415 1.23789 6.31055 0.843425C6.29695 0.503371 5.56243 0.523765 5.95009 0.408146C6.19493 0.340136 6.35136 -0.00670241 6.13372 9.86667e-05C5.51483 0.027303 5.49442 1.14946 5.16117 0.448951C4.85512 -0.210753 3.80096 0.516942 3.88937 0.768582C4.0662 1.29907 2.7876 0.299341 2.98483 0.80262C3.08004 1.04066 2.74679 1.79558 2.59036 1.70037C2.52235 1.65956 2.46794 1.71395 2.46794 1.80917C2.46794 2.06081 1.86265 2.39406 1.88305 2.70691C1.92386 3.44143 0.998913 3.95832 0.998913 3.57066C0.998913 3.33262 0.754074 3.32578 0.876494 3.99909C0.951306 4.39355 0.930902 4.4956 0.767677 4.5364C0.461628 4.55 1.10773 4.85604 1.20295 4.69281Z" fill="#FFC570" fill-opacity="0.83"/>
</svg>
