<svg width="77" height="56" viewBox="0 0 77 56" fill="none" xmlns="http://www.w3.org/2000/svg">
<path d="M5.80116 43.8497C6.29164 43.7132 6.04574 43.9537 6.26423 44.3138C6.35983 44.4738 6.34901 44.4794 6.15058 44.3854C5.96304 44.2994 5.94407 44.3024 6.01243 44.4359C6.10814 44.6229 6.74546 44.573 6.75553 44.3791C6.75794 44.3037 6.82827 44.2542 6.91781 44.2556C7.25154 44.2668 7.40758 43.9442 7.57444 44.2835C7.82066 44.7911 7.86639 44.0262 8.23021 44.0961C8.3741 44.1235 8.90319 44.81 8.72533 44.4359C8.60223 44.182 8.80546 44.1252 9.07761 44.3364C9.28987 44.4974 9.32241 44.4942 9.50322 44.2601C9.72178 43.9662 10.2391 43.7486 10.3482 43.895C11.014 44.8485 11.2462 43.9004 11.0939 43.8166C10.8519 43.6776 11.565 43.5754 11.9724 43.6904C12.3879 43.808 12.6464 43.9926 12.3723 43.9778C12.0684 43.9581 12.6646 44.4687 12.7964 44.1787C12.9416 43.8617 12.4481 43.2581 13.0396 43.9598C13.3913 44.3798 13.4815 43.8752 14.0305 44.1334C14.3893 44.3003 13.9646 43.9379 14.4466 43.7047C14.6172 43.6241 14.6714 43.6233 14.5822 43.7027C14.3768 43.8887 14.5079 44.0913 14.8634 44.1183C15.5255 44.1704 15.5048 43.0753 15.9353 43.5426C16.107 43.7311 16.2936 43.5749 16.1706 43.348C16.0748 43.161 16.2644 43.064 16.425 43.2177C16.8009 43.5916 16.8472 43.6151 16.8248 43.4513C16.8107 43.3304 16.8758 43.324 17.0905 43.4231C17.395 43.5639 17.6329 43.3746 17.4069 43.1735C17.3171 43.0914 17.3305 43.0508 17.4633 43.03C17.7318 42.9937 17.6988 42.9027 17.8547 43.2072C18.0597 43.5943 18.2127 43.1722 18.3822 43.49C18.5052 43.7303 18.7466 43.7079 18.5005 43.2406C18.2435 42.7519 18.6483 42.8885 18.5038 42.7131C18.392 42.5748 18.6816 42.3929 18.7882 42.6012C18.9304 42.879 19.1018 42.3193 19.2909 42.7955C19.4828 43.2906 19.9139 42.571 20.0099 42.8117C20.2072 43.3174 21.1195 42.8167 20.1655 42.3815C19.1544 41.9283 20.8106 42.2535 20.7925 42.4717C20.7847 42.5499 20.8389 42.5356 20.9253 42.4375C21.0414 42.3039 21.0605 42.3144 21.0232 42.4952C20.9753 42.7354 21.2152 43.0037 21.3775 42.8936C21.6697 42.6901 21.938 42.6269 22.0009 42.7498C22.0857 42.9154 22.6412 42.7591 22.7298 42.5451C22.8453 42.2635 23.25 42.3598 23.4032 42.6993C23.584 43.1191 23.6751 42.8432 23.5986 42.6937C23.5439 42.5868 23.6827 42.0304 23.9797 42.357C24.2468 42.6517 24.1964 42.273 24.5475 42.545C24.806 42.7429 25.1366 42.6546 25.1247 42.391C25.1188 42.2727 25.1432 42.267 25.2411 42.3382C25.4507 42.4938 25.8125 42.0794 25.8461 42.3453C25.8825 42.6166 26.9067 42.3079 26.9888 42.4682C27.038 42.5643 27.2928 42.5148 27.0421 42.2387C26.8758 42.0474 26.8839 42.023 27.1547 41.9113C27.3822 41.8218 27.4854 41.8499 27.6164 42.039C27.9657 42.5478 27.8873 41.9273 28.088 41.9324C28.1586 41.9367 28.1719 41.8693 28.1281 41.7838C27.8547 41.2631 28.6876 41.9289 28.4229 42.2261C28.2987 42.3706 28.3566 42.5904 28.5028 42.5156C28.741 42.3936 28.6781 41.5899 28.9989 41.7628C29.1512 41.8466 29.1782 41.8327 29.1938 41.663C29.2096 41.5335 29.242 41.5035 29.2884 41.5808C29.8209 42.4206 30.4556 41.7383 30.0167 41.8687C29.7674 41.9424 29.6279 41.6565 29.7895 41.385C29.927 41.1596 29.9814 41.1991 30.5107 41.9528C30.6363 42.1313 30.9127 42.0706 30.8143 41.8783C30.7104 41.6753 31.1083 41.4514 31.1391 41.6851C31.1671 41.9 31.4331 41.9391 31.3749 41.6385C31.3277 41.3728 31.7036 41.0792 31.7702 41.4496C31.8008 41.6295 31.8362 41.6586 31.8981 41.5527C32.0463 41.2948 32.5258 41.8044 32.3454 41.4653C32.2524 41.2837 32.3173 41.2235 32.5778 41.2385C32.9252 41.2629 32.5907 41.7442 33.0428 41.506C33.3487 41.3427 33.4741 41.4942 33.2009 41.6947C32.5193 42.192 33.6874 41.9243 33.965 41.4519C34.1293 41.1723 34.346 41.0748 34.2195 41.3351C34.0742 41.6387 34.3314 41.5003 34.6155 41.3076C34.7913 41.1839 34.7465 41.5102 35.0439 41.2501C35.1899 41.1215 35.3037 41.1036 35.4343 41.1851C35.6056 41.2929 35.6191 41.2792 35.5748 41.0458C35.5387 40.8552 35.563 40.8091 35.6718 40.8748C35.786 40.9377 35.8536 40.8963 35.9829 40.6683C36.2927 40.1254 36.4201 40.7613 36.6337 40.6048C37.0151 40.3219 36.8698 40.612 37.1145 40.7429C37.4163 40.9053 37.0295 40.537 37.2001 40.4429C37.2542 40.4152 37.9893 41.0636 37.948 40.2219C37.9304 39.9073 38.1633 39.8015 38.1998 40.0997C38.2251 40.3361 38.6041 40.1421 38.4299 39.9886C38.2774 39.851 38.3198 39.6 38.6493 39.8965C38.9787 40.1931 38.6789 39.8477 38.8572 39.6486C38.9571 39.5367 38.9734 39.5553 38.958 39.7655C38.9321 40.0753 39.1277 40.137 39.284 39.8683C39.4322 39.6238 39.7791 39.5272 39.7636 39.7373C39.7559 39.8289 39.802 39.8255 39.8803 39.7383C39.9667 39.6401 40.0129 39.6502 40.0269 39.7711C40.0831 40.2412 40.7047 38.9859 40.9371 39.4399C41.1285 39.8004 41.0024 38.8065 41.8365 39.1144C42.2413 39.2644 42.2915 38.9219 42.7964 39.0139C43.2417 39.0961 43.3169 38.9227 42.8959 38.7944C42.5808 38.6996 42.5809 38.6996 42.6747 38.4156C42.8917 37.745 43.0169 38.5101 43.6947 38.4192C43.8547 38.398 43.8843 38.3491 43.8132 38.2103C43.6847 37.9592 44.1644 37.8417 44.2063 38.1237C44.2815 38.6177 45.0883 37.5373 45.1539 37.652C45.2632 37.8522 45.5557 37.7429 45.5304 37.5065C45.5079 37.3157 45.8057 37.1767 45.9501 37.3118C46.0999 37.4576 46.2942 37.1964 46.4035 37.41C46.4883 37.5756 46.8191 37.5276 46.5925 37.1785C46.4669 36.9866 46.4775 36.9272 46.6483 36.887C46.8001 36.8497 46.8351 36.7846 46.7586 36.6485C46.6792 36.4936 46.7035 36.461 46.9016 36.4607C47.3058 36.4627 47.4031 36.3725 47.1556 36.2093C46.7829 35.9619 47.8726 35.7546 48.1277 35.7723C48.8008 35.8322 48.0313 35.4104 48.2323 34.7885C48.2993 34.5856 48.3128 34.5854 48.414 34.7831C48.5398 35.0288 48.7133 34.9939 48.6796 34.728C48.6516 34.4996 48.9034 34.3775 49.1155 34.5116C49.257 34.601 49.2867 34.579 49.3535 34.3223C49.4871 33.809 49.8758 33.9943 49.5121 33.2973C49.3426 32.9796 49.7002 32.8505 49.7228 33.0681C49.7536 33.3018 50.0058 33.2873 49.9238 33.127C49.8527 32.9881 50.127 32.3893 50.1663 32.7063C50.1999 32.9722 50.5028 32.7497 50.3832 32.6761C50.2118 32.5683 50.7701 32.4174 50.5737 32.1673C50.3828 31.9145 50.8889 31.6217 50.7768 31.4027C50.6647 31.1837 51.2674 30.6257 50.8964 30.7954C50.5363 30.9595 50.9302 30.4208 51.036 30.4273C51.1825 30.4332 51.0977 30.2407 50.9079 30.2704C50.3657 30.3593 51.3724 29.0821 51.0981 29.0001C50.9758 28.9615 50.6968 27.7358 51.5798 28.0456C52.0036 28.1927 51.8537 28.0334 52.0982 28.0971C52.4784 28.199 52.1138 28.6082 52.5149 28.5107C52.6369 28.4819 52.6909 28.4273 52.6338 28.3959C52.3347 28.2254 53.8728 27.5189 53.9193 27.6097C54.0505 27.8661 54.8243 27.3486 55.0881 27.5035C55.3491 27.653 55.5306 27.5803 55.4267 27.3773C55.3283 27.185 55.5632 26.9097 56.6171 27.2331L56.4345 27.0232C56.1129 26.662 56.6649 26.312 56.7273 26.3138C56.9172 26.3244 56.6823 25.9188 56.9124 25.7943C57.2129 25.6337 57.0308 26.2258 57.3069 26.0844C57.4964 25.9874 57.556 26.6378 57.7301 26.0835C57.8239 25.7861 58.0788 26.4174 58.2791 26.3149C58.4469 26.2289 57.9822 26.0286 58.2642 25.9921C58.5733 25.9552 58.1652 25.6653 58.7814 25.7476C59.3894 25.8273 59.4355 25.824 59.5325 25.653C59.6052 25.5281 59.5509 25.502 59.3122 25.5163C58.862 25.5446 58.6332 25.3381 59.01 25.2463C59.1997 25.2031 59.3241 25.099 59.3669 24.9557C59.4445 24.707 59.7806 24.6159 59.8059 24.8389C59.8144 24.9356 59.9366 24.9473 60.1289 24.8825C60.6869 24.6777 60.3216 24.231 60.8954 23.8969C61.2012 23.7201 61.2121 23.728 61.379 24.0673C61.472 24.2623 61.5653 24.5247 61.5767 24.6537C61.6159 24.9707 61.7063 23.839 61.8586 23.9229C62.0244 24.02 62.9371 23.6269 62.7195 23.4956C62.5727 23.409 62.7703 23.3011 62.9199 23.393C63.0939 23.4927 63.221 23.3805 63.1335 23.2095C63.0842 23.1134 63.1246 23.0455 63.2385 23.0277C63.5151 22.9939 63.5363 22.8618 63.7058 23.1795C63.9053 23.556 64.399 23.5325 64.3323 23.1486C64.3184 23.0681 64.2777 23.0552 64.2399 23.115C64.1483 23.2698 63.9586 22.6455 64.2187 22.5663C64.3136 22.538 64.3702 22.4618 64.3429 22.4084C64.2089 22.1466 65.108 22.4346 64.8784 21.9994C64.7389 21.727 64.8901 21.5417 65.0809 21.7542C65.4678 22.1763 65.4351 21.4717 65.7607 21.4938C66.1651 21.5227 66.2509 21.2766 66.3739 21.5169C66.4915 21.7466 67.3248 21.1852 67.1361 20.8166C67.0979 20.7418 67.1628 20.7086 67.35 20.7138C68.0066 20.7148 66.8521 20.3418 67.0202 19.6423C67.1029 19.2966 67.1409 19.3041 67.3107 19.7025C67.4504 20.0288 67.6282 19.7355 67.6619 20.0014C67.7011 20.3049 67.835 19.8723 68.0282 20.0229C68.118 20.0915 68.1397 20.0804 68.1392 19.9593C68.1298 19.6607 68.5345 19.7704 68.281 19.4889C68.0467 19.2314 68.619 19.2148 68.7232 19.4716C68.8383 19.7632 69.3556 19.559 69.195 19.4188C69.116 19.3446 69.1376 19.3066 69.265 19.2886C69.4006 19.2731 69.422 19.2082 69.3455 19.0586C69.1869 18.7623 68.6509 19.0367 69.1829 18.4475C69.4611 18.1365 69.7946 18.7478 69.7731 18.1453C69.7496 17.6855 70.1057 17.8739 69.9881 17.6443C69.8678 17.4092 70.2914 17.5025 70.2203 17.3636C70.1984 17.3209 70.2769 17.2605 70.3907 17.2292C70.5668 17.1862 70.5748 17.1349 70.4218 16.8896C70.2252 16.5723 70.3358 16.4146 70.5729 16.6775C70.8154 16.9376 70.9206 16.7826 70.7347 16.4328C70.2262 15.4662 71.165 15.498 70.9823 15.2881C70.8597 15.1554 70.8228 15.4035 70.7509 15.0897C70.6459 14.6042 71.4885 15.0087 71.1386 14.3385C70.7995 13.6896 71.3171 13.5392 71.0312 13.2744C70.8133 13.0758 71.0688 12.5068 70.9501 12.6889C70.818 12.8981 70.4311 12.4894 70.8128 12.2872C71.0403 12.1708 70.7293 11.7637 70.8398 11.5791C70.9287 11.4324 70.703 11.2985 70.5298 11.3872C70.2915 11.5092 70.1249 11.2237 70.3085 11.0084C70.5812 10.6867 69.7746 11.1401 69.7259 11.1651C69.4904 11.3058 69.283 11.0075 69.3057 11.2521C69.3255 11.4509 69.1306 11.5507 69.1054 11.3546C69.0745 11.1075 68.553 11.6105 68.1622 11.5813C67.6954 11.5506 67.8444 12.1485 67.4231 11.9529C67.0697 11.7833 66.6156 12.2045 66.2928 12.2012C66.2087 12.1971 66.1412 12.2923 66.1363 12.4162C66.1317 12.6073 66.1154 12.6156 66.0416 12.4849C65.9214 12.2767 65.5149 12.377 65.337 12.6568C65.2265 12.828 65.1777 12.853 65.0906 12.7762C64.7312 12.4479 63.2215 13.4769 62.3881 13.344C61.3973 13.1838 61.2063 14.2658 61.1473 13.7635C61.1109 13.4787 61.0583 13.8966 60.6128 13.7337C60.2677 13.607 60.135 13.6547 60.2471 13.8737C60.3236 14.0233 60.3155 14.0342 60.082 13.9785C59.0773 13.7378 57.4503 14.5909 56.9969 14.5062C56.6819 14.4517 56.5188 15.0273 56.2523 14.8806C56.0294 14.7521 56.2078 14.6068 55.9529 14.6428C55.6981 14.6789 55.9347 14.8207 55.7722 14.9039C55.6152 14.9843 55.7577 14.6619 55.5276 14.7864C55.3002 14.9029 55.6423 14.9704 55.488 15.0561C55.2552 15.1753 55.3857 14.5894 54.9401 15.0805C54.6916 15.356 53.4959 14.849 53.3847 15.5262C53.3503 15.7393 53.1496 15.7611 53.0457 15.5581C52.9746 15.4192 52.3332 15.8083 52.315 15.9996C52.2968 16.1909 51.6031 15.7303 51.4573 15.8859C51.3168 16.0387 50.6491 15.9491 50.4763 16.1454C50.2683 16.38 50.1547 15.7842 49.6199 16.3816C49.277 16.7661 49.3431 16.3615 48.9998 16.6653C48.6538 16.9773 48.0722 16.7087 47.9351 17.0283C47.8841 17.1556 47.7974 17.1865 47.6507 17.1402C47.4253 17.0736 46.8994 17.1676 47.0435 17.2488C47.1686 17.3196 45.5924 18.0052 45.4701 17.9397C45.3668 17.8847 44.8735 18.0024 44.4618 18.1727C44.1477 18.3066 43.0981 18.3788 43.5305 18.636C43.8323 18.8119 42.2703 18.2969 42.5382 18.8069C42.6367 18.9992 42.4418 19.099 42.3433 18.9067C42.2476 18.7198 42.1669 18.8959 41.6054 18.907C40.9978 18.9214 41.0858 19.2269 40.7464 19.1512C40.5781 19.116 40.5401 19.1354 40.5542 19.2563C40.5682 19.3637 40.514 19.378 40.3455 19.3025C40.1308 19.2034 40.1145 19.2117 40.1018 19.4272C40.0839 19.6858 39.8973 19.8286 39.8639 19.6165C39.8417 19.493 39.0624 19.3189 38.9053 19.3993C38.8025 19.452 39.0425 19.774 39.2299 19.8331C39.5097 19.9258 39.1249 20.0285 38.9367 19.7675C38.7293 19.4827 38.6301 19.756 38.5964 19.4766C38.5488 19.1167 37.8694 20.1656 37.7464 19.9387C37.648 19.7464 38.1344 19.2816 37.6256 19.596C37.1926 19.8581 36.9994 19.7076 37.0759 19.8437C37.2127 20.1108 36.3975 20.4674 36.2663 20.211C36.1705 20.0241 35.895 20.3 35.6205 20.191C35.3107 20.0665 35.1523 20.4779 35.0539 20.2991C34.9828 20.1602 34.8346 20.3911 34.9379 20.4596C35.0005 20.5017 34.7398 21.1003 34.4918 20.8295C34.0613 20.3623 34.3548 21.1626 34.3036 21.2495C34.2362 21.3581 34.1327 21.2493 34.0066 20.9363C33.9107 20.6956 33.7835 20.7809 33.7306 21.1181C33.6383 21.7519 33.598 21.1793 33.2286 21.0852C32.8348 20.9834 32.9076 21.5259 33.0598 21.6098C33.2285 21.7122 32.922 21.7276 32.7908 21.4846C32.6213 21.1669 32.3572 21.6122 32.0465 21.2589C31.7004 20.8631 31.8682 22.112 31.0874 21.5746C30.595 21.2401 30.2453 21.2911 30.4476 21.6729C30.6225 22.0013 29.436 22.42 29.0664 22.2587C28.9631 22.2172 28.9059 22.1588 28.9492 22.1366C28.9925 22.1145 28.8594 22.068 28.6476 22.0281C28.0368 21.9161 28.3797 22.1855 27.9655 22.4043C27.8085 22.4846 27.8059 22.5197 27.9499 22.5606C28.2487 22.6503 28.2328 22.7663 27.9155 22.7872C27.4789 22.8152 27.64 22.4091 27.3958 22.3993C27.1787 22.3891 27.5686 22.8569 27.4143 22.9426C27.2572 23.023 27.3241 22.7933 26.9907 22.8494C26.6843 22.9051 26.6185 22.7365 26.892 22.5898C27.3656 22.3271 26.1534 22.442 26.6494 22.9836C27.0472 23.4137 26.0065 22.9959 25.3325 23.3747C24.3419 23.9357 24.9196 23.2489 24.75 22.9043C24.6105 22.6184 23.558 23.2989 24.0743 23.5199C24.4738 23.6862 23.8557 23.8138 23.9624 24.0221C24.0226 24.1396 24.1579 24.0569 24.2168 23.8649C24.2784 23.6783 24.5175 23.7717 24.4994 23.9765C24.4684 24.3698 23.7465 24.3079 23.753 23.9068C23.7571 23.5811 23.0317 23.3121 23.0081 23.5196C22.9951 23.6409 22.9572 23.6603 22.8565 23.5972C22.6335 23.4687 22.4368 23.7784 22.6004 24.0047C22.8078 24.2896 22.5858 24.4167 22.3568 24.1429C22.1169 23.8478 21.4222 23.7989 21.3237 24.2606C21.2332 24.6845 21.2884 24.245 20.6772 24.7197C20.285 25.0215 20.2606 25.0273 20.276 24.8037C20.2863 24.6636 20.343 24.5874 20.4217 24.6078C20.7857 24.7181 20.7723 24.0912 20.4725 24.4267C20.4077 24.5003 20.3345 24.5041 20.2963 24.4428C20.2607 24.3733 20.2093 24.4198 20.1611 24.5659C20.0539 24.8904 19.101 25.3917 18.905 25.2224C18.8233 25.1564 18.7202 25.1552 18.6717 25.2205C18.5286 25.4083 18.8928 24.8916 18.602 24.7775C18.0586 24.5569 18.4645 24.976 18.2125 25.0578C17.6219 25.2523 17.9763 25.6911 17.7472 26.0443C17.6097 26.2563 17.5448 26.303 17.5308 26.1956C17.5196 26.107 17.4055 26.071 17.2483 26.111C16.9583 26.1853 16.4847 25.8075 16.6495 25.6355C16.8332 25.4471 16.6349 25.3666 16.4267 25.5473C16.2429 25.7088 16.1913 25.7015 16.0765 25.4772C15.8495 25.0473 15.662 25.6422 15.5554 25.4338C15.4542 25.2362 15.2354 25.4763 15.2529 25.7774C15.274 26.2857 14.6905 26.2272 15.0465 26.3752C15.3209 26.4842 14.5356 26.8323 14.2622 26.325C14.1283 26.0768 13.9502 26.3028 14.0787 26.5538C14.2674 26.9224 13.7605 27.0268 13.6456 26.8025C13.5116 26.5408 12.9675 26.8261 13.353 26.8849C13.7113 26.9442 13.8083 27.454 14.1115 27.2988C14.2956 27.2046 14.3941 27.3969 14.21 27.4911C13.988 27.6048 13.7913 27.9279 13.8067 27.7313C13.817 27.5912 13.4283 27.3924 13.4134 27.7371C13.3908 28.1869 13.0523 27.6591 12.8694 28.0628C12.6678 28.5098 12.6373 27.6895 13.0407 27.4762C13.2464 27.3709 13.2778 27.0717 13.0424 27.2259C12.8638 27.3443 12.3144 27.6728 12.468 27.4121C12.6027 27.1814 12.2576 27.0546 12.191 27.3516C12.0525 27.9888 11.787 27.39 11.5216 27.5258C11.4133 27.5812 11.3623 27.695 11.406 27.7805C11.4607 27.8873 11.4094 27.9473 11.2332 27.9903C10.9514 28.0537 11.1566 27.8273 11.5954 28.9779C10.2649 28.6883 11.1169 28.7375 10.8038 28.4596C10.5207 28.2135 10.451 29.0919 10.1192 28.8977C9.87446 28.7533 9.62812 28.8862 9.67253 29.1331C9.71147 29.3693 9.60613 29.4839 9.4321 29.3843C9.24719 29.2767 9.18888 29.6166 8.96836 29.4262C8.76693 29.2596 8.66214 29.5088 8.78722 29.5796C8.9531 29.6767 8.98733 30.0906 8.83846 30.1736C8.76265 30.2124 8.73333 30.342 8.76642 30.4733C8.82166 30.7147 8.59676 30.7827 8.4765 30.5611C8.39993 30.4115 8.32982 30.5148 7.8005 31.1094C8.95355 33.1348 8.28997 32.0656 8.06256 32.182C7.78642 32.3233 7.87547 31.5362 7.82674 31.5611C7.55601 31.6997 7.81715 32.5436 7.7955 32.5547C7.31869 32.7178 7.73479 32.97 7.49386 33.1001C7.2827 33.2082 7.53253 33.269 7.18375 33.5622C7.01611 33.702 6.95437 33.8617 6.99304 34.0306C7.04548 34.2532 6.99692 34.3185 6.62867 34.4936C5.93823 34.8268 6.6146 35.0401 6.38178 35.1593C6.32763 35.187 6.32806 35.2946 6.38275 35.4015C6.64248 35.8955 5.65552 35.3558 5.72901 36.0867C5.77145 36.5167 5.659 36.2169 5.29005 36.217C4.95363 36.214 4.49196 37.4346 5.05213 37.0871C5.74487 36.6516 5.18458 37.6396 5.14126 37.6617C4.99507 37.7366 5.11916 38.2326 4.91883 38.3352C4.70224 38.446 5.06134 38.6936 4.89891 38.7768C4.7094 38.8738 5.15251 39.0987 4.83825 39.2056C4.60252 39.2791 4.73357 39.4817 4.82944 39.709C4.90612 39.8855 4.40196 39.9952 4.49767 40.1822C4.61525 40.4119 4.91475 40.0091 4.8401 40.3305C4.81078 40.4601 4.84633 40.5296 4.96042 40.5655C5.156 40.6272 5.15698 40.8694 4.96205 40.9692C4.7563 41.0745 4.99804 41.1463 4.75487 41.3921C4.50088 41.6435 4.86441 41.6461 4.82284 42.0989C4.79954 42.3737 4.81316 42.387 5.03269 42.3353C5.25764 42.2808 5.26585 42.2968 5.20442 42.5372C5.06812 43.0452 5.62604 42.8135 5.3674 43.256C5.22202 43.5327 5.31068 43.9862 5.80116 43.8497Z" fill="#FFC570" fill-opacity="0.83"/>
</svg>
