<svg width="207" height="197" viewBox="0 0 207 197" fill="none" xmlns="http://www.w3.org/2000/svg">
<path d="M52.8371 153.872C72.8799 176.668 113.315 162.546 131.027 152.635C157.466 142.084 176.44 135.258 189.058 105.617C201.677 75.9758 171.632 43.2077 134.244 30.4977C96.8563 17.7876 38.1211 49.5139 27.5896 67.7126C17.058 85.9112 27.7837 125.378 52.8371 153.872Z" fill="#FF7979" fill-opacity="0.4"/>
<path d="M141.643 46.846C144.324 47.0823 147.015 47.2335 149.675 47.5785C152.542 47.9471 155.363 48.6654 158.235 48.9395C163.674 49.4594 169.041 50.5794 174.563 50.414C180.966 50.2202 185.835 47.2477 187.468 41.8696C188.697 37.829 187.11 34.0814 184.622 30.8064C181.412 26.5721 176.575 24.5399 171.187 23.4435C167.252 22.6401 163.26 22.6638 159.267 22.4369C153.647 22.1156 148.026 21.8651 142.411 22.0683C127.473 22.6212 112.519 22.4747 97.571 22.5173C94.1749 22.5267 92.3497 24.521 90.8046 26.9832C88.881 30.0456 89.9491 32.8149 91.9349 35.2204C94.04 37.7723 97.2807 38.8829 100.682 39.5256C106.225 40.5653 111.57 39.3366 117.03 38.6797C124.937 37.7251 132.736 38.1268 138.802 44.001C143.214 48.2732 145.47 53.3771 144.661 59.119C143.557 66.9734 138.786 72.5924 130.49 75.4232C125.736 77.0442 120.727 77.701 115.718 78.2681C104.306 79.5583 94.1697 82.8286 88.518 92.9325C85.8633 97.6772 84.3804 102.758 83.5405 108.041C82.379 115.338 81.7983 122.668 82.0835 130.021C82.2909 135.432 82.6435 140.923 84.6604 146.075C87.704 153.839 93.9571 158.995 101.999 162.365C109.154 165.361 116.709 167.1 124.528 168.14C130.428 168.924 136.298 169.435 142.157 168.485C147.316 167.648 152.625 167.029 156.986 163.858C157.743 163.305 159.013 163.178 160.06 163.13C168.875 162.738 175.641 158.631 181.547 153.154C187.333 147.79 190.693 141.07 191.818 133.787C193.504 122.899 192.135 112.304 184.648 103.112C181.63 99.4069 177.176 97.8993 172.25 97.1338C166.158 96.1886 160.309 97.5024 154.347 98.0789C139.372 99.5298 124.875 103.055 110.29 106.193C108.221 106.637 106.137 107.417 104.073 107.049C98.6702 106.089 96.8348 103.419 97.2236 98.6082C97.3844 96.6045 97.6903 94.4589 97.9236 92.4363C98.2658 89.4826 99.1473 86.5006 98.6184 83.476" stroke="#222222" stroke-width="1.5" stroke-miterlimit="10" stroke-linecap="round" stroke-linejoin="round"/>
<path d="M99.1265 84.1802C103.42 86.4013 108.091 87.7718 112.887 88.5657C114.63 88.854 116.46 89.1754 118.311 89.1707C132.051 89.1234 145.802 89.4022 159.526 89.0383C166.692 88.8493 173.946 88.6744 180.826 85.9145C187.411 83.2728 193.441 76.3447 192.975 70.0073C192.632 65.3854 190.195 62.0915 185.736 59.8089C181.583 57.6823 177.134 56.8695 172.494 56.5339C164.644 55.9668 156.783 55.6407 148.902 55.5179C147.565 55.499 146.159 55.102 144.754 55.1209" stroke="#222222" stroke-width="1.5" stroke-miterlimit="10" stroke-linecap="round" stroke-linejoin="round"/>
<path d="M160.569 162.866C163.078 160.181 166.547 158.485 168.937 155.593C172.551 151.221 174.915 146.59 175.952 141.141C177.803 131.387 170.394 120.579 162.409 117.446C149.353 112.323 134.229 117.559 129.168 130.484C123.548 144.841 133.773 158.343 148.099 162.464C150.992 163.296 153.999 162.903 156.809 163.811" stroke="#222222" stroke-width="1.5" stroke-miterlimit="10" stroke-linecap="round" stroke-linejoin="round"/>
<path d="M139.829 45.9008C137.625 46.7845 135.427 45.8346 133.379 45.5085C131.481 45.2108 129.511 45.0927 127.624 44.8469C123.367 44.2845 119.011 43.897 114.682 44.2656C105.079 45.0879 96.3426 47.5548 90.3021 55.1115C84.4483 62.4318 85.3349 70.1397 90.5666 77.0961C92.3968 79.5299 94.9738 81.2738 97.3122 83.2397" stroke="#222222" stroke-width="1.5" stroke-miterlimit="10" stroke-linecap="round" stroke-linejoin="round"/>
<path d="M144.236 54.8799C141.545 55.0973 138.854 55.5699 136.194 54.6578C135.893 54.5538 135.509 54.6294 135.162 54.6483C128.406 55.0027 121.692 53.8591 114.941 54.1852C106.52 54.5916 102.595 58.2305 101.221 65.0452C100.34 69.4119 99.9198 73.8353 99.5931 78.2728C99.4946 79.615 98.8154 80.9193 99.3857 82.2945" stroke="#222222" stroke-width="1.5" stroke-miterlimit="10" stroke-linecap="round" stroke-linejoin="round"/>
</svg>
