<svg width="185" height="135" viewBox="0 0 185 135" fill="none" xmlns="http://www.w3.org/2000/svg">
<path d="M111.267 129.005C112.026 123.351 116.412 121.704 120.389 120.383C127.773 117.924 135.309 115.853 142.891 114.122C153.326 111.739 163.973 110.859 174.682 111.36C179.121 111.565 180.912 115.352 181.982 118.653C183.508 123.32 183.925 128.344 184.95 133.968C160.042 132.291 135.81 130.659 111.267 129.005Z" fill="#FF4D4D" fill-opacity="0.4"/>
<path d="M85.4711 87.53C93.3107 82.2404 100.945 78.461 109.901 78.1802C116.943 77.9601 123.994 77.8994 131.036 77.5731C136.166 77.3302 141.282 76.7838 146.404 76.3436C149.69 76.0628 153.242 75.7213 155.063 79.0909C158.585 85.6024 158.365 89.7916 154.798 93.3281C154.13 93.9883 153.083 94.7321 152.255 94.679C142.473 94.1022 132.668 93.6696 122.931 92.6071C112.276 91.446 101.689 89.6701 91.0719 88.1751C89.4554 87.9626 87.8238 87.8032 85.4711 87.53Z" fill="#FF4D4D" fill-opacity="0.4"/>
<path d="M84.4241 135C75.8408 134.651 67.7887 134.522 59.7594 133.937C54.2725 133.535 48.6262 133.285 44.4977 128.58C41.0371 124.633 41.796 122.045 45.0138 118.319C48.2695 114.547 52.0413 113.098 56.4126 112.847C64.1308 112.407 71.8793 112.407 79.6202 112.445C80.8041 112.453 82.2839 113.416 83.1112 114.38C87.4294 119.442 87.8771 129.407 84.4241 135Z" fill="#FF4D4D" fill-opacity="0.4"/>
<path d="M145.471 54.1454C136.182 54.1454 127.234 54.7298 118.4 53.9785C109.771 53.2423 101.249 51.216 92.7187 49.5692C91.4665 49.3263 89.334 47.6036 89.4326 47.3759C90.2371 45.5697 91.1326 43.0122 92.6504 42.4658C96.9458 40.9024 101.492 39.802 106.038 39.2176C111.821 38.4663 117.695 38.1703 123.531 38.0944C131.628 37.9882 138.337 40.6292 142.01 48.5978C142.89 50.5178 144.249 52.2178 145.471 54.1454Z" fill="#FF4D4D" fill-opacity="0.4"/>
<path d="M76.6605 30.3384C76.6833 32.4558 76.3646 33.9053 73.678 33.5258C64.1992 32.1977 54.6824 31.0745 45.2264 29.6023C41.6443 29.0407 38.0471 28.0313 34.7306 26.5894C33.6302 26.1113 32.4159 23.1136 32.9244 22.2105C35.1404 18.3097 38.6239 15.8204 43.2608 15.0463C46.9415 14.4316 50.6299 13.6879 54.1967 12.595C59.3649 11.0089 64.5331 11.5174 69.2156 13.445C71.4848 14.3785 73.3289 17.49 74.3535 20.0248C75.6588 23.2502 75.932 26.8854 76.6605 30.3384Z" fill="#FF4D4D" fill-opacity="0.4"/>
<path d="M29.5246 83.3029C20.5163 81.6712 11.4928 80.0927 2.49972 78.3699C-0.285489 77.8387 -0.460038 75.0383 0.602439 73.6647C4.22245 68.9974 8.34335 64.7171 12.3428 60.3458C12.8057 59.8373 13.6481 59.4275 14.3388 59.3971C18.4065 59.2453 22.5122 58.957 26.5497 59.2985C28.0068 59.4275 29.904 60.9074 30.5719 62.2658C31.9455 65.0586 32.4768 68.2536 33.6455 71.1603C34.5638 73.4446 35.9298 75.5544 37.0606 77.7552C37.4856 78.5748 38.3583 79.7739 38.0927 80.2065C37.5084 81.1324 36.3852 82.0962 35.3454 82.2859C33.5165 82.6198 31.5812 82.377 29.6916 82.377C29.6233 82.6957 29.5777 82.9993 29.5246 83.3029Z" fill="#FF4D4D" fill-opacity="0.4"/>
<path d="M101.538 9.57454C103.306 3.53359 108.277 2.73674 112.307 2.10684C120.723 0.786333 129.306 0.330981 137.837 0.027415C145.008 -0.230616 146.101 1.24168 145.76 8.39063C145.714 9.3924 145.555 10.3866 145.38 11.9803C130.779 11.1758 116.276 10.3866 101.538 9.57454Z" fill="#FF4D4D" fill-opacity="0.4"/>
</svg>
