<svg width="66" height="45" viewBox="0 0 66 45" fill="none" xmlns="http://www.w3.org/2000/svg">
<path d="M3.99781 27.7214C4.59108 28.4782 5.09006 28.4713 5.04421 28.6797C5.00489 28.8646 5.41175 28.7519 5.47138 28.9328C5.61839 29.3569 7.62654 29.5399 7.89642 29.8806C8.2027 30.2665 8.69493 29.6961 8.67421 30.1111C8.65591 30.4465 9.79696 30.0846 9.87363 30.3172C9.929 30.4851 10.2012 30.1161 10.3493 30.2176C10.6497 30.4337 12.6454 30.4488 12.7443 30.4879C13.0922 30.6309 12.879 30.0496 13.4003 30.4577C13.8723 30.8249 13.7531 30.4417 14.2235 30.6303C14.4211 30.7084 14.462 30.7021 14.359 30.6071C14.2604 30.5251 14.2691 30.4864 14.3701 30.5104C14.7183 30.5889 14.4053 30.9213 15.0362 30.7061C15.6864 30.4846 16.1149 31.0021 16.3564 30.8008C16.529 30.6508 16.8361 30.7787 16.9213 31.037C17.0341 31.3794 19.0618 32.1646 19.4165 32.2195C20.0205 32.3139 19.6795 32.0397 20.0142 32.2731C20.3597 32.5172 20.3268 32.0698 20.7646 32.3551C21.2453 32.6621 21.7025 32.2678 21.661 32.4677C21.6348 32.6053 21.9379 32.6557 21.8909 32.5351C21.8505 32.4124 22.6708 32.1205 22.6403 32.2666C22.601 32.4299 22.7669 32.3466 23.1693 32.264C23.6988 32.1539 23.7986 32.5435 23.9497 32.372C24.008 32.3098 24.152 32.3339 24.285 32.4333C24.7012 32.74 25.0859 32.1692 25.429 32.4929C25.5319 32.5879 25.6651 32.6227 25.7105 32.5648C25.8271 32.419 25.9145 32.6408 25.7441 32.7972C25.4831 33.0265 26.0574 33.0305 26.4775 32.8061C26.7576 32.6564 26.9685 32.6227 27.1403 32.6878C27.5097 32.831 28.8202 32.6352 28.8496 32.8547C28.8726 33.0333 29.1225 32.9223 29.192 32.6988C29.2203 32.6107 29.259 32.6195 29.2888 32.7099C29.3718 32.9618 29.3925 32.5468 30.1099 32.8545C31.13 33.2988 30.4332 32.6405 30.7282 32.5361C30.9994 32.4466 31.1163 32.8879 31.3036 32.8262C31.4909 32.7644 31.8988 33.0023 31.8638 33.157C31.8464 33.2344 31.9345 33.2627 32.0766 33.2158C32.4297 33.0922 31.9741 32.9918 32.4047 32.8427C32.8159 32.6999 32.7074 33.0007 32.9787 32.9112C33.0821 32.8771 33.3035 32.8972 33.456 32.9687C33.6214 33.0359 33.9741 33.0199 34.2949 32.9284C35.3325 32.6221 35.0936 33.3311 35.8991 32.9939C36.6163 32.693 36.7046 33.3084 36.8859 33.0982C36.9269 33.0489 37.0215 33.075 37.0922 33.1591C37.2571 33.3553 37.5909 33.2381 37.5164 33.0121C37.4397 32.7796 37.668 32.69 37.7575 32.9398C37.8639 33.2627 38.5415 32.581 38.4631 32.8646C38.3979 33.101 39.0523 32.8924 39.112 33.0732C39.1311 33.1314 39.3011 33.1255 39.5013 33.0594C39.919 32.9146 40.9926 33.4557 40.5344 32.8262C40.0141 32.117 41.5112 33.3779 41.788 32.8927C41.9005 32.6909 41.9824 32.6353 42.0725 32.713C42.3149 32.9052 42.3839 32.2021 42.622 32.4029C42.8493 32.5929 43.0768 32.0883 43.4479 32.3884C43.7889 32.6627 43.7664 32.312 43.953 32.4654C44.2125 32.6877 44.5138 31.994 44.6778 32.4699C44.7715 32.7541 44.9673 32.7182 45.1254 32.3939C45.3138 32.0096 46.4029 31.7507 46.5072 32.0672C46.6926 32.6077 47.0771 31.4282 47.2433 31.9105C47.3221 32.1495 47.8394 31.807 48.0732 31.9949C48.189 32.0856 48.2449 32.0815 48.2776 31.9633C48.3385 31.7356 49.0152 31.3334 49.0684 31.4949C49.1195 31.6499 49.4293 31.6337 49.1873 31.3125C48.8619 30.8684 50.2512 31.5203 50.0979 31.0552C50.0425 30.8873 50.707 30.926 50.6409 30.7258C50.5856 30.5579 50.8117 30.4618 50.8906 30.6793C51.0994 31.2908 51.6191 30.1956 51.5601 30.4944C51.5141 30.7459 51.8549 30.433 51.8102 30.2973C51.7356 30.0713 51.9656 30.1387 52.0637 30.3713C52.2238 30.7482 52.3507 30.7422 52.4961 30.3577C52.7543 29.6423 53.4876 30.3243 53.7877 29.9748C54.036 29.6852 54.4065 30.1789 54.55 29.702C54.6087 29.5107 54.6604 29.4722 54.7612 29.5607C54.9285 29.6989 55.1683 29.3835 55.0873 29.1381C55.0171 28.925 55.3339 28.7131 55.3786 28.8487C55.4255 28.9908 55.785 28.8866 55.7232 28.6993C55.6977 28.6218 55.7794 28.6306 55.9253 28.7258C56.1678 28.8965 56.1786 28.8857 56.3455 28.4798C56.649 27.7496 57.7592 28.2715 57.2467 27.8031C57.0516 27.624 57.0538 27.6089 57.3031 27.6485C57.7352 27.7208 57.8839 27.6288 57.7255 27.3875C57.6399 27.2581 57.6489 27.1549 57.7307 27.1208C57.8793 27.0718 58.2138 28.0214 58.5602 27.3128C58.7183 26.9885 60.0366 26.3605 60.0437 26.1433C60.0511 25.8616 60.2654 26.0989 60.4427 25.8113C60.5076 25.7039 60.5766 25.6526 60.5915 25.6978C60.6064 25.743 60.6754 25.6916 60.751 25.5735C60.911 25.3203 61.882 25.6805 61.5503 25.174C61.4347 24.9973 61.4563 24.9543 61.6865 24.9357C62.091 24.9026 62.282 23.701 62.0428 23.8443C61.8467 23.9663 61.6409 23.7548 62.1188 23.6188C62.4267 23.5316 62.4591 23.4779 62.3568 23.1894C62.2332 22.8363 62.3417 22.557 62.5195 22.7705C62.6866 22.9732 62.8392 22.3285 62.7213 22.2314C62.5819 22.1126 63.0567 21.598 62.9972 21.3741C62.9123 21.0297 62.782 20.7648 63.0028 20.3053C63.3364 19.6009 62.5351 19.2993 62.878 19.0144C63.0182 18.8966 63.0162 18.8686 62.8271 18.8164C62.6831 18.7708 62.651 18.7169 62.7373 18.6526C62.9163 18.5005 62.5919 18.3855 62.7456 18.0698C62.8647 17.8229 62.5802 17.351 62.3627 17.4298C62.2982 17.4511 62.2231 17.3971 62.1932 17.3067C62.0484 16.889 61.4217 18.4634 61.0488 17.3976C60.8144 16.7301 60.7037 17.6975 60.4184 17.4622C60.1546 17.2484 59.94 17.7488 59.6805 17.5264C58.8033 16.7773 57.7378 17.7158 57.7614 17.0922C57.7755 16.7223 56.8764 16.7323 57.5434 16.6484C57.935 16.5981 57.9438 16.5594 57.6436 16.2788C57.4785 16.1256 57.4786 16.0826 57.6853 16.0144C58.3097 15.8014 57.3896 15.6822 57.4057 15.3618C57.4173 15.093 56.7728 14.8974 56.8142 14.719C56.8492 14.5428 56.5979 14.4538 56.4997 14.1996C56.423 13.9886 55.3459 13.8711 55.06 13.8293C55.6566 13.5753 56.0335 13.4153 56.0079 13.3378C55.9781 13.2473 54.899 13.0804 54.3027 13.2483C53.9023 13.3588 54.0392 12.927 53.699 13.0463C52.7387 13.3701 53.1374 12.4724 52.6825 12.8086C52.2556 13.1212 52.6156 12.2363 52.228 12.364C51.9438 12.4577 52.0591 12.7205 51.8528 12.6811C51.7754 12.6637 51.7326 12.599 51.7479 12.5152C51.7654 12.4378 51.6475 12.2976 51.4994 12.2176C50.9219 11.8995 51.4955 11.4454 50.7719 11.7485C50.1796 11.9939 50.0472 11.7224 49.8982 11.9005C49.7492 12.0785 49.7378 11.6311 49.559 11.6972C49.32 11.776 49.4339 11.1441 49.0611 11.3816C48.9189 11.4714 48.8307 11.4647 48.788 11.357C48.7263 11.1697 48.5283 11.1992 48.476 11.4098C48.3386 11.9921 48.1073 11.0515 47.7149 11.3385C47.5252 11.4798 47.4865 11.471 47.4935 11.2969C47.4984 11.1162 45.3707 10.6576 45.9712 11.1973C46.2349 11.4325 46.2327 11.4476 45.9721 11.5693C45.6469 11.7124 45.762 11.3665 45.3514 11.2941C44.8119 11.1999 45.0918 10.4631 44.3114 11.0069C43.7122 11.4264 41.9256 9.91725 41.9131 10.4441C41.9083 10.6033 41.8651 10.6461 41.775 10.5684C41.5777 10.4043 41.3213 10.539 41.4217 10.7565C41.5349 11.0128 41.2052 11.2075 41.2424 11.0162C41.3013 10.7389 40.4757 10.6674 40.7067 10.3907C41.0457 9.98534 39.9455 10.3624 39.7224 10.1853C39.6151 10.099 39.5569 10.1396 39.453 10.3458C39.1542 10.9599 38.9755 11.026 38.4044 10.7273C37.7989 10.4113 37.6462 10.4044 37.8646 10.6976C38.0745 10.9864 37.7644 11.0887 37.3458 10.8615C36.8584 10.5997 36.9346 10.9827 36.46 10.7596C35.9554 10.5322 35.7533 11.1574 35.472 10.3693C35.3335 9.97095 35.169 10.2973 34.7932 10.1133C34.527 9.97908 34.1046 10.2186 34.1878 10.449C34.3944 11.054 33.3742 10.6313 33.4396 10.3519C33.4592 10.281 33.4185 10.2443 33.3474 10.2677C33.1537 10.3316 33.3746 10.5237 33.1872 10.5855C32.9483 10.6643 33.0704 10.1442 32.7663 10.3948C32.4579 10.6541 32.2513 10.0491 31.8178 10.4283C31.5395 10.6704 30.3006 11.3654 30.1302 10.8701C30.0876 10.741 30.0468 10.7258 30.0163 10.8289C29.9553 11.0567 29.5433 11.4575 29.5007 11.3283C29.4453 11.1604 28.9674 11.2965 28.8843 11.0661C28.75 10.6807 28.2898 11.3265 28.4143 11.4215C28.6202 11.59 27.628 11.7954 27.4725 11.3454C27.3468 10.9858 26.9574 11.021 27.1772 11.5358C27.4248 12.113 26.911 12.0532 27.1274 12.3185C27.5515 12.8446 26.2077 12.0703 26.1289 11.8313C26.0586 11.6182 25.8883 11.7316 26.2117 12.1477C26.5608 12.5984 26.1626 12.6938 26.1243 12.5776C26.0604 12.3838 25.6467 12.6061 25.6266 12.8491C25.6109 13.0405 25.5701 13.0253 25.4118 12.7624C24.9904 12.0491 25.6894 12.0622 25.617 11.8425C25.4891 11.4765 25.0671 12.2816 24.9811 12.2598C24.8973 12.2445 24.4664 12.4797 24.8218 12.9927C25.2713 13.6394 24.6557 13.7922 24.4777 12.9701C24.1493 11.4528 23.0597 13.187 22.3821 11.9137C22.3436 11.8404 22.2264 12.1584 22.0159 12.7362C20.9255 12.1003 20.8295 12.5043 21.0158 12.7652C21.2491 13.0821 20.7677 12.9902 20.8358 13.1969C20.8827 13.339 20.5019 13.3786 20.4018 13.075C20.2932 12.7456 19.7309 13.0384 19.7799 13.1655C19.8311 13.3205 19.4844 13.442 19.4226 13.2761C19.3991 13.2051 19.3067 13.2069 19.229 13.2755C19.1449 13.3462 18.9256 13.3326 18.7366 13.2373C18.1139 12.9342 18.5442 13.5443 17.9375 13.5939C17.3309 13.6435 17.994 14.0909 17.0595 14.4276C16.1702 14.7495 15.8985 14.2948 15.82 14.643C15.7479 14.9675 14.7032 14.8178 14.7692 15.0181C14.7969 15.102 14.5996 15.5681 13.8347 15.3548C12.6121 15.0131 13.4121 15.6803 12.7386 15.7878C12.3706 15.8447 11.9697 16.7789 11.797 16.3202C11.6584 15.9434 11.8784 16.4151 11.0037 16.8682C10.2756 17.2444 10.4664 17.4321 10.0507 17.605C8.99114 18.0402 10.0303 18.5856 9.47695 18.7752C9.05278 18.9222 9.4216 19.2589 8.84822 18.9968C7.8711 18.5527 7.72557 20.3051 7.47061 20.0096C7.25205 19.7594 7.14815 19.9655 7.28231 20.3725C7.41016 20.7385 7.39276 20.7943 7.16691 20.8044C6.95397 20.8101 6.93012 20.8681 7.01531 21.1265C7.10901 21.4107 7.0831 21.4407 6.74744 21.4869C6.35585 21.5373 6.04576 22.3126 5.86376 22.0647C5.71385 21.8707 5.15299 22.385 5.26841 22.6047C5.43728 22.9215 4.29032 23.1134 4.46281 23.6366C4.63744 24.1662 2.35294 25.6212 3.99781 27.7214Z" fill="#FFC570" fill-opacity="0.83"/>
</svg>
