<svg width="212" height="218" viewBox="0 0 212 218" fill="none" xmlns="http://www.w3.org/2000/svg">
<path d="M31.2098 120.658C32.5736 150.981 72.9482 165.276 92.9651 168.632C120.189 176.952 139.259 183.504 167.652 168.284C196.046 153.065 193.124 108.704 171.92 75.3902C150.716 42.0765 85.0504 30.0578 65.4463 37.6593C45.8422 45.2609 29.5051 82.7544 31.2098 120.658Z" fill="#F2AABB" fill-opacity="0.61"/>
<path d="M141.399 167.74C135.388 166.749 129.32 166.118 123.35 164.865C119.941 164.147 116.455 163.515 113.327 162.027C107.542 159.275 104.858 154.152 103.698 148.107C102.037 139.451 101.47 130.697 101.259 121.9C101.074 114.271 101.457 106.629 100.888 99.0098C100.118 88.7238 99.6768 78.4293 100.442 68.1312C100.695 64.7358 101.064 61.2285 102.383 58.0915C104.796 52.348 110.174 50.5556 115.654 49.1212C115.969 49.0388 116.362 49.2703 116.717 49.3579" stroke="#2C292F" stroke-width="1.5" stroke-miterlimit="10" stroke-linecap="round" stroke-linejoin="round"/>
<path d="M168.439 134.937C168.392 137.093 168.259 139.246 168.367 141.412C168.53 144.691 169.917 146.442 173.157 146.761C177.817 147.224 182.481 148.044 187.177 147.524C191.503 147.045 195.683 146.128 198.443 142.19C199.59 140.557 199.887 138.639 200.287 136.842C201.056 133.399 201.742 129.856 201.792 126.345C201.902 118.278 202.155 110.204 201.193 102.133C200.745 98.3861 201.276 94.527 201.337 90.7139C201.41 86.2841 201.283 81.8722 200.363 77.5106C199.541 73.6191 197.605 72.7261 193.601 73.0324C189.433 73.3451 185.279 74.4957 181.045 73.7225" stroke="#2C292F" stroke-width="1.5" stroke-miterlimit="10" stroke-linecap="round" stroke-linejoin="round"/>
<path d="M141.399 167.739C143.717 163.166 142.858 161.936 142.507 156.989C142.218 152.959 141.946 148.93 141.792 144.884C141.587 139.51 140.923 134.149 139.985 128.82C139.425 125.634 139.388 122.339 139.254 119.092C139.097 115.426 139.201 111.744 138.993 108.08C138.812 104.922 136.974 102.751 134.086 101.647C128.476 99.5024 123.22 96.7331 118.182 93.4718C115.745 91.8941 114.742 89.9376 114.728 87.0409C114.702 81.8518 114.07 76.6558 114.186 71.4766C114.29 66.8107 114.952 62.1454 115.565 57.5083C116.042 53.9147 116.897 50.375 117.451 46.7888C117.982 43.3441 120.136 41.1554 123.167 40.1887C128.157 38.5966 133.251 37.2893 138.603 37.4598C140.222 37.5115 141.748 37.9695 143.328 38.1577C144.821 38.3338 145.872 39.0836 146.296 40.8098C147.386 45.2558 148.129 49.7268 148.617 54.2827C148.894 56.892 148.699 59.487 148.976 62.0964C149.328 65.4037 148.16 68.6719 147.609 71.9561C146.997 75.5961 146.363 79.2353 145.892 82.8939C145.529 85.7195 148.027 88.7844 151.453 89.3182C156.154 90.0498 160.938 90.9097 165.683 89.8949C169.735 89.0294 173.202 87.2427 175.35 83.2497C176.494 81.1286 178.263 79.2957 179.38 77.1002C181.087 73.7543 182.032 70.2527 182.033 66.4199C182.037 61.4564 182.023 56.4923 181.949 51.5257C181.875 46.5418 177.96 42.4535 173.006 42.0745C166.807 41.5983 160.711 42.4167 154.583 43.0785C150.474 43.5188 146.326 43.651 142.223 44.1563C139.003 44.55 135.814 45.2385 132.635 45.9058C127.654 46.9543 122.689 48.0683 117.606 48.5301" stroke="#2C292F" stroke-width="1.5" stroke-miterlimit="10" stroke-linecap="round" stroke-linejoin="round"/>
<path d="M142.271 167.559C148.56 168.707 154.881 168.869 161.266 168.602C164.974 168.447 168.579 167.957 172.132 167.011C178.291 165.366 182.547 158.535 182.872 152.993C183.084 149.402 183.594 145.853 183.354 142.213C183.097 138.362 182.381 136.801 178.788 135.591C175.464 134.475 172 134.026 168.513 133.515C163.233 132.748 158 132.871 152.735 133.037C150.284 133.111 143.371 135.218 141.118 136.414" stroke="#2C292F" stroke-width="1.5" stroke-miterlimit="10" stroke-linecap="round" stroke-linejoin="round"/>
<path d="M166.782 89.7662C167.212 90.4654 166.918 91.2133 166.894 91.9288C166.761 95.8124 166.701 99.6946 166.862 103.581C167.08 108.834 168.354 128.26 168.508 133.519" stroke="#2C292F" stroke-width="1.5" stroke-miterlimit="10" stroke-linecap="round" stroke-linejoin="round"/>
<path d="M167.033 88.9131C166.931 86.3711 167.356 83.8631 167.813 81.3995C168.431 78.0618 169.987 75.4824 173.851 74.8857C176.027 74.5495 178.152 73.9524 180.381 74.1234" stroke="#2C292F" stroke-width="1.5" stroke-miterlimit="10" stroke-linecap="round" stroke-linejoin="round"/>
</svg>
