<svg width="248" height="134" viewBox="0 0 248 134" fill="none" xmlns="http://www.w3.org/2000/svg">
<path d="M210.381 108.998C211.345 105.418 211.451 101.732 213.265 99.3672C214.699 97.496 218.287 96.3296 220.839 96.4592C227.084 96.7832 233.386 97.6175 239.453 99.0999C242.515 99.8451 245.221 102.324 247.837 104.349C248.266 104.681 247.797 107.305 247.027 107.856C243.763 110.165 240.433 112.684 236.732 114.012C229.927 116.467 222.88 118.314 215.833 119.99C214.569 120.29 211.864 118.856 211.499 117.698C210.6 114.823 210.665 111.639 210.381 108.998Z" fill="#2C292F" fill-opacity="0.27"/>
<path d="M23.2648 112.846C28.0926 114.944 33.9896 113.202 38.1288 118.063C40.6642 121.035 41.4337 122.858 37.6428 124.697C33.8114 126.56 29.6073 127.734 25.4681 128.828C18.9879 130.545 12.4428 132.084 5.86541 133.388C4.18866 133.72 1.66137 133.477 0.665037 132.424C-0.274595 131.436 -0.0315867 128.966 0.268123 127.248C0.616435 125.296 1.75047 123.498 2.28509 121.554C3.36243 117.633 5.84921 115.236 9.78594 114.588C14.2735 113.859 18.8096 113.413 23.2648 112.846Z" fill="#2C292F" fill-opacity="0.27"/>
<path d="M200.612 58.9387C188.559 61.6037 178.15 60.0403 167.798 57.2052C165.352 56.5329 162.776 56.2413 160.241 56.0226C157.235 55.7634 155.939 54.6698 157.397 51.6241C157.689 51.0247 157.786 50.3362 158.021 49.7044C161.933 39.2793 166.065 38.2101 175.785 44.3015C181.56 47.9223 187.862 50.7007 193.832 54.0299C196.052 55.2693 197.996 57.0189 200.612 58.9387Z" fill="#2C292F" fill-opacity="0.27"/>
<path d="M142.63 88.6343C149.993 89.8979 157.397 90.9267 164.671 92.571C166.558 93.0003 168.016 95.3251 169.669 96.7832C168.211 98.0468 166.947 99.7479 165.262 100.485C159.778 102.899 154.052 103.879 147.96 103.166C142.784 102.567 137.519 102.623 132.294 102.534C130.042 102.494 128.592 101.911 129.905 99.513C131.573 96.4673 133.274 93.3244 135.575 90.789C137.227 88.9664 139.9 88.0754 142.12 86.7712C142.298 87.395 142.468 88.0106 142.63 88.6343Z" fill="#2C292F" fill-opacity="0.27"/>
<path d="M59.3918 17.603C52.0368 18.4373 45.7348 19.2797 39.4003 19.8225C36.4923 20.0655 33.5276 19.7253 30.5953 19.6362C27.7683 19.5471 26.3589 17.6678 27.5739 15.1405C29.4289 11.2848 31.3811 7.42905 33.7139 3.84873C36.3303 -0.169007 39.8621 -0.938533 44.1228 1.06223C51.0404 4.30234 54.6937 10.4748 59.3918 17.603Z" fill="#2C292F" fill-opacity="0.27"/>
<path d="M96.8072 34.3625C98.5569 30.0289 100.161 25.6142 102.121 21.3778C103.433 18.5508 109.039 18.9153 111.42 21.9205C114.571 25.9058 117.641 29.9641 120.638 34.0709C122.995 37.2867 122.226 39.3928 118.168 39.8059C111.93 40.4377 105.645 40.5916 99.375 40.8427C97.4229 40.9237 96.3293 39.9517 96.8315 37.7808C97.0746 36.7359 97.2204 35.6585 97.4148 34.5974C97.2123 34.5164 97.0098 34.4354 96.8072 34.3625Z" fill="#2C292F" fill-opacity="0.27"/>
<path d="M58.0638 117.933C58.8009 115.074 59.4165 112.182 60.2995 109.371C62.4703 102.486 66.9417 100.574 73.3733 103.936C75.8925 105.248 78.2983 106.949 80.38 108.885C83.2961 111.59 83.1989 114.377 79.6834 115.965C73.8512 118.597 67.7274 120.663 61.5955 122.526C58.8981 123.344 57.432 121.116 58.0638 117.933Z" fill="#2C292F" fill-opacity="0.27"/>
<path d="M6.50488 64.1958C9.50198 60.5831 11.6648 56.533 15.0264 54.2973C19.0603 51.6161 23.5722 53.9004 27.4846 56.1847C29.4287 57.3187 31.4294 58.4851 33.0414 60.0161C34.305 61.2149 35.0178 62.997 35.9737 64.5279C34.5318 65.3542 33.09 66.8851 31.6643 66.877C27.274 66.8365 22.8836 66.2695 18.5014 65.7916C14.8239 65.3866 11.1625 64.8195 6.50488 64.1958Z" fill="#2C292F" fill-opacity="0.27"/>
<path d="M74.5069 71.0972C72.3846 70.8137 70.2543 70.5707 68.1401 70.2304C64.9324 69.712 64.2439 68.1892 65.9611 65.5242C66.034 65.4108 66.1393 65.3217 66.2203 65.2164C71.5827 57.5049 71.607 57.5292 80.3958 61.474C81.5784 62.0087 82.9717 62.0735 84.2677 62.3732C86.3576 62.8592 88.5852 63.0455 90.4726 63.9527C91.7605 64.5764 93.0241 66.0831 93.3805 67.4358C93.5507 68.092 91.7362 69.5176 90.5941 70.2223C85.418 73.3652 79.926 71.9801 74.5069 71.0972Z" fill="#2C292F" fill-opacity="0.27"/>
<path d="M118.265 94.5151C121.011 98.1117 123.352 100.453 124.688 103.28C125.255 104.487 123.984 106.844 123.076 108.399C122.153 109.979 120.833 111.518 119.31 112.506C118.249 113.194 116.378 113.381 115.227 112.911C114.514 112.619 114.215 110.667 114.207 109.46C114.182 106.139 114.15 102.769 114.66 99.513C114.887 98.1117 116.459 96.9209 118.265 94.5151Z" fill="#2C292F" fill-opacity="0.27"/>
</svg>
