<svg width="58" height="27" viewBox="0 0 58 27" fill="none" xmlns="http://www.w3.org/2000/svg">
<path d="M0.0897732 8.23329C0.441189 8.46607 0.164111 9.66422 0.542558 9.65738C0.83991 9.65738 1.26566 9.84223 1.15754 10.0134C1.04265 10.2051 2.24557 10.0682 2.44831 10.3763C2.59699 10.6091 2.85379 10.301 3.36064 10.568C3.86073 10.8281 4.11078 10.6775 4.01617 10.9377C3.90804 11.2389 5.30018 11.1568 4.94201 11.5265C4.45543 12.0263 5.47589 12.2248 5.38128 11.6087C5.23936 10.7049 6.09763 11.7387 5.98274 11.8277C5.91516 11.8757 5.84758 11.9989 5.82731 12.1016C5.76648 12.4302 6.19224 11.773 6.40174 11.9031C6.57069 12.0058 6.42877 12.3481 6.21927 12.3549C5.9895 12.3549 6.02329 12.7315 6.15845 12.7315C6.21927 12.7315 6.3274 12.8958 6.40174 13.0944C6.61123 13.6763 7.28027 13.1491 7.21945 12.9917C7.1316 12.7657 7.28703 12.8068 7.47626 13.0533C7.71954 13.3614 7.69251 13.4983 7.40868 13.4298C7.03023 13.3408 6.74639 14.0255 7.54384 13.7242C8.23991 13.4641 7.78712 14.0803 8.28721 14.0803C8.55753 14.0803 8.59132 14.2104 8.37507 14.4294C8.26694 14.5458 8.2737 14.5869 8.40886 14.6006C9.82804 14.7375 8.90895 14.9909 9.57799 15.1483C10.0443 15.2579 9.79425 15.5454 10.1051 15.3058C10.3552 15.1141 10.2741 16.1822 10.7944 15.5386C10.9228 15.3743 10.9972 15.3127 10.9566 15.3948C10.8552 15.6002 11.5648 16.1548 11.6527 16.4218C11.7743 16.7984 12.146 16.0589 12.369 16.415C12.538 16.6888 12.7272 16.3123 12.7069 16.6409C12.6731 17.0654 13.6193 16.7094 13.8693 17.1612C14.2072 17.7911 14.214 17.0311 14.3626 17.0311C14.66 17.0311 14.3221 17.9965 14.8425 17.9349C14.9911 17.9144 15.1128 17.9554 15.1128 18.0239C15.1128 18.1951 15.7683 18.1814 15.9373 18.0034C16.1332 17.8048 16.3089 18.1745 16.1265 18.2361C15.9305 18.3046 15.9305 18.5579 16.14 18.4758C16.3765 18.3799 16.7888 18.8729 17.0996 18.7839C17.4984 18.6743 16.9847 19.0646 17.7552 19.3179C18.012 19.4069 18.1877 19.4206 18.1471 19.3521C18.0255 19.1536 18.289 19.2289 18.4647 19.4343C18.708 19.7287 19.4311 18.7017 19.2757 19.3864C19.2216 19.6123 19.2825 19.7013 19.6068 19.8382C20.357 20.16 20.384 20.5024 20.553 20.2217C20.7219 19.9409 21.1815 21.0432 21.1882 20.3723C21.1882 20.1806 21.222 20.1874 21.418 20.4202C21.7491 20.8173 21.6613 20.4681 21.9789 20.8242C22.1614 21.0227 22.2492 21.0432 22.4925 20.9269C23.0331 20.6667 22.952 21.5088 23.8103 21.1322C23.9725 21.0638 23.9995 21.0843 23.9522 21.2281C23.8779 21.4267 24.209 21.6184 24.405 21.4951C24.4658 21.454 24.5131 21.4883 24.5199 21.5636C24.5199 21.7005 25.1146 21.6594 25.3444 21.5157C25.689 21.2966 25.3782 22.2414 27.0001 22.4605C27.2163 22.4879 27.2772 22.8713 27.4799 22.7344C27.6691 22.6111 27.5475 22.9603 27.8043 22.8644C28.0543 22.7686 27.8854 23.0356 28.2773 23.0288C28.7842 23.0219 28.791 23.4669 28.9734 23.1588C29.2573 22.6727 29.4262 23.9941 29.7844 23.3916C29.8925 23.2068 30.0885 23.241 30.0885 23.4395C30.0885 23.7887 31.0752 23.2821 31.0752 23.6655C31.0819 24.1858 31.8118 23.3779 31.8185 23.8093C31.8185 24.09 32.4335 23.9188 32.4403 24.1311C32.4403 24.2269 32.4943 24.2201 32.616 24.1174C32.8795 23.8914 33.2445 24.2201 33.1161 24.2406C33.0147 24.2543 33.8932 24.8363 34.1433 24.5076C34.2852 24.3159 34.3122 24.3228 34.3798 24.5898C34.5217 25.1238 35.157 24.5282 35.157 24.9116C35.157 25.1238 35.3597 25.1512 35.4746 24.9595C35.5219 24.8773 35.603 24.9116 35.7044 25.0416C35.8801 25.2813 36.2653 25.1854 36.2653 24.8979C36.2653 24.6514 36.5086 24.6035 36.5153 25.0006C36.5221 25.829 37.6304 24.6719 37.4209 25.2607C37.3128 25.5688 37.6372 25.206 37.9345 25.4524C38.3332 25.7811 38.5157 24.8431 38.6779 25.4798C38.8198 26.0276 40.2187 25.9659 40.2187 26.2056C40.2187 26.3836 40.6377 26.1097 40.5296 26.2946C40.435 26.4589 40.7188 26.4863 40.712 26.2056C40.712 26.0413 40.7458 26.0276 40.8607 26.1439C41.0702 26.3562 41.2121 26.3288 41.2121 26.0755C41.2189 25.6099 41.3743 26.3425 41.7325 26.2124C41.8406 26.1713 41.9961 26.2398 42.0907 26.3767C42.3137 26.6848 42.7462 26.8491 42.6448 26.5821C42.5637 26.3699 42.7462 26.3151 42.8746 26.5205C42.9692 26.6711 43.4761 26.7807 43.6788 26.2603C43.8951 25.7195 44.0843 25.6305 43.9829 26.1234C43.8478 26.767 44.5371 26.3562 44.5438 26.6506C44.5438 26.9245 44.8885 26.233 45.152 26.5479C45.4494 26.9039 46.6388 26.4657 46.6388 26.8081C46.6456 27.3969 47.0916 26.4315 47.2808 26.5547C47.5106 26.6985 47.193 25.9317 47.4227 26.0139C47.6728 26.1029 47.3484 26.7259 47.6795 26.7259C48.058 26.7191 47.8552 25.6852 48.1188 26.322C48.3148 26.7944 48.6257 26.4178 49.369 26.411C49.5515 26.411 49.8286 25.7468 50.0583 26.1576C50.153 26.3288 50.1935 26.322 50.3625 26.0823C50.6125 25.7126 50.43 25.6852 51.1126 26.363C51.633 26.0755 52.4439 25.5962 52.2412 25.9386C52.0249 26.3083 52.7953 25.6921 52.7953 25.9249C52.7953 26.0755 53.2211 26.1645 53.1265 25.8085C53.0319 25.4524 53.2481 25.8153 53.5995 25.4114C53.7279 25.2607 53.7685 25.1717 53.6874 25.2265C53.5117 25.3292 53.3698 24.9937 53.9036 25.1101C55.0322 25.3497 54.3902 23.9257 54.816 24.09C55.0525 24.179 55.9783 23.2821 55.9783 22.974C55.9716 22.5906 56.7217 23.0219 56.4649 22.7138C56.2892 22.5084 55.7283 22.4605 55.7283 22.2825C55.7283 22.1524 57.0867 22.3236 56.8907 22.0155C56.7623 21.8101 56.3838 22.2756 56.7217 21.632C56.8163 21.4472 56.9312 21.3993 57.1542 21.4609C57.7827 21.6252 57.1204 20.6461 57.2015 20.208C57.2556 19.9341 57.553 19.8246 57.553 20.0779C57.5597 20.5161 58.2558 20.1121 57.8976 19.9957C57.7354 19.9409 57.6746 19.2768 57.83 19.2768C58.0598 19.2768 57.3908 18.7154 57.7084 18.2567C58.1814 17.5652 57.2826 17.62 57.2826 17.3392C57.2826 17.2297 57.3299 17.1749 57.3908 17.216C57.5124 17.2913 57.4583 16.5177 57.0529 16.9353C56.6474 17.3529 57.6341 15.6755 57.6341 15.5181C57.6341 15.2853 57.6611 15.6961 56.8704 15.2647C56.9245 15.2031 57.4448 14.6622 57.3299 14.6622C57.2826 14.6622 57.3164 14.5595 57.4043 14.45C57.5462 14.2651 57.5394 14.2514 57.3299 14.3336C57.1069 14.4226 57.1069 14.4089 57.3029 14.1898C57.7692 13.6558 57.3097 13.6832 57.0596 13.2313C56.8231 12.8068 57.4043 12.7794 57.2015 12.5877C57.134 12.5261 57.0664 12.5466 57.0394 12.6356C56.965 12.8547 56.6406 12.841 56.6339 12.6151C56.6271 12.2454 57.3435 12.6767 57.0056 12.0742C56.7488 11.6155 56.7893 10.9308 56.6271 11.369C56.3771 12.0674 56.35 10.1298 55.8229 10.5132C55.4783 10.7597 55.4174 10.7528 55.3363 10.4379C55.2958 10.2873 55.2147 10.212 55.1471 10.253C54.9309 10.3968 54.9309 9.28766 54.7619 9.76692C54.5727 10.2873 54.5592 9.45883 54.1267 9.45883C53.7955 9.45883 53.8496 8.39761 53.6401 8.52769C53.4509 8.64408 53.586 8.34283 53.39 8.34283C53.2143 8.34283 53.3225 8.71939 53.1467 8.71939C52.9102 8.71939 53.1535 8.2059 52.8494 8.46607C52.5656 8.7057 52.7007 8.34968 52.2615 8.34968C52.079 8.34968 52.0249 8.29491 52.079 8.14428C52.2277 7.71979 51.5924 8.47976 51.5046 8.2059C51.4708 8.11005 51.3694 8.1169 51.1599 8.23329C50.626 8.52769 51.2207 8.14428 51.0585 7.88411C50.8625 7.57602 50.2341 8.28121 49.9097 7.90465C49.6394 7.58286 49.9502 7.71295 49.4974 7.35693C49.2541 7.17207 49.0784 6.97352 49.1798 7.71295C49.2136 7.97996 49.0649 7.89096 48.9365 7.56232C48.6662 6.88451 48.1188 7.50755 48.0715 7.50755C47.8755 7.50755 48.1526 7.25423 47.9701 7.26107C47.8012 7.26107 47.8485 7.53494 47.5376 7.58286C47.3889 7.6034 47.3349 7.55548 47.3822 7.43908C47.4768 7.17891 47.1592 7.33638 47.2876 7.12414C47.3416 7.03514 47.3214 7.0146 47.2403 7.06252C47.051 7.17891 47.0173 6.85712 46.7604 6.95982C46.1995 7.18576 46.3212 6.15193 46.0779 6.58326C45.9495 6.8092 45.936 6.8092 45.6994 6.52164C45.571 6.35732 45.4967 6.2957 45.5373 6.37786C45.6454 6.58326 45.3615 6.59695 45.3615 6.35048C45.3615 6.13823 44.929 6.09031 44.8074 6.2957C44.7668 6.36417 44.6249 6.42579 44.483 6.42579C44.0978 6.43264 44.483 6.92559 44.26 6.92559C44.037 6.92559 44.4154 6.89136 43.5166 5.87122C43.5099 7.74718 42.6313 5.13863 42.6381 5.81644C42.6381 6.09031 42.2664 5.91914 42.0772 5.55627C41.6717 4.7963 41.4014 5.55627 41.1108 5.02909C40.8878 4.62514 40.2457 5.18656 40.2457 4.91954C40.2457 4.74153 39.4686 5.07701 39.5294 4.78261C39.597 4.45397 38.8536 4.899 38.732 4.44028C38.6036 3.96787 37.3871 4.35127 37.2182 4.07056C37.1236 3.91994 36.664 3.91309 36.664 4.06372C36.664 4.1938 36.1774 4.43343 36.4005 4.15957C36.5086 4.02264 36.5018 3.96102 36.3667 3.84463C36.0896 3.605 36.1301 4.14588 35.9341 4.02949C35.7382 3.90625 35.2921 4.77576 35.3665 4.02949C35.4273 3.46122 34.319 4.00895 34.3122 3.74193C34.3122 3.5023 33.9676 3.605 33.9 3.87201C33.7581 4.44713 33.3729 3.61184 33.6905 3.61184C33.8594 3.61184 33.8662 3.35167 33.6297 3.44068C33.5013 3.48861 33.4675 3.45437 33.5148 3.31744C33.5689 3.17366 33.5215 3.13943 33.312 3.20105C33.1296 3.25582 33.062 3.23528 33.1161 3.13943C33.3458 2.74917 32.7173 2.46162 32.8998 2.93403C32.9471 3.06412 32.8863 3.1052 32.6768 3.08466C32.4335 3.06412 32.3862 3.1052 32.4065 3.36537C32.4268 3.75562 31.9672 4.20065 31.9605 3.55707C31.9605 3.22159 31.8456 3.15997 31.6293 3.38591C31.5279 3.48861 31.5009 3.46807 31.5144 3.29005C31.5415 2.91349 31.1292 3.20105 30.8657 2.61224C30.4331 1.66057 30.6697 3.07781 30.4872 3.18736C30.2574 3.33113 30.5007 2.7971 30.271 2.84503C30.1831 2.86557 30.1493 2.7971 30.1966 2.67386C30.2439 2.53693 30.2236 2.49585 30.129 2.55747C29.852 2.73548 30.2169 1.94812 29.1964 2.21514C28.9531 2.27676 28.8788 2.25622 28.872 2.1056C28.872 1.77696 27.8381 1.87966 27.6759 1.63318C27.6286 1.55787 27.561 1.55787 27.5137 1.63318C27.4191 1.78381 26.8311 1.98236 26.9122 1.83858C26.946 1.77696 26.8649 1.61264 26.7433 1.4894C26.4324 1.17446 26.6825 1.47571 26.1486 1.48256C25.885 1.48256 25.7566 1.35247 25.1619 1.3867C24.1279 1.44832 24.5064 0.804745 23.5062 1.03753C22.952 1.16761 22.9183 1.16077 22.9791 0.921137C23.0331 0.715739 22.9926 0.681506 22.7493 0.749972C22.3168 0.866364 22.3911 0.551421 22.1411 0.585654C21.8235 0.63358 21.6883 0.571961 21.7694 0.421336C21.837 0.304944 21.8167 0.304944 21.6951 0.421336C21.4315 0.667813 20.7287 0.325484 20.8841 0.571961C20.9922 0.756819 20.7152 0.791052 20.7084 0.517188C20.7084 0.366564 20.6679 0.35287 20.5462 0.455569C20.3367 0.63358 20.2015 0.524035 20.2962 0.263865C20.4381 -0.133237 19.6001 0.647274 19.323 0.195399C19.1473 -0.099004 18.877 0.503495 18.6067 0.168013C18.2552 -0.270169 17.6876 0.270711 17.843 0.41449C17.9173 0.489802 17.5659 0.660967 17.4578 0.489802C17.3226 0.277558 17.1469 0.366564 17.1402 0.65412C17.1334 0.975909 17.1267 0.921137 16.8901 0.270711C16.3765 0.551421 13.8355 1.6948 13.2408 1.4894C12.8016 1.33878 12.761 1.71534 12.4366 1.59895C12.3015 1.55102 12.2339 1.5921 12.2339 1.72903C12.2339 1.95497 12.0311 1.99605 11.9568 1.78381C11.8622 1.50994 10.8823 2.30415 10.8823 2.14668C10.8823 2.01659 12.146 0.93483 11.3621 0.941677C10.862 0.948523 10.666 0.558268 10.5511 0.880057C10.3619 1.3867 9.26037 0.298098 9.27388 1.07176C9.27388 1.33878 8.55078 1.44832 8.78055 1.15392C8.8684 1.03753 8.87516 0.969063 8.80082 0.969063C8.44265 0.969063 8.69945 1.62633 8.29397 1.84543C8.08448 1.96182 8.04393 1.94128 8.03717 1.73588C8.03717 1.44832 7.59114 1.13338 7.5168 1.36616C7.43571 1.61949 6.71936 0.825285 6.57744 1.05807C6.48959 1.20185 5.73269 1.49625 5.85434 1.20185C5.98274 0.873211 5.22585 0.804745 5.33397 1.44832C5.40831 1.89335 4.82037 2.54378 4.92849 1.92758C5.00959 1.48256 4.71224 1.76327 4.70548 1.37986C4.70548 1.01699 4.33379 1.13338 4.34731 1.22239C4.38785 1.46886 4.32703 1.52364 4.15132 1.37986C3.92831 1.195 3.53635 1.31139 3.66475 1.52364C3.72557 1.62633 3.69178 1.64687 3.55662 1.59895C3.17817 1.46202 3.40119 2.21514 2.98895 2.07821C2.82 2.02344 2.73215 2.1056 2.63754 2.39315C2.4348 3.0025 2.99571 2.68071 2.64429 3.24897C2.50913 3.46122 1.8874 3.32429 1.88064 2.76287C1.88064 2.37261 1.87388 2.37261 1.63059 2.59855C1.40758 2.80395 1.40082 2.85187 1.56977 2.97511C1.84009 3.17366 1.69817 3.42014 1.90091 3.7967C2.11717 4.18696 1.62384 4.37181 1.38055 4.3102C0.988586 4.2075 1.14402 4.78946 0.853426 4.78946C0.657444 4.78946 0.529042 5.42619 0.630412 5.90545C0.691234 6.19301 0.643928 6.2957 0.373609 6.47372C-0.0589026 6.76812 0.116805 6.89136 0.400641 6.65173C0.5358 6.53534 0.576348 6.52849 0.515526 6.63119C0.468221 6.72019 0.481737 6.78866 0.556074 6.78866C0.725024 6.78866 0.745298 7.03514 0.502011 7.04198C-0.0656606 7.04883 0.164111 8.1032 0.184385 7.7061C0.204659 7.30215 1.0021 7.74033 0.238449 8.00735C-0.0318707 8.09636 -0.0589026 8.13744 0.0897732 8.23329Z" fill="#FFB077" fill-opacity="0.75"/>
</svg>
