<svg width="65" height="54" viewBox="0 0 65 54" fill="none" xmlns="http://www.w3.org/2000/svg">
<path d="M4.0007 36.3748C4.42138 36.4737 4.52542 37.2945 4.92198 37.1624C5.29187 37.0388 5.32025 37.7509 5.80757 38.1363C6.02053 38.2989 6.04168 38.3842 5.93376 38.5826C5.73773 38.9342 5.904 39.0603 6.17455 38.7771C6.33122 38.6057 6.39977 38.5876 6.40895 38.7049C6.41741 38.9621 6.71235 38.5898 6.81812 38.811C6.98757 39.1729 7.08922 39.208 7.21693 38.9645C7.39157 38.6426 7.43343 38.6329 7.51573 38.8933C7.66767 39.3809 8.40866 38.7638 8.48592 38.8879C8.59261 39.0593 9.32456 38.825 9.18835 39.0164C9.04433 39.2209 9.3847 39.46 9.24596 39.6858C9.08375 39.9507 9.40766 39.6507 9.62841 40.0053C9.70199 40.1235 9.78847 40.1598 9.82022 40.0827C9.93435 39.8558 10.3935 40.9394 10.6424 40.5958C10.7181 40.4995 10.7853 40.5561 10.8926 40.7926C11.1327 41.332 12.8345 41.6173 13.0903 41.3105C13.2026 41.1832 13.3167 41.1613 13.4326 41.245C13.709 41.4583 13.7408 41.3811 13.698 40.3254C14.4187 41.0985 14.5645 40.7945 14.3937 40.7123C14.0802 40.5548 14.8231 40.5433 14.8683 40.1544C14.9427 39.5176 15.3067 40.0126 15.3776 39.8701C15.486 39.6468 15.4311 40.3534 15.8682 40.0813C16.2671 39.8248 16.1395 40.3634 16.3429 40.2286C16.5729 40.0854 16.2197 39.7231 16.5711 39.7749C16.8414 39.8116 16.6604 39.6619 17.2141 39.5386C17.8515 39.396 17.783 39.9142 17.9843 39.7889C18.1626 39.6779 17.6928 39.3718 18.0263 39.1641C18.3081 38.9887 18.4003 39.2265 18.268 39.3089C17.8116 39.6012 18.999 39.5344 18.6842 39.0416C18.4687 38.7083 18.7063 38.667 19.0149 38.9833C19.3813 39.3538 19.6155 39.1916 19.2894 38.796C19.2264 38.7204 19.4505 38.2857 19.5187 38.5876C19.578 38.8623 19.7251 38.5986 19.8538 38.8054C19.9532 38.965 20.5558 38.7538 20.3073 38.3673C19.8085 37.579 21.2323 38.5458 21.8034 38.7069L22.2011 38.8201C22.239 37.8043 22.3482 38.3514 22.7452 37.9894C22.8879 37.8596 22.912 37.8855 22.9168 38.1368C22.9266 38.5243 23.3664 38.7179 23.475 38.3797C23.5275 38.2076 23.5521 38.2087 23.5944 38.3791C23.6277 38.5224 23.699 38.56 23.814 38.4884C24.1246 38.2951 23.7329 38.0633 24.1541 37.9323C24.3142 37.8818 24.357 37.8224 24.2668 37.7801C24.1185 37.7085 24.6046 37.1434 24.7801 37.1818C24.9592 37.226 24.4297 37.3753 24.6726 37.5603C24.7623 37.6275 24.8018 37.7422 24.7664 37.8135C24.6893 37.9845 24.9473 38.3733 25.0853 38.2874C25.2348 38.1943 25.3585 37.5597 25.2359 37.5294C25.1793 37.5154 25.2127 37.4537 25.3047 37.3964C25.5577 37.2388 25.4254 37.5262 25.9878 37.3401C26.5979 37.1407 25.9959 37.4171 26.1913 37.7054C26.6121 38.3044 27.1646 38.3459 27.4726 37.0717C28.7629 37.5805 28.9632 37.71 28.9281 37.2562C28.8971 36.7835 30.1672 37.1572 29.7856 37.403C29.6475 37.4889 29.8375 37.6659 30.083 37.4065C30.3498 37.1173 30.2005 37.5055 30.7482 37.2957C31.084 37.1687 31.8063 36.842 31.8162 37.0245C31.8224 37.201 32.0294 37.0721 32.0274 36.8766C32.0189 36.6194 32.2126 36.5973 32.3597 36.8337C32.4591 36.9932 32.5345 37.0119 32.6238 36.8989C32.8007 36.6575 32.7896 37.0499 33.0537 36.705C33.5704 36.0225 34.0328 36.9319 34.3167 35.6318C34.5736 34.455 34.6188 36.0915 35.2581 35.6443C35.6402 35.3736 35.6538 35.3569 35.5006 35.2391C35.2913 35.0824 35.5739 34.7671 35.6569 34.8876C35.8077 35.1299 36.0742 34.4556 36.1361 35.196C36.168 35.619 35.7069 35.6601 35.9861 35.7241C36.2124 35.78 36.5591 35.3755 36.4393 35.1959C36.3179 35.0009 36.4345 34.9447 36.7034 35.0561C36.978 35.1639 37.7003 34.8373 37.6914 34.605C37.6896 34.4996 37.7381 34.4365 37.8078 34.4588C37.9681 34.4984 37.8454 35.0831 37.934 34.905C38.0127 34.7494 38.4276 34.8519 38.3961 35.0191C38.3516 35.2682 38.6846 34.5853 38.8612 34.869C38.92 34.9635 39.0504 34.9807 39.154 34.9163C39.4666 34.7135 39.8359 35.0247 39.4894 34.6091C39.1686 34.2348 39.4846 34.5629 39.6994 34.4209C39.964 34.2562 39.8895 34.893 40.1421 34.7603C40.4559 34.5978 40.9342 34.2508 41.1952 34.3753C41.3173 34.4305 41.3943 33.3493 41.6201 34.0452C41.7261 34.3564 41.7449 34.3611 41.9633 34.135C42.3576 33.7173 42.9107 34.0289 42.9027 33.7469C42.9 33.4862 43.2309 33.723 43.1038 33.3265C42.9909 32.9786 43.2148 32.8638 43.272 33.148C43.3053 33.2913 43.3561 33.3088 43.4396 33.1994C43.5738 33.0175 43.7228 33.1544 43.6165 33.3681C43.5415 33.5296 43.7839 33.7395 43.8946 33.3918C43.9388 33.2577 43.9774 33.2172 43.9776 33.3073C43.9886 33.5301 44.5745 33.3047 44.5693 33.0784C44.5652 32.6873 44.1163 32.3764 44.4001 32.1915C44.6129 32.059 44.7828 32.396 44.66 32.4807C44.5162 32.5702 44.6466 32.7924 44.8442 32.6612C45.0972 32.5037 45.168 32.9762 45.2722 32.772C45.3608 32.5938 46.1382 32.9709 45.6689 32.2298C45.4093 31.8256 45.5451 31.4541 45.8505 31.7396C46.0163 31.8906 46.0581 31.8809 46.1932 31.6492C46.3303 31.408 46.3513 31.4032 46.4283 31.6423C46.5179 31.9144 46.7153 31.8982 46.6408 31.6247C46.5753 31.3785 47.5213 31.5522 47.266 31.4241C47.082 31.3337 47.5759 31.1656 47.9105 31.2033C48.041 31.2205 48.1256 31.1514 48.1781 30.9793C48.3169 30.5485 49.4564 31.3151 49.1686 30.6989C48.9791 30.292 49.1441 29.8777 49.3633 30.2169C49.6118 30.6033 50.496 30.5367 50.4144 30.1365C50.3726 29.9411 50.8684 29.4685 50.9366 29.7704C51.0552 30.3197 51.2118 29.2382 51.4899 29.4669C51.6 29.5542 51.6403 29.5291 51.6928 29.357C51.7452 29.185 51.774 29.1671 51.8423 29.2639C51.8828 29.329 51.9529 29.3263 51.9826 29.2586C52.0201 29.1778 52.0631 29.2085 52.0875 29.3245C52.1415 29.5779 52.5518 29.5192 52.6062 29.2476C52.6683 28.9629 52.9032 28.8659 53.034 29.0632C53.2752 29.4379 53.2478 27.5608 53.6472 28.1895C53.9583 28.6764 54.2266 26.9924 54.7944 27.5327C55.094 27.8218 55.0228 27.1691 54.9007 27.1139C54.711 27.027 55.0482 26.6203 54.8239 26.7599C54.6457 26.8709 54.5075 26.6617 54.7108 26.5269C54.9696 26.3658 55.061 26.9485 55.24 26.6976C55.3042 26.6085 55.5037 26.5827 55.7111 26.634C56.0941 26.7236 56.5157 26.5677 56.251 26.4373C55.9375 26.2798 56.8166 26.2819 56.629 25.9806C56.5701 25.886 56.581 25.8137 56.6663 25.8097C56.7516 25.8058 56.7431 25.7537 56.644 25.6842C56.3749 25.4827 57.0303 25.1895 57.0349 25.3507C57.0394 25.5118 57.3248 25.7524 57.3247 25.4573C57.3219 25.1966 57.8765 25.0235 57.9896 24.5513C58.3353 23.0815 58.3755 24.5816 58.6082 23.994C58.7732 23.5797 58.9133 23.4843 58.9673 23.7376C59.0266 24.0123 59.4369 23.9537 58.921 22.9711C58.5055 22.1883 58.6156 22.2756 59.3498 22.5319C59.6869 21.625 59.7323 21.5312 59.89 21.6052C60.0253 21.6686 60.0425 21.6578 59.9763 21.5515C59.9285 21.4746 59.9837 21.3583 60.0987 21.2867C60.3978 21.1005 60.0921 20.93 60.3099 20.9338C60.8555 20.9385 60.5807 19.6254 60.7877 19.4965C61.5144 19.0359 59.9587 19.8568 60.5836 17.3357C59.8999 18.032 59.9326 17.7 60.2276 17.1228C60.4773 16.6393 60.4803 16.5801 60.2036 16.2767C59.7469 15.7738 60.1406 15.0859 59.9048 15.2327C59.646 15.3938 60.0022 14.5817 59.7113 14.6398C59.4564 14.6919 59.4498 14.3352 59.2094 14.5259C59.0056 14.6856 58.5804 14.2205 58.9174 13.9286C59.0888 13.7809 59.0897 13.7312 58.94 13.7342C58.7714 13.7325 58.7325 13.6829 58.7293 13.4471C58.7145 12.9234 58.4591 13.4104 58.2436 13.0771C58.0744 12.8053 57.7321 13.0758 57.8922 12.8203C58.0231 12.6076 57.8934 12.4505 57.6958 12.5817C57.575 12.6569 57.5341 12.6168 57.5116 12.4012C57.4756 11.9972 56.9339 12.0885 56.8372 12.3946C56.7769 12.5798 56.7252 12.612 56.5899 12.5486C56.451 12.4793 56.428 12.4936 56.4556 12.6404C56.5149 12.9151 56.2486 12.5643 56.3087 12.2891C56.3817 11.932 56.23 12.4447 55.86 11.8632C55.7055 11.615 55.5953 11.5278 55.55 11.6216C55.5182 11.6988 55.3972 11.6839 55.2949 11.5836C54.9465 11.2675 54.3658 11.9242 54.0261 11.7503C53.7897 11.6269 53.7991 12.0392 53.5401 11.9053C53.1422 11.702 53.0889 12.629 52.7053 12.2692C52.4204 12.0037 52.5155 12.3873 52.1634 12.2703C51.5985 12.0808 51.2643 13.1334 50.542 12.5499C50.3815 12.4203 50.3968 12.9191 50.1051 12.9121C49.7642 12.9029 50.3123 12.1681 49.549 12.6597C49.2249 12.8697 49.172 12.8616 49.1118 12.6367C49.0299 12.3515 48.8698 12.4019 48.6697 12.7726C48.5284 13.0327 48.4051 12.9373 48.4735 12.6241C48.5046 12.4817 48.4648 12.4819 48.3274 12.633C48.0684 12.9091 48.4339 12.9194 48.2613 13.0268C48.0831 13.1378 47.282 12.9149 47.2737 12.7478C47.2636 12.4753 46.6883 13.1533 46.0171 12.9725C45.6703 12.8768 45.6169 12.8937 45.632 13.0974C45.674 13.7929 44.9358 13.1455 44.7395 13.4071C44.6211 13.5628 44.6066 13.4242 44.4648 12.7991L44.3519 13.7714C43.0736 13.2306 44.0638 14.3853 43.0339 14.1409C42.566 14.0304 42.6076 14.5457 42.405 14.1306C42.1457 13.6115 41.3947 14.6612 41.2936 14.1911C41.2148 13.8466 41.1144 14.3519 40.8805 14.1941C40.7027 14.0752 41.2082 14.4001 41.0179 14.7482C40.6769 15.3541 40.2751 14.3496 40.0089 14.7039C39.8184 14.9619 39.6015 14.9084 39.6259 14.6144C39.649 14.395 39.6322 14.3809 39.5095 14.5556C39.4026 14.7042 39.357 14.708 39.3237 14.5647C39.303 14.4546 39.2076 14.391 39.1087 14.4116C38.8407 14.4554 38.8189 13.8949 38.6407 14.0059C38.4509 14.1241 39.0347 14.8184 38.275 14.8158C37.9321 14.8161 37.5151 14.313 37.625 14.9252C37.6801 15.2189 37.1627 15.6312 37.0193 15.4007C36.6787 14.8665 35.5067 15.4322 35.4008 15.8261C35.2788 16.271 34.5534 15.9518 34.4983 15.6582C34.3928 15.117 34.1078 16.5819 33.8834 16.2214C33.6017 15.7818 33.7014 16.5315 33.2816 16.5878C32.9225 16.6392 32.9292 16.7908 32.8372 16.6431C32.6606 16.3594 32.8617 16.8492 31.9072 16.6234C31.5809 16.5478 31.3798 16.5582 31.3817 16.6636C31.3846 17.0144 30.2051 16.6581 30.5457 17.1923C30.7076 17.4523 30.671 17.4833 30.1919 17.4699C29.6238 17.4546 29.853 17.6563 29.5997 18.1338C29.5095 18.2965 29.2191 17.9198 29.2998 17.7547C29.3353 17.6834 29.333 17.6028 29.2999 17.5496C29.1122 17.2483 28.768 18.2334 28.5876 18.1489C28.3643 18.0337 28.3309 18.5055 28.2587 18.1076C28.1156 17.3521 27.8755 17.2228 27.8629 17.8948C27.8548 18.2279 27.8548 18.2279 27.5556 18.119C27.39 18.0581 27.2932 18.0691 27.3373 18.1401C27.453 18.3387 27.133 18.5297 27.0116 18.3346C26.8607 18.0923 26.8209 18.5026 26.4614 18.3738C26.1244 18.2555 25.852 18.6383 25.1935 18.6957C24.3318 18.7729 24.5079 19.4915 24.9751 20.242C25.1591 20.5375 25.0902 20.8756 24.4597 19.9397C23.9343 19.1598 23.9493 19.9786 23.4719 19.5707C23.2201 19.3584 23.1566 19.5128 23.3589 19.8378C23.5318 20.1156 23.3466 20.3949 23.1659 20.1302C23.0461 19.9506 23.0403 19.9541 23.0138 20.2576C22.991 20.5671 22.9852 20.5706 22.8898 20.302C22.7149 19.8288 22.7654 20.3713 22.1364 20.9761C21.7969 21.3023 20.9722 20.4135 21.3419 21.1099C21.5013 21.4043 21.4276 21.9012 21.2763 21.4788C21.163 21.1557 20.4526 20.5402 20.4206 20.7323C20.3895 20.8746 19.8537 21.2574 19.5579 21.4744C19.9924 20.1214 19.493 20.5882 19.3949 20.969C19.2902 21.4032 19.1977 21.4854 19.0558 21.2703C18.7557 20.8011 16.934 23.1816 16.2876 22.7969C15.909 22.5734 15.8996 22.571 15.8898 22.8887C15.8783 23.3059 15.6425 23.4527 15.4146 23.1764C15.1625 22.8741 14.774 23.0832 14.9571 23.2234C15.1438 23.3695 15.2553 23.7921 14.6334 23.6135C14.2132 23.4897 14.1656 23.503 14.1766 23.7257C14.191 24.0693 13.9421 24.2079 13.6866 23.9898C13.4646 23.7999 13.2137 23.948 13.1234 24.3157C13.039 24.6799 12.8641 24.7068 12.7356 24.385C12.5129 23.8349 12.4216 24.4574 12.1268 24.2146C11.9757 24.0872 11.7378 24.4485 12.0426 24.4638C12.3437 24.4732 12.1651 24.9042 11.8061 24.7505C10.9622 24.382 11.7515 25.137 11.4042 25.2713C11.0416 25.4068 11.1239 24.757 10.8885 25.0839C10.8222 25.1826 10.7574 25.2065 10.7588 25.1319C10.7563 24.9612 10.1347 25.3728 10.1415 25.6145C10.1505 25.8468 9.63775 26.0102 9.51634 25.8151C9.28616 25.4582 9.23221 26.115 8.83239 26.4213C8.63065 26.5715 8.40125 26.985 8.95055 26.7906C9.45592 26.6154 9.42573 26.913 9.5065 26.7479C9.67217 26.3987 10.2196 27.6241 9.75824 27.3702C9.38497 27.1679 9.21329 27.6356 8.99784 27.3023C8.78974 26.9809 8.55741 27.0435 8.63417 27.3975C8.68978 27.6663 8.67621 27.683 8.50418 27.5605C8.16588 27.3119 8.26833 26.7971 8.13484 27.2492C8.06418 27.4818 8.05107 27.4736 7.98189 27.2214C7.86306 26.787 7.42159 27.193 7.59522 27.3309C7.69802 27.4064 7.65269 27.5002 7.4399 27.6326C7.00076 27.9142 7.24555 27.5896 6.98219 27.5896C6.9026 27.5899 6.86763 27.6363 6.9081 27.7013C6.95593 27.7781 6.86966 27.8318 6.64148 27.8755C6.18144 27.9569 6.03091 28.5098 6.02727 28.2989C6.02156 28.0974 5.64656 28.4949 5.69735 28.7175C5.8773 29.5321 3.83948 29.0787 4.95096 29.9283C5.2274 30.1417 5.229 30.1571 4.93917 30.2555C4.67602 30.3455 4.65623 30.3906 4.80914 30.6234C5.05035 30.9981 4.78767 31.0632 4.73734 30.8157C4.70034 30.6666 4.66262 30.6573 4.56139 30.8023C4.44658 30.964 4.42979 30.9498 4.40454 30.6785C4.32169 29.7379 4.03222 31.5417 4.20564 31.5896C4.34709 31.6245 3.99949 31.8737 3.90751 31.726C3.6148 31.2686 3.78312 32.7054 3.60277 32.8259C3.4705 32.9082 3.49807 33.0551 3.72778 33.4369C4.04003 33.9641 4.00063 34.3494 3.59434 34.7991C3.33898 35.0811 3.67292 35.2586 3.68367 35.5963C3.69488 35.9092 3.89785 35.3892 3.97143 35.5074C4.10434 35.6953 3.27827 36.2013 4.0007 36.3748Z" fill="#FFB077" fill-opacity="0.75"/>
</svg>
