<svg width="60" height="39" viewBox="0 0 60 39" fill="none" xmlns="http://www.w3.org/2000/svg">
<path d="M2.56706 20.749C2.55865 20.9984 2.9598 21.3247 3.05921 21.1488C3.11893 21.0334 3.22265 21.2799 3.08138 21.4321C2.92408 21.6028 3.25826 21.7641 3.12205 22.1125C3.03356 22.3276 3.04011 22.3258 3.18831 22.1223C3.33177 21.9272 3.36345 21.9396 3.43986 22.2148C3.56467 22.639 3.27126 22.5228 3.3404 22.7718C3.41499 23.0405 3.52461 22.7489 3.83181 23.1436C4.13902 23.5382 4.18749 23.1789 4.64104 23.6177C5.32828 24.288 5.0375 23.5711 5.2734 23.6327C5.53441 23.7085 5.14994 23.8999 5.42184 24.2691C5.61512 24.533 7.12988 24.9807 7.52853 24.8912C7.82051 24.8242 7.91879 24.924 7.75676 25.1031C7.62204 25.2534 8.17025 25.6518 8.24892 25.3758C8.33343 25.07 8.97781 24.9758 9.23007 25.2234C9.34873 25.3458 9.52857 25.4088 9.62978 25.3666C10.2877 25.0922 11.3386 25.598 11.5199 25.4629C11.7125 25.3177 12.3095 25.5613 12.3237 25.7903C12.3259 25.8744 12.4038 25.9516 12.4981 25.9607C12.738 25.9859 12.5564 25.5352 13.1913 25.7118C13.4672 25.7905 13.4639 25.982 13.1887 26.0584C13.0117 26.1075 12.9804 26.1727 13.0699 26.3172C13.3626 26.7865 11.4863 28.825 12.2991 30.0745C12.5466 30.4575 12.8553 30.7812 13.0351 30.8442C13.2783 30.932 13.3209 30.9837 13.2182 31.0969C12.9855 31.3521 13.5647 31.3536 13.6957 31.8254C13.8005 32.1775 14.4733 32.2872 14.5544 32.554C14.6974 33.0437 16.426 32.5073 16.5553 32.4644C17.2539 32.2351 17.0146 32.8733 17.5171 32.395C17.8681 32.0575 17.5128 31.9727 17.8044 32.0823C18.2077 32.2385 18.7022 31.706 18.7659 31.9353C18.815 32.1123 18.4309 32.1272 18.4811 32.2826C18.5248 32.4399 19.0972 31.8575 19.6724 31.6413C20.2673 31.4197 20.0189 32.0251 20.178 31.8609C20.2647 31.7663 20.7863 32.0944 20.6622 31.8253C20.4158 31.2938 21.4016 31.8953 21.603 31.4512C21.7483 31.1356 22.3814 31.4327 22.3373 31.5791C22.2692 31.8168 22.8386 31.2493 22.9278 31.5704C23.0151 31.885 23.4287 31.6713 23.4211 31.3135C23.3935 30.5024 24.0512 31.7526 24.3971 31.6001C24.7936 31.4265 24.8991 31.6795 25.2097 31.3745C25.3819 31.2067 25.4642 31.198 25.6444 31.3385C25.8515 31.4998 25.8628 31.4896 25.7791 31.1882C25.6619 30.7408 26.1734 30.6764 26.1093 31.0048C26.0445 31.3051 26.4533 31.608 26.6863 31.4304C26.7915 31.3518 26.8727 31.3645 26.8982 31.4563C26.9473 31.6332 27.4879 31.6737 27.5527 31.5004C27.6223 31.3188 28.0191 31.2227 28.0038 31.3964C27.9812 31.6709 28.7152 31.34 29.2158 30.8552C29.3494 30.7263 29.4026 30.7398 29.4572 30.9364C29.5536 31.2837 29.2303 31.0347 29.2831 31.2247C29.3595 31.5 29.594 31.3784 29.7407 30.9918C29.9152 30.5269 30.1577 30.4596 30.1452 30.8724C30.1331 31.3628 30.5832 30.772 30.8496 31.1216C31.0513 31.3902 31.2559 31.1358 31.142 30.751C31.0783 30.5216 31.1046 30.3873 31.2225 30.3545C31.5109 30.2745 31.5093 30.9808 31.66 30.9389C32.1235 30.8032 31.8301 30.5599 32.2273 30.4144C32.4381 30.3347 32.5211 30.354 32.5127 30.4763C32.4941 30.7144 33.0792 30.432 33.1793 30.1571C33.3614 29.669 34.6704 30.6466 34.5202 30.1307C34.4656 29.9341 35.2941 30.1982 35.5195 29.7898C35.7136 29.4465 35.9073 29.4068 35.9153 29.7152C35.9221 30.045 36.0925 29.9977 36.3853 29.5776C36.6128 29.2533 36.6128 29.2533 36.978 29.399C37.4316 29.5836 37.642 29.5534 37.4662 29.327C37.246 29.0422 37.9362 29.1894 37.9806 29.2477C38.1222 29.4272 38.4168 28.8866 38.5471 29.3304C38.6071 29.5466 38.6519 29.5554 38.8241 29.3876C39.0076 29.2096 39.0804 29.2176 39.119 29.4328C39.2234 29.9614 40.3992 28.1456 40.5422 28.6353C40.5876 28.7991 40.9244 28.6139 40.9644 28.7581C41.0208 28.9612 41.7453 28.7742 41.8003 28.5401C41.9016 28.1167 42.6151 28.6527 42.4957 28.2482C42.4484 28.0779 42.4746 28.0706 42.7571 28.1474C43.2857 28.2971 43.8355 27.7351 44.1708 27.875C44.5144 28.0195 44.2255 27.4363 44.4548 27.3726C44.6514 27.318 44.2827 26.9051 44.6628 26.7996C45.0083 26.6966 44.8921 26.99 45.0887 26.9355C45.3377 26.8663 44.8856 26.4836 45.4135 26.6053C45.8966 26.7182 45.9716 26.4292 46.1681 26.7558C46.2973 26.9669 46.3105 26.9633 46.3738 26.6069C46.5465 25.6273 47.161 25.7813 47.1508 26.1512C47.149 26.2717 47.8112 26.4196 47.9921 26.3341C48.1112 26.2799 47.8207 25.8946 47.9958 25.839C48.1858 25.7862 48.1268 26.0567 48.3038 26.0076C48.5004 25.953 47.9201 25.4647 48.5736 25.6574C48.9045 25.7561 48.5265 26.1998 48.9722 26.0761C49.1163 26.0361 49.1804 25.9618 49.1229 25.9072C48.9726 25.7725 49.2183 25.8948 49.3589 25.3335C49.6197 24.3153 51.1745 25.0341 50.5006 25.2C50.0233 25.3114 50.3381 26.0639 51.1016 25.1532C51.457 24.7298 52.6162 24.1257 52.0735 24.0011C51.4094 23.8466 52.2315 23.4772 52.2916 23.6935C52.348 23.8966 52.7193 23.8359 52.8435 23.5967C53.0216 23.272 52.9552 23.6433 53.2221 23.5622C53.5807 23.4556 52.9226 22.636 53.5739 22.9987C53.8818 23.1673 54.5583 22.7818 55.1801 22.581C55.2832 22.5453 55.2952 22.4361 55.2067 22.2701C55.0521 21.9672 55.0681 21.9486 55.4205 22.0484C55.688 22.1223 56.3605 21.9004 56.1326 21.5119C55.8098 20.9592 56.5656 20.8341 56.4473 20.4081C56.3371 20.0364 56.8748 19.7107 56.7263 19.5825C56.5388 19.4157 56.8797 18.9399 56.5571 18.846C56.2411 18.7502 56.6591 18.4506 56.8244 18.4612C57.0625 18.4798 57.0702 18.0754 56.8307 18.0007C56.6694 17.9537 56.6614 17.8995 56.7794 17.7397C57.2447 17.1023 56.3594 16.8116 56.8567 16.5183C57.2208 16.3042 57.1655 16.0796 56.7141 15.9791C56.354 15.9026 56.2667 15.7151 56.5099 15.5487C56.6996 15.4184 56.5867 15.7745 56.7884 15.7891C56.9602 15.7978 56.7779 15.192 56.6534 15.2266C56.4764 15.2757 56.4641 14.9262 56.6323 14.7948C56.9301 14.571 56.327 14.1526 56.6859 14.2506C56.7922 14.2775 56.7478 14.2192 56.5935 14.1209C56.2141 13.8733 56.5335 13.6506 56.1919 13.8442C55.8635 14.0342 55.8155 13.8358 56.1064 13.6633C56.3485 13.5184 56.2051 13.2053 55.8233 13.0502C55.6314 12.9693 55.6242 12.9431 55.7811 12.8219C55.985 12.6665 55.8675 12.1415 55.6312 12.1294C55.2791 12.1072 56.1902 10.7108 55.6397 10.8636C55.1107 11.0175 54.6009 9.74037 54.1702 9.867C53.7788 9.98272 53.6966 9.48322 53.1217 9.64988C52.5469 9.81654 52.9168 9.31857 52.6106 9.41063C52.062 9.57001 52.1011 8.84628 51.7432 8.85387C50.8807 8.8745 51.4541 9.28706 51.1985 9.48507C51.082 9.57388 51.0215 9.53418 50.9848 9.32558C50.892 8.86431 50.852 8.84719 50.5909 9.1526C50.1376 9.68078 50.0194 9.00071 49.782 9.26425C49.5766 9.49066 49.9262 9.09718 49.2349 8.71737C48.7176 8.43043 48.43 8.5385 48.6334 8.94081C48.7448 9.16399 48.7295 9.21059 48.5118 9.21457C48.0054 9.22105 48.1085 8.42305 47.6713 8.67856C47.4958 8.78374 47.4408 8.76372 47.4532 8.605C47.4656 8.44627 47.4423 8.43862 47.3564 8.56129C47.0465 9.02141 47.0113 8.4877 47.1196 9.36108C47.14 9.51071 46.5234 9.14549 46.4695 8.97692C46.4076 8.75411 46.1684 9.0111 46.1757 9.29142C46.2054 10.0596 45.4458 8.69645 44.8786 8.83981C44.3704 8.96679 44.6842 9.10555 44.3368 9.20197C44.0157 9.29112 43.9961 9.04247 44.1534 8.9988C44.3631 8.94058 43.9404 8.74029 43.8276 8.33399C43.8004 8.23569 43.3169 8.04524 43.5557 8.47303C43.8461 8.98529 42.8985 8.77546 42.8602 9.14606C42.8311 9.42238 42.4937 9.07139 42.4821 8.74993C42.4737 8.49108 42.4355 8.48051 42.0587 8.64865C41.4907 8.89103 41.7157 8.65917 41.339 8.44614C41.138 8.33253 41.1136 8.34636 41.1657 8.50837C41.1984 8.62633 41.1569 8.68021 41.0459 8.66162C40.9479 8.6394 40.9236 8.65324 40.984 8.69293C41.1198 8.77522 40.8597 9.56736 40.6762 9.6183C40.4993 9.66742 40.6322 9.25643 40.3155 9.00555C39.9737 8.74047 40.3894 9.11914 39.7723 9.18459C39.5452 9.2053 39.4374 9.24935 39.5353 9.27157C39.6435 9.30508 39.567 9.411 39.3285 9.56897C38.798 9.92094 38.8458 9.53358 39.0275 9.34903C39.2478 9.12554 39.0213 8.92018 38.6962 9.04573C38.255 9.21059 38.0129 9.2284 37.9765 9.09734C37.9001 8.8221 36.8225 8.37307 37.0867 9.27377C37.174 9.58833 36.7572 9.35819 36.7776 9.12665C36.7992 8.87364 36.5174 8.95187 36.5829 9.18778C36.6466 9.41714 36.4106 9.48265 36.3633 9.31227C36.3088 9.11567 36.2017 9.44185 36.031 9.28455C35.8231 9.09522 36.071 9.55577 35.0717 9.00737C35.0367 9.18648 34.844 10.094 34.5617 9.1278C34.4441 8.72988 34.2399 8.80775 34.2216 9.25044C34.1972 9.77249 34.057 10.0302 34.0454 9.58171C34.0273 9.00796 33.2987 9.35844 33.5667 9.12876C33.8995 8.85285 33.1787 8.79887 32.7756 9.35545C32.5527 9.67142 31.5183 8.58931 31.8069 9.22208C31.8611 9.34113 31.6223 9.42155 31.5804 9.27083C31.5386 9.1201 30.9968 9.3552 30.8381 9.59691C30.7379 9.7447 30.648 9.77672 30.5111 9.71591C30.2326 9.60265 29.9086 9.96084 29.7444 9.80172C29.609 9.66992 29.2948 9.70774 29.5569 9.88907C29.767 10.0355 29.6107 10.6929 29.3814 10.3754C29.0771 9.96582 28.9401 10.6673 28.7389 9.71384C28.6603 9.35451 28.4248 9.49756 28.4612 9.62862C28.5787 10.0265 27.2267 9.04669 27.6639 9.80762C28.1083 10.5948 26.5579 9.79 26.9237 10.3449C27.0179 10.481 26.9983 10.6135 26.8646 10.7424C26.5155 11.0864 26.8435 10.5647 26.4165 10.3233C26.0834 10.1405 26.0278 9.71128 26.0085 9.92134C25.9549 10.4656 25.6506 9.80188 25.5851 9.82008C25.3128 9.88156 24.9069 9.8178 24.976 10.0668C25.0433 10.3093 24.6822 10.3813 24.632 10.2259C24.5792 10.0358 24.238 10.434 23.9577 10.3142C23.6672 10.1831 22.9791 10.5012 23.0006 10.7564C23.0271 11.0808 22.6878 11.1044 22.6285 10.7891C22.5496 10.3523 22.1953 10.7541 22.1407 10.5575C22.1025 10.4199 21.8509 10.4545 21.9266 10.7017C22.0332 11.0603 21.2397 10.2359 21.1042 10.6124C21.0489 10.7689 21.0048 10.7882 20.928 10.6895C20.8614 10.6021 20.7249 10.6189 20.5494 10.724C20.1318 10.9741 19.8581 10.4713 20.099 10.8561C20.4849 11.4831 18.9879 11.2776 19.4437 10.911C19.8592 10.5769 18.1772 10.6203 18.041 11.0958C17.9518 11.4099 17.5008 10.8787 17.1666 10.9715C16.6704 11.1163 17.5892 11.2988 17.1548 11.7935C16.8024 12.2019 16.5374 11.7814 16.5509 11.6012C16.5739 11.2772 16.1293 11.6336 16.0591 11.406C15.9918 11.1636 15.3975 11.7944 15.2964 11.4554C15.1879 11.0903 15.0601 11.4434 15.1143 11.9436C15.1746 12.4915 15.0013 12.6808 14.8703 12.209C14.7273 11.7193 14.2762 12.3316 14.3596 12.0473C14.4219 11.8394 14.1419 11.9242 14.1856 12.0814C14.2201 12.206 14.0119 12.4473 13.9005 11.843C13.7965 11.2648 13.344 10.9317 13.6005 12.2368C13.7158 12.8048 13.0123 11.6943 12.9537 11.6612C12.7276 11.5333 12.4944 12.9815 12.2618 12.8555C12.1948 12.8176 12.1974 12.7252 12.268 12.6491C12.5007 12.3939 11.8283 12.1077 12.0537 11.9534C12.5871 11.5865 11.1112 11.6857 11.5145 12.3501C11.7008 12.6654 11.529 12.6566 11.2913 12.3344C11.0999 12.077 10.6899 12.0496 10.7638 12.2903C10.9286 12.8586 9.1344 11.5569 9.33381 12.2497C9.43205 12.6036 8.88857 12.1968 8.52516 12.82C8.22147 13.3279 7.94629 13.0231 8.08101 12.8728C8.28637 12.6464 8.12475 12.5218 7.90265 12.7388C7.76902 12.8676 7.6547 12.9135 7.58882 12.8541C7.48762 12.7693 6.98051 12.6207 7.16978 12.9211C7.33502 13.1858 6.95784 13.4034 6.91599 13.2527C6.87233 13.0954 6.34369 13.3269 6.43978 13.4696C6.65416 13.7842 4.77085 14.2717 5.6449 14.5726C5.97289 14.6862 5.52802 14.7109 5.6219 15.0236C5.69831 15.2989 5.35795 15.0898 5.22067 15.3327C5.16386 15.4331 5.09833 15.4513 5.02881 15.3789C4.96948 15.3177 4.76412 15.5441 4.57185 15.8939C3.91202 17.0512 4.92011 16.9195 4.51888 17.2285C4.27931 17.408 4.48579 16.906 4.00232 16.9696C3.44495 17.0467 4.10421 17.3366 3.89411 17.5714C3.84605 17.6271 3.78744 17.5939 3.75542 17.504C3.71176 17.3467 3.1817 17.268 3.10778 17.4086C3.05571 17.5007 3.47978 17.8841 3.59774 17.8513C3.66982 17.8313 3.72843 17.8644 3.74844 17.9365C3.79575 18.1069 3.40803 18.1087 3.46188 18.2772C3.50555 18.4345 3.28237 18.5459 3.27186 18.2029C3.25155 17.6721 2.5867 18.252 3.13016 18.7858C3.67362 19.3195 3.13016 18.7858 2.8716 19.3799C2.66912 19.8455 2.76384 19.4239 2.45326 19.7289C2.16343 20.007 2.54131 20.0715 2.36144 20.2626C2.15317 20.504 2.57658 20.3511 2.56706 20.749Z" fill="#FFB077" fill-opacity="0.75"/>
</svg>
