<svg width="64" height="45" viewBox="0 0 64 45" fill="none" xmlns="http://www.w3.org/2000/svg">
<path d="M2.9287 26.7909C3.33624 26.8985 3.45837 28.1222 3.8146 27.9943C4.09622 27.8989 4.55878 27.9373 4.51131 28.1341C4.46403 28.3525 5.55936 27.8368 5.85026 28.0635C6.06578 28.2362 6.21012 27.862 6.77585 27.9522C7.33299 28.0381 7.52146 27.8152 7.51536 28.092C7.50964 28.412 8.80176 27.8874 8.5812 28.3525C8.28078 28.982 9.31097 28.8425 9.0236 28.2893C8.59913 27.4789 9.7438 28.1826 9.66356 28.3038C9.61493 28.3709 9.59048 28.5093 9.60424 28.613C9.65212 28.9438 9.84439 28.1847 10.0846 28.2406C10.2775 28.2837 10.253 28.6534 10.0568 28.7272C9.83916 28.8009 9.99202 29.1467 10.12 29.1033C10.1776 29.0838 10.3328 29.2047 10.4669 29.3689C10.8521 29.8528 11.3166 29.1388 11.2084 29.0092C11.0527 28.8234 11.2131 28.8124 11.4714 28.9851C11.8007 29.1988 11.819 29.3372 11.5283 29.3635C11.1413 29.4006 11.0922 30.1402 11.7508 29.5989C12.3265 29.1291 12.0954 29.858 12.5691 29.6975C12.8251 29.6107 12.8988 29.7231 12.7643 30C12.6993 30.1449 12.7189 30.1817 12.8513 30.1513C14.2393 29.8255 13.4502 30.3604 14.1344 30.2948C14.6111 30.2489 14.4666 30.6015 14.6841 30.2747C14.8594 30.0129 15.1254 31.0505 15.4117 30.274C15.4806 30.0771 15.5312 29.9949 15.5192 30.0857C15.4891 30.3128 16.3391 30.6103 16.508 30.835C16.7441 31.1526 16.8588 30.333 17.1843 30.5986C17.4322 30.8037 17.4905 30.3864 17.5768 30.7041C17.681 31.117 18.4628 30.4762 18.8447 30.8239C19.3669 31.312 19.1294 30.59 19.2702 30.5423C19.5518 30.4469 19.5416 31.4696 20.0147 31.2443C20.1489 31.1771 20.2773 31.177 20.2993 31.2418C20.3542 31.4039 20.9706 31.1805 21.0735 30.9577C21.1954 30.7068 21.4805 31.0005 21.3274 31.1175C21.1638 31.2452 21.2451 31.4851 21.4172 31.3401C21.6104 31.1734 22.1591 31.508 22.4249 31.3239C22.7674 31.0922 22.4062 31.6266 23.2171 31.6193C23.4889 31.6211 23.6597 31.5777 23.5994 31.5259C23.4204 31.3769 23.6942 31.3636 23.9266 31.5018C24.2515 31.7025 24.6067 30.4978 24.6792 31.1961C24.7005 31.4274 24.7867 31.4922 25.1379 31.5178C25.9516 31.5818 26.0871 31.8973 26.157 31.5772C26.2269 31.2572 27.0159 32.1536 26.807 31.516C26.7455 31.3344 26.7797 31.3301 27.04 31.4876C27.4811 31.7575 27.2858 31.455 27.7009 31.6902C27.9374 31.8197 28.0272 31.8109 28.2203 31.6226C28.6488 31.2027 28.8423 32.0263 29.5343 31.3942C29.6659 31.2773 29.6981 31.2881 29.6995 31.4394C29.6928 31.6513 30.0679 31.7266 30.214 31.547C30.2584 31.4886 30.3142 31.5058 30.3448 31.575C30.3887 31.7047 30.9388 31.4749 31.1102 31.265C31.3663 30.9468 31.3752 31.9415 32.9816 31.6284C33.1952 31.5849 33.3759 31.9285 33.5239 31.7338C33.6636 31.5563 33.6604 31.9261 33.8729 31.7529C34.079 31.5818 34.0046 31.8889 34.3737 31.7567C34.8515 31.5875 35.0007 32.0068 35.0747 31.6564C35.1875 31.105 35.7716 32.3022 35.9174 31.6166C35.9605 31.4069 36.1571 31.3764 36.2208 31.5644C36.3329 31.8951 37.1048 31.0986 37.2278 31.4617C37.4012 31.9524 37.8332 30.953 37.978 31.3593C38.0681 31.6252 38.5956 31.2657 38.6701 31.4645C38.7009 31.5553 38.7499 31.5315 38.8322 31.3952C39.0093 31.0966 39.4604 31.2907 39.3453 31.3514C39.2537 31.3969 40.2726 31.6661 40.4039 31.2746C40.4768 31.0475 40.5046 31.0453 40.6543 31.2765C40.9601 31.7367 41.3706 30.9687 41.4936 31.3318C41.5618 31.5328 41.7626 31.4937 41.8098 31.2753C41.8283 31.1823 41.9161 31.1886 42.0538 31.2793C42.2971 31.4499 42.6312 31.2355 42.5389 30.9631C42.4598 30.7297 42.6748 30.6062 42.8087 30.9801C43.081 31.7626 43.7593 30.311 43.7499 30.9359C43.7463 31.2624 43.9371 30.8146 44.2978 30.9526C44.7809 31.1359 44.6527 30.189 45.0107 30.74C45.3209 31.2132 46.626 30.7058 46.7029 30.9328C46.76 31.1014 47.069 30.7075 47.0259 30.9173C46.989 31.1033 47.2666 31.0381 47.1701 30.7744C47.1174 30.6188 47.145 30.595 47.2912 30.6684C47.5577 30.8021 47.6833 30.7306 47.602 30.4907C47.459 30.0476 47.8413 30.6916 48.1388 30.4534C48.228 30.3798 48.3972 30.3947 48.5308 30.4941C48.8409 30.7143 49.3032 30.7311 49.1215 30.5107C48.9766 30.3357 49.1318 30.2253 49.3194 30.3786C49.4573 30.4909 49.9725 30.432 49.9975 29.8741C50.0287 29.2924 50.1794 29.1474 50.2416 29.6468C50.3201 30.2997 50.8411 29.6894 50.942 29.9661C51.0299 30.2255 51.1344 29.4599 51.4851 29.6736C51.881 29.9154 52.8668 29.1186 52.9767 29.4428C53.1721 29.9983 53.2847 28.9409 53.5034 28.9969C53.7672 29.0593 53.2203 28.435 53.4642 28.439C53.7296 28.4431 53.6224 29.1373 53.936 29.031C54.2922 28.903 53.7684 27.989 54.2224 28.5074C54.5596 28.892 54.7332 28.4355 55.435 28.1905C55.6078 28.1319 55.6571 27.414 56.0066 27.7293C56.1511 27.861 56.1873 27.8415 56.2704 27.5604C56.3886 27.13 56.207 27.1626 57.071 27.5855C57.4715 27.1461 58.0857 26.4319 58.0036 26.8212C57.9175 27.2408 58.4493 26.4099 58.524 26.6304C58.5724 26.773 59.0042 26.7207 58.8003 26.4139C58.5964 26.1071 58.9177 26.3813 59.1209 25.8859C59.1942 25.7021 59.204 25.6048 59.1448 25.6827C59.0113 25.8363 58.7692 25.5641 59.3122 25.503C60.458 25.3678 59.3929 24.2251 59.8489 24.244C60.1015 24.2524 60.6905 23.1058 60.5916 22.814C60.4621 22.4531 61.311 22.6208 60.9689 22.4114C60.7366 22.2733 60.1899 22.408 60.1328 22.2394C60.0911 22.1162 61.4325 21.8423 61.148 21.6134C60.9605 21.4601 60.7515 22.0225 60.8649 21.3045C60.8952 21.0991 60.9886 21.0168 61.2196 21.0036C61.8676 20.9575 60.9261 20.2428 60.8623 19.8018C60.8256 19.525 61.072 19.3258 61.1534 19.5658C61.3004 19.9786 61.83 19.3726 61.4534 19.3773C61.2822 19.3775 61.0115 18.768 61.1587 18.7182C61.3763 18.6444 60.5625 18.3274 60.716 17.791C60.9421 16.9843 60.1085 17.3246 60.0184 17.0588C59.9832 16.955 60.0104 16.888 60.0812 16.9074C60.2206 16.9396 59.9211 16.2243 59.6711 16.7499C59.4211 17.2756 59.8172 15.3703 59.7667 15.2211C59.6919 15.0007 59.8494 15.3811 58.9621 15.2263C58.9935 15.1506 59.3128 14.4713 59.204 14.5082C59.1592 14.5234 59.1582 14.4153 59.2062 14.2833C59.2813 14.0627 59.2705 14.0519 59.0985 14.197C58.9158 14.3528 58.9114 14.3399 59.0267 14.0695C59.297 13.414 58.8705 13.5875 58.4887 13.2397C58.1284 12.9136 58.6701 12.7011 58.4165 12.5847C58.3327 12.548 58.2753 12.5891 58.2783 12.6821C58.2782 12.9135 57.9666 13.0046 57.8877 12.7928C57.7626 12.4448 58.5795 12.6234 58.0661 12.1612C57.6757 11.8092 57.4943 11.1478 57.4813 11.6148C57.4687 12.3565 56.8212 10.5301 56.445 11.0624C56.1977 11.4064 56.1379 11.4195 55.96 11.1472C55.8733 11.0176 55.7723 10.9723 55.7215 11.0329C55.5628 11.2384 55.2068 10.188 55.2006 10.6961C55.1884 11.2497 54.9097 10.4694 54.5001 10.6082C54.1865 10.7145 53.8971 9.69205 53.7404 9.8825C53.5986 10.0535 53.6299 9.72477 53.4443 9.78767C53.2778 9.84407 53.5011 10.166 53.3347 10.2224C53.1107 10.2983 53.1763 9.7339 52.9718 10.0779C52.7799 10.396 52.7936 10.0154 52.3776 10.1564C52.2048 10.2149 52.136 10.1804 52.1388 10.0204C52.1434 9.57066 51.7857 10.4943 51.6146 10.2631C51.5518 10.1832 51.458 10.2222 51.2969 10.3997C50.8858 10.8499 51.326 10.2959 51.0889 10.1015C50.8044 9.87263 50.4355 10.7422 50.0074 10.4897C49.6481 10.2717 49.9843 10.2951 49.4412 10.1033C49.1514 10.0063 48.9213 9.87463 49.2546 10.5424C49.3723 10.7844 49.2029 10.7479 48.9759 10.4778C48.5023 9.92264 48.1838 10.6884 48.139 10.7036C47.9534 10.7665 48.1345 10.4376 47.9639 10.5027C47.8039 10.5569 47.9366 10.8011 47.6575 10.9463C47.5233 11.0134 47.4567 10.9854 47.4642 10.86C47.4703 10.5832 47.22 10.8343 47.2735 10.5921C47.2961 10.4904 47.2703 10.4775 47.2089 10.5489C47.0671 10.7199 46.9318 10.4259 46.7215 10.6056C46.2628 10.9996 46.0462 9.98145 45.9542 10.4681C45.9051 10.7232 45.8923 10.7276 45.576 10.5312C45.4017 10.4167 45.3115 10.3822 45.3763 10.447C45.5446 10.6069 45.2802 10.7109 45.2011 10.4775C45.1329 10.2765 44.7079 10.3699 44.6586 10.6035C44.6422 10.6813 44.5276 10.7852 44.3932 10.8308C44.0305 10.9609 44.5536 11.3042 44.3424 11.3757C44.1312 11.4473 44.4786 11.2934 43.2999 10.6157C43.8956 12.3946 42.2263 10.206 42.4503 10.8458C42.5382 11.1052 42.1312 11.0624 41.8355 10.7794C41.2076 10.1898 41.1955 10.9963 40.7511 10.5903C40.4102 10.2793 39.9824 11.0171 39.8967 10.7642C39.8395 10.5956 39.2111 11.1628 39.1743 10.8644C39.1328 10.5315 38.5716 11.1916 38.3091 10.7962C38.0359 10.3899 37.0069 11.1435 36.7568 10.9319C36.6188 10.8196 36.1814 10.9606 36.2297 11.1032C36.2715 11.2264 35.8876 11.6096 36.0109 11.2786C36.0693 11.1142 36.0432 11.058 35.8778 10.9912C35.5385 10.8531 35.7505 11.3524 35.5275 11.3051C35.3023 11.2512 35.159 12.2179 34.9899 11.4873C34.8651 10.9295 33.9912 11.804 33.8991 11.5533C33.8222 11.3263 33.5287 11.5342 33.5504 11.8088C33.6006 12.399 32.9677 11.7316 33.2685 11.6296C33.4285 11.5754 33.3514 11.3268 33.156 11.487C33.0497 11.5736 33.0067 11.5521 33.0076 11.4072C33.0127 11.2537 32.9569 11.2364 32.7782 11.362C32.623 11.4725 32.5524 11.4747 32.5728 11.3666C32.6652 10.9232 31.9777 10.8526 32.3021 11.2414C32.3887 11.3495 32.3442 11.4079 32.1392 11.4557C31.9022 11.5143 31.8706 11.5684 31.9733 11.8083C32.1178 12.1714 31.8254 12.7404 31.6124 12.133C31.5047 11.8153 31.3761 11.7938 31.2438 12.0772C31.1808 12.207 31.1486 12.1962 31.1043 12.0233C31.009 11.658 30.7109 12.0626 30.2723 11.5896C29.5572 10.827 30.2361 12.0934 30.0984 12.2557C29.927 12.4656 29.986 11.8818 29.7838 12.0009C29.7071 12.0485 29.6532 11.9945 29.6584 11.8626C29.6593 11.7178 29.6269 11.6854 29.5571 11.7741C29.3518 12.0316 29.4447 11.1688 28.5639 11.7492C28.3533 11.8856 28.2763 11.8901 28.2215 11.7496C28.1161 11.4383 27.1698 11.8674 26.937 11.6861C26.8681 11.6299 26.8041 11.6516 26.7834 11.7381C26.7422 11.9111 26.249 12.2879 26.2797 12.1257C26.2919 12.0565 26.1624 11.9269 26.0076 11.8492C25.6121 11.6507 25.9456 11.8558 25.4422 12.0336C25.1926 12.1182 25.0292 12.0362 24.477 12.2595C23.5175 12.6497 23.6693 11.9187 22.7968 12.4602C22.3137 12.7613 22.2795 12.7656 22.2602 12.5191C22.2455 12.3073 22.1961 12.2879 21.9876 12.4308C21.6154 12.6798 21.5847 12.3577 21.3589 12.4704C21.0734 12.6177 20.9256 12.6027 20.9541 12.434C20.9807 12.3021 20.9615 12.3086 20.8837 12.4579C20.7132 12.7759 19.9377 12.6773 20.164 12.8608C20.3257 13.0012 20.0743 13.1226 19.98 12.8654C19.9316 12.7227 19.8888 12.7227 19.8066 12.859C19.6653 13.0949 19.5021 13.0345 19.5082 12.7577C19.5152 12.3361 18.9721 13.3443 18.5646 13.0052C18.3037 12.7828 18.2411 13.4402 17.8774 13.2092C17.4039 12.907 17.0399 13.6015 17.2332 13.6877C17.3278 13.7352 17.0499 14.0101 16.8926 13.8827C16.6964 13.7251 16.5586 13.8658 16.6445 14.1403C16.7414 14.4472 16.7174 14.3975 16.2846 13.8574C15.8883 14.2881 13.8487 16.1865 13.2195 16.1829C12.7551 16.1812 12.8376 16.5509 12.493 16.5447C12.3496 16.5427 12.2988 16.6033 12.3428 16.733C12.4153 16.947 12.2364 17.051 12.0979 16.8738C11.9204 16.6448 11.2472 17.7115 11.1967 17.5624C11.155 17.4392 12.0046 16.009 11.2644 16.2671C10.793 16.4341 10.4821 16.1274 10.4766 16.469C10.46 17.0096 9.06729 16.3321 9.3284 17.0605C9.4141 17.3134 8.76441 17.6493 8.88754 17.2967C8.93339 17.1583 8.91781 17.0912 8.84741 17.1151C8.50819 17.2301 8.96236 17.7701 8.64865 18.1078C8.48759 18.2853 8.44259 18.2788 8.37027 18.0865C8.27798 17.8141 7.75447 17.659 7.75877 17.9033C7.76327 18.1693 6.82992 17.647 6.77022 17.913C6.73316 18.0774 6.1108 18.5991 6.13152 18.2813C6.14765 17.9288 5.40883 18.1069 5.7178 18.6817C5.93103 19.0793 5.58295 19.8841 5.48759 19.2658C5.42156 18.8182 5.23004 19.1795 5.10058 18.8186C4.98411 18.4749 4.66945 18.7044 4.71081 18.7844C4.82832 19.0048 4.7883 19.0762 4.57574 18.9964C4.30519 18.8929 3.97133 19.129 4.16105 19.2888C4.25162 19.3665 4.22621 19.3968 4.08282 19.3948C3.68044 19.3866 4.13338 20.0283 3.699 20.0309C3.52141 20.0333 3.46457 20.1393 3.46726 20.442C3.47082 21.0842 3.89878 20.5994 3.74834 21.2504C3.68845 21.4948 3.05566 21.5646 2.86907 21.0351C2.74382 20.6655 2.73742 20.6676 2.57952 20.9597C2.43422 21.2258 2.4432 21.2734 2.64277 21.3359C2.96251 21.4371 2.90721 21.7161 3.22009 22.0077C3.55015 22.3079 3.14225 22.6413 2.89206 22.661C2.48787 22.6896 2.82186 23.1909 2.54664 23.2841C2.36103 23.347 2.44378 23.9913 2.69361 24.4127C2.84351 24.6655 2.83167 24.7779 2.63278 25.0333C2.31764 25.4509 2.52361 25.5113 2.71552 25.1932C2.80617 25.0396 2.84237 25.0201 2.81773 25.1369C2.8015 25.2364 2.83627 25.2969 2.90668 25.273C3.06669 25.2188 3.165 25.4457 2.93678 25.5303C2.40134 25.719 2.95736 26.6438 2.84911 26.2612C2.73866 25.8721 3.63455 26.0312 2.997 26.5292C2.76955 26.7002 2.75713 26.7478 2.9287 26.7909Z" fill="#FFB077" fill-opacity="0.75"/>
</svg>
