<svg width="365" height="64" viewBox="0 0 365 64" fill="none" xmlns="http://www.w3.org/2000/svg">
<path d="M362.281 28.9828C362.281 28.829 361.801 27.2967 361.641 27.2967C360.872 27.2905 362.06 25.8752 361.74 25.6783C361.272 25.3829 362.238 25.1552 362.324 25.0506C362.355 25.0137 361.143 23.9491 361.506 23.7214C361.666 23.6168 361.42 22.0906 361.512 21.9429C361.61 21.7829 361.026 21.4137 361.204 21.2414C361.783 20.6753 362.004 23.026 362.029 21.2906C362.029 21.106 360.786 20.3676 360.62 19.8814C360.367 19.1553 359.383 19.4568 359.389 19.2353C359.389 19.0691 359.081 18.6753 358.915 18.9338C358.817 19.0876 358.977 19.8691 358.484 19.3645C358.029 18.8968 358.94 18.583 358.589 18.5768C358.466 18.5768 357.795 17.9861 357.426 18.0599C356.78 18.183 357.346 17.8568 357.087 17.6907C356.921 17.5861 357.038 17.863 356.86 17.863C356.694 17.863 356.798 17.5122 356.632 17.5122C356.46 17.5122 356.564 17.863 356.417 17.8507C356.054 17.8322 356.066 17.2538 355.555 17.2784C355.112 17.303 354.897 17.1922 354.897 16.9584C354.897 16.823 354.804 16.7984 354.491 16.8538C353.746 16.983 354.312 16.583 353.974 16.3799C353.826 16.2876 353.9 16.5399 353.752 16.7738C353.592 17.0261 353.014 16.5769 353.118 16.2815C353.389 15.4569 352.097 18.5338 352.121 16.8599C352.14 15.2723 351.475 17.2292 351.254 16.2569C351.186 15.9676 350.774 15.7646 350.817 16.4169C350.872 17.3338 350.214 16.9153 350.331 16.4046C350.404 16.0907 349.531 14.5154 349.334 16.2138C349.198 17.4199 348.288 16.5707 348.774 16.1215C349.488 15.4569 347.518 14.0661 347.506 15.1738C347.5 15.7153 346.386 14.2569 347.032 15.5061C347.408 16.2261 346.786 16.7861 346.798 16.2446C346.798 16.1646 346.46 15.5369 346.46 15.4507C346.466 14.6631 345.309 16.0169 345.303 15.2723C345.303 15.0384 344.62 14.3861 344.614 14.6138C344.608 15.1246 343.322 14.6323 343.943 15.2661C344.035 15.3584 344.011 15.3953 343.863 15.3953C343.549 15.3892 343.826 15.6107 343.666 15.863C343.5 16.1215 342.823 14.0538 342.257 13.7831C341.654 13.4938 341.457 14.6077 341.297 14.2384C341.192 13.9923 340.909 14.2138 340.915 13.8569C340.922 13.5492 340.731 13.5185 340.737 13.9431C340.743 14.4107 340.183 14.3554 340.275 14.2077C340.343 14.1031 340.349 13.34 339.383 14.22C338.854 13.5861 338.719 13.4015 338.798 13.8877C338.842 14.1338 338.811 14.1769 338.595 14.1769C338.202 14.1708 338.509 12.9031 338.134 12.8969C337.955 12.8969 338.023 13.1862 337.611 13.0754C337.451 13.0323 336.749 13.1677 336.749 13.5185C336.737 14.3738 335.279 12.8908 335.42 13.0385C335.309 14.1092 334.835 13.8692 334.829 13.2846C334.823 13.0446 334.848 12.8846 334.872 12.7677C334.762 12.8108 334.589 12.8292 334.319 12.7862C333.322 12.62 333.205 12.54 333.279 13.0569C333.316 13.3338 333.014 12.9277 332.805 13.3092C332.626 13.6354 332.399 13.3954 332.589 13.0569C332.965 12.38 332.128 11.8939 332.171 12.3985C332.208 12.8785 331.328 12.3739 331.322 12.4354C331.322 12.5831 330.805 12.7369 330.891 12.2877C331.076 11.3154 330.023 13.3277 331.106 13.7708C331.599 13.9738 330.22 14.0661 330.429 13.5431C330.479 13.42 329.513 12.8846 329.617 12.2816C329.777 11.3462 328.885 12.4416 329.069 12.9462C329.168 13.2108 328.657 13.1923 328.645 12.9215C328.639 12.8046 328.608 12.78 328.577 12.8662C328.479 13.1123 328.306 13.0262 328.189 12.6631C327.943 11.9246 326.774 12.3677 326.996 11.6969C327.168 11.1677 326.479 11.8016 326.553 12.0046C326.645 12.2508 326.349 12.3185 326.189 12.0908C325.531 11.1677 326.423 13.6723 325.802 13.66C325.74 13.66 325.673 12.5708 325.494 13.2723C325.402 13.6477 325.365 12.9215 324.953 12.78C324.368 12.5831 325.069 12.3616 324.953 11.9062C324.842 11.5 324.565 12.78 324.239 12.1954C324.146 12.0231 324.11 12.0231 323.931 12.1769C323.346 12.6815 322.657 11.5246 322.873 13.3338C323.026 14.5954 322.503 14.22 322.522 12.5892C322.528 11.8385 321.833 12.3246 321.833 11.9123C321.839 11.6231 321.703 11.2908 321.365 11.5862C320.891 12.0046 321.051 11.3093 320.651 11.5246C320.313 11.7093 320.27 11.3708 320.596 11.137C321.42 10.5462 319.987 10.6077 320.122 11.4446C320.227 12.0723 319.746 11.5493 319.746 11.2477C319.753 10.6385 319.002 11.5062 319.451 11.6846C320.073 11.9308 319.033 12.8477 319.045 11.6231C319.051 11.1062 318.35 11.5677 318.436 11.8139C318.565 12.2139 318.067 11.6046 317.747 11.6846C317.279 11.8016 317.839 11.137 317.383 10.9462C316.99 10.7862 317.26 9.59852 316.602 10.1893C316.14 10.6077 317.002 10.3247 317.217 11.2231C317.303 11.5923 316.147 11.5062 316.14 12.0539C316.122 13.7523 315.494 11.1 315.937 10.577C316.22 10.2447 315.42 10.2385 315.519 10.3985C315.605 10.54 315.205 10.737 315.303 10.9031C315.408 11.0816 315.088 10.8108 314.817 11.0631C314.51 11.3523 313.962 10.6016 313.802 10.9954C313.691 11.2846 313.784 10.4047 313.285 10.3677C310.842 10.2016 311.87 8.77392 311.42 9.44468C311.328 9.58621 311.291 9.5739 311.174 9.37698C310.99 9.06314 309.433 12.1831 310.036 9.82621C310.202 9.18622 309.605 10.2631 309.273 9.9862C309.082 9.82621 309.076 9.84467 309.144 10.3062C309.242 11.0139 308.547 11.2354 308.288 10.7062C308.036 10.1893 308.147 10.1524 307.519 10.9277C306.473 10.257 306.202 9.70929 306.122 9.91236C305.987 10.2754 305.365 9.80775 305.316 9.85698C305.15 10.0231 305.925 10.4354 305.15 10.3062C304.516 10.2016 304.688 10.7431 304.467 10.3924C304.104 9.82005 304.701 9.99236 304.701 9.83851C304.688 9.33391 302.116 8.85392 303.248 8.40469C303.808 8.18316 303.138 8.29392 303.242 8.29392C302.861 8.28162 302.953 7.7524 302.467 8.23239C302.202 8.49084 302.424 9.11237 301.802 8.9093C301.568 8.83545 300.621 7.91855 300.584 7.95547C300.534 8.0047 300.805 8.36162 300.731 8.54623C300.498 9.12468 299.156 8.35546 298.239 7.24163C298.455 8.30008 297.433 8.01085 297.125 7.6724C296.411 6.89087 296.522 8.55238 296.307 8.55238C295.452 8.54007 294.99 7.46317 294.984 7.79547C294.978 8.17085 292.775 8.53392 292.781 7.75855C292.787 7.34625 291.772 7.38317 291.975 7.63547C292.412 8.18316 291.224 8.93391 291.015 8.58315C290.639 7.96778 291.445 7.5924 290.984 7.37086C289.802 6.79856 289.045 8.34931 288.775 8.34931C288.412 8.34315 288.849 7.30933 288.455 7.00779C288.085 6.72472 287.956 7.23548 287.439 7.14317C287.285 7.11241 287.655 8.22623 286.91 8.21393C286.073 8.20162 286.935 7.81393 286.467 7.28471C286.141 6.91549 286.559 6.70626 286.172 6.7001C286.042 6.7001 285.913 6.61395 285.876 6.51549C285.839 6.39857 284.184 6.89087 284.135 7.08164C283.809 8.31854 283.347 5.35859 282.43 6.25088C281.913 6.75549 281.636 5.35859 280.806 5.66628C280.436 5.80166 280.547 5.21705 279.95 5.6232C279.193 6.13396 279.932 6.09088 279.932 6.39857C279.926 6.97702 279.187 6.18319 279.046 6.56472C278.923 6.89087 278.27 6.79241 278.787 5.96781C279.292 5.16782 278.393 4.86629 278.043 6.14627C277.759 7.1801 276.252 3.88784 276.233 5.3832C276.221 6.48472 275.273 4.94013 275.212 6.25088C275.089 8.73084 272.646 8.04777 273.347 5.81397C273.661 4.81706 272.676 5.51243 272.006 5.3709C272.098 5.42628 273.815 6.33088 272.689 6.31857C272.35 6.31242 272.332 6.39242 272.566 6.71241C272.824 7.06318 272.769 7.14317 272.295 7.1001C271.427 7.0201 272.369 6.6878 271.415 5.69089C270.424 4.65706 271.569 5.56782 271.753 4.89706C271.963 4.1463 271.433 4.78629 271.335 4.7186C270.553 4.22015 270.978 5.48166 270.35 5.43859C269.827 5.40166 269.667 5.08782 269.79 5.42628C269.889 5.69704 269.95 6.39857 269.667 6.39857C269.323 6.39242 269.846 6.71857 269.84 7.06318C269.833 7.51855 268.984 6.89087 268.775 6.9401C268.603 6.98318 268.172 5.14321 267.95 5.35243C267.606 5.67243 267.981 7.29702 267.243 6.41703C266.978 6.10319 266.96 6.09704 266.953 6.32473C266.947 6.93395 266.227 6.18319 266.609 5.9555C266.904 5.7832 265.981 5.30936 265.975 5.84473C265.969 6.30626 264.954 7.61086 265.175 6.82318C265.292 6.40473 264.344 6.62626 264.997 5.98012C265.403 5.58012 264.769 5.43243 265.077 5.33397C265.526 5.18628 264.8 4.75552 264.818 4.73091C265.089 4.3063 264.277 4.71244 264.166 4.71244C263.47 4.70629 264.597 5.70935 264.043 5.6232C263.981 5.61089 262.886 6.81703 262.892 6.2755C262.904 5.40782 262.289 5.26013 261.797 5.56782C260.695 6.26934 260.966 3.18632 260.387 5.29705C260.314 5.57397 260.769 5.22321 260.511 5.8755C260.283 6.44165 260.012 5.58012 259.729 5.80166C259.224 6.20165 258.818 5.05705 259.169 5.19244C259.292 5.24167 260.104 5.82627 259.643 5.00782C259.218 4.24476 260.012 4.83552 260.012 4.51553C260.018 3.95553 259.058 4.71244 258.461 4.26322C258.166 4.04169 258.48 3.29708 258.006 3.82015C257.827 4.01707 257.821 4.04784 257.981 4.14015C258.24 4.28784 258.086 5.27244 257.821 5.16167C257.028 4.82321 257.224 5.00782 257.391 5.20474C257.52 5.35859 257.551 5.45705 257.471 5.45705C257.384 5.45705 257.36 5.54935 257.403 5.69089C257.569 6.23857 256.751 6.87241 256.751 6.49703C256.751 6.35549 256.203 5.84473 256.006 5.65397C256.289 5.43243 256.88 5.11859 256.074 4.94013C255.495 4.8109 255.858 4.16476 255.255 4.75552C254.929 5.07552 255.126 5.10628 254.424 4.44168C254.498 4.76167 254.874 5.42013 253.76 5.02629C252.406 4.54629 253.2 5.03244 252.628 5.28474C252.209 5.46936 251.323 4.57706 251.514 5.09398C251.668 5.50628 250.923 5.05705 250.898 5.07552C250.566 5.40782 252.271 5.77089 251.951 6.07242C251.84 6.17704 250.554 6.10319 250.695 6.50318C250.8 6.79856 250.48 6.54011 250.308 6.54011C250.289 6.54011 250.634 5.96165 250.265 5.96165C250.074 5.96165 250.061 6.70626 249.754 6.58318C249.434 6.45395 249.686 7.00164 249.452 6.99548C249.391 6.99548 248.492 5.94935 248.868 5.6232C249.508 5.06936 248.652 3.60477 248.603 4.29399C248.511 5.67243 247.378 6.15858 247.772 6.15858C248.123 6.16473 247.957 6.48472 247.569 6.54011C247.003 6.62011 246.782 4.98936 246.449 4.98321C246.271 4.98321 246.64 6.61395 245.748 5.76474C245.323 5.35859 245.545 4.44783 245.452 4.7186C245.262 5.26628 244.966 4.28168 244.548 4.35553C244.154 4.42322 244.345 4.73091 244.092 4.72475C243.415 4.7186 244.628 5.09398 244.498 5.24167C244.295 5.46936 244.726 5.58012 244.486 5.71551C244.369 5.7832 243.539 5.33397 243.729 5.64781C243.926 5.97396 242.806 5.60474 243.575 4.57706C243.945 4.07861 244.148 3.9863 242.985 4.84783C242.499 4.3063 242.474 4.23245 242.234 4.40476C242 4.57706 241.975 4.5586 242.609 4.76167C243.022 4.8909 241.957 5.22936 242.972 5.56782C243.748 5.82627 241.705 7.1801 242 5.6232C242.222 4.42937 240.314 4.65706 241.268 4.07861C241.797 3.75246 241.305 3.62939 241.015 3.9063C240.905 4.01092 239.834 4.55245 240.511 4.5586C240.935 4.56475 239.988 5.97396 240.585 5.39551C241.015 4.97706 240.935 5.56166 241.28 5.66012C241.489 5.71551 241.508 5.75243 241.372 5.83858C241.231 5.93089 241.231 5.98012 241.397 6.17088C241.957 6.81087 241.04 6.34934 240.899 6.20781C240.591 5.90012 240.499 6.87856 240.8 6.87856C240.935 6.87856 240.855 7.10625 240.542 7.02625C240.185 6.93395 240.474 6.41703 240.068 6.15242C239.655 5.88166 240.308 4.46629 239.594 5.11859C238.892 5.76474 238.609 4.07861 238.603 4.87244C238.597 5.2109 237.945 5.18628 238.006 4.73091C238.056 4.36168 237.969 4.32476 237.674 4.58937C237.206 5.00782 237.397 4.40476 237.169 4.3986C236.954 4.3986 236.972 4.98936 236.326 4.47245C236.209 4.37399 234.868 3.93092 234.985 4.21399C235.126 4.56475 234.585 4.86013 234.899 5.06936C235.243 5.3032 234.548 5.2109 234.788 5.67858C236.062 8.18316 234.105 5.26013 234.062 6.35549C234.031 7.13087 233.028 6.79856 233.446 6.47857C233.6 6.36165 233.619 6.29396 233.514 6.25088C233.046 6.04781 233.945 5.8632 234.012 5.97396C234.302 6.46626 234.554 4.82937 233.766 5.43243C233.249 5.83243 234.099 4.5586 234.117 4.54629C234.382 4.42322 233.976 4.46014 233.976 4.17092C233.982 3.82015 232.265 6.49088 233.243 4.3186C233.385 3.99861 232.437 2.8294 232.653 3.51246C232.776 3.91861 231.945 3.67246 231.563 3.494C230.296 2.9094 231.194 4.3063 231.2 3.74015C231.206 3.16785 232.819 4.49706 231.988 4.50322C231.366 4.50937 231.846 4.90321 231.336 4.89706C230.936 4.8909 229.336 5.26628 229.477 4.56475C229.526 4.31245 229.803 4.23245 229.797 4.4786C229.797 4.68168 230.979 4.7186 230.628 3.80169C230.554 3.61708 230.529 3.61092 230.388 3.77708C230.154 4.04784 230.049 4.00476 230.117 3.67246C230.253 3.01401 229.686 3.61092 229.68 3.94323C229.674 4.58937 228.819 3.71554 228.757 3.70938C228.603 3.70938 228.72 4.01092 228.406 4.08476C228.246 4.12169 228.197 4.20168 228.246 4.33707C228.308 4.50937 228.283 4.51552 228.08 4.40476C227.126 3.88784 228.037 4.68168 227.926 4.78629C227.539 5.16782 226.413 4.02323 226.88 4.3063C227.262 4.54014 227.446 3.494 226.806 3.62323C226.486 3.69092 225.926 2.81709 225.736 3.30939C225.717 3.36477 224.727 3.19247 224.517 3.4017C224.339 3.58016 224.788 4.12169 224.437 4.12169C223.687 4.11553 224.007 3.24785 223.385 3.23555C222.807 3.22324 222.659 3.86938 222.234 3.25401C221.963 2.86017 221.834 3.30939 221.89 3.53093C222.05 4.17707 221.12 3.17401 221.12 3.04478C218.08 1.02635 220.573 3.29093 219.231 3.78323C218.887 3.9063 219.084 2.89709 218.357 2.9094C217.976 2.91555 217.988 2.94017 218.437 3.0817C219.028 3.27247 217.434 3.95553 217.404 3.35862C217.379 2.84786 217.287 4.22014 216.745 4.07246C216.444 4.02938 216.444 4.03553 216.61 4.3063C216.819 4.64475 216.647 5.35243 216.302 4.17707C216.056 3.34016 215.951 0.681741 216.007 4.8786C215.348 4.53399 215.121 4.38014 215.114 4.8909C215.114 5.11244 214.357 5.4632 214.357 5.02013C214.364 4.57091 214.591 4.87244 214.597 4.50322C214.597 4.44168 212.807 4.02938 213.668 4.57706C214.308 4.98321 213.434 4.82937 213.428 5.3709C213.428 5.53089 214.222 5.67243 214.277 5.82012C214.357 6.0355 213.065 6.55857 213.084 5.42628C213.09 4.97706 212.191 4.79244 212.647 5.26013C212.874 5.49397 212.622 5.99242 212.511 5.98012C212.173 5.94935 211.841 3.77708 211.588 3.77092C211.527 3.77092 211.662 4.4663 211.434 4.4663C211.01 4.46014 211.182 3.59246 210.837 4.04784C210.579 4.3863 210.788 4.67552 210.308 5.37705C209.798 6.12165 209.711 3.28478 210.204 3.29093C210.653 3.29708 210.702 2.79863 208.37 2.42325C208.37 2.54017 208.247 3.71554 207.97 2.96478C207.841 2.61402 207.718 3.15555 207.459 2.89094C207.182 2.60786 207.225 4.18322 207.385 4.18938C207.527 4.18938 208.179 4.8909 207.693 4.8909C207.422 4.88475 207.779 5.88781 207.299 5.2909C207.213 5.18013 206.142 4.71244 206.148 4.29399C206.148 4.06015 206.61 4.53399 206.61 4.30014C206.616 3.83246 205.81 3.48785 205.804 3.27247C205.804 3.01401 205.355 2.26941 205.348 3.14939C205.336 4.10938 203.471 1.63557 202.665 2.20172C202.419 2.37402 202.296 2.41094 202.265 2.31248C202.155 1.97403 201.933 2.92786 201.404 2.5771C201.127 2.39248 200.955 2.41094 200.948 2.63248C200.948 2.89709 201.699 2.76786 201.57 3.26016C201.496 3.54323 202.548 3.64785 202.13 4.01707C201.761 4.34937 200.758 3.99861 200.696 4.01707C200.462 4.09707 202.087 4.93398 201.601 5.22936C201.435 5.32782 201.742 6.07242 201.293 5.61089C200.961 5.27244 200.678 6.31242 200.524 4.87244C200.413 3.86938 199.373 1.85095 199.496 1.37096C199.724 0.503283 198.998 2.20787 198.807 1.18635C198.585 0.0171368 199.059 2.86632 198.148 2.02941C198.019 1.91249 196.942 2.40479 197.539 2.63863C197.675 2.69402 197.687 2.73709 197.576 2.86632C197.275 3.22939 198.228 3.734 197.515 3.72169C194.505 3.68477 196.985 2.36787 195.829 2.04172C195.447 1.93095 195.041 5.56166 194.801 4.44168C194.727 4.09092 194.081 4.82937 194.265 4.25091C194.389 3.87554 194.05 4.10322 193.859 4.02938C192.579 3.53708 193.773 5.19244 193.404 5.17398C192.967 5.14936 193.127 4.71244 192.825 4.62629C192.616 4.57091 192.579 4.50322 192.635 4.29399C192.832 3.53093 191.632 4.31245 192.173 4.86013C192.819 5.51243 191.786 5.52474 191.946 5.26628C192.346 4.62629 189.626 3.67246 190.641 3.30939C191.022 3.17401 190.53 2.8294 190.382 3.08786C190.069 3.64169 190.216 2.81709 189.441 2.87247C188.475 2.94017 188.838 3.14939 188.949 3.14939C189.41 3.15555 189.459 3.85092 189.459 3.85092C190.038 3.85707 189.342 4.8109 189.299 4.92167C189.213 5.15551 188.13 4.30014 188.758 4.3063C188.819 4.3063 188.733 3.0017 188.278 3.91861C187.742 5.01398 187.256 3.05093 186.647 5.08167C186.573 5.32782 186.992 5.3709 187.25 5.14321C187.57 4.86013 187.65 5.03244 187.373 5.41397C187.01 5.91243 187.429 5.85704 187.416 7.01395C187.392 9.37083 185.767 7.40163 186.413 7.40779C186.832 7.41394 185.786 4.12169 186.13 3.87554C186.61 3.53093 186.112 2.58325 186.099 3.32785C186.081 4.93398 185.103 2.15249 184.659 2.52171C184.333 2.79248 183.675 2.4171 183.669 2.79863C183.669 3.05709 184.019 2.74325 184.013 3.0017C183.995 3.63554 183.361 3.19247 183.398 3.62323C183.466 4.48476 180.906 1.94326 180.715 2.55248C180.604 2.91555 180.438 2.87247 180.364 2.46633C180.278 1.99864 179.675 1.99864 179.872 2.32479C180.155 2.79248 179.373 3.70323 179.207 2.99555C179.146 2.74325 178.598 2.28787 178.561 2.71863C178.512 3.28478 178.764 3.74631 177.958 3.30939C177.429 3.02632 177.287 3.22324 177.33 2.86632C177.398 2.33095 176.518 2.83555 176.66 2.18941C176.764 1.69096 174.007 1.11866 174.955 2.19556C175.078 2.3371 175.097 2.40479 174.998 2.40479C174.9 2.40479 174.918 2.46017 175.041 2.5894C175.687 3.26016 174.364 2.74325 174.303 2.74325C174.013 2.73709 174.321 1.78942 174.038 1.8448C173.977 1.85711 173.367 0.829431 173.552 1.46327C173.706 2.0048 172.998 1.42019 172.893 1.6048C172.61 2.0971 172.524 1.46327 172.217 1.73403C172.112 1.82634 171.712 3.42631 170.66 1.96787C170.155 1.27865 169.65 3.30939 169.884 2.93401C169.989 2.76786 170.617 3.34631 170.149 3.61708C169.687 3.88169 170.641 3.99861 170.321 4.35553C170.038 4.66321 169.306 3.16785 169.318 3.05709C169.398 2.31248 168.407 2.79248 168.863 2.26325C169.189 1.88172 168.272 2.60171 168.278 2.20787C168.278 2.02941 167.915 2.17095 168.014 1.91249C168.167 1.5248 167.743 0.626358 167.755 1.5925C167.767 2.36787 166.186 2.2571 165.915 2.52787C165.447 2.9894 165.632 1.62326 165.786 0.989429C166.026 0.0109831 163.546 0.995582 162.814 0.835585C162.444 0.755586 163.097 1.53711 162.629 1.38942C162.414 1.32173 162.383 1.35865 162.377 1.63557C162.364 2.63863 161.903 2.67555 161.909 2.12172C161.915 1.5925 161.749 1.99249 161.626 1.77711C161.183 1.00789 161.066 5.04475 159.884 4.25091C159.257 3.83246 159.921 4.15861 159.934 3.19862C159.946 2.32479 159.706 2.62632 159.706 2.93401C159.7 3.35247 158.955 2.66325 159.46 2.07249C159.663 1.83249 159.577 1.80172 159.263 1.99249C158.98 2.16479 158.414 1.78326 158.488 1.46942C158.629 0.903276 158.118 1.61711 158.186 1.99864C158.186 2.0048 157.392 1.93095 157.386 2.42941C157.38 2.9217 156.414 2.42941 156.309 2.46633C155.3 2.83555 158.328 3.23555 157.251 3.22324C156.998 3.22324 157.423 3.88169 156.986 3.75246C154.721 3.09401 156.045 2.11556 156.069 1.79557C156.149 0.823278 155.94 1.64788 155.565 1.30327C154.992 0.774047 155.725 1.94941 155.349 2.21402C154.752 2.63863 156.241 3.66631 155.528 3.46939C154.998 3.32785 155.528 4.01092 155.552 4.12169C155.657 4.54629 154.752 4.15861 154.882 4.50322C154.925 4.61399 154.512 5.3709 153.989 4.20168C153.577 3.27247 153.558 4.7186 153.257 4.21399C152.98 3.75246 153.872 3.68477 153.645 3.494C153.331 3.22939 153.558 2.94017 153.226 2.94017C152.943 2.93401 152.795 2.36787 152.992 2.02326C153.558 1.00174 151.312 2.21402 153.263 3.85707C152.709 3.85707 152.512 3.83246 152.389 3.68477C151.989 3.19247 152.106 3.82015 151.792 3.80784C151.583 3.79554 151.528 3.85092 151.534 4.06015C151.552 4.9709 150.617 3.19247 151.368 3.35247C151.805 3.44477 151.811 3.25401 151.374 3.0817C150.777 2.84786 151.269 2.34325 150.894 2.2571C150.574 2.18326 150.918 2.64479 150.432 2.87863C149.86 3.15555 150.322 3.64169 149.842 3.37708C149.639 3.26631 149.595 3.27862 149.54 3.48785C149.417 3.94323 149.134 3.34016 148.912 3.9063C148.74 4.34322 149.251 4.52168 148.851 4.52168C148.654 4.52168 148.531 4.98321 148.439 4.98321C148.402 4.98321 148.839 3.20478 148.451 3.82631C148.211 4.20784 147.922 3.62939 147.934 4.60168C147.946 5.37705 147.909 5.28474 147.226 4.94629C146.149 4.41091 146.845 5.56166 146.906 5.63551C145.146 5.82627 147.017 4.73091 145.805 4.7186C145.62 4.7186 145.54 4.64475 145.54 4.48476C145.54 4.28784 145.491 4.26322 145.226 4.3186C144.229 4.52168 145.38 2.53402 144.352 2.91555C143.989 3.05093 144.469 1.91864 143.676 1.91249C143.097 1.90634 142.236 0.404823 142.223 1.2725C142.217 1.95557 141.479 1.05097 141.171 1.40173C140.783 1.8448 141.3 3.53708 140.746 3.66631C139.866 3.87554 140.439 3.42631 140.414 2.25095L139.417 2.33095C139.774 0.540205 139.128 2.39248 138.574 1.6048C138.248 1.13712 138.574 2.34325 138.629 2.45402C138.894 2.99555 137.928 3.02632 138.063 1.83865C138.125 1.29096 137.762 1.38327 137.749 1.70942C137.725 2.45402 137.189 1.44481 136.906 1.39558C136.42 1.31558 137.38 2.34325 136.82 2.11556C136.494 1.98634 136.174 3.31554 136.039 3.06939C135.774 2.57709 136.285 1.73403 135.337 1.90018C134.74 2.0048 135.546 3.27247 135.411 3.32785C134.98 3.494 134.66 3.13093 134.654 3.53093C134.648 4.15245 136.371 4.8786 133.891 4.28168L134.556 3.85092C133.3 2.79863 134.199 2.6694 134.199 2.44787C134.199 2.21402 133.854 2.23864 133.854 2.38633C133.848 2.98324 133.214 1.41404 132.956 1.50634C132.894 1.53096 131.294 3.55554 131.3 2.64479C131.307 2.12172 130.353 2.36787 130.55 2.69402C130.863 3.21708 129.054 2.1771 129.762 2.95247C130.488 3.74015 128.968 3.90015 128.968 3.54323C128.974 3.22939 128.316 2.60171 128.47 3.23555C128.55 3.55554 127.848 4.28784 127.787 3.39554C127.688 1.99864 127.59 4.08476 127.19 3.54939C127.03 3.33401 126.605 3.10632 126.937 3.75861C127.553 4.9709 126.408 3.77092 126.267 3.38939C126.15 3.06324 125.528 3.67246 126.07 3.67862C126.347 3.68477 126.476 4.17092 125.947 4.06015C124.759 3.80784 126.95 5.08167 126.39 5.07552C125.965 5.06936 126.328 5.97396 126.162 6.16473C125.202 7.27856 125.51 6.25704 125.344 6.05396C125.085 5.72166 125.805 6.04165 125.811 5.70935C125.817 5.43859 125.177 5.65397 125.079 5.32167C124.95 4.8909 124.316 4.23861 124.611 4.24476C125.3 4.25091 124.033 3.66015 123.737 3.83861C123.467 4.00476 123.977 3.30939 123.528 3.30324C123.128 3.29708 123.571 2.78017 123.251 2.90324C122.857 3.05709 123.633 3.77092 123.06 3.59246C122.55 3.43247 122.34 3.31554 122.365 3.58631C122.414 4.08476 122.353 4.15861 122.131 3.88784C121.713 3.37708 120.697 4.18322 120.925 3.45708C121.337 2.14018 120.617 4.49091 119.694 3.24785C119.104 2.45402 119.577 4.12169 119.024 3.99246C118.501 3.86938 118.482 3.87554 118.47 4.23245C118.457 4.66937 118.396 4.52168 118.168 4.52168C117.947 4.52168 118.285 4.09092 117.971 3.974C115.965 3.21708 117.491 3.94938 117.491 4.06015C117.491 4.22014 116.501 4.10938 116.23 3.47554C116.107 3.19247 115.879 3.21708 115.879 3.51862C115.873 3.98015 115.331 3.20478 115.214 3.53093C115.184 3.61092 115.122 3.64785 115.067 3.61708C114.956 3.54939 114.938 4.68783 115.171 4.82937C115.731 5.18628 114.39 5.34013 114.654 4.93398C114.796 4.71245 113.774 3.9063 114.359 5.14936C115.159 6.85395 113.436 4.77398 113.424 5.68474C113.424 5.90627 113.202 5.90012 113.116 5.67858C113.024 5.42013 112.882 5.45705 112.796 5.75858C112.679 6.14627 112.698 5.73397 112.396 5.72781C111.59 5.71551 112.039 4.20168 112.242 5.03244C112.316 5.32167 112.507 5.34013 112.494 5.05705C112.476 4.70629 112.316 4.15245 112.298 4.37399C112.236 5.1309 111.67 3.75246 111.375 4.04784C111.313 4.10938 112.095 4.82321 111.473 4.62014C111.141 4.50937 111.325 4.78629 111.067 4.78629C110.796 4.78014 110.999 4.41706 110.698 4.44783C110.027 4.51552 109.959 4.01092 109.855 3.98015C109.547 3.88784 110.211 5.53089 110.581 5.16782C111.258 4.50322 111.147 6.74318 110.605 6.18934C110.347 5.92473 110.624 5.67858 110.205 5.61705C109.916 5.57397 109.873 5.69704 110.095 5.93089C110.205 6.05396 110.199 6.07242 110.064 6.02935C109.811 5.94935 109.608 4.98936 109.368 4.90936C109.264 4.87244 108.507 4.20784 108.919 5.00167C109.313 5.75858 108.168 7.00779 108.562 5.69089C108.79 4.92783 108.285 5.28474 108.421 4.63245C108.593 3.78938 107.141 4.51552 107.83 4.52168C108.162 4.52783 107.695 4.65091 107.793 5.19859C107.904 5.81397 106.852 5.50628 107.005 4.94013C107.098 4.61398 107.245 4.28168 107.03 4.28168C106.661 4.27553 106.796 5.3709 106.587 5.3032C106.205 5.17398 106.021 3.88169 105.768 4.13399C105.473 4.42322 106.273 5.96166 105.645 5.7955C104.175 5.40166 105.202 5.1309 105.202 5.02013C105.202 4.7986 105.03 4.8786 104.636 4.76167C104.064 4.60168 104.735 5.16782 104.298 5.39551C103.904 5.60474 104.648 5.56782 104.765 6.02935C104.987 6.89087 104.335 5.51859 103.645 6.07858C103.368 6.30626 103.202 6.14627 103.344 5.78935C103.522 5.34013 103.485 5.21705 103.245 5.43243C102.15 6.41703 101.861 4.33091 101.51 4.33091C101.159 4.32476 101.449 5.98012 101.615 5.88166C101.805 5.77089 101.516 6.74933 101.313 6.08473C101.233 5.82627 99.9778 5.35243 100.618 5.35859C101.393 5.36474 100.07 3.82015 100.033 3.92477C99.9655 4.10322 99.2824 4.15861 99.3809 3.894C99.4855 3.62323 99.2024 3.83246 98.907 3.53708C98.7409 3.37093 98.7286 3.37708 98.7286 3.64785C98.7163 4.54014 96.7471 3.22324 97.0363 3.99861C97.0855 4.12169 97.0363 4.15245 96.8763 4.10322C96.4701 3.974 96.4025 4.73706 96.2117 4.73091C95.7317 4.72475 96.0209 3.0017 95.6086 4.1463C95.4486 4.59552 95.4732 4.57091 94.8948 4.19553C94.0333 3.64169 94.3902 3.974 93.9348 4.46014C93.5163 4.90321 93.9594 4.68168 93.9594 5.01398C93.9533 5.30936 92.9871 4.96475 92.6856 5.15551C92.3225 5.3832 92.0148 4.37399 91.6887 4.77398C91.381 5.14936 91.4795 4.56475 91.1779 4.5586C91.0302 4.5586 91.0364 4.98936 91.1841 5.08167C91.3933 5.21705 91.2948 5.3709 91.0056 5.36474C90.6364 5.35859 90.5564 4.43553 90.0826 4.77398C89.5533 5.15551 88.7287 4.07861 88.9318 4.78014C88.9933 5.00167 88.9626 5.02629 88.6487 4.9709C88.058 4.8786 88.4026 5.21705 87.8734 5.2109C87.3072 5.20474 87.7811 5.77089 87.898 5.60474C87.9903 5.46936 88.4641 5.24167 88.5687 5.59243C88.778 6.26319 87.5226 5.82012 87.258 6.06012C87.2457 6.07242 87.7995 7.03241 87.3995 6.87856C87.2272 6.81087 86.7472 7.29702 86.9072 6.88472C87.018 6.6078 86.1749 6.52165 86.1749 6.41088C86.1811 6.1155 86.8026 5.24782 86.6857 5.0509C85.9595 3.85707 86.7226 5.43243 86.3042 5.42628C86.1934 5.42628 85.8488 4.95859 85.7196 4.95859C85.2642 4.95244 86.1257 5.36474 85.738 5.77704C83.7627 7.88778 83.775 3.93707 83.9288 7.48778C83.6888 7.48778 82.8765 7.48163 83.4365 7.02625C83.8304 6.70626 83.0242 4.59552 82.5319 5.06936C82.2858 5.30936 82.8642 5.35859 82.7781 5.57397C82.2611 6.86626 83.6211 6.38011 83.1288 6.86626C82.7904 7.19856 82.3781 6.40473 82.1812 7.00779C81.8919 7.86932 81.7688 6.09088 81.2089 5.86935C80.7842 5.7032 80.6242 5.89396 81.0304 6.08473C81.4119 6.26319 81.0119 7.29702 81.7012 7.39548C82.0088 7.43855 81.9781 9.29083 80.5012 6.20781C80.1566 5.48782 79.8366 5.08782 79.9843 5.55551C80.0766 5.84473 79.7812 5.98627 79.4612 5.81397C79.1166 5.62935 79.3504 6.04781 79.5412 6.04781C80.0335 6.05396 79.3196 6.7001 79.0612 6.2755C78.9689 6.12781 78.4827 6.41088 78.6858 6.74318C79.1043 7.43855 78.0212 6.59549 77.6212 7.07548C77.2274 7.54932 77.3628 7.06933 76.8766 7.06318C76.5689 7.05702 76.6489 7.57394 76.9628 7.59855C78.0335 7.6724 77.5474 8.41085 77.4366 8.47854C77.1351 8.6693 77.6951 9.05084 77.6951 9.1616C77.6951 9.19237 77.252 9.25391 77.092 9.43852C76.7412 9.84467 76.9012 9.06314 77.0243 8.94622C77.252 8.72469 75.7505 7.24779 75.7443 7.90624C75.7443 8.01701 75.2766 8.54007 75.2828 7.85701C75.2889 7.22933 74.249 7.24779 74.249 6.94625C74.249 6.78626 74.2305 6.77395 74.1443 6.90318C74.0582 7.03856 74.0028 7.02625 73.8428 6.86626C73.2767 6.2878 73.2521 8.6693 70.4336 8.20162C69.6521 8.07239 69.5352 8.60161 69.9413 8.60777C70.5383 8.61392 69.2706 9.53698 70.1136 9.44468C70.7536 9.37698 70.046 9.99851 69.9844 9.99851C69.8244 9.99851 69.5844 11.5185 69.3814 10.7C69.3567 10.5893 67.7937 9.74621 68.6675 9.75236C69.0983 9.75852 68.5752 9.59237 68.7167 9.18006C69.166 7.81393 65.4983 7.7647 65.9045 8.88468C66.2245 9.76467 64.7107 8.78007 65.3691 8.78622C65.6522 8.79238 65.4306 8.497 65.4306 8.38008C65.4306 8.26931 64.7107 8.54623 64.2922 8.31239C63.9291 8.11547 64.0276 8.417 64.1568 8.42315C64.2861 8.42315 64.3845 8.78007 64.0276 8.68161C63.8307 8.62623 63.7999 8.657 63.8491 8.84776C64.0584 9.56775 62.1015 8.28777 62.0645 9.30314C62.0461 9.7339 61.5046 9.12468 61.6522 8.54623C61.843 7.82624 61.3384 8.87853 61.0615 8.82315C59.7938 8.56469 59.4369 10.14 58.9938 9.76467C58.76 9.5616 58.6554 9.86928 58.8092 9.86928C59.1169 9.87544 58.1262 11.9492 58.04 9.76467C57.9723 8.02931 56.9139 8.75546 57.2646 9.02007C57.3815 9.10622 57.5231 9.76467 57.0431 9.93697C55.5785 10.4724 57.24 8.74315 56.6554 8.50931C56.3539 8.39238 56.2123 8.42931 56.3662 8.58315C56.5631 8.78622 56.5446 9.0693 56.3354 8.9893C55.8123 8.78007 56.4831 10.0662 55.917 10.0601C55.4862 10.0539 55.4985 10.9831 54.9508 10.417C54.6985 10.1585 55.3016 10.0539 54.9139 9.75236C54.1631 9.17391 54.5693 10.6385 53.9847 10.1462C53.8308 10.017 53.8924 9.8139 53.8616 9.82005C52.8339 9.98621 53.8247 9.26622 53.8247 9.20468C53.8124 8.97084 53.8739 9.29699 53.3016 9.39545C52.8585 9.46929 50.3663 8.50931 50.354 9.53698C50.3294 11.4631 47.6217 11.0631 47.9356 11.3031C48.6309 11.8262 46.4894 12.0846 47.0494 11.0016C47.3202 10.4785 47.0371 10.3124 46.8156 10.6016C46.5694 10.9216 47.1479 11.137 46.6063 11.2785C46.151 11.3954 46.0464 11.3585 45.9171 11.0508C45.3387 9.70929 45.7079 12.8292 45.9848 11.7769C46.2494 10.78 47.6771 12.3308 46.791 12.0969C46.5694 12.0416 46.5017 12.0662 46.5017 12.22C46.4956 12.6139 45.4433 11.8754 45.3817 12.8354C45.3079 13.9677 47.3202 13.0569 46.4033 13.7338C45.9479 14.0723 45.0987 13.4815 45.0925 13.7585C45.0925 13.8692 44.2002 13.9923 44.7479 13.5615C45.5417 12.9338 43.5972 12.7985 43.6033 12.4785C43.6095 11.9308 43.351 12.6754 43.2279 12.6323C42.7541 12.4662 42.151 12.6815 42.2495 12.4292C42.4772 11.8446 40.8895 11.7585 41.8372 12.2692C42.3972 12.5708 41.3941 13.0815 41.2341 12.8169C41.1234 12.6262 40.6495 12.8539 40.6495 13.1C40.6434 13.42 40.3049 13.2662 39.9972 13.6354C39.6218 14.0908 39.5234 13.3585 39.3142 13.7031C39.0926 14.0661 38.6742 13.1308 38.4096 13.1985C37.9357 13.3215 38.2126 12.3739 37.8865 12.4908C37.5111 12.6262 37.8803 13.1554 37.3511 13.18C36.908 13.1985 36.7727 13.1308 36.8219 13.5492C36.8773 14.0538 36.1942 14.1831 36.3727 13.5C36.6373 12.4846 35.7757 14.2692 35.5542 13.9061C35.2527 13.4138 34.8465 14.5892 34.2742 14.3246C33.6096 14.0169 34.4035 13.6477 34.5758 13.6477C35.2281 13.6538 34.3542 12.9215 34.1942 13.5185C34.1389 13.7215 33.5727 14.0538 33.6773 13.5677C33.8189 12.8723 33.0558 13.3831 33.265 13.74C33.3819 13.9369 33.3758 13.9923 33.2281 14.0477C33.0681 14.1092 33.0681 14.14 33.2035 14.3C33.8189 15.0261 33.1973 15.1184 33.1912 15.4261C33.185 15.7646 33.6158 15.703 33.6096 16.1276C33.6096 16.3861 32.9143 15.7092 33.0066 16.5523C33.0496 16.9338 31.2404 16.06 31.7943 15.8692C32.2066 15.7276 32.2373 16.3246 32.3727 15.6969C32.4773 15.2107 32.4589 15.2107 32.0097 15.4261C31.5789 15.6353 30.3543 15.1061 30.4589 15.7646C30.5081 16.0723 30.4035 15.7461 30.1574 15.943C29.4374 16.5215 30.9881 14.3123 29.6589 14.3C29.6282 14.3 29.9789 14.8784 29.9235 15.1615C29.7882 15.8138 29.4374 14.8169 29.2651 15.0938C29.1236 15.3153 28.8282 15.2292 28.8959 14.983C28.9759 14.6938 28.2128 14.38 28.4036 14.7492C28.4589 14.8538 27.6836 17.0322 27.6897 16.1584C27.6897 15.7892 27.2097 16.6876 26.8528 16.1707C26.7544 16.0292 26.4097 16.2692 26.619 16.4784C26.9328 16.7984 26.0221 17.0384 26.4282 17.1738C26.7236 17.2784 26.5759 18.2938 26.1636 17.6292C26.059 17.463 26.0528 17.4815 26.1021 17.7522C26.3482 19.0507 24.859 16.0107 25.4682 18.1891C25.7451 19.1984 23.9483 17.2045 24.1329 18.423C24.1513 18.5338 23.3206 20.1399 23.8744 19.943C24.4159 19.746 23.9729 21.1553 23.5052 20.4722C23.1175 19.906 23.1544 20.743 23.5298 21.1983C23.8313 21.5614 23.8313 21.5799 23.5975 21.6352C23.1052 21.746 23.8006 22.0414 23.5298 22.4598C22.976 23.3214 26.2805 21.9675 24.5821 23.6967C25.1605 24.0906 25.2098 24.1644 25.1175 23.8629C24.9821 23.4075 25.8559 23.8075 25.7821 24.0967C25.6159 24.706 26.1821 23.8629 26.4344 23.5983C26.5205 23.9552 26.8467 25.2106 26.4959 25.2475C27.0436 25.2413 29.1728 25.2536 27.7513 25.4383C26.1759 25.6475 27.0744 27.1244 26.3113 26.3798C26.139 26.2136 26.0159 26.7121 26.7236 26.669C27.259 26.6321 27.3574 26.7736 26.9882 27.0321C26.7544 27.1921 26.7544 27.1921 27.0436 27.3275C27.8682 27.7151 26.6313 27.8075 26.8221 28.3551C26.902 28.5828 26.6313 28.6505 25.9728 27.9182C25.3205 28.6074 25.8251 30.4659 25.0621 30.4597C25.0005 30.4597 23.0683 28.7182 23.0744 29.8197C23.0744 30.2259 23.4313 30.2013 23.4006 30.4351C23.2406 31.8874 22.576 29.4443 22.496 29.6474C22.3606 29.9736 21.3514 29.592 21.7144 30.1828C21.9237 30.5274 21.4437 30.5705 21.5914 30.8043C21.6714 30.9336 21.776 31.6905 21.4683 31.6905C21.1914 31.6843 21.1914 31.4566 21.0129 31.4566C20.7545 31.4505 21.2529 31.6166 21.0314 32.0228C20.5575 32.8966 21.3083 31.9243 21.8314 32.3551C21.936 32.4412 22.4283 30.9151 22.4529 32.3489C22.459 32.6443 22.7667 33.5243 22.016 33.032C21.056 32.3981 19.7945 33.2351 20.3914 32.5889C20.6498 32.312 20.5575 32.232 20.1822 32.4166C19.5422 32.7366 19.5052 30.5397 18.7176 30.7797C18.2437 30.9274 18.4037 30.3674 18.1022 30.7613C17.8622 31.0812 17.4437 30.3305 17.4499 30.2197C17.4499 29.9674 16.8838 30.2628 17.2591 30.6936C17.7145 31.2105 16.8591 31.0874 16.8591 30.9028C16.8591 30.6997 16.6499 30.9212 16.693 31.5305C16.7361 32.1212 16.6376 31.9243 16.2376 31.7828C15.9299 31.672 16.1515 31.0382 15.8684 31.0382C15.8068 31.0382 15.0192 31.5366 14.6499 31.1982C14.4469 31.0136 14.3053 30.3428 13.7146 30.6997C13.1484 31.0443 13.8376 31.2289 13.8315 31.5366C13.8315 31.6474 13.1115 32.1705 13.6961 32.0228C14.5084 31.8197 13.4807 32.9335 12.3669 32.4966C11.9361 32.3243 12.0531 32.8474 12.2377 32.8474C12.6623 32.8535 12.0654 33.635 11.8869 33.1304C11.8254 32.952 11.0623 32.9458 10.9577 32.6566C10.7362 32.0597 10.7115 33.112 10.2992 32.9951C9.73925 32.8351 11.2223 33.8997 10.7485 34.9335C10.5392 35.395 9.27772 33.272 9.41926 33.992C9.44387 34.115 8.83465 34.5396 8.90234 33.5366C9.03772 31.6289 8.63773 35.3581 7.02545 35.0135C6.81007 34.9704 6.74238 34.1458 6.53315 34.6689C6.45315 34.8781 5.89931 34.8781 5.90547 34.6689C5.91162 33.875 5.36394 35.4812 5.93624 35.8073C6.42854 36.0904 5.76393 35.9058 5.84393 36.4104C6.01624 37.5242 4.79779 36.4781 4.87164 36.0596C4.95779 35.5919 2.09015 35.4996 3.01936 36.3796C3.43166 36.7673 3.41935 36.9642 2.98859 36.8719C2.57014 36.7796 2.46552 36.9765 2.69321 37.4319C2.91475 37.875 2.89629 37.9857 2.60706 37.8934C2.37937 37.8196 2.36091 37.8381 2.42245 38.1088C2.54552 38.6196 1.92399 38.6688 2.60706 38.8103C3.7332 39.0442 1.49939 39.475 2.23784 40.2934C3.43166 41.6103 1.51169 40.7242 1.01939 40.718C1.78861 41.3334 1.26554 41.7641 1.12401 41.7641C0.810167 41.758 0.933241 41.9734 1.2717 42.0164C1.74554 42.078 1.7763 42.5334 1.30862 42.6257C0.674784 42.7611 0.773244 43.3457 1.13016 43.2164C1.59785 43.0503 1.58554 43.9241 1.94246 43.881C2.45322 43.8195 1.81323 44.8656 2.22553 44.7179C2.47168 44.6318 2.48399 44.8287 2.24399 45.0195C2.04707 45.1795 1.99169 45.4195 2.18245 45.3087C2.77937 44.9456 1.27785 47.0625 1.22862 46.281C1.22862 46.0472 1.16093 45.7764 1.3517 45.7764C2.14553 45.7825 0.730168 44.7487 0.416327 45.2349C0.256329 45.481 0.96401 45.2841 1.00709 46.0348C1.11785 48.0779 0.693245 46.841 0.644015 46.6133C0.397865 45.5179 0.157869 47.2225 1.01939 47.5056C1.35785 47.6164 1.41323 48.804 1.09939 48.9702C0.373251 49.3517 1.46246 49.1363 1.45631 49.4256C1.45631 49.6286 0.742475 49.5302 0.988625 49.8256C1.1917 50.0656 0.896319 50.2317 1.14862 50.2317C1.71477 50.2379 0.902473 50.9271 1.684 50.9332C2.14553 50.9394 2.05938 52.7547 2.39783 51.3701C2.52091 50.884 2.98244 50.6194 2.65629 51.5117C2.49629 51.9486 2.49629 51.9917 2.69321 52.1024C2.87167 52.2071 2.89013 52.3055 2.81013 52.6255C2.50245 53.887 3.59781 52.2809 3.57935 52.964C3.56089 53.7024 4.76087 54.1332 4.75472 54.7055C4.74241 55.7824 9.59156 57.3516 8.86542 58.0654C8.52081 58.4039 9.69002 58.01 9.70848 58.41C9.71464 58.527 9.74541 58.5516 9.78233 58.4716C9.97925 57.9916 10.5331 58.8531 10.7915 58.5085C11.2715 57.8623 11.3515 58.9146 11.3823 58.8531C11.6285 58.3362 12.1577 59.2531 12.3607 58.9454C12.5146 58.7116 12.9761 59.2223 13.1423 59.4192C13.45 59.7823 12.9946 58.7916 13.3638 58.6439C13.6776 58.5208 13.5484 58.8408 13.8192 58.8469C14.373 58.8531 13.4315 59.53 13.9607 59.37C14.3976 59.2408 13.9915 59.8623 14.5761 59.8069C14.8099 59.7823 14.8961 59.8254 14.8961 59.9546C14.8899 60.4592 15.1115 59.7762 15.4192 59.9792C15.6961 60.1577 15.7084 60.1577 15.7084 59.9362C15.7145 59.3146 16.2868 60.0038 16.3607 59.8377C16.4468 59.6346 16.7545 59.6592 16.7545 59.8623C16.7545 60.09 16.9822 60.1331 16.9884 59.7639C17.0007 58.5885 18.3606 61.5607 18.3668 60.5761C18.373 60.0162 18.7483 60.8715 19.0683 60.8715C19.4314 60.8777 19.0314 60.2931 19.4806 60.2992C19.7822 60.3054 19.4622 60.8285 19.8683 60.73C20.2068 60.65 20.0899 61.0438 20.2006 60.6623C20.3729 60.0654 20.9083 60.4408 20.6929 60.6992C20.4652 60.9761 20.9698 61.1177 21.2406 61.05C21.7206 60.9269 21.1914 60.6069 21.5544 60.3177C21.8006 60.1269 22.0529 60.6008 22.059 60.7177C22.059 60.7423 23.259 60.8961 22.9821 61.2161C22.6806 61.5546 23.2036 61.6715 23.2221 60.9454C23.2344 60.5085 23.6836 60.9146 23.6159 61.0808C23.5052 61.3638 24.0036 61.0069 24.3298 61.3331C24.6313 61.6284 25.0744 61.0131 25.0682 61.4623C25.0682 61.69 25.2959 61.6961 25.3021 61.4623C25.3021 61.2407 25.4928 61.2284 25.579 61.4684C25.8128 62.1084 26.1759 60.6008 26.379 61.4192C26.5205 61.9977 26.9451 60.7546 27.942 61.7577C28.2374 62.0592 28.3359 62.1023 28.3913 61.9669C28.5205 61.6346 28.7113 61.8992 29.3266 62.1515C29.5789 62.2561 30.0466 62.0777 30.2189 62.4777C30.4158 62.933 30.742 62.7361 30.7481 62.1577C30.7604 61.1915 31.4866 62.9884 31.6712 62.9884C31.8743 62.9884 31.6035 62.5884 31.7758 62.693C32.8773 63.3823 32.422 62.133 32.9635 62.25C33.2896 62.3177 33.3327 62.3115 33.2158 62.1823C32.582 61.5054 33.985 61.6777 33.8373 62.5515C33.7573 63.0376 33.8558 63.1484 34.1081 62.8469C34.7604 62.0715 34.4958 63.3638 34.8958 63.1546C35.1973 62.9946 35.2588 63.0069 35.2527 63.21C35.2527 63.4069 35.6281 63.5299 35.5296 63.0992C35.4127 62.5823 36.0342 62.9761 35.9111 62.65C35.825 62.4223 36.3542 62.2192 36.2311 62.5269C36.0588 62.9453 37.4926 62.9207 37.025 62.6192C36.8403 62.5023 37.148 62.0284 37.7511 62.3546C38.1511 62.57 38.1634 62.5946 37.9296 62.7115C37.1111 63.1361 38.6372 63.1915 38.2311 62.49C37.8742 61.8746 38.9695 61.813 39.1111 62.373C39.1603 62.5761 39.148 62.7423 39.1049 62.8715C39.1357 62.8407 39.1665 62.81 39.2095 62.7792C39.5418 62.49 40.3172 63.2715 40.4341 63.1607C38.9265 61.53 41.1664 62.7607 42.6249 62.773C42.8895 62.7792 42.7541 62.373 42.4772 62.33C41.9418 62.25 42.1326 60.6623 42.7726 60.7361C43.2833 60.7977 43.6156 61.5361 43.2033 61.69C42.7418 61.8623 43.2526 62.3361 43.2587 61.9115C43.2587 61.7269 43.7018 61.5731 43.8002 62.0961C44.0095 63.2407 44.3233 60.7177 45.2341 61.53C45.831 62.0592 46.6063 61.8807 46.6063 62.7177C46.6063 63.1853 47.4863 62.7792 47.554 62.6684C47.7079 62.4346 48.6186 62.933 48.7786 62.6684C48.9017 62.4653 50.6801 62.2069 50.5078 62.89C50.4401 63.1669 51.2893 62.3669 51.0863 63.1115C51.0001 63.4253 51.154 63.2961 51.5047 63.1607C51.8063 63.0438 51.7386 63.5669 52.2247 63.3884C52.4032 63.3207 52.5078 62.4161 53.1416 63.0684C53.6585 63.5976 53.4308 62.4346 53.7878 62.4407C53.9539 62.4407 53.9908 62.3853 53.9539 62.213C53.8493 61.7761 55.597 61.6715 54.9016 62.41C54.3108 63.0376 54.9816 63.1976 55.0493 62.6746C55.1047 62.213 55.7877 62.2623 55.9416 62.4223C56.5631 63.0561 56.1077 61.893 56.5877 61.8992C57.2954 61.9054 56.6493 63.4315 57.3385 62.9761C57.9046 62.6007 57.4862 62.2561 57.6092 62.0592C57.7692 61.8007 58.44 62.4223 58.5261 62.17C58.6061 61.9361 59.0123 62.0223 59.0123 62.2807C59.0061 62.5577 59.2031 62.5823 59.4738 62.3361C59.8246 62.0223 60.8338 62.73 60.3661 62.2007C59.8615 61.6284 60.4707 61.7884 60.5507 61.5792C60.7353 61.0684 61.0676 62.4838 61.2707 62.7977C61.4553 63.0807 61.9476 62.7115 61.6522 62.5946C60.9138 62.3054 62.2799 60.2685 62.2676 61.61C62.2615 62.0592 62.4092 62.3115 62.5445 62.09C62.7722 61.7269 62.9199 63.3453 63.2707 62.8284C63.5784 62.373 64.5137 63.6161 64.9814 63.6223C65.3445 63.6284 64.563 62.8653 65.9906 62.8407C66.8645 62.8284 67.4737 61.9915 67.4614 62.7238C67.4552 63.0253 67.7075 63.1361 67.6829 62.9453C67.5783 62.1207 68.2614 62.8284 68.4029 62.0961C68.5075 61.5731 69.1352 61.813 69.2275 61.9546C69.3752 62.1823 69.2706 61.5177 69.449 61.4131C69.9106 61.1361 68.0583 60.3669 68.9198 60.1454C69.5906 59.9731 69.0675 60.1331 69.7137 60.6561L70.0706 60.9454C69.6275 59.1054 71.4244 61.1792 71.4244 61.2838C71.4182 61.7084 70.5321 60.9023 70.4213 61.1915C70.3536 61.3761 70.409 61.0869 70.8767 62.6807C71.1352 63.5484 71.289 61.4931 71.7075 61.4992C72.1444 61.5054 71.8798 61.2469 72.1628 60.8715C72.4951 60.4285 73.3628 63.5546 73.3813 62.1577C73.3997 60.4346 75.4305 61.7454 74.6305 62.0223C74.4459 62.09 74.5936 62.3115 74.8336 62.1146C75.2274 61.7946 75.7628 63.013 75.6151 62.1884C75.4613 61.3084 77.412 62.5577 77.5966 62.5269C78.6058 62.3423 76.6243 62.3792 76.6366 61.4931C76.6428 61.1977 79.8858 60.5515 79.9473 60.5515C80.7412 60.5577 79.6089 61.0869 79.935 61.3577C80.3043 61.6654 79.5289 61.8315 79.8796 62.0592C80.1443 62.2253 81.5042 61.3577 81.4981 61.8561C81.4981 61.9115 81.4181 61.9607 81.3258 61.9607C80.6919 61.9546 81.1842 63.5115 81.5412 63.2592C82.0211 62.9269 80.9996 62.1884 81.6212 62.1946C82.255 62.2007 81.2335 61.3638 81.1535 60.3238C82.8211 60.65 81.6335 58.6993 81.5289 59.2408C81.3504 60.17 80.8396 59.0562 80.7719 59.0562C80.2181 59.05 81.2642 58.4469 80.9689 58.2562C80.5627 57.9977 82.3596 57.3024 81.9842 57.8993C81.7319 58.2993 82.5504 59.0192 82.5504 58.3608C82.5504 57.7331 82.575 57.6654 82.735 57.727C82.9011 57.7947 83.1904 57.5362 83.3196 57.1977C83.5534 56.6193 84.6119 57.6039 83.9042 57.5485C83.4181 57.5116 83.3934 58.1885 83.5288 58.4408C84.0765 59.4808 83.0673 59.1116 82.9258 59.5362C82.8581 59.7331 83.258 59.5854 83.2519 59.6592C83.2519 59.6839 82.9011 59.8808 82.9688 60.1823C83.0242 60.4162 82.9996 60.4592 82.8519 60.4038C82.7042 60.3485 82.6673 60.41 82.6611 60.7115C82.655 61.4931 83.6088 60.1515 83.8796 60.6131C83.9965 60.8038 83.4242 61.2715 83.8796 61.1054C84.0088 61.0561 84.0457 61.0808 83.9965 61.1669C83.9473 61.2408 83.9842 61.3023 84.0765 61.3023C84.415 61.3084 83.775 60.4346 84.9873 60.6931C85.5226 60.81 85.3565 60.3485 85.6211 60.7054C85.8303 60.9884 85.818 61.0377 85.4919 61.1792C84.2857 61.7146 87.1472 61.8192 86.8334 61.2284C86.5749 60.7423 87.6888 60.8285 87.6211 61.2961C87.5595 61.7207 89.0426 61.5607 88.2118 61.29C87.898 61.1854 87.7318 60.0039 87.6949 59.9423C87.4426 59.53 89.141 60.7546 89.1472 60.2746C89.1533 59.9792 88.7718 60.1885 88.8764 59.9115C88.9995 59.5854 89.4918 60.0531 89.498 59.69C89.5164 58.3485 90.4087 59.8869 90.4825 59.8992C91.0672 60.0162 90.981 59.1423 90.6733 59.2346C90.1441 59.3946 90.2487 58.4716 90.1995 58.4039C89.8364 57.9547 90.6795 58.207 90.6302 58.6439C90.5872 59.0316 91.6087 59.0931 91.6579 59.2285C91.8979 59.8746 91.9656 58.8408 92.101 58.8408C92.6979 58.8469 92.2425 59.6223 92.4025 59.9546C92.9379 61.0684 92.6856 59.5423 92.821 59.5423C93.2087 59.5485 93.1656 60.2315 93.6025 60.1577C93.8117 60.1208 94.6056 60.3546 93.1348 60.7792C92.1441 61.0684 93.5533 61.1054 93.5287 61.3208C93.4302 62.0838 93.7625 61.8746 93.7687 61.4131C93.7748 60.9023 94.4148 60.4777 94.3286 60.8838C94.1871 61.5669 95.5717 60.0838 95.3625 61.0684C95.2086 61.7823 96.1994 61.2715 95.7009 60.8961C95.2148 60.5331 96.0886 60.0531 95.3994 59.6715C94.6856 59.2777 96.1317 58.6869 96.7594 59.5546C97.0548 59.9608 96.9317 59.2039 97.0424 59.0008C97.1163 58.8716 96.304 57.8931 97.024 57.9793C98.144 58.1147 96.7532 61.3146 97.2332 61.3208C97.3501 61.3208 97.6947 60.5146 98.1317 60.5208C98.3593 60.5208 98.2055 60.2685 98.0701 60.3485C97.0855 60.9146 98.224 57.7823 98.667 58.3546C99.0055 58.7977 98.7901 58.8839 99.2086 58.9885C100.692 59.3577 99.7747 59.3946 100.661 59.8931C99.467 60.33 101.061 61.6346 101.067 60.7915C101.073 60.1946 102.064 60.6008 101.504 60.01C100.55 58.9946 102.55 60.0346 102.452 59.2654C102.402 58.8962 102.778 58.8654 102.864 59.2346C103.067 60.1023 105.608 59.6162 105.615 59.7392C105.627 60.0839 106.353 60.4285 106.255 60.0285C106.008 59.0131 107.898 60.3485 107.153 58.3423C107.042 58.047 107.424 58.1823 107.559 58.4839C107.75 58.9146 107.953 58.8593 107.916 58.3854C107.811 57.0931 108.784 58.9269 108.599 59.0316C108.273 59.2162 108.476 60.6377 107.873 60.6315C107.313 60.6254 108.119 60.1454 107.916 59.8192C107.51 59.1731 107.313 61.3084 107.707 60.9946C107.971 60.7792 108.322 61.4746 108.408 61.1915C108.71 60.2438 108.218 60.4162 108.691 59.9854C109.067 59.6408 109.165 59.6469 109.258 60.01C109.405 60.6192 110.476 59.4192 110.458 60.89C110.568 60.7792 111.313 60.09 110.581 60.0777C109.491 60.0654 112.562 59.7762 112.661 59.8069C113.11 59.9485 112.605 60.3362 112.894 60.5085C112.999 60.57 112.993 60.6192 112.876 60.6931C112.378 61.0192 114.507 61.5546 114.359 61.1177C114.285 60.9085 113.818 61.13 113.818 60.8777C113.824 60.5392 112.925 60.2377 113.448 60.2315C113.59 60.2315 113.83 60.1085 113.965 59.9792C114.507 59.45 115.627 59.8069 115.221 59.5485C115.073 59.45 115.073 59.4254 115.214 59.3331C115.596 59.0931 115.781 60.2992 116.15 59.45C116.488 58.6685 118.008 58.5146 116.857 59.6162C116.082 60.3546 116.525 60.6623 116.827 60.2808C117.454 59.4808 117.356 61.3884 117.694 60.9392C117.922 60.6377 118.445 60.7792 118.568 60.4777C118.673 60.2254 119.977 58.9454 119.282 58.4962C118.765 58.1639 119.885 57.9916 120.033 57.93C120.593 57.6962 119.319 60.0777 120.051 59.4869C120.359 59.2408 120.254 60.1638 120.661 59.9177C120.771 59.85 120.513 58.4593 120.931 58.4593C121.104 58.4593 121.104 59.1546 121.337 59.1608C121.565 59.1608 121.522 59.4316 121.251 59.6531C120.931 59.9177 120.944 60.0839 121.294 60.09C121.528 60.09 122.174 59.2346 122.18 59.7885C122.193 60.7423 124.864 60.5885 124.888 60.5269C125.036 60.1331 125.245 60.1085 125.516 60.4408C125.854 60.8592 126.156 61.1361 126.057 60.5885C125.873 59.5608 126.47 60.1146 126.464 60.4408C126.457 60.7177 128.783 60.3177 128.777 60.6992C128.777 60.8838 128.537 60.9023 128.568 60.9269C128.919 61.2838 128.894 60.3054 129.005 60.2377C129.448 59.9731 128.673 59.9915 128.673 59.77C128.673 59.5854 130.267 59.0869 129.996 59.7639C129.891 60.0223 130.623 61.05 130.636 60.1454C130.642 59.7946 131.066 60.2192 131.005 59.5546C130.987 59.3885 131.54 59.4562 131.75 59.2839C132.051 59.0377 132.439 59.9423 131.836 60.0038C131.454 60.0408 131.294 60.4346 131.657 60.4408C133.442 60.4592 132.839 57.0993 133.51 57.6777C133.651 57.7947 133.719 57.7947 133.866 57.6777C134.291 57.3454 135.325 58.8531 135.103 58.8593C136.353 58.8346 135.177 57.2408 136.113 57.2531C136.137 57.2531 136.106 59.2346 136.371 59.3331C136.605 59.4254 136.605 59.4254 136.334 59.5669C136.088 59.6962 136.082 59.7269 136.248 59.9054C136.506 60.1885 135.953 60.6069 136.494 60.6131C136.728 60.6131 136.66 59.6408 137.042 59.5362C138.076 59.2654 137.977 60.2131 138.303 59.3946C138.488 58.9269 139.596 59.2654 139.731 58.7854C139.793 58.5516 139.386 58.1639 139.565 57.5116C139.713 56.9701 140.611 57.61 140.322 57.8931C140.119 58.09 140.679 59.2408 141.331 59.1054C142.137 58.9393 142.242 60.3362 141.448 59.6039C141.072 59.2531 140.033 60.7977 140.888 60.1577C141.331 59.8254 141.669 59.85 141.405 60.1946C141.159 60.5146 141.429 60.1023 141.897 60.1085C142.494 60.1146 142.439 58.5393 142.746 59.3639C142.857 59.6715 143.454 59.45 143.017 59.8746C142.925 59.9608 143.688 60.9146 143.682 60.0654C143.682 59.5177 144.143 59.45 143.916 59.4377C143.805 59.4315 143.257 58.127 143.836 58.6316C144.008 58.7793 144.02 58.7669 143.977 58.5023C143.934 58.2439 143.971 58.207 144.223 58.2131C144.636 58.2254 144.728 59.3269 144.783 59.3269C144.999 59.3269 145.005 58.9577 145.165 59.2531C145.325 59.5485 145.577 59.4869 145.583 59.1546C145.589 58.4716 146.66 58.65 145.989 59.3269C145.7 59.6223 146.519 60.0469 146.371 59.6408C146.199 59.1546 146.789 59.8746 147.14 59.69C147.725 59.3823 147.011 59.5054 146.709 59.2654C146.297 58.9331 146.777 58.8716 146.949 59.0254C147.202 59.2408 147.386 59.0377 147.165 58.7854C146.986 58.5823 146.986 58.57 147.208 58.4531C147.774 58.1577 147.522 59.0869 147.983 58.6439C148.168 58.4716 149.085 58.4593 149.091 58.3054C149.097 58.01 147.669 58.41 148.309 57.7823C148.555 57.5362 148.008 57.45 148.34 57.1239C148.58 56.8901 148.574 56.767 148.334 56.6685C147.725 56.4285 148.906 56.5393 148.943 56.4778C149.054 56.3054 148.654 56.0531 148.734 55.9793C149.042 55.6778 148.943 56.3301 149.392 56.4531C149.989 56.6131 149.085 56.9516 149.503 57.3824C149.872 57.7639 149.559 58.0777 149.38 57.7762C149.054 57.2224 149.183 58.5023 149.546 58.5823C150.34 58.7669 149.312 59.3208 149.731 59.4869C150.063 59.6162 150.1 59.7885 149.86 60.1269C149.331 60.8592 150.432 60.1392 150.488 59.7515C150.666 58.5762 151.072 59.9792 151.331 59.1916C151.485 58.7239 151.915 59.0254 151.78 59.5116C151.638 60.0285 153.312 60.33 152.309 59.8992C151.528 59.5608 152.808 59.3146 152.02 58.6746C151.546 58.287 152.328 58.01 152.334 57.6408C152.34 57.007 153.134 58.3731 153.146 57.6962C153.152 57.2716 153.743 57.5793 153.515 57.9485C153.478 58.01 153.158 58.9208 152.789 58.687C152.642 58.5946 152.605 58.97 152.851 58.9762C153.189 58.9823 152.697 59.37 153.128 59.4746C153.435 59.5485 153.232 59.5054 153.558 60.3115C153.577 60.2438 154.248 58.9762 153.786 58.7977C153.417 58.6562 153.651 58.3116 154.075 58.7116C154.395 59.0069 154.58 58.7854 154.285 58.4593C153.694 57.8193 154.654 58.1085 154.666 57.93C154.752 56.4593 155.042 57.4931 155.749 58.0839C155.189 58.2254 155.158 58.1823 155.343 58.5454C155.448 58.7423 155.423 58.7731 155.201 58.7485C154.98 58.7239 154.937 58.7731 154.9 59.0993C154.832 59.7577 155.085 59.2162 155.435 59.5792C156.543 60.7361 155.448 58.9946 155.995 59.2162C156.395 59.3762 156.371 58.6131 156.623 59.0623C156.765 59.3146 156.949 59.2162 156.875 58.9269C156.752 58.4408 157.952 59.0685 158.118 59.4192C158.709 60.6561 158.494 59.05 158.74 59.0562C158.875 59.0562 159.263 59.7331 159.448 59.1669C159.546 58.8716 159.737 58.8777 159.737 59.1792C159.737 59.4008 160.026 59.6223 160.149 59.4992C160.531 59.1239 158.641 57.7147 159.669 57.8316C160.74 57.9547 160.229 59.1423 160.906 59.05C161.872 58.9146 160.149 59.8439 161.078 59.9854C161.22 60.0039 161.349 60.1269 161.38 60.2623C161.792 61.8807 161.491 56.9639 161.995 56.6378C162.168 56.527 162.998 56.9147 163.004 56.5762C163.011 56.2255 163.718 56.9024 164.044 56.5208C164.518 55.9608 164.247 58.4654 164.838 57.3516C165.121 56.8162 164.641 57.6777 165.158 58.0716C165.706 58.49 165.078 58.3239 165.226 58.7239C165.337 59.0254 164.697 58.6193 164.9 59.1731C164.98 59.3946 165.515 59.4377 165.534 59.2285C165.675 57.2839 166.451 58.7977 165.952 58.7916C165.447 58.7854 166.087 59.5054 166.291 59.7823C166.844 60.5331 167.811 57.967 166.943 58.7362C166.672 58.9762 166.58 58.9639 166.586 58.687C166.592 58.367 166.327 58.3793 166.426 58.2131C166.531 58.0408 166.654 58.3054 166.758 58.047C166.967 57.53 167.084 58.2747 167.14 58.1393C167.669 56.8531 168.315 59.9054 168.321 59.4131C168.315 60.0039 169.638 57.0008 169.503 58.6746C169.435 59.4869 169.952 59.0623 169.767 58.5516C169.638 58.2008 171.546 58.3854 171.361 59.1608C171.3 59.4192 171.687 59.5485 171.589 58.8408C171.564 58.6439 171.952 58.9269 172.044 59.1731C172.537 60.4962 174.346 59.9792 174.34 60.4161C174.333 60.8592 175.423 59.7208 175.484 59.7269C176.087 59.7577 175.773 60.6069 176.198 60.1946C176.346 60.0531 176.9 59.6223 176.887 60.4777C176.98 60.3546 177.472 59.93 176.844 59.4562C175.878 58.73 177.269 57.7147 177.257 58.6069C177.25 58.89 177.478 59.4131 177.484 58.8962C177.49 58.1762 178.463 58.9085 177.86 59.3392C177.349 59.7023 180.34 60.7608 180.167 58.4162C180.1 57.5239 180.549 58.5516 180.727 58.2746C180.85 58.0839 180.881 58.1454 181.343 58.6193C178.795 59.6408 182.709 58.8654 181.644 59.5054C181.349 59.6839 181.73 60.1454 181.983 59.3331C182.37 58.0962 182.623 59.7823 183.084 60.09C183.859 60.6131 183.09 59.6839 184.013 59.6531C184.45 59.6408 184.278 58.7793 184.696 58.7793C184.844 58.7793 184.893 58.8346 184.85 58.9577C184.592 59.6408 185.724 57.8931 185.804 58.7977C185.847 59.2839 186.013 59.5054 186.167 59.2654C186.247 59.1423 186.296 59.1731 186.383 59.4192C186.641 60.1208 187.398 59.4377 186.653 59.0746C185.841 58.6808 185.324 57.2777 186.069 57.7331C186.401 57.9362 186.321 57.5485 186.186 57.4685C186.038 57.3762 185.866 56.8901 186.666 57.2285C186.998 57.37 186.906 56.607 187.195 56.607C187.552 56.6131 187.102 57.1854 187.582 57.1916C187.73 57.1916 187.798 57.1485 187.749 57.0685C187.693 56.9824 187.761 56.9701 187.946 57.0254C188.998 57.3516 186.856 58.3546 187.933 58.2131C188.419 58.1454 188.672 58.5762 188.555 58.0777C188.456 57.6777 188.672 57.6962 189.084 58.1208C189.939 58.9946 189.767 57.7208 190.099 57.8747C190.247 57.9485 191.872 57.9608 191.232 58.5762C189.872 59.8869 192.739 58.4469 192.069 58.0531C191.915 57.9608 190.813 55.8378 192.327 57.0377C192.389 57.087 193.669 57.8808 193.25 58.1331C193.078 58.2377 193.176 59.3577 193.373 59.4808C193.65 59.6592 193.718 59.5915 193.533 59.3269C192.918 58.4346 194.222 57.5362 193.995 58.207C193.859 58.6131 194.635 58.6931 194.635 58.527C194.641 58.1885 194.844 58.6869 196.013 58.7854C195.859 55.5055 196.604 58.97 197.17 57.7639C197.508 57.0439 197.601 57.1362 197.773 57.7823C198.038 58.7854 198.561 57.93 200.345 58.9269C201.219 59.4131 200.302 58.6562 200.579 58.2377C200.653 58.1331 201.742 57.1177 201.539 57.8993C200.819 60.7115 203.699 58.6377 202.887 58.8346C202.591 58.9085 201.816 56.5085 202.696 57.5731C203.564 58.6316 203.108 56.5331 203.779 57.727C204.007 58.1331 204.099 58.1639 204.21 57.85C204.296 57.5977 204.561 57.5547 204.696 57.7762C205.188 58.5946 204.382 58.0408 204.376 58.5516C204.364 59.4131 205.761 59.3023 205.767 58.5577C205.773 58.2439 205.804 58.2193 206.247 58.2254C207.078 58.2377 206.647 57.7639 206.936 57.77C207.274 57.7762 206.598 58.81 207.065 58.8162C207.244 58.8162 206.985 58.5208 207.508 58.3362C208.13 58.127 207.176 57.5424 207.601 57.5424C208.456 57.5547 208.591 58.5885 208.893 58.3239C209.059 58.1762 210.518 58.5085 210.524 58.287C210.524 58.2131 210.591 58.17 210.671 58.1885C210.77 58.207 210.807 58.0962 210.788 57.8439C210.745 57.2839 211.207 57.3947 211.164 57.7639C211.114 58.1823 211.951 58.047 211.367 58.4654C211.071 58.6746 211.884 58.81 212.154 58.5762C212.684 58.1147 213.773 59.2223 215.244 58.7362C215.533 58.6377 215.004 58.2993 215.33 58.1762C215.57 58.09 215.539 57.9116 215.274 57.8377C214.887 57.7331 215.022 57.5608 215.484 57.5731C216.204 57.5977 216.524 58.3054 216.136 58.1516C215.687 57.9731 216.222 59.2592 216.517 58.7239C216.665 58.4531 216.444 58.1577 216.942 58.5085C218.308 59.4623 216.524 56.5947 217.619 57.9547C218.677 59.2654 217.736 57.5116 217.982 57.2654C218.794 56.447 218.111 57.8931 218.967 57.8193C219.816 57.7516 218.733 59.1239 218.739 58.4285C218.745 57.7947 218.314 58.89 218.493 59.0008C218.567 59.0439 218.745 58.8593 218.96 58.9208C219.324 59.0131 219.114 58.1454 219.533 58.6623C219.693 58.8654 221.939 59.2592 221.243 58.8531C220.979 58.6993 220.973 58.3731 221.237 58.4777C221.397 58.5393 221.422 58.5023 221.36 58.25C221.213 57.6224 222.56 58.0962 222.665 57.2654C222.72 56.8039 223.403 56.6808 223.6 57.1054C223.834 57.6162 223.311 57.7331 223.643 57.7393C224.13 57.7454 224.056 58.49 224.265 58.5085C224.505 58.5331 224.61 58.5146 224.677 58.7916C224.96 59.9423 224.776 57.2839 225.699 57.2962C225.76 57.2962 227.12 59.8131 228.726 58.6993C229.286 58.3116 229.828 59.3146 229.668 58.5146C229.582 58.0962 229.582 58.0962 230.068 58.3362C230.523 58.5639 231.366 58.2993 231.36 58.9023C231.354 59.2408 231.551 59.1362 231.668 58.73C231.803 58.2808 232.136 58.1823 232.376 58.527C232.671 58.9577 233.12 58.4777 233.249 58.8162C233.471 59.4008 233.594 58.5393 233.871 58.5454C234.148 58.5516 233.809 58.7669 234.173 59.0069C234.357 59.13 235.286 58.6869 235.619 58.65C236.037 58.6008 237.612 59.1608 237.619 58.7054C237.619 58.4531 238.32 58.25 238.32 58.09C238.332 57.1239 241.145 59.5977 241.668 58.7546C241.748 58.6254 241.803 58.6254 241.939 58.7423C242.074 58.8593 242.135 58.8469 242.222 58.6993C242.64 57.9977 242.954 59.6346 244.222 58.4593C244.763 57.9608 243.637 56.9393 244.806 57.5239C245.465 57.85 246.738 57.1054 245.791 57.887C245.557 58.0839 245.557 58.0839 245.877 58.3854C246.763 59.2223 246.603 55.9731 247.225 57.37C247.348 57.647 249.101 58.1146 249.169 58.1023C250.769 57.77 251.52 58.6377 251.625 58.6377C251.828 58.6377 251.692 58.1085 252.234 58.6069C252.431 58.7916 252.443 58.7854 252.443 58.4962C252.455 57.5054 253.477 59.3454 253.754 58.6069C253.846 58.3731 254.061 58.3916 254.061 58.6131C254.055 59.13 254.468 58.1454 255.071 58.6008C255.6 58.9946 255.261 57.9177 255.717 58.0654C256.246 58.2377 256.203 58.7731 256.535 58.447C258.117 56.9024 256.634 58.2685 257.778 58.0962C258.277 58.0223 258.554 58.3177 258.517 58.4162C258.24 59.1362 259.871 57.3331 259.858 58.7731C260.486 58.207 260.449 58.2008 260.615 58.4346C260.812 58.7116 261.692 58.5823 261.483 58.1762C261.354 57.9177 261.563 57.2531 261.772 57.2531C262.917 57.2531 261.975 57.3393 263.304 57.9116C264.264 58.3239 263.883 57.7393 264 57.7454C264.357 57.7577 264.56 58.5331 264.615 58.4962C264.726 58.4285 264.578 57.8193 265.083 58.287C265.754 58.9085 264.449 56.8716 265.649 57.4254C266.726 57.9177 264.824 57.9116 266.252 58.127C266.954 58.2316 266.553 57.3024 267.2 58.1516C267.415 58.4346 267.495 58.4839 267.501 58.3423C267.507 57.887 268 58.3546 268.233 58.3977C268.966 58.5331 267.673 56.5147 269.513 56.5331C270.203 56.5393 269.027 57.2224 268.793 57.2224C268.523 57.2162 268.597 57.7393 268.91 57.5731C269.064 57.4931 269.15 57.4993 269.206 57.5916C269.261 57.6839 269.329 57.6654 269.433 57.5239C269.747 57.0993 269.729 58.2316 270.32 57.6593C270.541 57.4439 270.91 57.6531 270.812 57.9423C270.726 58.1946 271.446 58.6131 271.36 58.1147C271.273 57.6285 271.741 57.9054 271.716 58.0408C271.624 58.4777 272.578 57.2162 272.332 57.9423C272.104 58.6316 272.787 57.8377 273.009 58.1331C273.224 58.4285 273.138 58.2254 273.384 57.9054C273.735 57.45 274.012 58.6069 274.184 58.17C274.412 57.6039 274.412 58.4346 274.689 58.4162C275.04 58.3916 274.609 58.4285 274.843 57.5054C276.56 59.1485 277.803 57.4685 277.981 57.967C278.067 58.2008 278.313 58.1639 278.233 58.0346C277.852 57.407 281.409 58.97 281.587 58.1762C281.679 57.77 281.772 57.7516 281.981 58.09C282.104 58.287 282.147 58.3054 282.233 58.1762C282.313 58.047 282.369 58.0654 282.522 58.287C282.769 58.65 285.889 57.647 284.615 57.6347C283.089 57.6162 284.707 55.6716 285.329 56.3116C285.575 56.5639 285.519 56.6377 285.175 56.5454C284.799 56.447 284.646 57.647 285.753 57.45C285.852 57.4316 287.273 58.17 287.889 57.9793C288.596 57.7577 288.787 57.7577 288.861 57.9608C288.953 58.2316 289.476 57.8993 289.587 58.1885C289.815 58.8039 291.618 56.9885 291.605 58.0408C291.599 58.6008 293.593 57.5608 293.747 58.0654C293.999 58.89 294.781 57.5854 295.242 58.0531C295.408 58.2254 295.427 58.2131 295.427 57.9362C295.427 57.6716 295.458 57.647 295.661 57.7577C295.968 57.9239 296.473 57.6962 296.473 57.8747C296.467 58.3177 296.978 57.6593 297.082 57.6593C297.248 57.6593 297.002 57.7454 297.175 57.9608C297.328 58.1454 297.851 58.1885 297.87 58.0162C298.036 56.7177 297.919 58.2993 300.738 57.7762C301.285 57.6716 301.507 58.7546 301.759 58.1085C301.938 57.6408 303.513 58.9085 303.544 57.5854C303.55 57.1547 304.042 57.1485 303.987 57.5977C303.913 58.1885 304.707 57.647 304.701 58.0408C304.694 58.6377 305.021 57.7577 305.347 57.7577C305.617 57.7577 305.661 58.6008 305.821 57.4747C306.11 58.0716 306.097 58.1146 306.417 57.9916C307.661 57.5116 308.288 58.5146 308.294 58.0223C308.294 57.8685 309.07 57.8747 309.162 58.0346C309.427 58.4716 309.71 57.5547 309.931 57.9608C310.319 58.6746 310.67 57.5731 310.774 57.4808C311.26 57.087 311.617 58.3177 312.251 57.93C314.03 56.8347 312.596 57.4931 312.239 55.9547C313.888 57.3085 313.187 58.1823 313.697 57.5239C313.98 57.1547 314.122 57.8562 314.454 57.8562C314.565 57.8562 317.537 56.2316 316.208 57.6654C315.888 58.01 317.094 58.01 317.094 57.8316C317.1 57.3762 318.651 57.9916 318.762 57.9485C318.983 57.8623 318.91 56.8654 319.187 57.0439C319.433 57.2039 319.537 56.5147 319.71 56.9454C319.857 57.3024 319.66 57.8685 319.87 57.7454C320.116 57.5977 320.337 58.1085 320.337 57.7577C320.337 57.6531 320.288 57.5977 320.22 57.6347C320.153 57.6716 320.103 57.6347 320.103 57.5424C320.11 57.1793 320.793 57.1485 320.805 57.7393C320.811 58.2808 321.033 57.3762 321.488 57.53C321.55 57.5485 326.528 57.9547 325.316 57.5793C324.645 57.37 325.531 57.0254 325.808 57.4562C325.931 57.6531 326.466 57.6347 326.393 57.4377C326.257 57.0747 327.334 57.6654 327.728 57.5916C328.423 57.4623 327.494 56.0347 327.9 56.0408C328.011 56.0408 328.903 58.4346 328.916 57.4439C328.928 56.5208 330.331 58.4839 330.109 57.5977C329.949 56.9639 330.805 57.5854 330.897 57.45C330.971 57.3393 331.063 57.3393 331.279 57.4439C332.048 57.807 332.116 56.8224 332.749 57.6408C332.915 57.85 332.965 57.8623 333.119 57.7393C333.309 57.5854 334.392 58.287 333.999 57.7947C333.556 57.2408 334.639 57.5239 334.645 57.5116C334.891 57.1239 335.02 57.8623 335.039 57.8623C335.248 57.8623 335.322 56.6501 336.595 57.9362C336.872 56.4778 336.872 57.85 337.519 57.7085C337.82 57.6408 337.845 57.6593 337.808 57.9116C337.74 58.3362 340.694 57.5916 341.057 57.37C341.389 57.167 340.632 57.167 340.78 56.5701C340.983 55.7393 340.983 55.6101 340.762 55.6101C340.509 55.6101 340.294 55.087 340.651 55.2039C340.811 55.2593 340.872 55.2162 340.872 55.0562C340.878 54.7609 341.851 54.7486 341.383 55.087C340.78 55.5178 342.811 55.8624 342.195 56.0839C340.971 56.527 342.725 56.1578 342.374 57.0439C342.183 57.53 342.805 58.4962 342.811 57.8377C342.817 57.2777 343.537 58.0593 343.592 57.2654C343.623 56.7793 343.045 57.2777 343.051 56.8408C343.051 56.7793 344.355 55.6408 342.885 55.2408C341.832 54.9516 342.645 53.4993 343.438 53.4193C344.183 53.3393 343.205 55.3393 343.943 55.2101C344.238 55.1609 344.245 55.1732 344.165 55.5178C344.042 56.047 344.331 55.9239 344.337 55.6532C344.349 54.6378 346.066 56.3116 346.06 56.8777C346.048 57.8193 343.709 55.5424 344.392 56.6378C344.7 57.1362 344.146 57.1977 344.454 57.3024C344.712 57.3947 344.183 57.7331 344.417 57.7393C344.491 57.7393 344.546 57.8254 344.546 57.9423C344.546 58.1023 344.577 58.0962 344.681 57.887C345.008 57.2408 345.765 57.8623 345.857 57.5239C346.097 56.6316 346.392 58.5146 346.589 57.8131C346.737 57.2716 347.401 57.7639 349.125 57.8316C349.838 57.8562 350.201 56.8408 350.368 57.37C350.411 57.5177 350.768 57.4931 350.521 57.0008C350.041 56.047 350.786 56.4285 350.644 56.1885C350.583 56.0778 349.943 56.1824 350.238 55.3639C350.404 54.8962 350.103 54.8409 350.048 55.0009C349.703 55.9978 349.303 51.8624 351.112 53.4993C351.303 53.6716 351.315 53.6655 351.315 53.3886C351.315 53.1486 351.389 53.0809 351.678 53.0132C352.331 52.8717 350.897 49.9979 351.088 49.8071C351.648 49.2594 351.857 51.284 352.257 51.1671C352.454 51.1055 352.472 51.0563 352.367 50.8102C352.263 50.5763 352.294 50.4286 352.546 49.9548C352.86 49.364 351.715 48.9394 351.715 49.2902C351.703 50.0963 350.989 48.5394 351.414 48.5456C351.561 48.5456 351.728 48.3302 351.734 48.1333C351.74 47.7702 350.029 49.0563 350.564 47.6902C350.694 47.3641 350.534 46.6318 349.457 46.6687C348.688 46.6933 349.008 46.3179 349.161 46.3179C350.651 46.3364 339.882 41.0626 339.882 41.0442C339.888 40.6872 341.038 40.718 340.454 40.5211C340.189 40.4288 340.792 39.3088 341.217 39.7396C342.005 40.5457 340.891 37.8134 341.303 37.8196C341.549 37.8196 342.688 39.4134 342.078 39.4073C341.494 39.4011 342.282 40.2072 342.922 39.838C343.445 39.5365 343.826 40.8411 343.832 40.1765C343.832 39.9426 344.183 39.9796 344.183 40.1211C344.177 40.4411 344.792 39.7211 345.032 39.8196C345.42 39.9734 345.98 38.2811 346.072 38.2257C346.269 38.1088 345.617 37.5304 345.598 38.2011C345.592 38.3181 345.02 38.2996 345.02 38.1827C345.02 37.9242 345.42 38.0165 344.977 37.5304C344.423 36.9273 344.817 36.7304 344.977 36.995C345.198 37.3642 345.648 36.8104 345.315 36.5273C344.749 36.0412 345.74 36.0596 345.734 36.3919C345.728 36.755 345.918 36.1335 346.294 36.4719C346.891 37.0135 347.998 38.0165 347.223 37.8011C346.921 37.7211 346.866 37.9981 347.309 37.8996C349.032 37.5119 347.432 37.1981 347.801 36.755C348.005 36.515 348.564 36.5089 348.441 36.0104C348.349 35.6412 348.632 35.8935 348.638 35.5304C348.638 35.3458 348.694 35.3089 348.872 35.3643C349.186 35.4627 350.115 32.5397 350.306 32.5397C350.983 32.5458 349.838 31.8935 349.844 31.4074C349.844 31.2966 351.081 29.5551 350.761 31.4382C352.011 29.8751 351.303 31.6289 351.986 31.9243C352.638 32.2012 352.195 32.5028 352.441 32.5028C353.167 32.5089 352.897 31.8197 353.137 31.3582C353.414 30.8289 352.072 29.3397 353.223 29.9674C353.961 30.3674 353.881 30.5274 353.955 30.4043C354.361 29.7643 354.38 31.512 353.789 31.912C352.651 32.6874 356.324 32.0966 356.324 31.9735C356.324 31.7582 355.407 31.5797 356.134 31.4197C357.598 31.0874 356.491 32.3243 356.847 32.4597C357.161 32.5828 357.198 32.1581 357.549 32.1581C357.906 32.1643 357.487 32.0105 357.487 31.7274C357.5 30.9274 358.847 33.0258 359.303 32.232C359.53 31.8382 361.21 32.7551 361.5 32.0228C361.66 31.6166 362.355 31.7089 362.349 32.1397C362.343 32.5704 362.478 32.5705 362.724 32.1335C363.284 31.112 362.386 31.7028 362.127 31.0505C361.567 29.629 364.324 31.4259 364.343 30.0351C364.361 29.3151 362.269 29.7766 362.281 28.9828Z" fill="#8CAD78" fill-opacity="0.6"/>
</svg>
