<svg width="298" height="268" viewBox="0 0 298 268" fill="none" xmlns="http://www.w3.org/2000/svg">
<path d="M215.087 70.3043C176.44 48.6524 123.07 76.6479 101.216 93.3521C66.8589 113.227 56.9642 118.484 50.6361 157.31C44.308 196.136 86.5997 235.038 146.492 239.879C206.385 244.719 279.32 190.683 287.278 166.077C295.236 141.471 263.396 97.3692 215.087 70.3043Z" stroke="#A7D18D" stroke-opacity="0.5"/>
<path d="M234.922 89.5068C208.435 53.998 148.292 57.8439 121.531 64.2056C82.0582 68.3739 53.8138 70.4295 32.2289 103.317C10.6441 136.205 50.5041 187.672 103.24 216.473C155.975 245.275 207.694 221.776 224.979 202.54C242.264 183.305 268.03 133.893 234.922 89.5068Z" stroke="#A7D18D" stroke-opacity="0.5"/>
</svg>
