<svg width="79" height="51" viewBox="0 0 79 51" fill="none" xmlns="http://www.w3.org/2000/svg">
<path d="M3.71113 35.824V40.224H9.50313V41.248H3.71113V46H2.52713V34.8H10.2071V35.824H3.71113ZM15.0124 37.52C16.111 37.52 16.9537 37.7973 17.5404 38.352C18.127 38.896 18.4204 39.7067 18.4204 40.784V46H17.3324V44.688C17.0764 45.1253 16.6977 45.4667 16.1964 45.712C15.7057 45.9573 15.119 46.08 14.4364 46.08C13.4977 46.08 12.751 45.856 12.1964 45.408C11.6417 44.96 11.3644 44.368 11.3644 43.632C11.3644 42.9173 11.6204 42.3413 12.1324 41.904C12.655 41.4667 13.4817 41.248 14.6124 41.248H17.2844V40.736C17.2844 40.0107 17.0817 39.4613 16.6764 39.088C16.271 38.704 15.679 38.512 14.9004 38.512C14.367 38.512 13.855 38.6027 13.3644 38.784C12.8737 38.9547 12.4524 39.1947 12.1004 39.504L11.5884 38.656C12.015 38.2933 12.527 38.016 13.1244 37.824C13.7217 37.6213 14.351 37.52 15.0124 37.52ZM14.6124 45.184C15.2524 45.184 15.8017 45.04 16.2604 44.752C16.719 44.4533 17.0604 44.0267 17.2844 43.472V42.096H14.6444C13.2044 42.096 12.4844 42.5973 12.4844 43.6C12.4844 44.0907 12.671 44.48 13.0444 44.768C13.4177 45.0453 13.9404 45.184 14.6124 45.184ZM25.0251 46.08C24.1931 46.08 23.4465 45.8987 22.7851 45.536C22.1345 45.1733 21.6225 44.6667 21.2491 44.016C20.8758 43.3547 20.6891 42.6133 20.6891 41.792C20.6891 40.9707 20.8758 40.2347 21.2491 39.584C21.6225 38.9333 22.1345 38.4267 22.7851 38.064C23.4465 37.7013 24.1931 37.52 25.0251 37.52C25.7505 37.52 26.3958 37.664 26.9611 37.952C27.5371 38.2293 27.9905 38.64 28.3211 39.184L27.4731 39.76C27.1958 39.344 26.8438 39.0347 26.4171 38.832C25.9905 38.6187 25.5265 38.512 25.0251 38.512C24.4171 38.512 23.8678 38.6507 23.3771 38.928C22.8971 39.1947 22.5185 39.5787 22.2411 40.08C21.9745 40.5813 21.8411 41.152 21.8411 41.792C21.8411 42.4427 21.9745 43.0187 22.2411 43.52C22.5185 44.0107 22.8971 44.3947 23.3771 44.672C23.8678 44.9387 24.4171 45.072 25.0251 45.072C25.5265 45.072 25.9905 44.9707 26.4171 44.768C26.8438 44.5653 27.1958 44.256 27.4731 43.84L28.3211 44.416C27.9905 44.96 27.5371 45.376 26.9611 45.664C26.3851 45.9413 25.7398 46.08 25.0251 46.08ZM37.7401 42.144H30.7001C30.7641 43.0187 31.1001 43.728 31.7081 44.272C32.3161 44.8053 33.0841 45.072 34.0121 45.072C34.5348 45.072 35.0148 44.9813 35.4521 44.8C35.8895 44.608 36.2681 44.3307 36.5881 43.968L37.2281 44.704C36.8548 45.152 36.3855 45.4933 35.8201 45.728C35.2655 45.9627 34.6521 46.08 33.9801 46.08C33.1161 46.08 32.3481 45.8987 31.6761 45.536C31.0148 45.1627 30.4975 44.6507 30.1241 44C29.7508 43.3493 29.5641 42.6133 29.5641 41.792C29.5641 40.9707 29.7401 40.2347 30.0921 39.584C30.4548 38.9333 30.9455 38.4267 31.5641 38.064C32.1935 37.7013 32.8975 37.52 33.6761 37.52C34.4548 37.52 35.1535 37.7013 35.7721 38.064C36.3908 38.4267 36.8761 38.9333 37.2281 39.584C37.5801 40.224 37.7561 40.96 37.7561 41.792L37.7401 42.144ZM33.6761 38.496C32.8655 38.496 32.1828 38.7573 31.6281 39.28C31.0841 39.792 30.7748 40.464 30.7001 41.296H36.6681C36.5935 40.464 36.2788 39.792 35.7241 39.28C35.1801 38.7573 34.4975 38.496 33.6761 38.496ZM44.4044 37.52C45.1937 37.52 45.9084 37.7013 46.5484 38.064C47.1884 38.416 47.6897 38.9173 48.0524 39.568C48.415 40.2187 48.5964 40.96 48.5964 41.792C48.5964 42.624 48.415 43.3653 48.0524 44.016C47.6897 44.6667 47.1884 45.1733 46.5484 45.536C45.9084 45.8987 45.1937 46.08 44.4044 46.08C43.7004 46.08 43.0657 45.9307 42.5004 45.632C41.9457 45.3333 41.4977 44.9013 41.1564 44.336V46H40.0684V34.128H41.2044V39.184C41.5564 38.64 42.0044 38.2293 42.5484 37.952C43.103 37.664 43.7217 37.52 44.4044 37.52ZM44.3244 45.072C44.911 45.072 45.4444 44.9387 45.9244 44.672C46.4044 44.3947 46.7777 44.0053 47.0444 43.504C47.3217 43.0027 47.4604 42.432 47.4604 41.792C47.4604 41.152 47.3217 40.5813 47.0444 40.08C46.7777 39.5787 46.4044 39.1947 45.9244 38.928C45.4444 38.6507 44.911 38.512 44.3244 38.512C43.727 38.512 43.1884 38.6507 42.7084 38.928C42.239 39.1947 41.8657 39.5787 41.5884 40.08C41.3217 40.5813 41.1884 41.152 41.1884 41.792C41.1884 42.432 41.3217 43.0027 41.5884 43.504C41.8657 44.0053 42.239 44.3947 42.7084 44.672C43.1884 44.9387 43.727 45.072 44.3244 45.072ZM54.3521 46.08C53.5415 46.08 52.8108 45.8987 52.1601 45.536C51.5095 45.1627 50.9975 44.6507 50.6241 44C50.2508 43.3493 50.0641 42.6133 50.0641 41.792C50.0641 40.9707 50.2508 40.2347 50.6241 39.584C50.9975 38.9333 51.5095 38.4267 52.1601 38.064C52.8108 37.7013 53.5415 37.52 54.3521 37.52C55.1628 37.52 55.8935 37.7013 56.5441 38.064C57.1948 38.4267 57.7015 38.9333 58.0641 39.584C58.4375 40.2347 58.6241 40.9707 58.6241 41.792C58.6241 42.6133 58.4375 43.3493 58.0641 44C57.7015 44.6507 57.1948 45.1627 56.5441 45.536C55.8935 45.8987 55.1628 46.08 54.3521 46.08ZM54.3521 45.072C54.9495 45.072 55.4828 44.9387 55.9521 44.672C56.4321 44.3947 56.8055 44.0053 57.0721 43.504C57.3388 43.0027 57.4721 42.432 57.4721 41.792C57.4721 41.152 57.3388 40.5813 57.0721 40.08C56.8055 39.5787 56.4321 39.1947 55.9521 38.928C55.4828 38.6507 54.9495 38.512 54.3521 38.512C53.7548 38.512 53.2161 38.6507 52.7361 38.928C52.2668 39.1947 51.8935 39.5787 51.6161 40.08C51.3495 40.5813 51.2161 41.152 51.2161 41.792C51.2161 42.432 51.3495 43.0027 51.6161 43.504C51.8935 44.0053 52.2668 44.3947 52.7361 44.672C53.2161 44.9387 53.7548 45.072 54.3521 45.072ZM64.3834 46.08C63.5727 46.08 62.842 45.8987 62.1914 45.536C61.5407 45.1627 61.0287 44.6507 60.6554 44C60.282 43.3493 60.0954 42.6133 60.0954 41.792C60.0954 40.9707 60.282 40.2347 60.6554 39.584C61.0287 38.9333 61.5407 38.4267 62.1914 38.064C62.842 37.7013 63.5727 37.52 64.3834 37.52C65.194 37.52 65.9247 37.7013 66.5754 38.064C67.226 38.4267 67.7327 38.9333 68.0954 39.584C68.4687 40.2347 68.6554 40.9707 68.6554 41.792C68.6554 42.6133 68.4687 43.3493 68.0954 44C67.7327 44.6507 67.226 45.1627 66.5754 45.536C65.9247 45.8987 65.194 46.08 64.3834 46.08ZM64.3834 45.072C64.9807 45.072 65.514 44.9387 65.9834 44.672C66.4634 44.3947 66.8367 44.0053 67.1034 43.504C67.37 43.0027 67.5034 42.432 67.5034 41.792C67.5034 41.152 67.37 40.5813 67.1034 40.08C66.8367 39.5787 66.4634 39.1947 65.9834 38.928C65.514 38.6507 64.9807 38.512 64.3834 38.512C63.786 38.512 63.2474 38.6507 62.7674 38.928C62.298 39.1947 61.9247 39.5787 61.6474 40.08C61.3807 40.5813 61.2474 41.152 61.2474 41.792C61.2474 42.432 61.3807 43.0027 61.6474 43.504C61.9247 44.0053 62.298 44.3947 62.7674 44.672C63.2474 44.9387 63.786 45.072 64.3834 45.072ZM74.0946 41.776L72.1106 43.6V46H70.9746V34.128H72.1106V42.176L77.1346 37.584H78.5426L74.9426 41.024L78.8786 46H77.4866L74.0946 41.776Z" fill="#AB6D57"/>
<path d="M51.9005 12.2646C52.6022 15.9219 51.4948 19.2296 47.0704 22.7092C43.4756 25.5363 27.1168 26.0326 26.4928 18.1237C26.1838 14.2083 34.5168 2.67505 40.2459 2.96931C45.975 3.26358 51.0235 7.69302 51.9005 12.2646Z" fill="#AB6D57" fill-opacity="0.7"/>
<path d="M41.4872 6.49414H25.1762C24.2628 6.49414 23.5451 7.21427 23.5451 8.13083V24.4976C23.5451 25.4142 24.2628 26.1343 25.1762 26.1343H32.6793H36.594H41.4873C42.4007 26.1343 43.1184 25.4142 43.1184 24.4976V8.13083C43.1184 7.21427 42.4007 6.49414 41.4872 6.49414ZM33.3317 25.4796V18.9329H30.722V16.3142H33.3317V14.0229C33.3317 12.1571 34.7671 10.5858 36.5939 10.4222H39.5299V13.0409H36.9201C36.3656 13.0409 35.9415 13.4664 35.9415 14.0229V16.3142H39.2037V18.9329H35.9415V25.4796H33.3317V25.4796ZM42.4659 24.4976C42.4659 25.0541 42.0418 25.4796 41.4872 25.4796H36.5939V19.5876H39.8561V15.6595H36.5939V14.0228C36.5939 13.8264 36.7244 13.6955 36.9201 13.6955H40.1824V9.76748H36.5613C34.3757 9.96389 32.6793 11.8297 32.6793 14.0228V15.6595H30.0695V19.5876H32.6793V25.4796H25.1762C24.6216 25.4796 24.1976 25.0541 24.1976 24.4976V8.13083C24.1976 7.57435 24.6216 7.14882 25.1762 7.14882H41.4873C42.0419 7.14882 42.4659 7.57435 42.4659 8.13083V24.4976H42.4659Z" fill="#202020" stroke="#202020" stroke-width="0.5"/>
</svg>
