<svg width="84" height="49" viewBox="0 0 84 49" fill="none" xmlns="http://www.w3.org/2000/svg">
<path d="M2.71463 32.8H3.89863V44H2.71463V32.8ZM11.5908 35.52C12.6468 35.52 13.4841 35.8293 14.1028 36.448C14.7321 37.056 15.0468 37.9467 15.0468 39.12V44H13.9108V39.232C13.9108 38.3573 13.6921 37.6907 13.2548 37.232C12.8174 36.7733 12.1934 36.544 11.3828 36.544C10.4761 36.544 9.75608 36.816 9.22275 37.36C8.70008 37.8933 8.43875 38.6347 8.43875 39.584V44H7.30275V35.584H8.39075V37.136C8.70008 36.624 9.12675 36.2293 9.67075 35.952C10.2254 35.664 10.8654 35.52 11.5908 35.52ZM20.3869 44.08C19.7042 44.08 19.0482 43.984 18.4189 43.792C17.8002 43.5893 17.3149 43.3387 16.9629 43.04L17.4749 42.144C17.8269 42.4213 18.2695 42.6507 18.8029 42.832C19.3362 43.0027 19.8909 43.088 20.4669 43.088C21.2349 43.088 21.8002 42.9707 22.1629 42.736C22.5362 42.4907 22.7229 42.1493 22.7229 41.712C22.7229 41.4027 22.6215 41.1627 22.4189 40.992C22.2162 40.8107 21.9602 40.6773 21.6509 40.592C21.3415 40.496 20.9309 40.4053 20.4189 40.32C19.7362 40.192 19.1869 40.064 18.7709 39.936C18.3549 39.7973 17.9975 39.568 17.6989 39.248C17.4109 38.928 17.2669 38.4853 17.2669 37.92C17.2669 37.216 17.5602 36.64 18.1469 36.192C18.7335 35.744 19.5495 35.52 20.5949 35.52C21.1389 35.52 21.6829 35.5947 22.2269 35.744C22.7709 35.8827 23.2189 36.0693 23.5709 36.304L23.0749 37.216C22.3815 36.736 21.5549 36.496 20.5949 36.496C19.8695 36.496 19.3202 36.624 18.9469 36.88C18.5842 37.136 18.4029 37.472 18.4029 37.888C18.4029 38.208 18.5042 38.464 18.7069 38.656C18.9202 38.848 19.1815 38.992 19.4909 39.088C19.8002 39.1733 20.2269 39.264 20.7709 39.36C21.4429 39.488 21.9815 39.616 22.3869 39.744C22.7922 39.872 23.1389 40.0907 23.4269 40.4C23.7149 40.7093 23.8589 41.136 23.8589 41.68C23.8589 42.416 23.5495 43.0027 22.9309 43.44C22.3229 43.8667 21.4749 44.08 20.3869 44.08ZM30.391 43.488C30.1777 43.68 29.911 43.8293 29.591 43.936C29.2817 44.032 28.9563 44.08 28.615 44.08C27.8257 44.08 27.2177 43.8667 26.791 43.44C26.3643 43.0133 26.151 42.4107 26.151 41.632V36.544H24.647V35.584H26.151V33.744H27.287V35.584H29.847V36.544H27.287V41.568C27.287 42.0693 27.4097 42.4533 27.655 42.72C27.911 42.976 28.2737 43.104 28.743 43.104C28.9777 43.104 29.2017 43.0667 29.415 42.992C29.639 42.9173 29.831 42.8107 29.991 42.672L30.391 43.488ZM35.403 35.52C36.5017 35.52 37.3443 35.7973 37.931 36.352C38.5177 36.896 38.811 37.7067 38.811 38.784V44H37.723V42.688C37.467 43.1253 37.0883 43.4667 36.587 43.712C36.0963 43.9573 35.5097 44.08 34.827 44.08C33.8883 44.08 33.1417 43.856 32.587 43.408C32.0323 42.96 31.755 42.368 31.755 41.632C31.755 40.9173 32.011 40.3413 32.523 39.904C33.0457 39.4667 33.8723 39.248 35.003 39.248H37.675V38.736C37.675 38.0107 37.4723 37.4613 37.067 37.088C36.6617 36.704 36.0697 36.512 35.291 36.512C34.7577 36.512 34.2457 36.6027 33.755 36.784C33.2643 36.9547 32.843 37.1947 32.491 37.504L31.979 36.656C32.4057 36.2933 32.9177 36.016 33.515 35.824C34.1123 35.6213 34.7417 35.52 35.403 35.52ZM35.003 43.184C35.643 43.184 36.1923 43.04 36.651 42.752C37.1097 42.4533 37.451 42.0267 37.675 41.472V40.096H35.035C33.595 40.096 32.875 40.5973 32.875 41.6C32.875 42.0907 33.0617 42.48 33.435 42.768C33.8083 43.0453 34.331 43.184 35.003 43.184ZM49.7198 35.584V42.976C49.7198 44.4053 49.3678 45.4613 48.6638 46.144C47.9704 46.8373 46.9198 47.184 45.5118 47.184C44.7331 47.184 43.9918 47.0667 43.2878 46.832C42.5944 46.608 42.0291 46.2933 41.5918 45.888L42.1678 45.024C42.5731 45.3867 43.0638 45.6693 43.6398 45.872C44.2264 46.0747 44.8398 46.176 45.4798 46.176C46.5464 46.176 47.3304 45.9253 47.8318 45.424C48.3331 44.9333 48.5838 44.1653 48.5838 43.12V42.048C48.2318 42.5813 47.7678 42.9867 47.1918 43.264C46.6264 43.5413 45.9971 43.68 45.3038 43.68C44.5144 43.68 43.7944 43.5093 43.1438 43.168C42.5038 42.816 41.9971 42.3307 41.6238 41.712C41.2611 41.0827 41.0798 40.3733 41.0798 39.584C41.0798 38.7947 41.2611 38.0907 41.6238 37.472C41.9971 36.8533 42.5038 36.3733 43.1438 36.032C43.7838 35.6907 44.5038 35.52 45.3038 35.52C46.0184 35.52 46.6638 35.664 47.2398 35.952C47.8158 36.24 48.2798 36.656 48.6318 37.2V35.584H49.7198ZM45.4158 42.672C46.0238 42.672 46.5731 42.544 47.0638 42.288C47.5544 42.0213 47.9331 41.6533 48.1998 41.184C48.4771 40.7147 48.6158 40.1813 48.6158 39.584C48.6158 38.9867 48.4771 38.4587 48.1998 38C47.9331 37.5307 47.5544 37.168 47.0638 36.912C46.5838 36.6453 46.0344 36.512 45.4158 36.512C44.8078 36.512 44.2584 36.64 43.7678 36.896C43.2878 37.152 42.9091 37.5147 42.6318 37.984C42.3651 38.4533 42.2318 38.9867 42.2318 39.584C42.2318 40.1813 42.3651 40.7147 42.6318 41.184C42.9091 41.6533 43.2878 42.0213 43.7678 42.288C44.2584 42.544 44.8078 42.672 45.4158 42.672ZM53.9845 37.232C54.2512 36.6667 54.6458 36.24 55.1685 35.952C55.7018 35.664 56.3578 35.52 57.1365 35.52V36.624L56.8645 36.608C55.9792 36.608 55.2858 36.88 54.7845 37.424C54.2832 37.968 54.0325 38.7307 54.0325 39.712V44H52.8965V35.584H53.9845V37.232ZM62.1218 35.52C63.2204 35.52 64.0631 35.7973 64.6498 36.352C65.2364 36.896 65.5298 37.7067 65.5298 38.784V44H64.4418V42.688C64.1858 43.1253 63.8071 43.4667 63.3058 43.712C62.8151 43.9573 62.2284 44.08 61.5458 44.08C60.6071 44.08 59.8604 43.856 59.3058 43.408C58.7511 42.96 58.4738 42.368 58.4738 41.632C58.4738 40.9173 58.7298 40.3413 59.2418 39.904C59.7644 39.4667 60.5911 39.248 61.7218 39.248H64.3938V38.736C64.3938 38.0107 64.1911 37.4613 63.7858 37.088C63.3804 36.704 62.7884 36.512 62.0098 36.512C61.4764 36.512 60.9644 36.6027 60.4738 36.784C59.9831 36.9547 59.5618 37.1947 59.2098 37.504L58.6978 36.656C59.1244 36.2933 59.6364 36.016 60.2338 35.824C60.8311 35.6213 61.4604 35.52 62.1218 35.52ZM61.7218 43.184C62.3618 43.184 62.9111 43.04 63.3698 42.752C63.8284 42.4533 64.1698 42.0267 64.3938 41.472V40.096H61.7538C60.3138 40.096 59.5938 40.5973 59.5938 41.6C59.5938 42.0907 59.7804 42.48 60.1538 42.768C60.5271 43.0453 61.0498 43.184 61.7218 43.184ZM79.1113 35.52C80.1673 35.52 80.9939 35.824 81.5913 36.432C82.1993 37.04 82.5033 37.936 82.5033 39.12V44H81.3673V39.232C81.3673 38.3573 81.1539 37.6907 80.7273 37.232C80.3113 36.7733 79.7193 36.544 78.9513 36.544C78.0766 36.544 77.3886 36.816 76.8873 37.36C76.3859 37.8933 76.1353 38.6347 76.1353 39.584V44H74.9993V39.232C74.9993 38.3573 74.7859 37.6907 74.3593 37.232C73.9433 36.7733 73.3459 36.544 72.5673 36.544C71.7033 36.544 71.0153 36.816 70.5033 37.36C70.0019 37.8933 69.7513 38.6347 69.7513 39.584V44H68.6153V35.584H69.7033V37.12C70.0019 36.608 70.4179 36.2133 70.9513 35.936C71.4846 35.6587 72.0979 35.52 72.7913 35.52C73.4953 35.52 74.1033 35.6693 74.6153 35.968C75.1379 36.2667 75.5273 36.7093 75.7833 37.296C76.0926 36.7413 76.5353 36.3093 77.1113 36C77.6979 35.68 78.3646 35.52 79.1113 35.52Z" fill="#B29462"/>
<path d="M29.2595 10.0605C29.7913 6.05423 31.9187 3.0495 37.2372 1.04634C41.5585 -0.581223 57.1815 4.7188 55.1871 13.0653C54.1997 17.1973 42.5557 26.0858 37.2372 23.7488C31.9187 21.4118 28.5947 15.0684 29.2595 10.0605Z" fill="#B29462" fill-opacity="0.6"/>
<path d="M33.4416 23.7369C34.5894 23.8015 35.7281 23.8002 36.852 23.7989C37.0085 23.7987 37.1646 23.7985 37.3205 23.7985C37.4767 23.7985 37.6331 23.7987 37.7898 23.7989C38.9152 23.8002 40.0537 23.8015 41.1994 23.7369C42.7666 23.6604 44.2623 23.2948 45.5007 22.0521C46.7411 20.8074 47.1027 19.3101 47.1789 17.739C47.2442 16.6075 47.2425 15.4826 47.2408 14.3719C47.2406 14.1964 47.2403 14.0214 47.2403 13.8467C47.2403 13.69 47.2405 13.533 47.2407 13.3758L33.4732 23.1377M33.4416 23.7369C33.4409 23.7368 33.4402 23.7368 33.4394 23.7367L33.4732 23.1377M33.4416 23.7369C33.4424 23.7369 33.4433 23.7369 33.4441 23.737L33.4732 23.1377M33.4416 23.7369C31.8746 23.6604 30.3812 23.2973 29.1403 22.0521C27.9022 20.8098 27.5383 19.31 27.4621 17.7385M33.4732 23.1377C31.9809 23.0652 30.6588 22.7259 29.5653 21.6286C28.474 20.5336 28.1336 19.2046 28.0613 17.7072M27.4621 17.7385C27.4622 17.7393 27.4622 17.74 27.4623 17.7408L28.0613 17.7072M27.4621 17.7385C27.4621 17.7377 27.4621 17.7369 27.462 17.7361L28.0613 17.7072M27.4621 17.7385C27.3978 16.589 27.3991 15.445 27.4003 14.3168C27.4005 14.1598 27.4007 14.0031 27.4007 13.8467C27.4007 13.6903 27.4005 13.5336 27.4003 13.3766C27.3991 12.2488 27.3978 11.1064 27.4621 9.9549C27.5383 8.38362 27.8997 6.88606 29.1403 5.64125C30.3787 4.39855 31.8744 4.03296 33.4417 3.95649C34.5874 3.8919 35.7258 3.8932 36.8512 3.89448C37.0079 3.89466 37.1643 3.89484 37.3205 3.89484C37.4764 3.89484 37.6325 3.89466 37.789 3.89448C38.9129 3.8932 40.0515 3.8919 41.1993 3.95649C42.7663 4.03294 44.2598 4.39608 45.5007 5.64125C46.7388 6.88356 47.1027 8.38327 47.1789 9.95476C47.1789 9.95558 47.179 9.9564 47.179 9.95722L46.5797 9.98615L28.0613 17.7072M42.2971 9.37211H42.2964C42.0118 9.37211 41.7795 9.14198 41.7795 8.85139C41.7795 8.56079 42.0118 8.33066 42.2964 8.33066C42.5809 8.33066 42.8132 8.56079 42.8132 8.85139L42.8132 8.85214C42.8133 8.92073 42.7999 8.98862 42.7739 9.0519C42.7478 9.11517 42.7096 9.17253 42.6615 9.22073C42.6135 9.26894 42.5566 9.30705 42.4941 9.33298C42.4315 9.35892 42.3646 9.3722 42.2971 9.37211ZM37.3182 10.1278C35.2734 10.1278 33.61 11.7999 33.61 13.8467C33.61 15.8935 35.2734 17.5655 37.3182 17.5655C39.363 17.5655 41.0263 15.8935 41.0263 13.8467C41.0263 11.7999 39.363 10.1278 37.3182 10.1278ZM37.3182 18.0454C35.005 18.0454 33.1359 16.1728 33.1359 13.8467C33.1359 11.5205 35.005 9.64792 37.3182 9.64792C39.6313 9.64792 41.5005 11.5205 41.5005 13.8467C41.5005 16.1728 39.6313 18.0454 37.3182 18.0454Z" stroke="#202020" stroke-width="1.2"/>
</svg>
