<svg width="185" height="143" viewBox="0 0 185 143" fill="none" xmlns="http://www.w3.org/2000/svg">
<path d="M111.277 80.9673C112.721 80.9512 114.164 80.8713 115.598 80.9283C117.9 81.0144 120.203 81.199 122.505 81.3199C122.925 81.3425 123.389 81.3625 123.763 81.2112C124.414 80.9524 124.991 80.5359 125.551 81.3965C125.645 81.5413 126.192 81.5473 126.434 81.4246C127.978 80.6366 129.243 81.1277 130.46 82.1525C130.718 82.3739 131.142 82.5385 131.475 82.5174C133.178 82.421 134.874 82.2092 136.581 82.1357C137.227 82.1064 138.072 81.7396 138.434 82.8534C138.504 83.0723 139.579 83.1114 140.144 82.9915C141.836 82.6378 143.487 82.1127 145.183 81.7819C145.582 81.7044 146.075 82.1226 146.53 82.3142C146.521 82.4859 146.509 82.6635 146.5 82.8351C145.568 83.1088 144.651 83.5787 143.701 83.6273C140.945 83.7643 138.174 83.621 135.421 83.8013C132.799 83.9733 130.19 84.4316 127.572 84.7251C126.949 84.7993 126.305 84.7242 125.458 84.7112C125.743 84.2349 125.937 83.9239 126.366 83.2065C124.283 83.1704 122.465 83.0362 120.66 83.1246C116.502 83.3301 112.345 83.6487 108.192 83.9264C107.662 83.9629 107.103 84.2043 106.621 84.0927C106.031 83.9561 104.954 84.9407 104.845 83.4281C104.841 83.3704 104.159 83.3005 103.8 83.3319C102.278 83.4835 100.77 83.7531 99.2482 83.8206C98.1147 83.8692 96.8799 83.9243 95.8538 83.534C94.3417 82.96 92.9426 83.2546 91.4867 83.4831C90.8162 83.5865 90.0348 84.1204 89.6905 82.9648C89.6608 82.8681 89.0486 82.7996 88.8477 82.9254C86.9901 84.1074 84.9619 84.1229 82.837 84.0836C80.6363 84.0404 78.4256 84.3719 76.2198 84.5581C73.5287 84.7925 70.815 84.9471 68.144 85.3513C66.2413 85.6372 64.3966 86.2703 62.5329 86.748C62.2812 86.8103 62.0384 86.9185 61.7813 86.9435C57.7936 87.3964 53.8145 87.8458 49.8284 88.2782C46.8756 88.5988 43.8953 88.7674 40.9666 89.2314C39.0649 89.5317 37.2042 90.1861 35.3636 90.7929C32.7183 91.671 30.0566 91.3845 27.5676 90.5041C26.4214 90.0982 25.7308 88.5442 24.6649 87.7302C24.1534 87.3392 23.1607 87.1875 22.5438 87.3977C21.6227 87.7113 21.0123 87.7558 20.3021 87.0004C18.3881 84.9729 16.3895 83.0291 14.4754 81.0016C13.9723 80.4739 13.5983 79.79 13.2866 79.1254C11.8381 76.0099 10.3921 72.8885 9.01397 69.7396C7.96777 67.341 7.7324 64.8069 8.21325 62.2449C8.30992 61.7313 8.84601 61.3116 9.09784 60.8143C9.39584 60.2241 9.57921 59.5716 9.86524 58.9764C10.2326 58.205 10.6572 57.4647 10.8428 57.1078C11.6598 56.8907 12.1239 56.7424 12.6002 56.6484C12.8843 56.5927 13.3333 56.4802 13.4467 56.6122C15.6064 59.1432 18.5726 58.4564 21.2377 58.4006C26.2136 58.294 31.1805 57.7907 36.1563 57.5507C39.1989 57.4013 42.2465 57.4575 45.2955 57.36C46.0586 57.3377 46.8135 57.0173 47.5822 56.9482C48.5247 56.8682 49.4808 56.9062 50.4305 56.8924C50.4505 57.0622 50.462 57.2355 50.4821 57.4053C48.9986 57.6994 47.5126 57.9995 45.7825 58.3441C47.9322 59.5446 50.2765 59.08 51.3791 57.5166C51.6025 57.2038 52.0206 56.8467 52.368 56.8247C57.0919 56.5137 61.8152 56.2375 66.5473 56.0071C67.9993 55.9383 69.6242 55.1915 70.7621 56.8709C70.8491 56.9988 71.2556 56.9035 71.3449 56.5411C71.747 56.2053 72.1318 55.6097 72.5576 55.5856C73.8698 55.514 75.1943 55.7143 76.5113 55.7149C79.1982 55.7244 81.8926 55.716 84.5762 55.6329C88.0809 55.5238 91.5844 55.267 95.0929 55.2157C99.1185 55.1577 103.154 55.16 107.179 55.3195C110.526 55.4525 113.859 55.8676 117.202 56.0907C118.181 56.1592 119.177 55.9336 120.162 55.9553C121.099 55.9713 122.029 56.2371 122.964 56.2098C124.821 56.1645 126.669 55.9749 128.529 55.8744C129.027 55.8458 129.534 55.947 130.189 55.9983C129.942 56.4489 129.804 56.6926 129.673 56.9387C130.441 57.6063 133.237 57.255 133.816 56.4673C133.949 56.2849 134.216 56.0534 134.397 56.0738C136.061 56.2206 137.759 56.2695 139.372 56.6545C140.787 56.9911 141.939 57.1326 143.458 56.6217C145.073 56.0814 147.162 56.2739 148.842 56.7995C150.558 57.3403 151.297 57.6444 152.993 57.0961C153.596 56.9013 154.436 57.4164 155.167 57.605C155.14 57.7691 155.116 57.9417 155.089 58.1058C154.6 58.1803 154.111 58.2548 153.622 58.3293C153.606 58.4492 153.582 58.5725 153.567 58.6923C156.398 59.38 159.229 60.0676 162.163 60.7777C161.614 58.6869 160.577 58.741 155.481 58.1795C155.886 57.8522 156.078 57.582 156.329 57.5052C158.461 56.8249 160.349 57.6767 162.281 58.4416C162.758 58.6288 163.397 58.3998 163.961 58.3496C164.108 58.3345 164.273 58.1935 164.4 58.2261C165.815 58.5975 167.222 58.9868 168.788 59.4153C169.113 59.1453 169.554 58.7839 170.114 58.325C171.604 60.0053 172.547 61.9116 173.09 64.0347C173.761 66.6543 174.455 69.2694 175.082 71.6598C174.354 73.3879 173.636 75.0921 172.863 76.9275C173.405 76.9598 173.852 76.9866 174.051 77.0001C174.956 78.8972 175.801 80.6706 176.601 82.3482C175.403 83.471 174.472 83.2052 173.366 82.7881C172.459 82.4483 171.381 82.5341 170.38 82.5192C169.689 82.5021 169 82.6327 167.963 82.7217C168.57 84.0374 169.126 85.3593 169.809 86.6152C169.918 86.8084 170.63 86.6734 171.364 86.7022C171.462 86.9889 171.674 87.6047 172.015 88.5836C170.113 87.9154 168.482 87.5229 167.032 86.7854C165.407 85.9605 163.774 85.9741 162.062 86.0101C161.318 86.0196 160.568 85.6756 159.823 85.4879C159.854 85.3323 159.884 85.1767 159.917 85.0151C159.36 85.1664 158.802 85.4367 158.252 85.4222C157.911 85.4119 157.59 84.9538 157.253 84.6997C157.582 84.5367 157.904 84.2582 158.248 84.2277C160.133 84.0677 162.025 83.9738 163.917 83.8307C164.091 83.8197 164.246 83.6185 164.538 83.426C162.925 81.855 160.89 81.9376 159.019 81.6125C157.89 81.4173 156.735 81.3165 155.593 81.2496C153.492 81.1219 151.388 81.0986 149.288 80.9504C146.549 80.7645 143.813 80.4188 141.075 80.2965C138.766 80.1935 136.444 80.4219 134.137 80.3129C129.01 80.0753 123.901 79.5785 118.777 79.4683C116.271 79.4155 113.753 79.9897 111.243 80.2793C111.242 80.5172 111.26 80.7422 111.277 80.9673ZM88.7899 81.0065C91.1517 81.6369 97.7217 80.539 98.5941 79.1874C95.3232 79.7949 92.0608 80.399 88.7899 81.0065Z" fill="#F29370" fill-opacity="0.8"/>
</svg>
