<svg width="67" height="22" viewBox="0 0 67 22" fill="none" xmlns="http://www.w3.org/2000/svg">
<path d="M40.6566 15.3069C41.2299 15.3015 41.8055 15.2587 42.3716 15.2963C43.2807 15.3535 44.1856 15.4688 45.0929 15.5465C45.2585 15.5611 45.4414 15.5741 45.5965 15.4861C45.8667 15.3357 46.1146 15.0922 46.2973 15.6003C46.3279 15.6858 46.5446 15.6909 46.6461 15.6194C47.2944 15.16 47.7736 15.4526 48.2091 16.0594C48.3016 16.1904 48.4621 16.2885 48.5951 16.277C49.2749 16.2251 49.9569 16.1053 50.6373 16.0669C50.895 16.0515 51.2469 15.838 51.3393 16.4947C51.357 16.6237 51.7816 16.6498 52.0111 16.5809C52.6981 16.3775 53.377 16.0731 54.0648 15.8832C54.2266 15.8388 54.4029 16.0863 54.5744 16.2004C54.563 16.3014 54.5503 16.4059 54.5389 16.507C54.1566 16.6654 53.7716 16.9393 53.3925 16.9653C52.2934 17.038 51.201 16.9457 50.1011 17.044C49.0533 17.1378 47.9975 17.4001 46.9461 17.5653C46.6957 17.6073 46.4435 17.5612 46.1083 17.5511C46.2432 17.2716 46.3346 17.0891 46.5376 16.6681C45.7128 16.6409 44.9984 16.5567 44.2784 16.6035C42.62 16.7126 40.9571 16.8883 39.2973 17.0399C39.0857 17.0599 38.8527 17.2003 38.6669 17.1333C38.439 17.0512 37.9668 17.6277 37.9928 16.737C37.9939 16.703 37.7266 16.66 37.5831 16.6774C36.9725 16.7623 36.362 16.9167 35.7555 16.952C35.3037 16.9774 34.8115 17.0063 34.4225 16.7737C33.8492 16.4315 33.2809 16.6009 32.6931 16.7313C32.4224 16.7902 32.0881 17.1022 32.0045 16.421C31.9972 16.364 31.7576 16.322 31.6721 16.3955C30.8813 17.0859 30.0762 17.0892 29.2354 17.06C28.3647 17.0283 27.4728 17.2171 26.5895 17.3204C25.5116 17.4507 24.4284 17.5339 23.3506 17.7642C22.583 17.9271 21.8225 18.2945 21.0615 18.5703C20.9588 18.6063 20.8576 18.6693 20.7545 18.6833C19.1524 18.9384 17.5538 19.1916 15.9533 19.4348C14.7676 19.615 13.578 19.7057 12.3954 19.9705C11.6275 20.1419 10.8596 20.5217 10.1019 20.8736C9.01261 21.383 7.97022 21.2067 7.02355 20.6814C6.5876 20.4392 6.38497 19.5225 5.99962 19.0403C5.8147 18.8087 5.42798 18.7166 5.17371 18.8386C4.79408 19.0205 4.54995 19.045 4.30295 18.5983C3.63687 17.3994 2.93341 16.2496 2.26732 15.0507C2.09199 14.7386 1.97503 14.335 1.8819 13.9429C1.45028 12.1049 1.01992 10.2635 0.617776 8.40605C0.312849 6.99121 0.335671 5.49894 0.643799 3.99223C0.705678 3.69019 0.937509 3.4447 1.06017 3.15268C1.2054 2.80615 1.30803 2.4226 1.44874 2.07307C1.62977 1.62003 1.8321 1.1855 1.92206 0.975981C2.25601 0.850538 2.44681 0.764568 2.64002 0.710605C2.75524 0.678625 2.93844 0.613657 2.97737 0.69168C3.71781 2.18764 4.92557 1.79185 5.985 1.7666C7.96311 1.71806 9.95586 1.43599 11.94 1.30894C13.1535 1.22972 14.3594 1.27151 15.573 1.22279C15.8766 1.21186 16.1907 1.02541 16.4987 0.986972C16.8761 0.942553 17.2535 0.967647 17.6308 0.962237C17.6309 1.06226 17.6276 1.16427 17.6277 1.26429C17.0259 1.43318 16.4229 1.60557 15.721 1.80344C16.5185 2.51626 17.4694 2.24944 17.9783 1.33239C18.0812 1.14888 18.2634 0.939884 18.4022 0.927915C20.2898 0.758334 22.1755 0.609258 24.0626 0.487187C24.6416 0.450819 25.3202 0.015901 25.6944 1.00767C25.7231 1.0832 25.8886 1.02823 25.9406 0.815198C26.1155 0.618704 26.2954 0.269181 26.4654 0.256218C26.989 0.217837 27.5051 0.339484 28.0273 0.34361C29.0924 0.356868 30.1613 0.359624 31.2293 0.318372C32.6241 0.264196 34.0252 0.123005 35.4189 0.102835C37.0179 0.0802122 38.6181 0.0930985 40.2071 0.198498C41.528 0.286331 42.8308 0.540188 44.1465 0.681029C44.5313 0.724131 44.9369 0.594203 45.3262 0.609798C45.6971 0.621888 46.0539 0.781005 46.4257 0.767591C47.1644 0.746264 47.9059 0.639922 48.6481 0.58609C48.8469 0.570634 49.0432 0.631693 49.3005 0.663761C49.1822 0.928281 49.1163 1.07129 49.0527 1.2158C49.3268 1.61094 50.4519 1.41217 50.7175 0.950152C50.7787 0.843148 50.895 0.707651 50.9661 0.72017C51.6192 0.811343 52.2904 0.845009 52.9123 1.0762C53.458 1.27837 53.9083 1.36499 54.5339 1.06859C55.1993 0.755188 56.0187 0.874406 56.661 1.18862C57.3168 1.51184 57.5957 1.69294 58.2935 1.37504C58.5417 1.26208 58.851 1.56772 59.1321 1.6808C59.1139 1.77732 59.0967 1.87883 59.0785 1.97534C58.8811 2.0178 58.6836 2.06026 58.4862 2.10272C58.4746 2.17323 58.4596 2.24575 58.448 2.31626C59.5391 2.72909 60.6301 3.14193 61.7611 3.56828C61.6393 2.33602 61.2255 2.36493 59.2304 2.01989C59.4063 1.82839 59.4945 1.66989 59.5975 1.6254C60.4742 1.23104 61.184 1.7378 61.915 2.19356C62.0958 2.30513 62.3596 2.17216 62.5854 2.14421C62.6445 2.13573 62.7164 2.05323 62.7654 2.07274C63.3092 2.29541 63.8493 2.52859 64.4508 2.78528C64.5921 2.62728 64.7836 2.41579 65.0266 2.1473C65.5403 3.1406 65.8271 4.26538 65.9449 5.51664C66.091 7.06046 66.2465 8.60179 66.3856 10.0106C66.0176 11.0257 65.6547 12.0268 65.2639 13.1049C65.4777 13.1254 65.6535 13.1425 65.7317 13.151C66.0037 14.2703 66.2574 15.3165 66.498 16.3063C65.9712 16.9638 65.6143 16.8047 65.1947 16.556C64.8509 16.3534 64.4192 16.4008 64.0229 16.3892C63.75 16.3771 63.4707 16.4521 63.0551 16.5015C63.2359 17.2777 63.3957 18.0574 63.6088 18.7985C63.6431 18.9126 63.9316 18.8351 64.2216 18.8542C64.2471 19.0232 64.3032 19.3863 64.3936 19.9635C63.6699 19.5647 63.0412 19.329 62.4999 18.8908C61.8934 18.4006 61.2452 18.4039 60.5643 18.4203C60.269 18.4237 59.9874 18.2191 59.7006 18.1065C59.7197 18.015 59.7389 17.9235 59.7594 17.8284C59.5316 17.9159 59.2981 18.0734 59.0805 18.0633C58.9458 18.0563 58.8394 17.7857 58.7175 17.6352C58.8556 17.5402 58.9959 17.3772 59.1337 17.3602C59.8885 17.2714 60.6431 17.2215 61.3999 17.1427C61.4693 17.1367 61.5401 17.0187 61.6649 16.9062C61.0971 15.9769 60.2862 16.0197 59.5593 15.823C59.1204 15.7049 58.667 15.6423 58.2175 15.5997C57.3899 15.5184 56.5568 15.4987 55.7308 15.4055C54.653 15.2883 53.5841 15.077 52.5039 14.9972C51.5929 14.93 50.6615 15.0578 49.7517 14.987C47.7295 14.8325 45.7263 14.5255 43.6994 14.446C42.7078 14.4077 41.6832 14.7386 40.6746 14.9018C40.663 15.0419 40.6598 15.1744 40.6566 15.3069ZM31.7371 15.2658C32.6448 15.6436 35.3006 15.0161 35.7085 14.223C34.3835 14.5713 33.0621 14.9175 31.7371 15.2658Z" fill="#EFD48F"/>
</svg>
