<svg width="48" height="49" viewBox="0 0 48 49" fill="none" xmlns="http://www.w3.org/2000/svg">
<path d="M45.8468 41.7576C47.576 39.424 48.5386 36.1446 47.6823 33.3466C47.8614 33.2794 47.9957 33.0723 47.8838 32.8485C46.4624 29.9441 45.9251 26.7711 44.8787 23.7379C43.9049 20.9007 42.31 18.5447 40.2506 16.3846C36.3053 12.2434 31.6717 8.68982 26.7247 5.81898C19.9309 1.87927 7.94949 -4.00791 1.65939 3.94426C-1.38493 7.79442 0.383475 12.54 2.02315 16.5916C4.1553 21.852 6.9254 26.8158 9.87459 31.6565C12.6279 36.1782 15.3588 41.1085 19.5168 44.5109C23.3446 47.6448 27.6928 48.6857 32.5615 48.0309C37.4022 47.3818 42.7969 45.8708 45.8468 41.7576Z" fill="#CFA718" fill-opacity="0.4"/>
</svg>
