<svg width="63" height="29" viewBox="0 0 63 29" fill="none" xmlns="http://www.w3.org/2000/svg">
<path d="M1.15463 14.5048C1.1451 14.7873 1.59952 15.1569 1.71214 14.9577C1.77979 14.827 1.89729 15.1062 1.73725 15.2785C1.55906 15.4719 1.93762 15.6547 1.78333 16.0493C1.68308 16.293 1.6905 16.291 1.85838 16.0605C2.0209 15.8394 2.05678 15.8535 2.14334 16.1653C2.28473 16.6457 1.95235 16.5141 2.03067 16.7962C2.11517 17.1006 2.23934 16.7703 2.58735 17.2174C2.93536 17.6644 2.99026 17.2574 3.50405 17.7544C4.28256 18.5138 3.95316 17.7017 4.22039 17.7714C4.51607 17.8573 4.08054 18.0741 4.38855 18.4923C4.60749 18.7914 6.32343 19.2985 6.77502 19.1971C7.10578 19.1212 7.21711 19.2342 7.03357 19.4371C6.88095 19.6074 7.50197 20.0587 7.59109 19.7461C7.68682 19.3997 8.41679 19.293 8.70254 19.5734C8.83697 19.712 9.04068 19.7834 9.15534 19.7356C9.90059 19.4247 11.0911 19.9977 11.2965 19.8448C11.5147 19.6802 12.191 19.9562 12.207 20.2156C12.2095 20.3109 12.2978 20.3983 12.4046 20.4087C12.6763 20.4372 12.4706 19.9266 13.1898 20.1267C13.5024 20.2158 13.4987 20.4327 13.1869 20.5193C12.9864 20.5749 12.951 20.6488 13.0524 20.8125C13.3839 21.3441 11.2585 23.6533 12.1792 25.0688C12.4595 25.5027 12.8092 25.8693 13.0129 25.9407C13.2884 26.0401 13.3366 26.0987 13.2203 26.2269C12.9567 26.516 13.6129 26.5177 13.7613 27.0522C13.88 27.4511 14.6421 27.5753 14.734 27.8776C14.896 28.4323 16.8542 27.8247 17.0006 27.776C17.792 27.5163 17.521 28.2392 18.0902 27.6974C18.4878 27.3152 18.0853 27.219 18.4156 27.3432C18.8725 27.5202 19.4326 26.9169 19.5048 27.1768C19.5604 27.3772 19.1253 27.394 19.1822 27.5701C19.2317 27.7483 19.8801 27.0886 20.5317 26.8437C21.2056 26.5926 20.9243 27.2784 21.1045 27.0924C21.2027 26.9852 21.7936 27.3569 21.653 27.0521C21.3739 26.45 22.4906 27.1314 22.7187 26.6283C22.8833 26.2708 23.6004 26.6074 23.5505 26.7732C23.4734 27.0425 24.1184 26.3996 24.2194 26.7634C24.3184 27.1197 24.7869 26.8777 24.7783 26.4723C24.7471 25.5535 25.4921 26.9697 25.8839 26.797C26.333 26.6003 26.4526 26.887 26.8044 26.5414C26.9995 26.3513 27.0927 26.3415 27.2968 26.5007C27.5314 26.6834 27.5442 26.6719 27.4494 26.3304C27.3167 25.8235 27.8961 25.7506 27.8235 26.1226C27.75 26.4628 28.2131 26.806 28.4771 26.6048C28.5963 26.5157 28.6883 26.5301 28.7171 26.6341C28.7728 26.8345 29.3852 26.8804 29.4586 26.6841C29.5374 26.4783 29.9869 26.3695 29.9696 26.5662C29.944 26.8772 30.7754 26.5024 31.3426 25.9532C31.4939 25.8072 31.5541 25.8225 31.616 26.0452C31.7252 26.4386 31.359 26.1565 31.4188 26.3718C31.5054 26.6835 31.771 26.5458 31.9372 26.1079C32.1348 25.5813 32.4095 25.505 32.3954 25.9727C32.3817 26.5282 32.8916 25.8589 33.1934 26.2549C33.4218 26.5593 33.6536 26.271 33.5246 25.8351C33.4525 25.5753 33.4822 25.4231 33.6158 25.386C33.9424 25.2953 33.9407 26.0954 34.1114 26.048C34.6364 25.8942 34.3041 25.6187 34.754 25.4538C34.9928 25.3635 35.0868 25.3854 35.0773 25.524C35.0563 25.7937 35.719 25.4737 35.8325 25.1624C36.0388 24.6094 37.5216 25.7169 37.3514 25.1325C37.2895 24.9098 38.2281 25.2089 38.4835 24.7462C38.7033 24.3574 38.9227 24.3124 38.9318 24.6617C38.9395 25.0354 39.1326 24.9818 39.4642 24.5059C39.722 24.1385 39.722 24.1385 40.1356 24.3035C40.6494 24.5127 40.8878 24.4785 40.6887 24.222C40.4392 23.8994 41.2211 24.0661 41.2714 24.1321C41.4318 24.3355 41.7655 23.7231 41.9131 24.2258C41.9811 24.4708 42.0318 24.4807 42.2269 24.2906C42.4348 24.089 42.5173 24.0981 42.561 24.3418C42.6792 24.9406 44.0112 22.8837 44.1732 23.4385C44.2247 23.624 44.6062 23.4142 44.6515 23.5775C44.7154 23.8076 45.5361 23.5958 45.5984 23.3306C45.7131 22.851 46.5214 23.4582 46.3862 23C46.3326 22.807 46.3623 22.7987 46.6823 22.8858C47.2811 23.0554 47.9039 22.4187 48.2837 22.5771C48.673 22.7409 48.3456 22.0802 48.6054 22.008C48.8282 21.9462 48.4105 21.4785 48.841 21.3589C49.2324 21.2423 49.1008 21.5747 49.3235 21.5128C49.6056 21.4345 49.0935 21.001 49.6914 21.1388C50.2387 21.2668 50.3237 20.9393 50.5463 21.3093C50.6927 21.5485 50.7075 21.5444 50.7793 21.1407C50.975 20.0309 51.6711 20.2054 51.6595 20.6244C51.6574 20.7609 52.4075 20.9285 52.6125 20.8316C52.7474 20.7702 52.4183 20.3338 52.6167 20.2707C52.832 20.211 52.7651 20.5174 52.9656 20.4617C53.1883 20.3999 52.531 19.8468 53.2712 20.065C53.6461 20.1768 53.2179 20.6795 53.7227 20.5394C53.8861 20.494 53.9587 20.4099 53.8935 20.348C53.7232 20.1954 54.0016 20.334 54.1608 19.6981C54.4563 18.5447 56.2175 19.359 55.4541 19.5469C54.9135 19.6731 55.2701 20.5255 56.135 19.4938C56.5376 19.0143 57.8508 18.3299 57.2359 18.1887C56.4837 18.0138 57.415 17.5953 57.483 17.8403C57.5469 18.0704 57.9675 18.0016 58.1082 17.7307C58.3099 17.3629 58.2348 17.7835 58.5371 17.6916C58.9433 17.5708 58.1979 16.6424 58.9356 17.0532C59.2844 17.2442 60.0508 16.8076 60.7552 16.58C60.8719 16.5396 60.8855 16.4159 60.7853 16.2278C60.6101 15.8847 60.6282 15.8637 61.0274 15.9767C61.3305 16.0605 62.0923 15.809 61.8342 15.369C61.4685 14.7429 62.3246 14.6011 62.1907 14.1186C62.0658 13.6975 62.6749 13.3285 62.5067 13.1833C62.2943 12.9944 62.6804 12.4555 62.3151 12.349C61.9571 12.2405 62.4306 11.9011 62.6178 11.9131C62.8875 11.9342 62.8963 11.476 62.6249 11.3914C62.4422 11.3382 62.4332 11.2768 62.5668 11.0957C63.0939 10.3737 62.091 10.0445 62.6544 9.71214C63.0668 9.46971 63.0042 9.21525 62.4928 9.10136C62.085 9.0147 61.986 8.80229 62.2615 8.61386C62.4764 8.46625 62.3485 8.86956 62.577 8.88609C62.7717 8.89602 62.5651 8.20976 62.4241 8.24891C62.2237 8.30456 62.2097 7.90865 62.4002 7.75979C62.7376 7.50621 62.0543 7.03227 62.4609 7.14326C62.5814 7.17379 62.5311 7.1078 62.3562 6.99643C61.9265 6.71594 62.2882 6.46361 61.9014 6.68295C61.5294 6.89817 61.475 6.6734 61.8045 6.47796C62.0788 6.31387 61.9163 5.95918 61.4837 5.78344C61.2664 5.69186 61.2582 5.66216 61.4359 5.52486C61.6669 5.34879 61.5338 4.75408 61.2661 4.74044C60.8673 4.71523 61.8994 3.1334 61.2758 3.30652C60.6766 3.48088 60.099 2.03409 59.6111 2.17754C59.1678 2.30862 59.0746 1.74279 58.4234 1.93158C57.7722 2.12037 58.1913 1.55627 57.8444 1.66056C57.2229 1.8411 57.2672 1.02125 56.8618 1.02985C55.8848 1.05323 56.5343 1.52057 56.2447 1.74488C56.1127 1.84549 56.0443 1.80052 56.0027 1.56421C55.8976 1.04168 55.8522 1.02229 55.5565 1.36826C55.043 1.96658 54.909 1.19619 54.6401 1.49473C54.4075 1.75122 54.8034 1.30547 54.0203 0.875226C53.4344 0.550172 53.1086 0.672601 53.339 1.12834C53.4652 1.38116 53.4479 1.43395 53.2012 1.43845C52.6276 1.4458 52.7444 0.541819 52.2491 0.831256C52.0503 0.950413 51.988 0.927732 52.0021 0.747927C52.0161 0.56812 51.9897 0.55945 51.8924 0.698417C51.5413 1.21965 51.5014 0.615053 51.6242 1.60442C51.6473 1.77392 50.9487 1.3602 50.8877 1.16925C50.8176 0.916846 50.5466 1.20797 50.5548 1.52552C50.5885 2.39569 49.7281 0.851529 49.0855 1.01393C48.5098 1.15778 48.8652 1.31495 48.4718 1.42419C48.108 1.52517 48.0858 1.2435 48.264 1.19404C48.5015 1.12808 48.0228 0.90119 47.895 0.440931C47.8641 0.329578 47.3164 0.113825 47.5869 0.598436C47.9159 1.17873 46.8425 0.941033 46.7991 1.36085C46.7661 1.67386 46.3838 1.27626 46.3707 0.912105C46.3612 0.618886 46.3179 0.606909 45.8911 0.79738C45.2477 1.07195 45.5026 0.809293 45.0758 0.567977C44.8482 0.439276 44.8205 0.454947 44.8795 0.638473C44.9166 0.772097 44.8695 0.833126 44.7438 0.812075C44.6328 0.786904 44.6052 0.802574 44.6737 0.847536C44.8275 0.940759 44.5329 1.8381 44.325 1.8958C44.1246 1.95145 44.2752 1.48587 43.9164 1.20168C43.5292 0.901395 44.0001 1.33036 43.3011 1.40449C43.0438 1.42796 42.9217 1.47786 43.0326 1.50303C43.1551 1.54098 43.0685 1.66098 42.7983 1.83993C42.1974 2.23863 42.2515 1.79984 42.4573 1.59078C42.7068 1.3376 42.4504 1.10497 42.0821 1.2472C41.5822 1.43395 41.308 1.45412 41.2667 1.30565C41.1802 0.993864 39.9595 0.485198 40.2588 1.50552C40.3577 1.86185 39.8856 1.60115 39.9087 1.33886C39.9331 1.05225 39.6138 1.14086 39.688 1.40811C39.7602 1.66794 39.4929 1.74214 39.4393 1.54913C39.3775 1.32642 39.2562 1.69592 39.0628 1.51773C38.8274 1.30325 39.1081 1.82498 37.9762 1.20374C37.9366 1.40664 37.7183 2.43473 37.3984 1.34017C37.2652 0.889393 37.0339 0.977611 37.0132 1.47909C36.9855 2.07047 36.8267 2.36244 36.8135 1.85435C36.793 1.2044 35.9677 1.60143 36.2713 1.34125C36.6483 1.0287 35.8317 0.967547 35.3751 1.59805C35.1227 1.95598 33.9508 0.73016 34.2777 1.44696C34.3392 1.58183 34.0686 1.67292 34.0212 1.50218C33.9738 1.33144 33.3601 1.59777 33.1803 1.87158C33.0668 2.039 32.965 2.07527 32.8099 2.00638C32.4944 1.87808 32.1273 2.28384 31.9414 2.10359C31.788 1.95428 31.4321 1.99712 31.729 2.20254C31.9669 2.36836 31.7899 3.11313 31.5301 2.75348C31.1854 2.28948 31.0302 3.08415 30.8023 2.00404C30.7133 1.59699 30.4465 1.75903 30.4877 1.9075C30.6208 2.35827 29.0893 1.24828 29.5845 2.11027C30.0879 3.00196 28.3316 2.09031 28.746 2.71887C28.8528 2.87312 28.8305 3.02323 28.6791 3.16919C28.2836 3.55886 28.6552 2.96794 28.1715 2.69445C27.7942 2.48737 27.7312 2.00114 27.7093 2.23909C27.6486 2.85562 27.3039 2.10377 27.2297 2.12438C26.9212 2.19403 26.4614 2.1218 26.5397 2.40389C26.6159 2.67856 26.2068 2.76016 26.1499 2.58406C26.0902 2.36877 25.7037 2.81989 25.3862 2.68416C25.0571 2.53565 24.2776 2.89598 24.3019 3.18508C24.3319 3.55254 23.9476 3.5793 23.8804 3.22215C23.791 2.72725 23.3897 3.18248 23.3278 2.95978C23.2845 2.80388 22.9996 2.84302 23.0853 3.12305C23.2061 3.52929 22.3072 2.59548 22.1537 3.02189C22.091 3.19921 22.0411 3.22106 21.9541 3.10928C21.8786 3.0103 21.724 3.02925 21.5252 3.14841C21.0521 3.43166 20.7421 2.86209 21.015 3.29804C21.4521 4.00825 19.7563 3.77543 20.2727 3.36021C20.7433 2.98169 18.838 3.03091 18.6837 3.56948C18.5826 3.92537 18.0717 3.3236 17.6931 3.42871C17.131 3.59277 18.1718 3.79953 17.6798 4.35992C17.2805 4.82258 16.9803 4.34622 16.9956 4.14208C17.0217 3.77505 16.5181 4.17872 16.4385 3.92095C16.3622 3.64628 15.6891 4.36089 15.5745 3.97692C15.4517 3.56327 15.3069 3.96327 15.3682 4.52992C15.4366 5.1506 15.2403 5.36502 15.0919 4.83053C14.9299 4.27582 14.4188 4.96942 14.5133 4.64734C14.5839 4.41187 14.2667 4.50791 14.3162 4.68608C14.3553 4.82713 14.1194 5.10052 13.9933 4.41591C13.8754 3.761 13.3629 3.38358 13.6534 4.86209C13.7841 5.50545 12.9871 4.24751 12.9207 4.20997C12.6646 4.06518 12.4004 5.70568 12.1369 5.56295C12.061 5.52005 12.0639 5.41531 12.144 5.32913C12.4075 5.04007 11.6459 4.71581 11.9012 4.54099C12.5054 4.12537 10.8335 4.23773 11.2903 4.99043C11.5014 5.3476 11.3068 5.33767 11.0375 4.97266C10.8206 4.68106 10.3563 4.65006 10.44 4.92267C10.6267 5.56646 8.59417 4.09184 8.82006 4.87667C8.93135 5.27754 8.3157 4.8168 7.90402 5.52277C7.56 6.09803 7.24827 5.75281 7.40088 5.58251C7.63351 5.32603 7.45042 5.18495 7.19882 5.43071C7.04745 5.57668 6.91795 5.62863 6.84332 5.5614C6.72868 5.46529 6.15423 5.29695 6.36863 5.63721C6.55582 5.93705 6.12854 6.18361 6.08113 6.01287C6.03167 5.83471 5.43282 6.09691 5.54168 6.25859C5.78453 6.61494 3.6511 7.16726 4.64123 7.50804C5.01279 7.63676 4.50883 7.66474 4.61518 8.01901C4.70174 8.3308 4.31617 8.09402 4.16066 8.36907C4.09631 8.48289 4.02207 8.50349 3.94332 8.42141C3.8761 8.35212 3.64347 8.6086 3.42567 9.00489C2.67821 10.3158 3.82018 10.1667 3.36566 10.5168C3.09427 10.72 3.32818 10.1514 2.7805 10.2235C2.1491 10.3108 2.89592 10.6392 2.65792 10.9051C2.60348 10.9682 2.53709 10.9307 2.50081 10.8288C2.45135 10.6507 1.8509 10.5615 1.76716 10.7207C1.70817 10.825 2.18856 11.2593 2.32218 11.2222C2.40384 11.1996 2.47024 11.2371 2.49291 11.3188C2.54649 11.5118 2.10728 11.5138 2.16829 11.7047C2.21775 11.8829 1.96494 12.009 1.95303 11.6206C1.93002 11.0193 1.17688 11.6761 1.79251 12.2808C2.40814 12.8855 1.79251 12.2808 1.49961 12.9538C1.27024 13.4812 1.37754 13.0037 1.02571 13.3492C0.697392 13.6643 1.12546 13.7373 0.9217 13.9538C0.685768 14.2272 1.16541 14.054 1.15463 14.5048Z" fill="#98A0D0"/>
</svg>
