<svg width="672" height="580" viewBox="0 0 672 580" fill="none" xmlns="http://www.w3.org/2000/svg">
<mask id="mask0" mask-type="alpha" maskUnits="userSpaceOnUse" x="-98" y="0" width="770" height="592">
<path d="M269.951 537.392C430.294 552.763 450.626 511.805 490.583 501.745C913.57 374.634 394.076 27.8251 217.554 50.406C41.0316 72.9871 -83.7085 103.792 -80.0263 219.628C-76.3441 335.465 -16.8326 384.769 39.5644 409.725C95.9614 434.68 109.609 522.021 269.951 537.392Z" fill="#C4C4C4"/>
</mask>
<g mask="url(#mask0)">
<path d="M37.8868 -38.4914C6.81188 -21.5392 -23.6803 -11.3045 -55.3498 -7.2533C-87.0193 -3.20209 -119.103 -5.40623 -153.447 -14.0156L-154.387 -10.2907C-119.567 -1.58762 -87.0145 0.659526 -54.8637 -3.45327C-22.7128 -7.56606 8.22569 -17.9351 39.7339 -35.123L37.8868 -38.4914Z" fill="#C4C4C4" fill-opacity="0.4"/>
<path d="M91.2311 -45.2126C53.906 -18.14 7.70227 10.5832 -52.0897 18.2319C-111.882 25.8806 -163.825 9.73818 -206.766 -7.09233L-208.162 -3.51501C-164.79 13.4663 -112.257 29.7908 -51.6036 22.0319C9.04978 14.2731 55.7817 -14.7496 93.483 -42.102L91.2311 -45.2126Z" fill="#C4C4C4" fill-opacity="0.4"/>
<path d="M135.344 -50.8294C81.7922 -9.09035 26.4424 34.089 -48.8042 43.7147C-124.076 53.3436 -188.51 25.5129 -250.818 -1.40523L-252.325 2.10913C-189.529 29.2223 -124.603 57.2733 -48.2927 47.5115C28.018 37.7497 83.7915 -5.74131 137.716 -47.7856L135.344 -50.8294Z" fill="#C4C4C4" fill-opacity="0.4"/>
<path d="M955.807 -155.81C941.928 -145.744 928.184 -135.025 914.86 -124.644C861.309 -82.9046 805.959 -39.7252 730.687 -30.0963C655.415 -20.4674 590.982 -48.2981 528.67 -75.2416C513.188 -81.9381 497.162 -88.8485 481.196 -95.097L479.8 -91.5196C495.687 -85.2868 511.687 -78.3731 527.166 -71.7019C589.966 -44.5634 654.891 -16.5123 731.202 -26.2741C807.513 -36.0359 863.286 -79.5269 917.232 -121.6C930.509 -131.95 944.253 -142.668 958.059 -152.699L955.807 -155.81Z" fill="#C4C4C4" fill-opacity="0.4"/>
<path d="M179.551 -56.5102C165.672 -46.4439 151.902 -35.7222 138.607 -25.3185C85.081 16.4173 29.7058 59.6 -45.5408 69.2256C-120.813 78.8546 -185.246 51.0238 -247.583 24.0836C-263.091 17.3903 -279.116 10.4799 -295.06 4.20284L-296.457 7.78016C-280.545 14.0098 -264.57 20.9267 -249.091 27.5979C-186.291 54.7364 -121.365 82.7875 -45.0547 73.0257C31.2561 63.2639 87.0295 19.7728 140.979 -22.2747C154.255 -32.6245 168 -43.343 181.831 -53.3775L179.551 -56.5102Z" fill="#C4C4C4" fill-opacity="0.4"/>
<path d="M1009.56 -162.789C976.846 -144.933 946.993 -121.648 918.12 -99.1585C864.569 -57.4195 809.219 -14.2401 733.947 -4.61118C658.675 5.01774 594.242 -22.8129 531.934 -49.7311C498.326 -64.2538 463.548 -79.2705 427.421 -88.3214L426.481 -84.5965C462.313 -75.6366 496.929 -60.6764 530.426 -46.2167C593.226 -19.0782 658.148 8.94741 734.459 -0.814391C810.77 -10.5762 866.543 -54.0672 920.489 -96.14C949.242 -118.563 978.981 -141.73 1011.4 -159.446L1009.56 -162.789Z" fill="#C4C4C4" fill-opacity="0.4"/>
<path d="M233.3 -63.4891C200.59 -45.6325 170.737 -22.3481 141.867 0.166909C88.3412 41.9028 32.966 85.0853 -42.3059 94.7143C-117.578 104.343 -182.011 76.5125 -244.32 49.5944C-277.709 35.1724 -312.242 20.2531 -348.138 11.1984L-349.084 14.8727C-313.506 23.865 -279.111 38.6991 -245.856 53.0866C-183.059 80.1997 -118.134 108.251 -41.8231 98.4889C34.4876 88.7271 90.2611 45.2362 144.211 3.18864C172.963 -19.2341 202.699 -42.4263 235.122 -60.1174L233.3 -63.4891Z" fill="#C4C4C4" fill-opacity="0.4"/>
<path d="M331.158 -69.6734C254.847 -59.9116 199.073 -16.4206 145.124 25.6269C91.5979 67.3627 36.2228 110.545 -39.0238 120.171C-114.296 129.8 -178.729 101.969 -241.038 75.0511C-274.426 60.6291 -308.96 45.7099 -344.856 36.6552L-345.824 40.358C-310.246 49.3503 -275.851 64.1844 -242.596 78.572C-179.799 105.685 -114.874 133.736 -38.5631 123.974C37.7476 114.212 93.5211 70.7215 147.471 28.674C200.997 -13.0619 256.372 -56.2445 331.618 -65.8701C406.865 -75.4958 471.324 -47.6683 533.635 -20.7249C596.432 6.38828 661.357 34.4393 737.668 24.6775L737.182 20.8774C661.91 30.5064 597.476 2.67565 535.165 -24.2678C472.394 -51.3842 407.443 -79.432 331.158 -69.6734Z" fill="#C4C4C4" fill-opacity="0.4"/>
<path d="M334.418 -44.1878C258.107 -34.426 202.334 9.06501 148.387 51.1379C94.8614 92.8737 39.4862 136.056 -35.7604 145.682C-111.032 155.311 -175.466 127.48 -237.777 100.537C-271.166 86.1147 -305.7 71.1955 -341.595 62.1408L-342.564 65.8437C-306.986 74.836 -272.588 89.6954 -239.336 104.058C-176.536 131.196 -111.61 159.247 -35.2996 149.485C41.0111 139.723 96.7845 96.2325 150.731 54.1596C204.257 12.4238 259.632 -30.7588 334.878 -40.3845C410.125 -50.0102 474.584 -22.1827 536.896 4.76076C599.696 31.8992 664.621 59.9503 740.931 50.1885L740.445 46.3884C665.173 56.0174 600.74 28.1866 538.428 1.24316C475.654 -25.8986 410.703 -53.9463 334.418 -44.1878Z" fill="#C4C4C4" fill-opacity="0.4"/>
<path d="M337.678 -18.7023C261.367 -8.94046 205.594 34.5506 151.644 76.5981C98.1183 118.334 42.7432 161.517 -32.5035 171.142C-107.775 180.771 -172.209 152.94 -234.517 126.022C-267.906 111.6 -302.44 96.6811 -338.335 87.6264L-339.304 91.3292C-303.725 100.321 -269.331 115.156 -236.075 129.543C-173.279 156.656 -108.353 184.707 -32.0427 174.945C44.268 165.184 100.041 121.693 153.991 79.6451C207.517 37.9093 262.892 -5.27329 338.139 -14.899C413.385 -24.5247 477.844 3.30281 540.156 30.2463C602.953 57.3594 667.878 85.4105 744.188 75.6487L743.702 71.8486C668.43 81.4776 603.997 53.6469 541.685 26.7034C478.914 -0.412982 413.963 -28.4608 337.678 -18.7023Z" fill="#C4C4C4" fill-opacity="0.4"/>
<path d="M340.941 6.8087C264.631 16.5705 208.857 60.0615 154.908 102.109C101.382 143.845 46.0066 187.027 -29.2401 196.653C-104.512 206.282 -168.946 178.451 -231.254 151.533C-264.643 137.111 -299.177 122.192 -335.072 113.137L-336.043 116.815C-300.465 125.807 -266.071 140.641 -232.815 155.029C-170.018 182.142 -105.093 210.193 -28.7825 200.431C47.5282 190.669 103.302 147.178 157.251 105.131C210.777 63.3949 266.152 20.2123 341.399 10.5866C416.645 0.960944 481.104 28.7884 543.416 55.7319C606.213 82.845 671.138 110.896 747.449 101.134L746.962 97.3342C671.69 106.963 607.257 79.1325 544.945 52.189C482.177 25.0979 417.227 -2.94986 340.941 6.8087Z" fill="#C4C4C4" fill-opacity="0.4"/>
<path d="M344.202 32.2943C267.891 42.0561 212.117 85.5471 158.168 127.595C104.642 169.331 49.2635 212.488 -25.9831 222.113C-101.255 231.742 -165.689 203.912 -227.997 176.994C-261.386 162.572 -295.92 147.652 -331.815 138.598L-332.78 142.326C-297.202 151.318 -262.807 166.152 -229.552 180.54C-166.755 207.653 -101.83 235.704 -25.5191 225.942C50.7916 216.18 106.565 172.689 160.515 130.642C214.041 88.9059 269.419 45.7486 344.665 36.123C419.912 26.4973 484.371 54.3247 546.679 81.2429C609.479 108.381 674.401 136.407 750.712 126.645L750.226 122.845C674.954 132.474 610.52 104.643 548.212 77.7253C485.437 50.5836 420.487 22.5358 344.202 32.2943Z" fill="#C4C4C4" fill-opacity="0.4"/>
<path d="M347.462 57.7804C271.151 67.5422 215.378 111.033 161.428 153.081C107.902 194.817 52.527 237.999 -22.7196 247.625C-97.9916 257.254 -162.425 229.423 -224.733 202.505C-258.176 188.064 -292.71 173.145 -328.58 164.087L-329.52 167.812C-293.941 176.804 -259.547 191.638 -226.292 206.026C-163.495 233.139 -98.5696 261.19 -22.2589 251.428C54.0518 241.666 109.825 198.175 163.775 156.128C217.301 114.392 272.676 71.2094 347.923 61.5837C423.169 51.958 487.628 79.7855 549.94 106.729C612.736 133.842 677.661 161.893 753.972 152.131L753.486 148.331C678.214 157.96 613.781 130.13 551.469 103.186C488.698 76.0696 423.747 48.0218 347.462 57.7804Z" fill="#C4C4C4" fill-opacity="0.4"/>
<path d="M350.722 83.2658C274.411 93.0276 218.638 136.519 164.688 178.566C111.162 220.302 55.7838 263.459 -19.4629 273.085C-94.7348 282.714 -159.168 254.883 -221.477 227.965C-254.865 213.543 -289.399 198.624 -325.295 189.569L-326.26 193.297C-290.681 202.29 -256.287 217.124 -223.032 231.511C-160.235 258.624 -95.3096 286.675 -18.9989 276.914C57.3119 267.152 113.085 223.661 167.035 181.613C220.561 139.877 275.939 96.7201 351.186 87.0944C426.432 77.4688 490.891 105.296 553.2 132.214C616 159.353 680.921 187.378 757.232 177.617L756.746 173.817C681.474 183.446 617.041 155.615 554.732 128.697C491.958 101.555 427.007 73.5072 350.722 83.2658Z" fill="#C4C4C4" fill-opacity="0.4"/>
<path d="M353.982 108.751C277.671 118.513 221.898 162.004 167.948 204.051C114.422 245.787 59.0473 288.97 -16.1994 298.595C-91.4713 308.224 -155.905 280.394 -218.213 253.475C-251.602 239.053 -286.136 224.134 -322.031 215.079L-322.999 218.782C-287.421 227.775 -253.027 242.609 -219.771 256.996C-156.975 284.109 -92.0493 312.16 -15.7386 302.399C60.5721 292.637 116.346 249.146 170.295 207.098C223.821 165.362 279.196 122.18 354.443 112.554C429.689 102.929 494.148 130.756 556.46 157.699C619.257 184.813 684.182 212.864 760.492 203.102L760.006 199.302C684.734 208.931 620.301 181.1 557.989 154.156C495.218 127.04 430.267 98.9923 353.982 108.751Z" fill="#C4C4C4" fill-opacity="0.4"/>
<path d="M357.242 134.236C280.931 143.998 225.158 187.489 171.208 229.537C117.683 271.272 62.3074 314.455 -12.9392 324.081C-88.2112 333.71 -152.645 305.879 -214.953 278.961C-248.342 264.539 -282.876 249.62 -318.771 240.565L-319.739 244.268C-284.161 253.26 -249.767 268.094 -216.511 282.482C-153.714 309.595 -88.7892 337.646 -12.4785 327.884C63.8322 318.122 119.606 274.631 173.555 232.584C227.081 190.848 282.456 147.665 357.703 138.04C432.95 128.414 497.408 156.241 559.72 183.185C622.517 210.298 687.442 238.349 763.753 228.587L763.267 224.787C687.995 234.416 623.561 206.585 561.249 179.642C498.478 152.526 433.528 124.478 357.242 134.236Z" fill="#C4C4C4" fill-opacity="0.4"/>
<path d="M360.506 159.747C284.195 169.509 228.421 213 174.472 255.048C120.946 296.783 65.5675 339.941 -9.67911 349.566C-84.9511 359.195 -149.385 331.365 -211.693 304.446C-245.082 290.024 -279.616 275.105 -315.511 266.051L-316.479 269.753C-280.901 278.746 -246.503 293.605 -213.251 307.967C-150.454 335.08 -85.5291 363.131 -9.21834 353.37C67.0924 343.608 122.866 300.117 176.815 258.069C230.341 216.333 285.72 173.176 360.966 163.551C436.213 153.925 500.672 181.752 562.98 208.67C625.78 235.809 690.702 263.835 767.013 254.073L766.527 250.273C691.255 259.902 626.821 232.071 564.513 205.153C501.742 178.036 436.791 149.989 360.506 159.747Z" fill="#C4C4C4" fill-opacity="0.4"/>
<path d="M363.766 185.233C287.455 194.995 231.682 238.486 177.732 280.534C124.206 322.269 68.831 365.452 -6.41562 375.078C-81.6876 384.707 -146.121 356.876 -208.429 329.958C-241.818 315.536 -276.352 300.617 -312.247 291.562L-313.216 295.265C-277.637 304.257 -243.24 319.116 -209.988 333.479C-147.191 360.592 -82.2656 388.643 -5.95485 378.881C70.3559 369.119 126.129 325.628 180.079 283.581C233.605 241.845 288.98 198.662 364.227 189.037C439.473 179.411 503.932 207.238 566.244 234.182C629.04 261.295 693.965 289.346 770.276 279.584L769.79 275.784C694.518 285.413 630.085 257.582 567.773 230.639C505.002 203.522 440.051 175.475 363.766 185.233Z" fill="#C4C4C4" fill-opacity="0.4"/>
<path d="M367.026 210.718C290.715 220.48 234.942 263.971 180.992 306.019C127.466 347.755 72.0878 390.912 -3.15879 400.538C-78.4308 410.166 -142.864 382.336 -205.173 355.418C-238.561 340.996 -273.095 326.076 -308.991 317.022L-309.956 320.75C-274.377 329.742 -239.983 344.576 -206.727 358.964C-143.931 386.077 -79.0055 414.128 -2.69478 404.366C73.6159 394.604 129.389 351.113 183.339 309.066C236.865 267.33 292.243 224.173 367.49 214.547C442.736 204.921 507.195 232.749 569.504 259.667C632.3 286.78 697.226 314.831 773.536 305.069L773.05 301.269C697.778 310.898 633.345 283.068 571.036 256.149C508.262 229.008 443.311 200.96 367.026 210.718Z" fill="#C4C4C4" fill-opacity="0.4"/>
<path d="M370.286 236.204C293.975 245.966 238.202 289.457 184.252 331.505C130.726 373.24 75.3513 416.423 0.104641 426.049C-75.1673 435.678 -139.601 407.847 -201.909 380.929C-235.298 366.507 -269.832 351.588 -305.727 342.533L-306.695 346.236C-271.117 355.228 -236.72 370.087 -203.467 384.45C-140.671 411.563 -75.7453 439.614 0.565412 429.852C76.8761 420.09 132.65 376.599 186.599 334.552C240.125 292.816 295.5 249.633 370.747 240.008C445.993 230.382 510.452 258.209 572.764 285.153C635.564 312.291 700.486 340.317 776.796 330.555L776.31 326.755C701.038 336.384 636.605 308.553 574.293 281.61C511.522 254.493 446.571 226.446 370.286 236.204Z" fill="#C4C4C4" fill-opacity="0.4"/>
<path d="M373.546 261.69C297.236 271.452 241.462 314.943 187.513 356.99C133.987 398.726 78.6115 441.909 3.36483 451.535C-71.9071 461.163 -136.341 433.333 -198.652 406.389C-232.088 391.999 -266.622 377.08 -302.492 368.022L-303.435 371.722C-267.857 380.714 -233.463 395.548 -200.207 409.935C-137.41 437.049 -72.4851 465.1 3.8256 455.338C80.1363 445.576 135.91 402.085 189.859 360.038C243.385 318.302 298.764 275.144 374.01 265.519C449.257 255.893 513.716 283.72 576.024 310.639C638.824 337.777 703.746 365.803 780.057 356.041L779.571 352.241C704.299 361.87 639.865 334.039 577.554 307.096C514.782 279.979 449.832 251.932 373.546 261.69Z" fill="#C4C4C4" fill-opacity="0.4"/>
<path d="M376.81 287.201C300.499 296.963 244.726 340.454 190.776 382.501C137.25 424.237 81.8717 467.394 6.62503 477.02C-68.6469 486.649 -133.08 458.818 -195.389 431.9C-228.778 417.478 -263.312 402.559 -299.207 393.504L-300.175 397.207C-264.597 406.199 -230.203 421.033 -196.947 435.421C-134.147 462.559 -69.2249 490.585 7.0858 480.823C83.3965 471.061 139.17 427.57 193.12 385.523C246.645 343.787 302.021 300.604 377.267 290.979C452.514 281.353 516.973 309.181 579.284 336.124C642.084 363.262 707.006 391.288 783.317 381.526L782.831 377.726C707.559 387.355 643.125 359.525 580.817 332.606C518.042 305.465 453.095 277.442 376.81 287.201Z" fill="#C4C4C4" fill-opacity="0.4"/>
<path d="M380.07 312.686C303.759 322.448 247.986 365.939 194.036 407.987C140.51 449.723 85.1318 492.88 9.88515 502.506C-65.3868 512.134 -129.82 484.304 -192.129 457.386C-225.517 442.964 -260.051 428.044 -295.947 418.99L-296.912 422.718C-261.333 431.71 -226.939 446.544 -193.683 460.932C-130.887 488.045 -65.9616 516.096 10.3492 506.334C86.6599 496.572 142.433 453.081 196.383 411.034C249.909 369.298 305.287 326.141 380.534 316.515C455.78 306.889 520.239 334.717 582.548 361.635C645.344 388.748 710.269 416.799 786.58 407.037L786.094 403.237C710.822 412.866 646.389 385.036 584.08 358.117C521.306 330.976 456.355 302.928 380.07 312.686Z" fill="#C4C4C4" fill-opacity="0.4"/>
<path d="M383.33 338.172C307.019 347.934 251.246 391.425 197.296 433.472C143.77 475.208 88.3919 518.365 13.1453 527.991C-62.1267 537.62 -126.56 509.789 -188.868 482.871C-222.257 468.449 -256.791 453.53 -292.686 444.475L-293.652 448.204C-258.073 457.196 -223.676 472.055 -190.423 486.417C-127.627 513.531 -62.7014 541.582 13.6093 531.82C89.92 522.058 145.693 478.567 199.643 436.519C253.169 394.784 308.547 351.626 383.794 342.001C459.041 332.375 523.499 360.202 585.808 387.121C648.608 414.259 713.53 442.285 789.84 432.523L789.354 428.723C714.082 438.352 649.649 410.521 587.34 383.603C524.566 356.461 459.615 328.414 383.33 338.172Z" fill="#C4C4C4" fill-opacity="0.4"/>
<path d="M386.59 363.658C310.279 373.419 254.506 416.91 200.556 458.958C147.03 500.694 91.6521 543.851 16.4055 553.477C-58.8665 563.106 -123.3 535.275 -185.608 508.357C-218.997 493.935 -253.531 479.016 -289.426 469.961L-290.391 473.689C-254.813 482.681 -220.419 497.515 -187.163 511.903C-124.366 539.016 -59.4412 567.067 16.8695 557.305C93.1802 547.544 148.954 504.053 202.903 462.005C256.429 420.269 311.807 377.112 387.054 367.486C462.301 357.861 526.76 385.688 589.068 412.606C651.868 439.745 716.79 467.77 793.101 458.009L792.614 454.208C717.342 463.837 652.909 436.007 590.601 409.089C527.826 381.947 462.876 353.899 386.59 363.658Z" fill="#C4C4C4" fill-opacity="0.4"/>
<path d="M389.85 389.143C313.54 398.905 257.766 442.396 203.817 484.444C150.291 526.179 94.9122 569.337 19.6656 578.962C-55.6064 588.591 -120.04 560.761 -182.348 533.842C-215.737 519.42 -250.271 504.501 -286.166 495.446L-287.131 499.175C-251.553 508.167 -217.159 523.001 -183.903 537.389C-121.106 564.502 -56.1811 592.553 20.1296 582.791C96.4403 573.029 152.214 529.538 206.163 487.491C259.689 445.755 315.064 402.572 390.311 392.947C465.558 383.321 530.017 411.148 592.328 438.092C655.128 465.23 720.05 493.256 796.361 483.494L795.875 479.694C720.603 489.323 656.169 461.492 593.861 434.574C531.086 407.432 466.136 379.385 389.85 389.143Z" fill="#C4C4C4" fill-opacity="0.4"/>
<path d="M393.11 414.629C316.8 424.39 261.026 467.881 207.077 509.929C153.551 551.665 98.1724 594.822 22.9258 604.448C-52.3208 614.073 -116.78 586.246 -179.088 559.328C-212.477 544.906 -247.011 529.987 -282.906 520.932L-283.871 524.66C-248.293 533.652 -213.899 548.486 -180.643 562.874C-117.846 589.987 -52.9209 618.038 23.3898 608.276C99.7005 598.514 155.474 555.024 209.424 512.976C262.949 471.24 318.325 428.058 393.571 418.432C468.818 408.806 533.277 436.634 595.588 463.577C658.385 490.69 723.31 518.741 799.621 508.979L799.135 505.179C723.863 514.808 659.429 486.978 597.121 460.06C534.346 432.918 469.396 404.87 393.11 414.629Z" fill="#C4C4C4" fill-opacity="0.4"/>
<path d="M396.374 440.14C320.063 449.901 264.29 493.392 210.34 535.44C156.814 577.176 101.436 620.333 26.1891 629.959C-49.0829 639.588 -113.516 611.757 -175.825 584.839C-209.213 570.417 -243.747 555.497 -279.643 546.443L-280.611 550.146C-245.033 559.138 -210.638 573.972 -177.383 588.36C-114.586 615.473 -49.6608 643.524 26.6499 633.762C102.961 624 158.734 580.509 212.684 538.462C266.21 496.726 321.585 453.543 396.831 443.917C472.078 434.292 536.537 462.119 598.848 489.063C661.645 516.176 726.57 544.227 802.881 534.465L802.395 530.665C727.123 540.294 662.689 512.463 600.381 485.545C537.61 458.429 472.659 430.381 396.374 440.14Z" fill="#C4C4C4" fill-opacity="0.4"/>
<path d="M399.634 465.625C323.323 475.387 267.55 518.878 213.6 560.926C160.074 602.661 104.696 645.819 29.4493 655.444C-45.8227 665.073 -110.256 637.243 -172.564 610.324C-206.004 595.909 -240.538 580.99 -276.408 571.932L-277.348 575.657C-241.769 584.649 -207.375 599.483 -174.119 613.871C-111.323 640.984 -46.3974 669.035 29.9133 659.273C106.224 649.511 161.997 606.02 215.947 563.973C269.473 522.237 324.851 479.079 400.098 469.454C475.345 459.828 539.803 487.656 602.112 514.574C664.912 541.712 729.834 569.738 806.144 559.976L805.658 556.176C730.386 565.805 665.953 537.974 603.645 511.056C540.87 483.914 475.919 455.867 399.634 465.625Z" fill="#C4C4C4" fill-opacity="0.4"/>
<path d="M402.894 491.111C326.583 500.873 270.81 544.364 216.86 586.411C163.335 628.147 107.956 671.304 32.7095 680.93C-42.5625 690.559 -106.996 662.728 -169.304 635.81C-202.744 621.394 -237.278 606.475 -273.148 597.417L-274.087 601.142C-238.509 610.135 -204.112 624.994 -170.859 639.356C-108.062 666.469 -43.1372 694.52 33.1735 684.758C109.484 674.997 165.258 631.506 219.207 589.458C272.733 547.722 328.111 504.565 403.358 494.939C478.605 485.314 543.064 513.141 605.372 540.059C668.169 567.172 733.094 595.223 809.405 585.462L808.918 581.662C733.646 591.291 669.213 563.46 606.905 536.542C544.13 509.4 479.18 481.352 402.894 491.111Z" fill="#C4C4C4" fill-opacity="0.4"/>
<path d="M406.154 516.596C329.844 526.358 274.07 569.849 220.121 611.896C166.595 653.632 111.216 696.79 35.9696 706.415C-39.3023 716.044 -103.736 688.213 -166.044 661.295C-199.484 646.88 -234.018 631.961 -269.887 622.903L-270.827 626.628C-235.249 635.62 -200.855 650.454 -167.599 664.841C-104.802 691.955 -39.8771 720.006 36.4336 710.244C112.744 700.482 168.518 656.991 222.467 614.944C275.993 573.208 331.372 530.05 406.618 520.425C481.865 510.799 546.324 538.627 608.632 565.545C671.432 592.683 736.354 620.709 812.665 610.947L812.179 607.147C736.907 616.776 672.473 588.945 610.165 562.027C547.39 534.885 482.44 506.838 406.154 516.596Z" fill="#C4C4C4" fill-opacity="0.4"/>
<path d="M409.414 542.082C333.104 551.844 277.33 595.335 223.381 637.382C169.855 679.118 114.48 722.3 39.2331 731.926C-36.0389 741.555 -100.472 713.724 -162.781 686.806C-196.22 672.391 -230.754 657.472 -266.624 648.414L-267.567 652.113C-231.989 661.105 -197.594 675.94 -164.339 690.327C-101.542 717.44 -36.6169 745.491 39.6938 735.729C116.005 725.968 171.778 682.477 225.728 640.429C279.253 598.693 334.632 555.536 409.878 545.91C485.125 536.285 549.584 564.112 611.892 591.03C674.689 618.143 739.614 646.194 815.925 636.433L815.439 632.633C740.167 642.261 675.733 614.431 613.422 587.487C550.65 560.371 485.7 532.323 409.414 542.082Z" fill="#C4C4C4" fill-opacity="0.4"/>
<path d="M412.675 567.567C336.364 577.329 280.591 620.82 226.641 662.868C173.115 704.603 117.74 747.786 42.4933 757.412C-32.7787 767.041 -97.2122 739.21 -159.521 712.292C-192.96 697.876 -227.494 682.957 -263.364 673.899L-264.307 677.599C-228.729 686.591 -194.334 701.425 -161.079 715.813C-98.2819 742.926 -33.3567 770.977 42.954 761.215C119.265 751.453 175.038 707.962 228.988 665.915C282.514 624.179 337.889 580.996 413.135 571.371C488.382 561.745 552.841 589.572 615.152 616.516C677.949 643.629 742.874 671.68 819.185 661.918L818.699 658.118C743.427 667.747 678.994 639.916 616.682 612.973C553.911 585.857 488.96 557.809 412.675 567.567Z" fill="#C4C4C4" fill-opacity="0.4"/>
<path d="M415.938 593.078C339.627 602.84 283.854 646.331 229.904 688.379C176.378 730.114 121 773.272 45.7533 782.897C-29.5187 792.526 -93.9522 764.696 -156.26 737.777C-189.7 723.362 -224.234 708.443 -260.104 699.385L-261.047 703.084C-225.469 712.077 -191.071 726.936 -157.819 741.298C-95.0186 768.437 -30.0934 796.488 46.2173 786.726C122.528 776.964 178.301 733.473 232.251 691.426C285.777 649.69 341.155 606.533 416.402 596.907C491.649 587.281 556.107 615.109 618.416 642.027C681.216 669.165 746.138 697.191 822.448 687.429L821.962 683.629C746.69 693.258 682.257 665.427 619.949 638.509C557.174 611.368 492.223 583.32 415.938 593.078Z" fill="#C4C4C4" fill-opacity="0.4"/>
</g>
</svg>
