<svg width="400" height="763" viewBox="0 0 400 763" fill="none" xmlns="http://www.w3.org/2000/svg">
<mask id="mask0" mask-type="alpha" maskUnits="userSpaceOnUse" x="0" y="0" width="860" height="763">
<path d="M489.425 615.663C646.503 579.988 652.968 534.721 687.756 512.64C1049.56 259.322 447.53 92.8724 286.988 169.659C126.446 246.445 17.6529 314.806 57.4669 423.647C97.2809 532.489 169.25 560.649 230.628 566.664C292.005 572.68 332.348 651.339 489.425 615.663Z" fill="#C4C4C4"/>
</mask>
<g mask="url(#mask0)">
<path d="M88.5082 141.573C64.315 167.413 38.569 186.692 9.76643 200.468C-19.0361 214.244 -50.1929 222.21 -85.5053 224.802L-85.2298 228.634C-49.4366 225.981 -17.8209 217.909 11.4194 203.924C40.6598 189.938 66.7875 170.392 91.3183 144.192L88.5082 141.573Z" fill="#C4C4C4" fill-opacity="0.4"/>
<path d="M137.056 118.466C110.1 155.876 75.2317 197.637 20.8525 223.646C-33.5268 249.655 -87.9119 250.612 -133.965 248.093L-134.169 251.928C-87.6595 254.455 -32.6572 253.486 22.5055 227.102C77.6681 200.718 112.945 158.507 140.169 120.714L137.056 118.466Z" fill="#C4C4C4" fill-opacity="0.4"/>
<path d="M177.183 99.302C139.418 155.726 100.397 214.082 31.9617 246.814C-36.4962 279.557 -106.407 273.331 -174.013 267.305L-174.342 271.115C-106.211 277.173 -35.7649 283.454 33.6377 250.259C103.04 217.064 142.366 158.28 180.39 101.449L177.183 99.302Z" fill="#C4C4C4" fill-opacity="0.4"/>
<path d="M217.38 80.0476C207.357 93.9578 197.643 108.456 188.28 122.503C150.538 178.917 111.494 237.283 43.0589 270.015C-25.399 302.758 -95.3094 296.532 -162.95 290.494C-179.774 289.001 -197.158 287.463 -214.266 286.501L-214.471 290.336C-197.408 291.263 -180.07 292.823 -163.279 294.304C-95.1371 300.385 -24.6907 306.666 44.7119 273.471C114.115 240.277 153.44 181.492 191.487 124.65C200.849 110.66 210.54 96.1725 220.528 82.3074L217.38 80.0476Z" fill="#C4C4C4" fill-opacity="0.4"/>
<path d="M266.231 56.5691C240.769 83.7808 219.721 115.251 199.366 145.682C161.624 202.095 122.58 260.462 54.1218 293.205C-14.3361 325.948 -84.2465 319.722 -151.853 313.696C-188.08 310.469 -225.55 307.129 -262.474 309.785L-262.221 313.571C-225.617 310.955 -188.306 314.258 -152.216 317.494C-84.0852 323.551 -13.6389 329.833 55.7638 296.638C125.166 263.443 164.492 204.658 202.539 147.817C222.812 117.51 243.777 86.1638 269.018 59.1996L266.231 56.5691Z" fill="#C4C4C4" fill-opacity="0.4"/>
<path d="M357.216 20.0158C287.814 53.2106 248.488 111.995 210.441 168.837C172.699 225.25 133.655 283.617 65.2199 316.349C-3.23802 349.092 -73.1484 342.866 -140.755 336.84C-176.982 333.613 -214.452 330.274 -251.376 332.929L-251.135 336.749C-214.531 334.133 -177.22 337.436 -141.13 340.672C-72.9991 346.73 -2.55279 353.011 66.8498 319.816C136.252 286.621 175.578 227.837 213.625 170.995C251.367 114.582 290.411 56.2148 358.846 23.4829C427.281 -9.24906 497.215 -3.03401 564.832 3.01486C632.963 9.07272 703.409 15.3539 772.812 -17.841L771.159 -21.297C702.701 11.446 632.791 5.21987 565.173 -0.828998C497.065 -6.8979 426.596 -13.168 357.216 20.0158Z" fill="#C4C4C4" fill-opacity="0.4"/>
<path d="M368.302 43.1944C298.9 76.3892 259.574 135.174 221.538 192.039C183.796 248.452 144.752 306.819 76.3171 339.551C7.85919 372.294 -62.0512 366.067 -129.668 360.019C-165.895 356.792 -203.366 353.452 -240.29 356.108L-240.049 359.928C-203.445 357.312 -166.123 360.638 -130.044 363.85C-61.9019 369.931 8.54442 376.212 77.947 343.018C147.35 309.823 186.676 251.038 224.711 194.173C262.453 137.76 301.497 79.3934 369.932 46.6615C438.367 13.9295 508.301 20.1446 575.918 26.1935C644.06 32.2744 714.506 38.5555 783.909 5.36069L782.256 1.90466C713.798 34.6476 643.888 28.4215 576.271 22.3727C508.151 16.2807 437.682 10.0106 368.302 43.1944Z" fill="#C4C4C4" fill-opacity="0.4"/>
<path d="M379.388 66.373C309.986 99.5678 270.66 158.352 232.613 215.194C194.871 271.607 155.827 329.974 87.3921 362.706C18.9342 395.449 -50.9761 389.223 -118.582 383.197C-154.809 379.97 -192.28 376.631 -229.204 379.287L-228.963 383.106C-192.359 380.491 -155.048 383.793 -118.958 387.029C-50.8269 393.087 19.6195 399.368 89.0221 366.173C158.425 332.978 197.751 274.194 235.797 217.352C273.539 160.939 312.584 102.572 381.018 69.84C449.453 37.1081 519.387 43.3231 587.004 49.372C655.135 55.4299 725.581 61.711 794.984 28.5162L793.331 25.0602C724.873 57.8031 654.963 51.5771 587.346 45.5282C519.238 39.4593 448.768 33.1892 379.388 66.373Z" fill="#C4C4C4" fill-opacity="0.4"/>
<path d="M390.486 89.5745C321.083 122.769 281.757 181.554 243.711 238.396C205.969 294.809 166.924 353.176 98.4893 385.908C30.0314 418.651 -39.879 412.424 -107.485 406.399C-143.712 403.172 -181.182 399.832 -218.107 402.488L-217.876 406.285C-181.273 403.669 -143.962 406.972 -107.872 410.207C-39.7408 416.265 30.7056 422.546 100.108 389.352C169.511 356.157 208.837 297.372 246.883 240.53C284.625 184.117 323.67 125.75 392.105 93.0185C460.539 60.2866 530.473 66.5016 598.09 72.5505C666.221 78.6083 736.668 84.8895 806.07 51.6947L804.417 48.2386C735.959 80.9816 666.049 74.7555 598.432 68.7067C530.335 62.6608 459.865 56.3907 390.486 89.5745Z" fill="#C4C4C4" fill-opacity="0.4"/>
<path d="M401.572 112.753C332.169 145.947 292.843 204.732 254.797 261.574C217.055 317.987 177.999 376.331 109.564 409.063C41.1064 441.806 -28.804 435.58 -96.4102 429.554C-132.637 426.327 -170.107 422.987 -207.032 425.643L-206.779 429.486C-170.176 426.87 -132.865 430.173 -96.7749 433.409C-28.6437 439.466 41.8026 445.748 111.205 412.553C180.608 379.358 219.934 320.574 257.98 263.732C295.722 207.318 334.778 148.975 403.213 116.243C471.647 83.5108 541.581 89.7258 609.187 95.7517C677.329 101.833 747.765 108.091 817.167 74.8958L815.514 71.4398C747.056 104.183 677.146 97.9567 609.54 91.9309C541.421 85.8389 470.951 79.5688 401.572 112.753Z" fill="#C4C4C4" fill-opacity="0.4"/>
<path d="M412.658 135.932C343.255 169.127 303.93 227.911 265.883 284.753C228.141 341.166 189.097 399.533 120.662 432.265C52.2038 465.008 -17.7066 458.782 -85.3128 452.756C-121.597 449.528 -159.067 446.189 -195.968 448.833L-195.693 452.665C-159.089 450.049 -121.778 453.352 -85.6885 456.588C-17.5574 462.646 52.889 468.927 122.292 435.732C191.694 402.537 231.02 343.753 269.067 286.911C306.809 230.498 345.853 172.131 414.288 139.399C482.723 106.667 552.656 112.882 620.274 118.931C688.405 124.989 758.851 131.27 828.254 98.075L826.601 94.619C758.143 127.362 688.232 121.136 620.615 115.087C552.507 109.018 482.038 102.748 412.658 135.932Z" fill="#C4C4C4" fill-opacity="0.4"/>
<path d="M423.744 159.11C354.341 192.305 315.016 251.089 276.969 307.931C239.227 364.344 200.171 422.688 131.737 455.42C63.2787 488.163 -6.63164 481.937 -74.2378 475.911C-110.465 472.685 -147.935 469.345 -184.859 472.001L-184.607 475.843C-148.003 473.228 -110.692 476.53 -74.6025 479.766C-6.47136 485.824 63.975 492.105 133.378 458.91C202.78 425.715 242.106 366.931 280.153 310.089C317.895 253.676 356.95 195.332 425.385 162.6C493.82 129.868 563.753 136.083 631.36 142.109C699.502 148.19 769.937 154.448 839.34 121.253L837.687 117.797C769.229 150.54 699.318 144.314 631.712 138.288C563.593 132.196 493.124 125.926 423.744 159.11Z" fill="#C4C4C4" fill-opacity="0.4"/>
<path d="M434.83 182.288C365.427 215.483 326.102 274.268 288.055 331.11C250.313 387.523 211.269 445.889 142.834 478.621C74.3758 511.364 4.46544 505.138 -63.1407 499.112C-99.3678 495.886 -136.838 492.546 -173.762 495.202L-173.521 499.022C-136.917 496.406 -99.6062 499.709 -63.5165 502.944C4.61469 509.002 75.0611 515.283 144.464 482.088C213.866 448.894 253.192 390.109 291.239 333.267C328.981 276.854 368.025 218.487 436.46 185.755C504.895 153.023 574.828 159.238 642.446 165.287C710.577 171.345 781.023 177.626 850.426 144.431L848.773 140.975C780.315 173.718 710.404 167.492 642.787 161.443C574.679 155.375 504.21 149.104 434.83 182.288Z" fill="#C4C4C4" fill-opacity="0.4"/>
<path d="M445.916 205.467C376.514 238.662 337.188 297.446 299.141 354.288C261.399 410.701 222.355 469.068 153.92 501.8C85.4619 534.543 15.5515 528.317 -52.0547 522.291C-88.2817 519.064 -125.752 515.724 -162.676 518.38L-162.435 522.2C-125.831 519.584 -88.5202 522.887 -52.4304 526.123C15.7007 532.181 86.1471 538.462 155.55 505.267C224.952 472.072 264.278 413.288 302.325 356.446C340.067 300.032 379.111 241.666 447.546 208.934C515.981 176.202 585.914 182.417 653.532 188.466C721.663 194.524 792.109 200.805 861.512 167.61L859.859 164.154C791.401 196.897 721.49 190.671 653.873 184.622C585.765 178.553 515.296 172.283 445.916 205.467Z" fill="#C4C4C4" fill-opacity="0.4"/>
<path d="M457.013 228.668C387.611 261.863 348.285 320.648 310.238 377.49C272.496 433.903 233.441 492.246 165.006 524.978C96.548 557.721 26.6376 551.495 -40.9686 545.469C-77.1956 542.243 -114.666 538.903 -151.59 541.559L-151.349 545.379C-114.745 542.763 -77.423 546.089 -41.3442 549.301C26.7869 555.359 97.2332 561.64 166.636 528.445C236.038 495.251 275.364 436.466 313.411 379.624C351.153 323.211 390.208 264.867 458.643 232.135C527.078 199.403 597.012 205.618 664.618 211.644C732.76 217.725 803.195 223.983 872.598 190.788L870.945 187.332C802.487 220.075 732.577 213.849 664.97 207.823C596.862 201.755 526.393 195.484 457.013 228.668Z" fill="#C4C4C4" fill-opacity="0.4"/>
<path d="M468.099 251.847C398.697 285.042 359.371 343.826 321.324 400.668C283.582 457.082 244.538 515.448 176.103 548.18C107.645 580.923 37.7349 574.697 -29.8713 568.671C-66.0983 565.445 -103.569 562.105 -140.493 564.761L-140.252 568.58C-103.648 565.965 -66.3258 569.29 -30.247 572.503C37.8841 578.561 108.33 584.842 177.733 551.647C247.136 518.452 286.462 459.668 324.508 402.826C362.25 346.413 401.295 288.046 469.729 255.314C538.164 222.582 608.098 228.797 675.715 234.846C743.846 240.904 814.292 247.185 883.695 213.99L882.042 210.534C813.584 243.277 743.674 237.051 676.057 231.002C607.948 224.933 537.479 218.663 468.099 251.847Z" fill="#C4C4C4" fill-opacity="0.4"/>
<path d="M479.186 275.025C409.783 308.22 370.457 367.005 332.41 423.847C294.668 480.26 255.613 538.603 187.178 571.335C118.72 604.078 48.8098 597.852 -18.7963 591.826C-55.0234 588.6 -92.4936 585.26 -129.418 587.916L-129.165 591.759C-92.5618 589.143 -55.2508 592.446 -19.161 595.681C48.9701 601.739 119.416 608.02 188.819 574.826C258.222 541.631 297.548 482.846 335.594 426.004C373.336 369.591 412.392 311.247 480.826 278.515C549.261 245.783 619.195 251.998 686.801 258.024C754.932 264.082 825.378 270.363 894.781 237.169L893.128 233.713C824.67 266.455 754.76 260.229 687.154 254.204C619.035 248.112 548.565 241.842 479.186 275.025Z" fill="#C4C4C4" fill-opacity="0.4"/>
<path d="M490.272 298.204C420.869 331.399 381.543 390.183 343.497 447.025C305.755 503.438 266.71 561.805 198.275 594.537C129.817 627.28 59.907 621.054 -7.6992 615.028C-43.9262 611.801 -81.3965 608.461 -118.321 611.117L-118.079 614.937C-81.4757 612.321 -44.1537 615.647 -8.07492 618.86C60.0562 624.918 130.503 631.199 199.905 598.004C269.308 564.809 308.634 506.025 346.68 449.183C384.422 392.769 423.467 334.403 491.902 301.671C560.336 268.939 630.27 275.154 697.887 281.203C766.029 287.284 836.465 293.542 905.867 260.347L904.214 256.891C835.756 289.634 765.846 283.408 698.229 277.359C630.121 271.29 559.651 265.02 490.272 298.204Z" fill="#C4C4C4" fill-opacity="0.4"/>
<path d="M501.358 321.382C431.955 354.577 392.629 413.362 354.583 470.204C316.841 526.617 277.796 584.984 209.362 617.716C140.904 650.459 70.9933 644.233 3.37606 638.184C-32.886 635.002 -70.3563 631.662 -107.258 634.307L-106.993 638.116C-70.3894 635.5 -33.0784 638.803 3.01137 642.039C71.1425 648.096 141.589 654.377 210.991 621.183C280.394 587.988 319.72 529.203 357.767 472.361C395.509 415.948 434.564 357.605 502.999 324.873C571.434 292.141 641.367 298.356 708.973 304.382C777.116 310.462 847.551 316.721 916.953 283.526L915.3 280.07C846.843 312.813 776.932 306.587 709.315 300.538C641.207 294.469 570.737 288.199 501.358 321.382Z" fill="#C4C4C4" fill-opacity="0.4"/>
<path d="M512.455 344.584C443.052 377.779 403.726 436.563 365.68 493.405C327.938 549.818 288.882 608.162 220.448 640.894C151.99 673.637 82.0793 667.411 14.4731 661.385C-21.7539 658.158 -59.2242 654.818 -96.1485 657.474L-95.907 661.294C-59.3033 658.678 -21.9923 661.981 14.0974 665.217C82.2396 671.298 152.675 677.556 222.078 644.361C291.48 611.166 330.806 552.382 368.853 495.54C406.595 439.126 445.639 380.76 514.074 348.028C582.509 315.296 652.442 321.511 720.059 327.56C788.202 333.641 858.637 339.899 928.04 306.704L926.387 303.248C857.929 335.991 788.018 329.765 720.412 323.739C652.293 317.647 581.835 311.4 512.455 344.584Z" fill="#C4C4C4" fill-opacity="0.4"/>
<path d="M523.541 367.762C454.138 400.957 414.813 459.742 376.766 516.584C339.024 572.997 299.968 631.341 231.534 664.072C163.076 696.815 93.1653 690.589 25.5592 684.564C-10.6679 681.337 -48.1381 677.997 -85.0624 680.653L-84.81 684.496C-48.2063 681.88 -10.8953 685.183 25.1945 688.418C93.3256 694.476 163.772 700.757 233.175 667.563C302.577 634.368 341.903 575.583 379.95 518.741C417.692 462.328 456.747 403.984 525.182 371.253C593.617 338.521 663.55 344.736 731.156 350.761C799.288 356.819 869.734 363.1 939.137 329.906L937.484 326.45C869.026 359.193 799.115 352.966 731.509 346.941C663.39 340.849 592.921 334.579 523.541 367.762Z" fill="#C4C4C4" fill-opacity="0.4"/>
<path d="M534.627 390.941C465.225 424.136 425.899 482.92 387.852 539.762C350.11 596.175 311.055 654.519 242.62 687.251C174.162 719.994 104.252 713.768 36.6454 707.742C0.418375 704.515 -37.0519 701.176 -73.9762 703.831L-73.7238 707.674C-37.1201 705.058 0.201948 708.384 36.2807 711.597C104.412 717.655 174.858 723.936 244.261 690.741C313.663 657.546 352.989 598.762 391.036 541.92C428.778 485.507 467.833 427.163 536.268 394.431C604.703 361.699 674.636 367.914 742.243 373.94C810.385 380.021 880.82 386.279 950.223 353.084L948.57 349.628C880.112 382.371 810.202 376.145 742.595 370.119C674.476 364.027 604.007 357.757 534.627 390.941Z" fill="#C4C4C4" fill-opacity="0.4"/>
<path d="M545.713 414.119C476.311 447.314 436.985 506.099 398.938 562.941C361.196 619.354 322.141 677.697 253.706 710.429C185.248 743.172 115.338 736.946 47.7314 730.92C11.5044 727.694 -25.9659 724.354 -62.8902 727.01L-62.6377 730.853C-26.034 728.237 11.277 731.54 47.3667 734.775C115.498 740.833 185.944 747.114 255.347 713.919C324.749 680.725 364.075 621.94 402.122 565.098C439.864 508.685 478.919 450.341 547.354 417.609C615.789 384.877 685.723 391.093 753.329 397.118C821.471 403.199 891.906 409.457 961.309 376.263L959.656 372.807C891.198 405.549 821.288 399.323 753.681 393.298C685.562 387.206 615.093 380.936 545.713 414.119Z" fill="#C4C4C4" fill-opacity="0.4"/>
<path d="M556.799 437.298C487.397 470.493 448.071 529.277 410.024 586.119C372.282 642.532 333.227 700.876 264.792 733.608C196.334 766.351 126.424 760.125 58.8175 754.099C22.5905 750.872 -14.8797 747.532 -51.8041 750.188L-51.5516 754.031C-14.9479 751.415 22.3631 754.718 58.4529 757.954C126.584 764.012 197.03 770.293 266.433 737.098C335.836 703.903 375.162 645.119 413.208 588.277C450.95 531.864 489.994 473.497 558.429 440.765C626.864 408.033 696.798 414.248 764.415 420.297C832.557 426.378 902.992 432.636 972.395 399.441L970.742 395.985C902.284 428.728 832.374 422.502 764.767 416.476C696.648 410.384 626.179 404.114 556.799 437.298Z" fill="#C4C4C4" fill-opacity="0.4"/>
<path d="M567.885 460.476C498.483 493.671 459.157 552.456 421.11 609.298C383.368 665.711 344.313 724.054 275.878 756.786C207.443 789.518 137.51 783.303 69.9036 777.277C33.6766 774.051 -3.79368 770.711 -40.718 773.367L-40.4655 777.21C-3.86182 774.594 33.4492 777.897 69.5389 781.132C137.67 787.19 208.116 793.471 277.519 760.276C346.922 727.082 386.248 668.297 424.294 611.455C462.036 555.042 501.081 496.675 569.515 463.943C637.95 431.211 707.884 437.426 775.501 443.475C843.632 449.533 914.078 455.814 983.481 422.619L981.828 419.163C913.37 451.906 843.46 445.68 775.854 439.655C707.734 433.563 637.265 427.292 567.885 460.476Z" fill="#C4C4C4" fill-opacity="0.4"/>
<path d="M578.983 483.678C509.58 516.872 470.254 575.657 432.208 632.499C394.466 688.912 355.41 747.256 286.975 779.988C218.517 812.731 148.607 806.504 81.0008 800.479C44.7738 797.252 7.30349 793.912 -29.6208 796.568L-29.3794 800.388C7.22433 797.772 44.5353 801.075 80.6251 804.31C148.756 810.368 219.203 816.649 288.605 783.455C358.008 750.26 397.334 691.475 435.38 634.633C473.122 578.22 512.167 519.854 580.602 487.122C649.036 454.39 718.97 460.605 786.587 466.654C854.718 472.711 925.165 478.993 994.567 445.798L992.914 442.342C924.456 475.085 854.546 468.859 786.94 462.833C718.832 456.764 648.362 450.494 578.983 483.678Z" fill="#C4C4C4" fill-opacity="0.4"/>
<path d="M590.069 506.856C520.666 540.051 481.34 598.835 443.294 655.677C405.552 712.091 366.496 770.434 298.061 803.166C229.603 835.909 159.693 829.683 92.0869 823.657C55.8138 820.453 18.3435 817.113 -18.5578 819.758L-18.2823 823.589C18.3214 820.974 55.6324 824.276 91.7222 827.512C159.853 833.57 230.3 839.851 299.702 806.656C369.105 773.462 408.431 714.677 446.477 657.835C484.219 601.422 523.275 543.078 591.71 510.346C660.145 477.614 730.078 483.829 797.684 489.855C865.826 495.936 936.262 502.194 1005.66 468.999L1004.01 465.543C935.553 498.286 865.643 492.06 798.037 486.034C729.918 479.942 659.448 473.672 590.069 506.856Z" fill="#C4C4C4" fill-opacity="0.4"/>
<path d="M601.155 530.035C531.752 563.229 492.426 622.014 454.38 678.856C416.638 735.269 377.582 793.613 309.147 826.345C240.69 859.088 170.779 852.862 103.173 846.836C66.8999 843.631 29.4296 840.291 -7.47165 842.936L-7.19616 846.768C29.4076 844.152 66.7296 847.478 102.808 850.691C170.939 856.748 241.386 863.03 310.788 829.835C380.191 796.64 419.517 737.855 457.564 681.014C495.306 624.6 534.361 566.257 602.796 533.525C671.231 500.793 741.164 507.008 808.77 513.034C876.901 519.091 947.348 525.373 1016.75 492.178L1015.1 488.722C946.639 521.465 876.729 515.239 809.123 509.213C741.004 503.121 670.534 496.851 601.155 530.035Z" fill="#C4C4C4" fill-opacity="0.4"/>
<path d="M612.241 553.213C542.838 586.408 503.512 645.192 465.466 702.034C427.724 758.448 388.668 816.791 320.234 849.523C251.776 882.266 181.865 876.04 114.259 870.014C77.9859 866.81 40.5157 863.47 3.61441 866.115L3.8899 869.946C40.4936 867.331 77.8046 870.633 113.894 873.869C182.026 879.927 252.472 886.208 321.874 853.013C391.277 819.818 430.603 761.034 468.65 704.192C506.392 647.779 545.447 589.435 613.882 556.703C682.317 523.971 752.25 530.186 819.856 536.212C887.999 542.293 958.434 548.551 1027.84 515.356L1026.18 511.9C957.726 544.643 887.815 538.417 820.209 532.391C752.09 526.299 681.62 520.029 612.241 553.213Z" fill="#C4C4C4" fill-opacity="0.4"/>
<path d="M623.327 576.392C553.924 609.586 514.598 668.371 476.552 725.213C438.81 781.626 399.765 839.993 331.331 872.725C262.873 905.468 192.962 899.242 125.356 893.216C89.083 890.011 51.6127 886.671 14.7115 889.316L14.976 893.125C51.5797 890.509 88.8907 893.812 124.98 897.048C193.112 903.105 263.558 909.387 332.961 876.192C402.363 842.997 441.689 784.212 479.736 727.37C517.478 670.957 556.533 612.614 624.968 579.882C693.403 547.15 763.336 553.365 830.942 559.391C899.074 565.448 969.52 571.73 1038.92 538.535L1037.27 535.079C968.812 567.822 898.901 561.596 831.284 555.547C763.176 549.478 692.707 543.208 623.327 576.392Z" fill="#C4C4C4" fill-opacity="0.4"/>
<path d="M634.413 599.57C565.011 632.765 525.685 691.549 487.638 748.391C449.896 804.804 410.852 863.171 342.417 895.903C273.959 928.646 204.049 922.42 136.442 916.394C100.169 913.19 62.699 909.85 25.7977 912.495L26.0622 916.303C62.6659 913.688 99.9769 916.99 136.067 920.226C204.198 926.284 274.644 932.565 344.047 899.37C413.449 866.175 452.775 807.391 490.822 750.549C528.564 694.136 567.608 635.769 636.043 603.037C704.478 570.305 774.411 576.52 842.029 582.569C910.16 588.627 980.606 594.908 1050.01 561.713L1048.36 558.257C979.898 591 909.987 584.774 842.37 578.725C774.262 572.656 703.793 566.386 634.413 599.57Z" fill="#C4C4C4" fill-opacity="0.4"/>
<path d="M645.51 622.771C576.108 655.966 536.782 714.751 498.735 771.593C460.993 828.006 421.938 886.35 353.503 919.081C285.045 951.824 215.135 945.598 147.528 939.573C111.255 936.368 73.785 933.028 36.8837 935.673L37.1482 939.482C73.7519 936.866 111.074 940.192 147.153 943.404C215.295 949.485 285.741 955.766 355.144 922.572C424.546 889.377 463.872 830.592 501.919 773.75C539.661 717.337 578.716 658.993 647.151 626.262C715.586 593.53 785.519 599.745 853.126 605.77C921.268 611.851 991.703 618.109 1061.11 584.915L1059.45 581.459C990.995 614.202 921.085 607.975 853.478 601.95C785.359 595.858 714.89 589.588 645.51 622.771Z" fill="#C4C4C4" fill-opacity="0.4"/>
<path d="M656.596 645.95C587.194 679.145 547.868 737.929 509.832 794.794C489.525 825.089 468.56 856.435 443.319 883.399L446.129 886.019C471.591 858.807 492.639 827.337 512.994 796.906C550.759 740.482 589.78 682.126 658.238 649.383C726.696 616.64 796.607 622.866 864.213 628.892C900.69 632.169 938.423 635.524 975.589 632.781L975.313 628.95C938.479 631.676 900.918 628.323 864.577 625.094C796.445 619.036 725.976 612.766 656.596 645.95Z" fill="#C4C4C4" fill-opacity="0.4"/>
</g>
</svg>
