<svg width="129" height="114" viewBox="0 0 129 114" fill="none" xmlns="http://www.w3.org/2000/svg">
<circle cx="54.5" cy="59.5" r="54.5" fill="#FFB800" fill-opacity="0.49"/>
<path d="M55.8426 99.9881C52.9438 99.9881 50.03 99.973 47.1312 99.9881C44.1423 100.003 41.1684 99.9126 39.8167 96.5623C38.3447 92.9252 38.8404 89.4541 41.4838 86.5565C44.683 83.0703 48.9936 81.0179 53.0039 78.7541C59.0568 75.3434 62.6164 70.7254 62.7666 63.6021C62.8567 59.5576 63.3223 55.5432 63.4575 51.4986C63.6227 46.7146 60.754 42.8209 59.4473 38.4594C58.3058 34.6865 58.9817 31.4116 61.6401 28.514C63.097 26.9294 64.2836 27.1256 65.2448 29.0121C66.0108 30.5061 66.6867 32.0455 67.5578 33.4641C71.9886 40.6779 81.8265 41.9305 88.0446 36.1353C93.2714 31.2607 95.8848 24.877 98.2429 18.3423C99.5946 14.5845 100.511 14.0864 103.695 16.2898C107.795 19.112 112.091 21.7077 115.365 25.6014C115.951 26.3107 116.387 27.0351 116.762 27.8349C117.363 29.0724 118.039 30.7023 116.417 31.3211C114.885 31.9248 114.885 30.0685 114.269 29.0875C111.43 24.4846 106.924 21.7379 102.448 19.0969C100.901 18.1763 100.631 20.0175 100.21 21.089C97.8824 27.1558 95.0737 32.8604 90.5528 37.72C84.2596 44.481 72.6945 43.6661 67.3926 37.9161C66.1911 36.6183 65.2298 35.094 64.2686 33.5999C63.878 32.9963 64.0282 31.9097 62.8867 32.0606C61.55 32.2266 61.9555 33.4188 61.8504 34.2036C61.2797 38.0218 63.7278 41.0099 64.7191 44.4056C65.0646 45.5827 65.9658 46.7598 65.8606 47.8615C65.4251 52.1174 67.7531 52.6305 71.1025 52.3136C72.1088 52.223 73.9562 51.6344 73.9111 53.536C73.8811 55.2414 72.1538 54.8037 71.0123 54.8942C69.9009 54.9848 68.7744 54.9395 67.663 54.9697C65.8006 54.9999 66.0108 56.3732 65.9357 57.6107C65.8456 59.0294 66.116 59.9349 67.8432 60.0556C69.3452 60.1612 72.0637 59.1954 72.0487 61.2327C72.0337 63.919 69.24 62.3948 67.7381 62.4853C65.3349 62.6363 65.5452 64.2812 65.35 65.7753C65.1096 67.5863 66.2962 67.7825 67.663 67.7674C68.3238 67.7674 69.0298 67.7071 69.6606 67.8882C70.2764 68.0542 70.9373 68.4315 70.8171 69.2766C70.712 70.0463 70.1863 70.6499 69.4653 70.4537C64.8844 69.2313 63.6227 72.7326 61.5049 75.5698C58.3809 79.7804 53.2291 81.4555 49.1588 84.5342C47.2964 85.9378 43.6016 86.3754 44.0972 88.8806C44.3976 90.3596 48.2877 89.5145 50.5406 89.4994C55.0015 89.4843 59.4623 89.8314 63.9231 89.1825C73.6558 87.7638 80.9553 82.8138 85.0106 73.8041C87.5639 68.1598 91.3188 63.8285 96.035 59.9801C104.626 52.9776 110.949 43.8019 118.249 35.5618C119.976 33.615 121.223 33.1019 123.085 35.094C123.686 35.7429 124.512 36.1806 125.173 36.7692C129.409 40.4666 129.874 44.9941 126.014 49.0236C118.594 56.8562 112.091 65.73 102.584 71.4649C100.496 72.7326 98.9788 74.7096 98.0176 77.0639C95.1639 83.9909 89.156 88.0657 83.779 92.6686C77.8763 97.7243 70.9973 100.169 63.2172 100.003C60.754 99.9428 58.2908 99.9881 55.8426 99.9881ZM56.8188 97.0754C58.1556 97.0754 59.5073 97.015 60.8441 97.0905C76.5095 97.996 86.3474 88.9863 94.518 77.1393C96.5306 74.2266 98.0026 70.8612 101.157 68.9295C106.684 65.5188 111.355 61.1573 115.606 56.2978C118.594 52.8871 121.809 49.6725 124.692 46.1713C126.855 43.5302 126.014 41.0703 122.905 38.4745C120.096 36.1353 119.405 38.8669 118.174 40.2403C110.439 48.8274 103.68 58.3351 94.4579 65.5188C91.3789 67.9183 89.5465 71.0725 87.9094 74.5587C86.5126 77.5317 85.0106 80.4444 82.5174 82.8892C75.5633 89.7107 67.3025 92.6535 57.735 92.4875C53.2742 92.4121 48.7984 92.4574 44.3375 92.5026C43.4514 92.5177 42.1447 92.0499 41.9494 93.5741C41.7692 94.9022 42.2799 96.1246 43.5115 96.6528C44.3976 97.0301 45.464 97.0603 46.4553 97.0754C49.8948 97.1056 53.3493 97.0754 56.8188 97.0754Z" fill="#0B0B0B" stroke="#0B0B0B" stroke-width="0.5"/>
<path d="M66.116 21.1947C66.0559 21.2852 65.8907 21.8134 65.5753 21.9342C64.599 22.3265 63.9231 21.738 63.2923 21.0287C58.9066 16.2144 54.4908 11.4153 50.0901 6.60104C49.3391 5.771 48.6332 4.92587 47.8822 4.09583C47.1312 3.26579 46.1249 2.3452 47.3865 1.31896C48.4229 0.473832 49.279 1.50006 49.9249 2.17919C52.5683 4.98623 55.1517 7.85365 57.7501 10.706C60.1382 13.3319 62.5113 15.9579 64.8844 18.5989C65.4701 19.2629 66.2512 19.8062 66.116 21.1947Z" fill="#0B0B0B" stroke="#0B0B0B" stroke-width="0.5"/>
<path d="M84.9355 1.0472C86.047 0.956646 86.5126 1.69614 86.9932 2.23944C89.2311 4.82011 91.409 7.46115 93.6018 10.0871C94.2176 10.8266 94.5781 11.6868 93.767 12.4263C92.8959 13.2111 92.0698 12.6225 91.469 11.9283C89.0809 9.18159 86.6928 6.43491 84.4399 3.58259C83.779 2.73746 83.5086 1.49995 84.9355 1.0472Z" fill="#0B0B0B" stroke="#0B0B0B" stroke-width="0.5"/>
<path d="M18.5 71L43 63" stroke="black" stroke-width="3" stroke-linecap="round" stroke-linejoin="round"/>
<path d="M18.5 48H33.5" stroke="black" stroke-width="3" stroke-linecap="round" stroke-linejoin="round"/>
</svg>
