<svg width="129" height="120" viewBox="0 0 129 120" fill="none" xmlns="http://www.w3.org/2000/svg">
<circle cx="69" cy="60" r="60" fill="#9CE600" fill-opacity="0.49"/>
<path d="M7.07377 12.4731C7.72412 17.1366 9.29448 21.229 10.7855 25.258C13.4504 32.4278 13.3076 39.534 11.4042 46.7513C10.5 50.1617 9.61172 53.5721 8.69172 56.9824C8.34275 58.2514 8.32688 59.4252 9.78621 59.9011C12.8476 60.9321 15.7028 62.7087 19.367 62.899C18.7959 60.0597 16.6228 58.3624 15.798 55.9831C15.4331 54.9362 14.8621 53.8734 16.258 53.3183C17.3207 52.89 18.0028 53.6672 18.3518 54.6507C18.3835 54.7617 18.447 54.8728 18.5104 54.9679C26.7746 67.8798 23.158 63.9935 37.3388 65.9922C43.3347 66.8329 49.3941 65.8653 55.2948 64.8342C59.2762 64.1363 60.6087 59.9328 62.7818 56.9824C63.337 56.2369 63.6384 55.301 64.1142 54.4921C64.6059 53.6672 65.177 52.7789 66.3349 53.3976C67.4611 54.0003 67.2073 55.1266 66.7632 55.8879C65.4942 58.0928 64.5266 60.488 62.068 62.9783C66.6522 62.6928 69.7453 60.948 72.9019 59.5997C74.3136 58.9969 73.584 57.2204 73.3302 56.0307C72.6164 52.6996 72.0612 49.2734 70.8715 46.1168C67.9211 38.2968 69.4915 30.8415 72.0929 23.3704C73.3143 19.849 74.3771 16.28 75.5826 12.5048C67.7149 15.5187 60.0059 15.7407 52.2493 13.9483C48.3155 13.0442 45.3334 10.6014 43.541 6.88962C43.0334 5.84272 42.7637 4.7165 44.0485 4.17719C45.1589 3.70132 45.5713 4.77995 46.0789 5.58892C48.7913 9.96689 52.7886 12.0131 57.8962 11.9655C60.0218 11.9497 62.1473 11.8228 64.2728 11.9497C69.3963 12.251 73.4571 10.5855 76.3281 6.15996C76.9309 5.23995 77.6764 3.51097 79.2943 4.35167C80.5792 5.01788 80.0399 6.54065 79.7702 7.5717C78.2792 13.1235 77.0102 18.7704 74.964 24.1318C72.2198 31.3174 71.4743 38.4078 73.6474 45.8472C77.1529 57.839 79.7068 70.0529 81.4516 82.4095C82.562 90.2455 82.3082 98.1765 81.9433 106.092C81.8957 107.25 81.3564 108.027 80.2937 107.948C79.1516 107.852 78.9612 106.821 79.0564 105.79C79.0723 105.679 79.0881 105.552 79.0723 105.441C79.0564 102.999 80.6585 99.969 79.0405 98.2717C77.2164 96.3524 74.4564 98.7317 72.1405 99.1283C65.0342 100.334 57.928 101.365 50.7107 101.333C47.681 101.317 47.2844 102.681 48.4424 105.092C48.9182 106.076 49.521 107.234 48.141 107.805C46.7134 108.392 46.2375 107.266 45.7458 106.06C44.4451 102.872 43.6044 99.5883 43.3189 96.162C43.2078 94.8931 43.0492 93.5448 41.1775 93.4813C39.1313 93.4179 39.4644 94.8614 39.1947 96.0986C38.4492 99.5407 37.9099 103.046 36.3871 106.266C35.943 107.218 35.483 108.424 34.1188 107.852C32.485 107.186 33.1354 106.044 33.7857 104.966C35.3243 102.396 34.4361 101.365 31.5967 101.349C22.7139 101.301 13.9738 100.207 5.39238 97.8752C3.6634 97.3993 2.96546 97.9545 3.0765 99.731C3.18753 101.492 3.23512 103.268 3.23512 105.045C3.23512 106.139 3.7903 107.757 2.06132 107.868C0.18958 107.995 0.41165 106.235 0.316477 105.045C-0.270424 98.2083 0.0150956 91.3717 0.713032 84.5509C2.09304 71.0363 5.29721 57.8866 8.8662 44.832C11.0552 36.8216 9.18344 29.4932 6.7248 22.038C5.17031 17.3587 3.90133 12.6 2.60063 7.84135C2.25166 6.63583 1.522 5.06547 2.96546 4.28822C4.55168 3.44753 5.15445 5.08133 5.83652 6.09651C8.62827 10.2524 12.4352 12.2352 17.5111 11.9179C21.9366 11.6483 26.505 12.7745 30.7243 10.5855C32.8181 9.49102 34.6264 8.11101 35.8795 5.98548C36.4347 5.04961 36.9899 3.11442 38.703 4.46271C40.1782 5.62065 38.8933 6.74686 38.2271 7.80963C35.8161 11.5848 32.3422 13.9007 27.9484 14.4718C21.0325 15.3442 14.1324 15.5028 7.07377 12.4731ZM27.7422 98.3986C28.916 98.5097 30.0898 98.7317 31.2636 98.7C32.9767 98.6524 35.1974 99.7628 35.9271 96.9869C36.5299 94.7186 36.7361 92.6565 34.1664 91.2448C32.2629 90.1979 31.0891 88.3896 30.2326 86.4068C29.8836 85.582 29.836 84.7095 30.756 84.2813C31.5967 83.9006 32.2312 84.2813 32.834 85.0426C38.9409 92.6089 43.5727 92.72 49.3307 85.4709C49.9334 84.7095 50.4251 83.6626 51.5196 84.2813C52.6934 84.9475 52.3127 86.1847 51.821 87.0889C50.6948 89.1827 49.0451 90.8799 47.0465 92.133C44.9051 93.4655 46.0313 95.2579 46.2058 96.86C46.412 98.6524 47.7762 98.9221 49.3624 98.7952C58.2769 98.0496 67.1756 97.3993 75.8998 95.0993C79.0564 94.2744 79.453 92.9896 79.215 90.2296C78.5171 81.7592 76.9626 73.4474 75.4715 65.1039C74.964 62.2328 73.4888 62.5025 71.4267 63.3749C62.7501 67.0232 53.5817 68.5618 44.2706 68.9901C32.6119 69.5136 21.2863 67.5942 10.4207 63.2321C8.46964 62.4549 7.45446 62.5976 6.96274 64.8659C4.99582 73.8439 3.17167 82.8378 3.0765 92.0855C3.06064 93.8303 3.77444 94.3855 5.43997 94.8772C12.7524 97.0186 20.2553 97.6531 27.7422 98.3986Z" fill="#0B0B0B"/>
<path d="M51.5672 29.6678C49.9334 29.4457 47.6175 29.1126 45.2857 28.8271C43.6995 28.6367 42.843 27.6533 43.2871 26.2257C43.7312 24.7981 44.8892 25.385 45.9044 25.8767C48.4423 27.0981 51.2182 26.5746 53.8831 26.7808C55.0727 26.876 56.9445 26.2891 56.9445 28.1609C56.9445 30.2705 54.9617 29.5409 53.6927 29.6678C53.2168 29.6995 52.741 29.6678 51.5672 29.6678Z" fill="#0B0B0B"/>
<path d="M30.8829 29.6679C29.265 29.6679 28.4402 29.6996 27.6312 29.652C26.6477 29.6044 25.6484 29.4141 25.7277 28.1292C25.7912 26.8602 26.7746 26.8127 27.774 26.7492C31.0257 26.5589 34.3726 27.1934 37.434 25.4009C38.1954 24.9568 39.1154 25.5754 39.2582 26.4796C39.4644 27.7644 38.5127 28.4941 37.4499 28.7003C35.0071 29.1761 32.5485 29.4299 30.8829 29.6679Z" fill="#0B0B0B"/>
<path d="M30.3436 44.4513C29.5029 44.372 28.6781 44.372 27.885 44.2134C27.1236 44.0706 26.6636 43.6106 26.7746 42.7382C26.8539 42.0244 27.2822 41.7389 27.9167 41.6596C31.2319 41.3265 34.7216 42.0561 37.7512 39.8671C38.1161 39.5975 39.0995 40.343 39.2423 41.0727C39.5119 42.5479 38.4016 43.3092 37.2912 43.5313C34.9912 43.9913 32.6436 44.1658 30.3436 44.4513Z" fill="#0B0B0B"/>
<path d="M51.7893 44.4514C49.4734 44.1501 47.1099 43.9597 44.794 43.5156C43.4933 43.2618 42.8113 42.1831 43.2871 40.8507C43.8423 39.3279 44.8099 39.9783 45.7934 40.5493C47.7127 41.6438 49.9017 41.4059 51.9955 41.6121C53.2169 41.739 55.3741 40.8031 55.2472 43.0556C55.1521 45.0066 53.1058 44.1976 51.7893 44.4514Z" fill="#0B0B0B"/>
</svg>
