<svg width="131" height="130" viewBox="0 0 131 130" fill="none" xmlns="http://www.w3.org/2000/svg">
<circle cx="60" cy="70" r="60" fill="#FF0079" fill-opacity="0.36"/>
<path d="M79.025 40.1518C79.025 44.0573 78.9565 47.9628 79.0592 51.8598C79.1021 53.6156 78.4854 54.8746 77.1579 55.928C72.8584 59.3539 68.6017 62.8398 64.2679 66.2314C63.1288 67.1222 61.6471 67.7131 60.5765 66.2229C59.5659 64.8183 60.6879 63.8504 61.7413 62.994C65.5355 59.9449 69.2526 56.776 73.1667 53.8896C74.5884 52.8447 74.9396 51.757 74.931 50.1725C74.8796 43.2008 74.9139 36.2291 74.9139 29.2574C74.9139 28.6065 74.8711 27.947 74.9396 27.3046C75.0766 25.9942 75.5391 24.9236 77.1236 24.9836C78.5967 25.0436 78.965 26.1484 78.9736 27.3132C79.025 31.587 78.9907 35.8608 78.9907 40.1432C79.0079 40.1518 79.0164 40.1518 79.025 40.1518Z" fill="#0B0B0B"/>
<path d="M78.9992 3.90571C78.9992 4.46242 79.0678 5.02769 78.9821 5.57584C78.8023 6.73208 78.3826 7.82837 76.9523 7.75128C75.6162 7.68277 75.0766 6.66356 74.9567 5.48163C74.8539 4.47098 74.8625 3.43465 74.9481 2.42401C75.0509 1.15643 75.4449 -0.0169442 77.0294 0.000185261C78.6652 0.0173148 78.8622 1.2849 78.9992 2.51822C79.0506 2.98072 79.0078 3.44321 79.0078 3.91428C79.0078 3.90571 78.9992 3.90571 78.9992 3.90571Z" fill="#0B0B0B"/>
<path d="M79.025 103.051C79.025 103.514 79.0592 103.976 79.0164 104.43C78.905 105.672 78.6481 106.982 77.1064 107C75.4963 107.025 75.0081 105.775 74.9139 104.379C74.8796 103.925 74.931 103.462 74.8967 103C74.7597 101.236 75.0081 99.2142 77.0208 99.2142C79.1706 99.2142 79.0763 101.373 79.025 103.051Z" fill="#0B0B0B"/>
<path d="M100.857 14.055C100.762 14.0379 100.668 14.0465 100.582 14.0122C99.7859 13.6867 98.8866 13.2157 99.0151 12.3078C99.3148 10.1495 100.488 8.3509 102.116 6.95484C102.655 6.49234 103.434 6.79211 104.077 7.40877C105.242 8.53932 104.813 9.54996 104.094 10.6034C103.186 11.9053 102.826 13.7381 100.857 14.055Z" fill="#0B0B0B"/>
<path d="M53.4078 14.055C53.502 14.0379 53.5962 14.0465 53.6818 14.0122C54.4784 13.6867 55.3777 13.2157 55.2492 12.3078C54.9494 10.1495 53.776 8.3509 52.1487 6.95484C51.6092 6.49234 50.8298 6.79211 50.1874 7.40877C49.0226 8.53932 49.4508 9.54996 50.1703 10.6034C51.0782 11.9053 51.4379 13.7381 53.4078 14.055Z" fill="#0B0B0B"/>
<path d="M37.7771 77.0573C37.7257 78.6589 33.1436 81.7679 31.9617 81.2283C31.0195 80.8001 30.3344 80.0121 30.617 78.8131C30.8825 77.6911 34.7109 75.1474 35.91 75.3187C37.0919 75.4814 37.5202 76.3721 37.7771 77.0573Z" fill="#0B0B0B"/>
<path d="M123.442 79.4383C123.39 80.2862 122.936 81.0656 121.909 81.314C120.864 81.5624 116.71 78.8987 116.539 77.8624C116.376 76.9203 116.427 75.9781 117.481 75.4814C119.134 74.6849 123.45 77.417 123.442 79.4383Z" fill="#0B0B0B"/>
<path d="M104.788 98.315C104.676 99.3171 104.051 99.9765 102.844 100.002C101.516 100.028 98.9551 96.6277 98.9723 94.812C98.9808 93.553 99.7431 93.0134 100.934 93.0048C102.21 92.9963 104.865 96.5335 104.788 98.315Z" fill="#0B0B0B"/>
<path d="M126.499 55.3713C125.343 55.1829 123.981 55.7653 123.185 54.472C122.645 53.5899 122.808 52.6649 123.519 51.9283C124.204 51.226 128.949 51.1489 129.72 51.8512C130.431 52.5021 130.867 53.3672 130.276 54.3264C129.351 55.8424 127.784 55.1401 126.499 55.3713Z" fill="#0B0B0B"/>
<path d="M30.36 55.3713C29.2038 55.1829 27.842 55.7653 27.0455 54.472C26.5059 53.5899 26.6686 52.6649 27.3795 51.9283C28.0647 51.226 32.8096 51.1489 33.5804 51.8512C34.2913 52.5021 34.7281 53.3672 34.1371 54.3264C33.2121 55.8424 31.6448 55.1401 30.36 55.3713Z" fill="#0B0B0B"/>
<path d="M49.5451 98.0238C49.5451 96.0624 51.9346 92.9363 53.3821 93.0048C54.6325 93.0562 55.2321 93.7328 55.1807 94.949C55.1121 96.8247 52.5684 100.011 51.2409 99.9851C49.9133 99.968 49.4765 99.2228 49.5451 98.0238Z" fill="#0B0B0B"/>
<path d="M121.643 26.0456C122.894 26.0113 123.519 26.568 123.433 27.8698C123.348 29.146 119.827 31.7411 118.26 31.6383C117.061 31.5613 116.461 30.9103 116.479 29.677C116.504 28.1782 119.596 25.9942 121.643 26.0456Z" fill="#0B0B0B"/>
<path d="M37.4859 29.0176C36.972 30.1138 36.2012 31.0303 34.8908 31.2016C33.5804 31.3729 30.6255 29.0433 30.5656 27.8528C30.5142 26.5423 31.3364 26.0713 32.5012 26.0113C33.9144 25.9428 37.4773 28.0583 37.4859 29.0176Z" fill="#0B0B0B"/>
</svg>
