<svg width="136" height="120" viewBox="0 0 136 120" fill="none" xmlns="http://www.w3.org/2000/svg">
<circle cx="76" cy="60" r="60" fill="#3D5FCC" fill-opacity="0.34"/>
<path d="M44.4624 33.3011C56.5284 33.3011 68.6102 33.3011 80.6763 33.3011C84.8868 33.3011 84.8868 33.3011 84.9025 28.9334C84.9025 27.2052 84.9811 25.477 84.8554 23.7645C84.5726 19.5539 82.4359 17.5586 78.2568 17.4486C76.8428 17.4172 75.4131 17.4329 73.9991 17.4015C72.9307 17.3701 72.6794 16.6788 72.6951 15.7519C72.7108 15.0134 72.805 14.4321 73.6849 14.1336C77.974 12.6411 84.4155 14.8092 86.9607 18.5327C88.0761 20.1824 88.0761 22.0048 88.0761 23.7802C88.1233 45.0843 88.1704 66.3884 88.0761 87.6926C88.0447 94.2441 84.8711 97.2449 78.2725 97.2606C55.7429 97.292 33.229 97.292 10.6994 97.2606C4.21077 97.2449 0.974304 93.8984 0.974304 87.2841C0.974304 66.3884 0.974304 45.4928 0.990015 24.5972C1.00573 17.3544 4.30504 14.1179 11.6107 14.0865C12.8204 14.0865 14.0459 14.1179 15.2556 14.1179C16.4182 14.1179 16.4811 14.872 16.4811 15.7519C16.4811 16.616 16.4497 17.4172 15.2713 17.4172C13.6531 17.4329 12.0191 17.4015 10.4009 17.4644C6.61456 17.6058 4.47786 19.7267 4.30504 23.5445C4.21077 25.7755 4.3993 28.0222 4.22648 30.2374C4.03795 32.6098 4.87064 33.3796 7.30584 33.3482C19.7018 33.2382 32.0821 33.3011 44.4624 33.3011ZM44.4152 36.7889C32.2392 36.7889 20.0789 36.8675 7.90286 36.7261C5.18485 36.6946 4.19506 37.3702 4.21077 40.2296C4.33646 55.7521 4.25791 71.2589 4.28933 86.7813C4.30504 92.1702 6.19036 94.0398 11.6735 94.0398C33.5746 94.0713 55.4915 94.0713 77.3927 94.0398C82.8601 94.0398 84.8554 91.9974 84.8711 86.4985C84.9025 71.086 84.824 55.6578 84.9339 40.2453C84.9497 37.4173 83.9756 36.6789 81.2262 36.7103C68.9716 36.8675 56.6855 36.7889 44.4152 36.7889Z" fill="#0B0B0B"/>
<path d="M53.4177 105.556C42.4514 105.556 31.5008 105.556 20.5345 105.556C18.3821 105.556 16.2768 105.414 14.3287 104.346C13.606 103.953 12.5847 103.498 13.1661 102.634C13.6688 101.88 14.3444 100.277 15.6798 101.141C18.115 102.712 20.7545 102.335 23.3625 102.335C44.0696 102.367 64.7767 102.351 85.4838 102.351C92.0353 102.351 93.5436 100.827 93.5436 94.3068C93.5436 74.1025 93.5593 53.9138 93.5279 33.7095C93.5279 31.7142 93.8421 29.656 92.6323 27.7864C91.8782 26.6238 92.8523 25.854 93.6378 25.2884C94.5805 24.6128 95.1147 25.524 95.5546 26.1682C96.403 27.4251 97 28.7448 97 30.363C96.9686 52.6884 97 75.0294 96.9686 97.3548C96.9686 101.141 94.062 104.425 90.2443 105.21C88.956 105.477 87.6205 105.54 86.3165 105.556C75.3345 105.556 64.3682 105.556 53.4177 105.556Z" fill="#0B0B0B"/>
<path d="M44.5567 14.0863C49.7256 14.0863 54.8788 14.0863 60.0477 14.0863C61.2261 14.0863 62.2159 14.0549 62.2001 15.7674C62.2001 17.4799 61.1946 17.4485 60.032 17.4485C49.8042 17.4485 39.5763 17.4485 29.3484 17.4485C28.0601 17.4485 26.8975 17.4642 26.9761 15.5946C27.0546 13.8035 28.2958 14.102 29.3484 14.102C34.4388 14.0706 39.4977 14.0863 44.5567 14.0863Z" fill="#0B0B0B"/>
<path d="M64.9181 15.6419C64.9181 13.6151 64.8867 11.5884 64.9338 9.5617C64.9652 8.00631 65.7979 7.01652 67.3376 7.00081C68.8458 6.9851 69.8356 7.89634 69.8513 9.45173C69.9142 13.7094 69.9142 17.9514 69.8356 22.2091C69.8042 23.733 68.8144 24.6757 67.2904 24.6286C65.735 24.5814 64.9338 23.5602 64.9181 22.0362C64.8867 19.8995 64.9181 17.7786 64.9181 15.6419Z" fill="#0B0B0B"/>
<path d="M19.2305 15.6576C19.2305 13.6308 19.2148 11.6041 19.2305 9.57739C19.2619 8.022 20.0946 7.03221 21.6343 7.00079C23.1268 6.96936 24.148 7.8806 24.1638 9.43599C24.2266 13.6937 24.2266 17.9356 24.148 22.1933C24.1166 23.7173 23.1425 24.6757 21.6186 24.6442C20.0632 24.6128 19.2619 23.5916 19.2305 22.0519C19.2148 19.9152 19.2305 17.7943 19.2305 15.6576Z" fill="#0B0B0B"/>
<path d="M27.5573 64.0002C27.9186 59.2241 28.8141 54.605 32.4748 51.0858C36.0569 47.6608 41.0216 47.9436 44.2895 51.6042C49.537 57.4801 49.8198 70.1746 44.8551 76.3176C40.1418 82.1464 32.4591 80.7953 29.5368 73.4582C28.3271 70.4889 27.1331 67.3938 27.5573 64.0002ZM31.1079 63.9531C31.0922 68.7135 32.2077 72.3428 34.3444 74.6209C36.9839 77.4488 39.639 77.3703 42.0114 74.4166C46.002 69.4519 46.0648 59.664 42.1371 54.5422C39.6862 51.3371 36.6539 51.18 34.1245 54.3222C31.8307 57.1659 30.9194 60.5438 31.1079 63.9531Z" fill="#0B0B0B"/>
<path d="M61.9802 64.2047C61.9802 68.0381 61.9488 71.8873 61.9959 75.7208C62.0116 77.1348 61.6503 78.1403 60.0478 78.156C58.3196 78.1718 58.5395 76.8677 58.5395 75.7837C58.5238 68.101 58.5395 60.4183 58.5395 52.7356C58.5395 51.6044 58.3981 50.4418 60.142 50.5204C61.6189 50.5832 62.0116 51.3531 61.9959 52.6728C61.9488 56.5377 61.9802 60.3712 61.9802 64.2047Z" fill="#0B0B0B"/>
</svg>
