<svg width="33" height="19" viewBox="0 0 33 19" fill="none" xmlns="http://www.w3.org/2000/svg">
<mask id="path-1-outside-1" maskUnits="userSpaceOnUse" x="-0.266846" y="-2.71011e-06" width="33" height="19" fill="black">
<rect fill="white" x="-0.266846" y="-2.71011e-06" width="33" height="19"/>
<path fill-rule="evenodd" clip-rule="evenodd" d="M3.41421 2.63342L16.3666 15.5858L29.3189 2.63342L30.7332 2.63342L30.1945 3.17205L17.0737 16.2929L16.3666 17L15.6595 16.2929L2.53863 3.17205L2 2.63342L3.41421 2.63342Z"/>
</mask>
<path fill-rule="evenodd" clip-rule="evenodd" d="M3.41421 2.63342L16.3666 15.5858L29.3189 2.63342L30.7332 2.63342L30.1945 3.17205L17.0737 16.2929L16.3666 17L15.6595 16.2929L2.53863 3.17205L2 2.63342L3.41421 2.63342Z" fill="white"/>
<path d="M3.41421 2.63342L4.82842 1.21921C4.45335 0.844133 3.94464 0.633419 3.41421 0.633419L3.41421 2.63342ZM16.3666 15.5858L14.9524 17C15.7334 17.781 16.9997 17.781 17.7808 17L16.3666 15.5858ZM29.3189 2.63342L29.3189 0.633421C28.7885 0.633421 28.2798 0.844135 27.9047 1.21921L29.3189 2.63342ZM30.7332 2.63342L32.1474 4.04764C32.7194 3.47564 32.8905 2.6154 32.5809 1.86805C32.2714 1.12071 31.5421 0.633421 30.7332 0.633421L30.7332 2.63342ZM30.1945 3.17205L28.7803 1.75784L28.7803 1.75784L30.1945 3.17205ZM17.0737 16.2929L15.6595 14.8787L17.0737 16.2929ZM16.3666 17L14.9524 18.4142C15.3274 18.7893 15.8361 19 16.3666 19C16.897 19 17.4057 18.7893 17.7808 18.4142L16.3666 17ZM15.6595 16.2929L17.0737 14.8787L15.6595 16.2929ZM2.53863 3.17205L1.12442 4.58626L2.53863 3.17205ZM2 2.63342L2 0.633418C1.19107 0.633418 0.461801 1.1207 0.152238 1.86805C-0.157324 2.6154 0.0137875 3.47564 0.585784 4.04763L2 2.63342ZM2 4.04763L14.9524 17L17.7808 14.1716L4.82842 1.21921L2 4.04763ZM17.7808 17L30.7332 4.04763L27.9047 1.21921L14.9524 14.1716L17.7808 17ZM30.7332 0.633421L29.3189 0.633421L29.3189 4.63342L30.7332 4.63342L30.7332 0.633421ZM31.6087 4.58627L32.1474 4.04764L29.3189 1.21921L28.7803 1.75784L31.6087 4.58627ZM18.4879 17.7071L31.6087 4.58627L28.7803 1.75784L15.6595 14.8787L18.4879 17.7071ZM17.7808 18.4142L18.4879 17.7071L15.6595 14.8787L14.9524 15.5858L17.7808 18.4142ZM14.2453 17.7071L14.9524 18.4142L17.7808 15.5858L17.0737 14.8787L14.2453 17.7071ZM1.12442 4.58626L14.2453 17.7071L17.0737 14.8787L3.95284 1.75784L1.12442 4.58626ZM0.585784 4.04763L1.12442 4.58626L3.95284 1.75784L3.41421 1.21921L0.585784 4.04763ZM3.41421 0.633419L2 0.633418L2 4.63342L3.41421 4.63342L3.41421 0.633419Z" fill="white" mask="url(#path-1-outside-1)"/>
</svg>
