<svg width="763" height="610" viewBox="0 0 763 610" fill="none" xmlns="http://www.w3.org/2000/svg">
<mask id="mask0" mask-type="alpha" maskUnits="userSpaceOnUse" x="0" y="0" width="1160" height="823">
<path d="M503 25C759 -33 800.333 29 867 37C1577 155 809 823 519 823C229 823 21 799 2.99998 611C-15 423 70.9999 331 157 279C243 227 247 83 503 25Z" fill="#C4C4C4"/>
</mask>
<g mask="url(#mask0)">
<path d="M1205.5 716.785C1171.56 703.527 1139.73 684.651 1108.94 666.425C1051.83 632.594 992.805 597.589 918.62 597.589C844.435 597.589 785.407 632.569 728.326 666.4C697.539 684.651 665.678 703.527 631.769 716.785L630.396 713.289C664.03 700.156 695.741 681.356 726.429 663.179C783.959 629.073 843.437 593.844 918.645 593.844C993.854 593.844 1053.33 629.098 1110.86 663.204C1141.52 681.381 1173.24 700.156 1206.87 713.314L1205.5 716.785Z" fill="white" fill-opacity="0.1"/>
<path d="M440.451 716.785C406.518 703.527 374.681 684.651 343.894 666.4C286.813 632.569 227.76 597.564 153.575 597.564C79.3905 597.564 20.3623 632.544 -36.7183 666.375C-67.3061 684.502 -98.9426 703.252 -132.627 716.485L-134 713.04C-100.616 699.907 -69.1039 681.256 -38.641 663.179C18.8891 629.098 78.3668 593.844 153.575 593.844C228.784 593.844 288.262 629.098 345.792 663.179C376.454 681.356 408.166 700.156 441.8 713.289L440.451 716.785Z" fill="white" fill-opacity="0.1"/>
<path d="M536.11 710.643C460.902 710.643 401.424 675.388 343.894 641.308C286.813 607.476 227.76 572.472 153.6 572.472C79.4155 572.472 20.3873 607.451 -36.6933 641.283C-67.2811 659.409 -98.9177 678.16 -132.602 691.393L-134 687.922C-100.616 674.789 -69.1039 656.138 -38.641 638.062C18.8891 603.981 78.3667 568.727 153.575 568.727C228.784 568.727 288.261 603.981 345.792 638.062C402.872 671.893 461.925 706.898 536.085 706.898C610.245 706.898 669.298 671.918 726.379 638.062C783.909 603.981 843.386 568.727 918.595 568.727V572.472C844.41 572.472 785.382 607.451 728.301 641.308C670.796 675.388 611.294 710.643 536.11 710.643Z" fill="white" fill-opacity="0.1"/>
<path d="M536.11 685.525C460.902 685.525 401.424 650.271 343.894 616.165C286.813 582.334 227.76 547.329 153.6 547.329C79.4155 547.329 20.3873 582.309 -36.6933 616.165C-67.2811 634.292 -98.9177 653.042 -132.602 666.275L-134 662.805C-100.616 649.672 -69.1039 630.996 -38.641 612.944C18.8891 578.838 78.3667 543.584 153.575 543.584C228.784 543.584 288.261 578.838 345.792 612.944C402.872 646.775 461.925 681.78 536.085 681.78C610.245 681.78 669.298 646.8 726.379 612.944C783.909 578.838 843.386 543.584 918.595 543.584V547.329C844.41 547.329 785.382 582.309 728.301 616.165C670.796 650.271 611.294 685.525 536.11 685.525Z" fill="white" fill-opacity="0.1"/>
<path d="M536.11 660.408C460.902 660.408 401.424 625.153 343.894 591.073C286.813 557.241 227.76 522.237 153.6 522.237C79.4155 522.237 20.3873 557.216 -36.6933 591.048C-67.2811 609.174 -98.9177 627.925 -132.602 641.158L-134 637.687C-100.616 624.554 -69.1039 605.903 -38.641 587.827C18.8891 553.746 78.3667 518.491 153.575 518.491C228.784 518.491 288.261 553.746 345.792 587.827C402.872 621.658 461.925 656.663 536.085 656.663C610.245 656.663 669.298 621.683 726.379 587.827C783.909 553.746 843.386 518.491 918.595 518.491V522.237C844.41 522.237 785.382 557.216 728.301 591.073C670.796 625.153 611.294 660.408 536.11 660.408Z" fill="white" fill-opacity="0.1"/>
<path d="M536.11 635.265C460.902 635.265 401.424 600.011 343.894 565.93C286.813 532.099 227.76 497.094 153.6 497.094C79.4155 497.094 20.3873 532.074 -36.6933 565.905C-67.2811 584.032 -98.9177 602.782 -132.602 616.015L-134 612.57C-100.616 599.437 -69.1039 580.786 -38.641 562.709C18.8891 528.628 78.3667 493.374 153.575 493.374C228.784 493.374 288.261 528.628 345.792 562.709C402.872 596.541 461.925 631.545 536.085 631.545C610.245 631.545 669.298 596.565 726.379 562.709C783.909 528.628 843.386 493.374 918.595 493.374V497.119C844.41 497.119 785.382 532.099 728.301 565.955C670.796 600.011 611.294 635.265 536.11 635.265Z" fill="white" fill-opacity="0.1"/>
<path d="M536.11 610.148C460.902 610.148 401.424 574.894 343.894 540.813C286.813 506.981 227.76 472.002 153.6 472.002C79.4155 472.002 20.3873 506.981 -36.6933 540.813C-67.2811 558.939 -98.9177 577.69 -132.602 590.923L-134 587.427C-100.616 574.294 -69.1039 555.643 -38.641 537.567C18.8891 503.486 78.3667 468.232 153.575 468.232C228.784 468.232 288.261 503.486 345.792 537.567C402.872 571.398 461.925 606.378 536.085 606.378C610.245 606.378 669.298 571.398 726.379 537.567C783.909 503.461 843.386 468.232 918.595 468.232V471.977C844.41 471.977 785.382 506.956 728.301 540.788C670.796 574.894 611.294 610.148 536.11 610.148Z" fill="white" fill-opacity="0.1"/>
<path d="M536.11 585.03C460.902 585.03 401.424 549.776 343.894 515.695C286.813 481.864 227.76 446.859 153.6 446.859C79.4155 446.859 20.3873 481.839 -36.6933 515.67C-67.3311 533.822 -98.9676 552.572 -132.627 565.805L-134 562.31C-100.616 549.177 -69.1039 530.526 -38.641 512.449C18.8891 478.368 78.3667 443.114 153.575 443.114C228.784 443.114 288.261 478.368 345.792 512.449C402.872 546.281 461.925 581.285 536.085 581.285C610.245 581.285 669.298 546.306 726.379 512.449C783.909 478.368 843.386 443.114 918.595 443.114V446.859C844.41 446.859 785.382 481.839 728.301 515.695C670.796 549.776 611.294 585.03 536.11 585.03Z" fill="white" fill-opacity="0.1"/>
<path d="M536.11 559.913C460.902 559.913 401.424 524.659 343.894 490.578C286.813 456.747 227.76 421.767 153.6 421.767C79.4155 421.767 20.3873 456.747 -36.6933 490.578C-67.2811 508.704 -98.9177 527.455 -132.602 540.688L-134 537.192C-100.616 524.059 -69.1039 505.408 -38.641 487.332C18.8891 453.251 78.3667 417.997 153.575 417.997C228.784 417.997 288.261 453.251 345.792 487.332C402.872 521.163 461.925 556.143 536.085 556.143C610.245 556.143 669.298 521.163 726.379 487.332C783.909 453.226 843.386 417.997 918.595 417.997V421.742C844.41 421.742 785.382 456.722 728.301 490.553C670.796 524.659 611.294 559.913 536.11 559.913Z" fill="white" fill-opacity="0.1"/>
<path d="M536.11 534.795C460.902 534.795 401.424 499.541 343.894 465.46C286.813 431.629 227.76 396.624 153.6 396.624C79.4155 396.624 20.3873 431.604 -36.6933 465.435C-67.2811 483.562 -98.9177 502.313 -132.602 515.545L-134 512.075C-100.616 498.942 -69.1039 480.291 -38.641 462.214C18.8891 428.134 78.3667 392.879 153.575 392.879C228.784 392.879 288.261 428.134 345.792 462.214C402.872 496.046 461.925 531.05 536.085 531.05C610.245 531.05 669.298 496.071 726.379 462.214C783.909 428.134 843.386 392.879 918.595 392.879V396.624C844.41 396.624 785.382 431.604 728.301 465.46C670.796 499.541 611.294 534.795 536.11 534.795Z" fill="white" fill-opacity="0.1"/>
<path d="M536.11 509.678C460.902 509.678 401.424 474.424 343.894 440.343C286.813 406.512 227.76 371.507 153.6 371.507C79.4155 371.507 20.3873 406.487 -36.6933 440.318C-67.2811 458.444 -98.9177 477.195 -132.602 490.428L-134 486.957C-100.616 473.824 -69.1039 455.174 -38.641 437.097C18.8891 403.016 78.3667 367.762 153.575 367.762C228.784 367.762 288.261 403.016 345.792 437.097C402.872 470.928 461.925 505.933 536.085 505.933C610.245 505.933 669.298 470.953 726.379 437.097C783.909 403.016 843.386 367.762 918.595 367.762V371.507C844.41 371.507 785.382 406.487 728.301 440.343C670.796 474.424 611.294 509.678 536.11 509.678Z" fill="white" fill-opacity="0.1"/>
<path d="M536.11 484.535C460.902 484.535 401.424 449.281 343.894 415.2C286.813 381.369 227.76 346.389 153.6 346.389C79.4155 346.389 20.3873 381.369 -36.6933 415.2C-67.2811 433.327 -98.9177 452.077 -132.602 465.31L-134 461.84C-100.616 448.707 -69.1039 430.031 -38.641 411.979C18.8891 377.899 78.3667 342.644 153.575 342.644C228.784 342.644 288.261 377.899 345.792 411.979C402.872 445.811 461.925 480.79 536.085 480.79C610.245 480.79 669.298 445.811 726.379 411.979C783.909 377.874 843.386 342.644 918.595 342.644V346.389C844.41 346.389 785.382 381.369 728.301 415.2C670.796 449.281 611.294 484.535 536.11 484.535Z" fill="white" fill-opacity="0.1"/>
<path d="M536.11 459.418C460.902 459.418 401.424 424.164 343.894 390.083C286.813 356.252 227.76 321.247 153.6 321.247C79.4155 321.247 20.3873 356.227 -36.6933 390.058C-67.2811 408.184 -98.9177 426.935 -132.602 440.168L-134 436.697C-100.616 423.564 -69.1039 404.889 -38.641 386.837C18.8891 352.756 78.3667 317.502 153.575 317.502C228.784 317.502 288.261 352.756 345.792 386.837C402.872 420.668 461.925 455.673 536.085 455.673C610.245 455.673 669.298 420.693 726.379 386.837C783.909 352.756 843.386 317.502 918.595 317.502V321.247C844.41 321.247 785.382 356.227 728.301 390.083C670.796 424.164 611.294 459.418 536.11 459.418Z" fill="white" fill-opacity="0.1"/>
<path d="M536.11 434.301C460.902 434.301 401.424 399.046 343.894 364.965C286.813 331.134 227.76 296.154 153.6 296.154C79.4155 296.154 20.3873 331.134 -36.6933 364.965C-67.2811 383.092 -98.9177 401.843 -132.602 415.075L-134 411.58C-100.616 398.447 -69.1039 379.796 -38.641 361.72C18.8891 327.639 78.3667 292.384 153.575 292.384C228.784 292.384 288.261 327.639 345.792 361.72C402.872 395.551 461.925 430.53 536.085 430.53C610.245 430.53 669.298 395.551 726.379 361.72C783.909 327.639 843.386 292.384 918.595 292.384V296.129C844.41 296.129 785.382 331.109 728.301 364.94C670.796 399.046 611.294 434.301 536.11 434.301Z" fill="white" fill-opacity="0.1"/>
<path d="M536.11 409.183C460.902 409.183 401.424 373.929 343.894 339.848C286.813 306.017 227.76 271.012 153.6 271.012C79.4155 271.012 20.3873 305.992 -36.6933 339.823C-67.2811 357.949 -98.9177 376.7 -132.602 389.933L-134 386.463C-100.616 373.33 -69.1039 354.654 -38.641 336.602C18.8891 302.521 78.3667 267.267 153.575 267.267C228.784 267.267 288.261 302.521 345.792 336.602C402.872 370.433 461.925 405.438 536.085 405.438C610.245 405.438 669.298 370.458 726.379 336.602C783.909 302.496 843.386 267.267 918.595 267.267V271.012C844.41 271.012 785.382 305.992 728.301 339.848C670.796 373.929 611.294 409.183 536.11 409.183Z" fill="white" fill-opacity="0.1"/>
<path d="M536.11 384.066C460.902 384.066 401.424 348.811 343.894 314.73C286.813 280.899 227.76 245.894 153.6 245.894C79.4155 245.894 20.3873 280.874 -36.6933 314.73C-67.3311 332.832 -98.9676 351.583 -132.627 364.815L-134 361.345C-100.616 348.212 -69.1039 329.561 -38.641 311.485C18.8891 277.404 78.3667 242.149 153.575 242.149C228.784 242.149 288.261 277.404 345.792 311.485C402.872 345.316 461.925 380.295 536.085 380.295C610.245 380.295 669.298 345.316 726.379 311.485C783.909 277.379 843.386 242.149 918.595 242.149V245.894C844.41 245.894 785.382 280.874 728.301 314.73C670.796 348.811 611.294 384.066 536.11 384.066Z" fill="white" fill-opacity="0.1"/>
<path d="M536.11 358.923C460.902 358.923 401.424 323.669 343.894 289.588C286.813 255.757 227.76 220.777 153.6 220.777C79.4155 220.777 20.3873 255.757 -36.6933 289.588C-67.2811 307.714 -98.9177 326.465 -132.602 339.698L-134 336.227C-100.616 323.094 -69.1039 304.444 -38.641 286.367C18.8891 252.261 78.3667 217.032 153.575 217.032C228.784 217.032 288.261 252.286 345.792 286.367C402.872 320.198 461.925 355.203 536.085 355.203C610.245 355.203 669.298 320.223 726.379 286.367C783.909 252.261 843.386 217.032 918.595 217.032V220.777C844.41 220.777 785.382 255.757 728.301 289.588C670.796 323.694 611.294 358.923 536.11 358.923Z" fill="white" fill-opacity="0.1"/>
<path d="M536.11 333.806C460.902 333.806 401.424 298.551 343.894 264.47C286.813 230.639 227.76 195.659 153.6 195.659C79.4155 195.659 20.3873 230.639 -36.6933 264.47C-67.2811 282.597 -98.9177 301.348 -132.602 314.58L-134 311.085C-100.616 297.952 -69.1039 279.301 -38.641 261.225C18.8891 227.144 78.3667 191.889 153.575 191.889C228.784 191.889 288.261 227.144 345.792 261.225C402.872 295.056 461.925 330.035 536.085 330.035C610.245 330.035 669.298 295.056 726.379 261.225C783.909 227.144 843.386 191.889 918.595 191.889V195.634C844.41 195.634 785.382 230.614 728.301 264.445C670.796 298.551 611.294 333.806 536.11 333.806Z" fill="white" fill-opacity="0.1"/>
<path d="M536.11 308.688C460.902 308.688 401.424 273.434 343.894 239.353C286.813 205.522 227.76 170.542 153.6 170.542C79.4155 170.542 20.3873 205.522 -36.6933 239.353C-67.2811 257.479 -98.9177 276.23 -132.602 289.463L-134 285.968C-100.616 272.835 -69.1039 254.159 -38.641 236.107C18.8891 202.026 78.3667 166.772 153.575 166.772C228.784 166.772 288.261 202.026 345.792 236.107C402.872 269.938 461.925 304.918 536.085 304.918C610.245 304.918 669.298 269.938 726.379 236.107C783.909 202.001 843.386 166.772 918.595 166.772V170.517C844.41 170.517 785.382 205.497 728.301 239.328C670.796 273.434 611.294 308.688 536.11 308.688Z" fill="white" fill-opacity="0.1"/>
<path d="M536.11 283.571C460.902 283.571 401.424 248.316 343.894 214.235C286.813 180.404 227.76 145.424 153.6 145.424C79.4155 145.424 20.3873 180.404 -36.6933 214.235C-67.2811 232.362 -98.9177 251.113 -132.602 264.346L-134 260.85C-100.616 247.717 -69.1039 229.066 -38.641 210.99C18.8891 176.909 78.3667 141.654 153.575 141.654C228.784 141.654 288.261 176.909 345.792 210.99C402.872 244.821 461.925 279.801 536.085 279.801C610.245 279.801 669.298 244.821 726.379 210.99C783.909 176.884 843.386 141.654 918.595 141.654V145.4C844.41 145.4 785.382 180.379 728.301 214.21C670.796 248.316 611.294 283.571 536.11 283.571Z" fill="white" fill-opacity="0.1"/>
<path d="M536.11 258.453C460.902 258.453 401.424 223.199 343.894 189.118C286.813 155.287 227.76 120.307 153.6 120.307C79.4155 120.307 20.3873 155.287 -36.6933 189.118C-67.2811 207.244 -98.9177 225.995 -132.602 239.228L-134 235.733C-100.616 222.6 -69.1039 203.949 -38.641 185.872C18.8891 151.791 78.3667 116.537 153.575 116.537C228.784 116.537 288.261 151.791 345.792 185.872C402.872 219.703 461.925 254.708 536.085 254.708C610.245 254.708 669.298 219.728 726.379 185.872C783.909 151.766 843.386 116.537 918.595 116.537V120.282C844.41 120.282 785.382 155.262 728.301 189.093C670.796 223.199 611.294 258.453 536.11 258.453Z" fill="white" fill-opacity="0.1"/>
<path d="M536.11 233.336C460.902 233.336 401.424 198.081 343.894 164C286.813 130.169 227.76 95.1895 153.6 95.1895C79.4404 95.1895 20.3873 130.169 -36.6933 164C-67.2811 182.127 -98.9177 200.878 -132.602 214.111L-134 210.615C-100.616 197.482 -69.1039 178.831 -38.641 160.755C18.8891 126.674 78.3667 91.4194 153.575 91.4194C228.784 91.4194 288.261 126.674 345.792 160.755C402.872 194.586 461.925 229.591 536.085 229.591C610.245 229.591 669.298 194.611 726.379 160.755C783.909 126.674 843.386 91.4194 918.595 91.4194V95.1646C844.41 95.1646 785.382 130.144 728.301 163.975C670.796 198.081 611.294 233.336 536.11 233.336Z" fill="white" fill-opacity="0.1"/>
<path d="M536.11 208.193C460.902 208.193 401.424 172.939 343.894 138.858C286.813 105.027 227.76 70.0471 153.6 70.0471C79.4155 70.0471 20.3873 105.027 -36.6933 138.858C-67.2811 156.985 -98.9177 175.735 -132.602 188.968L-134 185.498C-100.616 172.365 -69.1039 153.714 -38.641 135.637C18.8891 101.556 78.3667 66.302 153.575 66.302C228.784 66.302 288.261 101.556 345.792 135.637C402.872 169.468 461.925 204.473 536.085 204.473C610.245 204.473 669.298 169.493 726.379 135.637C783.909 101.556 843.386 66.302 918.595 66.302V70.0471C844.41 70.0471 785.382 105.027 728.301 138.858C670.796 172.939 611.294 208.193 536.11 208.193Z" fill="white" fill-opacity="0.1"/>
<path d="M536.11 183.076C460.902 183.076 401.424 147.821 343.894 113.741C286.813 79.9093 227.76 44.9296 153.6 44.9296C79.4155 44.9296 20.3873 79.9093 -36.6933 113.741C-67.3311 131.867 -98.9676 150.618 -132.627 163.851L-134 160.355C-100.616 147.222 -69.1039 128.571 -38.641 110.495C18.8891 76.4139 78.3667 41.1595 153.575 41.1595C228.784 41.1595 288.261 76.4139 345.792 110.495C402.872 144.326 461.925 179.306 536.085 179.306C610.245 179.306 669.298 144.326 726.379 110.495C783.909 76.3889 843.386 41.1595 918.595 41.1595V44.9047C844.41 44.9047 785.382 79.8844 728.301 113.716C670.796 147.821 611.294 183.076 536.11 183.076Z" fill="white" fill-opacity="0.1"/>
<path d="M536.11 157.958C460.902 157.958 401.424 122.704 343.894 88.623C286.813 54.7918 227.76 19.8121 153.6 19.8121C79.4155 19.8121 20.3873 54.7918 -36.6933 88.623C-67.3311 106.75 -98.9676 125.5 -132.627 138.733L-134 135.238C-100.616 122.105 -69.1039 103.429 -38.641 85.3772C18.8891 51.2964 78.3667 16.042 153.575 16.042C228.784 16.042 288.261 51.2964 345.792 85.3772C402.872 119.208 461.925 154.188 536.085 154.188C610.245 154.188 669.298 119.208 726.379 85.3772C783.909 51.2964 843.386 16.042 918.595 16.042V19.7871C844.41 19.7871 785.382 54.7669 728.301 88.5981C670.796 122.704 611.294 157.958 536.11 157.958Z" fill="white" fill-opacity="0.1"/>
<path d="M536.11 132.841C460.902 132.841 401.424 97.5864 343.894 63.5056C286.813 29.6744 227.76 -5.30536 153.6 -5.30536C79.4155 -5.30536 20.3873 29.6744 -36.6933 63.5056C-67.3311 81.6321 -98.9676 100.383 -132.627 113.616L-134 110.12C-100.616 96.9872 -69.1039 78.3363 -38.641 60.2598C18.8891 26.1789 78.3667 -9.07547 153.575 -9.07547C228.784 -9.07547 288.261 26.1789 345.792 60.2598C402.872 94.091 461.925 129.071 536.085 129.071C610.245 129.071 669.298 94.091 726.379 60.2598C783.909 26.1539 843.386 -9.07547 918.595 -9.07547V-5.33032C844.41 -5.33032 785.382 29.6494 728.301 63.4806C670.796 97.5864 611.294 132.841 536.11 132.841Z" fill="white" fill-opacity="0.1"/>
<path d="M536.11 107.723C460.902 107.723 401.424 72.469 343.894 38.3881C286.813 4.5569 227.76 -30.4478 153.6 -30.4478C79.4155 -30.4478 20.3873 4.53194 -36.6933 38.3631C-67.3311 56.4897 -98.9676 75.2404 -132.627 88.4733L-134 85.0028C-100.616 71.8698 -69.1039 53.2189 -38.641 35.1423C18.8891 1.06143 78.3667 -34.1929 153.575 -34.1929C228.784 -34.1929 288.261 1.06143 345.792 35.1423C402.872 68.9735 461.925 103.953 536.085 103.953C610.245 103.953 669.298 68.9735 726.379 35.1423C783.909 1.06143 843.386 -34.1929 918.595 -34.1929V-30.4478C844.41 -30.4478 785.382 4.53193 728.301 38.3881C670.796 72.469 611.294 107.723 536.11 107.723Z" fill="white" fill-opacity="0.1"/>
<path d="M536.11 82.6058C460.902 82.6058 401.424 47.3515 343.894 13.2706C286.813 -20.5606 227.76 -55.5653 153.6 -55.5653C79.4155 -55.5653 20.3873 -20.5856 -36.6933 13.2456C-67.3311 31.3722 -98.9676 50.1229 -132.627 63.3558L-134 59.8852C-100.616 46.7522 -69.1039 28.1014 -38.641 10.0248C18.8891 -24.0561 78.3667 -59.3105 153.575 -59.3105C228.784 -59.3105 288.261 -24.0561 345.792 10.0248C402.872 43.856 461.925 78.8607 536.085 78.8607C610.245 78.8607 669.298 43.881 726.379 10.0248C783.909 -24.0561 843.386 -59.3105 918.595 -59.3105V-55.5653C844.41 -55.5653 785.382 -20.5856 728.301 13.2706C670.796 47.3515 611.294 82.6058 536.11 82.6058Z" fill="white" fill-opacity="0.1"/>
<path d="M536.11 57.4633C460.902 57.4633 401.424 22.209 343.894 -11.8719C286.813 -45.7031 227.76 -80.6828 153.6 -80.6828C79.4155 -80.6828 20.3873 -45.7031 -36.6933 -11.8719C-67.3311 6.25465 -98.9676 25.0054 -132.627 38.2382L-134 34.7677C-100.616 21.6347 -69.1039 2.95892 -38.641 -15.0927C18.8891 -49.1986 78.3667 -84.4529 153.575 -84.4529C228.784 -84.4529 288.261 -49.1986 345.792 -15.1177C402.872 18.7135 461.925 53.6932 536.085 53.6932C610.245 53.6932 669.298 18.7135 726.379 -15.1177C783.909 -49.2235 843.386 -84.4529 918.595 -84.4529V-80.7078C844.41 -80.7078 785.382 -45.728 728.301 -11.8968C670.796 22.209 611.294 57.4633 536.11 57.4633Z" fill="white" fill-opacity="0.1"/>
<path d="M536.11 32.3459C460.902 32.3459 401.424 -2.90847 343.894 -37.0143C313.206 -55.1658 281.495 -73.9665 247.861 -87.0995L249.234 -90.5949C283.168 -77.3371 315.004 -58.4615 345.792 -40.2102C402.897 -6.37897 461.925 28.6257 536.11 28.6257C610.295 28.6257 669.323 -6.354 726.404 -40.1852C757.191 -58.4615 789.053 -77.3371 822.986 -90.5949L824.36 -87.0995C790.726 -73.9665 759.014 -55.1658 728.326 -36.9893C670.796 -2.90847 611.294 32.3459 536.11 32.3459Z" fill="white" fill-opacity="0.1"/>
<path d="M-132.627 13.1208L-134 9.62531C-100.616 -3.50768 -69.1039 -22.1585 -38.641 -40.2351C-7.82842 -58.4615 24.0079 -77.3371 57.9416 -90.5949L59.3149 -87.0995C25.6559 -73.9665 -6.05558 -55.1658 -36.7183 -36.9893C-67.3311 -18.8628 -98.9676 -0.112076 -132.627 13.1208Z" fill="white" fill-opacity="0.1"/>
<path d="M536.11 7.22844C460.902 7.22844 401.424 -28.0259 343.894 -62.1318C329.736 -70.5209 315.079 -79.2097 300.422 -87.2243L302.22 -90.52C316.927 -82.4804 331.609 -73.7917 345.792 -65.3776C402.872 -31.5464 461.925 3.45832 536.11 3.45832C610.295 3.45832 669.323 -31.5214 726.429 -65.3776C740.637 -73.7917 755.294 -82.4804 770.001 -90.52L771.799 -87.2243C757.167 -79.2097 742.509 -70.5209 728.327 -62.1318C670.797 -28.0259 611.294 7.22844 536.11 7.22844Z" fill="white" fill-opacity="0.1"/>
</g>
</svg>
