<svg width="454" height="114" viewBox="0 0 454 114" fill="none" xmlns="http://www.w3.org/2000/svg">
<path d="M66.3958 31.7288C65.6124 31.7288 65.0248 31.5329 64.829 31.3371L42.1094 18.2145L66.0041 4.30859C66.0041 4.30859 66.2 4.30859 66.5917 4.30859C66.9834 4.30859 67.1792 4.30859 67.1792 4.30859L91.074 18.2145L68.3544 31.3371C68.1585 31.5329 67.571 31.7288 66.7875 31.7288H66.3958Z" fill="white"/>
<path d="M66.396 9.20535L82.0646 18.2148L66.396 27.2243L50.7273 18.2148L66.396 9.20535ZM66.396 0C65.4167 0 64.4374 0.195858 63.654 0.587575L33.2959 18.2148V18.4107L62.4788 35.2545C63.4581 35.8421 64.8291 36.2338 66.2001 36.2338H66.396H66.5918C67.9628 36.2338 69.3338 35.8421 70.3131 35.2545L99.496 18.4107V18.2148L69.138 0.587575C68.5504 0.195858 67.3753 0 66.396 0Z" fill="white"/>
<path d="M66.3962 108.965C65.4169 108.965 64.8293 108.769 64.6334 108.573L5.87592 74.494C5.28834 74.1022 4.50488 72.7312 4.50488 71.5561V28.6631L60.7163 61.1756C62.2831 62.1549 64.2417 62.5466 66.3962 62.7425H66.592C68.7465 62.7425 70.705 62.1549 72.2719 61.1756L128.483 28.6631V71.5561C128.483 72.7312 127.7 74.1022 127.112 74.494L68.3547 108.769C68.1589 108.965 67.5713 109.161 66.7879 109.161C66.592 108.965 66.3962 108.965 66.3962 108.965Z" fill="white"/>
<path d="M8.81363 36.3009L58.5617 65.092C60.7161 66.4631 63.4581 67.0506 66.2001 67.2465H66.396H66.5919C69.3339 67.2465 72.0759 66.4631 74.2303 65.092L123.978 36.3009V71.1637L66.5919 104.655H66.396L9.0095 71.1637V36.3009H8.81363ZM0.19587 19.457C1.19513e-05 19.457 0 19.457 0 19.6529V71.5554C0 74.1015 1.37099 77.0394 3.52543 78.2146L62.283 112.294C63.2623 112.882 64.8291 113.273 66.2001 113.273H66.396H66.5919C67.9629 113.273 69.3339 112.882 70.509 112.294L129.267 78.2146C131.421 77.0394 132.792 73.9057 132.792 71.5554V19.8487C132.792 19.6529 132.792 19.6529 132.596 19.6529C132.596 19.6529 132.4 19.6529 132.4 19.8487C131.813 21.8073 130.442 22.5908 128.875 23.3742L69.9214 57.4536C68.9421 58.0411 67.5712 58.237 66.396 58.4329C65.025 58.4329 63.8499 58.0411 62.8706 57.4536L3.91717 23.3742C2.54616 22.3949 1.17516 21.6115 0.19587 19.457C0.391729 19.6529 0.391729 19.6529 0.19587 19.457C0.391729 19.6529 0.391729 19.6529 0.19587 19.457C0.391729 19.6529 0.391729 19.6529 0.19587 19.457C0.391729 19.6529 0.391729 19.457 0.19587 19.457Z" fill="white"/>
<path d="M215.249 28.9866H189.787L186.653 55.4275C185.674 62.6742 184.499 68.9417 182.932 74.034C181.365 79.1263 179.406 83.4352 176.86 86.569C174.314 89.8985 171.572 92.2488 168.047 93.6199C164.717 94.9909 160.8 95.7743 156.295 95.7743H153.749V85.1979H155.316C157.862 85.1979 160.212 84.8062 162.171 83.6311C164.129 82.6518 166.088 80.8891 167.655 78.3429C169.222 75.7967 170.593 72.2713 171.768 67.7665C172.943 63.2618 173.922 57.5819 174.706 50.531L178.427 18.2144H227.979V94.9909H215.249V28.9866Z" fill="white"/>
<path d="M302.602 95.1867H290.458V37.2126L251.287 94.9908H239.144V18.4102H251.091V76.3843L290.263 18.4102H302.406V95.1867H302.602Z" fill="white"/>
<path d="M377.224 95.1867H365.276V37.2126L326.105 94.9908H314.157V18.4102H326.105V76.3843L365.276 18.4102H377.419V95.1867H377.224Z" fill="white"/>
<path d="M454.001 69.5294C452.63 78.343 449.3 85.198 444.012 90.0945C438.528 94.991 431.085 97.5371 421.292 97.5371C415.416 97.5371 410.324 96.5578 406.015 94.7951C401.511 93.0324 397.789 90.2903 394.851 86.7649C391.913 83.2394 389.563 78.9306 388.192 74.0341C386.625 69.1376 385.842 63.4577 385.842 57.1903C385.842 51.1187 386.625 45.4388 388.388 40.3464C389.955 35.2541 392.501 30.9452 395.635 27.4198C398.768 23.8943 402.49 21.1523 406.995 19.1937C411.499 17.2352 416.592 16.2559 422.272 16.2559C431.281 16.2559 438.332 18.4103 443.424 22.915C448.321 27.4198 451.65 33.4914 453.021 41.3257L440.291 43.676C439.703 41.3257 439.115 38.9754 438.332 36.821C437.549 34.8624 436.373 32.9038 434.806 31.5328C433.24 29.9659 431.477 28.7908 429.518 28.0074C427.364 27.2239 424.818 26.8322 421.88 26.8322C417.767 26.8322 414.437 27.6156 411.695 29.1825C408.757 30.7494 406.603 32.9038 404.644 35.6458C402.882 38.3879 401.511 41.5216 400.727 45.2429C399.944 48.9642 399.552 52.8814 399.552 56.9944C399.552 61.3033 399.944 65.2205 400.727 68.9418C401.511 72.6631 402.686 75.7968 404.644 78.5388C406.407 81.2809 408.757 83.4353 411.499 85.0022C414.241 86.569 417.767 87.3525 421.88 87.3525C428.147 87.3525 432.652 85.7856 435.59 82.6519C438.528 79.5181 440.486 75.2093 441.466 69.9211H454.001V69.5294Z" fill="white"/>
</svg>
