<svg width="591" height="206" viewBox="0 0 591 206" fill="none" xmlns="http://www.w3.org/2000/svg">
<path d="M86.4283 41.302C85.4085 41.302 84.6437 41.047 84.3887 40.7921L54.8145 23.7104L85.9184 5.60889C85.9184 5.60889 86.1734 5.60889 86.6833 5.60889C87.1932 5.60889 87.4481 5.60889 87.4481 5.60889L118.552 23.7104L88.9778 40.7921C88.7229 41.047 87.958 41.302 86.9382 41.302H86.4283Z" fill="white"/>
<path d="M86.4284 11.9827L106.824 23.7104L86.4284 35.4381L66.0324 23.7104L86.4284 11.9827ZM86.4284 0C85.1537 0 83.8789 0.254951 82.8591 0.764852L43.3418 23.7104V23.9654L81.3294 45.8911C82.6042 46.6559 84.3888 47.1658 86.1735 47.1658H86.4284H86.6834C88.468 47.1658 90.2527 46.6559 91.5274 45.8911L129.515 23.9654V23.7104L89.9977 0.764852C89.2329 0.254951 87.7032 0 86.4284 0Z" fill="white"/>
<path d="M86.4286 141.84C85.1539 141.84 84.3891 141.585 84.1341 141.33L7.64894 96.969C6.88409 96.4591 5.86426 94.6744 5.86426 93.1447V37.3105L79.0351 79.6323C81.0747 80.9071 83.6242 81.417 86.4286 81.6719H86.6836C89.4881 81.6719 92.0376 80.9071 94.0772 79.6323L167.248 37.3105V93.1447C167.248 94.6744 166.228 96.4591 165.463 96.969L88.9781 141.585C88.7232 141.84 87.9584 142.095 86.9386 142.095C86.6836 141.84 86.4286 141.84 86.4286 141.84Z" fill="white"/>
<path d="M11.4728 47.2534L76.2302 84.7311C79.0346 86.5158 82.6039 87.2806 86.1732 87.5356H86.4282H86.6832C90.2525 87.5356 93.8218 86.5158 96.6262 84.7311L161.384 47.2534V92.6346L86.6832 136.231H86.4282L11.7277 92.6346V47.2534H11.4728ZM0.254966 25.3276C1.55571e-05 25.3276 0 25.3276 0 25.5826V93.1445C0 96.4588 1.78462 100.283 4.58908 101.813L81.0742 146.174C82.349 146.939 84.3886 147.449 86.1732 147.449H86.4282H86.6832C88.4678 147.449 90.2525 146.939 91.7822 146.174L168.267 101.813C171.072 100.283 172.856 96.2039 172.856 93.1445V25.8375C172.856 25.5826 172.856 25.5826 172.601 25.5826C172.601 25.5826 172.347 25.5826 172.347 25.8375C171.582 28.387 169.797 29.4068 167.757 30.4266L91.0173 74.788C89.7425 75.5529 87.9579 75.8078 86.4282 76.0628C84.6436 76.0628 83.1139 75.5529 81.8391 74.788L5.09901 30.4266C3.31436 29.1519 1.52972 28.1321 0.254966 25.3276C0.509917 25.5826 0.509917 25.5826 0.254966 25.3276C0.509917 25.5826 0.509917 25.5826 0.254966 25.3276C0.509917 25.5826 0.509917 25.5826 0.254966 25.3276C0.509917 25.5826 0.509917 25.3276 0.254966 25.3276Z" fill="white"/>
<path d="M280.19 37.7327H247.047L242.967 72.151C241.693 81.5842 240.163 89.7426 238.123 96.3713C236.084 103 233.534 108.609 230.22 112.688C226.906 117.022 223.336 120.082 218.747 121.866C214.413 123.651 209.314 124.671 203.45 124.671H200.136V110.904H202.175C205.49 110.904 208.549 110.394 211.099 108.864C213.648 107.589 216.198 105.295 218.237 101.98C220.277 98.6659 222.061 94.0768 223.591 88.2129C225.121 82.3491 226.396 74.9555 227.415 65.7773L232.26 23.7104H296.762V123.651H280.19V37.7327Z" fill="white"/>
<path d="M393.898 123.906H378.091V48.4406L327.101 123.651H311.294V23.9653H326.846V99.4307L377.836 23.9653H393.643V123.906H393.898Z" fill="white"/>
<path d="M491.035 123.906H475.482V48.4406L424.492 123.651H408.94V23.9653H424.492V99.4307L475.482 23.9653H491.289V123.906H491.035Z" fill="white"/>
<path d="M590.975 90.5072C589.191 101.98 584.856 110.903 577.973 117.277C570.834 123.651 561.146 126.965 548.399 126.965C540.75 126.965 534.121 125.69 528.512 123.396C522.649 121.101 517.805 117.532 513.98 112.943C510.156 108.354 507.097 102.745 505.312 96.371C503.272 89.9973 502.252 82.6037 502.252 74.4453C502.252 66.5418 503.272 59.1483 505.567 52.5196C507.607 45.8908 510.921 40.2819 515 35.6928C519.079 31.1037 523.923 27.5344 529.787 24.9849C535.651 22.4354 542.28 21.1606 549.673 21.1606C561.401 21.1606 570.579 23.9651 577.208 29.829C583.582 35.6928 587.916 43.5963 589.701 53.7943L573.129 56.8537C572.364 53.7943 571.599 50.7349 570.579 47.9305C569.559 45.3809 568.03 42.8314 565.99 41.0468C563.95 39.0072 561.656 37.4775 559.107 36.4577C556.302 35.4379 552.988 34.928 549.163 34.928C543.809 34.928 539.475 35.9478 535.906 37.9874C532.082 40.027 529.277 42.8314 526.728 46.4007C524.433 49.9701 522.649 54.0493 521.629 58.8933C520.609 63.7374 520.099 68.8364 520.099 74.1903C520.099 79.7993 520.609 84.8983 521.629 89.7423C522.649 94.5864 524.178 98.6656 526.728 102.235C529.022 105.804 532.082 108.609 535.651 110.648C539.22 112.688 543.809 113.708 549.163 113.708C557.322 113.708 563.186 111.668 567.01 107.589C570.834 103.51 573.384 97.9008 574.658 91.0171H590.975V90.5072Z" fill="white"/>
<path d="M214.418 171.837V154.5L203.71 171.837H200.905V149.911H203.71V167.248L214.418 149.911H217.222V171.837H214.418Z" fill="white"/>
<path d="M223.337 155.775V162.404H231.75V155.775H234.299V171.837H231.75V164.698H223.337V171.837H220.787V155.775H223.337Z" fill="white"/>
<path d="M248.577 171.837H246.027V164.698H245.008C244.498 164.698 244.243 164.698 243.988 164.698C243.733 164.698 243.478 164.953 243.223 165.208C242.968 165.463 242.713 165.718 242.458 165.973C242.203 166.228 241.948 166.483 241.693 166.993L238.379 172.092H235.319L239.654 165.718C239.908 165.208 240.418 164.698 240.673 164.443C240.928 164.188 241.438 163.933 241.948 163.678C241.438 163.423 241.183 163.168 240.673 162.913C240.418 162.658 240.163 162.149 239.654 161.384L238.634 159.344C238.379 158.834 238.124 158.579 237.869 158.324C237.614 158.069 237.359 158.069 236.849 158.069C236.594 158.069 236.339 158.069 236.084 158.069C235.829 158.069 235.829 158.069 235.829 158.069L235.574 156.03C235.574 156.03 235.829 156.03 236.084 156.03C236.339 156.03 236.594 156.03 236.849 156.03C237.359 156.03 237.869 156.03 238.124 156.285C238.634 156.285 238.889 156.54 239.144 156.795C239.399 157.05 239.654 157.305 239.908 157.559C240.163 157.814 240.418 158.324 240.673 158.834L241.438 160.619C241.948 161.639 242.203 162.149 242.713 162.658C243.223 162.913 243.733 163.168 244.498 163.168H245.262V156.285H247.812V163.168H248.577C249.342 163.168 249.852 162.913 250.361 162.658C250.871 162.404 251.381 161.639 251.636 160.874L252.401 159.089C252.656 158.579 252.911 158.324 252.911 158.069C253.166 157.814 253.421 157.559 253.676 157.305C253.931 157.05 254.186 156.795 254.441 156.795C254.696 156.54 255.205 156.54 255.46 156.54C255.715 156.54 255.715 156.54 255.97 156.54C256.225 156.54 256.225 156.54 256.48 156.54C256.735 156.54 256.99 156.54 257.245 156.54C257.5 156.54 257.5 156.54 257.755 156.54L257.5 158.579C257.245 158.579 256.99 158.579 256.48 158.579C255.97 158.579 255.46 158.834 255.206 159.089C254.951 159.344 254.696 159.854 254.441 160.619L253.676 162.149C253.421 162.658 253.166 163.168 252.911 163.423C252.656 163.678 252.146 163.933 251.636 164.188C252.146 164.443 252.656 164.698 252.911 164.953C253.421 165.463 253.676 165.973 254.186 166.738L258.01 172.347H254.951L251.381 166.738C251.126 166.228 250.616 165.718 250.361 165.463C250.106 165.208 249.597 164.953 248.832 164.953H247.812V171.837H248.577Z" fill="white"/>
<path d="M273.562 167.503C273.308 169.032 272.543 170.307 271.523 171.072C270.503 171.837 268.973 172.347 266.934 172.347C264.639 172.347 262.6 171.582 261.325 170.052C260.05 168.523 259.285 166.483 259.285 163.933C259.285 162.659 259.54 161.384 259.795 160.364C260.05 159.344 260.56 158.325 261.325 157.56C262.09 156.795 262.854 156.285 263.619 155.775C264.639 155.265 265.659 155.265 266.679 155.265C267.954 155.265 268.973 155.52 269.738 155.775C270.503 156.03 271.268 156.795 271.778 157.305C272.288 158.07 272.798 158.834 273.053 159.854C273.307 160.874 273.562 161.894 273.562 162.914V164.188H261.835C261.835 164.953 261.835 165.718 262.09 166.483C262.345 167.248 262.6 167.758 263.109 168.268C263.619 168.778 264.129 169.287 264.639 169.542C265.149 169.797 265.914 170.052 266.679 170.052C267.954 170.052 268.973 169.797 269.483 169.287C269.993 168.778 270.503 168.013 270.758 167.248H273.562V167.503ZM271.013 162.404C271.013 160.874 270.758 159.599 269.993 158.834C269.228 157.815 268.208 157.305 266.679 157.305C265.149 157.305 264.129 157.815 263.364 158.58C262.6 159.344 262.09 160.619 262.09 162.404H271.013Z" fill="white"/>
<path d="M278.916 155.775V162.404H287.33V155.775H289.879V171.837H287.33V164.698H278.916V171.837H276.367V155.775H278.916Z" fill="white"/>
<path d="M306.961 167.503C306.706 169.032 305.941 170.307 304.921 171.072C303.901 171.837 302.372 172.347 300.332 172.347C298.038 172.347 295.998 171.582 294.723 170.052C293.448 168.523 292.684 166.483 292.684 163.933C292.684 162.659 292.938 161.384 293.193 160.364C293.448 159.344 293.958 158.325 294.723 157.56C295.488 156.795 296.253 156.285 297.018 155.775C298.037 155.265 299.057 155.265 300.077 155.265C301.352 155.265 302.372 155.52 303.137 155.775C303.901 156.03 304.666 156.795 305.176 157.305C305.686 158.07 306.196 158.834 306.451 159.854C306.706 160.874 306.961 161.894 306.961 162.914V164.188H295.488C295.488 164.953 295.488 165.718 295.743 166.483C295.998 167.248 296.253 167.758 296.763 168.268C297.273 168.778 297.782 169.287 298.292 169.542C298.802 169.797 299.567 170.052 300.332 170.052C301.607 170.052 302.627 169.797 303.137 169.287C303.646 168.778 304.156 168.013 304.411 167.248H306.961V167.503ZM304.666 162.404C304.666 160.874 304.411 159.599 303.646 158.834C302.882 157.815 301.862 157.305 300.332 157.305C298.802 157.305 297.782 157.815 297.018 158.58C296.253 159.344 295.743 160.619 295.743 162.404H304.666Z" fill="white"/>
<path d="M310.02 155.775H312.57V158.07C313.334 157.05 314.099 156.54 314.864 156.03C315.629 155.52 316.649 155.265 317.923 155.265C318.943 155.265 319.963 155.52 320.983 155.775C321.748 156.285 322.513 156.795 323.022 157.56C323.532 158.325 324.042 159.089 324.297 160.109C324.552 161.129 324.807 162.149 324.807 163.424C324.807 164.698 324.552 165.973 324.297 166.993C324.042 168.013 323.532 169.032 322.768 169.797C322.258 170.562 321.493 171.072 320.473 171.582C319.708 172.092 318.688 172.092 317.669 172.092C316.649 172.092 315.884 171.837 315.119 171.582C314.354 171.327 313.589 170.562 312.824 169.542V177.956H310.275V155.775H310.02ZM312.57 164.443C312.57 165.463 312.569 166.483 312.824 166.993C313.079 167.758 313.334 168.268 313.844 168.778C314.354 169.287 314.864 169.542 315.374 169.797C315.884 170.052 316.649 170.052 317.159 170.052C317.923 170.052 318.433 170.052 318.943 169.797C319.453 169.542 319.963 169.287 320.473 168.778C320.983 168.268 321.238 167.503 321.493 166.738C321.748 165.973 321.748 164.953 321.748 163.679C321.748 162.404 321.493 161.384 321.238 160.619C320.983 159.854 320.728 159.089 320.218 158.834C319.708 158.325 319.453 158.07 318.688 157.815C318.178 157.56 317.669 157.56 317.159 157.56C316.394 157.56 315.884 157.56 315.119 157.815C314.609 158.07 314.099 158.325 313.589 158.834C313.079 159.344 312.824 159.854 312.57 160.619C312.315 161.384 312.314 162.149 312.314 163.169V164.443H312.57Z" fill="white"/>
<path d="M329.906 155.775V162.404H338.32V155.775H340.869V171.837H338.32V164.698H329.906V171.837H327.357V155.775H329.906Z" fill="white"/>
<path d="M346.988 155.775V161.639H351.832C353.871 161.639 355.401 162.149 356.166 162.914C357.186 163.933 357.441 164.953 357.441 166.483C357.441 168.013 356.931 169.287 355.911 170.307C354.891 171.327 353.361 171.837 351.322 171.837H344.183V155.775H346.988ZM359.735 155.775H362.285V171.837H359.735V155.775ZM346.988 169.797H351.577C352.597 169.797 353.616 169.542 354.126 169.032C354.636 168.522 354.891 167.758 354.891 166.993C354.891 165.973 354.636 165.208 354.126 164.953C353.616 164.443 352.851 164.188 351.577 164.188H347.243V169.797H346.988Z" fill="white"/>
<path d="M379.112 167.503C378.857 169.032 378.092 170.307 377.072 171.072C376.052 171.837 374.523 172.347 372.483 172.347C370.188 172.347 368.149 171.582 366.874 170.052C365.599 168.523 364.834 166.483 364.834 163.933C364.834 162.659 365.089 161.384 365.344 160.364C365.599 159.344 366.109 158.325 366.874 157.56C367.639 156.795 368.404 156.285 369.169 155.775C370.188 155.265 371.208 155.265 372.228 155.265C373.503 155.265 374.523 155.52 375.287 155.775C376.052 156.285 376.817 156.795 377.327 157.305C377.837 158.07 378.347 158.834 378.602 159.854C378.857 160.874 379.112 161.894 379.112 162.914V164.188H367.384C367.384 164.953 367.384 165.718 367.639 166.483C367.894 167.248 368.149 167.758 368.659 168.268C369.169 168.778 369.678 169.287 370.188 169.542C370.698 169.797 371.463 170.052 372.228 170.052C373.503 170.052 374.523 169.797 375.032 169.287C375.542 168.778 376.052 168.013 376.307 167.248H379.112V167.503ZM376.817 162.404C376.817 160.874 376.562 159.599 375.797 158.834C375.032 157.815 374.013 157.305 372.483 157.305C370.953 157.305 369.934 157.815 369.169 158.58C368.404 159.344 367.894 160.619 367.894 162.404H376.817Z" fill="white"/>
<path d="M200.392 184.074H202.941V186.369C203.706 185.349 204.471 184.839 205.236 184.329C206 183.819 207.02 183.564 208.295 183.564C209.315 183.564 210.335 183.819 211.354 184.074C212.119 184.584 212.884 185.094 213.394 185.859C213.904 186.624 214.414 187.389 214.669 188.409C214.924 189.428 215.179 190.448 215.179 191.723C215.179 192.998 214.924 194.272 214.669 195.292C214.414 196.312 213.904 197.332 213.139 198.097C212.629 198.861 211.864 199.371 210.845 199.881C210.08 200.391 209.06 200.391 208.04 200.391C207.02 200.391 206.255 200.136 205.491 199.881C204.726 199.626 203.961 198.861 203.196 197.842V206H200.646V184.074H200.392ZM202.941 192.488C202.941 193.508 202.941 194.527 203.196 195.037C203.451 195.802 203.706 196.312 204.216 196.822C204.726 197.332 205.236 197.587 205.746 197.842C206.255 198.097 207.02 198.097 207.53 198.097C208.295 198.097 208.805 198.097 209.315 197.842C209.825 197.587 210.335 197.332 210.845 196.822C211.354 196.312 211.609 195.547 211.864 194.782C212.119 194.017 212.119 192.998 212.119 191.723C212.119 190.448 211.864 189.428 211.609 188.663C211.354 187.899 211.1 187.134 210.59 186.879C210.08 186.369 209.825 186.114 209.06 185.859C208.55 185.604 208.04 185.604 207.53 185.604C206.765 185.604 206.255 185.604 205.491 185.859C204.726 186.114 204.471 186.369 203.961 186.879C203.451 187.389 203.196 187.899 202.941 188.663C202.686 189.428 202.686 190.193 202.686 191.213V192.488H202.941Z" fill="white"/>
<path d="M231.496 195.547C231.241 197.077 230.476 198.352 229.456 199.117C228.437 199.881 226.907 200.391 224.867 200.391C222.573 200.391 220.533 199.626 219.258 198.097C217.984 196.567 217.219 194.527 217.219 191.978C217.219 190.703 217.474 189.428 217.729 188.409C217.984 187.389 218.494 186.369 219.258 185.604C220.023 184.839 220.788 184.329 221.553 183.819C222.573 183.31 223.593 183.31 224.612 183.31C225.887 183.31 226.907 183.565 227.672 183.819C228.437 184.329 229.201 184.839 229.711 185.349C230.221 186.114 230.731 186.879 230.986 187.899C231.241 188.918 231.496 189.938 231.496 190.958V192.233H219.768C219.768 192.998 219.768 193.763 220.023 194.527C220.278 195.292 220.533 195.802 221.043 196.312C221.553 196.822 222.063 197.332 222.573 197.587C223.083 197.842 223.848 198.097 224.612 198.097C225.887 198.097 226.907 197.842 227.417 197.332C227.927 196.822 228.437 196.057 228.692 195.292H231.496V195.547ZM229.201 190.703C229.201 189.173 228.947 187.899 228.182 187.134C227.417 186.114 226.397 185.604 224.867 185.604C223.338 185.604 222.318 186.114 221.553 186.879C220.788 187.644 220.278 188.918 220.278 190.703H229.201Z" fill="white"/>
<path d="M254.951 200.137H234.3V184.075H236.849V197.842H243.223V184.075H245.773V197.842H252.146V184.075H254.696V200.137H254.951Z" fill="white"/>
<path d="M272.033 195.547C271.778 197.077 271.013 198.352 269.993 199.117C268.973 199.881 267.443 200.391 265.404 200.391C263.109 200.391 261.07 199.626 259.795 198.097C258.52 196.567 257.755 194.527 257.755 191.978C257.755 190.703 258.01 189.428 258.265 188.409C258.52 187.389 259.03 186.369 259.795 185.604C260.56 184.839 261.325 184.329 262.089 183.819C263.109 183.31 264.129 183.31 265.149 183.31C266.424 183.31 267.443 183.565 268.208 183.819C268.973 184.074 269.738 184.839 270.248 185.349C270.758 186.114 271.268 186.879 271.523 187.899C271.778 188.918 272.033 189.938 272.033 190.958V192.233H260.305C260.305 192.998 260.305 193.763 260.56 194.527C260.815 195.292 261.07 195.802 261.58 196.312C262.09 196.822 262.599 197.332 263.109 197.587C263.619 197.842 264.384 198.097 265.149 198.097C266.424 198.097 267.443 197.842 267.953 197.332C268.463 196.822 268.973 196.057 269.228 195.292H272.033V195.547ZM269.483 190.703C269.483 189.173 269.228 187.899 268.463 187.134C267.698 186.114 266.679 185.604 265.149 185.604C263.619 185.604 262.599 186.114 261.835 186.879C261.07 187.644 260.56 188.918 260.56 190.703H269.483Z" fill="white"/>
<path d="M277.386 184.075V190.703H285.8V184.075H288.349V200.137H285.8V192.998H277.386V200.137H274.837V184.075H277.386Z" fill="white"/>
<path d="M304.922 200.137H302.372V187.899L294.214 200.137H291.664V184.075H294.214V196.312L302.372 184.075H304.922V200.137Z" fill="white"/>
<path d="M306.706 200.137L309.765 195.038C310.275 194.273 310.785 193.508 311.55 193.253C310.53 192.998 309.765 192.488 309 191.723C308.49 190.958 308.235 189.939 308.235 188.919C308.235 188.154 308.235 187.644 308.49 187.134C308.745 186.624 309 186.114 309.51 185.604C310.02 185.094 310.53 184.839 311.55 184.585C312.314 184.33 313.334 184.33 314.609 184.33H320.983V200.391H318.433V194.018H315.884C315.374 194.018 314.864 194.018 314.609 194.018C314.354 194.018 314.099 194.273 313.844 194.273C313.589 194.528 313.334 194.528 313.079 194.783C312.824 195.038 312.569 195.292 312.569 195.802L310.02 200.391H306.706V200.137ZM318.178 191.468V186.114H314.609C312.314 186.114 311.04 186.879 311.04 188.664C311.04 190.448 312.06 191.468 314.354 191.468H318.178Z" fill="white"/>
</svg>
