<svg width="169" height="42" viewBox="0 0 169 42" fill="none" xmlns="http://www.w3.org/2000/svg">
<path d="M24.5868 11.7482C24.2967 11.7482 24.0791 11.6756 24.0066 11.6031L15.5938 6.74397L24.4417 1.59473C24.4417 1.59473 24.5143 1.59473 24.6593 1.59473C24.8044 1.59473 24.8769 1.59473 24.8769 1.59473L33.7249 6.74397L25.312 11.6031C25.2395 11.6756 25.022 11.7482 24.7319 11.7482H24.5868Z" fill="white"/>
<path d="M24.5848 3.40866L30.3867 6.74479L24.5848 10.0809L18.7828 6.74479L24.5848 3.40866ZM24.5848 0C24.2222 0 23.8595 0.0725246 23.5694 0.217574L12.3281 6.74479V6.81731L23.1343 13.0544C23.4969 13.272 24.0046 13.417 24.5122 13.417H24.5848H24.6573C25.165 13.417 25.6726 13.272 26.0353 13.0544L36.8414 6.81731V6.74479L25.6001 0.217574C25.3825 0.0725246 24.9474 0 24.5848 0Z" fill="white"/>
<path d="M24.5857 40.3479C24.2231 40.3479 24.0055 40.2754 23.933 40.2028L2.17565 27.5835C1.95808 27.4385 1.66797 26.9308 1.66797 26.4957V10.6128L22.4825 22.6519C23.0627 23.0145 23.788 23.1595 24.5857 23.2321H24.6583C25.456 23.2321 26.1813 23.0145 26.7615 22.6519L47.576 10.6128V26.4957C47.576 26.9308 47.2859 27.4385 47.0684 27.5835L25.311 40.2753C25.2385 40.3479 25.0209 40.4204 24.7308 40.4204C24.6583 40.3479 24.5857 40.3479 24.5857 40.3479Z" fill="white"/>
<path d="M3.26361 13.4417L21.6848 24.1028C22.4826 24.6105 23.498 24.8281 24.5133 24.9006H24.5858H24.6584C25.6737 24.9006 26.689 24.6105 27.4868 24.1028L45.9081 13.4417V26.3511L24.6584 38.7528H24.5858L3.33614 26.3511V13.4417H3.26361ZM0.072529 7.20459C4.42547e-06 7.20459 0 7.20459 0 7.27711V26.4961C0 27.4389 0.507663 28.5268 1.30543 28.962L23.0628 41.5812C23.4254 41.7988 24.0056 41.9439 24.5133 41.9439H24.5858H24.6584C25.166 41.9439 25.6737 41.7988 26.1089 41.5812L47.8662 28.962C48.664 28.5268 49.1717 27.3664 49.1717 26.4961V7.34964C49.1717 7.27711 49.1717 7.27711 49.0991 7.27711C49.0991 7.27711 49.0266 7.27711 49.0266 7.34964C48.8091 8.07489 48.3014 8.36498 47.7212 8.65508L25.8913 21.2744C25.5286 21.4919 25.021 21.5645 24.5858 21.637C24.0782 21.637 23.643 21.4919 23.2804 21.2744L1.45049 8.65508C0.94282 8.29246 0.435152 8.00236 0.072529 7.20459C0.145054 7.27711 0.145054 7.27711 0.072529 7.20459C0.145054 7.27711 0.145054 7.27711 0.072529 7.20459C0.145054 7.27711 0.145054 7.27711 0.072529 7.20459C0.145054 7.27711 0.145054 7.20459 0.072529 7.20459Z" fill="white"/>
<path d="M79.7063 10.734H70.2781L69.1177 20.5248C68.7551 23.2082 68.3199 25.529 67.7398 27.4146C67.1596 29.3003 66.4343 30.8958 65.4915 32.0562C64.5487 33.2891 63.5333 34.1594 62.2279 34.6671C60.995 35.1748 59.5445 35.4648 57.8764 35.4648H56.9336V31.5485H57.5138C58.4566 31.5485 59.3269 31.4035 60.0521 30.9683C60.7774 30.6057 61.5026 29.953 62.0828 29.0102C62.663 28.0673 63.1707 26.7619 63.6058 25.0938C64.041 23.4258 64.4036 21.3226 64.6937 18.7117L66.0717 6.74512H84.4204V35.1748H79.7063V10.734Z" fill="white"/>
<path d="M112.052 35.2465H107.555V13.7793L93.0502 35.174H88.5537V6.81689H92.9777V28.2842L107.483 6.81689H111.979V35.2465H112.052Z" fill="white"/>
<path d="M139.685 35.247H135.261V13.7797L120.756 35.1745H116.332V6.81738H120.756V28.2847L135.261 6.81738H139.757V35.247H139.685Z" fill="white"/>
<path d="M168.114 25.7462C167.606 29.0098 166.373 31.5482 164.415 33.3613C162.384 35.1744 159.628 36.1172 156.002 36.1172C153.826 36.1172 151.941 35.7546 150.345 35.1019C148.677 34.4492 147.299 33.4338 146.211 32.1284C145.123 30.8229 144.253 29.2274 143.745 27.4143C143.165 25.6012 142.875 23.498 142.875 21.1772C142.875 18.9289 143.165 16.8257 143.818 14.9401C144.398 13.0544 145.341 11.4589 146.501 10.1534C147.662 8.84799 149.04 7.83265 150.708 7.1074C152.376 6.38215 154.261 6.01953 156.365 6.01953C159.701 6.01953 162.312 6.8173 164.197 8.48537C166.01 10.1534 167.243 12.4017 167.751 15.3027L163.037 16.173C162.819 15.3027 162.602 14.4324 162.312 13.6346C162.022 12.9094 161.586 12.1841 161.006 11.6764C160.426 11.0963 159.773 10.6611 159.048 10.371C158.25 10.0809 157.307 9.93586 156.22 9.93586C154.697 9.93586 153.464 10.226 152.448 10.8062C151.36 11.3864 150.563 12.1841 149.837 13.1995C149.185 14.2148 148.677 15.3752 148.387 16.7532C148.097 18.1311 147.952 19.5816 147.952 21.1046C147.952 22.7002 148.097 24.1507 148.387 25.5286C148.677 26.9066 149.112 28.067 149.837 29.0823C150.49 30.0977 151.36 30.8955 152.376 31.4757C153.391 32.0559 154.697 32.346 156.22 32.346C158.54 32.346 160.208 31.7658 161.296 30.6054C162.384 29.445 163.109 27.8494 163.472 25.8913H168.114V25.7462Z" fill="white"/>
</svg>
