<svg width="112" height="28" viewBox="0 0 112 28" fill="none" xmlns="http://www.w3.org/2000/svg">
<path d="M16.38 7.82695C16.1868 7.82695 16.0418 7.77863 15.9935 7.73031L10.3887 4.49304L16.2834 1.0625C16.2834 1.0625 16.3317 1.0625 16.4284 1.0625C16.525 1.0625 16.5733 1.0625 16.5733 1.0625L22.468 4.49304L16.8632 7.73031C16.8149 7.77863 16.6699 7.82695 16.4767 7.82695H16.38Z" fill="black"/>
<path d="M16.3795 2.27092L20.2449 4.49353L16.3795 6.71613L12.5141 4.49353L16.3795 2.27092ZM16.3795 0C16.1379 0 15.8963 0.0483175 15.7031 0.144952L8.21387 4.49353V4.54184L15.4132 8.69715C15.6548 8.8421 15.993 8.93874 16.3312 8.93874H16.3795H16.4278C16.7661 8.93874 17.1043 8.8421 17.3459 8.69715L24.5452 4.54184V4.49353L17.056 0.144952C16.911 0.0483175 16.6211 0 16.3795 0Z" fill="black"/>
<path d="M16.3797 26.8805C16.1381 26.8805 15.9931 26.8322 15.9448 26.7839L1.44956 18.3766C1.3046 18.28 1.11133 17.9417 1.11133 17.6518V7.07031L14.9785 15.091C15.365 15.3326 15.8482 15.4292 16.3797 15.4776H16.428C16.9595 15.4776 17.4426 15.3326 17.8292 15.091L31.6963 7.07031V17.6518C31.6963 17.9417 31.503 18.28 31.3581 18.3766L16.8628 26.8322C16.8145 26.8805 16.6696 26.9288 16.4763 26.9288C16.428 26.8805 16.3797 26.8805 16.3797 26.8805Z" fill="black"/>
<path d="M2.17429 8.95511L14.4469 16.0578C14.9784 16.396 15.6549 16.541 16.3313 16.5893H16.3796H16.4279C17.1044 16.5893 17.7808 16.396 18.3123 16.0578L30.585 8.95511V17.5556L16.4279 25.8179H16.3796L2.22261 17.5556V8.95511H2.17429ZM0.0483204 4.7998C2.94835e-06 4.7998 0 4.7998 0 4.84812V17.6523C0 18.2804 0.338217 19.0051 0.869709 19.2951L15.365 27.7023C15.6065 27.8472 15.9931 27.9439 16.3313 27.9439H16.3796H16.4279C16.7662 27.9439 17.1044 27.8472 17.3943 27.7023L31.8895 19.2951C32.421 19.0051 32.7593 18.2321 32.7593 17.6523V4.89644C32.7593 4.84812 32.7593 4.84812 32.7109 4.84812C32.7109 4.84812 32.6626 4.84812 32.6626 4.89644C32.5177 5.37961 32.1794 5.57288 31.7929 5.76615L17.2493 14.1734C17.0077 14.3184 16.6695 14.3667 16.3796 14.415C16.0414 14.415 15.7515 14.3184 15.5099 14.1734L0.96635 5.76615C0.628127 5.52457 0.289908 5.3313 0.0483204 4.7998C0.0966379 4.84812 0.0966379 4.84812 0.0483204 4.7998C0.0966379 4.84812 0.0966379 4.84812 0.0483204 4.7998C0.0966379 4.84812 0.0966379 4.84812 0.0483204 4.7998C0.0966379 4.84812 0.0966379 4.7998 0.0483204 4.7998Z" fill="black"/>
<path d="M53.1014 7.1516H46.8201L46.047 13.6745C45.8054 15.4622 45.5155 17.0084 45.129 18.2646C44.7425 19.5209 44.2593 20.5839 43.6311 21.3569C43.003 22.1783 42.3266 22.7582 41.4569 23.0964C40.6355 23.4346 39.6691 23.6279 38.5578 23.6279H37.9297V21.0187H38.3162C38.9443 21.0187 39.5242 20.9221 40.0073 20.6322C40.4905 20.3906 40.9737 19.9557 41.3602 19.3276C41.7468 18.6995 42.085 17.8298 42.3749 16.7185C42.6648 15.6072 42.9064 14.206 43.0997 12.4665L44.0177 4.49414H56.242V23.4346H53.1014V7.1516Z" fill="black"/>
<path d="M74.6509 23.4824H71.6553V9.18047L61.9918 23.4341H58.9961V4.54199H61.9434V18.844L71.6069 4.54199H74.6026V23.4824H74.6509Z" fill="black"/>
<path d="M93.0592 23.4824H90.1118V9.18047L80.4483 23.4341H77.501V4.54199H80.4483V18.844L90.1118 4.54199H93.1075V23.4824H93.0592Z" fill="black"/>
<path d="M112 17.1531C111.662 19.3274 110.84 21.0185 109.536 22.2264C108.183 23.4344 106.347 24.0625 103.931 24.0625C102.482 24.0625 101.225 23.8209 100.162 23.3861C99.051 22.9512 98.1329 22.2748 97.4082 21.405C96.6834 20.5353 96.1036 19.4723 95.7654 18.2644C95.3788 17.0565 95.1855 15.6553 95.1855 14.1091C95.1855 12.6113 95.3788 11.21 95.8137 9.95379C96.2002 8.69754 96.8283 7.63455 97.6014 6.76484C98.3745 5.89512 99.2926 5.21868 100.404 4.7355C101.515 4.25233 102.771 4.01074 104.173 4.01074C106.395 4.01074 108.135 4.54223 109.391 5.65354C110.599 6.76484 111.42 8.26268 111.758 10.1954L108.618 10.7752C108.473 10.1954 108.328 9.61557 108.135 9.08408C107.941 8.6009 107.651 8.11773 107.265 7.77951C106.878 7.39297 106.444 7.10306 105.96 6.90979C105.429 6.71652 104.801 6.61989 104.076 6.61989C103.061 6.61989 102.24 6.81316 101.563 7.1997C100.839 7.58624 100.307 8.11773 99.824 8.79417C99.3892 9.47062 99.051 10.2437 98.8577 11.1617C98.6644 12.0798 98.5678 13.0461 98.5678 14.0608C98.5678 15.1238 98.6644 16.0901 98.8577 17.0081C99.051 17.9262 99.3409 18.6993 99.824 19.3757C100.259 20.0521 100.839 20.5836 101.515 20.9702C102.192 21.3567 103.061 21.55 104.076 21.55C105.622 21.55 106.733 21.1635 107.458 20.3904C108.183 19.6173 108.666 18.5543 108.908 17.2497H112V17.1531Z" fill="black"/>
</svg>
